<svg id="Layer_1" data-name="Layer 1" xmlns="http://www.w3.org/2000/svg" viewBox="0 0 1399.6 590.4"><defs><style>.cls-1{fill:none;stroke:#ec411b;stroke-miterlimit:10;}</style></defs><rect class="cls-1" x="0.5" y="0.5" width="279.7" height="117.9"/><rect class="cls-1" x="280.2" y="0.5" width="279.7" height="117.9"/><rect class="cls-1" x="560" y="0.5" width="279.7" height="117.9"/><rect class="cls-1" x="839.7" y="0.5" width="279.7" height="117.9"/><rect class="cls-1" x="1119.4" y="0.5" width="279.7" height="117.9"/><rect class="cls-1" x="0.5" y="118.4" width="279.7" height="117.9"/><rect class="cls-1" x="280.2" y="118.4" width="279.7" height="117.9"/><rect class="cls-1" x="560" y="118.4" width="279.7" height="117.9"/><rect class="cls-1" x="839.7" y="118.4" width="279.7" height="117.9"/><rect class="cls-1" x="1119.4" y="118.4" width="279.7" height="117.9"/><rect class="cls-1" x="0.5" y="236.3" width="279.7" height="117.9"/><rect class="cls-1" x="280.2" y="236.3" width="279.7" height="117.9"/><rect class="cls-1" x="560" y="236.3" width="279.7" height="117.9"/><rect class="cls-1" x="839.7" y="236.3" width="279.7" height="117.9"/><rect class="cls-1" x="1119.4" y="236.3" width="279.7" height="117.9"/><rect class="cls-1" x="0.5" y="354.1" width="279.7" height="117.9"/><rect class="cls-1" x="280.2" y="354.1" width="279.7" height="117.9"/><rect class="cls-1" x="560" y="354.1" width="279.7" height="117.9"/><rect class="cls-1" x="839.7" y="354.1" width="279.7" height="117.9"/><rect class="cls-1" x="1119.4" y="354.1" width="279.7" height="117.9"/><rect class="cls-1" x="0.5" y="472" width="279.7" height="117.9"/><rect class="cls-1" x="280.2" y="472" width="279.7" height="117.9"/><rect class="cls-1" x="560" y="472" width="279.7" height="117.9"/><rect class="cls-1" x="839.7" y="472" width="279.7" height="117.9"/><rect class="cls-1" x="1119.4" y="472" width="279.7" height="117.9"/></svg>