<svg xmlns="http://www.w3.org/2000/svg" viewBox="0 0 852.02 316.6"><defs><style>.cls-1,.cls-5,.cls-6{isolation:isolate;}.cls-1,.cls-6{font-size:16px;fill:#3e1a13;}.cls-1{font-family:Arial-BoldMT, Arial;font-weight:700;}.cls-2{fill:#1c3d76;}.cls-3{fill:#c56157;}.cls-4{fill:#26a4de;}.cls-6{font-family:ArialMT, Arial;}.cls-10,.cls-11,.cls-7,.cls-9{fill:none;stroke:#f8b233;stroke-miterlimit:10;}.cls-7{stroke-width:0.7px;}.cls-8{fill:#f8b233;}.cls-10,.cls-11,.cls-9{stroke-width:2.83px;}.cls-10{stroke-dasharray:11.56 11.56;}.cls-11{stroke-dasharray:11.24 11.24;}</style></defs><g id="Layer_2" data-name="Layer 2"><g id="Layer_1-2" data-name="Layer 1"><text class="cls-1" transform="translate(0 13.73)">The greater the orange circle, the greater the plunge in the cultural authority <tspan x="105.77" y="19.2">of science (in case of a disagreement in beliefs). </tspan></text><circle id="Ellipse_5381" data-name="Ellipse 5381" class="cls-2" cx="531.87" cy="170.58" r="37.68"/><circle id="Ellipse_6583" data-name="Ellipse 6583" class="cls-3" cx="87.76" cy="171.57" r="55.66"/><path class="cls-4" d="M320.75,163l49.66,101.64A113.11,113.11,0,1,1,431,137.5Z"/><g class="cls-5"><text class="cls-6" transform="translate(484.73 300.33)"><tspan xml:space="preserve">Picks religion  over science in case of disagreement</tspan></text></g><line class="cls-7" x1="216.49" y1="310.37" x2="851.96" y2="310.37"/><circle class="cls-8" cx="216.62" cy="310.37" r="2.63"/><circle class="cls-8" cx="171.99" cy="270.87" r="45.73"/><line class="cls-9" x1="412.49" y1="241.37" x2="412.49" y2="247.03"/><line class="cls-10" x1="412.49" y1="258.59" x2="412.49" y2="275.93"/><polyline class="cls-9" points="412.49 281.71 412.49 287.37 406.83 287.37"/><line class="cls-11" x1="395.59" y1="287.37" x2="243.84" y2="287.37"/><line class="cls-9" x1="238.22" y1="287.37" x2="232.56" y2="287.37"/><polygon class="cls-8" points="241.94 275.8 243.87 277.87 233.65 287.37 243.87 296.87 241.94 298.95 229.49 287.37 241.94 275.8"/><circle id="Ellipse_6584-2" data-name="Ellipse 6584-2" class="cls-4" cx="321.22" cy="162.57" r="113.1"/></g></g></svg>