<svg xmlns="http://www.w3.org/2000/svg" viewBox="0 0 163.16 129.23"><defs><style>.cls-1{fill:#c56157;}.cls-2{fill:#931c80;}.cls-3{fill:#f8b233;}.cls-4{fill:#26a4de;}.cls-5{font-size:10px;font-family:HelveticaNeue, Helvetica Neue;}.cls-6{fill:none;stroke:#f8b233;stroke-miterlimit:10;}</style></defs><g id="Layer_2" data-name="Layer 2"><g id="Layer_1-2" data-name="Layer 1"><circle id="Ellipse_6583" data-name="Ellipse 6583" class="cls-1" cx="22.61" cy="49.49" r="22.61"/><path id="Path_2049" data-name="Path 2049" class="cls-2" d="M44.63,44.4a22.61,22.61,0,0,0-22-17.51v22.6Z"/><path id="Path_2049-2" data-name="Path 2049" class="cls-3" d="M32.53,69.8a22.61,22.61,0,0,0,12.1-25.4l-22,5.09Z"/><circle id="Ellipse_6584" data-name="Ellipse 6584" class="cls-4" cx="117.23" cy="46.01" r="45.93"/><path id="Path_2049-3" data-name="Path 2049" class="cls-2" d="M162.05,35.64A46,46,0,0,0,117.23,0V46Z"/><path class="cls-3" d="M162,35.66,117.23,46l.07,45.69c5,1.89-5.76.25-.07.25A45.94,45.94,0,0,0,162,35.66Z"/><text class="cls-5" transform="translate(41.4 124.42)">CHOOSE RELIGION</text><line class="cls-6" x1="46.8" y1="108.19" x2="23.65" y2="49.89"/><line class="cls-6" x1="118.78" y1="83.03" x2="118.78" y2="106.53"/></g></g></svg>