<svg xmlns="http://www.w3.org/2000/svg" viewBox="0 0 933.24 328.49"><defs><style>.cls-1{font-size:21px;}.cls-1,.cls-11,.cls-6,.cls-7{fill:#3f1a13;}.cls-1,.cls-6{font-family:HelveticaNeue-Bold, Helvetica Neue;font-weight:700;}.cls-14,.cls-15,.cls-2,.cls-4{fill:none;}.cls-2,.cls-4{stroke:#fffcf8;}.cls-3{fill:#4db0cf;}.cls-14,.cls-4{stroke-miterlimit:10;}.cls-5{fill:#f7b033;}.cls-11,.cls-6{font-size:14px;}.cls-8{letter-spacing:-0.07em;}.cls-9{letter-spacing:0em;}.cls-10{letter-spacing:-0.07em;}.cls-11{font-family:HelveticaNeue, Helvetica Neue;}.cls-12{fill:#401a12;}.cls-13{fill:#fff;}.cls-14{stroke:#c7c7c7;stroke-width:2.25px;}.cls-15{stroke:#1d1d1b;}</style></defs><g id="Layer_2" data-name="Layer 2"><text class="cls-1" transform="translate(187 310.49)">Malawi</text><rect class="cls-2" x="153.17" y="289.51" width="138.75" height="38.48"/><text class="cls-1" transform="translate(582.1 310.49)">UK</text><rect class="cls-2" x="528.08" y="289.51" width="138.75" height="38.48"/><path class="cls-3" d="M141.2,46.32a12.62,12.62,0,0,1-15.76,8.9,13.24,13.24,0,0,1-8.58-16.34A12.63,12.63,0,0,1,132.62,30a13.24,13.24,0,0,1,8.58,16.34"/><path class="cls-4" d="M141.2,46.32a12.62,12.62,0,0,1-15.76,8.9,13.24,13.24,0,0,1-8.58-16.34A12.63,12.63,0,0,1,132.62,30,13.24,13.24,0,0,1,141.2,46.32Z"/><path class="cls-5" d="M323.63,46.32a12.62,12.62,0,0,1-15.76,8.9,13.23,13.23,0,0,1-8.57-16.34A12.62,12.62,0,0,1,315.05,30a13.24,13.24,0,0,1,8.58,16.34"/><path class="cls-4" d="M323.63,46.32a12.62,12.62,0,0,1-15.76,8.9,13.23,13.23,0,0,1-8.57-16.34A12.62,12.62,0,0,1,315.05,30,13.24,13.24,0,0,1,323.63,46.32Z"/><path class="cls-3" d="M519.29,46.32a12.61,12.61,0,0,1-15.75,8.9A13.24,13.24,0,0,1,495,38.88,12.62,12.62,0,0,1,510.71,30a13.24,13.24,0,0,1,8.58,16.34"/><path class="cls-4" d="M519.29,46.32a12.61,12.61,0,0,1-15.75,8.9A13.24,13.24,0,0,1,495,38.88,12.62,12.62,0,0,1,510.71,30,13.24,13.24,0,0,1,519.29,46.32Z"/><path class="cls-5" d="M701.72,46.32A12.61,12.61,0,0,1,686,55.22a13.24,13.24,0,0,1-8.58-16.34A12.62,12.62,0,0,1,693.14,30a13.24,13.24,0,0,1,8.58,16.34"/><path class="cls-4" d="M701.72,46.32A12.61,12.61,0,0,1,686,55.22a13.24,13.24,0,0,1-8.58-16.34A12.62,12.62,0,0,1,693.14,30,13.24,13.24,0,0,1,701.72,46.32Z"/><text class="cls-6" transform="translate(1 187.66)">People who think </text><path class="cls-7" d="M3.43,206.86a1.14,1.14,0,0,0,.34.38,1.51,1.51,0,0,0,.48.22,2.78,2.78,0,0,0,.57.07,2.28,2.28,0,0,0,.44-.05,1.31,1.31,0,0,0,.42-.16A1,1,0,0,0,6,207a.74.74,0,0,0,.12-.44c0-.29-.19-.52-.59-.67a12,12,0,0,0-1.66-.45,8.19,8.19,0,0,1-.85-.23,2.74,2.74,0,0,1-.73-.35,1.53,1.53,0,0,1-.72-1.35,2.22,2.22,0,0,1,.28-1.15,2,2,0,0,1,.72-.7,3,3,0,0,1,1-.37,6.12,6.12,0,0,1,1.14-.1,6,6,0,0,1,1.14.11,2.88,2.88,0,0,1,1,.38,2.29,2.29,0,0,1,.72.7,2.47,2.47,0,0,1,.35,1.12H6a.89.89,0,0,0-.44-.78,2,2,0,0,0-.92-.2,2.42,2.42,0,0,0-.37,0,1,1,0,0,0-.35.09.8.8,0,0,0-.28.2.57.57,0,0,0-.11.36.54.54,0,0,0,.2.43,1.38,1.38,0,0,0,.51.28,7.38,7.38,0,0,0,.72.19l.83.18a5.8,5.8,0,0,1,.84.24,2.57,2.57,0,0,1,.74.37,1.78,1.78,0,0,1,.52.57,1.7,1.7,0,0,1,.19.85,2.24,2.24,0,0,1-1,2,2.83,2.83,0,0,1-1.06.41,6.13,6.13,0,0,1-1.21.12,6.26,6.26,0,0,1-1.23-.12,3.58,3.58,0,0,1-1.08-.42,2.46,2.46,0,0,1-.76-.78,2.24,2.24,0,0,1-.33-1.21H3.3A1.07,1.07,0,0,0,3.43,206.86Zm9.3-4.13a1.44,1.44,0,0,0-.8.21,1.74,1.74,0,0,0-.52.56,2.4,2.4,0,0,0-.29.76,4.56,4.56,0,0,0-.08.82,4.43,4.43,0,0,0,.08.8,2.46,2.46,0,0,0,.28.73,1.46,1.46,0,0,0,.51.54,1.38,1.38,0,0,0,.78.21,1.44,1.44,0,0,0,1.1-.4,1.83,1.83,0,0,0,.48-1.07h1.92a3.28,3.28,0,0,1-1.12,2.2,3.64,3.64,0,0,1-2.37.75,4,4,0,0,1-1.49-.27,3.29,3.29,0,0,1-1.89-1.93,4,4,0,0,1-.27-1.49,4.64,4.64,0,0,1,.25-1.56,3.45,3.45,0,0,1,.72-1.25,3.26,3.26,0,0,1,1.16-.82,4.07,4.07,0,0,1,1.57-.29,4.27,4.27,0,0,1,1.24.17,3.26,3.26,0,0,1,1.06.51,2.65,2.65,0,0,1,1.1,2.06H14.2a1.33,1.33,0,0,0-1.47-1.24Zm4.64-2.43v-1.63h2v1.63Zm2,1.12v7.24h-2v-7.24Zm3.7,5.51a1.78,1.78,0,0,0,1.29.43,1.76,1.76,0,0,0,1-.3,1.27,1.27,0,0,0,.54-.64h1.75a3.29,3.29,0,0,1-1.29,1.86,3.74,3.74,0,0,1-2.1.56,4.18,4.18,0,0,1-1.54-.27,3,3,0,0,1-1.16-.78,3.33,3.33,0,0,1-.74-1.2,4.48,4.48,0,0,1-.26-1.54,4.13,4.13,0,0,1,.27-1.51,3.64,3.64,0,0,1,.75-1.21,3.71,3.71,0,0,1,1.17-.81,3.91,3.91,0,0,1,1.51-.29,3.57,3.57,0,0,1,1.61.35,3.29,3.29,0,0,1,1.13,1,4,4,0,0,1,.63,1.38,5,5,0,0,1,.14,1.61H22.56A2,2,0,0,0,23.05,206.93Zm2.25-3.81a1.41,1.41,0,0,0-1.09-.39,1.68,1.68,0,0,0-.79.16,1.34,1.34,0,0,0-.5.4,1.29,1.29,0,0,0-.27.5,2.48,2.48,0,0,0-.09.48h3.23A2.23,2.23,0,0,0,25.3,203.12Zm5.55-1.7v1h0a2.34,2.34,0,0,1,1-.92,2.83,2.83,0,0,1,1.23-.28,3.49,3.49,0,0,1,1.31.21,2,2,0,0,1,.81.61,2.4,2.4,0,0,1,.41.93,5.83,5.83,0,0,1,.12,1.23v4.45h-2v-4.09a2.48,2.48,0,0,0-.28-1.33,1.07,1.07,0,0,0-1-.44,1.38,1.38,0,0,0-1.18.48,2.7,2.7,0,0,0-.36,1.59v3.79H29v-7.24Zm9.87,1.31a1.42,1.42,0,0,0-.8.21,1.74,1.74,0,0,0-.52.56,2.18,2.18,0,0,0-.29.76,3.81,3.81,0,0,0-.09.82,3.7,3.7,0,0,0,.09.8,2.45,2.45,0,0,0,.27.73,1.65,1.65,0,0,0,.51.54,1.43,1.43,0,0,0,.79.21,1.46,1.46,0,0,0,1.1-.4,2,2,0,0,0,.48-1.07h1.92a3.32,3.32,0,0,1-1.12,2.2,3.66,3.66,0,0,1-2.37.75,4,4,0,0,1-1.49-.27,3.44,3.44,0,0,1-1.16-.76,3.7,3.7,0,0,1-.74-1.17,4,4,0,0,1-.26-1.49,4.9,4.9,0,0,1,.24-1.56,3.33,3.33,0,0,1,1.88-2.07,4.07,4.07,0,0,1,1.57-.29,4.27,4.27,0,0,1,1.24.17,3.31,3.31,0,0,1,1.07.51,2.82,2.82,0,0,1,.76.85,2.71,2.71,0,0,1,.33,1.21H42.19a1.33,1.33,0,0,0-1.47-1.24Zm6.7,4.2a2.06,2.06,0,0,0,2.33.13,1.24,1.24,0,0,0,.53-.64H52a3.29,3.29,0,0,1-1.29,1.86,3.74,3.74,0,0,1-2.1.56,4.18,4.18,0,0,1-1.54-.27,3.13,3.13,0,0,1-1.16-.78,3.31,3.31,0,0,1-.73-1.2,4.26,4.26,0,0,1-.26-1.54,4.13,4.13,0,0,1,.26-1.51,3.55,3.55,0,0,1,1.93-2,3.82,3.82,0,0,1,1.5-.29,3.54,3.54,0,0,1,1.61.35,3.2,3.2,0,0,1,1.13,1,4.06,4.06,0,0,1,.64,1.38,5.35,5.35,0,0,1,.14,1.61H46.93A2.07,2.07,0,0,0,47.42,206.93Zm2.25-3.81a1.4,1.4,0,0,0-1.08-.39,1.68,1.68,0,0,0-.79.16,1.47,1.47,0,0,0-.51.4,1.41,1.41,0,0,0-.26.5,2,2,0,0,0-.1.48h3.24A2.32,2.32,0,0,0,49.67,203.12Zm9.54-4.45v3.64h0a2,2,0,0,1,1-.82,3.17,3.17,0,0,1,1.29-.26,2.71,2.71,0,0,1,1.08.22,2.85,2.85,0,0,1,1,.69,3.64,3.64,0,0,1,.69,1.18,5.58,5.58,0,0,1,0,3.43,3.54,3.54,0,0,1-.69,1.18,2.85,2.85,0,0,1-1,.69,2.71,2.71,0,0,1-1.08.22,3.8,3.8,0,0,1-1.43-.25,1.83,1.83,0,0,1-1-.85h0v.92H57.22v-10Zm3.22,5.5a2.14,2.14,0,0,0-.31-.74,1.61,1.61,0,0,0-.52-.52,1.69,1.69,0,0,0-1.52,0,1.64,1.64,0,0,0-.53.52,2.36,2.36,0,0,0-.31.74,3.88,3.88,0,0,0,0,1.75,2.36,2.36,0,0,0,.31.74,1.72,1.72,0,0,0,.53.51,1.62,1.62,0,0,0,1.52,0,1.69,1.69,0,0,0,.52-.51,2.14,2.14,0,0,0,.31-.74,3.88,3.88,0,0,0,0-1.75Zm5.48,2.76a1.74,1.74,0,0,0,1.28.43,1.77,1.77,0,0,0,1-.3,1.2,1.2,0,0,0,.53-.64h1.75a3.29,3.29,0,0,1-1.29,1.86,3.7,3.7,0,0,1-2.1.56,4.18,4.18,0,0,1-1.54-.27,3.21,3.21,0,0,1-1.16-.78,3.31,3.31,0,0,1-.73-1.2,4.26,4.26,0,0,1-.26-1.54,4.35,4.35,0,0,1,.26-1.51,3.51,3.51,0,0,1,.76-1.21,3.71,3.71,0,0,1,1.17-.81,3.82,3.82,0,0,1,1.5-.29,3.51,3.51,0,0,1,1.61.35,3.2,3.2,0,0,1,1.13,1,3.88,3.88,0,0,1,.64,1.38,5,5,0,0,1,.14,1.61H67.42A2,2,0,0,0,67.91,206.93Zm2.24-3.81a1.38,1.38,0,0,0-1.08-.39,1.68,1.68,0,0,0-.79.16,1.47,1.47,0,0,0-.51.4,1.41,1.41,0,0,0-.26.5,2.48,2.48,0,0,0-.09.48h3.23A2.23,2.23,0,0,0,70.15,203.12Zm5.55-1.7v1h0a2.28,2.28,0,0,1,1-.92,2.83,2.83,0,0,1,1.23-.28,3.49,3.49,0,0,1,1.31.21,1.92,1.92,0,0,1,.8.61,2.27,2.27,0,0,1,.42.93,6.62,6.62,0,0,1,.11,1.23v4.45h-2v-4.09a2.58,2.58,0,0,0-.28-1.33,1.08,1.08,0,0,0-1-.44,1.37,1.37,0,0,0-1.17.48,2.62,2.62,0,0,0-.37,1.59v3.79h-2v-7.24Zm8.54,5.51a2.06,2.06,0,0,0,2.33.13,1.24,1.24,0,0,0,.53-.64h1.75a3.29,3.29,0,0,1-1.29,1.86,3.74,3.74,0,0,1-2.1.56,4.18,4.18,0,0,1-1.54-.27,3.13,3.13,0,0,1-1.16-.78,3.31,3.31,0,0,1-.73-1.2,4.26,4.26,0,0,1-.26-1.54,4.13,4.13,0,0,1,.26-1.51,3.55,3.55,0,0,1,1.93-2,3.82,3.82,0,0,1,1.5-.29,3.54,3.54,0,0,1,1.61.35,3.2,3.2,0,0,1,1.13,1,4.06,4.06,0,0,1,.64,1.38,5.35,5.35,0,0,1,.14,1.61H83.75A2.07,2.07,0,0,0,84.24,206.93Zm2.25-3.81a1.4,1.4,0,0,0-1.08-.39,1.68,1.68,0,0,0-.79.16,1.47,1.47,0,0,0-.51.4,1.41,1.41,0,0,0-.26.5,2,2,0,0,0-.1.48H87A2.32,2.32,0,0,0,86.49,203.12Zm2.91-.37v-1.33h1.19v-.56a2.17,2.17,0,0,1,.6-1.58,2.44,2.44,0,0,1,1.82-.61,4.7,4.7,0,0,1,.53,0l.52,0v1.49a5.84,5.84,0,0,0-.73-.05.79.79,0,0,0-.58.19.92.92,0,0,0-.18.64v.43H94v1.33H92.57v5.91h-2v-5.91Zm5.75-2.45v-1.63h2v1.63Zm2,1.12v7.24h-2v-7.24Zm5.54,0v1.33h-1.45v3.59a1,1,0,0,0,.16.67,1,1,0,0,0,.68.17l.32,0,.29,0v1.54a4.37,4.37,0,0,1-.56.06h-.6a5.94,5.94,0,0,1-.87-.06,1.86,1.86,0,0,1-.73-.25,1.29,1.29,0,0,1-.5-.51,1.9,1.9,0,0,1-.18-.89v-4.27H98v-1.33h1.21v-2.17h2v2.17Zm2.63,5.44a1.14,1.14,0,0,0,.34.38,1.51,1.51,0,0,0,.48.22,2.69,2.69,0,0,0,.57.07,2.28,2.28,0,0,0,.44-.05,1.31,1.31,0,0,0,.42-.16,1,1,0,0,0,.32-.28.74.74,0,0,0,.12-.44c0-.29-.2-.52-.59-.67a12,12,0,0,0-1.66-.45,8.19,8.19,0,0,1-.85-.23,2.74,2.74,0,0,1-.73-.35,1.53,1.53,0,0,1-.72-1.35,2.13,2.13,0,0,1,.28-1.15,2,2,0,0,1,.72-.7,2.92,2.92,0,0,1,1-.37,6.3,6.3,0,0,1,1.15-.1,6.12,6.12,0,0,1,1.14.11,2.88,2.88,0,0,1,1,.38,2.29,2.29,0,0,1,.72.7,2.35,2.35,0,0,1,.34,1.12H107.9a.87.87,0,0,0-.43-.78,2,2,0,0,0-.92-.2,2.36,2.36,0,0,0-.37,0,1,1,0,0,0-.35.09.8.8,0,0,0-.28.2.57.57,0,0,0-.11.36.54.54,0,0,0,.2.43,1.38,1.38,0,0,0,.51.28,7.38,7.38,0,0,0,.72.19l.82.18a5.93,5.93,0,0,1,.85.24,2.57,2.57,0,0,1,.74.37,1.75,1.75,0,0,1,.51.57,1.7,1.7,0,0,1,.2.85,2.3,2.3,0,0,1-.29,1.19,2.16,2.16,0,0,1-.75.78,2.78,2.78,0,0,1-1,.41,6.13,6.13,0,0,1-1.21.12,6.43,6.43,0,0,1-1.24-.12,3.62,3.62,0,0,1-1.07-.42,2.49,2.49,0,0,1-.77-.78,2.43,2.43,0,0,1-.33-1.21h1.89A1.07,1.07,0,0,0,105.31,206.86Z"/><text class="cls-6" transform="translate(1 229.66)">most people in </text><text class="cls-6" transform="translate(1 250.66)">their countr<tspan class="cls-8" x="77.78" y="0">y</tspan><tspan class="cls-9" x="84.01" y="0">.</tspan></text><rect class="cls-2" x="0.5" y="173.51" width="123" height="135"/><text class="cls-6" transform="translate(814 92.66)">People who think </text><path class="cls-7" d="M816.43,111.86a1.14,1.14,0,0,0,.34.38,1.47,1.47,0,0,0,.49.22,2.6,2.6,0,0,0,.56.07,2.28,2.28,0,0,0,.44,0,1.31,1.31,0,0,0,.42-.16A1,1,0,0,0,819,112a.74.74,0,0,0,.12-.44c0-.29-.19-.52-.59-.67a12,12,0,0,0-1.66-.45,8.19,8.19,0,0,1-.85-.23,2.74,2.74,0,0,1-.73-.35,1.53,1.53,0,0,1-.72-1.35,2.13,2.13,0,0,1,.28-1.15,2,2,0,0,1,.72-.7,3,3,0,0,1,1-.37,6.12,6.12,0,0,1,1.14-.1,6,6,0,0,1,1.14.11,2.88,2.88,0,0,1,1,.38,2.29,2.29,0,0,1,.72.7,2.47,2.47,0,0,1,.35,1.12H819a.89.89,0,0,0-.44-.78,2,2,0,0,0-.92-.2,2.42,2.42,0,0,0-.37,0,1,1,0,0,0-.35.09.8.8,0,0,0-.28.2.57.57,0,0,0-.11.36.54.54,0,0,0,.2.43,1.38,1.38,0,0,0,.51.28,7.38,7.38,0,0,0,.72.19l.83.18a5.8,5.8,0,0,1,.84.24,2.57,2.57,0,0,1,.74.37,1.78,1.78,0,0,1,.52.57,1.7,1.7,0,0,1,.19.85,2.3,2.3,0,0,1-.28,1.19,2.34,2.34,0,0,1-.75.78,2.83,2.83,0,0,1-1.06.41,6.13,6.13,0,0,1-1.21.12,6.26,6.26,0,0,1-1.23-.12,3.42,3.42,0,0,1-1.07-.42,2.52,2.52,0,0,1-.78-.78,2.33,2.33,0,0,1-.32-1.21h1.89A1.07,1.07,0,0,0,816.43,111.86Zm9.3-4.13a1.44,1.44,0,0,0-.8.21,1.74,1.74,0,0,0-.52.56,2.4,2.4,0,0,0-.29.76,4.56,4.56,0,0,0-.08.82,4.43,4.43,0,0,0,.08.8,2.46,2.46,0,0,0,.28.73,1.46,1.46,0,0,0,.51.54,1.38,1.38,0,0,0,.78.21,1.44,1.44,0,0,0,1.1-.4,1.83,1.83,0,0,0,.48-1.07h1.92a3.28,3.28,0,0,1-1.12,2.2,3.64,3.64,0,0,1-2.37.75,4,4,0,0,1-1.49-.27,3.29,3.29,0,0,1-1.89-1.93,4,4,0,0,1-.27-1.49,4.64,4.64,0,0,1,.25-1.56,3.45,3.45,0,0,1,.72-1.25,3.26,3.26,0,0,1,1.16-.82,4.07,4.07,0,0,1,1.57-.29,4.27,4.27,0,0,1,1.24.17,3.26,3.26,0,0,1,1.06.51,2.65,2.65,0,0,1,1.1,2.06H827.2a1.33,1.33,0,0,0-1.47-1.24Zm4.64-2.43v-1.63h2v1.63Zm2,1.12v7.24h-2v-7.24Zm3.7,5.51a1.78,1.78,0,0,0,1.29.43,1.76,1.76,0,0,0,1-.3,1.27,1.27,0,0,0,.54-.64h1.75a3.29,3.29,0,0,1-1.29,1.86,3.74,3.74,0,0,1-2.1.56,4.18,4.18,0,0,1-1.54-.27,3,3,0,0,1-1.16-.78,3.33,3.33,0,0,1-.74-1.2,4.48,4.48,0,0,1-.26-1.54,4.13,4.13,0,0,1,.27-1.51,3.64,3.64,0,0,1,.75-1.21,3.71,3.71,0,0,1,1.17-.81,3.91,3.91,0,0,1,1.51-.29,3.57,3.57,0,0,1,1.61.35,3.29,3.29,0,0,1,1.13,1,4,4,0,0,1,.63,1.38,5,5,0,0,1,.14,1.61h-5.22A2,2,0,0,0,836.05,111.93Zm2.25-3.81a1.41,1.41,0,0,0-1.09-.39,1.68,1.68,0,0,0-.79.16,1.34,1.34,0,0,0-.5.4,1.29,1.29,0,0,0-.27.5,2.48,2.48,0,0,0-.09.48h3.23A2.23,2.23,0,0,0,838.3,108.12Zm5.55-1.7v1h0a2.34,2.34,0,0,1,1-.92,2.83,2.83,0,0,1,1.23-.28,3.49,3.49,0,0,1,1.31.21,2,2,0,0,1,.81.61,2.4,2.4,0,0,1,.41.93,5.83,5.83,0,0,1,.12,1.23v4.45h-2v-4.09a2.48,2.48,0,0,0-.28-1.33,1.07,1.07,0,0,0-1-.44,1.38,1.38,0,0,0-1.18.48,2.7,2.7,0,0,0-.36,1.59v3.79h-2v-7.24Zm9.87,1.31a1.42,1.42,0,0,0-.8.21,1.74,1.74,0,0,0-.52.56,2.18,2.18,0,0,0-.29.76,3.81,3.81,0,0,0-.09.82,3.7,3.7,0,0,0,.09.8,2.45,2.45,0,0,0,.27.73,1.65,1.65,0,0,0,.51.54,1.43,1.43,0,0,0,.79.21,1.46,1.46,0,0,0,1.1-.4,2,2,0,0,0,.48-1.07h1.92a3.32,3.32,0,0,1-1.12,2.2,3.66,3.66,0,0,1-2.37.75,4,4,0,0,1-1.49-.27,3.44,3.44,0,0,1-1.16-.76,3.7,3.7,0,0,1-.74-1.17,4,4,0,0,1-.26-1.49,4.9,4.9,0,0,1,.24-1.56,3.33,3.33,0,0,1,1.88-2.07,4.07,4.07,0,0,1,1.57-.29,4.27,4.27,0,0,1,1.24.17,3.31,3.31,0,0,1,1.07.51,2.82,2.82,0,0,1,.76.85,2.71,2.71,0,0,1,.33,1.21h-1.94a1.33,1.33,0,0,0-1.47-1.24Zm6.7,4.2a2.06,2.06,0,0,0,2.33.13,1.24,1.24,0,0,0,.53-.64H865a3.29,3.29,0,0,1-1.29,1.86,3.74,3.74,0,0,1-2.1.56,4.18,4.18,0,0,1-1.54-.27,3.13,3.13,0,0,1-1.16-.78,3.31,3.31,0,0,1-.73-1.2,4.26,4.26,0,0,1-.26-1.54,4.13,4.13,0,0,1,.26-1.51,3.55,3.55,0,0,1,1.93-2,3.82,3.82,0,0,1,1.5-.29,3.54,3.54,0,0,1,1.61.35,3.2,3.2,0,0,1,1.13,1,4.06,4.06,0,0,1,.64,1.38,5.35,5.35,0,0,1,.14,1.61h-5.23A2.07,2.07,0,0,0,860.42,111.93Zm2.25-3.81a1.4,1.4,0,0,0-1.08-.39,1.68,1.68,0,0,0-.79.16,1.47,1.47,0,0,0-.51.4,1.41,1.41,0,0,0-.26.5,2,2,0,0,0-.1.48h3.24A2.32,2.32,0,0,0,862.67,108.12Zm9.54-4.45v3.64h0a2,2,0,0,1,1-.82,3.17,3.17,0,0,1,1.29-.26,2.71,2.71,0,0,1,1.08.22,2.85,2.85,0,0,1,1,.69,3.64,3.64,0,0,1,.69,1.18,5.58,5.58,0,0,1,0,3.43,3.54,3.54,0,0,1-.69,1.18,2.85,2.85,0,0,1-1,.69,2.71,2.71,0,0,1-1.08.22,3.8,3.8,0,0,1-1.43-.25,1.83,1.83,0,0,1-1-.85h0v.92h-1.89v-10Zm3.22,5.5a2.14,2.14,0,0,0-.31-.74,1.61,1.61,0,0,0-.52-.52,1.69,1.69,0,0,0-1.52,0,1.64,1.64,0,0,0-.53.52,2.36,2.36,0,0,0-.31.74,3.88,3.88,0,0,0,0,1.75,2.36,2.36,0,0,0,.31.74,1.72,1.72,0,0,0,.53.51,1.62,1.62,0,0,0,1.52,0,1.69,1.69,0,0,0,.52-.51,2.14,2.14,0,0,0,.31-.74,3.88,3.88,0,0,0,0-1.75Zm5.48,2.76a1.74,1.74,0,0,0,1.28.43,1.77,1.77,0,0,0,1-.3,1.2,1.2,0,0,0,.53-.64h1.75a3.29,3.29,0,0,1-1.29,1.86,3.7,3.7,0,0,1-2.1.56,4.18,4.18,0,0,1-1.54-.27,3.21,3.21,0,0,1-1.16-.78,3.31,3.31,0,0,1-.73-1.2,4.26,4.26,0,0,1-.26-1.54,4.35,4.35,0,0,1,.26-1.51,3.51,3.51,0,0,1,.76-1.21,3.71,3.71,0,0,1,1.17-.81,3.82,3.82,0,0,1,1.5-.29,3.51,3.51,0,0,1,1.61.35,3.2,3.2,0,0,1,1.13,1,3.88,3.88,0,0,1,.64,1.38,5,5,0,0,1,.14,1.61h-5.22A2,2,0,0,0,880.91,111.93Zm2.24-3.81a1.38,1.38,0,0,0-1.08-.39,1.68,1.68,0,0,0-.79.16,1.47,1.47,0,0,0-.51.4,1.41,1.41,0,0,0-.26.5,2.48,2.48,0,0,0-.09.48h3.23A2.23,2.23,0,0,0,883.15,108.12Zm5.55-1.7v1h0a2.28,2.28,0,0,1,1-.92,2.83,2.83,0,0,1,1.23-.28,3.49,3.49,0,0,1,1.31.21,1.92,1.92,0,0,1,.8.61,2.27,2.27,0,0,1,.42.93,6.62,6.62,0,0,1,.11,1.23v4.45h-2v-4.09a2.58,2.58,0,0,0-.28-1.33,1.08,1.08,0,0,0-1-.44,1.37,1.37,0,0,0-1.17.48,2.62,2.62,0,0,0-.37,1.59v3.79h-2v-7.24Zm8.54,5.51a2.06,2.06,0,0,0,2.33.13,1.24,1.24,0,0,0,.53-.64h1.75a3.29,3.29,0,0,1-1.29,1.86,3.74,3.74,0,0,1-2.1.56,4.18,4.18,0,0,1-1.54-.27,3.13,3.13,0,0,1-1.16-.78,3.31,3.31,0,0,1-.73-1.2,4.26,4.26,0,0,1-.26-1.54,4.13,4.13,0,0,1,.26-1.51,3.55,3.55,0,0,1,1.93-2,3.82,3.82,0,0,1,1.5-.29,3.54,3.54,0,0,1,1.61.35,3.2,3.2,0,0,1,1.13,1,4.06,4.06,0,0,1,.64,1.38,5.35,5.35,0,0,1,.14,1.61h-5.23A2.07,2.07,0,0,0,897.24,111.93Zm2.25-3.81a1.4,1.4,0,0,0-1.08-.39,1.68,1.68,0,0,0-.79.16,1.47,1.47,0,0,0-.51.4,1.41,1.41,0,0,0-.26.5,2,2,0,0,0-.1.48H900A2.32,2.32,0,0,0,899.49,108.12Zm2.91-.37v-1.33h1.19v-.56a2.17,2.17,0,0,1,.6-1.58,2.44,2.44,0,0,1,1.82-.61,4.7,4.7,0,0,1,.53,0l.52,0v1.49a5.84,5.84,0,0,0-.73,0,.79.79,0,0,0-.58.19.92.92,0,0,0-.18.64v.43H907v1.33h-1.38v5.91h-2v-5.91Zm5.75-2.45v-1.63h2v1.63Zm2,1.12v7.24h-2v-7.24Zm5.54,0v1.33h-1.45v3.59a1,1,0,0,0,.16.67,1,1,0,0,0,.68.17l.32,0,.29,0v1.54a4.37,4.37,0,0,1-.56.06h-.6a5.94,5.94,0,0,1-.87-.06,1.86,1.86,0,0,1-.73-.25,1.29,1.29,0,0,1-.5-.51,1.9,1.9,0,0,1-.18-.89v-4.27H911v-1.33h1.21v-2.17h2v2.17Zm2.63,5.44a1.14,1.14,0,0,0,.34.38,1.51,1.51,0,0,0,.48.22,2.69,2.69,0,0,0,.57.07,2.28,2.28,0,0,0,.44,0,1.31,1.31,0,0,0,.42-.16,1,1,0,0,0,.32-.28.74.74,0,0,0,.12-.44c0-.29-.2-.52-.59-.67a12,12,0,0,0-1.66-.45,8.19,8.19,0,0,1-.85-.23,2.74,2.74,0,0,1-.73-.35,1.53,1.53,0,0,1-.72-1.35,2.13,2.13,0,0,1,.28-1.15,2,2,0,0,1,.72-.7,2.92,2.92,0,0,1,1-.37,6.3,6.3,0,0,1,1.15-.1,6.12,6.12,0,0,1,1.14.11,2.88,2.88,0,0,1,1,.38,2.29,2.29,0,0,1,.72.7,2.35,2.35,0,0,1,.34,1.12H920.9a.87.87,0,0,0-.43-.78,2,2,0,0,0-.92-.2,2.36,2.36,0,0,0-.37,0,1,1,0,0,0-.35.09.8.8,0,0,0-.28.2.57.57,0,0,0-.11.36.54.54,0,0,0,.2.43,1.38,1.38,0,0,0,.51.28,7.38,7.38,0,0,0,.72.19l.82.18a5.93,5.93,0,0,1,.85.24,2.57,2.57,0,0,1,.74.37,1.75,1.75,0,0,1,.51.57,1.7,1.7,0,0,1,.2.85,2.3,2.3,0,0,1-.29,1.19,2.16,2.16,0,0,1-.75.78,2.78,2.78,0,0,1-1.05.41,6.13,6.13,0,0,1-1.21.12,6.43,6.43,0,0,1-1.24-.12,3.62,3.62,0,0,1-1.07-.42,2.49,2.49,0,0,1-.77-.78,2.43,2.43,0,0,1-.33-1.21h1.89A1.07,1.07,0,0,0,918.31,111.86Z"/><text class="cls-6" transform="translate(814 134.66)">few people in </text><text class="cls-6" transform="translate(814 155.66)">their countr<tspan class="cls-10" x="77.78" y="0">y</tspan><tspan x="84.01" y="0">.</tspan></text><text class="cls-11" transform="translate(114 14.33)">49%</text><rect class="cls-2" x="113.5" y="0.5" width="32" height="23.01"/><text class="cls-11" transform="translate(492 14.33)">51%</text><rect class="cls-2" x="491.5" y="0.5" width="32" height="23.01"/><text class="cls-11" transform="translate(300.83 14.33)">32%</text><rect class="cls-2" x="300.33" y="0.5" width="34.17" height="23.01"/><text class="cls-11" transform="translate(678.83 14.33)">9%</text><rect class="cls-2" x="678.34" y="0.5" width="24.16" height="23.01"/><rect class="cls-12" x="161.51" y="204.02" width="127.66" height="2.64" transform="translate(-65.86 115.08) rotate(-25.12)"/><path class="cls-13" d="M204.7,242.63a38.57,38.57,0,1,1-26.09-47.91,38.57,38.57,0,0,1,26.09,47.91"/><path class="cls-14" d="M204.7,242.63a38.57,38.57,0,1,1-26.09-47.91A38.57,38.57,0,0,1,204.7,242.63Z"/><path class="cls-3" d="M188.56,237.87a21.74,21.74,0,1,1-14.7-27,21.73,21.73,0,0,1,14.7,27"/><path class="cls-13" d="M344.62,181.14a42.87,42.87,0,1,1-29-53.24,42.88,42.88,0,0,1,29,53.24"/><path class="cls-14" d="M344.62,181.14a42.87,42.87,0,1,1-29-53.24A42.88,42.88,0,0,1,344.62,181.14Z"/><path class="cls-5" d="M321.5,169a18,18,0,1,1-18-18,18,18,0,0,1,18,18"/><rect class="cls-12" x="493.94" y="185.02" width="127.66" height="2.64" transform="translate(39.27 463.8) rotate(-46.63)"/><path class="cls-13" d="M550.7,242.63a38.57,38.57,0,1,1-26.09-47.91,38.57,38.57,0,0,1,26.09,47.91"/><path class="cls-14" d="M550.7,242.63a38.57,38.57,0,1,1-26.09-47.91A38.57,38.57,0,0,1,550.7,242.63Z"/><path class="cls-3" d="M534.56,237.87a21.74,21.74,0,1,1-14.7-27,21.73,21.73,0,0,1,14.7,27"/><path class="cls-13" d="M660.12,137.14a42.87,42.87,0,1,1-29-53.24,42.88,42.88,0,0,1,29,53.24"/><path class="cls-14" d="M660.12,137.14a42.87,42.87,0,1,1-29-53.24A42.88,42.88,0,0,1,660.12,137.14Z"/><path class="cls-5" d="M623,125a4,4,0,1,1-4-4,4,4,0,0,1,4,4"/><line class="cls-15" x1="629" y1="121.01" x2="805" y2="121.01"/></g></svg>