<svg xmlns="http://www.w3.org/2000/svg" viewBox="0 0 770.28 249.9"><defs><style>.cls-1,.cls-10,.cls-8{isolation:isolate;}.cls-1,.cls-8{font-size:16px;}.cls-1,.cls-8,.cls-9{fill:#3e1a13;}.cls-1{font-family:Arial-BoldMT, Arial;font-weight:700;}.cls-2{letter-spacing:-0.04em;}.cls-11,.cls-13,.cls-15,.cls-3,.cls-5,.cls-7{fill:none;}.cls-3{stroke:#4dafce;}.cls-11,.cls-13,.cls-3,.cls-5,.cls-7{stroke-miterlimit:10;}.cls-11,.cls-3,.cls-5,.cls-7{stroke-width:0.7px;}.cls-4{fill:#4dafce;}.cls-5{stroke:#f8b133;}.cls-6{fill:#f8b133;}.cls-7{stroke:#3f1a13;}.cls-8{font-family:ArialMT, Arial;}.cls-11{stroke:#b9b2a4;}.cls-12{fill:#b9b2a4;}.cls-13{stroke:#c7c7c7;stroke-width:2.94px;}.cls-14{fill:#3f1a13;}</style></defs><g id="Layer_2" data-name="Layer 2"><g id="Layer_1-2" data-name="Layer 1"><text class="cls-1" transform="translate(116.48 13.73)">The more the balance tips to the left, the more the number of people <tspan x="-57.54" y="19.2">who believe science benefits most compared to those who say science benefit fe</tspan><tspan class="cls-2" x="558.64" y="19.2">w</tspan><tspan x="570.5" y="19.2">. </tspan></text><g id="Path_2059-3" data-name="Path 2059-3"><line class="cls-3" x1="274.78" y1="154.35" y2="153.96"/><path class="cls-4" d="M274.65,151.72a2.63,2.63,0,1,1-2.63,2.63,2.63,2.63,0,0,1,2.63-2.63Z"/></g><g id="Path_2060-4" data-name="Path 2060-4"><line class="cls-5" x1="474.78" y1="133.96" x2="770" y2="133.96"/><path class="cls-6" d="M474.91,136.55a2.63,2.63,0,1,1,2.63-2.63,2.63,2.63,0,0,1-2.63,2.63Z"/></g><path id="Path_2060-5" data-name="Path 2060-5" class="cls-7" d="M770.28,220.05H405.78v-79"/><text class="cls-8" transform="translate(465.65 209.01)">Angle of the bar changes to reflect majority</text><path class="cls-9" d="M530,105V93.55h4.28a11.35,11.35,0,0,1,1.75.11,3.42,3.42,0,0,1,1.41.54,2.72,2.72,0,0,1,.92,1.1,3.71,3.71,0,0,1,.35,1.57,3.53,3.53,0,0,1-.93,2.47,4.45,4.45,0,0,1-3.36,1h-2.94V105Zm1.52-6h3a3.11,3.11,0,0,0,2.09-.55,2,2,0,0,0,.61-1.54,2.06,2.06,0,0,0-.36-1.23,1.65,1.65,0,0,0-1-.67,6.06,6.06,0,0,0-1.41-.11h-2.93Z"/><path class="cls-9" d="M546.18,102.33l1.45.18a3.54,3.54,0,0,1-1.27,2,4.34,4.34,0,0,1-5.27-.42A4.39,4.39,0,0,1,540,101a4.58,4.58,0,0,1,1.08-3.25,3.64,3.64,0,0,1,2.79-1.16,3.57,3.57,0,0,1,2.72,1.13,4.52,4.52,0,0,1,1.06,3.19v.38h-6.19a3.19,3.19,0,0,0,.77,2.09,2.29,2.29,0,0,0,1.74.73,2.15,2.15,0,0,0,1.32-.41A2.77,2.77,0,0,0,546.18,102.33Zm-4.62-2.27h4.63a2.77,2.77,0,0,0-.53-1.57,2.13,2.13,0,0,0-1.74-.81,2.21,2.21,0,0,0-1.63.65A2.59,2.59,0,0,0,541.56,100.06Z"/><path class="cls-9" d="M548.87,100.86a4.32,4.32,0,0,1,1.28-3.42,4,4,0,0,1,2.61-.92,3.77,3.77,0,0,1,2.8,1.12,4.3,4.3,0,0,1,1.09,3.1,5.34,5.34,0,0,1-.49,2.52,3.42,3.42,0,0,1-1.39,1.43,4.21,4.21,0,0,1-2,.5,3.74,3.74,0,0,1-2.81-1.11A4.47,4.47,0,0,1,548.87,100.86Zm1.45,0a3.5,3.5,0,0,0,.69,2.38,2.3,2.3,0,0,0,3.49,0,3.59,3.59,0,0,0,.7-2.43,3.41,3.41,0,0,0-.7-2.33,2.23,2.23,0,0,0-1.74-.79,2.26,2.26,0,0,0-1.75.78,3.59,3.59,0,0,0-.73,2.39Z"/><path class="cls-9" d="M558.28,108.19V96.71h1.28v1.08a3.4,3.4,0,0,1,1-1,2.89,2.89,0,0,1,1.38-.32,3.23,3.23,0,0,1,3.1,2.09,5.89,5.89,0,0,1,0,4.48,3.47,3.47,0,0,1-3.16,2.1,2.62,2.62,0,0,1-1.26-.29,3,3,0,0,1-.92-.75v4Zm1.28-7.29a3.58,3.58,0,0,0,.65,2.37,2,2,0,0,0,3.17,0,4.75,4.75,0,0,0,0-4.83,1.93,1.93,0,0,0-3.15,0,3.77,3.77,0,0,0-.66,2.44Z"/><path class="cls-9" d="M567.16,105V93.55h1.41V105Z"/><path class="cls-9" d="M576.43,102.33l1.45.18a3.54,3.54,0,0,1-1.27,2,4.34,4.34,0,0,1-5.27-.42,4.39,4.39,0,0,1-1.06-3.14,4.58,4.58,0,0,1,1.08-3.25,3.64,3.64,0,0,1,2.79-1.16,3.57,3.57,0,0,1,2.72,1.13,4.52,4.52,0,0,1,1.06,3.19v.38h-6.19a3.19,3.19,0,0,0,.77,2.09,2.29,2.29,0,0,0,1.74.73,2.15,2.15,0,0,0,1.32-.41A2.77,2.77,0,0,0,576.43,102.33Zm-4.62-2.27h4.63a2.77,2.77,0,0,0-.53-1.57,2.13,2.13,0,0,0-1.74-.81,2.21,2.21,0,0,0-1.63.65A2.59,2.59,0,0,0,571.81,100.06Z"/><path class="cls-9" d="M585.62,105l-2.54-8.3h1.46l1.32,4.79.49,1.78c0-.09.16-.66.43-1.71l1.32-4.86h1.44l1.25,4.81.41,1.59.48-1.6,1.42-4.8h1.37l-2.6,8.3h-1.46l-1.32-5-.32-1.42L587.09,105Z"/><path class="cls-9" d="M595.65,105V93.55h1.4v4.11a3.14,3.14,0,0,1,2.49-1.14,3.41,3.41,0,0,1,1.6.36,2.2,2.2,0,0,1,1,1,4.54,4.54,0,0,1,.29,1.86V105H601V99.74a2.2,2.2,0,0,0-.46-1.54,1.67,1.67,0,0,0-1.29-.48,2.24,2.24,0,0,0-1.18.33,1.76,1.76,0,0,0-.78.88,4,4,0,0,0-.24,1.53V105Z"/><path class="cls-9" d="M604,100.86a4.32,4.32,0,0,1,1.28-3.42,3.9,3.9,0,0,1,2.61-.92,3.77,3.77,0,0,1,2.8,1.12,4.25,4.25,0,0,1,1.08,3.1,5.45,5.45,0,0,1-.48,2.52,3.39,3.39,0,0,1-1.4,1.43,4.21,4.21,0,0,1-2,.5,3.77,3.77,0,0,1-2.82-1.11A4.5,4.5,0,0,1,604,100.86Zm1.45,0a3.5,3.5,0,0,0,.69,2.38,2.31,2.31,0,0,0,3.24.25,3,3,0,0,0,.25-.25,3.59,3.59,0,0,0,.7-2.43,3.43,3.43,0,0,0-.7-2.33,2.34,2.34,0,0,0-3.29-.2,1.89,1.89,0,0,0-.2.2A3.57,3.57,0,0,0,605.47,100.86Z"/><path class="cls-9" d="M621,103.75l.2,1.24a5.39,5.39,0,0,1-1.06.13,2.45,2.45,0,0,1-1.19-.25,1.34,1.34,0,0,1-.59-.63,4.89,4.89,0,0,1-.17-1.66V97.8h-1V96.71h1V94.65l1.39-.84v2.9H621V97.8h-1.42v4.85a2.28,2.28,0,0,0,.08.78.63.63,0,0,0,.24.27.89.89,0,0,0,.48.1A4.21,4.21,0,0,0,621,103.75Z"/><path class="cls-9" d="M622.33,105V93.55h1.41v4.11a3.12,3.12,0,0,1,2.48-1.14,3.27,3.27,0,0,1,1.6.36,2.11,2.11,0,0,1,1,1,4.71,4.71,0,0,1,.29,1.86V105H627.7V99.74a2.19,2.19,0,0,0-.45-1.54,1.71,1.71,0,0,0-1.3-.48,2.2,2.2,0,0,0-1.17.33,1.88,1.88,0,0,0-.79.88,4.18,4.18,0,0,0-.23,1.53V105Z"/><path class="cls-9" d="M631.28,95.17V93.55h1.41v1.62Zm0,9.84v-8.3h1.41V105Z"/><path class="cls-9" d="M634.79,105v-8.3h1.26v1.18a3,3,0,0,1,2.64-1.37,3.46,3.46,0,0,1,1.38.27,2.2,2.2,0,0,1,.94.71,2.49,2.49,0,0,1,.44,1,7.71,7.71,0,0,1,.08,1.36V105h-1.41v-5a3.75,3.75,0,0,0-.16-1.29,1.42,1.42,0,0,0-.58-.68,2,2,0,0,0-1-.25,2.3,2.3,0,0,0-1.56.57,2.82,2.82,0,0,0-.65,2.16V105Z"/><path class="cls-9" d="M643.69,105V93.55h1.41v6.53l3.33-3.37h1.85l-3.18,3.08,3.5,5.22h-1.74l-2.74-4.25-1,1v3.29Z"/><path class="cls-9" d="M655.57,102.55l1.39-.22a1.94,1.94,0,0,0,.65,1.28,2.3,2.3,0,0,0,1.5.45,2.14,2.14,0,0,0,1.43-.4,1.17,1.17,0,0,0,.47-.92.85.85,0,0,0-.41-.75,5.67,5.67,0,0,0-1.44-.48,12.38,12.38,0,0,1-2.14-.68,2,2,0,0,1-1.22-1.9,2.24,2.24,0,0,1,1-1.81,2.67,2.67,0,0,1,.89-.41,4.23,4.23,0,0,1,1.22-.17,5,5,0,0,1,1.71.28,2.33,2.33,0,0,1,1.09.76,3,3,0,0,1,.49,1.29l-1.38.19a1.47,1.47,0,0,0-.54-1A2,2,0,0,0,659,97.7a2.35,2.35,0,0,0-1.39.32.94.94,0,0,0-.41.75.79.79,0,0,0,.17.49,1.36,1.36,0,0,0,.54.38c.14,0,.56.17,1.24.35a18.78,18.78,0,0,1,2.09.66,2.08,2.08,0,0,1,.92.74,2,2,0,0,1,.34,1.2,2.31,2.31,0,0,1-.41,1.32,2.53,2.53,0,0,1-1.19,1,4.2,4.2,0,0,1-1.75.34,3.91,3.91,0,0,1-2.46-.67A3.07,3.07,0,0,1,655.57,102.55Z"/><path class="cls-9" d="M669.54,102l1.39.18a3.53,3.53,0,0,1-1.16,2.23,3.44,3.44,0,0,1-2.3.81,3.56,3.56,0,0,1-2.73-1.11,4.49,4.49,0,0,1-1-3.19,5.72,5.72,0,0,1,.45-2.35A3,3,0,0,1,665.54,97a4,4,0,0,1,2-.51,3.44,3.44,0,0,1,2.21.69,3.07,3.07,0,0,1,1.1,1.94l-1.36.21a2.29,2.29,0,0,0-.69-1.26,1.81,1.81,0,0,0-1.2-.42,2.2,2.2,0,0,0-1.73.76,3.63,3.63,0,0,0-.66,2.41,3.74,3.74,0,0,0,.64,2.43,2.08,2.08,0,0,0,1.67.76,2,2,0,0,0,1.38-.51A2.45,2.45,0,0,0,669.54,102Z"/><path class="cls-9" d="M672.14,95.17V93.55h1.4v1.62Zm0,9.84v-8.3h1.4V105Z"/><path class="cls-9" d="M681.36,102.33l1.46.18a3.61,3.61,0,0,1-1.28,2,4.32,4.32,0,0,1-5.26-.42,4.39,4.39,0,0,1-1.06-3.14,4.57,4.57,0,0,1,1.07-3.25,3.65,3.65,0,0,1,2.8-1.16,3.57,3.57,0,0,1,2.72,1.13,4.51,4.51,0,0,1,1,3.19v.38h-6.19a3.19,3.19,0,0,0,.77,2.09,2.29,2.29,0,0,0,1.74.73,2.15,2.15,0,0,0,1.32-.41A2.7,2.7,0,0,0,681.36,102.33Zm-4.61-2.27h4.63a2.77,2.77,0,0,0-.53-1.57,2.13,2.13,0,0,0-1.74-.81,2.21,2.21,0,0,0-1.63.65A2.5,2.5,0,0,0,676.75,100.06Z"/><path class="cls-9" d="M684.58,105v-8.3h1.27v1.18a3,3,0,0,1,2.64-1.37,3.46,3.46,0,0,1,1.38.27,2.2,2.2,0,0,1,.94.71,2.81,2.81,0,0,1,.44,1,8.86,8.86,0,0,1,.07,1.36V105h-1.4v-5a3.76,3.76,0,0,0-.17-1.29,1.29,1.29,0,0,0-.58-.68,1.93,1.93,0,0,0-1-.25,2.27,2.27,0,0,0-1.55.57,2.82,2.82,0,0,0-.65,2.16V105Z"/><path class="cls-9" d="M698.9,102l1.38.18a3.53,3.53,0,0,1-1.16,2.23,3.35,3.35,0,0,1-2.3.81,3.56,3.56,0,0,1-2.73-1.11,4.51,4.51,0,0,1-1-3.19,5.72,5.72,0,0,1,.45-2.35A3.1,3.1,0,0,1,694.89,97a4,4,0,0,1,2-.51,3.44,3.44,0,0,1,2.21.69,3.13,3.13,0,0,1,1.11,1.94l-1.37.21a2.29,2.29,0,0,0-.69-1.26,1.8,1.8,0,0,0-1.2-.42,2.2,2.2,0,0,0-1.73.76,3.63,3.63,0,0,0-.66,2.41,3.74,3.74,0,0,0,.64,2.43,2.08,2.08,0,0,0,1.67.76,2,2,0,0,0,1.38-.51A2.51,2.51,0,0,0,698.9,102Z"/><path class="cls-9" d="M707.16,102.33l1.45.18a3.54,3.54,0,0,1-1.27,2A4,4,0,0,1,701,101a4.58,4.58,0,0,1,1.08-3.25,3.65,3.65,0,0,1,2.8-1.16,3.57,3.57,0,0,1,2.72,1.13,4.52,4.52,0,0,1,1,3.19v.38h-6.18a3.19,3.19,0,0,0,.77,2.09,2.27,2.27,0,0,0,1.73.73,2.15,2.15,0,0,0,1.32-.41A2.55,2.55,0,0,0,707.16,102.33Zm-4.62-2.27h4.64a2.87,2.87,0,0,0-.53-1.57,2.15,2.15,0,0,0-1.75-.81,2.21,2.21,0,0,0-1.63.65A2.59,2.59,0,0,0,702.54,100.06Z"/><path class="cls-9" d="M716.12,105h-1.3V93.55h1.4v4.09a2.77,2.77,0,0,1,2.28-1.12,3.63,3.63,0,0,1,1.45.31,3,3,0,0,1,1.12.87,4,4,0,0,1,.69,1.35,5.3,5.3,0,0,1,.25,1.68,4.78,4.78,0,0,1-1,3.3,3.29,3.29,0,0,1-2.53,1.16,2.63,2.63,0,0,1-2.31-1.22Zm0-4.21a4.3,4.3,0,0,0,.4,2.15,2,2,0,0,0,3.39.29,3.64,3.64,0,0,0,.67-2.39,3.71,3.71,0,0,0-.64-2.4,2,2,0,0,0-3.15,0,3.56,3.56,0,0,0-.68,2.32Z"/><path class="cls-9" d="M729.4,102.33l1.46.18a3.61,3.61,0,0,1-1.28,2,4,4,0,0,1-6.33-3.56,4.58,4.58,0,0,1,1.08-3.25,3.65,3.65,0,0,1,2.8-1.16,3.57,3.57,0,0,1,2.72,1.13,4.51,4.51,0,0,1,1,3.19v.38h-6.19a3.19,3.19,0,0,0,.77,2.09,2.29,2.29,0,0,0,1.74.73,2.15,2.15,0,0,0,1.32-.41A2.7,2.7,0,0,0,729.4,102.33Zm-4.61-2.27h4.63a2.77,2.77,0,0,0-.53-1.57,2.13,2.13,0,0,0-1.74-.81,2.21,2.21,0,0,0-1.63.65A2.5,2.5,0,0,0,724.79,100.06Z"/><path class="cls-9" d="M732.62,105v-8.3h1.27v1.18a3,3,0,0,1,2.64-1.37,3.46,3.46,0,0,1,1.38.27,2.2,2.2,0,0,1,.94.71,2.81,2.81,0,0,1,.44,1,8.86,8.86,0,0,1,.07,1.36V105H738v-5a3.76,3.76,0,0,0-.17-1.29,1.34,1.34,0,0,0-.58-.68,1.93,1.93,0,0,0-1-.25,2.27,2.27,0,0,0-1.55.57,2.82,2.82,0,0,0-.65,2.16V105Z"/><path class="cls-9" d="M747.2,102.33l1.45.18a3.54,3.54,0,0,1-1.27,2,3.81,3.81,0,0,1-2.38.7,3.74,3.74,0,0,1-2.88-1.12,4.35,4.35,0,0,1-1.07-3.14,4.58,4.58,0,0,1,1.08-3.25,3.65,3.65,0,0,1,2.8-1.16,3.57,3.57,0,0,1,2.72,1.13,4.52,4.52,0,0,1,1.05,3.19v.38h-6.19a3.2,3.2,0,0,0,.78,2.09,2.27,2.27,0,0,0,1.73.73,2.15,2.15,0,0,0,1.32-.41A2.55,2.55,0,0,0,747.2,102.33Zm-4.62-2.27h4.64a2.78,2.78,0,0,0-.54-1.57,2.13,2.13,0,0,0-1.74-.81,2.21,2.21,0,0,0-1.63.65A2.59,2.59,0,0,0,742.58,100.06Z"/><path class="cls-9" d="M750.75,105V97.8h-1.24V96.71h1.24v-.88a3.79,3.79,0,0,1,.15-1.25,1.83,1.83,0,0,1,.72-.88,2.55,2.55,0,0,1,1.43-.34,6.41,6.41,0,0,1,1.31.14l-.21,1.22a4.57,4.57,0,0,0-.83-.07,1.27,1.27,0,0,0-.9.27,1.43,1.43,0,0,0-.27,1v.77h1.62v1.09h-1.62V105Z"/><path class="cls-9" d="M754.87,95.17V93.55h1.41v1.62Zm0,9.84v-8.3h1.41V105Z"/><path class="cls-9" d="M761.49,103.75l.2,1.24a5.39,5.39,0,0,1-1.06.13,2.45,2.45,0,0,1-1.19-.25,1.34,1.34,0,0,1-.59-.63,4.89,4.89,0,0,1-.17-1.66V97.8h-1V96.71h1V94.65l1.39-.84v2.9h1.42V97.8h-1.42v4.85a2.28,2.28,0,0,0,.08.78.63.63,0,0,0,.24.27.89.89,0,0,0,.48.1A4.21,4.21,0,0,0,761.49,103.75Z"/><path class="cls-9" d="M762.28,102.55l1.39-.22a2,2,0,0,0,.65,1.28,2.3,2.3,0,0,0,1.5.45,2.18,2.18,0,0,0,1.44-.4,1.2,1.2,0,0,0,.47-.92.84.84,0,0,0-.42-.75,5.48,5.48,0,0,0-1.43-.48,12.22,12.22,0,0,1-2.15-.68,2.09,2.09,0,0,1-.91-.78,2.22,2.22,0,0,1,0-2.15,2.25,2.25,0,0,1,.69-.78,2.72,2.72,0,0,1,.9-.41,4.11,4.11,0,0,1,1.21-.17,5,5,0,0,1,1.72.28,2.33,2.33,0,0,1,1.09.76,3,3,0,0,1,.48,1.29l-1.38.19a1.47,1.47,0,0,0-.54-1,2,2,0,0,0-1.27-.36,2.31,2.31,0,0,0-1.38.32.92.92,0,0,0-.41.75.79.79,0,0,0,.17.49,1.21,1.21,0,0,0,.54.38c.14,0,.55.17,1.24.35a18.62,18.62,0,0,1,2.08.66,2.11,2.11,0,0,1,.93.74,2.06,2.06,0,0,1,.33,1.2,2.31,2.31,0,0,1-.41,1.32,2.5,2.5,0,0,1-1.18,1,4.37,4.37,0,0,1-1.75.34,3.92,3.92,0,0,1-2.47-.67A3.18,3.18,0,0,1,762.28,102.55Z"/><path class="cls-9" d="M584.43,124.21V117h-1.25v-1.09h1.25V115a4.07,4.07,0,0,1,.14-1.25,1.83,1.83,0,0,1,.72-.88,2.55,2.55,0,0,1,1.43-.34,6.5,6.5,0,0,1,1.32.14l-.22,1.23a4.47,4.47,0,0,0-.82-.08,1.25,1.25,0,0,0-.91.27,1.43,1.43,0,0,0-.27,1v.77h1.62V117h-1.62v7.21Z"/><path class="cls-9" d="M594.22,121.55l1.45.18a3.54,3.54,0,0,1-1.27,2,4.33,4.33,0,0,1-5.27-.42,4.39,4.39,0,0,1-1.06-3.14,4.58,4.58,0,0,1,1.08-3.25,3.64,3.64,0,0,1,2.79-1.16,3.57,3.57,0,0,1,2.72,1.13,4.52,4.52,0,0,1,1.06,3.19v.38h-6.19a3.19,3.19,0,0,0,.77,2.09,2.29,2.29,0,0,0,1.74.73,2.15,2.15,0,0,0,1.32-.41A2.77,2.77,0,0,0,594.22,121.55Zm-4.62-2.27h4.68a2.77,2.77,0,0,0-.53-1.57,2.13,2.13,0,0,0-1.74-.81,2.21,2.21,0,0,0-1.63.65,2.57,2.57,0,0,0-.78,1.71Z"/><path class="cls-9" d="M599,124.21l-2.54-8.3h1.45l1.32,4.79.49,1.78c0-.09.17-.66.43-1.71l1.32-4.86h1.45l1.24,4.81.41,1.59.48-1.6,1.42-4.8h1.37l-2.59,8.3h-1.47l-1.32-5-.32-1.42-1.68,6.39Z"/><path class="cls-9" d="M613.43,127.39V115.91h1.29V117a3.08,3.08,0,0,1,1-1,2.89,2.89,0,0,1,1.38-.32,3.23,3.23,0,0,1,3.1,2.09,5.92,5.92,0,0,1,0,4.48,3.47,3.47,0,0,1-3.16,2.1,2.62,2.62,0,0,1-1.26-.29,3,3,0,0,1-.92-.75v4Zm1.28-7.29a3.58,3.58,0,0,0,.65,2.37,2,2,0,0,0,3.17,0,4.75,4.75,0,0,0,0-4.83,1.93,1.93,0,0,0-3.15,0,3.77,3.77,0,0,0-.67,2.44Z"/><path class="cls-9" d="M628,121.55l1.46.18a3.61,3.61,0,0,1-1.28,2,4,4,0,0,1-6.33-3.56,4.58,4.58,0,0,1,1.08-3.25,3.65,3.65,0,0,1,2.8-1.16,3.57,3.57,0,0,1,2.72,1.13,4.51,4.51,0,0,1,1,3.19v.38h-6.18a3.19,3.19,0,0,0,.77,2.09,2.27,2.27,0,0,0,1.73.73,2.18,2.18,0,0,0,1.33-.41A2.68,2.68,0,0,0,628,121.55Zm-4.61-2.27H628a2.77,2.77,0,0,0-.53-1.57,2.15,2.15,0,0,0-1.75-.81,2.19,2.19,0,0,0-1.62.65,2.56,2.56,0,0,0-.73,1.71Z"/><path class="cls-9" d="M630.71,120.06a4.25,4.25,0,0,1,1.28-3.42,3.85,3.85,0,0,1,2.61-.92,3.77,3.77,0,0,1,2.8,1.12,4.25,4.25,0,0,1,1.08,3.1,5.45,5.45,0,0,1-.48,2.52,3.44,3.44,0,0,1-1.4,1.43,4.21,4.21,0,0,1-2,.5,3.77,3.77,0,0,1-2.82-1.11A4.5,4.5,0,0,1,630.71,120.06Zm1.44,0a3.46,3.46,0,0,0,.7,2.38,2.31,2.31,0,0,0,3.24.25l.25-.25A3.59,3.59,0,0,0,637,120a3.43,3.43,0,0,0-.7-2.33,2.34,2.34,0,0,0-3.29-.2,1.89,1.89,0,0,0-.2.2A3.56,3.56,0,0,0,632.15,120.06Z"/><path class="cls-9" d="M640.13,127.39V115.91h1.28V117a3.08,3.08,0,0,1,1-1,2.93,2.93,0,0,1,1.39-.32,3.25,3.25,0,0,1,1.87.55,3.44,3.44,0,0,1,1.23,1.54,6.08,6.08,0,0,1,0,4.48,3.48,3.48,0,0,1-1.33,1.56,3.4,3.4,0,0,1-1.83.54,2.81,2.81,0,0,1-1.27-.29,3,3,0,0,1-.91-.75v4Zm1.27-7.29a3.64,3.64,0,0,0,.65,2.37,2,2,0,0,0,3.18,0,3.74,3.74,0,0,0,.67-2.45,3.66,3.66,0,0,0-.66-2.38,2,2,0,0,0-1.56-.79,2,2,0,0,0-1.59.84,3.79,3.79,0,0,0-.69,2.44Z"/><path class="cls-9" d="M649,124.21V112.75h1.4v11.46Z"/><path class="cls-9" d="M658.28,121.55l1.46.18a3.61,3.61,0,0,1-1.28,2,4,4,0,0,1-6.33-3.56,4.58,4.58,0,0,1,1.08-3.25,3.65,3.65,0,0,1,2.8-1.16,3.57,3.57,0,0,1,2.72,1.13,4.51,4.51,0,0,1,1,3.19v.38h-6.18a3.19,3.19,0,0,0,.77,2.09,2.27,2.27,0,0,0,1.73.73,2.18,2.18,0,0,0,1.33-.41A2.68,2.68,0,0,0,658.28,121.55Zm-4.61-2.27h4.61a2.77,2.77,0,0,0-.53-1.57,2.15,2.15,0,0,0-1.75-.81,2.19,2.19,0,0,0-1.62.65,2.56,2.56,0,0,0-.73,1.71Z"/><path class="cls-9" d="M665.93,114.37v-1.62h1.41v1.62Zm0,9.84v-8.3h1.41v8.3Z"/><path class="cls-9" d="M669.48,124.21v-8.3h1.27v1.18a3,3,0,0,1,2.64-1.37,3.46,3.46,0,0,1,1.38.27,2.2,2.2,0,0,1,.94.71,2.81,2.81,0,0,1,.44,1,8.86,8.86,0,0,1,.07,1.36v5.11h-1.4v-5a3.76,3.76,0,0,0-.17-1.29,1.34,1.34,0,0,0-.58-.68,1.93,1.93,0,0,0-1-.25,2.27,2.27,0,0,0-1.55.57,2.82,2.82,0,0,0-.65,2.16v4.54Z"/><path class="cls-9" d="M685.9,123l.2,1.24a5.39,5.39,0,0,1-1.06.13,2.45,2.45,0,0,1-1.19-.25,1.41,1.41,0,0,1-.6-.63,5.46,5.46,0,0,1-.17-1.66V117h-1v-1.09h1v-2.06l1.4-.84v2.9h1.42V117h-1.42v4.85a2.28,2.28,0,0,0,.08.78.63.63,0,0,0,.24.27.89.89,0,0,0,.48.1C685.49,123,685.69,123,685.9,123Z"/><path class="cls-9" d="M687.28,124.21V112.75h1.41v4.11a3.12,3.12,0,0,1,2.48-1.14,3.17,3.17,0,0,1,1.6.37,2.11,2.11,0,0,1,1,1,4.71,4.71,0,0,1,.29,1.86v5.26h-1.41V119a2.15,2.15,0,0,0-.46-1.54,1.67,1.67,0,0,0-1.29-.48,2.2,2.2,0,0,0-1.17.33,1.88,1.88,0,0,0-.79.88,4,4,0,0,0-.23,1.53v4.54Z"/><path class="cls-9" d="M701.85,121.55l1.45.18a3.54,3.54,0,0,1-1.27,2,4.32,4.32,0,0,1-5.26-.42,4.35,4.35,0,0,1-1.07-3.14,4.58,4.58,0,0,1,1.08-3.25,3.68,3.68,0,0,1,2.79-1.16,3.57,3.57,0,0,1,2.72,1.13,4.52,4.52,0,0,1,1.06,3.19v.38h-6.19a3.15,3.15,0,0,0,.78,2.09,2.27,2.27,0,0,0,1.73.73,2.15,2.15,0,0,0,1.32-.41A2.68,2.68,0,0,0,701.85,121.55Zm-4.62-2.27h4.63a2.77,2.77,0,0,0-.53-1.57,2.13,2.13,0,0,0-1.74-.81,2.21,2.21,0,0,0-1.63.65,2.6,2.6,0,0,0-.68,1.71Z"/><path class="cls-9" d="M705.07,114.37v-1.62h1.41v1.62Zm0,9.84v-8.3h1.41v8.3Z"/><path class="cls-9" d="M708.61,124.21v-8.3h1.26v1.26a3.43,3.43,0,0,1,.9-1.17,1.62,1.62,0,0,1,.9-.28,2.75,2.75,0,0,1,1.44.45l-.48,1.31a2,2,0,0,0-1-.31,1.38,1.38,0,0,0-.83.28,1.52,1.52,0,0,0-.52.77,5.66,5.66,0,0,0-.24,1.64v4.35Z"/><path class="cls-9" d="M723.81,121.17l1.38.18a3.6,3.6,0,0,1-1.16,2.24,3.41,3.41,0,0,1-2.29.8,3.58,3.58,0,0,1-2.74-1.11,4.51,4.51,0,0,1-1-3.19,5.71,5.71,0,0,1,.44-2.35,3.12,3.12,0,0,1,1.36-1.51,4,4,0,0,1,2-.51,3.44,3.44,0,0,1,2.21.69,3.11,3.11,0,0,1,1.1,1.94l-1.37.21a2.29,2.29,0,0,0-.69-1.26,1.8,1.8,0,0,0-1.2-.42,2.2,2.2,0,0,0-1.73.76,3.63,3.63,0,0,0-.66,2.41,3.74,3.74,0,0,0,.64,2.43,2.14,2.14,0,0,0,1.67.76,2,2,0,0,0,1.39-.51A2.51,2.51,0,0,0,723.81,121.17Z"/><path class="cls-9" d="M725.87,120.06a4.32,4.32,0,0,1,1.28-3.42,4,4,0,0,1,2.61-.92,3.72,3.72,0,0,1,2.8,1.12,4.3,4.3,0,0,1,1.09,3.1,5.34,5.34,0,0,1-.49,2.52,3.42,3.42,0,0,1-1.39,1.43,4.21,4.21,0,0,1-2,.5,3.74,3.74,0,0,1-2.81-1.11A4.47,4.47,0,0,1,725.87,120.06Zm1.45,0a3.5,3.5,0,0,0,.69,2.38,2.3,2.3,0,0,0,3.49,0,3.59,3.59,0,0,0,.7-2.43,3.41,3.41,0,0,0-.7-2.33,2.23,2.23,0,0,0-1.74-.79,2.26,2.26,0,0,0-1.75.78,3.59,3.59,0,0,0-.73,2.39Z"/><path class="cls-9" d="M740.73,124.21V123a3,3,0,0,1-2.63,1.4,3.23,3.23,0,0,1-1.37-.28,2.28,2.28,0,0,1-1-.7,2.79,2.79,0,0,1-.43-1,7.15,7.15,0,0,1-.09-1.31V116h1.41v4.6a9.24,9.24,0,0,0,.08,1.49,1.48,1.48,0,0,0,.57.87,1.74,1.74,0,0,0,1.06.31,2.36,2.36,0,0,0,1.19-.32,1.81,1.81,0,0,0,.78-.88,4.3,4.3,0,0,0,.23-1.63V116h1.41v8.3Z"/><path class="cls-9" d="M744.19,124.21v-8.3h1.27v1.18a3,3,0,0,1,2.64-1.37,3.46,3.46,0,0,1,1.38.27,2.2,2.2,0,0,1,.94.71,2.81,2.81,0,0,1,.44,1,8.86,8.86,0,0,1,.07,1.36v5.11h-1.4v-5a3.76,3.76,0,0,0-.17-1.29,1.34,1.34,0,0,0-.58-.68,1.93,1.93,0,0,0-1-.25,2.27,2.27,0,0,0-1.55.57,2.82,2.82,0,0,0-.65,2.16v4.54Z"/><path class="cls-9" d="M756.16,123l.2,1.24a5.39,5.39,0,0,1-1.06.13,2.45,2.45,0,0,1-1.19-.25,1.34,1.34,0,0,1-.59-.63,5.46,5.46,0,0,1-.17-1.66V117h-1v-1.09h1v-2.06l1.4-.84v2.9h1.41V117h-1.41v4.85a2.58,2.58,0,0,0,.07.78.63.63,0,0,0,.24.27,1,1,0,0,0,.48.1C755.75,123,756,123,756.16,123Z"/><path class="cls-9" d="M757.52,124.21v-8.3h1.27v1.26a3.41,3.41,0,0,1,.89-1.17,1.62,1.62,0,0,1,.9-.28,2.75,2.75,0,0,1,1.45.45l-.49,1.31a2,2,0,0,0-1-.31,1.38,1.38,0,0,0-.83.28,1.56,1.56,0,0,0-.52.77,5.33,5.33,0,0,0-.23,1.64v4.35Z"/><path class="cls-9" d="M762.8,127.4l-.15-1.32a3.11,3.11,0,0,0,.8.13,1.61,1.61,0,0,0,.75-.16,1.22,1.22,0,0,0,.46-.44,7.35,7.35,0,0,0,.43-1,1.42,1.42,0,0,1,.13-.35L762.07,116h1.51l1.73,4.8c.22.61.42,1.25.6,1.93a17.91,17.91,0,0,1,.58-1.89l1.77-4.84h1.41l-3.16,8.44a16.25,16.25,0,0,1-.79,1.88,2.77,2.77,0,0,1-.86,1,2,2,0,0,1-1.15.32A2.6,2.6,0,0,1,762.8,127.4Z"/><g class="cls-10"><text class="cls-8" transform="translate(0.01 125.01)">People who think science benefits </text><text class="cls-8" transform="translate(0.01 144.21)">most people in their country</text></g><g id="Path_2059-4" data-name="Path 2059-4"><line class="cls-11" x1="350.78" y1="217.36" y2="216.96"/><path class="cls-12" d="M350.65,214.72a2.63,2.63,0,1,1-2.63,2.63A2.63,2.63,0,0,1,350.65,214.72Z"/></g><g class="cls-10"><text class="cls-8" transform="translate(0.01 188.01)">People who are likely </text><text class="cls-8" transform="translate(0.01 207.21)">to be excluded</text></g><circle class="cls-13" cx="458.4" cy="124.62" r="44.83"/><circle class="cls-13" cx="308.04" cy="148.31" r="44.83"/><rect class="cls-13" x="368.17" y="97.84" width="27.7" height="150.59" rx="13.85"/><rect class="cls-14" x="310.81" y="134.76" width="148.36" height="3.07" transform="translate(-17.96 69.77) rotate(-10.12)"/><ellipse class="cls-4" cx="308.04" cy="148.68" rx="22.86" ry="23.72"/><path class="cls-15" d="M371.56,238V149A10.47,10.47,0,0,1,382,138.55h0A10.47,10.47,0,0,1,392.5,149V238A10.47,10.47,0,0,1,382,248.44h0A10.47,10.47,0,0,1,371.56,238Z"/><rect class="cls-12" x="368.17" y="138.54" width="27.7" height="109.89" rx="13.85"/><circle class="cls-6" cx="458.66" cy="123.91" r="6.14"/></g></g></svg>