<svg xmlns="http://www.w3.org/2000/svg" viewBox="0 0 1417.71 2458.02"><defs><style>.cls-1{fill:#fffcf8;stroke-miterlimit:10;stroke-width:2px;}.cls-1,.cls-2{stroke:#3f1a13;}.cls-2,.cls-3{fill:none;}.cls-2{stroke-linecap:round;stroke-linejoin:round;stroke-width:7px;}.cls-4{fill:#f8b133;}.cls-5{fill:#4dafce;}.cls-6{font-size:37px;fill:#3f1a13;font-family:ArialMT, Arial;}</style></defs><g id="Layer_2" data-name="Layer 2"><g id="graphs"><path id="MWI1904" class="cls-1" d="M1165.53,1839.91l-79.5-1.4-.8.5-4.9,4.3-3.2,2-3.9,1.7-6.6,2.1-4,.6-3.5-.1-5.7-1.7-15.7-6.6-6-1.3-3.7.2-3.4,1.1-2,1.5-5.8,6-3.1,1.9-2.8.2-4-.8-5-1.7-5.1-1.1-3.1.5-2.5,1.7-2.6,2.7-3.7,2.7-3-.1-2.3-1.5-3.8-7.4,2.5-2.4,2.4-5.2,1-6.7,4.5-11.9,1.9-8.4,5.4-11.2.7-3.2.4-4.9.8-2.8,2-3.9,9.4-14.7,4.6-3.2,3.3-3,2-6.9,3-25.7-.7-15-3.4-13.8-7.4-7.8-.9-.6.5-2.6-1.6-4.6-.4-3.4.1-1.7,1.2-3,2.1-3.9.6-3.3,1.5-1.8,2.1.3,3,1.3,1.9,1.2,5.2,4.7,3.4,3.8,3.3,5.5,1.8,1.5,2.3,1,3.3.7,15.9,5.5,4.5.9,4.8-.9,4.4-2.4,8.1-8.5,4.7-2.6,3.2-1.1,3-1.8,3.4-4.2,1.4-4.3.3-4.4-1.5-10.7.1-2.1.8-1.7,4.7-5.1,4.3-2.8,6.6-2.7,15.2-3.6,7.6-1,9.1-.4,6.9-2.5,8.7-7,11.1,14.3,15,15.2,3.6,4.7,1.8,5.4,3.2,66.6,2,2.9,4,.6,6.6-.2-20,47.7-14.9,35.2-2.1,8,.1,7.4,1.3,5.2Z"/><path id="MWI1910" class="cls-1" d="M1153.83,1626.91l-8.7,7-6.9,2.5-9.1.4-7.6,1-15.2,3.6-6.6,2.7-4.3,2.8-4.7,5.1-.8,1.7-.1,2.1,1.5,10.7-.3,4.4-1.4,4.3-3.4,4.2-3,1.8-3.2,1.1-4.7,2.6-8.1,8.5-4.4,2.4-4.8.9-4.5-.9-15.9-5.5-3.3-.7-2.3-1-1.8-1.5-3.3-5.5-3.4-3.8-5.2-4.7-1.9-1.2-3-1.3-2.1-.3-1.5,1.8-.6,3.3-2.1,3.9-1.2,3-.1,1.7.4,3.4,1.6,4.6-.5,2.6-84.6-.1h-3l-10.4-7.8-9.4-4.1-4-3.8-35.8-48.1-8.5-25.6-4.4-22.2-2.1-32.3v-13.7l2.9-.9,4.4-.9,5.6-2.1,4.8-3.1,2-3.7.5-2.7,1.2-1.5,3.5-2.2.5-2.6-1.9-3.2-2.4-3.3-1.4-2.9,3-8.6,7.1-7.8,5.4-7.4-2-7.6-4.9-9.1,1.2-8.1,5.9-4.1,9.3,2.7,4,3.3,6.8,7.1,4.2,2.5-2.7,10.9,2.6,13.2,6.9,8.8,10-2.5,1.4,1.8,3.6,3.1,1.5,1.8,7.1-1.1,7.5,6.7,5.9,10.3,2.4,9.1,1.8,3.1,7.7,9,1.2,2,5.2,1.8,3.7,4.3,5.8,9.3,14.8,13,1.4,3.2,1.2,2.1,1.5,1.2,2.9-.3,4.5-3.2,2.3-.9,2.2-2.3,2.4-5.3,1.7-5.5v-3.2l-5-7.5-12.7-26.1-3.1-9.5-1.2-11.4-9.7-15.2-2.6-5.2.3-5.3,1-5.3.2-4.9-3.5-8.5-10.9-17.1-2.4-9.1-.6-10.9-1-6.1-2.2-7.2-.3-5.3-1.1-2-3.9-4.7-3.5-5.1-3.6-11-1.6-8.9-4.4-6-11.6-2.3-31.9,1.1-4.5-.6-5.8-2.8-7-7.3-1.6-8.3,2.2-20.3-1.4-14.5,2.8-12.9,9.4,5.8,58.4,53.8,26.8,32.1,33.2,39.8,54.5,65.4,20.6,40,70.2,89.1Z"/><path id="MWI1915" class="cls-1" d="M1007.33,1694.61l.9.6,7.4,7.8,3.4,13.8.7,15-3,25.7-2,6.9-3.3,3-4.6,3.2-9.4,14.7-2,3.9-.8,2.8-.4,4.9-.7,3.2-5.4,11.2-1.9,8.4-4.5,11.9-1,6.7-2.4,5.2-2.5,2.4-14,13.2-6,9.9-3.9,3.8-12.4,3.3-65.2-3.5,22.9-102.5-.2-5-.9-2.9,1.1-3.7,15.8-21.7,1.4-2.9,5.2-18.2.5-4.1-.1-3.1-1.3-5.4-.7-4.6,1.7-4h3l84.6.1Z"/><path id="MWI1916" class="cls-1" d="M845.63,2032l31.1,2.9,3.9.8,1.9,2.4,2.9,7.7v2l-1.2,2.9-3.4,6.3-.9,3.4.4,6.1-.4,2.7-4.6,9.1-.2,3.5,1.5,1.5h2.9l3.1-.3,3.3.8,1.2,1.7-.2,1.7-2.3,3.1-.4,1.9.1,2.8,1.3,4.9.8,1.6.9.7,2-1.5,17.6,28.6,41.1,47.5.5,2.4.1,3.2-.4,2.4,4,13.6-10,47.2-.9,2.2-1,1.3-2.3,1.4-5.9,5.5-16.6,18.9-1.9,3.3-1.7,5.6.3,3.4.7,2.6-.2,1.8-1.6,1.7-3.8,1.8-5.6,3.4-5.2,5-8.8,13.6-2.8-2.1-5.4-2.3-4.7-2.8-3-4.9-2.3-7-2.4-4.4-14.4-12.2-3.1-4.3-5.5-10.8-4-4.4-19.5-10.4-2.3-.9-1.9-1.5-3.8-9.5-1.6-2.9-2.1-2.3-9.9-7.6-3.9-3.9-3.3-4.9-8.6-22.3-6.9-7.1-13.7-2-10.6-.4-6-6.2-12.7-28.1,1.3-10.9,6-20.7-1.3-9-5.2-7.3-25.7-27.2-4.5-2.8-10.2-4.9-3.8-3.4-3.4-8.9-.6-11.4,1.6-11.2,3.3-8,8.8-9.5,5.4-4.3,5.3-2.5,6.3-2,3.5-2.1,4.4,1.8,43.4,18.8,12.2,3.8,65.5,1.8Z"/><path id="MWI1917" class="cls-1" d="M1027.53,1990.81l-5.9,18.1-.2,11.7,4.3,53.2-.3,4.6-1.6,3.6-1.5,1.5-4.1,10.3-6.2-3.6-3.7-3.8-2.4-3.1-1.3-2.9-1.7-6.9-1.7-4.5-1.9-2.9-10.9-10.3-2.3-2.7-2-3.1-2-1.4-3-.9-11.4-.1-6.9-13.3-1.9-5.6-.5-6.3.7-31.1-.7-9.3-1.3-6-2-2.4-.4-4.5.3-3.5,11.5-21.6,4.3-.8,2.1.7,2-1,2-1.4,3.5-2,1.7.6.6,2-.5,4.5.2,3.1,2.2,3.4,3.1,2.2,4.9,2.1,2.8,2.2,2.1,2.9,2.5,7.1,2.1,4.3,4.4,6.4,3.7,3.4,3.4,2.1,13.9,5Z"/><path id="MWI1918" class="cls-1" d="M1018.23,2093.81l3.8,29.3-1.2,9.2-2.7,2.8-1.7,1.4-1.8,2.3-2,3.1-2.2,5.6-.6,3.5.5,2.8,1.1,1.6,3.4,3.6-6.8,8.2-5.7,12-2.1,14.8.7,3.4,3.7,9.1-1.2,3.2-7.3,8.8-.4,1.6-14.5-4.5-5.2,1.2-1.2,2.1-3.1-.5-2.4-1-17.1-19-4-13.6.4-2.4-.1-3.2-.5-2.4-41.1-47.5-17.6-28.6,8.4-2.4,2.4-1.6,7.7-7,3-3.8,5.8-10.6,2.1-2.9,2.1-2.1,3.6-1.3,6-.4,4.3-.8,33-20.2,11.4.1,3,.9,2,1.4,2,3.1,2.3,2.7,10.9,10.3,1.9,2.9,1.7,4.5,1.7,6.9,1.3,2.9,2.4,3.1,3.7,3.8,6.2,3.6Z"/><path id="MWI1919" class="cls-1" d="M995.73,2220.11l-1.2,4.4.1,12.8-1.7,5.7-4.2,4.5-21.5,14.4-3.9,2.7,5,14.3,5,8,1.2,3.3,1.8,2.7,3.5,1.1,2.8.5,6.7,2.6,2,1.1,1.4,1.6,1.6,3.3,1.2,1.7,4.4,2.4,7.4,8.2,1,1.7.9,21.2,1.2,6.4,6.2,12.6,1.6,8-7.7,6.6-.8,6.8.7,12.2-1,1.5-1.8,1.4-1.5,1.6.1,2.1,1.4,1.5,10,5.9,1.8,2.8-1.5,4.2-3.3,5.9-.4,5.2,2.7,12.1.4,6.5-.8,5.4-1.6,4.4-2.4,3.7-17.6,1.9-31-1.1-16.2-2.5-4.7-4.6.9-8.3-10-15.5,2.4-10.1,6.7-5.6,7.8-3.8,6.8-4.9,3.6-8.8.9-10.4-.2-11.7-2.8-9.9-7-5.2-10.1-.3-9.2.9-8.8-1.5-9-7.2-5.7-7.7-2.6-2.9-4.3-3.1-2.1-.8-4.7-.8-2.1-1.2-1.4-2.5-.9-6.2-1.4-2.6-2.1-1.6,8.8-13.6,5.2-5,5.6-3.4,3.8-1.8,1.6-1.7.2-1.8-.7-2.6-.3-3.4,1.7-5.6,1.9-3.3,16.6-18.9,5.9-5.5,2.3-1.4,1-1.3.9-2.2,10-47.2,17.1,19,2.4,1,3.1.5,1.2-2.1,5.2-1.2,14.5,4.5Z"/><path id="MWI1920" class="cls-1" d="M1165.53,1839.91l7.2,29.8,8.8,35.9-1,13.5-35.2,1.3-11.6,3.7-7.5,3.4-4.5,4.9-7.2,6.7-16.2,10.8-3.7,1.7-3.3,2.3-2.5,2.4-4,9.9-7.5,5.5-2.3,2-9.1,10.7-2.4.8-3.8.6-13,.5-3.9.7-4.1,2.1-2.6,1.1-8.6.6-13.9-5-3.4-2.1-3.7-3.4-4.4-6.4-2.1-4.3-2.5-7.1-2.1-2.9-2.8-2.2-4.9-2.1-3.1-2.2-2.2-3.4-.2-3.1.5-4.5-.6-2-1.7-.6-3.5,2-2,1.4-2,1-2.1-.7-4.3.8-4,.2-1.7-.3-1.9-.8-1.4-1.6-.3-2.5.5-2,1.1-1.9,6.4-7.6.8-1.8-.5-1.3-2-.5h-5.3l-2.7-.5-2.9-2.3-2.8-3.4-10.3-15.2-7-6.1-6.5-11.9,13.5-8.4,12.4-3.3,3.9-3.8,6-9.9,14-13.2,3.8,7.4,2.3,1.5,3,.1,3.7-2.7,2.6-2.7,2.5-1.7,3.1-.5,5.1,1.1,5,1.7,4,.8,2.8-.2,3.1-1.9,5.8-6,2-1.5,3.4-1.1,3.7-.2,6,1.3,15.7,6.6,5.7,1.7,3.5.1,4-.6,6.6-2.1,3.9-1.7,3.2-2,4.9-4.3.8-.5,79.5,1.4Z"/><path id="MWI1921" class="cls-1" d="M966.53,1944l-11.5,21.6-.3,3.5.4,4.5,2,2.4,1.3,6,.7,9.3-.7,31.1.5,6.3,1.9,5.6,6.9,13.3-33,20.2-4.3.8-6,.4-3.6,1.3-2.1,2.1-2.1,2.9-5.8,10.6-3,3.8-7.7,7-2.4,1.6-8.4,2.4-2,1.5-.9-.7-.8-1.6-1.3-4.9-.1-2.8.4-1.9,2.3-3.1.2-1.7-1.2-1.7-3.3-.8-3.1.3h-2.9l-1.5-1.5.2-3.5,4.6-9.1.4-2.7-.4-6.1.9-3.4,3.4-6.3,1.2-2.9v-2l-2.9-7.7-1.9-2.4-3.9-.8-31.1-2.9-1.9-23.9-2.2-7.2v-4l4.7-2.6,1.9-2.2,1.6-2.6.7-2.2-.7-19.8.7-5.5,3.6-3.6,15-9.7,5.3-2,4.7-7.5,11.2-33.1,5.1-7.6,2.9-1.2,8.5-7.5,3.2-.9,9.7-1.3,6.4-3.1,6.5,11.9,7,6.1,10.3,15.2,2.8,3.4,2.9,2.3,2.7.5h5.3l2,.5.5,1.3-.8,1.8-6.4,7.6-1.1,1.9-.5,2,.3,2.5,1.4,1.6,1.9.8,1.7.3,4-.2Z"/><path id="MWI1922" class="cls-1" d="M849.73,1967.51l.7,19.8-.7,2.2-1.6,2.6-1.9,2.2-4.7,2.6v4l2.2,7.2,1.9,23.9-65.5-1.8-12.2-3.8-43.4-18.8-4.4-1.8,19-26.7,3.7-10.2,1-12.7,105.9,11.3Z"/><path id="MWI1923" class="cls-1" d="M1167.93,2070.71l-2.1,8.2.1,5,1.8,9.8-.4,5.1-2.9,6.9-4.6,5.3-22.4,15.6-3.2,1.6-2.8.3-5.9-1.1-3.1.2-29.4,8.9-7.5.8-1.5,1.8-.9,5-2,3-3.9-.2-4.1-2-2.6-2.5-2.2-5.3-5.1-3.5-6.4-1.8-6-.3-7,1.8-5.8,4-21.5,19.6-1.7,2.1-3.4-3.6-1.1-1.6-.5-2.8.6-3.5,2.2-5.6,2-3.1,1.8-2.3,1.7-1.4,2.7-2.8,1.2-9.2-3.8-29.3,4.1-10.3,1.5-1.5,1.6-3.6.3-4.6-4.3-53.2.2-11.7,5.9-18.1,8.6-.6,2.6-1.1,4.1-2.1,3.9-.7,13-.5,3.8-.6,2.4-.8,9.1-10.7,2.3-2,7.5-5.5,2.3,2.7.4,1.2-1.6,4.8-1.4,2.3-1,.5-1.6,3-2,2.9-3.4,6.1-.9,3.4.5.6,3.1.3,1.9,1.5,2,29.5,1.1,6.1,1.7,5.1,1,1.5,2.5,1.8h.9l2.8,3.6,2.6-.2,1.4,1.8,9,24.8,1.5,2,12.2-10.9,7.7-2.7,1.3.4,3.6,2.6,4.7,4.6,5.4,4.4,2.1,1.1,3.2,2.5,3.2.7,2.2-1.7,2.3-.8,2.5-1.7,2.7-.8,2-.3,2.5,1.3,2.7.5Z"/><path id="MWI1924" class="cls-1" d="M1167.93,2070.71l-2.7-.5-2.5-1.3-2,.3-2.7.8-2.5,1.7-2.3.8-2.2,1.7-3.2-.7-3.2-2.5-2.1-1.1-5.4-4.4-4.7-4.6-3.6-2.6-1.3-.4-7.7,2.7-12.2,10.9-1.5-2-9-24.8-1.4-1.8-2.6.2-2.8-3.6h-.9l-2.5-1.8-1-1.5-1.7-5.1-1.1-6.1-2-29.5-1.9-1.5-3.1-.3-.5-.6.9-3.4,3.4-6.1,2-2.9,1.6-3,1-.5,1.4-2.3,1.6-4.8-.4-1.2-2.3-2.7,4-9.9,2.5-2.4,3.3-2.3,3.7-1.7,16.2-10.8,7.2-6.7,4.5-4.9,7.5-3.4,11.6-3.7,35.2-1.3-6.4,93.6-3,46.1-3.2,11.9Z"/><path id="MWI5509" class="cls-1" d="M842.53,850l-3.3,1.5-3.5-1-2.9-2.1-1.8-1.9,2.6-3.7,2.3-8.6,3.3-2.7,8.6,4.3-4.9,2.7-.2,3.5,1.2,4-1.4,4Z"/><path id="MWI5510" class="cls-1" d="M874.33,1872.61l65.2,3.5-13.5,8.4-6.4,3.1-9.7,1.3-3.2.9-8.5,7.5-2.9,1.2-5.1,7.6-11.2,33.1-4.7,7.5-5.3,2-15,9.7-3.6,3.6-.7,5.5-105.9-11.3-2.8-19.3v-10.8l3.8-5.3,5.6-2.9,6-9.8,6.2-3.8,2.1-4,1.5-8.1,1.4-4,3.5-4.7,3.8-2.6,4-2.1,4.2-3.2,5.6-8.3,1.2-8.3-3-22.7,4.2.4,14.5,2.9,18.3,5.7,1.4.1,5.1-.8,2.3.1,2.5.6,4.4,1.6,12.2,2.3,4.5,1.4,3.7,1.7,2.6,2.2,2.5,2.7,1.5,4.4.6,3.6.2,5-.7,3.3.7,2.7,3.5.4,3.4-4Z"/><path id="MWI1899" class="cls-1" d="M563.93,1045.71l-4.1,25-.3,9.8.8,3.2,1.4,3.4,1.5,1.7,2.2.9,2.6.1,17.4-2.1,5.2.5,2.9.8,3.8,2.4,2.7,3.5,3.2,5.3,10.3,12.1,1.5,4,.3,1.7-.5,1-3.1,1.5-12.1,10-2.3,3.4-2.2,5.8-.8,1.2-4,3.8-22.3,11.1-2.4,2.1-3,3-.6,2.4-1.6,3.4-1.9,1.8-2.9,1.7-4.6,1.9-4.1,3.2-1.9,2.4-3.9,7.1-6.2,7.2-3.4,2.9-3,1.7-2.2.9-1.1,1.6-.8,2.3-1.1,1.3-1.4.7-5.2,1.1-5.2,1.7-4.5,2.7-5,2.2-4.6.4-4.8,4.9-2.8,6.9-1.1,2.3-1.3,1.6-2.7,2-4.4,2.3-1.4,1.3-3.4,6.3L473,1241l-2.2,3.4-2,1.2-1.9.7-3.7-.4-3.5-1.5-4.7-4-1.8-.7-2.8.1-1.4,1-.9,1.4v1.7l1.2,2.9,1.7,2.7,1.2,2.9-.2,3.6-2.4,7.1-1,2.1-3.8,6.2-2.3,7.1-5.7,11-2.5,3.4-4.6,1.6-2,1.3-2.7,6.7-.4,2.3,1.4,3,.6,2.2.1,2.9-.6,5.2-1,2.7-1.1,1.8-9.1,7.6-5.5,6.2-12.4-14.1-8.5-5-3.1-3-4.3-5.2-11-10.3-3.7-4.7-2.7-5.2-3.3-8.9-5.1-10.7-1.4-4-.4-3.9,1.4-6.5-.1-3.3-1.5-4.6-1.8-2-1.7-1-67.9,4.2-4.2.5,4.3-17.9,5.6-12.4,7.7-9.7,9.3-2.8,1.6-4.4-.9-3.6-5-7.3-2.4-5.4-1.2-5.3-.4-5.5,4.8-35,8.4-19.3,1.5-8.8-2.7-7.6-7.5-7.1-8.3-5.2-2-3.4-1.9-23.2,1.1-5.5,4.2-8.6L305,1034l9.4-18.9,3.3-4.2,4.3-3.9,2.5-1.1,2.2.5,1.6,1.7,1.3,2.5,2.2,2.1,2.7-1.3,2.8-2.4,2.4-1.4,4.9-1.3,2.3-.3,3,.8,2.1,2.2,3.7,7,1.3,1.6,3.1-.1,1.5-1.6,1-2.2,1.9-1.8,4.8-3.3,3.1-1.1,4.3-3,5.1-10.8,3.5-4,2.5-1.1,8.2-1.4,3.8.3,3,1.5,2.6,1.7,2.5.8,6.8-1.6,7-4.5L428,979l4.8-7.2,3.5-3.3,9.4-3.7,2.7-3.8.3-7.7,1.4-2.4,4.6-.8,2.3-5.3,8-4.9,4.6,1.1,13.8,2.9,2,1.7,1.7,2.2-.7,3.8-1.7,2.8-3,3.5-1.7,2.8-.7,1.6-.7,3.8.2,17.1.5,3.3.7,2.3,3.9,4.8,2.2,4,.7,2.6.2,2.3-.7,1.4-2.2,2.1-1.2,2.6-.9,3.8-.3,9.1,1.1,3.4,1.5,1.5,3.7-.4,3.9.4,3,1.6,2.1,2.2,5.4,8.1,3.3,3.8,1.6,1.4,3.1,1.8,3.5,1,4.1.6,4.2.3,3.6-.4,4.5-1.8,4.8-3.6,1.4-.5,3.6-.2,1.6-.3,2.2.7,2.6,1.4,6.8,5.9,1.8,1.3h1.5l4.7-3.2,2.6-.8Z"/><path id="MWI1902" class="cls-1" d="M624.13,886.51l2.8,20.7,5.5,15.1.5,3.1.1,3.5,1,2.9,5.6,2.2,1.6,2.4.5,3-.7,2.4,7.1,1.7,6.1-1h6l7.2,4.6,9.5,28.1,1.1,7.1-.2,2.9-2,3-2.9,3.3-1.3,2.9-.9,7.8.1,7.8,1.3,8,4.8,14.5,6.5,11.7,4.7,5.5,11.6,5.1.3,6.8-4.1,15.3,1.9,6.6,9.3,8.4,3.4,5.6.2,4.1-1.9,7.3.7,3.8,2.4,2.2,2.3-1.9,1.6-3.6.9-3.2.9,4.5-2.3,9.4-.5,5.4,3.6,15.9.6,51.4,2.9,21.9-1.6,8.8-6.6,9.4-3.9,9,1.1,10.5,3.9,10.3,1.5,2.6h-.7l-26.6,15.3-12.7,5.5-7.5,1.5-3.6.4-9.4,4.4-2.6-41.9-6.3-24.4.3-4.7,1.2-4.2,1.3-2.8.3-2.6-2.6-16.6-.9-3.2-1.7-2.5-3.5-.5-5.5-.5-1.7-1.5-1.2-3-.1-3.1,1.3-5.4.4-2.6-.6-1.6-1.5-.1-13,3.9-1.2.9-.7,1.2-2.1,8.1-1.1,2.5-1.4,1.8-2.2,1.8-2.4.5-2.2-.8-3-2-2-1.9-1.7-2.1.4-5.4-.3-3-3.4-6-3.3-4.3-2.2-6.2-.3-15.5,4-3.8.8-1.2,2.2-5.8,2.3-3.4,12.1-10,3.1-1.5.5-1-.3-1.7-1.5-4-10.3-12.1-3.2-5.3-2.7-3.5-3.8-2.4-2.9-.8-5.2-.5-17.4,2.1-2.6-.1-2.2-.9-1.5-1.7-1.4-3.4-.8-3.2.3-9.8,4.1-25,7-9.4,8.3-14.2,3.5-3.7,2.1-1.5,2.5-1,9.1-1.4,10.2-3.7,3.3-2.1,4.8-4,2.6-1.5,2.7-1,6.6-1.6,5.7-.7,1.7-.8,1.5-1.8,1.1-2.4,2.2-7.1,2.6-3,4.7-4.5,1-1.5-1.2-2.5-3.1-1.6h-2.9l-7.1,1.8-3.8.4-3.8-.4-3.9-.9-3.6-1.3-11.2-5.7-4-.7-8,.3-3-1.5-2.7-3.1-2.4-3.3-2.1-3.7-1.5-4.6-.7-7-.9-4.8-5.8-6.5-3.1-4.7-4.6-9.6-4.1-4.1-4.4-2.6-9.8-.9-3.5-1.4-2.4-2.5-1.4-3.8-1.2-8.9.1-2.7,5.4-8.6,19.9-16.8,5.7-1.3,2.7.2,3,.9,6.6,5.9,4.1,2.8,12.6,5.5,22.5,5.4Z"/><path id="MWI1907" class="cls-1" d="M783.83,1477.51l.6,1.9,11,12.9,1.8,3.4.7,4.2,1.9,5.1,2.5,4.8,2.3,3.3,5.4,4,4.5,1.3,4.7.4,5.5,2,5.1,4.7-.1,4.1-1.7,4.1.7,4.7,4.4,3.2,4.9-1.2,5.1-2.8,2-.7v13.7l-24.9,15.3-23.2,17.5-17.5,7.3-4.8,1.1-3.2-.3-3.6-3.2-5.1-2.4-4-2.8-2.1-.9-2.7-.8-4.6-.5-7.3-1.4-3.2.5-7,5.7-2.6-3.7-8.6-4.6-2.7.4-2.4,1.6-2.2,1.8-2.3,1.5-2.5.5-4.9-.5-2.4.3-30.4,10.9-22.4.7-9.9,4.2-2.3,3.2-3.5,8.1-2.5,1.6-32.4-4.4h-9l-8.4,2.1-17.9,11-8.7,3.2-8.7-.9-16.6-12.8-6.5,2.1-4.7,7.2-2.6,9.2v11l-1,5.7-3,2.2-5.5-1.7-3.6-3.3-2.6-4.3-1.9-5.1,5.4-2.9,2.7-4.2,3.1-2,2.7-2.5,6.9-10.8,1-3.3.9-13.9.9-4.9,1.6-4.6,2.2-3.8,2.8-3,3.9-2.5,21.3-10.4,3.6-2.7,3.6-3.7,6.6-4.8,3.7-1.1,5.5.5,3-.8,7.4-3.1,2.9-.4,2.9-.1,2.5-1.2,2.5-2.7,1.5-5.3,1.5-14.7,1.4-4.4,2.4-3.2,4.4-2.4,11.7-1.6,3.3-1.6,3.6-3.2,3.9-4,3.5-5.1,4.7-3.6,4.8-4.7,3.1-9,1.9-3.9,2.6-4,4.6-5.1,3.8-5.5,4.5-4.6,2.8-3.9,8.4-15.9,1.2-3.8,1.4-3.2,1.6-2.1,3.7-2,7.9-5.6,5.6-5.4,5.4-9.3,13.6,19.3,19,18.6,4.3,5.2,10.3,18.6,9.7,14.6,5,5.1,3.7,2.3,2.9-1.9,6.5-7,1.9-1.6,3-1.9,1.9-.7Z"/><path id="MWI1908" class="cls-1" d="M650.63,1297.21l4.8,23.4-.1,3.7-.8,5-2.7,4.6.3,1.1,3.8,2.4,2,1.5,13.9,13.8,2.5,2.1,2.6,1.5,2.4.7h2.6l3-.6,10.9-5.9,2.1-.8,1.8.2,2.1,1.5.9,3.2v3.4l-.4,5,1,2.7,1.7,1.7,2.9,1.5,1.6,2.8-.3,2-1.5,2.9-3,2-4.5,1.5-3,.7-3.2,1.4-2.2,2.4-8.5,4.8h-3.1l-11.2-1.3-3.9.6-3.6,1.6-3.7,2.2-5.5,2.5-6.4,1.5-16,1.7-4.5-2.4-2.7-2.5-2.6-3.8-2.5-2-3.8-2.5-2-.8-6.2-1.7-9-3.7-7.5-1.7-4.8-.4-4.1.2-14.8,2.2-10.9.2-5.6-1.8-3.6-3.1-1.4-4-1.1-7.5-2-6.9-.6-3.1-.3-3.1-.7-2.7-1.6-.8-2.8.3-48.7,13.7-18.1-.2-14.4-7.4-3-4.6-1.2-4.6-.5-4.4-5.2-23.4v-4.8l2-11.3v-2.4l-1.4-2.3-1.6-1.4-5.9-4,5.7-11,2.3-7.1,3.8-6.2,1-2.1,2.4-7.1.2-3.6-1.2-2.9-1.7-2.7-1.2-2.9v-1.7l.9-1.4,1.4-1,2.8-.1,1.8.7,4.7,4,3.5,1.5,3.7.4,1.9-.7,2-1.2,2.2-3.4,2.5-1.9,3.4-6.3,1.4-1.3,4.4-2.3,2.7-2,1.3-1.6,1.1-2.3,2.8-6.9,4.8-4.9,2.4,11.2,3.9,3.1,3.5,2,4.4,3.4,8.1,8.2,4.4,6.3,3.5,6.5,6.8,17.5.9,4.2.8,14.3,1,5.4,1.7,2.5,1.6,1.2,2.2.2,16,.3,16.7-5.8,3.5-.7,4.8.1,4.8,1,7.8,2.9,4.4,1,8.7-.8,4.7.2,17.6,6.5,3,.6h2.6l2.1-.5,8.6-3.6,2.7-1.5Z"/><path id="MWI1909" class="cls-1" d="M691.83,1384.61l-.6,8.7-3.4,3.5-8.5,3.6-4.2,2.9-2,2.2-1.3,2.4-.2,2,.5,2.2,1.6,1.4,2.6.3,3.2-1.2,10.7-5.5,4.8-1.2,3.9-.2,3.1,1.2-5.4,9.3-5.6,5.4-7.9,5.6-3.7,2-1.6,2.1-1.4,3.2-1.2,3.8-8.4,15.9-2.8,3.9-4.5,4.6-3.8,5.5-4.6,5.1-2.6,4-1.9,3.9-3.1,9-4.8,4.7-4.7,3.6-3.5,5.1-3.9,4-3.6,3.2-3.3,1.6L608,1514l-4.4,2.4-2.4,3.2-1.4,4.4-1.5,14.7-1.5,5.3-2.5,2.7-2.5,1.2-2.9.1-2.9.4-7.4,3.1-3,.8-5.5-.5-3.7,1.1-6.6,4.8-3.6,3.7-3.6,2.7-21.3,10.4-3.9,2.5-2.8,3-2.2,3.8-1.6,4.6-.9,4.9-.9,13.9-1,3.3-6.9,10.8-2.7,2.5-3.1,2-2.7,4.2-5.4,2.9-4.4-12.1-2.6-4-3.5-2.8-8.3-3.8-3.5-2.8-2.6-4.2-1.6-3.9-2-3.8-4.1-3.6-13-5.9-4-3.2-5.6-7.6-15.6-31.8-5.4-7.6-4.3-8.3.8-5.8-3.6-15.8-4.7-13.1-.6-4.4.5-3.8,2.4-7,.6-5.2-2.1-9.6-.1-2.9.4-2.1,1-2.6.6-4.2-.6-3.8-1.4-3.3-6.1-9.4-4.7-11.9-1.2-2.3-2.1-2.3-2.2-1.8-2.7-2.8-2.8-3.6-3-6-.4-2.8.4-2.1,2-2.5,1.6-4.5.4-8.1.4-2.3.8-1.5,2.9-4.3.9-2.2.6-3.6-.3-2.5-.7-2.3.1-1.8,1.4-2.9,4.1-4.7.8-1.5,1-3.7,1.4-3.1,4.9-6.5,2-4.5,5.5-6.2,9.1-7.6,1.1-1.8,1-2.7.6-5.2-.1-2.9-.6-2.2-1.4-3,.4-2.3,2.7-6.7,2-1.3,4.6-1.6,2.5-3.4,5.9,4,1.6,1.4,1.4,2.3v2.4l-2,11.3v4.8l5.2,23.4.5,4.4,1.2,4.6,3,4.6,14.4,7.4,18.1.2,48.7-13.7,2.8-.3,1.6.8.7,2.7.3,3.1.6,3.1,2,6.9,1.1,7.5,1.4,4,3.6,3.1,5.6,1.8,10.9-.2,14.8-2.2,4.1-.2,4.8.4,7.5,1.7,9,3.7,6.2,1.7,2,.8,3.8,2.5,2.5,2,2.6,3.8,2.7,2.5,4.5,2.4,16-1.7,6.4-1.5,5.5-2.5,3.7-2.2,3.6-1.6,3.9-.6,11.2,1.3h3.1l8.5-4.8Z"/><path id="MWI1911" class="cls-1" d="M409.43,1336.41l-2,4.5-4.9,6.5-1.4,3.1-1,3.7-.8,1.5-4.1,4.7-1.4,2.9-.1,1.8.7,2.3.3,2.5-.6,3.6-.9,2.2-2.9,4.3-.8,1.5-.4,2.3-.4,8.1-1.6,4.5-2,2.5-.4,2.1.4,2.8,3,6,2.8,3.6,2.7,2.8,2.2,1.8,2.1,2.3,1.2,2.3,4.7,11.9,6.1,9.4,1.4,3.3.6,3.8-.6,4.2-1,2.6-.4,2.1.1,2.9,2.1,9.6-.6,5.2-2.4,7-.5,3.8.6,4.4,4.7,13.1,3.6,15.8-.8,5.8-.8-1.6-2.2-2.1-2.8-1.1-4.4-2.9-2.5-2.9-7.8-12.8-1.3-5.7,1.6-15.8-3.4-9-6.9-5.5-17-9.4-5.3-6.4-9.5-18.1-4.4-3.7-3.1,1.8-3,8-2.8,2.7-10.6,3.2-4.3,2.3-4.2,4.7-9.6,15.8-5.7,1.3-7.2-9.3-1.6-4.8,1.1-16,.6-1.8-.1-1.7-1.8-2.7-2.5-1.3-5.5.3-2.6-2.1-1.9-5-.6-4.7-1.3-4.9-15.3-18.9-4.5-4-9.4-3.5-11.4-2.3-8.9-4-1.7-8.6,3.3-3.5,11.3-5.4,2.6-3.4-1.7-3.9-11.7-16.5-8.1-3.7-11.3-.1-9.8-2.2-3.6-10,1.3-6.6,3-2.5,4.4.4,5.7,2,3.9-.6,8.3-7.2,4.2-2.6,11.3-1.7,4-2.8,1.4-7.2-.2-5.8.7-4.9,2.5-3.5,5.7-.9,8.8-4.7,5.5-12.1,4.1-16.9,4.2-.5,67.9-4.2,1.7,1,1.8,2,1.5,4.6.1,3.3-1.4,6.5.4,3.9,1.4,4,5.1,10.7,3.3,8.9,2.7,5.2,3.7,4.7,11,10.3,4.3,5.2,3.1,3,8.5,5,12.4,14.1Z"/><path id="MWI1912" class="cls-1" d="M919.73,1694.51l-1.7,4,.7,4.6,1.3,5.4.1,3.1-.5,4.1-5.2,18.2-1.4,2.9-15.8,21.7-1.1,3.7.9,2.9.2,5-22.9,102.5-3.4,4-3.5-.4-.7-2.7.7-3.3-.2-5-.6-3.6-1.5-4.4-2.5-2.7-2.6-2.2-3.7-1.7-4.5-1.4-12.2-2.3-4.4-1.6-2.5-.6-2.3-.1-5.1.8-1.4-.1-18.3-5.7-14.5-2.9-4.2-.4-3.4-24.4.8-5.4,2.8-3.5-.8-3.6-1.9-4-.7-4.6,1.8-4.4,6.3-8.8,2.2-4.7.6-5.4-2.2-4.8-3.4-4.8-2.8-5.1-1.8-6.4-.7-5.3-.1-23.5-1.7-10.1-3.3-9.4-5.2-10.2-2.9-10.9,4.1-19-.3-10.6-5.1-10.1-16-16-7.2-8.9-10-20.7-4.1-6,7-5.7,3.2-.5,7.3,1.4,4.6.5,2.7.8,2.1.9,4,2.8,5.1,2.4,3.6,3.2,3.2.3,4.8-1.1,17.5-7.3,23.2-17.5,24.9-15.3,2.1,32.3,4.4,22.2,8.5,25.6,35.8,48.1,4,3.8,9.4,4.1,10.4,7.8Z"/><path id="MWI1913" class="cls-1" d="M655.83,1292.41l-5.2,4.8-2.7,1.5-8.6,3.6-2.1.5h-2.6l-3-.6-17.6-6.5-4.7-.2-8.7.8-4.4-1-7.8-2.9-4.8-1-4.8-.1-3.5.7-16.7,5.8-16-.3-2.2-.2-1.6-1.2-1.7-2.5-1-5.4-.8-14.3-.9-4.2-6.8-17.5-3.5-6.5-4.4-6.3-8.1-8.2-4.4-3.4-3.5-2-3.9-3.1-2.4-11.2,4.6-.4,5-2.2,4.5-2.7,5.2-1.7,5.2-1.1,1.4-.7,1.1-1.3.8-2.3,1.1-1.6,2.2-.9,3-1.7,3.4-2.9,6.2-7.2,3.9-7.1,1.9-2.4,4.1-3.2,4.6-1.9,2.9-1.7,1.9-1.8,1.6-3.4.6-2.4,3-3,2.4-2.1,22.3-11.1.3,15.5,2.2,6.2,3.3,4.3,3.4,6,.3,3-.4,5.4,1.7,2.1,2,1.9,3,2,2.2.8,2.4-.5,2.2-1.8,1.4-1.8,1.1-2.5,2.1-8.1.7-1.2,1.2-.9,13-3.9,1.5.1.6,1.6-.4,2.6-1.3,5.4.1,3.1,1.2,3,1.7,1.5,5.5.5,3.5.5,1.7,2.5.9,3.2,2.6,16.6-.3,2.6-1.3,2.8-1.2,4.2-.3,4.7,6.3,24.4,2.6,41.9Z"/><path id="MWI1914" class="cls-1" d="M880.73,1300.91l-2.8,12.9-.7-6.2.8-5.1.7-2.4,2,.8Zm-96.9,176.6-1.9.7-3,1.9-1.9,1.6-6.5,7-2.9,1.9-3.7-2.3-5-5.1-9.7-14.6-10.3-18.6-4.3-5.2-19-18.6-13.6-19.3-3.1-1.2-3.9.2-4.8,1.2-10.7,5.5-3.2,1.2-2.6-.3-1.6-1.4-.5-2.2.2-2,1.3-2.4,2-2.2,4.2-2.9,8.5-3.6,3.4-3.5.6-8.7,2.2-2.4,3.2-1.4,3-.7,4.5-1.5,3-2,1.5-2.9.3-2-1.6-2.8-2.9-1.5-1.7-1.7-1-2.7.4-5v-3.4l-.9-3.2-2.1-1.5-1.8-.2-2.1.8-10.9,5.9-3,.6h-2.6l-2.4-.7-2.6-1.5-2.5-2.1-13.9-13.8-2-1.5-3.8-2.4-.3-1.1,2.7-4.6.8-5,.1-3.7-4.8-23.4,5.2-4.8,9.4-4.4,3.6-.4,7.5-1.5,12.7-5.5,26.6-15.3h.7l15.3,25.3,6.5,14.4,6,7.1,2.5,4,3,3.1,4.3,1.3,5.7-1,9.6-3.6,4.8.4,4.1,2.8,2.3,3.8,4,8.8,4.2,4.7,9.1,8.2,1.8,4.4,2.3,3.3,4.8,3.6,3.6,4.3-1.5,5.1-3.4,5.8v4.4l1.1,4.5-.7,5.9-1.5,2.4-5.3,4.1-1.7,2.3-.3,3.1,2.2,5.3.4,2.5-5.4,14.7L792,1424l-7.9,8.6-4.9,6.8-1.6,8.1,5.3,27.4.9,2.6Z"/><path id="MWI1194" class="cls-1" d="M671.93,377.51l-4.4-.6-6.8-2.2-2.8-.2-3,.8-3.8,1.3-2,.1-6.6-4.1-43.7-36.8-70.3-110.1-3.4-7.2-2.4-3.1-2.2-.8-11.1,1.1-7,.1-2.9-1.1-3.9-2.2-10.5-8.9-2.4-1.5-5.4-.7-3.3-.7-3.4-1.8-2.3-2.3-2.4-3.7-1.6-1.8-2-1.6-2.3-1.2-3.6-2.6-1.5-2.2-.6-2.6.2-3.9.6-1.1,1.3-.9,7.8-2.5,14.8-9.4,1.6-1.5,2.9-3.7,4-.8,2.5-.8,4.1-3.7,2.1-2.5,2-3.2,2.8-6.2,1.1-1.6,3.2-2.5,3.9-4,2.1-1.8,1.8-1.1,2.3-.7,5.2-1,1.2-1.9.2-3.3-2-5.4-.7-3.1-.4-5.9-1.3-3-2.1-3.5-.9-2.8-.2-2.3.9-5.4.2-3.5-1.3-2.7-1.3-1.4L507,72.71l8-1,8.1-4.6,9.9-2.7,8.4,5.2,7.9,8,8,5.3,7.2,2.9,8.7,5.3,7.4,6.3,3.4,6.2,3.6,2.6-2.3,2.3-1.5,10.2,2.4,21.6,7.2,17.2,2.4,1.1,2.4.3,1.9.9.8,3.1v10.7l3.4,21.3,9,21,25.4,36.9,17.1,17.3,9.7,7.2,5,4.4,2.1,4.4,1.4,4.7,3.4,4.9,10.9,12.6,2.5,4.4,3.2,10.8,3.5,7.9.6.9-1.9,3.3-1.9.4-2.1-.5-2.6,1-5.2,4.5-1.7,2.8.6,9.9.7,2.7,1.2,2.5.1,2.3-2,2.2-7.5,4.4-2.1,2-2.6,5.5.8,2.2Z"/><path id="MWI1873" class="cls-1" d="M507,72.71l5.9,11.1,1.3,1.4,1.3,2.7-.2,3.5-.9,5.4.2,2.3.9,2.8,2.1,3.5,1.3,3,.4,5.9.7,3.1,2,5.4-.2,3.3-1.2,1.9-5.2,1-2.3.7-1.8,1.1-2.1,1.8-3.9,4-3.2,2.5-1.1,1.6-2.8,6.2-2,3.2-2.1,2.5-4.1,3.7-2.5.8-4,.8-2.9,3.7-1.6,1.5-14.8,9.4-7.8,2.5-1.3.9-.6,1.1-.2,3.9.6,2.6,1.5,2.2,3.6,2.6,2.3,1.2,2,1.6,1.6,1.8,2.4,3.7,2.3,2.3,3.4,1.8,3.3.7,5.4.7,2.4,1.5,10.5,8.9,3.9,2.2,2.9,1.1,7-.1,11.1-1.1,2.2.8,2.4,3.1,3.4,7.2,70.3,110.1L523,370.31l-8.7,3.5-.4-4.3-2.2-5.7v-8.2l-8.4-1.1-4.8-5.5-6-14-2.3-2.7-8.6-7.7-2.6-3.7-8.1-19.3-1.1-7.5,1.9-17.5-.7-9.9-4.4-5.1-6.1-4.3-5.8-7.5-7.9-2.9-5.6-4.6-5-5.5-6.5-5.5L404.63,220l-4.2-5.7.2-8.1,1.6-7.9,5.8-14.7,9.2-14.3,2.2-6.6-2-8.7-4.9-12.3-2-2.5-11.4-4.2-3.7-2-3.7-3.3-2.6-3.8-4.5-8.4-3.4-3.7-7.7-4.8-2.9-4.4-.8-4.6,1-3,1.6-2.5.8-3.3-.4-4.8-1.4-4.2-4.4-7.8-6.2-4.4-16.6-.8-7.1-3.5-1.8,8.1-1,9.3-2.8,5.7-6.8-2.5-1.6-3-.7-3.8-1.2-3.3-3.4-1.6-4.2,1.1-3.4,2.3-3.4,1.6-4.1-1.4-3.7-8.5,5.4-22.5-.1-8.5-2.7-1.3-4.5-4.2-2.1-1.3-3.5.2-2.1,1.5-1.9.7-3-2.5-1.4-4.2-.7-18.3,4.8-5,5.8-3,6-.3,5.4,3.2,15.4,15.4,19,14.7,2.8,1.1,8.3,1.9,9,3.6,1.1.6,2.8-.9,4.3-3.6,2-1h4.3l6.4,2,3.7.3,2.6-.8,4.9-3.3,2.7-.5,5.5,2L416.63,48l5.7,5.4,5.2,11.6,3.8,5.8,4.7,3.4,6,1.8,12.7,1,9.6-2.4,7.3-4.2,7.5-3.2,10.4,1.1,9.4,3,8.1,1.4Z"/><path id="MWI1900" class="cls-1" d="M632.13,531.81l-3.3,22.5-7.4,25.1-.5,5.6.8,3.6,4.6,2.6,2.1,1.5,1.6,2.4,7.2,28.5,1.3,1.9,4.2,4.8,3.7,11.7-.3,5.3-1.2,2.6-2.7,1.4-5.7,1.5-5.5,2.6-4.6-2-3.3-.7-4.8.3-3.2,2.2-2.9,3.8-3.6,8.5-2.4,4.5-2.5,3.3-2.6,1.5-2.9.9-2.5.1-2.1-.2-12.2-3.4-4.1-.3-2.4.7-2.4,1.4-6.6,6.4-6.7,3.9-3.4,2.7-4.4,5.2-2.3,3.4-1.5,3.5-3.5,17.3-.7,6.5-.1,3.7.3,3.3.5,3.3,1.4,3.1,1.8,2.6,4.7,4,.7,1.5,1.1,4.2,1.3,1.9,4.3,3.7,1.2,2.6v5.3l-1.9,5.7-1.4,6.4-2.8,4.3-.7,2.8-.2,2.9,1.9,7.4.6,4.6-.2,6.4.4,4.4,1.2,3.9,1.3,3,.9,3.8-1.2,2.9-6.3,8.6-2.4,2.4-3.1,1.6-3.3.7-3.4.4-3.1,1-2.9,2.2-3,3.5-3.1,5-.8,3.1.4,2.6,1.9,1.8,2.4,1.3,5.2,1.7,1.7,1.1,1.5,1.7,1.4,2.4,1.6,1.7,2.1,1.3,2.5.6,18.5-.2-19.9,16.8-5.4,8.6-.1,2.7,1.2,8.9,1.4,3.8,2.4,2.5,3.5,1.4,9.8.9,4.4,2.6,4.1,4.1,4.6,9.6,3.1,4.7,5.8,6.5.9,4.8.7,7,1.5,4.6,2.1,3.7,2.4,3.3,2.7,3.1,3,1.5,8-.3,4,.7,11.2,5.7,3.6,1.3,3.9.9,3.8.4,3.8-.4,7.1-1.8h2.9l3.1,1.6,1.2,2.5-1,1.5-4.7,4.5-2.6,3-2.2,7.1-1.1,2.4-1.5,1.8-1.7.8-5.7.7-6.6,1.6-2.7,1-2.6,1.5-4.8,4-3.3,2.1-10.2,3.7-9.1,1.4-2.5,1-2.1,1.5-3.5,3.7-8.3,14.2-7,9.4-2.6.8-4.7,3.2h-1.5l-1.8-1.3-6.8-5.9-2.6-1.4-2.2-.7-1.6.3-3.6.2-1.4.5-4.8,3.6-4.5,1.8-3.6.4-4.2-.3-4.1-.6-3.5-1-3.1-1.8-1.6-1.4-3.3-3.8-5.4-8.1-2.1-2.2-3-1.6-3.9-.4-3.7.4-1.5-1.5-1.1-3.4.3-9.1.9-3.8,1.2-2.6,2.2-2.1.7-1.4-.2-2.3-.7-2.6-2.2-4-3.9-4.8-.7-2.3-.5-3.3-.2-17.1.7-3.8.7-1.6,1.7-2.8,3-3.5,1.7-2.8.7-3.8-1.7-2.2-2-1.7-13.8-2.9-4.6-1.1,1.3-.8,2.8-5-.5-6.5-3.5-1.3-5.2.2-12-4.3-22.7,6.9-10.8-3.8-6-9.3L403,894l-3.9-10.3-3.5-4.3-8.7-8.4-2.3-5.1-.4-10.6,1.1-10.4,12.1-28.8,2.9-16.1,1.7-5,1.1-4.9-1.2-4.5-3.5-6.9-.1-5,4.1-11.9,1.1-11.5-3.5-51.1-1.8-5.1-4.2-4.8-5-.8-5.4.6h-5.2l-5.1-1.9-1-2.5,4.5-9.7,2-5.9.3-3.9-1.4-26.7,2.9-4.5,7.8,6.5,2.6-4.3.1-4-.6-4.1.5-4.4,1.4-1.7,4.7-2,1.7-1.5.4-1.9-1-3.5.4-2.1,21.6-33.5,4.3-8.8,2.7-9.3-9.9-17.4-6.9-6.9-5.7-7.9-4.4-8.7-3-9.4-.9-9.3,20.1,8.2,11.3,1.9,10.3.4,2.6,1.2,1.7,1.8,1.3,5.5.8,5.5-.1,3-.6,3.1-1.9,4.9-.4,2.6,1.1,3.2,2.5.7,2.7-.9,6.3-4.5,5.4-4.6,4.6-4.8,1.7-2.3,3.9-6.8,1.7-2.1,2.2-1.6,4.1-.9,3.1,1,3.1,2.2,3.2,3.1,3.2,2.5,4.2,2.3,3.7.7h3.3l11.8-1.8,2.6.4,1.9,1.5,2.5,5.1,1.6,2.2,2.9,1.8,2.7.3,2.5-.4,2.5-.9,2.1-1.4,1.9-2.2,1-2.4.3-1.8-.5-1.4-1.8-3.2-.6-1.9.6-1.9,1.6-1.1,11.2-3,9.4-1.1,29.1,4.2,4.3-.6,2.7-1.8,2.1-13.6.6-2.2,1.2-1.6,2.2.7,19.7,15.9,4.4,5.2,3.9,5.5,4.2,8.2Z"/><path id="MWI1901" class="cls-1" d="M624.13,886.51h-.6l-22.5-5.4-12.6-5.5-4.1-2.8-6.6-5.9-3-.9-2.7-.2-5.7,1.3-18.5.2-2.5-.6-2.1-1.3-1.6-1.7-1.4-2.4-1.5-1.7-1.7-1.1-5.2-1.7-2.4-1.3-1.9-1.8-.4-2.6.8-3.1,3.1-5,3-3.5,2.9-2.2,3.1-1,3.4-.4,3.3-.7,3.1-1.6,2.4-2.4,6.3-8.6,1.2-2.9-.9-3.8-1.3-3-1.2-3.9-.4-4.4.2-6.4-.6-4.6-1.9-7.4.2-2.9.7-2.8,2.8-4.3,1.4-6.4,1.9-5.7v-5.3l-1.2-2.6-4.3-3.7-1.3-1.9-1.1-4.2-.7-1.5-4.7-4-1.8-2.6-1.4-3.1-.5-3.3-.3-3.3.1-3.7.7-6.5,3.5-17.3,1.5-3.5,2.3-3.4,4.4-5.2,3.4-2.7,6.7-3.9,6.6-6.4,2.4-1.4,2.4-.7,4.1.3,12.2,3.4,2.1.2,2.5-.1,2.9-.9,2.6-1.5,2.5-3.3,2.4-4.5,3.6-8.5,2.9-3.8,3.2-2.2,4.8-.3,3.3.7,4.6,2,5.5-2.6,5.7-1.5,2.7-1.4,1.2-2.6.3-5.3-3.7-11.7-4.2-4.8-1.3-1.9-7.2-28.5-1.6-2.4-2.1-1.5-4.6-2.6-.8-3.6.5-5.6,7.4-25.1,3.3-22.5,42.6-25.1,11.4-9.1-.8,29,2,10.3,4.3,5.9-8.5,15.2-2.2,7.9,3.5,8.2,1.7,2.9.1,3.3-.9,7.8,1,5,2.1,2.7,2.8,1.9,2.8,3.1,6.1,17.8,2.1,39.4,6,22.3-.1,9.1,1.4,3.3,2.1,3.1,1.6,4.4,1.6,8.5-.3,10.2-2.6,6.3-12.6,12-3.3,1.9-2,2-1.2,1.9-1.1,3.9-1.1,1.7-3.4,2.7-7.3,4.2-3,2.9-3.4,7-2.5,9.5v9.2l3.8,6.4-35,27-3.9,5.1-1.9,5.5-1.6,12-3.6,15.7-1.2,10.1-3.6,15.3.1,5.3Z"/><path id="MWI1903" class="cls-1" d="M671.93,377.51l1,2.7,3.7,4.8,2.5,5.2L679,394l-1.9,10.8-.2,4.9,4.3,17,5.2,60.3-.3,10.6-11.4,9.1-42.6,25.1-4.2-8.2-3.9-5.5-4.4-5.2L599.93,497l-2.2-.7-1.2,1.6-.6,2.2-2.1,13.6-2.7,1.8-4.3.6-29.1-4.2-9.4,1.1-11.2,3-1.6,1.1-.6,1.9.6,1.9,1.8,3.2.5,1.4-.3,1.8-1,2.4-1.9,2.2-2.1,1.4-2.5.9-2.5.4-2.7-.3-2.9-1.8-1.6-2.2-2.5-5.1-1.9-1.5-2.6-.4-11.8,1.8h-3.3l-3.7-.7-4.2-2.3-3.2-2.5-3.2-3.1-3.1-2.2-3.1-1-4.1.9-2.2,1.6-1.7,2.1-3.9,6.8-1.7,2.3-4.6,4.8-5.4,4.6-6.3,4.5-2.7.9-2.5-.7-1.1-3.2.4-2.6,1.9-4.9.6-3.1.1-3-.8-5.5-1.3-5.5-1.7-1.8-2.6-1.2-10.3-.4-11.3-1.9-20.1-8.2-1-9.5-2.3-9.8-4.5-3.9-4.2.6h-3.8l-2.5-1.7.3-4.5,2.7-5.5,2.9-1,3.2.9,3.8.1,4.5-2.8,5.8-8.8,3.7-3.3,4.2-1.4,7.8-1.6,4.2-1.7,4.3-.7,10.2,2,4.7.3,4.1-1.9,5.6-5.6,4.6-.9,6.3-3.9,3.4-5.4,5-12.6,15-16.9,4.1-2.7,4-1.8,12.1-8.8,4.7-4.4,5.1-7.6-.1-1.2,8.7-3.5,75.8-34.5,43.7,36.8,6.6,4.1,2-.1,3.8-1.3,3-.8,2.8.2,6.8,2.2,4.4.6Z"/><path id="MWI1900-2" data-name="MWI1900" class="cls-2" d="M566.33,867.11l-19.9,16.8-5.4,8.6-.1,2.7,1.2,8.9,1.4,3.8,2.4,2.5,3.5,1.4,9.8.9,4.4,2.6,4.1,4.1,4.6,9.6,3.1,4.7,5.8,6.5.9,4.8.7,7,1.5,4.6,2.1,3.7,2.4,3.3,2.7,3.1,3,1.5,8-.3,4,.7,11.2,5.7,3.6,1.3,3.9.9,3.8.4,3.8-.4,7.1-1.8h2.9l3.1,1.6,1.2,2.5-1,1.5-4.7,4.5-2.6,3-2.2,7.1-1.1,2.4-1.5,1.8-1.7.8-5.7.7-6.6,1.6-2.7,1-2.6,1.5-4.8,4-3.3,2.1-10.2,3.7-9.1,1.4-2.5,1-2.1,1.5-3.5,3.7-8.3,14.2-7,9.4-2.6.8-4.7,3.2h-1.5l-1.8-1.3-6.8-5.9-2.6-1.4-2.2-.7-1.6.3-3.6.2-1.4.5-4.8,3.6-4.5,1.8-3.6.4-4.2-.3-4.1-.6-3.5-1-3.1-1.8-1.6-1.4-3.3-3.8-5.4-8.1-2.1-2.2-3-1.6-3.9-.4-3.7.4-1.5-1.5-1.1-3.4.3-9.1.9-3.8,1.2-2.6,2.2-2.1.7-1.4-.2-2.3-.7-2.6-2.2-4-3.9-4.8-.7-2.3-.5-3.3-.2-17.1.7-3.8.7-1.6,1.7-2.8,3-3.5,1.7-2.8.7-3.8-1.7-2.2-2-1.7-13.8-2.9-4.6-1.1,1.3-.8,2.8-5-.5-6.5"/><path id="MWI1901-2" data-name="MWI1901" class="cls-2" d="M624,881.21l.1,5.3h-.6l-22.5-5.4-12.6-5.5-4.1-2.8-6.6-5.9-3-.9-2.7-.2-5.7,1.3"/><path id="MWI1910-2" data-name="MWI1910" class="cls-2" d="M922.73,1694.51h-3l-10.4-7.8-9.4-4.1-4-3.8-35.8-48.1-8.5-25.6-4.4-22.2-2.1-32.3v-13.7l2.9-.9,4.4-.9,5.6-2.1"/><path id="MWI1915-2" data-name="MWI1915" class="cls-2" d="M874.33,1872.61l22.9-102.5-.2-5-.9-2.9,1.1-3.7,15.8-21.7,1.4-2.9,5.2-18.2.5-4.1-.1-3.1-1.3-5.4-.7-4.6,1.7-4h3"/><path id="MWI5510-2" data-name="MWI5510" class="cls-2" d="M743.83,1956.21l-2.8-19.3v-10.8l3.8-5.3,5.6-2.9,6-9.8,6.2-3.8,2.1-4,1.5-8.1,1.4-4,3.5-4.7,3.8-2.6,4-2.1,4.2-3.2,5.6-8.3,1.2-8.3-3-22.7,4.2.4,14.5,2.9,18.3,5.7,1.4.1,5.1-.8,2.3.1,2.5.6,4.4,1.6,12.2,2.3,4.5,1.4,3.7,1.7,2.6,2.2,2.5,2.7,1.5,4.4.6,3.6.2,5-.7,3.3.7,2.7,3.5.4,3.4-4h0"/><path class="cls-3" d="M921.34,569.41,807.69,509c22.7-42.68,65.31-68.29,113.65-68.29Z"/><path class="cls-4" d="M921.34,569.41,845.69,673.55C792.78,635.1,777,566.73,807.69,509Z"/><path class="cls-5" d="M921.34,569.41V440.7a128.72,128.72,0,1,1,0,257.43c-28.43,0-52.65-7.87-75.65-24.58Z"/><path class="cls-3" d="M160.42,1540.39l-112.09-43c18.06-47,61.69-77,112.09-77Z"/><path class="cls-4" d="M160.42,1540.39l37.1,114.19a120.07,120.07,0,0,1-151.29-77.09c-9-27.75-8.36-52.89,2.1-80.13Z"/><path class="cls-5" d="M160.42,1540.39V1420.33a120.06,120.06,0,0,1,120.06,120.06c0,53-32.51,97.79-83,114.19Z"/><path class="cls-3" d="M1232.79,1370.1l-116.48-37.85c16.72-51.47,62.37-84.63,116.48-84.63Z"/><path class="cls-4" d="M1232.79,1370.1l8.55,122.17a122.46,122.46,0,0,1-130.72-113.63,118.66,118.66,0,0,1,5.69-46.39Z"/><path class="cls-5" d="M1232.79,1370.1V1247.62a122.48,122.48,0,0,1,122.48,122.48c0,64.93-49.16,117.64-113.93,122.17Z"/><text class="cls-6" transform="translate(26.99 1685.86)">36%</text><text class="cls-6" transform="translate(293.72 1579.94)">45%</text><text class="cls-6" transform="translate(1343.66 1283.02)">49%</text><text class="cls-6" transform="translate(0 1463.21)">Central</text><text class="cls-6" transform="translate(1115.28 1536.03)">31%</text><text class="cls-6" transform="translate(1085.91 1299.11)">South</text><text class="cls-6" transform="translate(1068.61 526.89)">60%</text><text class="cls-6" transform="translate(747.44 706.14)">23%</text><text class="cls-6" transform="translate(796.59 481.12)">North</text></g></g></svg>