<svg id="Layer_1" data-name="Layer 1" xmlns="http://www.w3.org/2000/svg" viewBox="0 0 544.22 669.09"><defs><style>.cls-1{fill:#fffcf8;}.cls-11,.cls-2,.cls-3{fill:none;}.cls-2,.cls-3{stroke:#3f1a13;}.cls-2{stroke-miterlimit:10;stroke-width:0.54px;}.cls-3{stroke-linecap:round;stroke-linejoin:round;stroke-width:1.9px;}.cls-4{fill:#f8b133;}.cls-5{fill:#4dafce;}.cls-6{font-size:10.07px;font-family:ArialMT, Arial;}.cls-10,.cls-6,.cls-7{fill:#3f1a13;}.cls-7{font-size:21px;font-family:HelveticaNeue, Helvetica Neue;}.cls-8{letter-spacing:-0.02em;}.cls-9{letter-spacing:-0.02em;}.cls-10{font-size:14px;font-family:HelveticaNeue-Bold, Helvetica Neue;font-weight:700;}.cls-11{stroke:#ec411b;}</style></defs><polygon class="cls-1" points="475.57 500.84 453.93 500.46 453.71 500.6 452.37 501.77 451.5 502.31 450.44 502.77 448.64 503.35 447.56 503.51 446.6 503.48 445.05 503.02 440.78 501.22 439.14 500.87 438.14 500.92 437.21 501.22 436.67 501.63 435.09 503.26 434.24 503.78 433.48 503.84 432.39 503.62 431.03 503.16 429.64 502.86 428.8 502.99 428.12 503.45 427.41 504.19 426.4 504.93 425.59 504.9 424.96 504.49 423.93 502.48 424.61 501.82 425.26 500.41 425.53 498.58 426.76 495.34 427.28 493.06 428.75 490.01 428.94 489.14 429.05 487.8 429.26 487.04 429.81 485.98 432.37 481.98 433.62 481.11 434.52 480.29 435.06 478.41 435.88 471.42 435.69 467.33 434.76 463.58 432.75 461.45 432.5 461.29 432.64 460.58 432.2 459.33 432.09 458.4 432.12 457.94 432.45 457.13 433.02 456.06 433.18 455.17 433.59 454.68 434.16 454.76 434.98 455.11 435.5 455.44 436.91 456.72 437.84 457.75 438.74 459.25 439.23 459.66 439.85 459.93 440.75 460.12 445.08 461.62 446.3 461.86 447.61 461.62 448.81 460.96 451.01 458.65 452.29 457.94 453.16 457.64 453.98 457.15 454.9 456.01 455.29 454.84 455.37 453.64 454.96 450.73 454.99 450.16 455.2 449.69 456.48 448.31 457.65 447.54 459.45 446.81 463.59 445.83 465.66 445.56 468.13 445.45 470.01 444.77 472.38 442.86 475.4 446.75 479.49 450.89 480.47 452.17 480.96 453.64 481.83 471.77 482.37 472.56 483.46 472.72 485.26 472.67 479.81 485.65 475.76 495.23 475.19 497.41 475.21 499.43 475.57 500.84"/><polygon class="cls-2" points="475.57 500.84 453.93 500.46 453.71 500.6 452.37 501.77 451.5 502.31 450.44 502.77 448.64 503.35 447.56 503.51 446.6 503.48 445.05 503.02 440.78 501.22 439.14 500.87 438.14 500.92 437.21 501.22 436.67 501.63 435.09 503.26 434.24 503.78 433.48 503.84 432.39 503.62 431.03 503.16 429.64 502.86 428.8 502.99 428.12 503.45 427.41 504.19 426.4 504.93 425.59 504.9 424.96 504.49 423.93 502.48 424.61 501.82 425.26 500.41 425.53 498.58 426.76 495.34 427.28 493.06 428.75 490.01 428.94 489.14 429.05 487.8 429.26 487.04 429.81 485.98 432.37 481.98 433.62 481.11 434.52 480.29 435.06 478.41 435.88 471.42 435.69 467.33 434.76 463.58 432.75 461.45 432.5 461.29 432.64 460.58 432.2 459.33 432.09 458.4 432.12 457.94 432.45 457.13 433.02 456.06 433.18 455.17 433.59 454.68 434.16 454.76 434.98 455.11 435.5 455.44 436.91 456.72 437.84 457.75 438.74 459.25 439.23 459.66 439.85 459.93 440.75 460.12 445.08 461.62 446.3 461.86 447.61 461.62 448.81 460.96 451.01 458.65 452.29 457.94 453.16 457.64 453.98 457.15 454.9 456.01 455.29 454.84 455.37 453.64 454.96 450.73 454.99 450.16 455.2 449.69 456.48 448.31 457.65 447.54 459.45 446.81 463.59 445.83 465.66 445.56 468.13 445.45 470.01 444.77 472.38 442.86 475.4 446.75 479.49 450.89 480.47 452.17 480.96 453.64 481.83 471.77 482.37 472.56 483.46 472.72 485.26 472.67 479.81 485.65 475.76 495.23 475.19 497.41 475.21 499.43 475.57 500.84"/><polygon class="cls-1" points="472.38 442.86 470.01 444.77 468.13 445.45 465.66 445.56 463.59 445.83 459.45 446.81 457.65 447.54 456.48 448.31 455.2 449.69 454.99 450.16 454.96 450.73 455.37 453.64 455.29 454.84 454.9 456.01 453.98 457.15 453.16 457.64 452.29 457.94 451.01 458.65 448.81 460.96 447.61 461.62 446.3 461.86 445.08 461.62 440.75 460.12 439.85 459.93 439.23 459.66 438.74 459.25 437.84 457.75 436.91 456.72 435.5 455.44 434.98 455.11 434.16 454.76 433.59 454.68 433.18 455.17 433.02 456.06 432.45 457.13 432.12 457.94 432.09 458.4 432.2 459.33 432.64 460.58 432.5 461.29 409.47 461.26 408.66 461.26 405.83 459.14 403.27 458.02 402.18 456.99 392.43 443.89 390.12 436.93 388.92 430.88 388.35 422.09 388.35 418.36 389.14 418.12 390.34 417.87 391.86 417.3 393.17 416.46 393.71 415.45 393.85 414.71 394.18 414.31 395.13 413.71 395.26 413 394.75 412.13 394.09 411.23 393.71 410.44 394.53 408.1 396.46 405.98 397.93 403.96 397.39 401.89 396.05 399.42 396.38 397.21 397.99 396.1 400.52 396.83 401.61 397.73 403.46 399.66 404.6 400.34 403.87 403.31 404.57 406.9 406.45 409.3 409.17 408.62 409.56 409.11 410.54 409.95 410.94 410.44 412.88 410.14 414.92 411.96 416.52 414.77 417.18 417.25 417.67 418.09 419.76 420.54 420.09 421.08 421.5 421.57 422.51 422.75 424.09 425.28 428.12 428.81 428.5 429.69 428.83 430.26 429.24 430.58 430.02 430.5 431.25 429.63 431.88 429.39 432.48 428.76 433.13 427.32 433.59 425.82 433.59 424.95 432.23 422.91 428.77 415.8 427.93 413.22 427.6 410.11 424.96 405.98 424.25 404.56 424.34 403.12 424.61 401.68 424.66 400.34 423.71 398.03 420.74 393.37 420.09 390.9 419.93 387.93 419.65 386.27 419.06 384.31 418.97 382.87 418.67 382.32 417.61 381.04 416.66 379.65 415.68 376.66 415.24 374.24 414.05 372.6 410.89 371.98 402.2 372.28 400.98 372.11 399.4 371.35 397.5 369.36 397.06 367.11 397.66 361.58 397.28 357.63 398.04 354.12 400.6 355.7 416.5 370.34 423.79 379.08 432.83 389.92 447.66 407.72 453.27 418.61 472.38 442.86"/><polygon class="cls-2" points="472.38 442.86 470.01 444.77 468.13 445.45 465.66 445.56 463.59 445.83 459.45 446.81 457.65 447.54 456.48 448.31 455.2 449.69 454.99 450.16 454.96 450.73 455.37 453.64 455.29 454.84 454.9 456.01 453.98 457.15 453.16 457.64 452.29 457.94 451.01 458.65 448.81 460.96 447.61 461.62 446.3 461.86 445.08 461.62 440.75 460.12 439.85 459.93 439.23 459.66 438.74 459.25 437.84 457.75 436.91 456.72 435.5 455.44 434.98 455.11 434.16 454.76 433.59 454.68 433.18 455.17 433.02 456.06 432.45 457.13 432.12 457.94 432.09 458.4 432.2 459.33 432.64 460.58 432.5 461.29 409.47 461.26 408.66 461.26 405.83 459.14 403.27 458.02 402.18 456.99 392.43 443.89 390.12 436.93 388.92 430.88 388.35 422.09 388.35 418.36 389.14 418.12 390.34 417.87 391.86 417.3 393.17 416.46 393.71 415.45 393.85 414.71 394.18 414.31 395.13 413.71 395.26 413 394.75 412.13 394.09 411.23 393.71 410.44 394.53 408.1 396.46 405.98 397.93 403.96 397.39 401.89 396.05 399.42 396.38 397.21 397.99 396.1 400.52 396.83 401.61 397.73 403.46 399.66 404.6 400.34 403.87 403.31 404.57 406.9 406.45 409.3 409.17 408.62 409.56 409.11 410.54 409.95 410.94 410.44 412.88 410.14 414.92 411.96 416.52 414.77 417.18 417.25 417.67 418.09 419.76 420.54 420.09 421.08 421.5 421.57 422.51 422.75 424.09 425.28 428.12 428.81 428.5 429.69 428.83 430.26 429.24 430.58 430.02 430.5 431.25 429.63 431.88 429.39 432.48 428.76 433.13 427.32 433.59 425.82 433.59 424.95 432.23 422.91 428.77 415.8 427.93 413.22 427.6 410.11 424.96 405.98 424.25 404.56 424.34 403.12 424.61 401.68 424.66 400.34 423.71 398.03 420.74 393.37 420.09 390.9 419.93 387.93 419.65 386.27 419.06 384.31 418.97 382.87 418.67 382.32 417.61 381.04 416.66 379.65 415.68 376.66 415.24 374.24 414.05 372.6 410.89 371.98 402.2 372.28 400.98 372.11 399.4 371.35 397.5 369.36 397.06 367.11 397.66 361.58 397.28 357.63 398.04 354.12 400.6 355.7 416.5 370.34 423.79 379.08 432.83 389.92 447.66 407.72 453.27 418.61 472.38 442.86"/><polygon class="cls-1" points="432.5 461.29 432.75 461.45 434.76 463.58 435.69 467.33 435.88 471.42 435.06 478.41 434.52 480.29 433.62 481.11 432.37 481.98 429.81 485.98 429.26 487.04 429.05 487.8 428.94 489.14 428.75 490.01 427.28 493.06 426.76 495.34 425.53 498.58 425.26 500.41 424.61 501.82 423.93 502.48 420.12 506.07 418.48 508.76 417.42 509.8 414.05 510.69 396.3 509.74 402.53 481.84 402.48 480.48 402.23 479.69 402.53 478.68 406.83 472.78 407.21 471.99 408.63 467.03 408.76 465.92 408.74 465.07 408.38 463.6 408.19 462.35 408.66 461.26 409.47 461.26 432.5 461.29"/><polygon class="cls-2" points="432.5 461.29 432.75 461.45 434.76 463.58 435.69 467.33 435.88 471.42 435.06 478.41 434.52 480.29 433.62 481.11 432.37 481.98 429.81 485.98 429.26 487.04 429.05 487.8 428.94 489.14 428.75 490.01 427.28 493.06 426.76 495.34 425.53 498.58 425.26 500.41 424.61 501.82 423.93 502.48 420.12 506.07 418.48 508.76 417.42 509.8 414.05 510.69 396.3 509.74 402.53 481.84 402.48 480.48 402.23 479.69 402.53 478.68 406.83 472.78 407.21 471.99 408.63 467.03 408.76 465.92 408.74 465.07 408.38 463.6 408.19 462.35 408.66 461.26 409.47 461.26 432.5 461.29"/><polygon class="cls-1" points="388.49 553.13 396.95 553.92 398.01 554.14 398.53 554.79 399.32 556.89 399.32 557.43 398.99 558.22 398.07 559.94 397.82 560.86 397.93 562.52 397.82 563.26 396.57 565.74 396.52 566.69 396.93 567.1 397.71 567.1 398.56 567.02 399.46 567.23 399.78 567.7 399.73 568.16 399.1 569 398.99 569.52 399.02 570.28 399.37 571.62 399.59 572.05 399.84 572.24 400.38 571.83 405.17 579.62 416.36 592.55 416.5 593.2 416.52 594.07 416.42 594.73 417.5 598.43 414.78 611.28 414.54 611.88 414.26 612.23 413.64 612.61 412.03 614.11 407.51 619.25 407 620.15 406.53 621.67 406.62 622.6 406.81 623.31 406.75 623.8 406.32 624.26 405.28 624.75 403.76 625.68 402.34 627.04 399.95 630.74 399.18 630.17 397.71 629.54 396.44 628.78 395.62 627.45 394.99 625.54 394.34 624.34 390.42 621.02 389.57 619.85 388.08 616.91 386.99 615.71 381.68 612.88 381.06 612.64 380.54 612.23 379.5 609.64 379.07 608.85 378.5 608.23 375.8 606.16 374.74 605.1 373.84 603.76 371.5 597.69 369.62 595.76 365.89 595.22 363.01 595.11 361.37 593.42 357.92 585.77 358.27 582.8 359.9 577.17 359.55 574.72 358.13 572.73 351.14 565.33 349.91 564.57 347.14 563.23 346.1 562.31 345.18 559.88 345.01 556.78 345.45 553.73 346.35 551.55 348.74 548.97 350.21 547.8 351.66 547.12 353.37 546.57 354.32 546 355.52 546.49 367.33 551.61 370.66 552.64 388.49 553.13"/><polygon class="cls-2" points="388.49 553.13 396.95 553.92 398.01 554.14 398.53 554.79 399.32 556.89 399.32 557.43 398.99 558.22 398.07 559.94 397.82 560.86 397.93 562.52 397.82 563.26 396.57 565.74 396.52 566.69 396.93 567.1 397.71 567.1 398.56 567.02 399.46 567.23 399.78 567.7 399.73 568.16 399.1 569 398.99 569.52 399.02 570.28 399.37 571.62 399.59 572.05 399.84 572.24 400.38 571.83 405.17 579.62 416.36 592.55 416.5 593.2 416.52 594.07 416.42 594.73 417.5 598.43 414.78 611.28 414.54 611.88 414.26 612.23 413.64 612.61 412.03 614.11 407.51 619.25 407 620.15 406.53 621.67 406.62 622.6 406.81 623.31 406.75 623.8 406.32 624.26 405.28 624.75 403.76 625.68 402.34 627.04 399.95 630.74 399.18 630.17 397.71 629.54 396.44 628.78 395.62 627.45 394.99 625.54 394.34 624.34 390.42 621.02 389.57 619.85 388.08 616.91 386.99 615.71 381.68 612.88 381.06 612.64 380.54 612.23 379.5 609.64 379.07 608.85 378.5 608.23 375.8 606.16 374.74 605.1 373.84 603.76 371.5 597.69 369.62 595.76 365.89 595.22 363.01 595.11 361.37 593.42 357.92 585.77 358.27 582.8 359.9 577.17 359.55 574.72 358.13 572.73 351.14 565.33 349.91 564.57 347.14 563.23 346.1 562.31 345.18 559.88 345.01 556.78 345.45 553.73 346.35 551.55 348.74 548.97 350.21 547.8 351.66 547.12 353.37 546.57 354.32 546 355.52 546.49 367.33 551.61 370.66 552.64 388.49 553.13"/><polygon class="cls-1" points="438 541.92 436.39 546.85 436.34 550.03 437.51 564.51 437.43 565.76 436.99 566.74 436.59 567.15 435.47 569.96 433.78 568.98 432.77 567.94 432.12 567.1 431.77 566.31 431.3 564.43 430.84 563.21 430.32 562.42 427.36 559.61 426.73 558.88 426.19 558.03 425.64 557.65 424.83 557.41 421.72 557.38 419.85 553.76 419.33 552.24 419.19 550.52 419.38 542.05 419.19 539.52 418.84 537.89 418.29 537.24 418.18 536.01 418.27 535.06 421.4 529.18 422.57 528.96 423.14 529.15 423.68 528.88 424.23 528.5 425.18 527.95 425.64 528.12 425.81 528.66 425.67 529.89 425.72 530.73 426.32 531.66 427.17 532.25 428.5 532.83 429.26 533.42 429.83 534.21 430.51 536.15 431.09 537.32 432.28 539.06 433.29 539.99 434.22 540.56 438 541.92"/><polygon class="cls-2" points="438 541.92 436.39 546.85 436.34 550.03 437.51 564.51 437.43 565.76 436.99 566.74 436.59 567.15 435.47 569.96 433.78 568.98 432.77 567.94 432.12 567.1 431.77 566.31 431.3 564.43 430.84 563.21 430.32 562.42 427.36 559.61 426.73 558.88 426.19 558.03 425.64 557.65 424.83 557.41 421.72 557.38 419.85 553.76 419.33 552.24 419.19 550.52 419.38 542.05 419.19 539.52 418.84 537.89 418.29 537.24 418.18 536.01 418.27 535.06 421.4 529.18 422.57 528.96 423.14 529.15 423.68 528.88 424.23 528.5 425.18 527.95 425.64 528.12 425.81 528.66 425.67 529.89 425.72 530.73 426.32 531.66 427.17 532.25 428.5 532.83 429.26 533.42 429.83 534.21 430.51 536.15 431.09 537.32 432.28 539.06 433.29 539.99 434.22 540.56 438 541.92"/><polygon class="cls-1" points="435.47 569.96 436.5 577.93 436.18 580.43 435.44 581.2 434.98 581.58 434.49 582.2 433.94 583.05 433.35 584.57 433.18 585.52 433.32 586.29 433.62 586.72 434.54 587.7 432.69 589.93 431.14 593.2 430.57 597.23 430.76 598.16 431.77 600.63 431.44 601.5 429.45 603.9 429.34 604.34 425.4 603.11 423.98 603.44 423.65 604.01 422.81 603.87 422.16 603.6 417.5 598.43 416.41 594.73 416.52 594.07 416.5 593.2 416.36 592.55 405.17 579.62 400.38 571.83 402.67 571.18 403.32 570.75 405.42 568.84 406.23 567.8 407.81 564.92 408.38 564.13 408.96 563.56 409.94 563.2 411.57 563.1 412.74 562.88 421.72 557.38 424.83 557.41 425.64 557.65 426.19 558.03 426.73 558.88 427.36 559.61 430.32 562.41 430.84 563.2 431.3 564.43 431.77 566.31 432.12 567.1 432.77 567.94 433.78 568.98 435.47 569.96"/><polygon class="cls-2" points="435.47 569.96 436.5 577.93 436.18 580.43 435.44 581.2 434.98 581.58 434.49 582.2 433.94 583.05 433.35 584.57 433.18 585.52 433.32 586.29 433.62 586.72 434.54 587.7 432.69 589.93 431.14 593.2 430.57 597.23 430.76 598.16 431.77 600.63 431.44 601.5 429.45 603.9 429.34 604.34 425.4 603.11 423.98 603.44 423.65 604.01 422.81 603.87 422.16 603.6 417.5 598.43 416.41 594.73 416.52 594.07 416.5 593.2 416.36 592.55 405.17 579.62 400.38 571.83 402.67 571.18 403.32 570.75 405.42 568.84 406.23 567.8 407.81 564.92 408.38 564.13 408.96 563.56 409.94 563.2 411.57 563.1 412.74 562.88 421.72 557.38 424.83 557.41 425.64 557.65 426.19 558.03 426.73 558.88 427.36 559.61 430.32 562.41 430.84 563.2 431.3 564.43 431.77 566.31 432.12 567.1 432.77 567.94 433.78 568.98 435.47 569.96"/><polygon class="cls-1" points="429.34 604.34 429.02 605.53 429.05 609.02 428.58 610.57 427.44 611.79 421.59 615.71 420.52 616.45 421.89 620.34 423.25 622.52 423.57 623.42 424.06 624.15 425.02 624.45 425.78 624.59 427.6 625.29 428.15 625.6 428.53 626.03 428.96 626.93 429.29 627.39 430.49 628.04 432.5 630.28 432.77 630.74 433.02 636.51 433.35 638.25 435.03 641.68 435.47 643.86 433.37 645.66 433.15 647.51 433.35 650.83 433.07 651.24 432.58 651.62 432.18 652.05 432.2 652.63 432.58 653.03 435.31 654.64 435.8 655.4 435.39 656.54 434.49 658.15 434.38 659.57 435.12 662.86 435.22 664.63 435.01 666.1 434.57 667.3 433.92 668.3 429.13 668.82 420.69 668.52 416.28 667.84 415 666.59 415.24 664.33 412.52 660.11 413.18 657.36 415 655.84 417.12 654.8 418.97 653.47 419.95 651.07 420.2 648.24 420.14 645.06 419.38 642.36 417.48 640.95 414.73 640.87 412.22 641.11 409.83 640.7 407.38 638.74 405.82 636.65 405.12 635.86 403.95 635.01 403.38 634.79 402.1 634.58 401.52 634.25 401.14 633.57 400.9 631.88 400.52 631.17 399.94 630.74 402.34 627.04 403.76 625.68 405.28 624.75 406.31 624.26 406.75 623.8 406.81 623.31 406.61 622.6 406.53 621.67 407 620.15 407.51 619.25 412.03 614.11 413.64 612.61 414.26 612.23 414.54 611.88 414.78 611.28 417.5 598.43 422.16 603.6 422.81 603.87 423.65 604.01 423.98 603.44 425.4 603.11 429.34 604.34"/><polygon class="cls-2" points="429.34 604.34 429.02 605.53 429.05 609.02 428.58 610.57 427.44 611.79 421.59 615.71 420.52 616.45 421.89 620.34 423.25 622.52 423.57 623.42 424.06 624.15 425.02 624.45 425.78 624.59 427.6 625.29 428.15 625.6 428.53 626.03 428.96 626.93 429.29 627.39 430.49 628.04 432.5 630.28 432.77 630.74 433.02 636.51 433.35 638.25 435.03 641.68 435.47 643.86 433.37 645.66 433.15 647.51 433.35 650.83 433.07 651.24 432.58 651.62 432.18 652.05 432.2 652.63 432.58 653.03 435.31 654.64 435.8 655.4 435.39 656.54 434.49 658.15 434.38 659.57 435.12 662.86 435.22 664.63 435.01 666.1 434.57 667.3 433.92 668.3 429.13 668.82 420.69 668.52 416.28 667.84 415 666.59 415.24 664.33 412.52 660.11 413.18 657.36 415 655.84 417.12 654.8 418.97 653.47 419.95 651.07 420.2 648.24 420.14 645.06 419.38 642.36 417.48 640.95 414.73 640.87 412.22 641.11 409.83 640.7 407.38 638.74 405.82 636.65 405.12 635.86 403.95 635.01 403.38 634.79 402.1 634.58 401.52 634.25 401.14 633.57 400.9 631.88 400.52 631.17 399.94 630.74 402.34 627.04 403.76 625.68 405.28 624.75 406.31 624.26 406.75 623.8 406.81 623.31 406.61 622.6 406.53 621.67 407 620.15 407.51 619.25 412.03 614.11 413.64 612.61 414.26 612.23 414.54 611.88 414.78 611.28 417.5 598.43 422.16 603.6 422.81 603.87 423.65 604.01 423.98 603.44 425.4 603.11 429.34 604.34"/><polygon class="cls-1" points="475.57 500.84 477.53 508.95 479.92 518.73 479.65 522.4 470.07 522.75 466.91 523.76 464.87 524.69 463.64 526.02 461.68 527.85 457.27 530.78 456.27 531.25 455.37 531.87 454.69 532.53 453.6 535.22 451.56 536.72 450.93 537.26 448.45 540.18 447.8 540.39 446.77 540.56 443.23 540.69 442.17 540.88 441.05 541.46 440.34 541.75 438 541.92 434.22 540.56 433.29 539.99 432.29 539.06 431.09 537.32 430.51 536.15 429.83 534.22 429.26 533.42 428.5 532.83 427.17 532.25 426.32 531.66 425.72 530.73 425.67 529.89 425.81 528.66 425.64 528.12 425.18 527.95 424.23 528.5 423.68 528.88 423.14 529.15 422.57 528.96 421.4 529.18 420.31 529.23 419.85 529.15 419.33 528.93 418.95 528.5 418.86 527.82 419 527.27 419.3 526.76 421.04 524.69 421.26 524.2 421.12 523.84 420.58 523.71 419.14 523.71 418.4 523.57 417.61 522.95 416.85 522.02 414.05 517.88 412.14 516.22 410.37 512.98 414.05 510.7 417.42 509.8 418.48 508.76 420.12 506.07 423.93 502.48 424.96 504.49 425.59 504.9 426.4 504.93 427.41 504.19 428.12 503.45 428.8 502.99 429.64 502.86 431.03 503.16 432.39 503.62 433.48 503.84 434.24 503.78 435.09 503.26 436.67 501.63 437.21 501.22 438.14 500.92 439.14 500.87 440.78 501.22 445.05 503.02 446.6 503.48 447.56 503.51 448.64 503.35 450.44 502.77 451.5 502.31 452.37 501.77 453.71 500.6 453.93 500.46 475.57 500.84"/><polygon class="cls-2" points="475.57 500.84 477.53 508.95 479.92 518.73 479.65 522.4 470.07 522.75 466.91 523.76 464.87 524.69 463.64 526.02 461.68 527.85 457.27 530.78 456.27 531.25 455.37 531.87 454.69 532.53 453.6 535.22 451.56 536.72 450.93 537.26 448.45 540.18 447.8 540.39 446.77 540.56 443.23 540.69 442.17 540.88 441.05 541.46 440.34 541.75 438 541.92 434.22 540.56 433.29 539.99 432.29 539.06 431.09 537.32 430.51 536.15 429.83 534.22 429.26 533.42 428.5 532.83 427.17 532.25 426.32 531.66 425.72 530.73 425.67 529.89 425.81 528.66 425.64 528.12 425.18 527.95 424.23 528.5 423.68 528.88 423.14 529.15 422.57 528.96 421.4 529.18 420.31 529.23 419.85 529.15 419.33 528.93 418.95 528.5 418.86 527.82 419 527.27 419.3 526.76 421.04 524.69 421.26 524.2 421.12 523.84 420.58 523.71 419.14 523.71 418.4 523.57 417.61 522.95 416.85 522.02 414.05 517.88 412.14 516.22 410.37 512.98 414.05 510.7 417.42 509.8 418.48 508.76 420.12 506.07 423.93 502.48 424.96 504.49 425.59 504.9 426.4 504.93 427.41 504.19 428.12 503.45 428.8 502.99 429.64 502.86 431.03 503.16 432.39 503.62 433.48 503.84 434.24 503.78 435.09 503.26 436.67 501.63 437.21 501.22 438.14 500.92 439.14 500.87 440.78 501.22 445.05 503.02 446.6 503.48 447.56 503.51 448.64 503.35 450.44 502.77 451.5 502.31 452.37 501.77 453.71 500.6 453.93 500.46 475.57 500.84"/><polygon class="cls-1" points="421.4 529.18 418.27 535.06 418.18 536.01 418.29 537.24 418.84 537.89 419.19 539.52 419.38 542.05 419.19 550.52 419.33 552.23 419.84 553.76 421.72 557.38 412.74 562.88 411.57 563.1 409.94 563.2 408.96 563.56 408.38 564.13 407.81 564.92 406.23 567.8 405.42 568.84 403.32 570.74 402.67 571.18 400.38 571.83 399.84 572.24 399.59 572.05 399.37 571.62 399.02 570.28 398.99 569.52 399.1 569 399.73 568.16 399.78 567.7 399.46 567.23 398.56 567.01 397.71 567.1 396.92 567.1 396.52 566.69 396.57 565.74 397.82 563.26 397.93 562.52 397.82 560.86 398.07 559.94 398.99 558.22 399.32 557.43 399.32 556.89 398.53 554.79 398.01 554.14 396.95 553.92 388.49 553.13 387.97 546.63 387.37 544.67 387.37 543.58 388.65 542.87 389.17 542.27 389.6 541.56 389.79 540.97 389.6 535.58 389.79 534.08 390.77 533.1 394.86 530.46 396.3 529.91 397.58 527.87 400.63 518.86 402.01 516.79 402.8 516.47 405.12 514.42 405.99 514.18 408.63 513.83 410.37 512.98 412.14 516.22 414.05 517.88 416.85 522.02 417.61 522.95 418.4 523.57 419.14 523.71 420.58 523.71 421.12 523.84 421.26 524.2 421.04 524.69 419.3 526.76 419 527.27 418.86 527.82 418.95 528.5 419.33 528.93 419.84 529.15 420.31 529.23 421.4 529.18"/><polygon class="cls-2" points="421.4 529.18 418.27 535.06 418.18 536.01 418.29 537.24 418.84 537.89 419.19 539.52 419.38 542.05 419.19 550.52 419.33 552.23 419.84 553.76 421.72 557.38 412.74 562.88 411.57 563.1 409.94 563.2 408.96 563.56 408.38 564.13 407.81 564.92 406.23 567.8 405.42 568.84 403.32 570.74 402.67 571.18 400.38 571.83 399.84 572.24 399.59 572.05 399.37 571.62 399.02 570.28 398.99 569.52 399.1 569 399.73 568.16 399.78 567.7 399.46 567.23 398.56 567.01 397.71 567.1 396.92 567.1 396.52 566.69 396.57 565.74 397.82 563.26 397.93 562.52 397.82 560.86 398.07 559.94 398.99 558.22 399.32 557.43 399.32 556.89 398.53 554.79 398.01 554.14 396.95 553.92 388.49 553.13 387.97 546.63 387.37 544.67 387.37 543.58 388.65 542.87 389.17 542.27 389.6 541.56 389.79 540.97 389.6 535.58 389.79 534.08 390.77 533.1 394.86 530.46 396.3 529.91 397.58 527.87 400.63 518.86 402.01 516.79 402.8 516.47 405.12 514.42 405.99 514.18 408.63 513.83 410.37 512.98 412.14 516.22 414.05 517.88 416.85 522.02 417.61 522.95 418.4 523.57 419.14 523.71 420.58 523.71 421.12 523.84 421.26 524.2 421.04 524.69 419.3 526.76 419 527.27 418.86 527.82 418.95 528.5 419.33 528.93 419.84 529.15 420.31 529.23 421.4 529.18"/><polygon class="cls-1" points="389.6 535.58 389.79 540.97 389.6 541.56 389.17 542.27 388.65 542.87 387.37 543.58 387.37 544.67 387.97 546.63 388.49 553.13 370.66 552.64 367.33 551.61 355.52 546.49 354.32 546 359.5 538.73 360.5 535.96 360.77 532.5 389.6 535.58"/><polygon class="cls-2" points="389.6 535.58 389.79 540.97 389.6 541.56 389.17 542.27 388.65 542.87 387.37 543.58 387.37 544.67 387.97 546.63 388.49 553.13 370.66 552.64 367.33 551.61 355.52 546.49 354.32 546 359.5 538.73 360.5 535.96 360.77 532.5 389.6 535.58"/><polygon class="cls-1" points="476.22 563.67 475.65 565.9 475.68 567.26 476.17 569.93 476.06 571.32 475.27 573.19 474.01 574.64 467.92 578.88 467.05 579.32 466.28 579.4 464.68 579.1 463.83 579.15 455.83 581.58 453.79 581.8 453.38 582.29 453.14 583.65 452.59 584.46 451.53 584.41 450.41 583.87 449.71 583.18 449.11 581.74 447.72 580.79 445.98 580.3 444.34 580.22 442.44 580.71 440.86 581.8 435.01 587.13 434.54 587.7 433.62 586.72 433.32 586.29 433.18 585.52 433.35 584.57 433.94 583.05 434.49 582.2 434.98 581.58 435.44 581.2 436.18 580.43 436.5 577.93 435.47 569.96 436.58 567.15 436.99 566.74 437.43 565.76 437.51 564.51 436.34 550.03 436.39 546.84 438 541.92 440.34 541.75 441.05 541.45 442.17 540.88 443.23 540.69 446.77 540.56 447.8 540.39 448.45 540.17 450.93 537.26 451.56 536.72 453.6 535.22 454.22 535.96 454.33 536.28 453.9 537.59 453.52 538.22 453.25 538.35 452.81 539.17 452.26 539.96 451.34 541.62 451.09 542.54 451.23 542.71 452.07 542.79 452.59 543.2 453.14 551.23 453.44 552.89 453.9 554.28 454.17 554.68 454.85 555.17 455.1 555.17 455.86 556.15 456.56 556.1 456.95 556.59 459.4 563.34 459.81 563.88 463.13 560.92 465.22 560.18 465.58 560.29 466.56 561 467.83 562.25 469.31 563.45 469.88 563.75 470.75 564.43 471.62 564.62 472.22 564.16 472.84 563.94 473.52 563.48 474.26 563.26 474.8 563.18 475.48 563.53 476.22 563.67"/><polygon class="cls-2" points="476.22 563.67 475.65 565.9 475.68 567.26 476.17 569.93 476.06 571.32 475.27 573.19 474.01 574.64 467.92 578.88 467.05 579.32 466.28 579.4 464.68 579.1 463.83 579.15 455.83 581.58 453.79 581.8 453.38 582.29 453.14 583.65 452.59 584.46 451.53 584.41 450.41 583.87 449.71 583.18 449.11 581.74 447.72 580.79 445.98 580.3 444.34 580.22 442.44 580.71 440.86 581.8 435.01 587.13 434.54 587.7 433.62 586.72 433.32 586.29 433.18 585.52 433.35 584.57 433.94 583.05 434.49 582.2 434.98 581.58 435.44 581.2 436.18 580.43 436.5 577.93 435.47 569.96 436.58 567.15 436.99 566.74 437.43 565.76 437.51 564.51 436.34 550.03 436.39 546.84 438 541.92 440.34 541.75 441.05 541.45 442.17 540.88 443.23 540.69 446.77 540.56 447.8 540.39 448.45 540.17 450.93 537.26 451.56 536.72 453.6 535.22 454.22 535.96 454.33 536.28 453.9 537.59 453.52 538.22 453.25 538.35 452.81 539.17 452.26 539.96 451.34 541.62 451.09 542.54 451.23 542.71 452.07 542.79 452.59 543.2 453.14 551.23 453.44 552.89 453.9 554.28 454.17 554.68 454.85 555.17 455.1 555.17 455.86 556.15 456.56 556.1 456.95 556.59 459.4 563.34 459.81 563.88 463.13 560.92 465.22 560.18 465.58 560.29 466.56 561 467.83 562.25 469.31 563.45 469.88 563.75 470.75 564.43 471.62 564.62 472.22 564.16 472.84 563.94 473.52 563.48 474.26 563.26 474.8 563.18 475.48 563.53 476.22 563.67"/><polygon class="cls-1" points="476.22 563.67 475.48 563.53 474.8 563.18 474.26 563.26 473.52 563.48 472.84 563.94 472.22 564.16 471.62 564.62 470.75 564.43 469.88 563.75 469.31 563.45 467.83 562.25 466.56 561 465.58 560.29 465.22 560.18 463.13 560.92 459.81 563.88 459.4 563.34 456.95 556.59 456.56 556.1 455.86 556.15 455.1 555.17 454.85 555.17 454.17 554.68 453.9 554.28 453.44 552.89 453.14 551.23 452.59 543.2 452.07 542.79 451.23 542.71 451.09 542.54 451.34 541.62 452.26 539.96 452.81 539.17 453.25 538.35 453.52 538.22 453.9 537.59 454.33 536.28 454.22 535.96 453.6 535.22 454.69 532.53 455.37 531.87 456.27 531.25 457.27 530.78 461.68 527.84 463.64 526.02 464.87 524.69 466.91 523.76 470.07 522.75 479.65 522.4 477.91 547.88 477.09 560.43 476.22 563.67"/><polygon class="cls-2" points="476.22 563.67 475.48 563.53 474.8 563.18 474.26 563.26 473.52 563.48 472.84 563.94 472.22 564.16 471.62 564.62 470.75 564.43 469.88 563.75 469.31 563.45 467.83 562.25 466.56 561 465.58 560.29 465.22 560.18 463.13 560.92 459.81 563.88 459.4 563.34 456.95 556.59 456.56 556.1 455.86 556.15 455.1 555.17 454.85 555.17 454.17 554.68 453.9 554.28 453.44 552.89 453.14 551.23 452.59 543.2 452.07 542.79 451.23 542.71 451.09 542.54 451.34 541.62 452.26 539.96 452.81 539.17 453.25 538.35 453.52 538.22 453.9 537.59 454.33 536.28 454.22 535.96 453.6 535.22 454.69 532.53 455.37 531.87 456.27 531.25 457.27 530.78 461.68 527.84 463.64 526.02 464.87 524.69 466.91 523.76 470.07 522.75 479.65 522.4 477.91 547.88 477.09 560.43 476.22 563.67"/><polygon class="cls-1" points="387.64 231.38 386.74 231.79 385.79 231.52 385 230.94 384.51 230.43 385.22 229.42 385.85 227.08 386.74 226.34 389.08 227.52 387.75 228.25 387.7 229.2 388.02 230.29 387.64 231.38"/><polygon class="cls-2" points="387.64 231.38 386.74 231.79 385.79 231.52 385 230.94 384.51 230.43 385.22 229.42 385.85 227.08 386.74 226.34 389.08 227.52 387.75 228.25 387.7 229.2 388.02 230.29 387.64 231.38"/><polygon class="cls-1" points="396.3 509.74 414.05 510.7 410.37 512.98 408.63 513.83 405.99 514.18 405.12 514.42 402.8 516.47 402.01 516.79 400.63 518.86 397.58 527.87 396.3 529.91 394.86 530.46 390.77 533.1 389.79 534.08 389.6 535.58 360.77 532.5 360.01 527.25 360.01 524.31 361.05 522.86 362.57 522.07 364.2 519.41 365.89 518.37 366.46 517.28 366.87 515.08 367.25 513.99 368.21 512.71 369.24 512 370.33 511.43 371.47 510.56 373 508.3 373.32 506.04 372.51 499.86 373.65 499.97 377.6 500.76 382.58 502.31 382.96 502.34 384.35 502.12 384.97 502.15 385.65 502.31 386.85 502.75 390.17 503.37 391.4 503.75 392.4 504.22 393.11 504.82 393.79 505.55 394.2 506.75 394.37 507.73 394.42 509.09 394.23 509.99 394.42 510.72 395.37 510.83 396.3 509.74"/><polygon class="cls-2" points="396.3 509.74 414.05 510.7 410.37 512.98 408.63 513.83 405.99 514.18 405.12 514.42 402.8 516.47 402.01 516.79 400.63 518.86 397.58 527.87 396.3 529.91 394.86 530.46 390.77 533.1 389.79 534.08 389.6 535.58 360.77 532.5 360.01 527.25 360.01 524.31 361.05 522.86 362.57 522.07 364.2 519.41 365.89 518.37 366.46 517.28 366.87 515.08 367.25 513.99 368.21 512.71 369.24 512 370.33 511.43 371.47 510.56 373 508.3 373.32 506.04 372.51 499.86 373.65 499.97 377.6 500.76 382.58 502.31 382.96 502.34 384.35 502.12 384.97 502.15 385.65 502.31 386.85 502.75 390.17 503.37 391.4 503.75 392.4 504.22 393.11 504.82 393.79 505.55 394.2 506.75 394.37 507.73 394.42 509.09 394.23 509.99 394.42 510.72 395.37 510.83 396.3 509.74"/><polygon class="cls-1" points="311.8 284.65 310.69 291.46 310.61 294.13 310.82 295 311.2 295.92 311.61 296.38 312.21 296.63 312.92 296.66 317.66 296.09 319.07 296.22 319.86 296.44 320.9 297.09 321.63 298.05 322.5 299.49 325.31 302.78 325.71 303.87 325.8 304.33 325.66 304.61 324.82 305.01 321.52 307.74 320.9 308.66 320.3 310.24 320.08 310.57 318.99 311.6 312.92 314.62 312.27 315.19 311.45 316.01 311.29 316.67 310.85 317.59 310.33 318.08 309.55 318.54 308.29 319.06 307.18 319.93 306.66 320.58 305.6 322.52 303.91 324.48 302.98 325.27 302.17 325.73 301.57 325.97 301.27 326.41 301.05 327.04 300.75 327.39 300.37 327.58 298.96 327.88 297.54 328.34 296.31 329.08 294.95 329.68 293.7 329.79 292.39 331.12 291.63 333 291.33 333.62 290.98 334.06 290.25 334.6 289.05 335.23 288.67 335.58 287.74 337.3 287.06 337.82 286.46 338.74 285.92 339.07 285.4 339.26 284.39 339.15 283.44 338.74 282.16 337.65 281.67 337.46 280.91 337.49 280.53 337.76 280.28 338.14 280.28 338.61 280.61 339.39 281.07 340.13 281.4 340.92 281.34 341.9 280.69 343.83 280.42 344.4 279.38 346.09 278.76 348.02 277.21 351.02 276.53 351.94 275.27 352.38 274.73 352.73 273.99 354.56 273.88 355.18 274.27 356 274.43 356.6 274.46 357.39 274.29 358.8 274.02 359.54 273.72 360.03 271.25 362.1 269.75 363.78 266.37 359.95 264.06 358.58 263.21 357.77 262.04 356.35 259.05 353.55 258.04 352.27 257.31 350.86 256.41 348.43 255.02 345.52 254.64 344.43 254.53 343.37 254.91 341.6 254.88 340.7 254.48 339.45 253.99 338.9 253.52 338.63 235.04 339.77 233.9 339.91 235.07 335.04 236.59 331.66 238.69 329.02 241.22 328.26 241.66 327.06 241.41 326.08 240.05 324.1 239.4 322.63 239.07 321.18 238.96 319.69 240.27 310.16 242.55 304.9 242.96 302.51 242.23 300.44 240.19 298.51 237.93 297.09 237.38 296.17 236.87 289.85 237.16 288.36 238.31 286.01 241.33 281.47 243.89 276.32 244.79 275.18 245.96 274.12 246.64 273.82 247.24 273.95 247.67 274.42 248.03 275.1 248.62 275.67 249.36 275.32 250.12 274.66 250.78 274.28 252.11 273.93 252.73 273.85 253.55 274.06 254.12 274.66 255.13 276.57 255.48 277 256.33 276.98 256.74 276.54 257.01 275.94 257.52 275.45 258.83 274.55 259.68 274.25 260.85 273.44 262.24 270.5 263.19 269.41 263.87 269.11 266.1 268.73 267.13 268.81 267.95 269.22 268.66 269.68 269.34 269.9 271.19 269.46 273.1 268.24 274.81 266.5 276.12 264.54 277.07 263.64 279.63 262.63 280.36 261.6 280.44 259.5 280.83 258.85 282.08 258.63 282.7 257.19 284.88 255.85 286.13 256.15 289.89 256.94 290.44 257.4 290.9 258 290.71 259.04 290.25 259.8 289.43 260.75 288.97 261.51 288.77 261.95 288.58 262.99 288.64 267.64 288.77 268.54 288.97 269.16 290.03 270.47 290.63 271.56 290.82 272.27 290.87 272.89 290.68 273.27 290.08 273.85 289.75 274.55 289.51 275.59 289.43 278.07 289.73 278.99 290.14 279.4 291.14 279.29 292.2 279.4 293.02 279.83 293.59 280.43 295.06 282.64 295.96 283.67 296.4 284.05 297.24 284.54 298.19 284.82 299.31 284.98 300.45 285.06 301.43 284.95 302.66 284.46 303.96 283.48 304.35 283.35 305.32 283.29 305.76 283.21 306.36 283.4 307.07 283.78 308.92 285.39 309.41 285.74 309.82 285.74 311.1 284.87 311.8 284.65"/><polygon class="cls-2" points="311.8 284.65 310.69 291.46 310.61 294.13 310.82 295 311.2 295.92 311.61 296.38 312.21 296.63 312.92 296.66 317.66 296.09 319.07 296.22 319.86 296.44 320.9 297.09 321.63 298.05 322.5 299.49 325.31 302.78 325.71 303.87 325.8 304.33 325.66 304.61 324.82 305.01 321.52 307.74 320.9 308.66 320.3 310.24 320.08 310.57 318.99 311.6 312.92 314.62 312.27 315.19 311.45 316.01 311.29 316.67 310.85 317.59 310.33 318.08 309.55 318.54 308.29 319.06 307.18 319.93 306.66 320.58 305.6 322.52 303.91 324.48 302.98 325.27 302.17 325.73 301.57 325.97 301.27 326.41 301.05 327.04 300.75 327.39 300.37 327.58 298.96 327.88 297.54 328.34 296.31 329.08 294.95 329.68 293.7 329.79 292.39 331.12 291.63 333 291.33 333.62 290.98 334.06 290.25 334.6 289.05 335.23 288.67 335.58 287.74 337.3 287.06 337.82 286.46 338.74 285.92 339.07 285.4 339.26 284.39 339.15 283.44 338.74 282.16 337.65 281.67 337.46 280.91 337.49 280.53 337.76 280.28 338.14 280.28 338.61 280.61 339.39 281.07 340.13 281.4 340.92 281.34 341.9 280.69 343.83 280.42 344.4 279.38 346.09 278.76 348.02 277.21 351.02 276.53 351.94 275.27 352.38 274.73 352.73 273.99 354.56 273.88 355.18 274.27 356 274.43 356.6 274.46 357.39 274.29 358.8 274.02 359.54 273.72 360.03 271.25 362.1 269.75 363.78 266.37 359.95 264.06 358.58 263.21 357.77 262.04 356.35 259.05 353.55 258.04 352.27 257.31 350.86 256.41 348.43 255.02 345.52 254.64 344.43 254.53 343.37 254.91 341.6 254.88 340.7 254.48 339.45 253.99 338.9 253.52 338.63 235.04 339.77 233.9 339.91 235.07 335.04 236.59 331.66 238.69 329.02 241.22 328.26 241.66 327.06 241.41 326.08 240.05 324.1 239.4 322.63 239.07 321.18 238.96 319.69 240.27 310.16 242.55 304.9 242.96 302.51 242.23 300.44 240.19 298.51 237.93 297.09 237.38 296.17 236.87 289.85 237.16 288.36 238.31 286.01 241.33 281.47 243.89 276.32 244.79 275.18 245.96 274.12 246.64 273.82 247.24 273.95 247.67 274.42 248.03 275.1 248.62 275.67 249.36 275.32 250.12 274.66 250.78 274.28 252.11 273.93 252.73 273.85 253.55 274.06 254.12 274.66 255.13 276.57 255.48 277 256.33 276.98 256.74 276.54 257.01 275.94 257.52 275.45 258.83 274.55 259.68 274.25 260.85 273.44 262.24 270.5 263.19 269.41 263.87 269.11 266.1 268.73 267.13 268.81 267.95 269.22 268.66 269.68 269.34 269.9 271.19 269.46 273.1 268.24 274.81 266.5 276.12 264.54 277.07 263.64 279.63 262.63 280.36 261.6 280.44 259.5 280.83 258.85 282.08 258.63 282.7 257.19 284.88 255.85 286.13 256.15 289.89 256.94 290.44 257.4 290.9 258 290.71 259.04 290.25 259.8 289.43 260.75 288.97 261.51 288.77 261.95 288.58 262.99 288.64 267.64 288.77 268.54 288.97 269.16 290.03 270.47 290.63 271.56 290.82 272.27 290.87 272.89 290.68 273.27 290.08 273.85 289.75 274.55 289.51 275.59 289.43 278.07 289.73 278.99 290.14 279.4 291.14 279.29 292.2 279.4 293.02 279.83 293.59 280.43 295.06 282.64 295.96 283.67 296.4 284.05 297.24 284.54 298.19 284.82 299.31 284.98 300.45 285.06 301.43 284.95 302.66 284.46 303.96 283.48 304.35 283.35 305.32 283.29 305.76 283.21 306.36 283.4 307.07 283.78 308.92 285.39 309.41 285.74 309.82 285.74 311.1 284.87 311.8 284.65"/><polygon class="cls-1" points="328.19 241.32 328.95 246.95 330.45 251.06 330.59 251.91 330.61 252.86 330.89 253.65 332.41 254.25 332.85 254.9 332.98 255.72 332.79 256.37 334.72 256.83 336.38 256.56 338.02 256.56 339.98 257.81 342.56 265.46 342.86 267.39 342.81 268.18 342.26 269 341.48 269.9 341.12 270.69 340.88 272.81 340.9 274.94 341.26 277.11 342.56 281.06 344.33 284.24 345.61 285.74 348.77 287.13 348.85 288.98 347.74 293.15 348.25 294.94 350.78 297.23 351.71 298.75 351.76 299.87 351.25 301.86 351.44 302.89 352.09 303.49 352.72 302.97 353.15 301.99 353.4 301.12 353.64 302.35 353.02 304.9 352.88 306.38 353.86 310.7 354.02 324.69 354.81 330.66 354.38 333.05 352.58 335.61 351.52 338.06 351.82 340.92 352.88 343.72 353.29 344.43 353.1 344.43 345.86 348.6 342.4 350.09 340.36 350.5 339.38 350.61 336.82 351.81 336.11 340.4 334.4 333.76 334.48 332.48 334.81 331.34 335.16 330.57 335.24 329.87 334.53 325.35 334.29 324.48 333.83 323.8 332.87 323.66 331.38 323.52 330.91 323.12 330.59 322.3 330.56 321.46 330.91 319.99 331.02 319.28 330.86 318.84 330.45 318.81 326.91 319.88 326.58 320.12 326.39 320.45 325.82 322.65 325.52 323.33 325.14 323.82 324.54 324.31 323.89 324.45 323.29 324.23 322.48 323.69 321.93 323.17 321.47 322.6 321.58 321.13 321.5 320.31 320.57 318.68 319.67 317.51 319.07 315.82 318.99 311.6 320.08 310.57 320.3 310.24 320.9 308.66 321.52 307.74 324.82 305.01 325.66 304.61 325.8 304.33 325.71 303.87 325.31 302.78 322.5 299.49 321.63 298.05 320.9 297.09 319.86 296.44 319.07 296.22 317.66 296.09 312.92 296.66 312.21 296.63 311.61 296.38 311.2 295.92 310.82 295 310.61 294.13 310.69 291.46 311.8 284.65 313.71 282.09 315.97 278.23 316.92 277.22 317.49 276.81 318.17 276.54 320.65 276.16 323.43 275.15 324.33 274.58 325.63 273.49 326.34 273.08 327.07 272.81 328.87 272.38 330.42 272.19 330.89 271.97 331.29 271.48 331.59 270.82 332.19 268.89 332.9 268.07 334.18 266.85 334.45 266.44 334.13 265.76 333.28 265.33 332.49 265.33 330.56 265.82 329.52 265.93 328.49 265.82 327.43 265.57 326.45 265.22 323.4 263.67 322.31 263.48 320.13 263.56 319.32 263.15 318.58 262.31 317.93 261.41 317.36 260.4 316.95 259.15 316.76 257.24 316.51 255.94 314.93 254.16 314.09 252.89 312.84 250.27 311.72 249.16 310.52 248.45 307.86 248.2 306.9 247.82 306.25 247.14 305.87 246.11 305.54 243.69 305.57 242.95 307.04 240.61 312.46 236.04 314.01 235.68 314.74 235.74 315.56 235.98 317.36 237.59 318.47 238.35 321.9 239.85 328.03 241.32 328.19 241.32"/><polygon class="cls-2" points="328.19 241.32 328.95 246.95 330.45 251.06 330.59 251.91 330.61 252.86 330.89 253.65 332.41 254.25 332.85 254.9 332.98 255.72 332.79 256.37 334.72 256.83 336.38 256.56 338.02 256.56 339.98 257.81 342.56 265.46 342.86 267.39 342.81 268.18 342.26 269 341.48 269.9 341.12 270.69 340.88 272.81 340.9 274.94 341.26 277.11 342.56 281.06 344.33 284.24 345.61 285.74 348.77 287.13 348.85 288.98 347.74 293.15 348.25 294.94 350.78 297.23 351.71 298.75 351.76 299.87 351.25 301.86 351.44 302.89 352.09 303.49 352.72 302.97 353.15 301.99 353.4 301.12 353.64 302.35 353.02 304.9 352.88 306.38 353.86 310.7 354.02 324.69 354.81 330.66 354.38 333.05 352.58 335.61 351.52 338.06 351.82 340.92 352.88 343.72 353.29 344.43 353.1 344.43 345.86 348.6 342.4 350.09 340.36 350.5 339.38 350.61 336.82 351.81 336.11 340.4 334.4 333.76 334.48 332.48 334.81 331.34 335.16 330.57 335.24 329.87 334.53 325.35 334.29 324.48 333.83 323.8 332.87 323.66 331.38 323.52 330.91 323.12 330.59 322.3 330.56 321.46 330.91 319.99 331.02 319.28 330.86 318.84 330.45 318.81 326.91 319.88 326.58 320.12 326.39 320.45 325.82 322.65 325.52 323.33 325.14 323.82 324.54 324.31 323.89 324.45 323.29 324.23 322.48 323.69 321.93 323.17 321.47 322.6 321.58 321.13 321.5 320.31 320.57 318.68 319.67 317.51 319.07 315.82 318.99 311.6 320.08 310.57 320.3 310.24 320.9 308.66 321.52 307.74 324.82 305.01 325.66 304.61 325.8 304.33 325.71 303.87 325.31 302.78 322.5 299.49 321.63 298.05 320.9 297.09 319.86 296.44 319.07 296.22 317.66 296.09 312.92 296.66 312.21 296.63 311.61 296.38 311.2 295.92 310.82 295 310.61 294.13 310.69 291.46 311.8 284.65 313.71 282.09 315.97 278.23 316.92 277.22 317.49 276.81 318.17 276.54 320.65 276.16 323.43 275.15 324.33 274.58 325.63 273.49 326.34 273.08 327.07 272.81 328.87 272.38 330.42 272.19 330.89 271.97 331.29 271.48 331.59 270.82 332.19 268.89 332.9 268.07 334.18 266.85 334.45 266.44 334.13 265.76 333.28 265.33 332.49 265.33 330.56 265.82 329.52 265.93 328.49 265.82 327.43 265.57 326.45 265.22 323.4 263.67 322.31 263.48 320.13 263.56 319.32 263.15 318.58 262.31 317.93 261.41 317.36 260.4 316.95 259.15 316.76 257.24 316.51 255.94 314.93 254.16 314.09 252.89 312.84 250.27 311.72 249.16 310.52 248.45 307.86 248.2 306.9 247.82 306.25 247.14 305.87 246.11 305.54 243.69 305.57 242.95 307.04 240.61 312.46 236.04 314.01 235.68 314.74 235.74 315.56 235.98 317.36 237.59 318.47 238.35 321.9 239.85 328.03 241.32 328.19 241.32"/><polygon class="cls-1" points="371.66 402.19 371.83 402.71 374.82 406.22 375.31 407.15 375.5 408.29 376.02 409.68 376.7 410.99 377.32 411.88 378.8 412.97 380.02 413.33 381.3 413.44 382.8 413.98 384.19 415.26 384.16 416.38 383.69 417.49 383.88 418.77 385.08 419.64 386.42 419.31 387.81 418.55 388.35 418.36 388.35 422.09 381.57 426.26 375.26 431.02 370.49 433.01 369.19 433.31 368.31 433.23 367.33 432.35 365.95 431.7 364.86 430.94 364.29 430.69 363.55 430.48 362.3 430.34 360.31 429.96 359.44 430.09 357.54 431.65 356.83 430.64 354.49 429.39 353.75 429.5 353.1 429.93 352.5 430.42 351.87 430.83 351.19 430.97 349.86 430.83 349.21 430.91 340.93 433.88 334.83 434.07 332.14 435.21 331.51 436.08 330.56 438.29 329.88 438.72 321.06 437.53 318.61 437.53 316.32 438.1 311.45 441.09 309.08 441.96 306.71 441.72 302.19 438.23 300.43 438.81 299.15 440.76 298.44 443.27 298.44 446.26 298.17 447.81 297.35 448.41 295.85 447.95 294.87 447.05 294.17 445.88 293.65 444.49 295.12 443.7 295.85 442.56 296.7 442.02 297.43 441.34 299.31 438.4 299.58 437.5 299.83 433.71 300.07 432.38 300.51 431.13 301.11 430.09 301.87 429.28 302.93 428.6 308.73 425.77 309.71 425.03 310.69 424.02 312.49 422.72 313.49 422.42 314.99 422.55 315.81 422.34 317.82 421.49 318.61 421.38 319.4 421.36 320.08 421.03 320.76 420.3 321.17 418.85 321.58 414.85 321.96 413.65 322.61 412.78 323.81 412.13 326.99 411.69 327.89 411.26 328.87 410.39 329.93 409.3 330.89 407.91 332.17 406.93 333.47 405.65 334.32 403.2 334.83 402.14 335.54 401.05 336.79 399.66 337.83 398.16 339.05 396.91 339.81 395.85 342.1 391.52 342.43 390.49 342.81 389.62 343.24 389.05 344.25 388.5 346.4 386.98 347.93 385.51 349.4 382.98 353.1 388.23 358.27 393.29 359.44 394.71 362.24 399.77 364.88 403.74 366.25 405.13 367.25 405.76 368.04 405.24 369.81 403.34 370.33 402.9 371.15 402.38 371.66 402.19"/><polygon class="cls-2" points="371.66 402.19 371.83 402.71 374.82 406.22 375.31 407.15 375.5 408.29 376.02 409.68 376.7 410.99 377.32 411.88 378.8 412.97 380.02 413.33 381.3 413.44 382.8 413.98 384.19 415.26 384.16 416.38 383.69 417.49 383.88 418.77 385.08 419.64 386.42 419.31 387.81 418.55 388.35 418.36 388.35 422.09 381.57 426.26 375.26 431.02 370.49 433.01 369.19 433.31 368.31 433.23 367.33 432.35 365.95 431.7 364.86 430.94 364.29 430.69 363.55 430.48 362.3 430.34 360.31 429.96 359.44 430.09 357.54 431.65 356.83 430.64 354.49 429.39 353.75 429.5 353.1 429.93 352.5 430.42 351.87 430.83 351.19 430.97 349.86 430.83 349.21 430.91 340.93 433.88 334.83 434.07 332.14 435.21 331.51 436.08 330.56 438.29 329.88 438.72 321.06 437.53 318.61 437.53 316.32 438.1 311.45 441.09 309.08 441.96 306.71 441.72 302.19 438.23 300.43 438.81 299.15 440.76 298.44 443.27 298.44 446.26 298.17 447.81 297.35 448.41 295.85 447.95 294.87 447.05 294.17 445.88 293.65 444.49 295.12 443.7 295.85 442.56 296.7 442.02 297.43 441.34 299.31 438.4 299.58 437.5 299.83 433.71 300.07 432.38 300.51 431.13 301.11 430.09 301.87 429.28 302.93 428.6 308.73 425.77 309.71 425.03 310.69 424.02 312.49 422.72 313.49 422.42 314.99 422.55 315.81 422.34 317.82 421.49 318.61 421.38 319.4 421.36 320.08 421.03 320.76 420.3 321.17 418.85 321.58 414.85 321.96 413.65 322.61 412.78 323.81 412.13 326.99 411.69 327.89 411.26 328.87 410.39 329.93 409.3 330.89 407.91 332.17 406.93 333.47 405.65 334.32 403.2 334.83 402.14 335.54 401.05 336.79 399.66 337.83 398.16 339.05 396.91 339.81 395.85 342.1 391.52 342.43 390.49 342.81 389.62 343.24 389.05 344.25 388.5 346.4 386.98 347.93 385.51 349.4 382.98 353.1 388.23 358.27 393.29 359.44 394.71 362.24 399.77 364.88 403.74 366.25 405.13 367.25 405.76 368.04 405.24 369.81 403.34 370.33 402.9 371.15 402.38 371.66 402.19"/><polygon class="cls-1" points="335.4 353.11 336.71 359.48 336.68 360.49 336.47 361.85 335.73 363.1 335.81 363.4 336.85 364.06 337.39 364.46 341.18 368.22 341.86 368.79 342.56 369.2 343.22 369.39 343.93 369.39 344.74 369.23 347.71 367.62 348.28 367.4 348.77 367.46 349.34 367.87 349.59 368.74 349.59 369.66 349.48 371.02 349.75 371.76 350.21 372.22 351 372.63 351.44 373.39 351.36 373.94 350.95 374.73 350.13 375.27 348.91 375.68 348.09 375.87 347.22 376.25 346.62 376.9 344.31 378.21 343.46 378.21 340.41 377.86 339.35 378.02 338.37 378.46 337.37 379.06 335.87 379.74 334.13 380.14 329.77 380.61 328.55 379.95 327.81 379.27 327.1 378.24 326.42 377.69 325.39 377.01 324.84 376.8 323.16 376.33 320.71 375.32 318.66 374.86 317.36 374.75 316.24 374.81 312.21 375.41 309.25 375.46 307.72 374.97 306.74 374.13 306.36 373.04 306.06 371 305.52 369.12 305.35 368.27 305.27 367.43 305.08 366.7 304.64 366.48 303.88 366.56 290.63 370.29 285.7 370.24 281.78 368.22 280.96 366.97 280.64 365.72 280.5 364.52 279.08 358.15 279.08 356.84 279.63 353.77 279.63 353.11 279.25 352.49 278.81 352.11 277.21 351.02 278.76 348.02 279.38 346.09 280.42 344.4 280.69 343.83 281.34 341.9 281.4 340.92 281.07 340.13 280.61 339.39 280.28 338.6 280.28 338.14 280.53 337.76 280.91 337.49 281.67 337.46 282.16 337.65 283.44 338.74 284.39 339.15 285.4 339.26 285.92 339.07 286.46 338.74 287.06 337.81 287.74 337.3 288.67 335.58 289.05 335.23 290.25 334.6 290.98 334.06 291.33 333.62 291.63 333 292.4 331.12 293.7 329.78 294.36 332.83 295.42 333.68 296.37 334.22 297.57 335.15 299.77 337.38 300.97 339.09 301.92 340.86 303.77 345.63 304.02 346.77 304.24 350.66 304.51 352.13 304.97 352.81 305.41 353.14 306.01 353.19 310.36 353.28 314.91 351.7 315.86 351.51 317.17 351.53 318.47 351.81 320.6 352.6 321.8 352.87 324.16 352.65 325.44 352.7 330.23 354.47 331.05 354.64 331.76 354.64 332.33 354.5 334.67 353.52 335.4 353.11"/><polygon class="cls-2" points="335.4 353.11 336.71 359.48 336.68 360.49 336.47 361.85 335.73 363.1 335.81 363.4 336.85 364.06 337.39 364.46 341.18 368.22 341.86 368.79 342.56 369.2 343.22 369.39 343.93 369.39 344.74 369.23 347.71 367.62 348.28 367.4 348.77 367.46 349.34 367.87 349.59 368.74 349.59 369.66 349.48 371.02 349.75 371.76 350.21 372.22 351 372.63 351.44 373.39 351.36 373.94 350.95 374.73 350.13 375.27 348.91 375.68 348.09 375.87 347.22 376.25 346.62 376.9 344.31 378.21 343.46 378.21 340.41 377.86 339.35 378.02 338.37 378.46 337.37 379.06 335.87 379.74 334.13 380.14 329.77 380.61 328.55 379.95 327.81 379.27 327.1 378.24 326.42 377.69 325.39 377.01 324.84 376.8 323.16 376.33 320.71 375.32 318.66 374.86 317.36 374.75 316.24 374.81 312.21 375.41 309.25 375.46 307.72 374.97 306.74 374.13 306.36 373.04 306.06 371 305.52 369.12 305.35 368.27 305.27 367.43 305.08 366.7 304.64 366.48 303.88 366.56 290.63 370.29 285.7 370.24 281.78 368.22 280.96 366.97 280.64 365.72 280.5 364.52 279.08 358.15 279.08 356.84 279.63 353.77 279.63 353.11 279.25 352.49 278.81 352.11 277.21 351.02 278.76 348.02 279.38 346.09 280.42 344.4 280.69 343.83 281.34 341.9 281.4 340.92 281.07 340.13 280.61 339.39 280.28 338.6 280.28 338.14 280.53 337.76 280.91 337.49 281.67 337.46 282.16 337.65 283.44 338.74 284.39 339.15 285.4 339.26 285.92 339.07 286.46 338.74 287.06 337.81 287.74 337.3 288.67 335.58 289.05 335.23 290.25 334.6 290.98 334.06 291.33 333.62 291.63 333 292.4 331.12 293.7 329.78 294.36 332.83 295.42 333.68 296.37 334.22 297.57 335.15 299.77 337.38 300.97 339.09 301.92 340.86 303.77 345.63 304.02 346.77 304.24 350.66 304.51 352.13 304.97 352.81 305.41 353.14 306.01 353.19 310.36 353.28 314.91 351.7 315.86 351.51 317.17 351.53 318.47 351.81 320.6 352.6 321.8 352.87 324.16 352.65 325.44 352.7 330.23 354.47 331.05 354.64 331.76 354.64 332.33 354.5 334.67 353.52 335.4 353.11"/><polygon class="cls-1" points="346.62 376.9 346.46 379.27 345.53 380.23 343.22 381.2 342.07 381.99 341.53 382.59 341.18 383.25 341.12 383.79 341.26 384.39 341.69 384.77 342.4 384.85 343.27 384.53 346.18 383.03 347.49 382.7 348.55 382.65 349.4 382.98 347.93 385.51 346.4 386.98 344.25 388.5 343.25 389.05 342.81 389.62 342.43 390.49 342.1 391.52 339.81 395.85 339.05 396.91 337.83 398.16 336.79 399.66 335.54 401.05 334.83 402.14 334.32 403.2 333.47 405.65 332.17 406.93 330.89 407.91 329.93 409.3 328.87 410.39 327.89 411.26 326.99 411.69 323.81 412.13 322.61 412.78 321.96 413.65 321.58 414.85 321.17 418.85 320.76 420.29 320.08 421.03 319.4 421.36 318.61 421.38 317.82 421.49 315.81 422.34 314.99 422.55 313.49 422.42 312.49 422.72 310.69 424.02 309.71 425.03 308.73 425.77 302.93 428.6 301.87 429.28 301.11 430.09 300.51 431.13 300.07 432.38 299.83 433.71 299.58 437.5 299.31 438.4 297.43 441.34 296.7 442.02 295.85 442.56 295.12 443.7 293.65 444.49 292.45 441.2 291.74 440.11 290.79 439.35 288.53 438.31 287.58 437.55 286.87 436.41 286.43 435.35 285.89 434.31 284.77 433.33 281.24 431.73 280.15 430.86 278.62 428.79 274.38 420.13 272.91 418.06 271.74 415.8 271.95 414.22 270.97 409.92 269.69 406.36 269.53 405.16 269.67 404.13 270.32 402.22 270.48 400.8 269.91 398.19 269.88 397.4 269.99 396.83 270.26 396.12 270.43 394.98 270.26 393.94 269.88 393.05 268.22 390.49 266.94 387.25 266.62 386.62 266.05 386 265.45 385.51 264.71 384.74 263.95 383.76 263.13 382.13 263.02 381.37 263.13 380.8 263.68 380.12 264.11 378.89 264.22 376.69 264.33 376.06 264.55 375.65 265.34 374.48 265.58 373.88 265.75 372.9 265.67 372.22 265.47 371.6 265.5 371.11 265.88 370.32 267 369.04 267.22 368.63 267.49 367.62 267.87 366.78 269.2 365.01 269.75 363.78 271.25 362.1 273.72 360.03 274.02 359.54 274.29 358.8 274.46 357.39 274.43 356.6 274.27 356 273.89 355.18 273.99 354.56 274.73 352.73 275.27 352.38 276.53 351.94 277.21 351.02 278.81 352.11 279.25 352.49 279.63 353.11 279.63 353.77 279.08 356.84 279.08 358.15 280.5 364.52 280.64 365.72 280.96 366.97 281.78 368.22 285.7 370.24 290.63 370.29 303.88 366.56 304.64 366.48 305.08 366.7 305.27 367.43 305.35 368.27 305.52 369.12 306.06 371 306.36 373.04 306.74 374.13 307.72 374.97 309.25 375.46 312.21 375.41 316.24 374.81 317.36 374.75 318.66 374.86 320.71 375.32 323.16 376.33 324.84 376.8 325.39 377.01 326.42 377.69 327.1 378.24 327.81 379.27 328.55 379.95 329.77 380.61 334.13 380.14 335.87 379.74 337.37 379.05 338.37 378.46 339.35 378.02 340.41 377.86 343.46 378.21 344.31 378.21 346.62 376.9"/><polygon class="cls-2" points="346.62 376.9 346.46 379.27 345.53 380.23 343.22 381.2 342.07 381.99 341.53 382.59 341.18 383.25 341.12 383.79 341.26 384.39 341.69 384.77 342.4 384.85 343.27 384.53 346.18 383.03 347.49 382.7 348.55 382.65 349.4 382.98 347.93 385.51 346.4 386.98 344.25 388.5 343.25 389.05 342.81 389.62 342.43 390.49 342.1 391.52 339.81 395.85 339.05 396.91 337.83 398.16 336.79 399.66 335.54 401.05 334.83 402.14 334.32 403.2 333.47 405.65 332.17 406.93 330.89 407.91 329.93 409.3 328.87 410.39 327.89 411.26 326.99 411.69 323.81 412.13 322.61 412.78 321.96 413.65 321.58 414.85 321.17 418.85 320.76 420.29 320.08 421.03 319.4 421.36 318.61 421.38 317.82 421.49 315.81 422.34 314.99 422.55 313.49 422.42 312.49 422.72 310.69 424.02 309.71 425.03 308.73 425.77 302.93 428.6 301.87 429.28 301.11 430.09 300.51 431.13 300.07 432.38 299.83 433.71 299.58 437.5 299.31 438.4 297.43 441.34 296.7 442.02 295.85 442.56 295.12 443.7 293.65 444.49 292.45 441.2 291.74 440.11 290.79 439.35 288.53 438.31 287.58 437.55 286.87 436.41 286.43 435.35 285.89 434.31 284.77 433.33 281.24 431.73 280.15 430.86 278.62 428.79 274.38 420.13 272.91 418.06 271.74 415.8 271.95 414.22 270.97 409.92 269.69 406.36 269.53 405.16 269.67 404.13 270.32 402.22 270.48 400.8 269.91 398.19 269.88 397.4 269.99 396.83 270.26 396.12 270.43 394.98 270.26 393.94 269.88 393.05 268.22 390.49 266.94 387.25 266.62 386.62 266.05 386 265.45 385.51 264.71 384.74 263.95 383.76 263.13 382.13 263.02 381.37 263.13 380.8 263.68 380.12 264.11 378.89 264.22 376.69 264.33 376.06 264.55 375.65 265.34 374.48 265.58 373.88 265.75 372.9 265.67 372.22 265.47 371.6 265.5 371.11 265.88 370.32 267 369.04 267.22 368.63 267.49 367.62 267.87 366.78 269.2 365.01 269.75 363.78 271.25 362.1 273.72 360.03 274.02 359.54 274.29 358.8 274.46 357.39 274.43 356.6 274.27 356 273.89 355.18 273.99 354.56 274.73 352.73 275.27 352.38 276.53 351.94 277.21 351.02 278.81 352.11 279.25 352.49 279.63 353.11 279.63 353.77 279.08 356.84 279.08 358.15 280.5 364.52 280.64 365.72 280.96 366.97 281.78 368.22 285.7 370.24 290.63 370.29 303.88 366.56 304.64 366.48 305.08 366.7 305.27 367.43 305.35 368.27 305.52 369.12 306.06 371 306.36 373.04 306.74 374.13 307.72 374.97 309.25 375.46 312.21 375.41 316.24 374.81 317.36 374.75 318.66 374.86 320.71 375.32 323.16 376.33 324.84 376.8 325.39 377.01 326.42 377.69 327.1 378.24 327.81 379.27 328.55 379.95 329.77 380.61 334.13 380.14 335.87 379.74 337.37 379.05 338.37 378.46 339.35 378.02 340.41 377.86 343.46 378.21 344.31 378.21 346.62 376.9"/><polygon class="cls-1" points="269.75 363.78 269.2 365.01 267.87 366.78 267.49 367.62 267.22 368.63 267 369.04 265.88 370.32 265.5 371.11 265.47 371.6 265.67 372.22 265.75 372.9 265.58 373.88 265.34 374.48 264.55 375.65 264.33 376.06 264.22 376.69 264.11 378.89 263.68 380.12 263.13 380.8 263.02 381.37 263.13 382.13 263.95 383.76 264.71 384.74 265.45 385.51 266.05 386 266.62 386.62 266.94 387.25 268.22 390.49 269.88 393.05 270.26 393.94 270.43 394.98 270.26 396.12 269.99 396.83 269.88 397.4 269.91 398.19 270.48 400.81 270.32 402.22 269.67 404.13 269.53 405.16 269.69 406.36 270.97 409.92 271.95 414.22 271.74 415.8 271.52 415.37 270.92 414.8 270.16 414.5 268.96 413.71 268.28 412.92 266.15 409.43 265.8 407.88 266.24 403.58 265.31 401.13 263.43 399.63 258.81 397.07 257.36 395.33 254.78 390.41 253.58 389.4 252.74 389.89 251.92 392.07 251.16 392.8 248.27 393.67 247.1 394.3 245.96 395.58 243.34 399.88 241.79 400.23 239.83 397.7 239.4 396.39 239.7 392.04 239.86 391.55 239.83 391.09 239.34 390.35 238.66 390 237.16 390.08 236.46 389.51 235.94 388.15 235.78 386.87 235.42 385.53 231.26 380.39 230.03 379.3 227.47 378.35 224.37 377.72 221.95 376.63 221.49 374.29 222.38 373.34 225.46 371.87 226.17 370.94 225.7 369.88 222.52 365.39 220.31 364.38 217.24 364.36 214.57 363.76 213.59 361.04 213.94 359.24 214.76 358.56 215.96 358.67 217.51 359.21 218.57 359.05 220.83 357.09 221.97 356.38 225.05 355.92 226.14 355.15 226.52 353.19 226.47 351.62 226.66 350.28 227.34 349.33 228.89 349.08 231.28 347.81 232.78 344.51 233.9 339.91 235.04 339.77 253.52 338.63 253.99 338.9 254.48 339.45 254.88 340.7 254.91 341.6 254.53 343.37 254.64 344.43 255.02 345.52 256.41 348.43 257.31 350.85 258.04 352.27 259.05 353.55 262.04 356.35 263.21 357.77 264.06 358.58 266.37 359.95 269.75 363.78"/><polygon class="cls-2" points="269.75 363.78 269.2 365.01 267.87 366.78 267.49 367.62 267.22 368.63 267 369.04 265.88 370.32 265.5 371.11 265.47 371.6 265.67 372.22 265.75 372.9 265.58 373.88 265.34 374.48 264.55 375.65 264.33 376.06 264.22 376.69 264.11 378.89 263.68 380.12 263.13 380.8 263.02 381.37 263.13 382.13 263.95 383.76 264.71 384.74 265.45 385.51 266.05 386 266.62 386.62 266.94 387.25 268.22 390.49 269.88 393.05 270.26 393.94 270.43 394.98 270.26 396.12 269.99 396.83 269.88 397.4 269.91 398.19 270.48 400.81 270.32 402.22 269.67 404.13 269.53 405.16 269.69 406.36 270.97 409.92 271.95 414.22 271.74 415.8 271.52 415.37 270.92 414.8 270.16 414.5 268.96 413.71 268.28 412.92 266.15 409.43 265.8 407.88 266.24 403.58 265.31 401.13 263.43 399.63 258.81 397.07 257.36 395.33 254.78 390.41 253.58 389.4 252.74 389.89 251.92 392.07 251.16 392.8 248.27 393.67 247.1 394.3 245.96 395.58 243.34 399.88 241.79 400.23 239.83 397.7 239.4 396.39 239.7 392.04 239.86 391.55 239.83 391.09 239.34 390.35 238.66 390 237.16 390.08 236.46 389.51 235.94 388.15 235.78 386.87 235.42 385.53 231.26 380.39 230.03 379.3 227.47 378.35 224.37 377.72 221.95 376.63 221.49 374.29 222.38 373.34 225.46 371.87 226.17 370.94 225.7 369.88 222.52 365.39 220.31 364.38 217.24 364.36 214.57 363.76 213.59 361.04 213.94 359.24 214.76 358.56 215.96 358.67 217.51 359.21 218.57 359.05 220.83 357.09 221.97 356.38 225.05 355.92 226.14 355.15 226.52 353.19 226.47 351.62 226.66 350.28 227.34 349.33 228.89 349.08 231.28 347.81 232.78 344.51 233.9 339.91 235.04 339.77 253.52 338.63 253.99 338.9 254.48 339.45 254.88 340.7 254.91 341.6 254.53 343.37 254.64 344.43 255.02 345.52 256.41 348.43 257.31 350.85 258.04 352.27 259.05 353.55 262.04 356.35 263.21 357.77 264.06 358.58 266.37 359.95 269.75 363.78"/><polygon class="cls-1" points="408.66 461.26 408.19 462.35 408.38 463.6 408.74 465.07 408.76 465.92 408.63 467.03 407.21 471.99 406.83 472.78 402.53 478.68 402.23 479.69 402.48 480.48 402.53 481.84 396.3 509.74 395.37 510.83 394.42 510.72 394.23 509.99 394.42 509.09 394.37 507.73 394.2 506.75 393.79 505.55 393.11 504.82 392.4 504.22 391.4 503.75 390.17 503.37 386.85 502.75 385.65 502.31 384.97 502.15 384.35 502.12 382.96 502.34 382.58 502.31 377.6 500.76 373.65 499.97 372.51 499.86 371.58 493.22 371.8 491.75 372.56 490.8 372.34 489.82 371.83 488.73 371.63 487.48 372.13 486.28 373.84 483.88 374.44 482.6 374.6 481.13 374 479.83 373.08 478.52 372.32 477.13 371.83 475.39 371.63 473.95 371.61 467.55 371.15 464.8 370.25 462.24 368.83 459.46 368.04 456.5 369.16 451.33 369.08 448.44 367.69 445.69 363.33 441.34 361.37 438.91 358.65 433.28 357.54 431.65 359.44 430.09 360.31 429.96 362.3 430.34 363.55 430.48 364.29 430.69 364.86 430.94 365.95 431.7 367.33 432.35 368.31 433.22 369.19 433.31 370.49 433.01 375.26 431.02 381.57 426.26 388.35 422.09 388.92 430.88 390.12 436.93 392.43 443.89 402.18 456.99 403.27 458.02 405.82 459.14 408.66 461.26"/><polygon class="cls-2" points="408.66 461.26 408.19 462.35 408.38 463.6 408.74 465.07 408.76 465.92 408.63 467.03 407.21 471.99 406.83 472.78 402.53 478.68 402.23 479.69 402.48 480.48 402.53 481.84 396.3 509.74 395.37 510.83 394.42 510.72 394.23 509.99 394.42 509.09 394.37 507.73 394.2 506.75 393.79 505.55 393.11 504.82 392.4 504.22 391.4 503.75 390.17 503.37 386.85 502.75 385.65 502.31 384.97 502.15 384.35 502.12 382.96 502.34 382.58 502.31 377.6 500.76 373.65 499.97 372.51 499.86 371.58 493.22 371.8 491.75 372.56 490.8 372.34 489.82 371.83 488.73 371.63 487.48 372.13 486.28 373.84 483.88 374.44 482.6 374.6 481.13 374 479.83 373.08 478.52 372.32 477.13 371.83 475.39 371.63 473.95 371.61 467.55 371.15 464.8 370.25 462.24 368.83 459.46 368.04 456.5 369.16 451.33 369.08 448.44 367.69 445.69 363.33 441.34 361.37 438.91 358.65 433.28 357.54 431.65 359.44 430.09 360.31 429.96 362.3 430.34 363.55 430.48 364.29 430.69 364.86 430.94 365.95 431.7 367.33 432.35 368.31 433.22 369.19 433.31 370.49 433.01 375.26 431.02 381.57 426.26 388.35 422.09 388.92 430.88 390.12 436.93 392.43 443.89 402.18 456.99 403.27 458.02 405.82 459.14 408.66 461.26"/><polygon class="cls-1" points="336.82 351.81 335.41 353.11 334.67 353.52 332.33 354.5 331.76 354.64 331.05 354.64 330.23 354.48 325.44 352.7 324.16 352.65 321.8 352.87 320.6 352.6 318.47 351.81 317.17 351.54 315.86 351.51 314.91 351.7 310.36 353.28 306.01 353.19 305.41 353.14 304.97 352.81 304.51 352.13 304.24 350.66 304.02 346.77 303.77 345.63 301.92 340.86 300.97 339.1 299.77 337.38 297.57 335.15 296.37 334.22 295.42 333.68 294.36 332.83 293.7 329.79 294.95 329.68 296.32 329.08 297.54 328.34 298.96 327.88 300.37 327.58 300.75 327.39 301.05 327.04 301.27 326.41 301.57 325.97 302.17 325.73 302.99 325.27 303.91 324.48 305.6 322.52 306.66 320.58 307.18 319.93 308.29 319.06 309.55 318.54 310.33 318.08 310.85 317.59 311.29 316.67 311.45 316.01 312.27 315.19 312.92 314.62 318.99 311.6 319.07 315.82 319.67 317.51 320.57 318.68 321.5 320.31 321.58 321.13 321.47 322.6 321.93 323.17 322.48 323.69 323.29 324.23 323.89 324.45 324.54 324.31 325.14 323.82 325.52 323.33 325.82 322.65 326.39 320.45 326.59 320.12 326.91 319.88 330.45 318.81 330.86 318.84 331.02 319.28 330.91 319.99 330.56 321.46 330.59 322.3 330.91 323.12 331.38 323.52 332.87 323.66 333.83 323.8 334.29 324.48 334.53 325.35 335.24 329.87 335.16 330.57 334.81 331.34 334.48 332.48 334.4 333.76 336.11 340.4 336.82 351.81"/><polygon class="cls-2" points="336.82 351.81 335.41 353.11 334.67 353.52 332.33 354.5 331.76 354.64 331.05 354.64 330.23 354.48 325.44 352.7 324.16 352.65 321.8 352.87 320.6 352.6 318.47 351.81 317.17 351.54 315.86 351.51 314.91 351.7 310.36 353.28 306.01 353.19 305.41 353.14 304.97 352.81 304.51 352.13 304.24 350.66 304.02 346.77 303.77 345.63 301.92 340.86 300.97 339.1 299.77 337.38 297.57 335.15 296.37 334.22 295.42 333.68 294.36 332.83 293.7 329.79 294.95 329.68 296.32 329.08 297.54 328.34 298.96 327.88 300.37 327.58 300.75 327.39 301.05 327.04 301.27 326.41 301.57 325.97 302.17 325.73 302.99 325.27 303.91 324.48 305.6 322.52 306.66 320.58 307.18 319.93 308.29 319.06 309.55 318.54 310.33 318.08 310.85 317.59 311.29 316.67 311.45 316.01 312.27 315.19 312.92 314.62 318.99 311.6 319.07 315.82 319.67 317.51 320.57 318.68 321.5 320.31 321.58 321.13 321.47 322.6 321.93 323.17 322.48 323.69 323.29 324.23 323.89 324.45 324.54 324.31 325.14 323.82 325.52 323.33 325.82 322.65 326.39 320.45 326.59 320.12 326.91 319.88 330.45 318.81 330.86 318.84 331.02 319.28 330.91 319.99 330.56 321.46 330.59 322.3 330.91 323.12 331.38 323.52 332.87 323.66 333.83 323.8 334.29 324.48 334.53 325.35 335.24 329.87 335.16 330.57 334.81 331.34 334.48 332.48 334.4 333.76 336.11 340.4 336.82 351.81"/><path class="cls-1" d="M398,354.12l-.76,3.51-.19-1.69.22-1.38.19-.66Zm-26.38,48.07-.51.19-.82.52-.52.44-1.77,1.9-.79.52-1-.63-1.36-1.39-2.65-4-2.8-5.06-1.17-1.42-5.17-5.06L349.4,383l-.85-.32-1.06.05-1.31.33-2.91,1.5-.87.32-.71-.08-.43-.38-.14-.6.06-.54.35-.66.54-.6,1.15-.78,2.31-1,.93-1,.16-2.37.6-.65.87-.38.82-.19,1.22-.41.82-.54.41-.79.08-.55-.44-.76-.79-.41-.46-.46-.27-.74.11-1.36v-.92l-.25-.87-.57-.41-.49-.06-.57.22-3,1.61-.81.16h-.71l-.66-.19-.7-.41-.68-.57-3.79-3.76-.54-.4-1-.66-.08-.3.74-1.25.21-1.36,0-1-1.3-6.37,1.41-1.3,2.56-1.2,1-.11,2-.41,3.46-1.5,7.24-4.16h.19l4.16,6.89,1.77,3.92,1.64,1.93.68,1.09.81.84,1.17.36,1.56-.28,2.61-1,1.31.11,1.11.76.63,1,1.09,2.39,1.14,1.28,2.48,2.24.49,1.19.62.9,1.31,1,1,1.17-.41,1.39-.92,1.58v1.2l.3,1.22-.2,1.61-.4.65L375.77,379l-.46.62-.08.85.6,1.44.11.68-1.47,4-.57,1L371.75,390l-1.34,1.85L370,394l1.44,7.45Z"/><path class="cls-2" d="M398,354.12l-.76,3.51-.19-1.69.22-1.38.19-.66Zm-26.38,48.07-.51.19-.82.52-.52.44-1.77,1.9-.79.52-1-.63-1.36-1.39-2.65-4-2.8-5.06-1.17-1.42-5.17-5.06L349.4,383l-.85-.32-1.06.05-1.31.33-2.91,1.5-.87.32-.71-.08-.43-.38-.14-.6.06-.54.35-.66.54-.6,1.15-.78,2.31-1,.93-1,.16-2.37.6-.65.87-.38.82-.19,1.22-.41.82-.54.41-.79.08-.55-.44-.76-.79-.41-.46-.46-.27-.74.11-1.36v-.92l-.25-.87-.57-.41-.49-.06-.57.22-3,1.61-.81.16h-.71l-.66-.19-.7-.41-.68-.57-3.79-3.76-.54-.4-1-.66-.08-.3.74-1.25.21-1.36,0-1-1.3-6.37,1.41-1.3,2.56-1.2,1-.11,2-.41,3.46-1.5,7.24-4.16h.19l4.16,6.89,1.77,3.92,1.64,1.93.68,1.09.81.84,1.17.36,1.56-.28,2.61-1,1.31.11,1.11.76.63,1,1.09,2.39,1.14,1.28,2.48,2.24.49,1.19.62.9,1.31,1,1,1.17-.41,1.39-.92,1.58v1.2l.3,1.22-.2,1.61-.4.65L375.77,379l-.46.62-.08.85.6,1.44.11.68-1.47,4-.57,1L371.75,390l-1.34,1.85L370,394l1.44,7.45Z"/><polygon class="cls-1" points="341.2 102.76 340 102.6 338.15 102 337.39 101.94 336.57 102.16 335.54 102.52 335 102.54 333.2 101.43 321.31 91.41 302.17 61.44 301.24 59.48 300.59 58.64 299.99 58.42 296.97 58.72 295.06 58.75 294.27 58.45 293.21 57.85 290.35 55.42 289.7 55.02 288.23 54.83 287.33 54.63 286.41 54.15 285.78 53.52 285.13 52.51 284.69 52.02 284.15 51.59 283.52 51.26 282.54 50.55 282.13 49.95 281.97 49.25 282.02 48.18 282.19 47.88 282.54 47.64 284.67 46.96 288.69 44.4 289.13 43.99 289.92 42.98 291.01 42.77 291.69 42.55 292.8 41.54 293.38 40.86 293.92 39.99 294.68 38.3 294.98 37.87 295.85 37.19 296.91 36.1 297.49 35.61 297.98 35.31 298.6 35.12 300.02 34.85 300.34 34.33 300.4 33.43 299.85 31.96 299.66 31.12 299.56 29.51 299.2 28.69 298.63 27.74 298.38 26.98 298.33 26.35 298.57 24.88 298.63 23.93 298.28 23.2 297.92 22.81 296.32 19.79 298.49 19.52 300.7 18.27 303.39 17.53 305.68 18.95 307.83 21.13 310.01 22.57 311.97 23.36 314.34 24.8 316.35 26.52 317.28 28.2 318.26 28.91 317.63 29.54 317.22 32.31 317.88 38.19 319.83 42.88 320.49 43.17 321.14 43.26 321.66 43.5 321.88 44.35 321.88 47.26 322.8 53.06 325.25 58.77 332.17 68.82 336.82 73.53 339.46 75.49 340.82 76.68 341.39 77.88 341.77 79.16 342.7 80.5 345.67 83.92 346.35 85.12 347.22 88.06 348.17 90.21 348.33 90.46 347.82 91.36 347.3 91.47 346.73 91.33 346.02 91.6 344.61 92.83 344.14 93.59 344.31 96.28 344.5 97.02 344.82 97.7 344.85 98.33 344.31 98.92 342.26 100.12 341.69 100.67 340.99 102.16 341.2 102.76"/><polygon class="cls-2" points="341.2 102.76 340 102.6 338.15 102 337.39 101.94 336.57 102.16 335.54 102.52 335 102.54 333.2 101.43 321.31 91.41 302.17 61.44 301.24 59.48 300.59 58.64 299.99 58.42 296.97 58.72 295.06 58.75 294.27 58.45 293.21 57.85 290.35 55.42 289.7 55.02 288.23 54.83 287.33 54.63 286.41 54.15 285.78 53.52 285.13 52.51 284.69 52.02 284.15 51.59 283.52 51.26 282.54 50.55 282.13 49.95 281.97 49.25 282.02 48.18 282.19 47.88 282.54 47.64 284.67 46.96 288.69 44.4 289.13 43.99 289.92 42.98 291.01 42.77 291.69 42.55 292.8 41.54 293.38 40.86 293.92 39.99 294.68 38.3 294.98 37.87 295.85 37.19 296.91 36.1 297.49 35.61 297.98 35.31 298.6 35.12 300.02 34.85 300.34 34.33 300.4 33.43 299.85 31.96 299.66 31.12 299.56 29.51 299.2 28.69 298.63 27.74 298.38 26.98 298.33 26.35 298.57 24.88 298.63 23.93 298.28 23.2 297.92 22.81 296.32 19.79 298.49 19.52 300.7 18.27 303.39 17.53 305.68 18.95 307.83 21.13 310.01 22.57 311.97 23.36 314.34 24.8 316.35 26.52 317.28 28.2 318.26 28.91 317.63 29.54 317.22 32.31 317.88 38.19 319.83 42.88 320.49 43.17 321.14 43.26 321.66 43.5 321.88 44.35 321.88 47.26 322.8 53.06 325.25 58.77 332.17 68.82 336.82 73.53 339.46 75.49 340.82 76.68 341.39 77.88 341.77 79.16 342.7 80.5 345.67 83.92 346.35 85.12 347.22 88.06 348.17 90.21 348.33 90.46 347.82 91.36 347.3 91.47 346.73 91.33 346.02 91.6 344.61 92.83 344.14 93.59 344.31 96.28 344.5 97.02 344.82 97.7 344.85 98.33 344.31 98.92 342.26 100.12 341.69 100.67 340.99 102.16 341.2 102.76"/><polygon class="cls-1" points="296.32 19.79 297.92 22.82 298.28 23.2 298.63 23.93 298.57 24.88 298.33 26.35 298.38 26.98 298.63 27.74 299.2 28.69 299.56 29.51 299.66 31.12 299.86 31.96 300.4 33.43 300.35 34.33 300.02 34.85 298.6 35.12 297.98 35.31 297.49 35.61 296.92 36.1 295.85 37.19 294.98 37.87 294.68 38.3 293.92 39.99 293.38 40.86 292.8 41.54 291.69 42.55 291.01 42.77 289.92 42.98 289.13 43.99 288.69 44.4 284.67 46.96 282.54 47.64 282.19 47.88 282.02 48.18 281.97 49.25 282.13 49.95 282.54 50.55 283.52 51.26 284.15 51.59 284.69 52.02 285.13 52.51 285.78 53.52 286.41 54.15 287.33 54.64 288.23 54.83 289.7 55.02 290.36 55.42 293.21 57.85 294.27 58.45 295.06 58.75 296.97 58.72 299.99 58.42 300.59 58.64 301.24 59.48 302.17 61.44 321.31 91.41 300.67 100.8 298.3 101.75 298.19 100.58 297.6 99.03 297.6 96.8 295.31 96.5 294 95 292.37 91.19 291.74 90.46 289.4 88.36 288.69 87.36 286.49 82.1 286.19 80.06 286.71 75.3 286.52 72.6 285.32 71.21 283.66 70.04 282.08 68 279.93 67.21 278.4 65.96 277.04 64.46 275.27 62.97 268.44 59.89 267.3 58.34 267.35 56.13 267.79 53.98 269.37 49.98 271.87 46.09 272.47 44.29 271.93 41.92 270.59 38.58 270.05 37.9 266.94 36.75 265.94 36.21 264.93 35.31 264.22 34.27 263 31.99 262.07 30.98 259.98 29.67 259.19 28.48 258.97 27.22 259.24 26.41 259.68 25.73 259.89 24.83 259.79 23.52 259.4 22.38 258.21 20.26 256.52 19.06 252 18.84 250.07 17.89 249.58 20.09 249.31 22.62 248.54 24.18 246.69 23.5 246.26 22.68 246.07 21.64 245.74 20.75 244.81 20.31 243.67 20.61 242.75 21.24 241.82 21.67 240.7 21.29 239.7 18.98 241.17 12.85 241.14 10.54 240.4 10.18 239.18 9.04 238.61 8.69 237.66 8.74 237.08 9.15 236.57 9.34 235.75 8.66 235.37 7.52 235.18 2.54 236.48 1.17 238.06 0.36 239.7 0.28 241.17 1.15 245.36 5.34 250.53 9.34 251.29 9.64 253.55 10.16 256 11.14 256.3 11.3 257.06 11.05 258.23 10.07 258.78 9.8 259.95 9.8 261.69 10.35 262.7 10.43 263.41 10.21 264.74 9.31 265.48 9.18 266.97 9.72 271.71 13.07 273.26 14.54 274.68 17.7 275.71 19.28 276.99 20.2 278.62 20.69 282.08 20.96 284.69 20.31 286.68 19.17 288.72 18.3 291.55 18.59 294.11 19.41 296.32 19.79"/><polygon class="cls-2" points="296.32 19.79 297.92 22.82 298.28 23.2 298.63 23.93 298.57 24.88 298.33 26.35 298.38 26.98 298.63 27.74 299.2 28.69 299.56 29.51 299.66 31.12 299.86 31.96 300.4 33.43 300.35 34.33 300.02 34.85 298.6 35.12 297.98 35.31 297.49 35.61 296.92 36.1 295.85 37.19 294.98 37.87 294.68 38.3 293.92 39.99 293.38 40.86 292.8 41.54 291.69 42.55 291.01 42.77 289.92 42.98 289.13 43.99 288.69 44.4 284.67 46.96 282.54 47.64 282.19 47.88 282.02 48.18 281.97 49.25 282.13 49.95 282.54 50.55 283.52 51.26 284.15 51.59 284.69 52.02 285.13 52.51 285.78 53.52 286.41 54.15 287.33 54.64 288.23 54.83 289.7 55.02 290.36 55.42 293.21 57.85 294.27 58.45 295.06 58.75 296.97 58.72 299.99 58.42 300.59 58.64 301.24 59.48 302.17 61.44 321.31 91.41 300.67 100.8 298.3 101.75 298.19 100.58 297.6 99.03 297.6 96.8 295.31 96.5 294 95 292.37 91.19 291.74 90.46 289.4 88.36 288.69 87.36 286.49 82.1 286.19 80.06 286.71 75.3 286.52 72.6 285.32 71.21 283.66 70.04 282.08 68 279.93 67.21 278.4 65.96 277.04 64.46 275.27 62.97 268.44 59.89 267.3 58.34 267.35 56.13 267.79 53.98 269.37 49.98 271.87 46.09 272.47 44.29 271.93 41.92 270.59 38.58 270.05 37.9 266.94 36.75 265.94 36.21 264.93 35.31 264.22 34.27 263 31.99 262.07 30.98 259.98 29.67 259.19 28.48 258.97 27.22 259.24 26.41 259.68 25.73 259.89 24.83 259.79 23.52 259.4 22.38 258.21 20.26 256.52 19.06 252 18.84 250.07 17.89 249.58 20.09 249.31 22.62 248.54 24.18 246.69 23.5 246.26 22.68 246.07 21.64 245.74 20.75 244.81 20.31 243.67 20.61 242.75 21.24 241.82 21.67 240.7 21.29 239.7 18.98 241.17 12.85 241.14 10.54 240.4 10.18 239.18 9.04 238.61 8.69 237.66 8.74 237.08 9.15 236.57 9.34 235.75 8.66 235.37 7.52 235.18 2.54 236.48 1.17 238.06 0.36 239.7 0.28 241.17 1.15 245.36 5.34 250.53 9.34 251.29 9.64 253.55 10.16 256 11.14 256.3 11.3 257.06 11.05 258.23 10.07 258.78 9.8 259.95 9.8 261.69 10.35 262.7 10.43 263.41 10.21 264.74 9.31 265.48 9.18 266.97 9.72 271.71 13.07 273.26 14.54 274.68 17.7 275.71 19.28 276.99 20.2 278.62 20.69 282.08 20.96 284.69 20.31 286.68 19.17 288.72 18.3 291.55 18.59 294.11 19.41 296.32 19.79"/><polygon class="cls-1" points="330.37 144.76 329.47 150.89 327.46 157.72 327.32 159.25 327.54 160.23 328.79 160.93 329.36 161.34 329.8 162 331.76 169.75 332.11 170.27 333.25 171.58 334.26 174.76 334.18 176.2 333.85 176.91 333.12 177.29 331.57 177.7 330.07 178.41 328.82 177.87 327.92 177.67 326.61 177.76 325.74 178.35 324.95 179.39 323.97 181.7 323.32 182.93 322.64 183.83 321.93 184.23 321.14 184.48 320.46 184.51 319.89 184.45 316.57 183.53 315.45 183.44 314.8 183.64 314.14 184.02 312.35 185.76 310.52 186.82 309.6 187.56 308.4 188.97 307.78 189.9 307.37 190.85 306.42 195.56 306.22 197.33 306.2 198.34 306.28 199.23 306.42 200.13 306.8 200.97 307.29 201.68 308.56 202.77 308.76 203.18 309.06 204.32 309.41 204.84 310.58 205.85 310.91 206.56 310.91 208 310.39 209.55 310.01 211.29 309.25 212.46 309.06 213.22 309 214.01 309.52 216.03 309.68 217.28 309.63 219.02 309.74 220.22 310.06 221.28 310.42 222.1 310.66 223.13 310.33 223.92 308.62 226.26 307.97 226.92 307.12 227.35 306.22 227.54 305.3 227.65 304.45 227.92 303.67 228.52 302.85 229.48 302 230.84 301.79 231.68 301.9 232.39 302.41 232.88 303.07 233.23 304.48 233.69 304.94 233.99 305.35 234.46 305.73 235.11 306.17 235.57 306.74 235.93 307.42 236.09 312.46 236.04 307.04 240.61 305.57 242.95 305.54 243.69 305.87 246.11 306.25 247.14 306.9 247.82 307.86 248.2 310.52 248.45 311.72 249.16 312.84 250.27 314.09 252.89 314.94 254.16 316.51 255.93 316.76 257.24 316.95 259.15 317.36 260.4 317.93 261.41 318.58 262.3 319.32 263.15 320.13 263.56 322.31 263.48 323.4 263.67 326.45 265.22 327.43 265.57 328.49 265.82 329.52 265.93 330.56 265.82 332.49 265.33 333.28 265.33 334.13 265.76 334.45 266.44 334.18 266.85 332.9 268.07 332.19 268.89 331.59 270.82 331.29 271.48 330.89 271.97 330.42 272.19 328.87 272.38 327.07 272.81 326.34 273.08 325.63 273.49 324.33 274.58 323.43 275.15 320.65 276.16 318.17 276.54 317.49 276.81 316.92 277.22 315.97 278.23 313.71 282.09 311.8 284.65 311.1 284.87 309.82 285.74 309.41 285.74 308.92 285.39 307.07 283.78 306.36 283.4 305.76 283.21 305.33 283.29 304.35 283.35 303.96 283.48 302.66 284.46 301.43 284.95 300.45 285.06 299.31 284.98 298.19 284.82 297.24 284.54 296.4 284.05 295.96 283.67 295.06 282.64 293.59 280.43 293.02 279.83 292.2 279.4 291.14 279.29 290.14 279.4 289.73 278.99 289.43 278.06 289.51 275.59 289.75 274.55 290.08 273.85 290.68 273.27 290.87 272.89 290.82 272.27 290.63 271.56 290.03 270.47 288.97 269.16 288.77 268.54 288.64 267.64 288.58 262.99 288.77 261.95 288.97 261.51 289.43 260.75 290.25 259.8 290.71 259.04 290.9 258 290.44 257.4 289.89 256.94 286.13 256.15 284.88 255.85 285.24 255.63 286 254.27 285.86 252.5 284.91 252.15 283.49 252.21 280.23 251.03 274.05 252.91 271.11 251.88 269.48 249.35 268.01 243.36 266.94 240.56 265.99 239.38 263.62 237.1 263 235.71 262.89 232.82 263.19 229.99 266.48 222.15 267.27 217.77 267.73 216.41 268.03 215.08 267.71 213.85 266.75 211.97 266.73 210.61 267.84 207.37 268.14 204.24 267.19 190.33 266.7 188.94 265.56 187.64 264.19 187.42 262.73 187.58 261.31 187.58 259.92 187.07 259.65 186.38 260.87 183.74 261.42 182.14 261.5 181.08 261.12 173.81 261.91 172.58 264.03 174.35 264.74 173.18 264.77 172.09 264.6 170.98 264.74 169.78 265.12 169.32 266.4 168.77 266.86 168.37 266.97 167.85 266.7 166.9 266.81 166.32 272.69 157.2 273.86 154.81 274.59 152.28 271.9 147.54 270.02 145.66 268.47 143.51 267.27 141.14 266.45 138.59 266.21 136.05 271.68 138.28 274.76 138.8 277.56 138.91 278.27 139.24 278.73 139.73 279.08 141.22 279.3 142.72 279.27 143.54 279.11 144.38 278.6 145.72 278.49 146.43 278.79 147.3 279.47 147.49 280.2 147.24 281.92 146.02 283.39 144.76 284.64 143.46 285.1 142.83 286.16 140.98 286.63 140.41 287.22 139.97 288.34 139.73 289.18 140 290.03 140.6 290.9 141.44 291.77 142.12 292.91 142.75 293.92 142.94 294.82 142.94 298.03 142.45 298.74 142.56 299.25 142.97 299.94 144.36 300.37 144.96 301.16 145.44 301.9 145.53 302.58 145.42 303.26 145.17 303.83 144.79 304.35 144.19 304.62 143.54 304.7 143.05 304.56 142.67 304.07 141.8 303.91 141.28 304.07 140.76 304.51 140.46 307.56 139.65 310.12 139.35 318.04 140.49 319.21 140.33 319.94 139.84 320.51 136.13 320.68 135.54 321 135.1 321.6 135.29 326.97 139.62 328.16 141.03 329.23 142.53 330.37 144.76"/><polygon class="cls-2" points="330.37 144.76 329.47 150.89 327.46 157.72 327.32 159.25 327.54 160.23 328.79 160.93 329.36 161.34 329.8 162 331.76 169.75 332.11 170.27 333.25 171.58 334.26 174.76 334.18 176.2 333.85 176.91 333.12 177.29 331.57 177.7 330.07 178.41 328.82 177.87 327.92 177.67 326.61 177.76 325.74 178.35 324.95 179.39 323.97 181.7 323.32 182.93 322.64 183.83 321.93 184.23 321.14 184.48 320.46 184.51 319.89 184.45 316.57 183.53 315.45 183.44 314.8 183.64 314.14 184.02 312.35 185.76 310.52 186.82 309.6 187.56 308.4 188.97 307.78 189.9 307.37 190.85 306.42 195.56 306.22 197.33 306.2 198.34 306.28 199.23 306.42 200.13 306.8 200.97 307.29 201.68 308.56 202.77 308.76 203.18 309.06 204.32 309.41 204.84 310.58 205.85 310.91 206.56 310.91 208 310.39 209.55 310.01 211.29 309.25 212.46 309.06 213.22 309 214.01 309.52 216.03 309.68 217.28 309.63 219.02 309.74 220.22 310.06 221.28 310.42 222.1 310.66 223.13 310.33 223.92 308.62 226.26 307.97 226.92 307.12 227.35 306.22 227.54 305.3 227.65 304.45 227.92 303.67 228.52 302.85 229.48 302 230.84 301.79 231.68 301.9 232.39 302.41 232.88 303.07 233.23 304.48 233.69 304.94 233.99 305.35 234.46 305.73 235.11 306.17 235.57 306.74 235.93 307.42 236.09 312.46 236.04 307.04 240.61 305.57 242.95 305.54 243.69 305.87 246.11 306.25 247.14 306.9 247.82 307.86 248.2 310.52 248.45 311.72 249.16 312.84 250.27 314.09 252.89 314.94 254.16 316.51 255.93 316.76 257.24 316.95 259.15 317.36 260.4 317.93 261.41 318.58 262.3 319.32 263.15 320.13 263.56 322.31 263.48 323.4 263.67 326.45 265.22 327.43 265.57 328.49 265.82 329.52 265.93 330.56 265.82 332.49 265.33 333.28 265.33 334.13 265.76 334.45 266.44 334.18 266.85 332.9 268.07 332.19 268.89 331.59 270.82 331.29 271.48 330.89 271.97 330.42 272.19 328.87 272.38 327.07 272.81 326.34 273.08 325.63 273.49 324.33 274.58 323.43 275.15 320.65 276.16 318.17 276.54 317.49 276.81 316.92 277.22 315.97 278.23 313.71 282.09 311.8 284.65 311.1 284.87 309.82 285.74 309.41 285.74 308.92 285.39 307.07 283.78 306.36 283.4 305.76 283.21 305.33 283.29 304.35 283.35 303.96 283.48 302.66 284.46 301.43 284.95 300.45 285.06 299.31 284.98 298.19 284.82 297.24 284.54 296.4 284.05 295.96 283.67 295.06 282.64 293.59 280.43 293.02 279.83 292.2 279.4 291.14 279.29 290.14 279.4 289.73 278.99 289.43 278.06 289.51 275.59 289.75 274.55 290.08 273.85 290.68 273.27 290.87 272.89 290.82 272.27 290.63 271.56 290.03 270.47 288.97 269.16 288.77 268.54 288.64 267.64 288.58 262.99 288.77 261.95 288.97 261.51 289.43 260.75 290.25 259.8 290.71 259.04 290.9 258 290.44 257.4 289.89 256.94 286.13 256.15 284.88 255.85 285.24 255.63 286 254.27 285.86 252.5 284.91 252.15 283.49 252.21 280.23 251.03 274.05 252.91 271.11 251.88 269.48 249.35 268.01 243.36 266.94 240.56 265.99 239.38 263.62 237.1 263 235.71 262.89 232.82 263.19 229.99 266.48 222.15 267.27 217.77 267.73 216.41 268.03 215.08 267.71 213.85 266.75 211.97 266.73 210.61 267.84 207.37 268.14 204.24 267.19 190.33 266.7 188.94 265.56 187.64 264.19 187.42 262.73 187.58 261.31 187.58 259.92 187.07 259.65 186.38 260.87 183.74 261.42 182.14 261.5 181.08 261.12 173.81 261.91 172.58 264.03 174.35 264.74 173.18 264.77 172.09 264.6 170.98 264.74 169.78 265.12 169.32 266.4 168.77 266.86 168.37 266.97 167.85 266.7 166.9 266.81 166.32 272.69 157.2 273.86 154.81 274.59 152.28 271.9 147.54 270.02 145.66 268.47 143.51 267.27 141.14 266.45 138.59 266.21 136.05 271.68 138.28 274.76 138.8 277.56 138.91 278.27 139.24 278.73 139.73 279.08 141.22 279.3 142.72 279.27 143.54 279.11 144.38 278.6 145.72 278.49 146.43 278.79 147.3 279.47 147.49 280.2 147.24 281.92 146.02 283.39 144.76 284.64 143.46 285.1 142.83 286.16 140.98 286.63 140.41 287.22 139.97 288.34 139.73 289.18 140 290.03 140.6 290.9 141.44 291.77 142.12 292.91 142.75 293.92 142.94 294.82 142.94 298.03 142.45 298.74 142.56 299.25 142.97 299.94 144.36 300.37 144.96 301.16 145.44 301.9 145.53 302.58 145.42 303.26 145.17 303.83 144.79 304.35 144.19 304.62 143.54 304.7 143.05 304.56 142.67 304.07 141.8 303.91 141.28 304.07 140.76 304.51 140.46 307.56 139.65 310.12 139.35 318.04 140.49 319.21 140.33 319.94 139.84 320.51 136.13 320.68 135.54 321 135.1 321.6 135.29 326.97 139.62 328.16 141.03 329.23 142.53 330.37 144.76"/><polygon class="cls-1" points="328.19 241.32 328.03 241.32 321.9 239.85 318.47 238.35 317.36 237.59 315.56 235.98 314.74 235.74 314.01 235.68 312.46 236.04 307.42 236.09 306.74 235.93 306.17 235.57 305.73 235.11 305.35 234.46 304.94 234 304.48 233.69 303.07 233.23 302.41 232.88 301.9 232.39 301.79 231.68 302 230.84 302.85 229.48 303.67 228.52 304.45 227.92 305.3 227.65 306.22 227.54 307.12 227.35 307.97 226.92 308.62 226.26 310.33 223.92 310.66 223.13 310.42 222.1 310.06 221.28 309.74 220.22 309.63 219.02 309.68 217.28 309.52 216.03 309 214.01 309.06 213.22 309.25 212.46 310.01 211.29 310.39 209.55 310.91 208 310.91 206.56 310.58 205.85 309.41 204.84 309.06 204.32 308.75 203.18 308.56 202.77 307.29 201.68 306.8 200.98 306.41 200.13 306.28 199.23 306.2 198.34 306.22 197.33 306.41 195.56 307.37 190.85 307.77 189.9 308.4 188.97 309.6 187.56 310.52 186.82 312.35 185.76 314.14 184.02 314.8 183.64 315.45 183.44 316.57 183.53 319.89 184.45 320.46 184.51 321.14 184.48 321.93 184.24 322.64 183.83 323.32 182.93 323.97 181.7 324.95 179.39 325.74 178.35 326.61 177.76 327.92 177.67 328.82 177.87 330.07 178.41 331.57 177.7 333.12 177.29 333.85 176.91 334.18 176.2 334.26 174.76 333.25 171.58 332.11 170.27 331.76 169.75 329.8 162 329.36 161.34 328.79 160.93 327.54 160.22 327.32 159.25 327.46 157.72 329.47 150.89 330.37 144.76 341.96 137.93 345.07 135.46 344.85 143.35 345.39 146.15 346.56 147.76 344.25 151.9 343.65 154.05 344.61 156.28 345.07 157.07 345.1 157.97 344.85 160.09 345.12 161.45 345.69 162.19 346.46 162.7 347.22 163.55 348.88 168.39 349.45 179.12 351.08 185.19 351.06 187.66 351.44 188.56 352.01 189.41 352.44 190.6 352.88 192.92 352.8 195.69 352.09 197.41 348.66 200.68 347.76 201.19 347.22 201.74 346.89 202.25 346.59 203.32 346.29 203.78 345.37 204.51 343.38 205.66 342.56 206.45 341.64 208.35 340.96 210.94 340.96 213.44 341.99 215.19 332.46 222.53 331.4 223.92 330.89 225.42 330.45 228.69 329.47 232.96 329.14 235.71 328.16 239.87 328.19 241.32"/><polygon class="cls-2" points="328.19 241.32 328.03 241.32 321.9 239.85 318.47 238.35 317.36 237.59 315.56 235.98 314.74 235.74 314.01 235.68 312.46 236.04 307.42 236.09 306.74 235.93 306.17 235.57 305.73 235.11 305.35 234.46 304.94 234 304.48 233.69 303.07 233.23 302.41 232.88 301.9 232.39 301.79 231.68 302 230.84 302.85 229.48 303.67 228.52 304.45 227.92 305.3 227.65 306.22 227.54 307.12 227.35 307.97 226.92 308.62 226.26 310.33 223.92 310.66 223.13 310.42 222.1 310.06 221.28 309.74 220.22 309.63 219.02 309.68 217.28 309.52 216.03 309 214.01 309.06 213.22 309.25 212.46 310.01 211.29 310.39 209.55 310.91 208 310.91 206.56 310.58 205.85 309.41 204.84 309.06 204.32 308.75 203.18 308.56 202.77 307.29 201.68 306.8 200.98 306.41 200.13 306.28 199.23 306.2 198.34 306.22 197.33 306.41 195.56 307.37 190.85 307.77 189.9 308.4 188.97 309.6 187.56 310.52 186.82 312.35 185.76 314.14 184.02 314.8 183.64 315.45 183.44 316.57 183.53 319.89 184.45 320.46 184.51 321.14 184.48 321.93 184.24 322.64 183.83 323.32 182.93 323.97 181.7 324.95 179.39 325.74 178.35 326.61 177.76 327.92 177.67 328.82 177.87 330.07 178.41 331.57 177.7 333.12 177.29 333.85 176.91 334.18 176.2 334.26 174.76 333.25 171.58 332.11 170.27 331.76 169.75 329.8 162 329.36 161.34 328.79 160.93 327.54 160.22 327.32 159.25 327.46 157.72 329.47 150.89 330.37 144.76 341.96 137.93 345.07 135.46 344.85 143.35 345.39 146.15 346.56 147.76 344.25 151.9 343.65 154.05 344.61 156.28 345.07 157.07 345.1 157.97 344.85 160.09 345.12 161.45 345.69 162.19 346.46 162.7 347.22 163.55 348.88 168.39 349.45 179.12 351.08 185.19 351.06 187.66 351.44 188.56 352.01 189.41 352.44 190.6 352.88 192.92 352.8 195.69 352.09 197.41 348.66 200.68 347.76 201.19 347.22 201.74 346.89 202.25 346.59 203.32 346.29 203.78 345.37 204.51 343.38 205.66 342.56 206.45 341.64 208.35 340.96 210.94 340.96 213.44 341.99 215.19 332.46 222.53 331.4 223.92 330.89 225.42 330.45 228.69 329.47 232.96 329.14 235.71 328.16 239.87 328.19 241.32"/><polygon class="cls-1" points="341.2 102.76 341.48 103.5 342.48 104.8 343.16 106.22 343.14 107.25 342.62 110.19 342.56 111.53 343.74 116.16 345.15 132.57 345.07 135.45 341.96 137.93 330.37 144.76 329.23 142.53 328.16 141.03 326.97 139.62 321.6 135.29 321 135.1 320.68 135.54 320.51 136.13 319.94 139.84 319.21 140.33 318.04 140.49 310.12 139.35 307.56 139.65 304.51 140.46 304.07 140.76 303.91 141.28 304.07 141.8 304.56 142.67 304.7 143.05 304.62 143.54 304.35 144.19 303.83 144.79 303.26 145.17 302.58 145.42 301.9 145.53 301.16 145.44 300.37 144.96 299.94 144.36 299.25 142.97 298.74 142.56 298.03 142.45 294.82 142.94 293.92 142.94 292.91 142.75 291.77 142.12 290.9 141.44 290.03 140.6 289.18 140 288.34 139.73 287.22 139.97 286.63 140.41 286.16 140.98 285.1 142.83 284.64 143.46 283.39 144.76 281.92 146.02 280.2 147.24 279.47 147.49 278.79 147.3 278.49 146.42 278.6 145.72 279.11 144.38 279.27 143.54 279.3 142.72 279.08 141.22 278.73 139.73 278.27 139.24 277.56 138.91 274.76 138.8 271.68 138.28 266.21 136.05 265.94 133.47 265.31 130.8 264.09 129.74 262.94 129.9 261.91 129.9 261.23 129.44 261.31 128.21 262.04 126.72 262.83 126.44 263.7 126.69 264.74 126.72 265.96 125.95 267.54 123.56 268.55 122.66 269.69 122.28 271.82 121.84 272.96 121.38 274.13 121.19 276.91 121.73 278.19 121.82 279.3 121.3 280.83 119.78 282.08 119.53 283.79 118.47 284.72 117 286.08 113.57 290.16 108.97 291.28 108.23 292.37 107.74 295.66 105.35 296.94 104.15 298.33 102.08 298.3 101.75 300.67 100.8 321.31 91.41 333.2 101.43 335 102.54 335.54 102.52 336.57 102.16 337.39 101.94 338.15 102 340 102.6 341.2 102.76"/><polygon class="cls-2" points="341.2 102.76 341.48 103.5 342.48 104.8 343.16 106.22 343.14 107.25 342.62 110.19 342.56 111.53 343.74 116.16 345.15 132.57 345.07 135.45 341.96 137.93 330.37 144.76 329.23 142.53 328.16 141.03 326.97 139.62 321.6 135.29 321 135.1 320.68 135.54 320.51 136.13 319.94 139.84 319.21 140.33 318.04 140.49 310.12 139.35 307.56 139.65 304.51 140.46 304.07 140.76 303.91 141.28 304.07 141.8 304.56 142.67 304.7 143.05 304.62 143.54 304.35 144.19 303.83 144.79 303.26 145.17 302.58 145.42 301.9 145.53 301.16 145.44 300.37 144.96 299.94 144.36 299.25 142.97 298.74 142.56 298.03 142.45 294.82 142.94 293.92 142.94 292.91 142.75 291.77 142.12 290.9 141.44 290.03 140.6 289.18 140 288.34 139.73 287.22 139.97 286.63 140.41 286.16 140.98 285.1 142.83 284.64 143.46 283.39 144.76 281.92 146.02 280.2 147.24 279.47 147.49 278.79 147.3 278.49 146.42 278.6 145.72 279.11 144.38 279.27 143.54 279.3 142.72 279.08 141.22 278.73 139.73 278.27 139.24 277.56 138.91 274.76 138.8 271.68 138.28 266.21 136.05 265.94 133.47 265.31 130.8 264.09 129.74 262.94 129.9 261.91 129.9 261.23 129.44 261.31 128.21 262.04 126.72 262.83 126.44 263.7 126.69 264.74 126.72 265.96 125.95 267.54 123.56 268.55 122.66 269.69 122.28 271.82 121.84 272.96 121.38 274.13 121.19 276.91 121.73 278.19 121.82 279.3 121.3 280.83 119.78 282.08 119.53 283.79 118.47 284.72 117 286.08 113.57 290.16 108.97 291.28 108.23 292.37 107.74 295.66 105.35 296.94 104.15 298.33 102.08 298.3 101.75 300.67 100.8 321.31 91.41 333.2 101.43 335 102.54 335.54 102.52 336.57 102.16 337.39 101.94 338.15 102 340 102.6 341.2 102.76"/><polyline class="cls-3" points="312.46 236.04 307.04 240.61 305.57 242.95 305.54 243.69 305.87 246.11 306.25 247.14 306.9 247.82 307.86 248.2 310.52 248.45 311.72 249.16 312.84 250.27 314.09 252.89 314.94 254.16 316.51 255.94 316.76 257.24 316.95 259.15 317.36 260.4 317.93 261.41 318.58 262.3 319.32 263.15 320.13 263.56 322.31 263.48 323.4 263.67 326.45 265.22 327.43 265.57 328.49 265.82 329.53 265.93 330.56 265.82 332.49 265.33 333.28 265.33 334.13 265.76 334.45 266.44 334.18 266.85 332.9 268.07 332.19 268.89 331.59 270.82 331.3 271.48 330.89 271.97 330.42 272.19 328.87 272.38 327.08 272.81 326.34 273.08 325.63 273.49 324.33 274.58 323.43 275.15 320.65 276.16 318.17 276.54 317.49 276.81 316.92 277.22 315.97 278.23 313.71 282.09 311.81 284.65 311.1 284.87 309.82 285.74 309.41 285.74 308.92 285.39 307.07 283.78 306.36 283.4 305.76 283.21 305.33 283.29 304.35 283.35 303.96 283.48 302.66 284.46 301.43 284.95 300.45 285.06 299.31 284.98 298.19 284.82 297.24 284.54 296.4 284.05 295.96 283.67 295.06 282.64 293.59 280.43 293.02 279.83 292.21 279.4 291.14 279.29 290.14 279.4 289.73 278.99 289.43 278.06 289.51 275.59 289.76 274.55 290.08 273.85 290.68 273.27 290.87 272.89 290.82 272.27 290.63 271.56 290.03 270.47 288.97 269.16 288.78 268.54 288.64 267.64 288.58 262.99 288.78 261.95 288.97 261.51 289.43 260.75 290.25 259.8 290.71 259.04 290.9 258 290.44 257.4 289.89 256.94 286.13 256.15 284.88 255.85 285.24 255.63 286 254.27 285.86 252.5"/><polyline class="cls-3" points="328.16 239.87 328.19 241.32 328.03 241.32 321.9 239.85 318.47 238.35 317.36 237.59 315.56 235.98 314.74 235.74 314.01 235.68 312.46 236.04"/><polyline class="cls-3" points="409.47 461.26 408.66 461.26 405.83 459.14 403.27 458.02 402.18 456.99 392.43 443.89 390.12 436.93 388.92 430.88 388.35 422.09 388.35 418.36 389.14 418.12 390.34 417.87 391.86 417.3"/><polyline class="cls-3" points="396.3 509.74 402.53 481.84 402.48 480.48 402.23 479.69 402.53 478.68 406.83 472.78 407.21 471.99 408.63 467.03 408.76 465.92 408.74 465.07 408.38 463.6 408.19 462.35 408.66 461.26 409.47 461.26"/><polyline class="cls-3" points="360.77 532.5 360.01 527.25 360.01 524.3 361.05 522.86 362.57 522.07 364.2 519.4 365.89 518.37 366.46 517.28 366.87 515.08 367.25 513.99 368.21 512.71 369.24 512 370.33 511.43 371.47 510.56 373 508.3 373.32 506.04 372.51 499.86 373.65 499.97 377.6 500.76 382.58 502.31 382.96 502.34 384.35 502.12 384.97 502.15 385.65 502.31 386.85 502.75 390.17 503.37 391.4 503.75 392.41 504.22 393.11 504.81 393.79 505.55 394.2 506.75 394.37 507.73 394.42 509.09 394.23 509.99 394.42 510.72 395.37 510.83 396.3 509.74"/><path class="cls-1" d="M409.1,155l-30.94-16.45A34.58,34.58,0,0,1,409.1,120Z"/><path class="cls-4" d="M409.1,155l-20.6,28.35a34.55,34.55,0,0,1-10.34-44.8Z"/><path class="cls-5" d="M409.1,155V120a35,35,0,0,1,0,70.08,33.64,33.64,0,0,1-20.6-6.69Z"/><path class="cls-1" d="M202,419.31,171.45,407.6a32.32,32.32,0,0,1,30.51-21Z"/><path class="cls-4" d="M202,419.31l10.1,31.08a32.69,32.69,0,0,1-41.18-21,31,31,0,0,1,.57-21.81Z"/><path class="cls-5" d="M202,419.31V386.63a32.69,32.69,0,0,1,32.69,32.68,32.16,32.16,0,0,1-22.59,31.08Z"/><path class="cls-1" d="M493.88,373l-31.71-10.3a32.82,32.82,0,0,1,31.71-23Z"/><path class="cls-4" d="M493.88,373l2.32,33.26a33.33,33.33,0,0,1-35.58-30.93,32.2,32.2,0,0,1,1.55-12.63Z"/><path class="cls-5" d="M493.88,373V339.61a33.34,33.34,0,0,1,2.32,66.6Z"/><text class="cls-6" transform="translate(165.64 458.91)">36%</text><text class="cls-6" transform="translate(238.25 430.07)">45%</text><text class="cls-6" transform="translate(524.06 349.24)">49%</text><text class="cls-6" transform="translate(158.3 398.29)">Central</text><text class="cls-6" transform="translate(461.9 418.12)">31%</text><text class="cls-6" transform="translate(453.9 353.63)">South</text><text class="cls-6" transform="translate(449.19 143.42)">60%</text><text class="cls-6" transform="translate(361.76 192.21)">23%</text><text class="cls-6" transform="translate(375.14 130.96)">North</text><text class="cls-7" transform="translate(0 148.43)">The central <tspan class="cls-8" x="110.46" y="0">r</tspan><tspan x="117.07" y="0">egion </tspan></text><text class="cls-7" transform="translate(0 177.03)">in Malawi whe<tspan class="cls-8" x="132.97" y="0">r</tspan><tspan x="139.58" y="0">e the </tspan></text><text class="cls-7" transform="translate(0 205.64)">cultural distance </text><text class="cls-7" transform="translate(0 234.24)">to science is the </text><text class="cls-7" transform="translate(0 262.84)">g<tspan class="cls-9" x="12.05" y="0">r</tspan><tspan x="18.69" y="0">eatest</tspan></text><text class="cls-10" transform="translate(0 301.83)">Population</text><text class="cls-10" transform="translate(71.79 301.83)"> </text><text class="cls-10" transform="translate(0 322.83)">7,523,340</text><line class="cls-11" x1="138.79" y1="349.44" y2="349.44"/><path class="cls-11" d="M274.55,531.94A141.27,141.27,0,1,0,133.29,390.68,141.25,141.25,0,0,0,274.55,531.94Z"/></svg>