<svg xmlns="http://www.w3.org/2000/svg" viewBox="0 0 43.93 35.34"><defs><style>.cls-1{fill:#b1cc92;}.cls-2{fill:#3f1a13;}</style></defs><g id="Layer_2" data-name="Layer 2"><g id="Isolation_Mode" data-name="Isolation Mode"><circle class="cls-1" cx="5.57" cy="5.57" r="5.57"/><path class="cls-2" d="M1.52,19.49l.53,0a1.33,1.33,0,0,0,.18.53.92.92,0,0,0,.43.33,1.59,1.59,0,0,0,.66.13,1.42,1.42,0,0,0,.57-.1.83.83,0,0,0,.38-.26.63.63,0,0,0,.12-.37.53.53,0,0,0-.12-.35.92.92,0,0,0-.39-.26l-.76-.21a3.9,3.9,0,0,1-.83-.26,1.14,1.14,0,0,1-.46-.4,1,1,0,0,1-.15-.54,1.11,1.11,0,0,1,.18-.61,1.29,1.29,0,0,1,.54-.43,2.22,2.22,0,0,1,.79-.14,2.17,2.17,0,0,1,.84.15,1.15,1.15,0,0,1,.56.45,1.25,1.25,0,0,1,.22.68l-.55,0a.87.87,0,0,0-.3-.61A1.14,1.14,0,0,0,3.21,17a1.18,1.18,0,0,0-.75.19.57.57,0,0,0-.23.45.48.48,0,0,0,.16.38,2.2,2.2,0,0,0,.86.31,6.15,6.15,0,0,1,1,.27,1.43,1.43,0,0,1,.56.44,1.06,1.06,0,0,1,.17.61,1.17,1.17,0,0,1-.19.65,1.27,1.27,0,0,1-.57.47,2,2,0,0,1-.82.17,2.53,2.53,0,0,1-1-.17,1.35,1.35,0,0,1-.62-.51A1.39,1.39,0,0,1,1.52,19.49Z"/><path class="cls-2" d="M5.69,20.87v-4.3h.86l1,3c.09.28.16.5.2.64L8,19.56l1-3h.76v4.3H9.24v-3.6L8,20.87H7.48L6.24,17.21v3.66Z"/><path class="cls-2" d="M10.24,20.87l1.65-4.3h.61l1.76,4.3h-.65l-.5-1.31h-1.8l-.47,1.31Zm1.24-1.77h1.45l-.45-1.19c-.13-.36-.23-.66-.3-.89a4.76,4.76,0,0,1-.23.82Z"/><path class="cls-2" d="M14.69,20.87v-4.3h.57v3.79h2.11v.51Z"/><path class="cls-2" d="M18,20.87v-4.3h.57v3.79h2.12v.51Z"/><path class="cls-2" d="M1.24,28.07l1.65-4.3H3.5l1.76,4.3H4.61l-.5-1.31H2.31l-.47,1.31ZM2.48,26.3H3.93l-.45-1.19c-.13-.36-.23-.66-.3-.89A4.76,4.76,0,0,1,3,25Z"/><path class="cls-2" d="M7.72,26.38v-.5H9.54v1.6a3.31,3.31,0,0,1-.86.5,2.67,2.67,0,0,1-.92.17,2.47,2.47,0,0,1-1.15-.27,1.8,1.8,0,0,1-.78-.79,2.52,2.52,0,0,1-.26-1.14,2.57,2.57,0,0,1,.26-1.17A1.79,1.79,0,0,1,6.58,24a2.46,2.46,0,0,1,1.14-.26,2.24,2.24,0,0,1,.84.15,1.38,1.38,0,0,1,.59.42,2,2,0,0,1,.33.7L9,25.11a1.35,1.35,0,0,0-.24-.51.86.86,0,0,0-.41-.3,1.41,1.41,0,0,0-.59-.12,1.71,1.71,0,0,0-.67.12,1.33,1.33,0,0,0-.46.31,1.41,1.41,0,0,0-.27.43,2.2,2.2,0,0,0-.17.86,2.07,2.07,0,0,0,.2,1,1.25,1.25,0,0,0,.58.58,1.85,1.85,0,0,0,.8.19,1.79,1.79,0,0,0,.72-.15,1.72,1.72,0,0,0,.53-.3v-.8Z"/><path class="cls-2" d="M10.39,28.07v-4.3h1.9a2.45,2.45,0,0,1,.87.12.91.91,0,0,1,.48.41,1.19,1.19,0,0,1,.18.64,1.06,1.06,0,0,1-.3.77,1.49,1.49,0,0,1-.91.4,1.25,1.25,0,0,1,.34.22,2.47,2.47,0,0,1,.47.57l.75,1.17h-.71l-.57-.9c-.17-.26-.3-.45-.41-.59a1.56,1.56,0,0,0-.29-.29,1,1,0,0,0-.26-.11l-.32,0H11v1.91Zm.57-2.4h1.22a2,2,0,0,0,.61-.08.71.71,0,0,0,.33-.26.68.68,0,0,0,.11-.39.63.63,0,0,0-.22-.5,1,1,0,0,0-.7-.19H11Z"/><path class="cls-2" d="M14.81,28.07v-4.3h.57v4.3Z"/><path class="cls-2" d="M19.44,26.56l.57.14a1.89,1.89,0,0,1-.64,1.07,1.75,1.75,0,0,1-1.14.37,2,2,0,0,1-1.13-.28,1.8,1.8,0,0,1-.66-.82,3,3,0,0,1-.23-1.15,2.52,2.52,0,0,1,.26-1.17A1.68,1.68,0,0,1,17.2,24a2,2,0,0,1,1-.26,1.79,1.79,0,0,1,1.09.33,1.69,1.69,0,0,1,.61.92l-.56.13a1.32,1.32,0,0,0-.44-.68,1.16,1.16,0,0,0-.71-.22,1.38,1.38,0,0,0-.83.24,1.27,1.27,0,0,0-.47.64,2.81,2.81,0,0,0,0,1.78,1.18,1.18,0,0,0,.5.61,1.32,1.32,0,0,0,.73.2,1.23,1.23,0,0,0,.8-.27A1.46,1.46,0,0,0,19.44,26.56Z"/><path class="cls-2" d="M23.53,23.77h.57v2.48a2.88,2.88,0,0,1-.15,1,1.26,1.26,0,0,1-.53.62,1.85,1.85,0,0,1-1,.24,2.07,2.07,0,0,1-1-.21,1.23,1.23,0,0,1-.55-.6,2.86,2.86,0,0,1-.16-1.08V23.77h.57v2.48a2.37,2.37,0,0,0,.1.82.76.76,0,0,0,.36.41,1.21,1.21,0,0,0,.62.15,1.16,1.16,0,0,0,.89-.29,1.61,1.61,0,0,0,.27-1.09Z"/><path class="cls-2" d="M25,28.07v-4.3h.57v3.79H27.7v.51Z"/><path class="cls-2" d="M29.47,28.07V24.28H28.06v-.51h3.4v.51H30v3.79Z"/><path class="cls-2" d="M34.86,23.77h.57v2.48a3.15,3.15,0,0,1-.14,1,1.32,1.32,0,0,1-.53.62,1.89,1.89,0,0,1-1,.24,2,2,0,0,1-1-.21,1.19,1.19,0,0,1-.55-.6,2.83,2.83,0,0,1-.17-1.08V23.77h.57v2.48a2.33,2.33,0,0,0,.11.82.76.76,0,0,0,.36.41,1.15,1.15,0,0,0,.61.15,1.2,1.2,0,0,0,.9-.29,1.62,1.62,0,0,0,.26-1.09Z"/><path class="cls-2" d="M36.39,28.07v-4.3h1.9a2.51,2.51,0,0,1,.88.12.93.93,0,0,1,.47.41,1.19,1.19,0,0,1,.18.64,1.1,1.1,0,0,1-.29.77,1.54,1.54,0,0,1-.92.4,1.25,1.25,0,0,1,.34.22,2.78,2.78,0,0,1,.48.57l.74,1.17h-.71l-.57-.9c-.17-.26-.3-.45-.41-.59a1.31,1.31,0,0,0-.29-.29.85.85,0,0,0-.26-.11l-.31,0H37v1.91Zm.57-2.4h1.22a2,2,0,0,0,.61-.08.67.67,0,0,0,.33-.26.69.69,0,0,0,.12-.39.64.64,0,0,0-.23-.5,1,1,0,0,0-.69-.19H37Z"/><path class="cls-2" d="M40.72,28.07v-4.3h3.11v.51H41.29v1.31h2.38v.51H41.29v1.46h2.64v.51Z"/><path class="cls-2" d="M1.52,33.89l.53,0a1.33,1.33,0,0,0,.18.53.92.92,0,0,0,.43.33,1.59,1.59,0,0,0,.66.13,1.42,1.42,0,0,0,.57-.1.83.83,0,0,0,.38-.26.63.63,0,0,0,.12-.37.55.55,0,0,0-.12-.35.92.92,0,0,0-.39-.26l-.76-.21A3.9,3.9,0,0,1,2.29,33a1.14,1.14,0,0,1-.46-.4,1,1,0,0,1-.15-.54,1.11,1.11,0,0,1,.18-.61A1.29,1.29,0,0,1,2.4,31a2.22,2.22,0,0,1,.79-.14,2.17,2.17,0,0,1,.84.15,1.15,1.15,0,0,1,.56.45,1.25,1.25,0,0,1,.22.68l-.55,0a.87.87,0,0,0-.3-.61,1.14,1.14,0,0,0-.75-.21,1.18,1.18,0,0,0-.75.19.57.57,0,0,0-.23.45.48.48,0,0,0,.16.38,2.2,2.2,0,0,0,.86.31,7.59,7.59,0,0,1,1,.27,1.43,1.43,0,0,1,.56.44,1.06,1.06,0,0,1,.17.61,1.17,1.17,0,0,1-.19.65,1.27,1.27,0,0,1-.57.47,2,2,0,0,1-.82.17,2.53,2.53,0,0,1-1-.17,1.35,1.35,0,0,1-.62-.51A1.39,1.39,0,0,1,1.52,33.89Z"/><path class="cls-2" d="M5.72,35.27V31H8.83v.51H6.29v1.31H8.67v.51H6.29v1.46H8.93v.51Z"/><path class="cls-2" d="M12.78,33.76l.57.14A1.9,1.9,0,0,1,12.7,35a1.75,1.75,0,0,1-1.13.37,2,2,0,0,1-1.13-.28,1.75,1.75,0,0,1-.66-.82,2.78,2.78,0,0,1-.23-1.15,2.52,2.52,0,0,1,.25-1.17,1.75,1.75,0,0,1,.74-.76,2,2,0,0,1,1-.26,1.74,1.74,0,0,1,1.08.33,1.64,1.64,0,0,1,.61.92l-.56.13a1.31,1.31,0,0,0-.43-.68,1.19,1.19,0,0,0-.72-.22,1.35,1.35,0,0,0-.82.24,1.21,1.21,0,0,0-.47.64,2.57,2.57,0,0,0-.14.82,2.53,2.53,0,0,0,.17,1,1.16,1.16,0,0,0,.49.61,1.36,1.36,0,0,0,.73.2,1.24,1.24,0,0,0,.81-.27A1.46,1.46,0,0,0,12.78,33.76Z"/><path class="cls-2" d="M15.14,35.27V31.48H13.72V31h3.41v.51H15.71v3.79Z"/><path class="cls-2" d="M17.54,33.17a2.33,2.33,0,0,1,.57-1.67,2,2,0,0,1,1.48-.61,2.08,2.08,0,0,1,1.08.29,1.78,1.78,0,0,1,.72.79,2.53,2.53,0,0,1,.26,1.15,2.46,2.46,0,0,1-.27,1.17,1.67,1.67,0,0,1-.75.78,2.15,2.15,0,0,1-2.12,0,2,2,0,0,1-.73-.8A2.51,2.51,0,0,1,17.54,33.17Zm.58,0a1.73,1.73,0,0,0,.42,1.23,1.4,1.4,0,0,0,1.05.44,1.35,1.35,0,0,0,1.05-.45,1.81,1.81,0,0,0,.42-1.28,2.14,2.14,0,0,0-.18-.91,1.36,1.36,0,0,0-.52-.61,1.41,1.41,0,0,0-.76-.22,1.45,1.45,0,0,0-1,.42A1.86,1.86,0,0,0,18.12,33.18Z"/><path class="cls-2" d="M22.39,35.27V31h1.9a2.45,2.45,0,0,1,.87.12.91.91,0,0,1,.48.41,1.19,1.19,0,0,1,.18.64,1.06,1.06,0,0,1-.3.77,1.43,1.43,0,0,1-.91.4,1.25,1.25,0,0,1,.34.22,2.47,2.47,0,0,1,.47.57l.75,1.17h-.71l-.57-.9c-.17-.26-.3-.45-.41-.59a1.56,1.56,0,0,0-.29-.29,1,1,0,0,0-.26-.11l-.32,0H23v1.91Zm.57-2.4h1.22a2,2,0,0,0,.61-.08.71.71,0,0,0,.33-.26.68.68,0,0,0,.11-.39.63.63,0,0,0-.22-.5,1,1,0,0,0-.7-.19H23Z"/></g></g></svg>