<svg xmlns="http://www.w3.org/2000/svg" viewBox="0 0 49.78 52.33"><defs><style>.cls-1{fill:#b1cc92;}.cls-2{fill:#3f1a13;}</style></defs><g id="Layer_2" data-name="Layer 2"><g id="Isolation_Mode" data-name="Isolation Mode"><path class="cls-1" d="M13.74,27.49A13.75,13.75,0,1,0,0,13.74,13.76,13.76,0,0,0,13.74,27.49"/><path class="cls-2" d="M7.53,37.86v-4.3H8.1v3.79h2.12v.51Z"/><path class="cls-2" d="M10.42,37.86l1.65-4.3h.61l1.76,4.3H13.8l-.51-1.3H11.5L11,37.86Zm1.24-1.77h1.46l-.45-1.18a8.51,8.51,0,0,1-.3-.9,6.48,6.48,0,0,1-.24.83Z"/><path class="cls-2" d="M14.91,37.86v-4.3h1.9a2.45,2.45,0,0,1,.87.12,1,1,0,0,1,.48.41,1.2,1.2,0,0,1,.18.65,1.08,1.08,0,0,1-.3.77,1.43,1.43,0,0,1-.91.39,1.82,1.82,0,0,1,.34.22,2.47,2.47,0,0,1,.47.57l.75,1.17H18L17.41,37c-.17-.26-.31-.46-.41-.6a1.45,1.45,0,0,0-.29-.28.76.76,0,0,0-.26-.12l-.32,0h-.66v1.91Zm.56-2.4H16.7a1.84,1.84,0,0,0,.6-.08.64.64,0,0,0,.34-.26.67.67,0,0,0,.11-.38.65.65,0,0,0-.22-.51,1,1,0,0,0-.7-.19H15.47Z"/><path class="cls-2" d="M21.24,36.17v-.5h1.82v1.59a3.2,3.2,0,0,1-.87.5,2.37,2.37,0,0,1-.91.17,2.44,2.44,0,0,1-1.15-.27,1.83,1.83,0,0,1-.78-.78,2.43,2.43,0,0,1-.26-1.15,2.57,2.57,0,0,1,.26-1.17,1.74,1.74,0,0,1,.75-.81,2.46,2.46,0,0,1,1.14-.26,2.24,2.24,0,0,1,.84.15,1.38,1.38,0,0,1,.59.42,1.89,1.89,0,0,1,.32.7l-.51.15a1.4,1.4,0,0,0-.24-.52.93.93,0,0,0-.41-.3,1.41,1.41,0,0,0-.59-.11,1.92,1.92,0,0,0-.67.11,1.34,1.34,0,0,0-.46.32,1.37,1.37,0,0,0-.27.42,2.29,2.29,0,0,0-.17.87,2.13,2.13,0,0,0,.2,1,1.19,1.19,0,0,0,.58.57,1.71,1.71,0,0,0,.8.19,2,2,0,0,0,.72-.14A2,2,0,0,0,22.5,37v-.8Z"/><path class="cls-2" d="M23.91,37.86v-4.3H27v.51H24.48v1.32h2.37v.5H24.48v1.46h2.63v.51Z"/><path class="cls-2" d="M7.09,45.06l1.65-4.3h.61l1.76,4.3h-.65l-.5-1.3H8.16l-.47,1.3ZM8.33,43.3H9.78l-.45-1.19c-.13-.37-.24-.66-.3-.89A6.76,6.76,0,0,1,8.8,42Z"/><path class="cls-2" d="M13.57,43.37v-.5h1.82v1.59a3.2,3.2,0,0,1-.87.5,2.37,2.37,0,0,1-.91.17,2.44,2.44,0,0,1-1.15-.27,1.83,1.83,0,0,1-.78-.78,2.43,2.43,0,0,1-.26-1.15,2.57,2.57,0,0,1,.26-1.17,1.74,1.74,0,0,1,.75-.81,2.46,2.46,0,0,1,1.14-.26,2.24,2.24,0,0,1,.84.15,1.38,1.38,0,0,1,.59.42,1.87,1.87,0,0,1,.32.71l-.51.14a1.48,1.48,0,0,0-.24-.52,1,1,0,0,0-.41-.3,1.59,1.59,0,0,0-.59-.11,1.71,1.71,0,0,0-.67.12,1.2,1.2,0,0,0-.46.31,1.37,1.37,0,0,0-.27.42,2.29,2.29,0,0,0-.17.87,2.13,2.13,0,0,0,.2,1,1.19,1.19,0,0,0,.58.57,1.71,1.71,0,0,0,.8.19,2,2,0,0,0,.72-.14,2,2,0,0,0,.53-.31v-.8Z"/><path class="cls-2" d="M16.24,45.06v-4.3h1.9a2.45,2.45,0,0,1,.87.12,1,1,0,0,1,.48.41,1.2,1.2,0,0,1,.18.65,1.08,1.08,0,0,1-.3.77,1.43,1.43,0,0,1-.91.39,1.82,1.82,0,0,1,.34.22,2.47,2.47,0,0,1,.47.57L20,45.06h-.71l-.57-.89c-.17-.26-.31-.46-.41-.6a1.45,1.45,0,0,0-.29-.28.76.76,0,0,0-.26-.12l-.32,0H16.8v1.91Zm.56-2.4H18a1.84,1.84,0,0,0,.6-.08.64.64,0,0,0,.34-.26.67.67,0,0,0,.11-.38.65.65,0,0,0-.22-.51,1,1,0,0,0-.7-.19H16.8Z"/><path class="cls-2" d="M20.66,45.06v-4.3h.56v4.3Z"/><path class="cls-2" d="M25.29,43.55l.57.15a1.9,1.9,0,0,1-.64,1.06,1.75,1.75,0,0,1-1.14.37A2,2,0,0,1,23,44.85a1.75,1.75,0,0,1-.66-.82,3,3,0,0,1-.23-1.15,2.52,2.52,0,0,1,.26-1.17,1.73,1.73,0,0,1,.73-.76,2.14,2.14,0,0,1,1-.26,1.68,1.68,0,0,1,1.7,1.25l-.56.13a1.32,1.32,0,0,0-.44-.68,1.15,1.15,0,0,0-.71-.21,1.45,1.45,0,0,0-.83.23,1.31,1.31,0,0,0-.47.64,2.57,2.57,0,0,0-.13.83,2.52,2.52,0,0,0,.16.95,1.12,1.12,0,0,0,.49.61,1.37,1.37,0,0,0,.73.21,1.24,1.24,0,0,0,.81-.28A1.43,1.43,0,0,0,25.29,43.55Z"/><path class="cls-2" d="M29.38,40.76H30v2.49a2.82,2.82,0,0,1-.15,1,1.22,1.22,0,0,1-.53.62,1.85,1.85,0,0,1-1,.24,2.07,2.07,0,0,1-1-.21,1.11,1.11,0,0,1-.55-.6,2.84,2.84,0,0,1-.16-1.07V40.76h.57v2.48a2.44,2.44,0,0,0,.1.83.84.84,0,0,0,.36.41,1.29,1.29,0,0,0,.62.14,1.21,1.21,0,0,0,.89-.28,1.64,1.64,0,0,0,.27-1.1Z"/><path class="cls-2" d="M30.87,45.06v-4.3h.57v3.79h2.11v.51Z"/><path class="cls-2" d="M35.32,45.06V41.27H33.91v-.51h3.4v.51H35.89v3.79Z"/><path class="cls-2" d="M40.71,40.76h.57v2.49a2.82,2.82,0,0,1-.15,1,1.2,1.2,0,0,1-.52.62,1.89,1.89,0,0,1-1,.24,2,2,0,0,1-1-.21,1.11,1.11,0,0,1-.55-.6,2.81,2.81,0,0,1-.17-1.07V40.76h.57v2.48a2.39,2.39,0,0,0,.11.83.77.77,0,0,0,.35.41,1.32,1.32,0,0,0,.62.14,1.24,1.24,0,0,0,.9-.28,1.71,1.71,0,0,0,.26-1.1Z"/><path class="cls-2" d="M42.24,45.06v-4.3h1.9a2.45,2.45,0,0,1,.87.12,1,1,0,0,1,.48.41,1.2,1.2,0,0,1,.18.65,1.08,1.08,0,0,1-.3.77,1.43,1.43,0,0,1-.91.39,1.82,1.82,0,0,1,.34.22,2.47,2.47,0,0,1,.47.57L46,45.06h-.71l-.57-.89c-.17-.26-.3-.46-.41-.6a1.45,1.45,0,0,0-.29-.28.76.76,0,0,0-.26-.12l-.32,0H42.8v1.91Zm.56-2.4H44a2,2,0,0,0,.61-.08.66.66,0,0,0,.33-.26.67.67,0,0,0,.11-.38.65.65,0,0,0-.22-.51,1,1,0,0,0-.7-.19H42.8Z"/><path class="cls-2" d="M46.57,45.06v-4.3h3.11v.51H47.14v1.32h2.38v.5H47.14v1.46h2.64v.51Z"/><path class="cls-2" d="M7.36,50.88l.54-.05a1.15,1.15,0,0,0,.18.53.87.87,0,0,0,.43.33,1.56,1.56,0,0,0,.66.13,1.62,1.62,0,0,0,.57-.09.83.83,0,0,0,.37-.27.62.62,0,0,0,.13-.37.55.55,0,0,0-.12-.35.82.82,0,0,0-.39-.25A5.35,5.35,0,0,0,9,50.28,4.42,4.42,0,0,1,8.14,50a1.14,1.14,0,0,1-.46-.4,1,1,0,0,1-.15-.54,1.11,1.11,0,0,1,.18-.6A1.22,1.22,0,0,1,8.25,48,2,2,0,0,1,9,47.89a2.17,2.17,0,0,1,.84.15,1.23,1.23,0,0,1,.56.46,1.29,1.29,0,0,1,.21.67l-.54,0a.88.88,0,0,0-.3-.62,1.16,1.16,0,0,0-.75-.21,1.18,1.18,0,0,0-.75.19.56.56,0,0,0-.23.46.49.49,0,0,0,.16.38,2.25,2.25,0,0,0,.86.3,5.87,5.87,0,0,1,1,.28,1.23,1.23,0,0,1,.55.43,1.1,1.1,0,0,1,.18.62,1.16,1.16,0,0,1-.19.64,1.27,1.27,0,0,1-.57.47,1.83,1.83,0,0,1-.82.17,2.36,2.36,0,0,1-1-.17,1.35,1.35,0,0,1-.62-.51A1.46,1.46,0,0,1,7.36,50.88Z"/><path class="cls-2" d="M11.57,52.26V48h3.11v.51H12.14v1.32h2.38v.5H12.14v1.46h2.64v.51Z"/><path class="cls-2" d="M18.63,50.75l.56.15A1.84,1.84,0,0,1,18.55,52a1.75,1.75,0,0,1-1.13.37,2,2,0,0,1-1.13-.28,1.83,1.83,0,0,1-.67-.82,2.94,2.94,0,0,1-.22-1.15,2.52,2.52,0,0,1,.25-1.17,1.79,1.79,0,0,1,.73-.76,2.2,2.2,0,0,1,1-.26,1.77,1.77,0,0,1,1.09.33,1.71,1.71,0,0,1,.61.92l-.56.13a1.31,1.31,0,0,0-.43-.68,1.18,1.18,0,0,0-.72-.21,1.42,1.42,0,0,0-.82.23,1.25,1.25,0,0,0-.47.64,2.58,2.58,0,0,0-.14.83,2.74,2.74,0,0,0,.16,1,1.18,1.18,0,0,0,.5.61,1.35,1.35,0,0,0,.73.21,1.24,1.24,0,0,0,.81-.28A1.43,1.43,0,0,0,18.63,50.75Z"/><path class="cls-2" d="M21,52.26V48.47H19.57V48H23v.51H21.56v3.79Z"/><path class="cls-2" d="M23.39,50.17A2.36,2.36,0,0,1,24,48.49a2,2,0,0,1,1.48-.6,2.07,2.07,0,0,1,1.08.28,1.89,1.89,0,0,1,.72.79,2.57,2.57,0,0,1,.25,1.16,2.51,2.51,0,0,1-.26,1.17,1.82,1.82,0,0,1-.75.78,2.2,2.2,0,0,1-1,.26A2.05,2.05,0,0,1,24.36,52a1.94,1.94,0,0,1-.73-.8A2.49,2.49,0,0,1,23.39,50.17Zm.58,0a1.72,1.72,0,0,0,.42,1.22,1.38,1.38,0,0,0,1.05.45,1.32,1.32,0,0,0,1-.46,1.8,1.8,0,0,0,.42-1.28,2.14,2.14,0,0,0-.18-.91,1.41,1.41,0,0,0-.52-.61,1.43,1.43,0,0,0-.76-.21,1.47,1.47,0,0,0-1,.41A1.87,1.87,0,0,0,24,50.18Z"/><path class="cls-2" d="M28.24,52.26V48h1.9a2.45,2.45,0,0,1,.87.12,1,1,0,0,1,.48.41,1.2,1.2,0,0,1,.18.65,1.08,1.08,0,0,1-.3.77,1.43,1.43,0,0,1-.91.39,1.82,1.82,0,0,1,.34.22,2.47,2.47,0,0,1,.47.57L32,52.26h-.71l-.57-.89c-.17-.26-.31-.46-.41-.6a1.45,1.45,0,0,0-.29-.28.76.76,0,0,0-.26-.12l-.32,0H28.8v1.91Zm.56-2.4H30a1.84,1.84,0,0,0,.6-.08.64.64,0,0,0,.34-.26.67.67,0,0,0,.11-.38.62.62,0,0,0-.22-.5,1,1,0,0,0-.7-.2H28.8Z"/></g></g></svg>