<svg xmlns="http://www.w3.org/2000/svg" viewBox="0 0 63.42 48.66"><defs><style>.cls-1{fill:#338ceb;}.cls-2,.cls-4,.cls-5{fill:#3f1a13;}.cls-2{stroke:#3f1a13;}.cls-3{fill:#2472b5;}.cls-4{stroke:#401a12;}</style></defs><g id="Layer_2" data-name="Layer 2"><g id="Isolation_Mode" data-name="Isolation Mode"><path class="cls-1" d="M31.81,25.65a10,10,0,1,0-10-10,10,10,0,0,0,10,10"/><line class="cls-2" x1="10.16" y1="48.66" x2="10.16" y2="28.59"/><path class="cls-3" d="M10.48,38.63a10,10,0,1,0-10-10,10,10,0,0,0,10,10"/><line class="cls-4" x1="0.28" y1="19.86" x2="29.09" y2="0.41"/><path class="cls-5" d="M33.63,40.75v-4.3h.56v4.3Z"/><path class="cls-5" d="M35.19,40.75v-4.3h.58L38,39.82V36.45h.54v4.3H38l-2.25-3.38v3.38Z"/><path class="cls-5" d="M42.59,39.24l.57.14a1.89,1.89,0,0,1-.64,1.07,1.75,1.75,0,0,1-1.14.37,2.12,2.12,0,0,1-1.13-.28,1.8,1.8,0,0,1-.66-.82,2.94,2.94,0,0,1-.22-1.15,2.52,2.52,0,0,1,.25-1.17,1.73,1.73,0,0,1,.73-.76,2.06,2.06,0,0,1,1-.26,1.79,1.79,0,0,1,1.09.33,1.69,1.69,0,0,1,.61.92l-.56.13a1.31,1.31,0,0,0-.43-.68,1.12,1.12,0,0,0-.72-.22,1.4,1.4,0,0,0-.83.24,1.25,1.25,0,0,0-.46.64,2.57,2.57,0,0,0-.14.82,2.54,2.54,0,0,0,.16,1,1.18,1.18,0,0,0,.5.61,1.43,1.43,0,0,0,.73.2,1.26,1.26,0,0,0,.81-.27A1.39,1.39,0,0,0,42.59,39.24Z"/><path class="cls-5" d="M43.87,40.75v-4.3h1.91a2.45,2.45,0,0,1,.87.12.93.93,0,0,1,.48.4,1.34,1.34,0,0,1,.17.65,1.06,1.06,0,0,1-.29.77,1.52,1.52,0,0,1-.92.4,1.24,1.24,0,0,1,.35.22,3.11,3.11,0,0,1,.47.57l.75,1.17h-.72l-.57-.9a6.17,6.17,0,0,0-.41-.59,1.13,1.13,0,0,0-.29-.29.85.85,0,0,0-.26-.11,1.24,1.24,0,0,0-.31,0h-.66v1.91Zm.57-2.4h1.22a1.67,1.67,0,0,0,.61-.09A.57.57,0,0,0,46.6,38a.69.69,0,0,0,.12-.39.63.63,0,0,0-.22-.5,1,1,0,0,0-.7-.19H44.44Z"/><path class="cls-5" d="M48.21,40.75v-4.3h3.1V37H48.78v1.31h2.37v.51H48.78v1.46h2.63v.51Z"/><path class="cls-5" d="M51.73,40.75l1.64-4.3H54l1.75,4.3H55.1l-.5-1.31H52.8l-.47,1.31ZM53,39h1.46L54,37.79c-.13-.36-.24-.66-.3-.89a5.87,5.87,0,0,1-.23.82Z"/><path class="cls-5" d="M56,39.37l.53,0a1.33,1.33,0,0,0,.18.53.92.92,0,0,0,.43.33,1.59,1.59,0,0,0,.66.13,1.42,1.42,0,0,0,.57-.1.83.83,0,0,0,.38-.26.63.63,0,0,0,.12-.37.53.53,0,0,0-.12-.35.92.92,0,0,0-.39-.26l-.76-.21a3.9,3.9,0,0,1-.83-.26,1.09,1.09,0,0,1-.46-.41.94.94,0,0,1-.15-.53,1.11,1.11,0,0,1,.18-.61,1.22,1.22,0,0,1,.54-.43,2.22,2.22,0,0,1,.79-.14,2.17,2.17,0,0,1,.84.15,1.15,1.15,0,0,1,.56.45,1.25,1.25,0,0,1,.22.68l-.55,0a.85.85,0,0,0-.3-.61,1.12,1.12,0,0,0-.75-.21,1.18,1.18,0,0,0-.75.19.56.56,0,0,0-.23.45.48.48,0,0,0,.16.38,2.2,2.2,0,0,0,.86.31,6.15,6.15,0,0,1,.95.27,1.43,1.43,0,0,1,.56.44,1.06,1.06,0,0,1,.17.61,1.17,1.17,0,0,1-.19.65,1.27,1.27,0,0,1-.57.47,2,2,0,0,1-.82.17,2.53,2.53,0,0,1-1-.17,1.35,1.35,0,0,1-.62-.51A1.39,1.39,0,0,1,56,39.37Z"/><path class="cls-5" d="M60.21,40.75v-4.3h3.11V37H60.78v1.31h2.38v.51H60.78v1.46h2.64v.51Z"/><path class="cls-5" d="M33.24,46.73l.51-.07a1.14,1.14,0,0,0,.19.67.58.58,0,0,0,.45.18.64.64,0,0,0,.37-.1.49.49,0,0,0,.21-.26,1.73,1.73,0,0,0,.06-.54v-3h.57v2.93a2,2,0,0,1-.13.83.9.9,0,0,1-.41.45,1.3,1.3,0,0,1-.67.16,1.11,1.11,0,0,1-.86-.33A1.32,1.32,0,0,1,33.24,46.73Z"/><path class="cls-5" d="M36.36,45.85a2.33,2.33,0,0,1,.57-1.67,2,2,0,0,1,1.48-.61,2.08,2.08,0,0,1,1.08.29,1.84,1.84,0,0,1,.72.79,2.52,2.52,0,0,1,.25,1.15A2.46,2.46,0,0,1,40.2,47a1.72,1.72,0,0,1-.75.78,2.1,2.1,0,0,1-1,.27,2.05,2.05,0,0,1-1.08-.29,2,2,0,0,1-.73-.8A2.51,2.51,0,0,1,36.36,45.85Zm.58,0a1.73,1.73,0,0,0,.42,1.23,1.4,1.4,0,0,0,1,.44,1.36,1.36,0,0,0,1.05-.45,1.81,1.81,0,0,0,.42-1.28,2.14,2.14,0,0,0-.18-.91,1.36,1.36,0,0,0-.52-.61,1.47,1.47,0,0,0-1.8.2A1.86,1.86,0,0,0,36.94,45.86Z"/><path class="cls-5" d="M41.17,48v-4.3h1.61a1.91,1.91,0,0,1,.79.13,1,1,0,0,1,.47.4,1.08,1.08,0,0,1,.17.57,1,1,0,0,1-.15.52,1.09,1.09,0,0,1-.45.39,1.17,1.17,0,0,1,.6.39,1,1,0,0,1,.21.65,1.32,1.32,0,0,1-.13.56,1.09,1.09,0,0,1-.32.4,1.07,1.07,0,0,1-.47.21,2.67,2.67,0,0,1-.69.08Zm.57-2.49h.93a2.22,2.22,0,0,0,.54-.05.58.58,0,0,0,.44-.59.77.77,0,0,0-.1-.38.52.52,0,0,0-.3-.22,2.38,2.38,0,0,0-.65-.06h-.86Zm0,2h1.07l.39,0a1,1,0,0,0,.33-.12.56.56,0,0,0,.21-.24.69.69,0,0,0,.09-.36.69.69,0,0,0-.47-.67,2.37,2.37,0,0,0-.63-.07h-1Z"/><path class="cls-5" d="M45,46.57l.54,0a1.33,1.33,0,0,0,.18.53.87.87,0,0,0,.43.33,1.59,1.59,0,0,0,.66.13,1.42,1.42,0,0,0,.57-.1.75.75,0,0,0,.37-.26.58.58,0,0,0,.13-.37.53.53,0,0,0-.12-.35.92.92,0,0,0-.39-.26L46.61,46a3.9,3.9,0,0,1-.83-.26,1.14,1.14,0,0,1-.46-.4,1,1,0,0,1-.15-.54,1.11,1.11,0,0,1,.18-.61,1.29,1.29,0,0,1,.54-.43,2.22,2.22,0,0,1,.79-.14,2.17,2.17,0,0,1,.84.15,1.15,1.15,0,0,1,.56.45,1.24,1.24,0,0,1,.21.68l-.54,0a.87.87,0,0,0-.3-.61,1.16,1.16,0,0,0-.75-.21,1.18,1.18,0,0,0-.75.19.57.57,0,0,0-.23.45.48.48,0,0,0,.16.38,2.2,2.2,0,0,0,.86.31,6.15,6.15,0,0,1,.95.27,1.32,1.32,0,0,1,.55.44,1.07,1.07,0,0,1,.18.61,1.17,1.17,0,0,1-.19.65,1.27,1.27,0,0,1-.57.47,2,2,0,0,1-.82.17,2.53,2.53,0,0,1-1-.17,1.35,1.35,0,0,1-.62-.51A1.49,1.49,0,0,1,45,46.57Z"/></g></g></svg>