<svg xmlns="http://www.w3.org/2000/svg" xmlns:xlink="http://www.w3.org/1999/xlink" viewBox="0 0 556.95 315.11"><defs><style>.cls-1,.cls-5{fill:none;}.cls-2{clip-path:url(#clip-path);}.cls-3{fill:#b7dade;}.cls-4{font-size:19px;fill:#3f1a13;font-family:ArialMT, Arial;}.cls-5{stroke:#3f1a13;}.cls-6{letter-spacing:-0.02em;}</style><clipPath id="clip-path" transform="translate(-9.32 0)"><rect class="cls-1" width="579.81" height="315.11"/></clipPath></defs><g id="Layer_2" data-name="Layer 2"><g id="Layer_1-2" data-name="Layer 1"><g class="cls-2"><path class="cls-3" d="M351.85,169.58A64.54,64.54,0,1,0,287.31,105a64.53,64.53,0,0,0,64.54,64.54" transform="translate(-9.32 0)"/></g><text class="cls-4" transform="translate(325.43 102.71)">Sad</text><line class="cls-5" x1="342.54" y1="111.39" x2="407.39" y2="193.85"/><g class="cls-2"><path class="cls-3" d="M501.73,209.5A64.54,64.54,0,1,0,437.19,145a64.54,64.54,0,0,0,64.54,64.54" transform="translate(-9.32 0)"/></g><text class="cls-4" transform="translate(456.52 140.75)">Stressed</text><line class="cls-5" x1="494.01" y1="149.34" x2="470.59" y2="278.46"/><g class="cls-2"><path class="cls-3" d="M207.31,129.08a64.54,64.54,0,1,0-64.54-64.54,64.53,64.53,0,0,0,64.54,64.54" transform="translate(-9.32 0)"/></g><text class="cls-4" transform="translate(162.16 58.58)">Felt pain</text><line class="cls-5" x1="198" y1="70.45" x2="271.58" y2="158.7"/><g class="cls-2"><path class="cls-3" d="M201,278.42a64.54,64.54,0,1,0-64.54-64.54A64.54,64.54,0,0,0,201,278.42" transform="translate(-9.32 0)"/></g><text class="cls-4" transform="translate(168.96 206.83)">Angry</text><g class="cls-2"><line class="cls-5" x1="192.36" y1="218.92" x2="143.3" y2="314.88"/><path class="cls-3" d="M73.86,169.58A64.54,64.54,0,1,0,9.32,105a64.54,64.54,0,0,0,64.54,64.54" transform="translate(-9.32 0)"/></g><text class="cls-4" transform="translate(31.3 93.17)"><tspan class="cls-6">W</tspan><tspan x="17.59" y="0">orried</tspan></text><line class="cls-5" x1="64.54" y1="111.08" x2="101.84" y2="218.76"/></g></g></svg>