<svg xmlns="http://www.w3.org/2000/svg" viewBox="0 0 69.04 55.62"><defs><style>.cls-1{fill:#18a0ac;}.cls-2,.cls-4,.cls-5{fill:#3f1a13;}.cls-2{stroke:#3f1a13;}.cls-3{fill:#2472b5;}.cls-4{font-size:6px;font-family:HelveticaNeue, Helvetica Neue;}.cls-5{stroke:#401a12;}.cls-6{fill:#f2a2c0;}</style></defs><g id="Layer_2" data-name="Layer 2"><g id="Layer_1-2" data-name="Layer 1"><path class="cls-1" d="M36.48,31.42a8.17,8.17,0,1,0-8.35-8.16,8.25,8.25,0,0,0,8.35,8.16"/><line class="cls-2" x1="11.29" y1="43.09" x2="11.29" y2="19.76"/><path class="cls-3" d="M11.67,31.42A11.67,11.67,0,1,0,0,19.76,11.66,11.66,0,0,0,11.67,31.42"/><text class="cls-4" transform="translate(36.56 5.14)">HIGH HDI</text><line class="cls-5" x1="5.96" y1="2.53" x2="44.82" y2="13.66"/><text class="cls-4" transform="translate(36.99 45.84)">LOWER </text><text class="cls-4" transform="translate(36.93 52.73)">POTENTIAL</text><path class="cls-6" d="M36.48,34.93a5.84,5.84,0,1,0-5.84-5.84,5.84,5.84,0,0,0,5.84,5.84"/></g></g></svg>