<svg xmlns="http://www.w3.org/2000/svg" viewBox="0 0 966.28 281.83"><defs><style>.cls-1,.cls-11{isolation:isolate;font-size:16px;}.cls-1,.cls-11,.cls-3{fill:#3e1a13;}.cls-1{font-family:Arial-BoldMT, Arial;font-weight:700;}.cls-2{letter-spacing:-0.04em;}.cls-4{fill:#193c78;}.cls-5{fill:#338deb;}.cls-10,.cls-12,.cls-13,.cls-14,.cls-6,.cls-9{fill:none;stroke-miterlimit:10;}.cls-12,.cls-6{stroke:#000;}.cls-6{stroke-width:3.64px;}.cls-7{fill:#85bbf3;}.cls-8{fill:#f3a1c0;}.cls-9{stroke:#338deb;}.cls-10,.cls-12,.cls-13,.cls-14,.cls-9{stroke-width:0.7px;}.cls-10{stroke:#85bbf3;}.cls-11{font-family:ArialMT, Arial;}.cls-13{stroke:#f3a1c0;}.cls-14{stroke:#193c78;}</style></defs><g id="Layer_2" data-name="Layer 2"><g id="Layer_1-2" data-name="Layer 1"><text class="cls-1" transform="translate(293.05 13.73)">The greater the dip in the arro<tspan class="cls-2" x="226.7" y="0">w</tspan><tspan x="238.55" y="0">, the more people are </tspan><tspan x="-44.79" y="19.2">likely to think that science will decrease jobs in the next 5 years. </tspan></text><path class="cls-3" d="M1.28,251.12V239.66H5.6a10.18,10.18,0,0,1,1.74.12,3.33,3.33,0,0,1,1.42.54,2.78,2.78,0,0,1,.91,1.1A3.68,3.68,0,0,1,10,243a3.54,3.54,0,0,1-.93,2.47,4.54,4.54,0,0,1-3.36,1H2.79v4.66Zm1.51-6h3a3,3,0,0,0,2.08-.55A2,2,0,0,0,8.49,243a2.11,2.11,0,0,0-.36-1.23,1.78,1.78,0,0,0-1-.67A6.75,6.75,0,0,0,5.71,241H2.78Z"/><path class="cls-3" d="M17.42,248.44l1.45.18a3.51,3.51,0,0,1-1.27,2,4.31,4.31,0,0,1-5.26-.42,4.33,4.33,0,0,1-1.07-3.13,4.57,4.57,0,0,1,1.08-3.25,3.62,3.62,0,0,1,2.8-1.16,3.54,3.54,0,0,1,2.72,1.13A4.49,4.49,0,0,1,18.92,247v.38H12.74a3.12,3.12,0,0,0,.77,2.09,2.23,2.23,0,0,0,1.73.73,2.15,2.15,0,0,0,1.32-.4A2.62,2.62,0,0,0,17.42,248.44Zm-4.62-2.27h4.64a2.88,2.88,0,0,0-.54-1.57,2.13,2.13,0,0,0-1.74-.81,2.25,2.25,0,0,0-1.63.65,2.63,2.63,0,0,0-.73,1.73Z"/><path class="cls-3" d="M20.12,247a4.23,4.23,0,0,1,1.28-3.41,3.85,3.85,0,0,1,2.61-.92,3.69,3.69,0,0,1,2.79,1.12,4.24,4.24,0,0,1,1.09,3.1,5.48,5.48,0,0,1-.48,2.52,3.44,3.44,0,0,1-1.4,1.43,4.21,4.21,0,0,1-2,.5,3.77,3.77,0,0,1-2.82-1.11A4.48,4.48,0,0,1,20.12,247Zm1.44,0a3.44,3.44,0,0,0,.7,2.38,2.3,2.3,0,0,0,3.49,0,3.63,3.63,0,0,0,.69-2.43,3.44,3.44,0,0,0-.7-2.33A2.21,2.21,0,0,0,24,243.8a2.26,2.26,0,0,0-1.75.78A3.5,3.5,0,0,0,21.56,247Z"/><path class="cls-3" d="M29.54,254.3V242.82h1.28v1.08a3.24,3.24,0,0,1,1-1,2.94,2.94,0,0,1,1.46-.29,3.25,3.25,0,0,1,1.87.55,3.47,3.47,0,0,1,1.23,1.55,5.63,5.63,0,0,1,.41,2.18,5.45,5.45,0,0,1-.46,2.29A3.43,3.43,0,0,1,35,250.8a3.62,3.62,0,0,1-1.84.54,2.87,2.87,0,0,1-1.26-.29,3.19,3.19,0,0,1-.92-.75v4ZM30.81,247a3.57,3.57,0,0,0,.65,2.37,2,2,0,0,0,3.18,0,3.74,3.74,0,0,0,.66-2.45,3.58,3.58,0,0,0-.65-2.37,1.92,1.92,0,0,0-3.15.05,3.77,3.77,0,0,0-.69,2.44Z"/><path class="cls-3" d="M38.4,251.12V239.66h1.41v11.46Z"/><path class="cls-3" d="M47.67,248.44l1.45.18a3.51,3.51,0,0,1-1.27,2,4,4,0,0,1-6.33-3.55,4.57,4.57,0,0,1,1.08-3.25,3.62,3.62,0,0,1,2.8-1.16,3.54,3.54,0,0,1,2.72,1.13,4.47,4.47,0,0,1,1,3.18v.38H43a3.12,3.12,0,0,0,.77,2.09,2.23,2.23,0,0,0,1.73.73,2.15,2.15,0,0,0,1.32-.4A2.66,2.66,0,0,0,47.67,248.44Zm-4.62-2.27h4.64a2.9,2.9,0,0,0-.53-1.57,2.21,2.21,0,0,0-1.75-.81,2.25,2.25,0,0,0-1.63.65A2.63,2.63,0,0,0,43.05,246.17Z"/><path class="cls-3" d="M56.87,251.12l-2.54-8.3h1.45l1.32,4.79.49,1.78c0-.09.17-.66.43-1.71l1.32-4.86h1.45L62,247.63l.41,1.59.48-1.6,1.42-4.8h1.37l-2.59,8.3H61.66l-1.33-5L60,244.7l-1.68,6.39Z"/><path class="cls-3" d="M66.89,251.12V239.66h1.39v4.12a3.07,3.07,0,0,1,2.48-1.14,3.29,3.29,0,0,1,1.6.36,2.11,2.11,0,0,1,1,1,4.52,4.52,0,0,1,.3,1.86v5.26H72.28v-5.26a2.13,2.13,0,0,0-.46-1.54,1.64,1.64,0,0,0-1.29-.48,2.12,2.12,0,0,0-1.17.33,1.79,1.79,0,0,0-.79.88,4,4,0,0,0-.23,1.53v4.54Z"/><path class="cls-3" d="M75.28,247a4.26,4.26,0,0,1,1.29-3.41,3.85,3.85,0,0,1,2.61-.92A3.69,3.69,0,0,1,82,243.76a4.24,4.24,0,0,1,1.09,3.1,5.48,5.48,0,0,1-.48,2.52,3.44,3.44,0,0,1-1.4,1.43,4.21,4.21,0,0,1-2,.5,3.77,3.77,0,0,1-2.82-1.11A4.47,4.47,0,0,1,75.28,247Zm1.45,0a3.48,3.48,0,0,0,.69,2.38,2.31,2.31,0,0,0,3.26.25,2.83,2.83,0,0,0,.24-.25,3.63,3.63,0,0,0,.69-2.43,3.44,3.44,0,0,0-.7-2.33,2.21,2.21,0,0,0-1.73-.79,2.31,2.31,0,0,0-1.76.78,3.56,3.56,0,0,0-.71,2.39Z"/><path class="cls-3" d="M89.13,251.12V239.66h1.41v4.12A3.07,3.07,0,0,1,93,242.64a3.16,3.16,0,0,1,1.6.36,2.11,2.11,0,0,1,1,1,4.69,4.69,0,0,1,.29,1.86v5.26H94.48v-5.26a2.17,2.17,0,0,0-.45-1.54,1.71,1.71,0,0,0-1.3-.48,2.12,2.12,0,0,0-1.17.33,1.79,1.79,0,0,0-.79.88,4.18,4.18,0,0,0-.23,1.53v4.54Z"/><path class="cls-3" d="M103.44,250.09a5,5,0,0,1-1.5.94,4.12,4.12,0,0,1-1.55.27,3,3,0,0,1-2.1-.66,2.24,2.24,0,0,1-.74-1.71,2.31,2.31,0,0,1,1-1.91,2.85,2.85,0,0,1,1-.46,7.61,7.61,0,0,1,1.25-.22,13.4,13.4,0,0,0,2.51-.48v-.38a1.55,1.55,0,0,0-.39-1.2,2.32,2.32,0,0,0-1.61-.47,2.42,2.42,0,0,0-1.46.34,2,2,0,0,0-.7,1.23l-1.37-.18a3.38,3.38,0,0,1,.61-1.43,2.6,2.6,0,0,1,1.25-.84,5.25,5.25,0,0,1,1.88-.29,4.58,4.58,0,0,1,1.72.25,1.94,1.94,0,0,1,1.44,1.63,7.85,7.85,0,0,1,.07,1.29v1.85a20.49,20.49,0,0,0,.09,2.48,3.22,3.22,0,0,0,.35,1h-1.46A3.15,3.15,0,0,1,103.44,250.09Zm-.11-3.14a9.49,9.49,0,0,1-2.3.53,5.79,5.79,0,0,0-1.23.29,1.21,1.21,0,0,0-.55.45,1.25,1.25,0,0,0-.2.67,1.23,1.23,0,0,0,.43.94,1.77,1.77,0,0,0,1.25.37,2.9,2.9,0,0,0,1.44-.35,2.15,2.15,0,0,0,.93-1,3.33,3.33,0,0,0,.23-1.4Z"/><path class="cls-3" d="M109.28,251.12l-3.15-8.3h1.48l1.78,5c.19.53.37,1.09.53,1.67.13-.44.3-1,.53-1.58l1.84-5.06h1.45l-3.14,8.3Z"/><path class="cls-3" d="M120.61,248.44l1.45.18a3.51,3.51,0,0,1-1.27,2,4.32,4.32,0,0,1-5.26-.42,4.34,4.34,0,0,1-1.07-3.14,4.6,4.6,0,0,1,1.08-3.25,3.68,3.68,0,0,1,2.79-1.16,3.57,3.57,0,0,1,2.72,1.13,4.52,4.52,0,0,1,1.06,3.19v.38h-6.19a3.08,3.08,0,0,0,.78,2.09,2.23,2.23,0,0,0,1.73.73,2.09,2.09,0,0,0,1.32-.41A2.68,2.68,0,0,0,120.61,248.44ZM116,246.17h4.63a2.79,2.79,0,0,0-.53-1.57,2.19,2.19,0,0,0-1.74-.81,2.25,2.25,0,0,0-1.63.65A2.63,2.63,0,0,0,116,246.17Z"/><path class="cls-3" d="M133.69,250.09a5,5,0,0,1-1.51.94,4.12,4.12,0,0,1-1.55.27,3,3,0,0,1-2.1-.66,2.21,2.21,0,0,1-.73-1.71,2.29,2.29,0,0,1,1-1.91,3,3,0,0,1,1-.46,7.61,7.61,0,0,1,1.25-.22,13.4,13.4,0,0,0,2.51-.48v-.38a1.55,1.55,0,0,0-.4-1.2,2.31,2.31,0,0,0-1.6-.47,2.45,2.45,0,0,0-1.47.34,2.1,2.1,0,0,0-.7,1.23L128,245.2a3.28,3.28,0,0,1,.62-1.43,2.7,2.7,0,0,1,1.24-.84,5.47,5.47,0,0,1,1.88-.29,4.84,4.84,0,0,1,1.73.25,2.25,2.25,0,0,1,1,.63,2.11,2.11,0,0,1,.44,1,7.85,7.85,0,0,1,.07,1.29v1.85a20.49,20.49,0,0,0,.09,2.48,2.92,2.92,0,0,0,.36,1H134A2.88,2.88,0,0,1,133.69,250.09Zm-.12-3.14a9.49,9.49,0,0,1-2.3.53,5.7,5.7,0,0,0-1.22.29,1.16,1.16,0,0,0-.75,1.12,1.2,1.2,0,0,0,.42.94,1.77,1.77,0,0,0,1.25.37,2.9,2.9,0,0,0,1.44-.35,2.15,2.15,0,0,0,.93-1,3.33,3.33,0,0,0,.23-1.4Z"/><path class="cls-3" d="M141.58,251.12V239.66H143v11.46Z"/><path class="cls-3" d="M144.65,247a4.23,4.23,0,0,1,1.28-3.41,3.85,3.85,0,0,1,2.61-.92,3.69,3.69,0,0,1,2.79,1.12,4.24,4.24,0,0,1,1.09,3.1,5.48,5.48,0,0,1-.48,2.52,3.44,3.44,0,0,1-1.4,1.43,4.21,4.21,0,0,1-2,.5,3.8,3.8,0,0,1-2.82-1.11A4.52,4.52,0,0,1,144.65,247Zm1.44,0a3.44,3.44,0,0,0,.7,2.38,2.29,2.29,0,0,0,3.24.25,2,2,0,0,0,.25-.25,3.59,3.59,0,0,0,.7-2.43,3.44,3.44,0,0,0-.7-2.33,2.34,2.34,0,0,0-3.29-.2l-.2.2A3.58,3.58,0,0,0,146.09,247Z"/><path class="cls-3" d="M157.14,249.86l.2,1.24a4.73,4.73,0,0,1-1.06.13,2.35,2.35,0,0,1-1.19-.25,1.25,1.25,0,0,1-.59-.63,4.87,4.87,0,0,1-.17-1.66v-4.78h-1v-1.09h1v-2.06l1.4-.84v2.9h1.41v1.09h-1.41v4.85a2.52,2.52,0,0,0,.07.78.58.58,0,0,0,.24.27.8.8,0,0,0,.48.1A4.32,4.32,0,0,0,157.14,249.86Z"/><path class="cls-3" d="M162.44,247a4.23,4.23,0,0,1,1.28-3.41,3.85,3.85,0,0,1,2.61-.92,3.69,3.69,0,0,1,2.79,1.12,4.24,4.24,0,0,1,1.09,3.1,5.48,5.48,0,0,1-.48,2.52,3.44,3.44,0,0,1-1.4,1.43,4.21,4.21,0,0,1-2,.5,3.8,3.8,0,0,1-2.82-1.11A4.48,4.48,0,0,1,162.44,247Zm1.44,0a3.44,3.44,0,0,0,.7,2.38,2.29,2.29,0,0,0,3.24.25,2,2,0,0,0,.25-.25,3.63,3.63,0,0,0,.69-2.43,3.44,3.44,0,0,0-.69-2.33,2.34,2.34,0,0,0-3.29-.2c-.07.07-.14.13-.2.2A3.58,3.58,0,0,0,163.88,247Z"/><path class="cls-3" d="M171.84,251.12v-8.3h1.27v1.26a3.61,3.61,0,0,1,.89-1.17,1.8,1.8,0,0,1,.9-.28,2.85,2.85,0,0,1,1.45.45l-.48,1.31a2.21,2.21,0,0,0-1-.31,1.42,1.42,0,0,0-.82.28,1.58,1.58,0,0,0-.53.77,5.75,5.75,0,0,0-.23,1.64v4.35Z"/><path class="cls-3" d="M181.07,248.66l1.39-.22a2,2,0,0,0,.65,1.28,2.19,2.19,0,0,0,1.5.45,2.23,2.23,0,0,0,1.44-.39,1.16,1.16,0,0,0,.46-.92.84.84,0,0,0-.41-.75,5.31,5.31,0,0,0-1.44-.48,12.38,12.38,0,0,1-2.14-.68,2.07,2.07,0,0,1-1-2.93,2.25,2.25,0,0,1,.69-.78,2.67,2.67,0,0,1,.89-.41,3.91,3.91,0,0,1,1.22-.17,4.76,4.76,0,0,1,1.71.28,2.26,2.26,0,0,1,1.09.76,2.94,2.94,0,0,1,.49,1.29l-1.38.19a1.43,1.43,0,0,0-.54-1,2,2,0,0,0-1.27-.36,2.16,2.16,0,0,0-1.38.32.92.92,0,0,0-.42.75.83.83,0,0,0,.17.49,1.36,1.36,0,0,0,.54.38c.14,0,.56.17,1.25.35a15.23,15.23,0,0,1,2.08.66,2,2,0,0,1,.92.74,2,2,0,0,1,.34,1.2,2.31,2.31,0,0,1-.41,1.32,2.62,2.62,0,0,1-1.18,1,4.37,4.37,0,0,1-1.75.34,4,4,0,0,1-2.47-.67A3.19,3.19,0,0,1,181.07,248.66Z"/><path class="cls-3" d="M189.11,247a4.23,4.23,0,0,1,1.28-3.41,3.85,3.85,0,0,1,2.61-.92,3.73,3.73,0,0,1,2.8,1.12,4.24,4.24,0,0,1,1.08,3.1,5.48,5.48,0,0,1-.48,2.52,3.44,3.44,0,0,1-1.4,1.43,4.21,4.21,0,0,1-2,.5,3.8,3.8,0,0,1-2.82-1.11A4.52,4.52,0,0,1,189.11,247Zm1.44,0a3.44,3.44,0,0,0,.7,2.38,2.29,2.29,0,0,0,3.24.25,2,2,0,0,0,.25-.25,3.59,3.59,0,0,0,.7-2.43,3.44,3.44,0,0,0-.7-2.33,2.34,2.34,0,0,0-3.29-.2l-.2.2A3.58,3.58,0,0,0,190.55,247Z"/><path class="cls-3" d="M198.53,251.12v-8.3h1.26V244a3,3,0,0,1,2.49-1.32,2.89,2.89,0,0,1,1.52.38,2.14,2.14,0,0,1,.83,1.07,3,3,0,0,1,2.56-1.45,2.56,2.56,0,0,1,1.9.69,2.93,2.93,0,0,1,.66,2.1v5.7h-1.4v-5.23a4.11,4.11,0,0,0-.07-1.26,1.25,1.25,0,0,0-.5-.59,1.63,1.63,0,0,0-.84-.23,2,2,0,0,0-1.46.58,2.61,2.61,0,0,0-.57,1.88v4.82H203.5v-5.39a2.46,2.46,0,0,0-.34-1.41,1.3,1.3,0,0,0-1.13-.47,2,2,0,0,0-1.1.31,1.8,1.8,0,0,0-.73.92,5.31,5.31,0,0,0-.22,1.73v4.31Z"/><path class="cls-3" d="M217.54,248.44l1.45.18a3.51,3.51,0,0,1-1.27,2,4.32,4.32,0,0,1-5.26-.42,4.29,4.29,0,0,1-1.07-3.14,4.6,4.6,0,0,1,1.08-3.25,3.68,3.68,0,0,1,2.81-1.15,3.57,3.57,0,0,1,2.72,1.13,4.52,4.52,0,0,1,1.06,3.19v.38h-6.19a3.08,3.08,0,0,0,.78,2.09,2.23,2.23,0,0,0,1.73.73,2.09,2.09,0,0,0,1.32-.41A2.71,2.71,0,0,0,217.54,248.44Zm-4.62-2.27h4.63a2.79,2.79,0,0,0-.53-1.57,2.19,2.19,0,0,0-1.74-.81,2.25,2.25,0,0,0-1.63.65A2.63,2.63,0,0,0,212.92,246.17Z"/><path class="cls-3" d="M228.28,249.86l.21,1.24a4.82,4.82,0,0,1-1.07.13,2.31,2.31,0,0,1-1.18-.25,1.31,1.31,0,0,1-.6-.63,5.46,5.46,0,0,1-.17-1.66v-4.78h-1v-1.09h1v-2.06l1.4-.84v2.9h1.41v1.09h-1.41v4.85a2.52,2.52,0,0,0,.07.78.58.58,0,0,0,.24.27.92.92,0,0,0,.49.1A4.18,4.18,0,0,0,228.28,249.86Z"/><path class="cls-3" d="M229.63,251.12v-8.3h1.27v1.26a3.61,3.61,0,0,1,.89-1.17,1.8,1.8,0,0,1,.9-.28,2.85,2.85,0,0,1,1.45.45l-.48,1.31a2.21,2.21,0,0,0-1-.31,1.42,1.42,0,0,0-.82.28,1.58,1.58,0,0,0-.53.77,5.75,5.75,0,0,0-.23,1.64v4.35Z"/><path class="cls-3" d="M240.41,251.12V249.9a3,3,0,0,1-2.63,1.4,3.09,3.09,0,0,1-1.37-.28,2.2,2.2,0,0,1-1-.7,2.79,2.79,0,0,1-.43-1,7.15,7.15,0,0,1-.09-1.31v-5.14h1.41v4.6a7.41,7.41,0,0,0,.09,1.49,1.41,1.41,0,0,0,.56.88,1.8,1.8,0,0,0,1.06.31,2.58,2.58,0,0,0,1.19-.32A1.81,1.81,0,0,0,240,249a4.33,4.33,0,0,0,.23-1.63v-4.44h1.41v8.3Z"/><path class="cls-3" d="M243.28,248.66l1.39-.22a2,2,0,0,0,.65,1.28,2.19,2.19,0,0,0,1.5.45,2.12,2.12,0,0,0,1.44-.39,1.2,1.2,0,0,0,.47-.92.82.82,0,0,0-.42-.75,5.31,5.31,0,0,0-1.44-.48,12.38,12.38,0,0,1-2.14-.68,2.15,2.15,0,0,1-.91-.78,2.21,2.21,0,0,1,.64-2.93,2.72,2.72,0,0,1,.9-.41,3.81,3.81,0,0,1,1.21-.17,4.78,4.78,0,0,1,1.72.28,2.23,2.23,0,0,1,1.08.76,2.94,2.94,0,0,1,.49,1.29l-1.38.19a1.43,1.43,0,0,0-.54-1,2,2,0,0,0-1.27-.36,2.16,2.16,0,0,0-1.38.32.92.92,0,0,0-.42.75.76.76,0,0,0,.18.49,1.3,1.3,0,0,0,.54.38c.14,0,.55.17,1.24.35a15.23,15.23,0,0,1,2.08.66,2.11,2.11,0,0,1,.93.74,2,2,0,0,1,.33,1.2,2.31,2.31,0,0,1-.41,1.32,2.62,2.62,0,0,1-1.18,1,4.37,4.37,0,0,1-1.75.34,4,4,0,0,1-2.47-.67A3.19,3.19,0,0,1,243.28,248.66Z"/><path class="cls-3" d="M254.94,249.86l.21,1.24a4.82,4.82,0,0,1-1.07.13,2.31,2.31,0,0,1-1.18-.25,1.41,1.41,0,0,1-.6-.63,5.46,5.46,0,0,1-.17-1.66v-4.78h-1v-1.09h1v-2.06l1.4-.84v2.9h1.41v1.09h-1.41v4.85a2.52,2.52,0,0,0,.07.78.55.55,0,0,0,.25.27.8.8,0,0,0,.48.1A4.18,4.18,0,0,0,254.94,249.86Z"/><path class="cls-3" d="M260.77,241.29v-1.63h1.41v1.63Zm0,9.84v-8.3h1.41v8.3Z"/><path class="cls-3" d="M264.28,251.12v-8.3h1.26V244a3,3,0,0,1,2.74-1.34,3.56,3.56,0,0,1,1.37.27,2.31,2.31,0,0,1,1,.71,3,3,0,0,1,.43,1,7.88,7.88,0,0,1,.08,1.37v5.11h-1.4v-5.05a3.73,3.73,0,0,0-.17-1.29,1.34,1.34,0,0,0-.58-.68,2,2,0,0,0-1-.25,2.22,2.22,0,0,0-1.55.57,2.77,2.77,0,0,0-.65,2.16v4.54Z"/><path class="cls-3" d="M.51,267.84l1.39-.22a1.9,1.9,0,0,0,.65,1.28,2.19,2.19,0,0,0,1.5.45,2.09,2.09,0,0,0,1.43-.4A1.13,1.13,0,0,0,6,268a.84.84,0,0,0-.41-.75,5.31,5.31,0,0,0-1.44-.48A14.39,14.39,0,0,1,2,266.13a2,2,0,0,1-1.22-1.91,2.21,2.21,0,0,1,1-1.81,2.86,2.86,0,0,1,.89-.4,3.91,3.91,0,0,1,1.22-.17,4.76,4.76,0,0,1,1.71.28,2.26,2.26,0,0,1,1.09.76,2.93,2.93,0,0,1,.48,1.29l-1.37.19a1.43,1.43,0,0,0-.54-1A2,2,0,0,0,4,263a2.27,2.27,0,0,0-1.39.33.91.91,0,0,0-.41.75.83.83,0,0,0,.17.49,1.34,1.34,0,0,0,.54.37l1.24.36a16.85,16.85,0,0,1,2.09.65,2,2,0,0,1,1.26,1.94A2.27,2.27,0,0,1,7,269.2a2.58,2.58,0,0,1-1.19,1,4.21,4.21,0,0,1-1.75.35,3.91,3.91,0,0,1-2.46-.67A3.11,3.11,0,0,1,.51,267.84Z"/><path class="cls-3" d="M14.48,267.29l1.39.17a3.62,3.62,0,0,1-1.16,2.24,3.44,3.44,0,0,1-2.3.81,3.59,3.59,0,0,1-2.74-1.12,4.48,4.48,0,0,1-1-3.19,5.77,5.77,0,0,1,.44-2.35,3.12,3.12,0,0,1,1.36-1.51,4.1,4.1,0,0,1,2-.51,3.44,3.44,0,0,1,2.21.69,3.11,3.11,0,0,1,1.1,1.94l-1.36.21a2.27,2.27,0,0,0-.7-1.26,1.79,1.79,0,0,0-1.19-.42,2.2,2.2,0,0,0-1.73.76,3.65,3.65,0,0,0-.67,2.41,3.73,3.73,0,0,0,.65,2.43,2.08,2.08,0,0,0,1.67.76,2,2,0,0,0,1.38-.51A2.51,2.51,0,0,0,14.48,267.29Z"/><path class="cls-3" d="M17.08,260.48v-1.62h1.4v1.62Zm0,9.85V262h1.4v8.3Z"/><path class="cls-3" d="M26.28,267.66l1.46.18a3.58,3.58,0,0,1-1.28,2,4.31,4.31,0,0,1-5.26-.42,4.36,4.36,0,0,1-1.06-3.13A4.56,4.56,0,0,1,21.21,263a3.62,3.62,0,0,1,2.8-1.16A3.5,3.5,0,0,1,26.73,263a4.47,4.47,0,0,1,1,3.18v.38H21.54a3.19,3.19,0,0,0,.77,2.09,2.26,2.26,0,0,0,1.74.73,2.09,2.09,0,0,0,1.32-.41A2.61,2.61,0,0,0,26.28,267.66Zm-4.61-2.27h4.61a2.79,2.79,0,0,0-.53-1.57A2.19,2.19,0,0,0,24,263a2.25,2.25,0,0,0-1.63.65,2.56,2.56,0,0,0-.69,1.71Z"/><path class="cls-3" d="M29.52,270.32V262h1.27v1.18a3,3,0,0,1,2.64-1.37,3.65,3.65,0,0,1,1.38.27,2.28,2.28,0,0,1,.94.71,3,3,0,0,1,.44,1,8.92,8.92,0,0,1,.07,1.36v5.11h-1.4v-5a3.79,3.79,0,0,0-.17-1.29,1.42,1.42,0,0,0-.58-.68,1.93,1.93,0,0,0-1-.25,2.32,2.32,0,0,0-1.55.57,2.84,2.84,0,0,0-.65,2.16v4.54Z"/><path class="cls-3" d="M41.49,269.06l.2,1.24a4.73,4.73,0,0,1-1.06.13,2.35,2.35,0,0,1-1.19-.25,1.25,1.25,0,0,1-.59-.63,5.46,5.46,0,0,1-.17-1.66v-4.78h-1V262h1V260l1.4-.84V262h1.41v1.09H40.08V268a2.52,2.52,0,0,0,.07.78.58.58,0,0,0,.24.27.89.89,0,0,0,.48.1A4.32,4.32,0,0,0,41.49,269.06Z"/><path class="cls-3" d="M42.87,260.48v-1.62h1.41v1.62Zm0,9.85V262h1.41v8.3Z"/><path class="cls-3" d="M45.86,267.84l1.42-.18a1.9,1.9,0,0,0,.65,1.28,2.19,2.19,0,0,0,1.5.45,2.09,2.09,0,0,0,1.43-.4,1.13,1.13,0,0,0,.47-.91.84.84,0,0,0-.41-.75,5.31,5.31,0,0,0-1.44-.48,14.39,14.39,0,0,1-2.14-.68,2.15,2.15,0,0,1-.91-.78,2.22,2.22,0,0,1-.31-1.12,2,2,0,0,1,.26-1,2.32,2.32,0,0,1,.69-.8,2.86,2.86,0,0,1,.89-.4,3.91,3.91,0,0,1,1.22-.17,4.76,4.76,0,0,1,1.71.28,2.26,2.26,0,0,1,1.09.76,2.94,2.94,0,0,1,.49,1.29l-1.38.19a1.43,1.43,0,0,0-.54-1,1.93,1.93,0,0,0-1.27-.36,2.16,2.16,0,0,0-1.38.32.92.92,0,0,0-.42.75.83.83,0,0,0,.17.49,1.25,1.25,0,0,0,.54.37c.14.06.56.17,1.24.36a15.36,15.36,0,0,1,2.09.66,2.06,2.06,0,0,1,.92.73,2,2,0,0,1,.34,1.2,2.32,2.32,0,0,1-.41,1.33,2.62,2.62,0,0,1-1.18,1,4.45,4.45,0,0,1-1.76.34,4,4,0,0,1-2.46-.67A3.14,3.14,0,0,1,45.86,267.84Z"/><path class="cls-3" d="M57.49,269.06l.2,1.24a4.73,4.73,0,0,1-1.06.13,2.35,2.35,0,0,1-1.19-.25,1.25,1.25,0,0,1-.59-.63,5.46,5.46,0,0,1-.17-1.66v-4.78h-1V262h1V260l1.4-.84V262h1.41v1.09H56.08V268a2.52,2.52,0,0,0,.07.78.58.58,0,0,0,.24.27.89.89,0,0,0,.48.1A4.32,4.32,0,0,0,57.49,269.06Z"/><path class="cls-3" d="M58.28,267.84l1.39-.22a1.91,1.91,0,0,0,.66,1.28,2.18,2.18,0,0,0,1.49.45,2.08,2.08,0,0,0,1.44-.4,1.16,1.16,0,0,0,.47-.91.82.82,0,0,0-.42-.75,5.13,5.13,0,0,0-1.43-.48,14.9,14.9,0,0,1-2.15-.68,2.07,2.07,0,0,1-.9-.78,2.21,2.21,0,0,1,.63-2.93,2.72,2.72,0,0,1,.9-.41,3.81,3.81,0,0,1,1.21-.17,4.78,4.78,0,0,1,1.72.28,2.26,2.26,0,0,1,1.09.76,3.05,3.05,0,0,1,.48,1.29l-1.37.19a1.5,1.5,0,0,0-.55-1,2,2,0,0,0-1.27-.36,2.16,2.16,0,0,0-1.38.32.89.89,0,0,0-.41.75.81.81,0,0,0,.17.49,1.3,1.3,0,0,0,.54.38c.14.05.55.17,1.24.35a15.23,15.23,0,0,1,2.08.66,2,2,0,0,1,1.26,1.94,2.31,2.31,0,0,1-.41,1.32,2.62,2.62,0,0,1-1.18,1,4.37,4.37,0,0,1-1.75.34,3.91,3.91,0,0,1-2.46-.67A3.13,3.13,0,0,1,58.28,267.84Z"/><path class="cls-3" d="M74.38,269.06l.2,1.24a4.73,4.73,0,0,1-1.06.13,2.35,2.35,0,0,1-1.19-.25,1.34,1.34,0,0,1-.59-.63,5.46,5.46,0,0,1-.17-1.66v-4.78h-1V262h1V260l1.4-.84V262h1.41v1.09H73V268a2.52,2.52,0,0,0,.07.78.58.58,0,0,0,.24.27.89.89,0,0,0,.48.1A4.32,4.32,0,0,0,74.38,269.06Z"/><path class="cls-3" d="M75.28,266.17a4.3,4.3,0,0,1,1.28-3.41,3.85,3.85,0,0,1,2.61-.92A3.68,3.68,0,0,1,82,263a4.29,4.29,0,0,1,1.09,3.1,5.48,5.48,0,0,1-.48,2.52,3.44,3.44,0,0,1-1.4,1.43,4.21,4.21,0,0,1-2,.5,3.74,3.74,0,0,1-2.81-1.11A4.48,4.48,0,0,1,75.28,266.17Zm1.45,0a3.48,3.48,0,0,0,.69,2.38,2.31,2.31,0,0,0,3.26.25,2.83,2.83,0,0,0,.24-.25,3.63,3.63,0,0,0,.69-2.43,3.44,3.44,0,0,0-.7-2.33,2.23,2.23,0,0,0-1.74-.79,2.29,2.29,0,0,0-1.75.78,3.58,3.58,0,0,0-.74,2.39Z"/><path class="cls-3" d="M89.1,273.51V262h1.28v1.08a3.08,3.08,0,0,1,1-1,2.71,2.71,0,0,1,1.39-.32,3.11,3.11,0,0,1,1.87.55,3.39,3.39,0,0,1,1.23,1.54,6.08,6.08,0,0,1,0,4.48,3.54,3.54,0,0,1-1.33,1.56,3.49,3.49,0,0,1-1.83.54,2.92,2.92,0,0,1-1.27-.29,3.15,3.15,0,0,1-.91-.75v4Zm1.27-7.3a3.61,3.61,0,0,0,.65,2.38,2,2,0,0,0,3.18,0,3.78,3.78,0,0,0,.67-2.45,3.66,3.66,0,0,0-.66-2.38,1.92,1.92,0,0,0-3.14,0A3.7,3.7,0,0,0,90.37,266.21Z"/><path class="cls-3" d="M98,270.32V262h1.3v1.26a3.61,3.61,0,0,1,.89-1.17,1.74,1.74,0,0,1,.91-.28,2.84,2.84,0,0,1,1.44.45l-.48,1.31a2.21,2.21,0,0,0-1-.31,1.38,1.38,0,0,0-.83.28,1.58,1.58,0,0,0-.53.77,5.75,5.75,0,0,0-.23,1.64v4.35Z"/><path class="cls-3" d="M102.8,266.17a4.3,4.3,0,0,1,1.28-3.41,3.85,3.85,0,0,1,2.61-.92,3.68,3.68,0,0,1,2.8,1.12,4.29,4.29,0,0,1,1.09,3.1,5.48,5.48,0,0,1-.48,2.52,3.44,3.44,0,0,1-1.4,1.43,4.21,4.21,0,0,1-2,.5,3.74,3.74,0,0,1-2.81-1.11A4.48,4.48,0,0,1,102.8,266.17Zm1.45,0a3.48,3.48,0,0,0,.69,2.38,2.31,2.31,0,0,0,3.26.25,2.83,2.83,0,0,0,.24-.25,3.63,3.63,0,0,0,.69-2.43,3.44,3.44,0,0,0-.7-2.33,2.23,2.23,0,0,0-1.74-.79,2.29,2.29,0,0,0-1.75.78,3.59,3.59,0,0,0-.66,2.39Z"/><path class="cls-3" d="M114.53,270.32l-3.16-8.3h1.49l1.78,5c.19.53.37,1.09.53,1.67.13-.44.3-1,.52-1.58l1.85-5.06H119l-3.14,8.3Z"/><path class="cls-3" d="M120.28,260.48v-1.62h1.41v1.62Zm0,9.85V262h1.41v8.3Z"/><path class="cls-3" d="M129.16,270.32v-1a2.55,2.55,0,0,1-2.32,1.23A3.18,3.18,0,0,1,125,270a3.5,3.5,0,0,1-1.29-1.53,5.1,5.1,0,0,1-.46-2.25,5.85,5.85,0,0,1,.42-2.26,3.31,3.31,0,0,1,1.24-1.55,3.44,3.44,0,0,1,1.85-.54,2.82,2.82,0,0,1,2.29,1.14v-4.11h1.4v11.46Zm-4.44-4.14a3.59,3.59,0,0,0,.67,2.38,2,2,0,0,0,1.59.79,2,2,0,0,0,1.56-.76,3.49,3.49,0,0,0,.65-2.3,3.91,3.91,0,0,0-.66-2.5,2,2,0,0,0-1.62-.79,2,2,0,0,0-1.56.76A3.8,3.8,0,0,0,124.72,266.18Z"/><path class="cls-3" d="M138.36,267.66l1.45.18a3.51,3.51,0,0,1-1.27,2,4.32,4.32,0,0,1-5.26-.42,4.38,4.38,0,0,1-1.07-3.14,4.6,4.6,0,0,1,1.08-3.25,3.68,3.68,0,0,1,2.79-1.16A3.57,3.57,0,0,1,138.8,263a4.52,4.52,0,0,1,1.06,3.19v.38h-6.19a3.08,3.08,0,0,0,.78,2.09,2.23,2.23,0,0,0,1.73.73,2.09,2.09,0,0,0,1.32-.41A2.68,2.68,0,0,0,138.36,267.66Zm-4.62-2.27h4.63a2.79,2.79,0,0,0-.53-1.57,2.19,2.19,0,0,0-1.74-.81,2.25,2.25,0,0,0-1.63.65,2.56,2.56,0,0,0-.73,1.71Z"/><path class="cls-3" d="M151.44,269.29a5,5,0,0,1-1.51.94,4.12,4.12,0,0,1-1.55.27,3,3,0,0,1-2.1-.66,2.21,2.21,0,0,1-.73-1.71,2.32,2.32,0,0,1,1-1.92,3.23,3.23,0,0,1,1-.45,6.66,6.66,0,0,1,1.25-.21,14.28,14.28,0,0,0,2.51-.49v-.38a1.58,1.58,0,0,0-.4-1.21,2.36,2.36,0,0,0-1.6-.46,2.45,2.45,0,0,0-1.47.34,2.19,2.19,0,0,0-.7,1.23l-1.37-.18a3.38,3.38,0,0,1,.61-1.43,2.81,2.81,0,0,1,1.25-.84,5.47,5.47,0,0,1,1.88-.29,4.84,4.84,0,0,1,1.73.25,2.32,2.32,0,0,1,1,.62,2.2,2.2,0,0,1,.44,1,8,8,0,0,1,.07,1.3v1.87a20.49,20.49,0,0,0,.09,2.48,2.92,2.92,0,0,0,.36,1h-1.47A3,3,0,0,1,151.44,269.29Zm-.12-3.14a9.49,9.49,0,0,1-2.3.53,6.35,6.35,0,0,0-1.22.28,1.33,1.33,0,0,0-.56.46,1.24,1.24,0,0,0-.19.67,1.2,1.2,0,0,0,.42.94,1.77,1.77,0,0,0,1.25.37,2.9,2.9,0,0,0,1.44-.35,2.15,2.15,0,0,0,.93-1,3.33,3.33,0,0,0,.23-1.4Z"/><path class="cls-3" d="M160.33,267.29l1.39.17a3.58,3.58,0,0,1-1.16,2.24,3.44,3.44,0,0,1-2.3.81,3.57,3.57,0,0,1-2.73-1.12,4.48,4.48,0,0,1-1-3.19,5.78,5.78,0,0,1,.45-2.35,3.05,3.05,0,0,1,1.35-1.51,4.1,4.1,0,0,1,2-.51,3.44,3.44,0,0,1,2.21.69,3.07,3.07,0,0,1,1.1,1.94l-1.36.21a2.32,2.32,0,0,0-.69-1.26,1.8,1.8,0,0,0-1.2-.42,2.2,2.2,0,0,0-1.73.76,3.64,3.64,0,0,0-.66,2.41,3.74,3.74,0,0,0,.64,2.43,2.08,2.08,0,0,0,1.67.76,2,2,0,0,0,1.38-.51A2.42,2.42,0,0,0,160.33,267.29Z"/><path class="cls-3" d="M168.33,267.29l1.39.17a3.58,3.58,0,0,1-1.16,2.24,3.44,3.44,0,0,1-2.3.81,3.57,3.57,0,0,1-2.73-1.12,4.48,4.48,0,0,1-1-3.19,5.78,5.78,0,0,1,.45-2.35,3.05,3.05,0,0,1,1.35-1.51,4.1,4.1,0,0,1,2-.51,3.44,3.44,0,0,1,2.21.69,3.07,3.07,0,0,1,1.1,1.94l-1.36.21a2.32,2.32,0,0,0-.69-1.26,1.8,1.8,0,0,0-1.2-.42,2.2,2.2,0,0,0-1.73.76,3.64,3.64,0,0,0-.66,2.41,3.74,3.74,0,0,0,.64,2.43,2.08,2.08,0,0,0,1.67.76,2,2,0,0,0,1.38-.51A2.42,2.42,0,0,0,168.33,267.29Z"/><path class="cls-3" d="M176.36,270.32V269.1a3,3,0,0,1-2.63,1.4,3.31,3.31,0,0,1-1.38-.28,2.1,2.1,0,0,1-.94-.7,2.63,2.63,0,0,1-.43-1,7.15,7.15,0,0,1-.09-1.31V262h1.39v4.6a8.23,8.23,0,0,0,.08,1.49,1.51,1.51,0,0,0,.56.87,1.77,1.77,0,0,0,1.07.32,2.44,2.44,0,0,0,1.18-.33,1.81,1.81,0,0,0,.79-.87,4.77,4.77,0,0,0,.23-1.63V262h1.41v8.3Z"/><path class="cls-3" d="M179.8,270.32V262h1.27v1.26a3.61,3.61,0,0,1,.89-1.17,1.74,1.74,0,0,1,.91-.28,2.84,2.84,0,0,1,1.44.45l-.48,1.31a2.21,2.21,0,0,0-1-.31,1.38,1.38,0,0,0-.83.28,1.58,1.58,0,0,0-.53.77,5.75,5.75,0,0,0-.23,1.64v4.35Z"/><path class="cls-3" d="M190.56,269.29a5,5,0,0,1-1.5.94,4.12,4.12,0,0,1-1.55.27,2.94,2.94,0,0,1-2.11-.66,2.25,2.25,0,0,1-.73-1.71,2.34,2.34,0,0,1,1-1.92,3,3,0,0,1,1-.45,6.66,6.66,0,0,1,1.25-.21,13.17,13.17,0,0,0,2.5-.49v-.38a1.54,1.54,0,0,0-.4-1.21,3.14,3.14,0,0,0-3.06-.12,2.1,2.1,0,0,0-.7,1.23l-1.38-.18a3.4,3.4,0,0,1,.62-1.43,2.77,2.77,0,0,1,1.24-.84,5.3,5.3,0,0,1,1.89-.29,4.79,4.79,0,0,1,1.72.25,2.32,2.32,0,0,1,1,.62,2.25,2.25,0,0,1,.44,1,8,8,0,0,1,.07,1.3v1.87a20.49,20.49,0,0,0,.09,2.48,3.13,3.13,0,0,0,.35,1h-1.47A3.24,3.24,0,0,1,190.56,269.29Zm-.12-3.14a9.52,9.52,0,0,1-2.29.53,6.45,6.45,0,0,0-1.23.28,1.3,1.3,0,0,0-.55.46,1.25,1.25,0,0,0,.23,1.62,1.84,1.84,0,0,0,1.24.37,3.17,3.17,0,0,0,1.45-.35,2.25,2.25,0,0,0,.93-1,3.37,3.37,0,0,0,.22-1.4Z"/><path class="cls-3" d="M197.12,269.06l.2,1.24a4.73,4.73,0,0,1-1.06.13,2.35,2.35,0,0,1-1.19-.25,1.25,1.25,0,0,1-.59-.63,4.87,4.87,0,0,1-.18-1.66v-4.78h-1V262h1V260l1.4-.84V262h1.42v1.09H195.7V268a2.25,2.25,0,0,0,.08.78.58.58,0,0,0,.24.27.8.8,0,0,0,.48.1A4.32,4.32,0,0,0,197.12,269.06Z"/><path class="cls-3" d="M204.17,267.66l1.45.18a3.51,3.51,0,0,1-1.27,2,4.31,4.31,0,0,1-5.26-.42,4.37,4.37,0,0,1-1.07-3.13A4.57,4.57,0,0,1,199.1,263a3.62,3.62,0,0,1,2.8-1.16,3.54,3.54,0,0,1,2.72,1.13,4.47,4.47,0,0,1,1,3.18v.38h-6.14a3.13,3.13,0,0,0,.8,2.09,2.23,2.23,0,0,0,1.73.73,2.09,2.09,0,0,0,1.32-.41A2.58,2.58,0,0,0,204.17,267.66Zm-4.62-2.27h4.64a2.9,2.9,0,0,0-.53-1.57,2.21,2.21,0,0,0-1.75-.81,2.25,2.25,0,0,0-1.63.65,2.56,2.56,0,0,0-.73,1.71Z"/><path class="cls-3" d="M211.84,260.48v-1.62h1.44v1.62Zm0,9.85V262h1.44v8.3Z"/><path class="cls-3" d="M215.39,270.32V262h1.27v1.18a3,3,0,0,1,2.64-1.37,3.56,3.56,0,0,1,1.37.27,2.3,2.3,0,0,1,1,.71,3,3,0,0,1,.43,1,6.9,6.9,0,0,1,.08,1.36v5.11h-1.4v-5a3.79,3.79,0,0,0-.17-1.29,1.42,1.42,0,0,0-.58-.68,1.93,1.93,0,0,0-1-.25,2.32,2.32,0,0,0-1.55.57,2.8,2.8,0,0,0-.65,2.16v4.54Z"/><path class="cls-3" d="M224.62,270.32v-7.21h-1.24V262h1.24v-.88a3.79,3.79,0,0,1,.15-1.25,1.76,1.76,0,0,1,.72-.87,2.48,2.48,0,0,1,1.43-.35,7.19,7.19,0,0,1,1.31.14L228,260a4.58,4.58,0,0,0-.83-.08,1.27,1.27,0,0,0-.9.27,1.44,1.44,0,0,0-.27,1V262h1.62v1.09H226v7.21Z"/><path class="cls-3" d="M228.21,266.17a4.3,4.3,0,0,1,1.28-3.41,3.85,3.85,0,0,1,2.61-.92,3.68,3.68,0,0,1,2.8,1.12,4.24,4.24,0,0,1,1.08,3.1,5.48,5.48,0,0,1-.48,2.52,3.44,3.44,0,0,1-1.4,1.43,4.21,4.21,0,0,1-2,.5,3.8,3.8,0,0,1-2.82-1.11A4.52,4.52,0,0,1,228.21,266.17Zm1.45,0a3.48,3.48,0,0,0,.69,2.38,2.29,2.29,0,0,0,3.24.25,2,2,0,0,0,.25-.25,3.57,3.57,0,0,0,.7-2.43,3.44,3.44,0,0,0-.7-2.33,2.34,2.34,0,0,0-3.29-.2l-.2.2A3.57,3.57,0,0,0,229.66,266.17Z"/><path class="cls-3" d="M237.62,270.32V262h1.26v1.26a3.43,3.43,0,0,1,.9-1.17,1.7,1.7,0,0,1,.9-.28,2.84,2.84,0,0,1,1.44.45l-.48,1.31a2.06,2.06,0,0,0-1-.31,1.38,1.38,0,0,0-.83.28,1.56,1.56,0,0,0-.52.77,5.76,5.76,0,0,0-.24,1.64v4.35Z"/><path class="cls-3" d="M243,270.32V262h1.26v1.16a3.08,3.08,0,0,1,1-1,2.92,2.92,0,0,1,1.47-.37,2.77,2.77,0,0,1,1.51.38,2.11,2.11,0,0,1,.84,1.07,3,3,0,0,1,2.56-1.45,2.56,2.56,0,0,1,1.9.69,2.93,2.93,0,0,1,.66,2.1v5.7h-1.4v-5.23a3.87,3.87,0,0,0-.13-1.22,1.25,1.25,0,0,0-.5-.59,1.63,1.63,0,0,0-.84-.23,2,2,0,0,0-1.46.58,2.6,2.6,0,0,0-.57,1.87v4.82h-1.41v-5.39a2.45,2.45,0,0,0-.34-1.4,1.3,1.3,0,0,0-1.13-.47,2,2,0,0,0-1.1.31,1.8,1.8,0,0,0-.73.92,5.28,5.28,0,0,0-.22,1.72v4.32Z"/><path class="cls-3" d="M261.7,269.29a5,5,0,0,1-1.5.94,4.12,4.12,0,0,1-1.55.27,3,3,0,0,1-2.1-.66,2.24,2.24,0,0,1-.74-1.71,2.34,2.34,0,0,1,1-1.92,3,3,0,0,1,1-.45,6.66,6.66,0,0,1,1.25-.21,13.17,13.17,0,0,0,2.5-.49v-.38a1.54,1.54,0,0,0-.4-1.21,3.14,3.14,0,0,0-3.06-.12,2.1,2.1,0,0,0-.7,1.23L256,264.4a3.4,3.4,0,0,1,.62-1.43,2.77,2.77,0,0,1,1.24-.84,5.3,5.3,0,0,1,1.89-.29,4.79,4.79,0,0,1,1.72.25,2.32,2.32,0,0,1,1,.62,2.25,2.25,0,0,1,.44,1A8,8,0,0,1,263,265v1.87a20.49,20.49,0,0,0,.09,2.48,3.13,3.13,0,0,0,.35,1H262A3.19,3.19,0,0,1,261.7,269.29Zm-.12-3.14a9.52,9.52,0,0,1-2.29.53,6.45,6.45,0,0,0-1.23.28,1.3,1.3,0,0,0-.55.46,1.25,1.25,0,0,0,.23,1.62,1.84,1.84,0,0,0,1.24.37,3.17,3.17,0,0,0,1.45-.35,2.25,2.25,0,0,0,.93-1,3.37,3.37,0,0,0,.22-1.4Z"/><path class="cls-3" d="M268.28,269.06l.2,1.24a4.73,4.73,0,0,1-1.06.13,2.35,2.35,0,0,1-1.19-.25,1.25,1.25,0,0,1-.59-.63,4.87,4.87,0,0,1-.18-1.66v-4.78h-1V262h1V260l1.4-.84V262h1.42v1.09h-1.42V268a2.25,2.25,0,0,0,.08.78.58.58,0,0,0,.24.27.8.8,0,0,0,.48.1A4.32,4.32,0,0,0,268.28,269.06Z"/><path class="cls-3" d="M269.64,260.48v-1.62h1.41v1.62Zm0,9.85V262h1.41v8.3Z"/><path class="cls-3" d="M272.66,266.17a4.3,4.3,0,0,1,1.28-3.41,3.85,3.85,0,0,1,2.61-.92,3.68,3.68,0,0,1,2.8,1.12,4.29,4.29,0,0,1,1.09,3.1,5.48,5.48,0,0,1-.48,2.52,3.44,3.44,0,0,1-1.4,1.43,4.21,4.21,0,0,1-2,.5,3.74,3.74,0,0,1-2.81-1.11A4.48,4.48,0,0,1,272.66,266.17Zm1.45,0a3.48,3.48,0,0,0,.69,2.38,2.31,2.31,0,0,0,3.26.25,2.83,2.83,0,0,0,.24-.25,3.63,3.63,0,0,0,.69-2.43,3.44,3.44,0,0,0-.7-2.33,2.23,2.23,0,0,0-1.74-.79,2.29,2.29,0,0,0-1.75.78A3.6,3.6,0,0,0,274.11,266.17Z"/><path class="cls-3" d="M282.08,270.32V262h1.27v1.18a3,3,0,0,1,2.64-1.37,3.65,3.65,0,0,1,1.38.27,2.28,2.28,0,0,1,.94.71,2.49,2.49,0,0,1,.44,1,7.82,7.82,0,0,1,.08,1.36v5.11h-1.41v-5a3.78,3.78,0,0,0-.16-1.29,1.39,1.39,0,0,0-.59-.68,1.93,1.93,0,0,0-1-.25,2.32,2.32,0,0,0-1.55.57,2.84,2.84,0,0,0-.65,2.16v4.54Z"/><path class="cls-3" d="M738.92,188.12V176.66h4.36a10.18,10.18,0,0,1,1.74.12,3.33,3.33,0,0,1,1.42.54,2.81,2.81,0,0,1,.92,1.1,3.76,3.76,0,0,1-.59,4,4.54,4.54,0,0,1-3.36,1h-2.93v4.66Zm1.52-6h3a3,3,0,0,0,2.08-.55,2,2,0,0,0,.62-1.54,2.11,2.11,0,0,0-.36-1.23,1.78,1.78,0,0,0-1-.67,6.65,6.65,0,0,0-1.41-.11h-2.93Z"/><path class="cls-3" d="M755.09,185.44l1.46.18a3.58,3.58,0,0,1-1.28,2,4,4,0,0,1-6.33-3.55,4.57,4.57,0,0,1,1.08-3.25,3.62,3.62,0,0,1,2.8-1.16,3.54,3.54,0,0,1,2.72,1.13,4.47,4.47,0,0,1,1,3.18v.38h-6.18a3.19,3.19,0,0,0,.77,2.09,2.23,2.23,0,0,0,1.73.73,2.17,2.17,0,0,0,1.33-.4A2.67,2.67,0,0,0,755.09,185.44Zm-4.61-2.27h4.63a2.79,2.79,0,0,0-.53-1.57,2.32,2.32,0,0,0-3.37-.16,2.53,2.53,0,0,0-.73,1.73Z"/><path class="cls-3" d="M757.79,184a4.23,4.23,0,0,1,1.28-3.41,3.85,3.85,0,0,1,2.61-.92,3.73,3.73,0,0,1,2.8,1.12,4.24,4.24,0,0,1,1.08,3.1,5.48,5.48,0,0,1-.48,2.52,3.44,3.44,0,0,1-1.4,1.43,4.21,4.21,0,0,1-2,.5,3.8,3.8,0,0,1-2.82-1.11A4.52,4.52,0,0,1,757.79,184Zm1.44,0a3.44,3.44,0,0,0,.7,2.38,2.29,2.29,0,0,0,3.24.25,2,2,0,0,0,.25-.25,3.59,3.59,0,0,0,.7-2.43,3.44,3.44,0,0,0-.7-2.33,2.34,2.34,0,0,0-3.29-.2l-.2.2a3.5,3.5,0,0,0-.65,2.38Z"/><path class="cls-3" d="M767.21,191.3V179.82h1.28v1.08a3.24,3.24,0,0,1,1-1,2.93,2.93,0,0,1,1.39-.32,3.25,3.25,0,0,1,1.87.55,3.5,3.5,0,0,1,1.23,1.54,5.71,5.71,0,0,1,.41,2.19,5.61,5.61,0,0,1-.45,2.29,3.51,3.51,0,0,1-1.33,1.57,3.58,3.58,0,0,1-1.83.54,3,3,0,0,1-1.27-.29,3.15,3.15,0,0,1-.91-.75v4Zm1.27-7.29a3.57,3.57,0,0,0,.65,2.37,2,2,0,0,0,3.18,0,3.74,3.74,0,0,0,.67-2.45,3.65,3.65,0,0,0-.66-2.37,1.92,1.92,0,0,0-3.15.05,3.77,3.77,0,0,0-.69,2.44Z"/><path class="cls-3" d="M776.08,188.12V176.66h1.4v11.46Z"/><path class="cls-3" d="M785.34,185.44l1.46.18a3.58,3.58,0,0,1-1.28,2,4,4,0,0,1-6.33-3.55,4.57,4.57,0,0,1,1.08-3.25,3.62,3.62,0,0,1,2.8-1.16,3.54,3.54,0,0,1,2.72,1.13,4.47,4.47,0,0,1,1,3.18v.38h-6.18a3.19,3.19,0,0,0,.77,2.09,2.26,2.26,0,0,0,1.74.73,2.15,2.15,0,0,0,1.32-.4A2.67,2.67,0,0,0,785.34,185.44Zm-4.61-2.27h4.63a2.79,2.79,0,0,0-.53-1.57,2.32,2.32,0,0,0-3.37-.16,2.53,2.53,0,0,0-.73,1.73Z"/><path class="cls-3" d="M794.54,188.12l-2.54-8.3h1.45l1.32,4.79.49,1.78c0-.09.17-.66.43-1.71l1.32-4.86h1.45l1.24,4.81.42,1.59.47-1.6,1.42-4.8h1.37l-2.59,8.3h-1.46l-1.32-5-.32-1.42L796,188.09Z"/><path class="cls-3" d="M804.56,188.12V176.66H806v4.12a3.07,3.07,0,0,1,2.48-1.14,3.16,3.16,0,0,1,1.6.36,2.11,2.11,0,0,1,1,1,4.69,4.69,0,0,1,.29,1.86v5.26h-1.41v-5.26a2.17,2.17,0,0,0-.45-1.54,1.71,1.71,0,0,0-1.3-.48,2.12,2.12,0,0,0-1.17.33,1.79,1.79,0,0,0-.79.88,4.18,4.18,0,0,0-.23,1.53v4.54Z"/><path class="cls-3" d="M812.94,184a4.23,4.23,0,0,1,1.28-3.41,3.85,3.85,0,0,1,2.61-.92,3.69,3.69,0,0,1,2.79,1.12,4.24,4.24,0,0,1,1.09,3.1,5.48,5.48,0,0,1-.48,2.52,3.44,3.44,0,0,1-1.4,1.43,4.21,4.21,0,0,1-2,.5A3.77,3.77,0,0,1,814,187.2,4.48,4.48,0,0,1,812.94,184Zm1.44,0a3.44,3.44,0,0,0,.7,2.38,2.29,2.29,0,0,0,3.24.25,2,2,0,0,0,.25-.25,3.63,3.63,0,0,0,.69-2.43,3.44,3.44,0,0,0-.69-2.33,2.34,2.34,0,0,0-3.29-.2c-.07.07-.14.13-.2.2A3.58,3.58,0,0,0,814.38,184Z"/><path class="cls-3" d="M828.1,188.12h-1.3V176.66h1.4v4.1a2.8,2.8,0,0,1,2.28-1.13,3.55,3.55,0,0,1,1.44.31,3,3,0,0,1,1.13.88,4.21,4.21,0,0,1,.69,1.35,5.3,5.3,0,0,1,.25,1.68,4.8,4.8,0,0,1-1,3.3,3.33,3.33,0,0,1-2.54,1.16,2.68,2.68,0,0,1-2.3-1.22Zm0-4.21a4.29,4.29,0,0,0,.41,2.15,2,2,0,0,0,2.69.89,2,2,0,0,0,.7-.6,3.62,3.62,0,0,0,.67-2.39,3.7,3.7,0,0,0-.64-2.39,2,2,0,0,0-2.81-.35,2.26,2.26,0,0,0-.34.35,3.45,3.45,0,0,0-.7,2.34Z"/><path class="cls-3" d="M841.38,185.44l1.45.18a3.48,3.48,0,0,1-1.27,2,4,4,0,0,1-6.33-3.55,4.57,4.57,0,0,1,1.08-3.25,3.62,3.62,0,0,1,2.8-1.16,3.54,3.54,0,0,1,2.72,1.13,4.47,4.47,0,0,1,1,3.18v.38h-6.18a3.19,3.19,0,0,0,.77,2.09,2.23,2.23,0,0,0,1.73.73,2.15,2.15,0,0,0,1.32-.4A2.68,2.68,0,0,0,841.38,185.44Zm-4.62-2.27h4.64a2.9,2.9,0,0,0-.53-1.57,2.21,2.21,0,0,0-1.75-.81,2.25,2.25,0,0,0-1.63.65A2.63,2.63,0,0,0,836.76,183.17Z"/><path class="cls-3" d="M844.57,188.12V176.66H846v11.46Z"/><path class="cls-3" d="M848.16,178.29v-1.63h1.41v1.63Zm0,9.84v-8.3h1.41v8.3Z"/><path class="cls-3" d="M857.39,185.44l1.45.18a3.51,3.51,0,0,1-1.27,2,4.32,4.32,0,0,1-5.26-.42,4.34,4.34,0,0,1-1.07-3.14,4.6,4.6,0,0,1,1.08-3.25,3.69,3.69,0,0,1,2.8-1.16,3.57,3.57,0,0,1,2.71,1.13,4.52,4.52,0,0,1,1.06,3.19v.38H852.7a3.18,3.18,0,0,0,.78,2.09,2.23,2.23,0,0,0,1.73.73,2.09,2.09,0,0,0,1.32-.41A2.55,2.55,0,0,0,857.39,185.44Zm-4.62-2.27h4.63a2.79,2.79,0,0,0-.53-1.57,2.19,2.19,0,0,0-1.74-.81,2.25,2.25,0,0,0-1.63.65A2.63,2.63,0,0,0,852.77,183.17Z"/><path class="cls-3" d="M862.91,188.12l-3.15-8.3h1.52l1.78,5c.19.53.37,1.09.53,1.67.13-.44.3-1,.53-1.58l1.84-5.06h1.45l-3.14,8.3Z"/><path class="cls-3" d="M874.28,185.44l1.45.18a3.51,3.51,0,0,1-1.27,2,4.32,4.32,0,0,1-5.26-.42,4.29,4.29,0,0,1-1.07-3.14,4.6,4.6,0,0,1,1.08-3.25,3.68,3.68,0,0,1,2.79-1.16,3.57,3.57,0,0,1,2.72,1.13,4.52,4.52,0,0,1,1.06,3.19v.38h-6.19a3.08,3.08,0,0,0,.78,2.09,2.23,2.23,0,0,0,1.73.73,2.09,2.09,0,0,0,1.32-.41A2.68,2.68,0,0,0,874.28,185.44Zm-4.62-2.27h4.62a2.79,2.79,0,0,0-.53-1.57,2.21,2.21,0,0,0-1.74-.81,2.25,2.25,0,0,0-1.63.65,2.56,2.56,0,0,0-.71,1.73Z"/><path class="cls-3" d="M885,186.86l.21,1.24a4.82,4.82,0,0,1-1.07.13A2.31,2.31,0,0,1,883,188a1.31,1.31,0,0,1-.6-.63,5.46,5.46,0,0,1-.17-1.66v-4.78h-1v-1.09h1v-2.06l1.4-.84v2.9H885v1.09h-1.41v4.85a2.52,2.52,0,0,0,.07.78.58.58,0,0,0,.24.27.89.89,0,0,0,.48.1A4.32,4.32,0,0,0,885,186.86Z"/><path class="cls-3" d="M886.4,188.12V176.66h1.4v4.12a3.17,3.17,0,0,1,2.48-1.12,3.42,3.42,0,0,1,1.6.37,2.11,2.11,0,0,1,1,1,4.52,4.52,0,0,1,.3,1.86v5.26h-1.41v-5.26a2.13,2.13,0,0,0-.46-1.54,1.64,1.64,0,0,0-1.29-.48,2.15,2.15,0,0,0-1.18.33,1.72,1.72,0,0,0-.78.88,3.93,3.93,0,0,0-.24,1.53v4.54Z"/><path class="cls-3" d="M900.71,187.09a5,5,0,0,1-1.5.94,4.12,4.12,0,0,1-1.55.27,2.94,2.94,0,0,1-2.11-.66,2.21,2.21,0,0,1-.73-1.71,2.31,2.31,0,0,1,1-1.91,3,3,0,0,1,1-.46,7.61,7.61,0,0,1,1.25-.22,13.4,13.4,0,0,0,2.51-.48v-.38a1.51,1.51,0,0,0-.4-1.2,2.31,2.31,0,0,0-1.6-.47,2.42,2.42,0,0,0-1.46.34,2,2,0,0,0-.7,1.23L895,182.2a3.4,3.4,0,0,1,.62-1.43,2.7,2.7,0,0,1,1.24-.84,5.47,5.47,0,0,1,1.88-.29,4.63,4.63,0,0,1,1.73.25,1.91,1.91,0,0,1,1.43,1.63,7.85,7.85,0,0,1,.07,1.29v1.85a20.49,20.49,0,0,0,.09,2.48,2.92,2.92,0,0,0,.36,1H901A2.92,2.92,0,0,1,900.71,187.09Zm-.12-3.14a9.52,9.52,0,0,1-2.29.53,5.79,5.79,0,0,0-1.23.29,1.16,1.16,0,0,0-.75,1.12,1.2,1.2,0,0,0,.42.94,1.77,1.77,0,0,0,1.25.37,2.93,2.93,0,0,0,1.45-.35,2.15,2.15,0,0,0,.93-1,3.32,3.32,0,0,0,.22-1.4Z"/><path class="cls-3" d="M907.28,186.86l.21,1.24a4.82,4.82,0,0,1-1.07.13,2.31,2.31,0,0,1-1.18-.25,1.41,1.41,0,0,1-.6-.63,5.46,5.46,0,0,1-.17-1.66v-4.78h-1v-1.09h1v-2.06l1.4-.84v2.9h1.41v1.09h-1.41v4.85a2.52,2.52,0,0,0,.07.78.55.55,0,0,0,.25.27.8.8,0,0,0,.48.1A4.18,4.18,0,0,0,907.28,186.86Z"/><path class="cls-3" d="M912.52,185.66l1.39-.22a1.91,1.91,0,0,0,.66,1.28,2.18,2.18,0,0,0,1.49.45,2.12,2.12,0,0,0,1.44-.39,1.2,1.2,0,0,0,.47-.92.82.82,0,0,0-.42-.75,5.13,5.13,0,0,0-1.43-.48A12.22,12.22,0,0,1,914,184a2.07,2.07,0,0,1-.9-.78,2,2,0,0,1-.31-1.12,2.15,2.15,0,0,1,.25-1,2.25,2.25,0,0,1,.69-.78,2.72,2.72,0,0,1,.9-.41,3.81,3.81,0,0,1,1.21-.17,4.78,4.78,0,0,1,1.72.28,2.26,2.26,0,0,1,1.09.76,2.93,2.93,0,0,1,.48,1.29l-1.37.19a1.5,1.5,0,0,0-.55-1,1.93,1.93,0,0,0-1.27-.36,2.16,2.16,0,0,0-1.38.32.89.89,0,0,0-.41.75.81.81,0,0,0,.17.49,1.3,1.3,0,0,0,.54.38c.14,0,.55.16,1.24.35a15.23,15.23,0,0,1,2.08.66,2.11,2.11,0,0,1,.93.74,2,2,0,0,1,.33,1.19,2.32,2.32,0,0,1-.41,1.33,2.62,2.62,0,0,1-1.18,1,4.37,4.37,0,0,1-1.75.34,3.92,3.92,0,0,1-2.47-.67A3.21,3.21,0,0,1,912.52,185.66Z"/><path class="cls-3" d="M926.5,185.08l1.38.18a3.5,3.5,0,0,1-1.16,2.23,3.32,3.32,0,0,1-2.29.81,3.54,3.54,0,0,1-2.74-1.11,4.48,4.48,0,0,1-1-3.19,5.77,5.77,0,0,1,.44-2.35,3.12,3.12,0,0,1,1.36-1.51,4.1,4.1,0,0,1,2-.51,3.5,3.5,0,0,1,2.21.69,3.16,3.16,0,0,1,1.1,1.94l-1.37.21a2.32,2.32,0,0,0-.69-1.26,1.8,1.8,0,0,0-1.2-.42,2.2,2.2,0,0,0-1.73.76,3.64,3.64,0,0,0-.66,2.41,3.74,3.74,0,0,0,.64,2.43,2.08,2.08,0,0,0,1.67.76,1.94,1.94,0,0,0,1.39-.51A2.57,2.57,0,0,0,926.5,185.08Z"/><path class="cls-3" d="M929.09,178.29v-1.63h1.41v1.63Zm0,9.84v-8.3h1.41v8.3Z"/><path class="cls-3" d="M938.28,185.44l1.45.18a3.51,3.51,0,0,1-1.27,2,4.32,4.32,0,0,1-5.26-.42,4.34,4.34,0,0,1-1.07-3.14,4.6,4.6,0,0,1,1.08-3.25,3.69,3.69,0,0,1,2.8-1.16,3.57,3.57,0,0,1,2.71,1.13,4.52,4.52,0,0,1,1.06,3.19v.38h-6.19a3.18,3.18,0,0,0,.78,2.09,2.23,2.23,0,0,0,1.73.73,2.09,2.09,0,0,0,1.32-.41A2.55,2.55,0,0,0,938.28,185.44Zm-4.62-2.27h4.63a2.79,2.79,0,0,0-.53-1.57,2.19,2.19,0,0,0-1.74-.81,2.25,2.25,0,0,0-1.63.65,2.59,2.59,0,0,0-.69,1.73Z"/><path class="cls-3" d="M941.54,188.12v-8.3h1.26V181a3,3,0,0,1,2.64-1.37,3.65,3.65,0,0,1,1.38.27,2.2,2.2,0,0,1,.94.71,2.64,2.64,0,0,1,.44,1,8.94,8.94,0,0,1,.08,1.36v5.11h-1.41V183a3.78,3.78,0,0,0-.16-1.29,1.42,1.42,0,0,0-.58-.68,2.18,2.18,0,0,0-1-.25,2.32,2.32,0,0,0-1.55.57,2.83,2.83,0,0,0-.66,2.16v4.54Z"/><path class="cls-3" d="M955.85,185.08l1.38.18a3.48,3.48,0,0,1-1.16,2.23,3.32,3.32,0,0,1-2.29.81,3.54,3.54,0,0,1-2.74-1.11,4.48,4.48,0,0,1-1-3.19,5.77,5.77,0,0,1,.44-2.35,3.12,3.12,0,0,1,1.36-1.51,4.1,4.1,0,0,1,2-.51,3.44,3.44,0,0,1,2.21.69,3.16,3.16,0,0,1,1.1,1.94l-1.37.21a2.32,2.32,0,0,0-.69-1.26,1.8,1.8,0,0,0-1.2-.42,2.18,2.18,0,0,0-1.72.76,3.59,3.59,0,0,0-.67,2.41,3.74,3.74,0,0,0,.64,2.43,2.08,2.08,0,0,0,1.67.76,1.94,1.94,0,0,0,1.39-.51A2.51,2.51,0,0,0,955.85,185.08Z"/><path class="cls-3" d="M964.12,185.44l1.45.18a3.56,3.56,0,0,1-1.27,2,4.33,4.33,0,0,1-5.27-.42,4.37,4.37,0,0,1-1.06-3.14,4.6,4.6,0,0,1,1.08-3.25,3.68,3.68,0,0,1,2.79-1.16,3.57,3.57,0,0,1,2.72,1.13,4.52,4.52,0,0,1,1.06,3.19v.38h-6.19a3.19,3.19,0,0,0,.77,2.09,2.29,2.29,0,0,0,1.74.73,2.15,2.15,0,0,0,1.32-.41A2.68,2.68,0,0,0,964.12,185.44Zm-4.62-2.27h4.63a2.79,2.79,0,0,0-.53-1.57,2.21,2.21,0,0,0-1.74-.81,2.25,2.25,0,0,0-1.63.65A2.63,2.63,0,0,0,959.5,183.17Z"/><path class="cls-3" d="M712.74,207.32,710.2,199h1.46l1.32,4.79.49,1.78c0-.09.16-.66.43-1.71l1.32-4.86h1.44l1.24,4.81.42,1.59.48-1.6,1.42-4.8h1.36l-2.59,8.3h-1.46l-1.32-5-.32-1.42-1.68,6.39Z"/><path class="cls-3" d="M722.77,197.48v-1.62h1.41v1.62Zm0,9.85V199h1.41v8.3Z"/><path class="cls-3" d="M726.28,207.32V195.86h1.4v11.46Z"/><path class="cls-3" d="M729.84,207.32V195.86h1.44v11.46Z"/><path class="cls-3" d="M737.88,197.48v-1.62h1.4v1.62Zm0,9.85V199h1.4v8.3Z"/><path class="cls-3" d="M741.43,207.32V199h1.26v1.18a3,3,0,0,1,2.64-1.37,3.65,3.65,0,0,1,1.38.27,2.3,2.3,0,0,1,1,.71,3,3,0,0,1,.43,1,7.82,7.82,0,0,1,.08,1.36v5.11h-1.41v-5a3.78,3.78,0,0,0-.16-1.29,1.42,1.42,0,0,0-.58-.68,1.93,1.93,0,0,0-1-.25,2.32,2.32,0,0,0-1.55.57,2.83,2.83,0,0,0-.66,2.16v4.54Z"/><path class="cls-3" d="M755.74,204.29l1.38.17A3.53,3.53,0,0,1,756,206.7a3.42,3.42,0,0,1-2.29.81,3.59,3.59,0,0,1-2.74-1.12,4.48,4.48,0,0,1-1-3.19,5.77,5.77,0,0,1,.44-2.35,3.12,3.12,0,0,1,1.36-1.51,4.1,4.1,0,0,1,2-.51,3.44,3.44,0,0,1,2.21.69,3.16,3.16,0,0,1,1.1,1.94l-1.37.21a2.32,2.32,0,0,0-.69-1.26,1.8,1.8,0,0,0-1.2-.42,2.18,2.18,0,0,0-1.72.76,3.59,3.59,0,0,0-.67,2.41,3.8,3.8,0,0,0,.64,2.43,2.1,2.1,0,0,0,1.68.76,2,2,0,0,0,1.38-.51A2.51,2.51,0,0,0,755.74,204.29Z"/><path class="cls-3" d="M758.28,207.32V199h1.27v1.26a3.61,3.61,0,0,1,.89-1.17,1.7,1.7,0,0,1,.9-.28,2.85,2.85,0,0,1,1.45.45l-.49,1.31a2.06,2.06,0,0,0-1-.31,1.42,1.42,0,0,0-.82.28,1.58,1.58,0,0,0-.53.77,5.75,5.75,0,0,0-.23,1.64v4.35Z"/><path class="cls-3" d="M769.33,204.66l1.46.18a3.58,3.58,0,0,1-1.28,2,4.31,4.31,0,0,1-5.26-.42,4.36,4.36,0,0,1-1.06-3.13,4.6,4.6,0,0,1,1.07-3.25,3.62,3.62,0,0,1,2.8-1.16,3.5,3.5,0,0,1,2.72,1.13,4.47,4.47,0,0,1,1,3.18v.38h-6.19a3.19,3.19,0,0,0,.77,2.09,2.26,2.26,0,0,0,1.74.73,2.09,2.09,0,0,0,1.32-.41A2.61,2.61,0,0,0,769.33,204.66Zm-4.61-2.27h4.63a2.79,2.79,0,0,0-.53-1.57,2.19,2.19,0,0,0-1.74-.81,2.25,2.25,0,0,0-1.63.65,2.56,2.56,0,0,0-.73,1.71Z"/><path class="cls-3" d="M778,206.29a4.73,4.73,0,0,1-1.51.94,4.12,4.12,0,0,1-1.55.27,3,3,0,0,1-2.1-.66,2.21,2.21,0,0,1-.73-1.71,2.32,2.32,0,0,1,1-1.92,3.23,3.23,0,0,1,1-.45,6.66,6.66,0,0,1,1.25-.21,14.28,14.28,0,0,0,2.51-.49v-.38a1.54,1.54,0,0,0-.4-1.21,2.36,2.36,0,0,0-1.6-.46,2.45,2.45,0,0,0-1.47.34,2.19,2.19,0,0,0-.7,1.23l-1.37-.18a3.28,3.28,0,0,1,.62-1.43,2.7,2.7,0,0,1,1.24-.84,5.47,5.47,0,0,1,1.88-.29,4.84,4.84,0,0,1,1.73.25,2.23,2.23,0,0,1,1,.62,2.2,2.2,0,0,1,.44,1,8,8,0,0,1,.07,1.3v1.87a20.49,20.49,0,0,0,.09,2.48,2.92,2.92,0,0,0,.36,1h-1.45A3,3,0,0,1,778,206.29Zm-.12-3.14a9.49,9.49,0,0,1-2.3.53,7.2,7.2,0,0,0-1.22.28,1.33,1.33,0,0,0-.56.46,1.24,1.24,0,0,0-.19.67,1.2,1.2,0,0,0,.42.94,1.77,1.77,0,0,0,1.25.37,2.9,2.9,0,0,0,1.44-.35,2.1,2.1,0,0,0,.93-1,3.33,3.33,0,0,0,.23-1.4Z"/><path class="cls-3" d="M780.89,204.84l1.39-.22a1.9,1.9,0,0,0,.65,1.28,2.76,2.76,0,0,0,2.94,0,1.12,1.12,0,0,0,.46-.91.84.84,0,0,0-.41-.75,5.31,5.31,0,0,0-1.44-.48,14.39,14.39,0,0,1-2.14-.68,2.15,2.15,0,0,1-.91-.78,2.23,2.23,0,0,1-.31-1.13,2.1,2.1,0,0,1,.26-1,2.38,2.38,0,0,1,.69-.79,2.86,2.86,0,0,1,.89-.4,3.91,3.91,0,0,1,1.22-.17,4.76,4.76,0,0,1,1.71.28,2.26,2.26,0,0,1,1.09.76,2.94,2.94,0,0,1,.49,1.29l-1.38.19a1.43,1.43,0,0,0-.54-1,1.93,1.93,0,0,0-1.27-.36,2.16,2.16,0,0,0-1.38.32.9.9,0,0,0-.42.75.76.76,0,0,0,.18.49,1.16,1.16,0,0,0,.53.37c.14.06.56.17,1.25.36a16.71,16.71,0,0,1,2.08.65,2.15,2.15,0,0,1,.92.74,2,2,0,0,1,.34,1.2,2.27,2.27,0,0,1-.41,1.32,2.5,2.5,0,0,1-1.18,1,4.21,4.21,0,0,1-1.75.35,3.92,3.92,0,0,1-2.47-.67A3.19,3.19,0,0,1,780.89,204.84Z"/><path class="cls-3" d="M795.13,204.66l1.45.18a3.48,3.48,0,0,1-1.27,2,4.31,4.31,0,0,1-5.26-.42,4.37,4.37,0,0,1-1.07-3.13,4.57,4.57,0,0,1,1.08-3.25,3.62,3.62,0,0,1,2.8-1.16,3.54,3.54,0,0,1,2.72,1.13,4.47,4.47,0,0,1,1,3.18v.38H790.4a3.19,3.19,0,0,0,.77,2.09,2.23,2.23,0,0,0,1.73.73,2.09,2.09,0,0,0,1.32-.41A2.61,2.61,0,0,0,795.13,204.66Zm-4.62-2.27h4.64a2.9,2.9,0,0,0-.53-1.57,2.21,2.21,0,0,0-1.75-.81,2.25,2.25,0,0,0-1.63.65,2.56,2.56,0,0,0-.73,1.71Z"/><path class="cls-3" d="M801,210.54l.26-1.2a2.54,2.54,0,0,0,.67.11.73.73,0,0,0,.64-.29,2.85,2.85,0,0,0,.21-1.42V199h1.4v8.75a4.08,4.08,0,0,1-.39,2.12,1.85,1.85,0,0,1-1.69.78A4.1,4.1,0,0,1,801,210.54Zm1.78-13V195.9h1.4v1.64Z"/><path class="cls-3" d="M805.83,203.17a4.23,4.23,0,0,1,1.28-3.41,3.85,3.85,0,0,1,2.61-.92,3.66,3.66,0,0,1,2.79,1.12,4.24,4.24,0,0,1,1.09,3.1,5.48,5.48,0,0,1-.48,2.52,3.44,3.44,0,0,1-1.4,1.43,4.21,4.21,0,0,1-2,.5,3.8,3.8,0,0,1-2.82-1.11A4.48,4.48,0,0,1,805.83,203.17Zm1.44,0a3.44,3.44,0,0,0,.7,2.38,2.29,2.29,0,0,0,3.24.25,2,2,0,0,0,.25-.25,3.59,3.59,0,0,0,.7-2.43,3.44,3.44,0,0,0-.7-2.33,2.34,2.34,0,0,0-3.29-.2c-.07.07-.14.13-.2.2a3.52,3.52,0,0,0-.69,2.38Z"/><path class="cls-3" d="M816.55,207.32h-1.27V195.86h1.41V200a2.8,2.8,0,0,1,2.27-1.12,3.6,3.6,0,0,1,1.45.31,3,3,0,0,1,1.12.88,4,4,0,0,1,.7,1.35,5.6,5.6,0,0,1,.25,1.68,4.82,4.82,0,0,1-1.06,3.3,3.32,3.32,0,0,1-2.53,1.16,2.66,2.66,0,0,1-2.3-1.22Zm0-4.21a4.17,4.17,0,0,0,.41,2.15,2,2,0,0,0,3.39.29,4.68,4.68,0,0,0,0-4.79,2,2,0,0,0-3.15,0,3.52,3.52,0,0,0-.67,2.32Z"/><path class="cls-3" d="M823.58,204.84l1.4-.22a1.86,1.86,0,0,0,.65,1.28,2.18,2.18,0,0,0,1.49.45,2.08,2.08,0,0,0,1.44-.4A1.16,1.16,0,0,0,829,205a.84.84,0,0,0-.41-.75,5.31,5.31,0,0,0-1.44-.48,14.9,14.9,0,0,1-2.15-.68,2.14,2.14,0,0,1-1-2.83l0-.09a2.2,2.2,0,0,1,.69-.79,2.72,2.72,0,0,1,.9-.41,3.81,3.81,0,0,1,1.21-.17,4.78,4.78,0,0,1,1.72.28,2.26,2.26,0,0,1,1.09.76,3.05,3.05,0,0,1,.48,1.29l-1.37.19a1.44,1.44,0,0,0-.55-1,2,2,0,0,0-1.26-.36,2.19,2.19,0,0,0-1.39.32.91.91,0,0,0-.41.75.83.83,0,0,0,.17.49,1.3,1.3,0,0,0,.54.38c.14.05.55.17,1.24.35a15.23,15.23,0,0,1,2.08.66,2,2,0,0,1,1.27,1.94,2.31,2.31,0,0,1-.41,1.32,2.7,2.7,0,0,1-1.19,1,4.37,4.37,0,0,1-1.75.34,3.91,3.91,0,0,1-2.46-.67A3.15,3.15,0,0,1,823.58,204.84Z"/><path class="cls-3" d="M836.6,197.48v-1.62H838v1.62Zm0,9.85V199H838v8.3Z"/><path class="cls-3" d="M840.15,207.32V199h1.26v1.18a3,3,0,0,1,2.64-1.37,3.65,3.65,0,0,1,1.38.27,2.28,2.28,0,0,1,.94.71,2.64,2.64,0,0,1,.44,1,8.94,8.94,0,0,1,.08,1.36v5.11h-1.41v-5a3.78,3.78,0,0,0-.16-1.29,1.42,1.42,0,0,0-.58-.68,1.93,1.93,0,0,0-1-.25,2.32,2.32,0,0,0-1.55.57,2.83,2.83,0,0,0-.66,2.16v4.54Z"/><path class="cls-3" d="M856.56,206.06l.2,1.24a4.73,4.73,0,0,1-1.06.13,2.35,2.35,0,0,1-1.19-.25,1.29,1.29,0,0,1-.59-.63,5.46,5.46,0,0,1-.17-1.66v-4.78h-1V199h1V197l1.4-.84V199h1.41v1.09h-1.41V205a2.52,2.52,0,0,0,.07.78.58.58,0,0,0,.24.27.8.8,0,0,0,.48.1A4.32,4.32,0,0,0,856.56,206.06Z"/><path class="cls-3" d="M857.94,207.32V195.86h1.4V200a3.42,3.42,0,0,1,4.09-.76,2.07,2.07,0,0,1,1,1,4.51,4.51,0,0,1,.29,1.86v5.26h-1.44v-5.26a2.13,2.13,0,0,0-.46-1.54,1.67,1.67,0,0,0-1.29-.48,2.15,2.15,0,0,0-1.18.33,1.72,1.72,0,0,0-.78.88,3.93,3.93,0,0,0-.24,1.53v4.54Z"/><path class="cls-3" d="M872.51,204.66l1.46.18a3.58,3.58,0,0,1-1.28,2,4.31,4.31,0,0,1-5.26-.42,4.36,4.36,0,0,1-1.06-3.13,4.6,4.6,0,0,1,1.07-3.25,3.62,3.62,0,0,1,2.8-1.16A3.5,3.5,0,0,1,873,200a4.47,4.47,0,0,1,1,3.18v.38h-6.19a3.19,3.19,0,0,0,.77,2.09,2.26,2.26,0,0,0,1.74.73,2.09,2.09,0,0,0,1.32-.41A2.61,2.61,0,0,0,872.51,204.66Zm-4.61-2.27h4.63a2.79,2.79,0,0,0-.53-1.57,2.21,2.21,0,0,0-1.74-.81,2.25,2.25,0,0,0-1.63.65,2.56,2.56,0,0,0-.73,1.71Z"/><path class="cls-3" d="M880.18,207.32V199h1.26v1.18a3,3,0,0,1,2.64-1.37,3.65,3.65,0,0,1,1.38.27,2.2,2.2,0,0,1,.94.71,2.64,2.64,0,0,1,.44,1,8.94,8.94,0,0,1,.08,1.36v5.11h-1.41v-5a3.78,3.78,0,0,0-.16-1.29,1.42,1.42,0,0,0-.58-.68,1.93,1.93,0,0,0-1-.25,2.32,2.32,0,0,0-1.55.57,2.83,2.83,0,0,0-.66,2.16v4.54Z"/><path class="cls-3" d="M894.76,204.66l1.45.18a3.51,3.51,0,0,1-1.27,2,4.31,4.31,0,0,1-5.27-.42,4.36,4.36,0,0,1-1.06-3.13,4.57,4.57,0,0,1,1.08-3.25,3.61,3.61,0,0,1,2.79-1.16A3.5,3.5,0,0,1,895.2,200a4.5,4.5,0,0,1,1.06,3.18v.38h-6.19a3.19,3.19,0,0,0,.77,2.09,2.29,2.29,0,0,0,1.74.73,2.09,2.09,0,0,0,1.32-.41A2.68,2.68,0,0,0,894.76,204.66Zm-4.62-2.27h4.63a2.79,2.79,0,0,0-.53-1.57,2.21,2.21,0,0,0-1.74-.81,2.25,2.25,0,0,0-1.63.65,2.56,2.56,0,0,0-.73,1.71Z"/><path class="cls-3" d="M897,207.32l3-4.32-2.81-4H899l1.28,1.94c.23.37.43.68.57.93.23-.34.44-.64.64-.91l1.39-2h1.68l-2.86,3.91,3.08,4.39h-1.72l-1.71-2.58-.45-.7-2.18,3.28Z"/><path class="cls-3" d="M909.05,206.06l.2,1.24a4.73,4.73,0,0,1-1.06.13,2.35,2.35,0,0,1-1.19-.25,1.41,1.41,0,0,1-.6-.63,5.46,5.46,0,0,1-.17-1.66v-4.78h-1V199h1V197l1.4-.84V199h1.42v1.09h-1.42V205a2.25,2.25,0,0,0,.08.78.53.53,0,0,0,.24.27.8.8,0,0,0,.48.1A4.32,4.32,0,0,0,909.05,206.06Z"/><path class="cls-3" d="M914.48,204.32l1.47-.13a2.7,2.7,0,0,0,.76,1.63,2.15,2.15,0,0,0,1.45.55,2.27,2.27,0,0,0,1.71-.77,2.89,2.89,0,0,0,.71-2,2.6,2.6,0,0,0-.68-1.9,2.32,2.32,0,0,0-1.77-.7,2.42,2.42,0,0,0-1.23.31,2.33,2.33,0,0,0-.85.8l-1.32-.17,1.1-5.88h5.7v1.34H917l-.62,3.08a3.69,3.69,0,0,1,2.17-.72,3.41,3.41,0,0,1,2.53,1,3.57,3.57,0,0,1,1,2.67,4.19,4.19,0,0,1-.91,2.69,3.61,3.61,0,0,1-3,1.39,3.73,3.73,0,0,1-2.56-.87A3.43,3.43,0,0,1,914.48,204.32Z"/><path class="cls-3" d="M928.15,210.52l-.16-1.33a3.19,3.19,0,0,0,.81.13,1.49,1.49,0,0,0,.75-.16,1.21,1.21,0,0,0,.46-.44,8.14,8.14,0,0,0,.43-1,2.91,2.91,0,0,1,.12-.35l-3.15-8.31h1.52l1.73,4.8c.22.61.42,1.25.6,1.93.16-.63.35-1.27.57-1.89l1.78-4.84H935l-3.15,8.44a14.9,14.9,0,0,1-.79,1.88,2.77,2.77,0,0,1-.86,1,2.08,2.08,0,0,1-1.16.32A2.77,2.77,0,0,1,928.15,210.52Z"/><path class="cls-3" d="M941.89,204.66l1.45.18a3.51,3.51,0,0,1-1.27,2,4.32,4.32,0,0,1-5.26-.42,4.38,4.38,0,0,1-1.07-3.14,4.6,4.6,0,0,1,1.08-3.25,3.69,3.69,0,0,1,2.8-1.16,3.57,3.57,0,0,1,2.71,1.13,4.52,4.52,0,0,1,1.06,3.19v.38H937.2a3.18,3.18,0,0,0,.78,2.09,2.23,2.23,0,0,0,1.73.73A2.09,2.09,0,0,0,941,206,2.55,2.55,0,0,0,941.89,204.66Zm-4.62-2.27h4.63a2.79,2.79,0,0,0-.53-1.57,2.19,2.19,0,0,0-1.74-.81,2.25,2.25,0,0,0-1.63.65,2.62,2.62,0,0,0-.72,1.71Z"/><path class="cls-3" d="M950.52,206.29a5,5,0,0,1-1.5.94,4.12,4.12,0,0,1-1.55.27,3,3,0,0,1-2.1-.66,2.24,2.24,0,0,1-.74-1.71,2.34,2.34,0,0,1,1-1.92,3,3,0,0,1,1-.45,6.66,6.66,0,0,1,1.25-.21,13.17,13.17,0,0,0,2.5-.49v-.38a1.54,1.54,0,0,0-.4-1.21,3.14,3.14,0,0,0-3.06-.12,2.1,2.1,0,0,0-.7,1.23l-1.38-.18a3.4,3.4,0,0,1,.62-1.43,2.77,2.77,0,0,1,1.24-.84,5.3,5.3,0,0,1,1.89-.29,4.79,4.79,0,0,1,1.72.25,2.32,2.32,0,0,1,1,.62,2.25,2.25,0,0,1,.44,1,8,8,0,0,1,.07,1.3v1.87a20.49,20.49,0,0,0,.09,2.48,3.13,3.13,0,0,0,.35,1h-1.47A3.24,3.24,0,0,1,950.52,206.29Zm-.12-3.14a9.52,9.52,0,0,1-2.29.53,6.45,6.45,0,0,0-1.23.28,1.3,1.3,0,0,0-.55.46,1.25,1.25,0,0,0,.23,1.62,1.84,1.84,0,0,0,1.24.37,3.17,3.17,0,0,0,1.45-.35,2.25,2.25,0,0,0,.93-1,3.37,3.37,0,0,0,.22-1.4Z"/><path class="cls-3" d="M954,207.32V199h1.29v1.26a3.61,3.61,0,0,1,.89-1.17,1.7,1.7,0,0,1,.9-.28,2.85,2.85,0,0,1,1.45.45l-.49,1.31a2.06,2.06,0,0,0-1-.31,1.42,1.42,0,0,0-.82.28,1.58,1.58,0,0,0-.53.77,5.75,5.75,0,0,0-.23,1.64v4.35Z"/><path class="cls-3" d="M958.77,204.84l1.39-.22a1.91,1.91,0,0,0,.66,1.28,2.18,2.18,0,0,0,1.49.45,2.08,2.08,0,0,0,1.44-.4,1.16,1.16,0,0,0,.47-.91.82.82,0,0,0-.42-.75,5.13,5.13,0,0,0-1.43-.48,14.52,14.52,0,0,1-2.15-.68,2.07,2.07,0,0,1-.9-.78,2.21,2.21,0,0,1,.63-2.93,2.72,2.72,0,0,1,.9-.41,3.81,3.81,0,0,1,1.21-.17,4.78,4.78,0,0,1,1.72.28,2.26,2.26,0,0,1,1.09.76,3.05,3.05,0,0,1,.48,1.29l-1.37.19a1.5,1.5,0,0,0-.55-1,2,2,0,0,0-1.27-.36,2.16,2.16,0,0,0-1.38.32.89.89,0,0,0-.41.75.81.81,0,0,0,.17.49,1.3,1.3,0,0,0,.54.38c.14.05.55.17,1.24.35a15.23,15.23,0,0,1,2.08.66,2.11,2.11,0,0,1,.93.74,2,2,0,0,1,.33,1.2,2.31,2.31,0,0,1-.41,1.32,2.62,2.62,0,0,1-1.18,1,4.37,4.37,0,0,1-1.75.34,3.92,3.92,0,0,1-2.47-.67A3.19,3.19,0,0,1,958.77,204.84Z"/><path class="cls-3" d="M659.76,124.12V112.66h4.32a10.23,10.23,0,0,1,1.75.12,3.29,3.29,0,0,1,1.41.54,2.74,2.74,0,0,1,.92,1.1,3.68,3.68,0,0,1,.35,1.57,3.54,3.54,0,0,1-.93,2.47,4.54,4.54,0,0,1-3.36,1h-2.94v4.66Zm1.52-6h3a3.06,3.06,0,0,0,2.09-.55A2,2,0,0,0,667,116a2.11,2.11,0,0,0-.36-1.23,1.78,1.78,0,0,0-1-.67,6.65,6.65,0,0,0-1.41-.11h-2.93Z"/><path class="cls-3" d="M675.94,121.44l1.45.18a3.51,3.51,0,0,1-1.27,2,4.31,4.31,0,0,1-5.27-.42,4.36,4.36,0,0,1-1.06-3.13,4.57,4.57,0,0,1,1.08-3.25,3.61,3.61,0,0,1,2.79-1.16,3.5,3.5,0,0,1,2.72,1.13,4.5,4.5,0,0,1,1.06,3.18v.38h-6.16a3.19,3.19,0,0,0,.77,2.09,2.29,2.29,0,0,0,1.74.73,2.15,2.15,0,0,0,1.32-.4A2.74,2.74,0,0,0,675.94,121.44Zm-4.62-2.27H676a2.79,2.79,0,0,0-.53-1.57,2.19,2.19,0,0,0-1.74-.81,2.25,2.25,0,0,0-1.63.65,2.58,2.58,0,0,0-.77,1.73Z"/><path class="cls-3" d="M678.63,120a4.3,4.3,0,0,1,1.28-3.41,3.85,3.85,0,0,1,2.61-.92,3.73,3.73,0,0,1,2.8,1.12,4.24,4.24,0,0,1,1.08,3.1,5.48,5.48,0,0,1-.48,2.52,3.42,3.42,0,0,1-1.39,1.43,4.21,4.21,0,0,1-2,.5,3.74,3.74,0,0,1-2.81-1.11A4.48,4.48,0,0,1,678.63,120Zm1.45,0a3.48,3.48,0,0,0,.69,2.38,2.3,2.3,0,0,0,3.49,0,3.57,3.57,0,0,0,.7-2.43,3.44,3.44,0,0,0-.7-2.33,2.23,2.23,0,0,0-1.74-.79,2.29,2.29,0,0,0-1.75.78,3.6,3.6,0,0,0-.69,2.39Z"/><path class="cls-3" d="M688.05,127.3V115.82h1.28v1.08a3.36,3.36,0,0,1,1-1,2.89,2.89,0,0,1,1.38-.32,3.31,3.31,0,0,1,1.88.55,3.36,3.36,0,0,1,1.22,1.54,5.89,5.89,0,0,1,0,4.48,3.51,3.51,0,0,1-1.33,1.57,3.58,3.58,0,0,1-1.83.54,2.87,2.87,0,0,1-1.26-.29,2.92,2.92,0,0,1-.92-.75v4Zm1.28-7.29a3.55,3.55,0,0,0,.65,2.37,2,2,0,0,0,3.17,0,4.75,4.75,0,0,0,0-4.83,1.93,1.93,0,0,0-3.15,0,3.82,3.82,0,0,0-.67,2.45Z"/><path class="cls-3" d="M696.92,124.12V112.66h1.41v11.46Z"/><path class="cls-3" d="M706.19,121.44l1.45.18a3.51,3.51,0,0,1-1.27,2,4.31,4.31,0,0,1-5.27-.42,4.36,4.36,0,0,1-1.06-3.13,4.57,4.57,0,0,1,1.08-3.25,3.61,3.61,0,0,1,2.79-1.16,3.5,3.5,0,0,1,2.72,1.13,4.5,4.5,0,0,1,1.06,3.18v.38H701.5a3.19,3.19,0,0,0,.77,2.09,2.29,2.29,0,0,0,1.74.73,2.15,2.15,0,0,0,1.32-.4A2.75,2.75,0,0,0,706.19,121.44Zm-4.62-2.27h4.63a2.79,2.79,0,0,0-.53-1.57,2.19,2.19,0,0,0-1.74-.81,2.25,2.25,0,0,0-1.63.65A2.63,2.63,0,0,0,701.57,119.17Z"/><path class="cls-3" d="M715.38,124.12l-2.54-8.3h1.44l1.32,4.79.49,1.78c0-.09.16-.66.43-1.71l1.32-4.86h1.44l1.25,4.81.41,1.59.48-1.6,1.42-4.8h1.44l-2.6,8.3h-1.46l-1.32-5-.32-1.42-1.68,6.39Z"/><path class="cls-3" d="M725.4,124.12V112.66h1.41v4.12a3.18,3.18,0,0,1,2.47-1.12,3.42,3.42,0,0,1,1.6.37,2.15,2.15,0,0,1,1,1,4.51,4.51,0,0,1,.29,1.86v5.26h-1.4v-5.26a2.17,2.17,0,0,0-.46-1.54,1.67,1.67,0,0,0-1.29-.48,2.15,2.15,0,0,0-1.18.33,1.72,1.72,0,0,0-.78.88,3.93,3.93,0,0,0-.24,1.53v4.54Z"/><path class="cls-3" d="M733.78,120a4.3,4.3,0,0,1,1.28-3.41,3.85,3.85,0,0,1,2.61-.92,3.73,3.73,0,0,1,2.8,1.12,4.24,4.24,0,0,1,1.08,3.1,5.48,5.48,0,0,1-.48,2.52,3.44,3.44,0,0,1-1.4,1.43,4.21,4.21,0,0,1-2,.5,3.8,3.8,0,0,1-2.82-1.11A4.52,4.52,0,0,1,733.78,120Zm1.45,0a3.48,3.48,0,0,0,.69,2.38,2.29,2.29,0,0,0,3.24.25,2,2,0,0,0,.25-.25,3.57,3.57,0,0,0,.7-2.43,3.44,3.44,0,0,0-.7-2.33,2.34,2.34,0,0,0-3.29-.2l-.2.2a3.56,3.56,0,0,0-.64,2.38Z"/><path class="cls-3" d="M750.72,122.86l.2,1.24a4.73,4.73,0,0,1-1.06.13,2.35,2.35,0,0,1-1.19-.25,1.29,1.29,0,0,1-.59-.63,4.64,4.64,0,0,1-.18-1.66v-4.78h-1v-1.09h1v-2.06l1.4-.84v2.9h1.42v1.09h-1.44v4.85a2.25,2.25,0,0,0,.08.78.58.58,0,0,0,.24.27.8.8,0,0,0,.48.1A4.6,4.6,0,0,0,750.72,122.86Z"/><path class="cls-3" d="M752.08,124.12v-8.3h1.26v1.26a3.43,3.43,0,0,1,.9-1.17,1.7,1.7,0,0,1,.9-.28,2.84,2.84,0,0,1,1.44.45l-.48,1.31a2.06,2.06,0,0,0-1-.31,1.45,1.45,0,0,0-.83.28,1.56,1.56,0,0,0-.52.77,5.76,5.76,0,0,0-.24,1.64v4.35Z"/><path class="cls-3" d="M762.86,124.12V122.9a3,3,0,0,1-2.63,1.4,3.31,3.31,0,0,1-1.38-.28,2.16,2.16,0,0,1-.94-.7,2.56,2.56,0,0,1-.43-1,7.15,7.15,0,0,1-.09-1.31v-5.14h1.41v4.6a8.23,8.23,0,0,0,.08,1.49,1.57,1.57,0,0,0,.56.88,1.84,1.84,0,0,0,1.07.31,2.57,2.57,0,0,0,1.18-.32,1.92,1.92,0,0,0,.79-.88,4.77,4.77,0,0,0,.23-1.63v-4.44h1.41v8.3Z"/><path class="cls-3" d="M765.76,121.66l1.39-.22a1.9,1.9,0,0,0,.65,1.28,2.19,2.19,0,0,0,1.5.45,2.13,2.13,0,0,0,1.43-.39,1.17,1.17,0,0,0,.47-.92.84.84,0,0,0-.41-.75,5.31,5.31,0,0,0-1.44-.48,12.38,12.38,0,0,1-2.14-.68,2,2,0,0,1-1.22-1.9,2.15,2.15,0,0,1,.25-1,2.19,2.19,0,0,1,.7-.78,2.67,2.67,0,0,1,.89-.41,3.91,3.91,0,0,1,1.22-.17,4.76,4.76,0,0,1,1.71.28,2.26,2.26,0,0,1,1.09.76,2.93,2.93,0,0,1,.48,1.29l-1.37.19a1.43,1.43,0,0,0-.54-1,2,2,0,0,0-1.27-.36,2.19,2.19,0,0,0-1.39.32.91.91,0,0,0-.41.75.81.81,0,0,0,.17.49,1.36,1.36,0,0,0,.54.38c.14,0,.56.17,1.24.35a15.36,15.36,0,0,1,2.09.66,2,2,0,0,1,.92.74,2.1,2.1,0,0,1,.34,1.2,2.31,2.31,0,0,1-.41,1.32,2.7,2.7,0,0,1-1.19,1,4.37,4.37,0,0,1-1.75.34,3.91,3.91,0,0,1-2.46-.67A3.08,3.08,0,0,1,765.76,121.66Z"/><path class="cls-3" d="M777.39,122.86l.2,1.24a4.73,4.73,0,0,1-1.06.13,2.35,2.35,0,0,1-1.19-.25,1.29,1.29,0,0,1-.59-.63,4.87,4.87,0,0,1-.17-1.66v-4.78h-1v-1.09h1v-2.06l1.4-.84v2.9h1.41v1.09H776v4.85a2.52,2.52,0,0,0,.07.78.58.58,0,0,0,.24.27.8.8,0,0,0,.48.1A4.32,4.32,0,0,0,777.39,122.86Z"/><path class="cls-3" d="M783.22,114.29v-1.63h1.4v1.63Zm0,9.84v-8.3h1.4v8.3Z"/><path class="cls-3" d="M786.76,124.12v-8.3H788V117a3,3,0,0,1,2.64-1.37,3.65,3.65,0,0,1,1.38.27,2.28,2.28,0,0,1,.94.71,3,3,0,0,1,.44,1,8.94,8.94,0,0,1,.08,1.36v5.11H792.1v-5a3.78,3.78,0,0,0-.16-1.29,1.39,1.39,0,0,0-.59-.68,2,2,0,0,0-1-.25,2.32,2.32,0,0,0-1.55.57,2.84,2.84,0,0,0-.65,2.16v4.54Z"/><path class="cls-3" d="M799.55,121.66l1.39-.22a1.86,1.86,0,0,0,.65,1.28,2.18,2.18,0,0,0,1.49.45,2.12,2.12,0,0,0,1.44-.39,1.2,1.2,0,0,0,.47-.92.84.84,0,0,0-.41-.75,5.31,5.31,0,0,0-1.44-.48A13.11,13.11,0,0,1,801,120a2,2,0,0,1-1.21-1.9,2.15,2.15,0,0,1,.25-1,2.19,2.19,0,0,1,.7-.78,2.67,2.67,0,0,1,.89-.41,3.81,3.81,0,0,1,1.21-.17,4.78,4.78,0,0,1,1.72.28,2.26,2.26,0,0,1,1.09.76,2.93,2.93,0,0,1,.48,1.29l-1.37.19a1.49,1.49,0,0,0-.54-1,2,2,0,0,0-1.27-.36,2.19,2.19,0,0,0-1.39.32.91.91,0,0,0-.41.75.81.81,0,0,0,.17.49,1.36,1.36,0,0,0,.54.38c.14,0,.55.17,1.24.35a15.23,15.23,0,0,1,2.08.66,1.93,1.93,0,0,1,.93.74,2.1,2.1,0,0,1,.34,1.2,2.31,2.31,0,0,1-.41,1.32,2.7,2.7,0,0,1-1.19,1,4.37,4.37,0,0,1-1.75.34,3.91,3.91,0,0,1-2.46-.67A3.08,3.08,0,0,1,799.55,121.66Z"/><path class="cls-3" d="M813.52,121.08l1.38.18a3.48,3.48,0,0,1-1.16,2.23,3.32,3.32,0,0,1-2.29.81,3.54,3.54,0,0,1-2.74-1.11,4.48,4.48,0,0,1-1-3.19,5.77,5.77,0,0,1,.44-2.35,3.12,3.12,0,0,1,1.36-1.51,4.1,4.1,0,0,1,2-.51,3.44,3.44,0,0,1,2.21.69,3.11,3.11,0,0,1,1.1,1.94l-1.37.21a2.32,2.32,0,0,0-.69-1.26,1.8,1.8,0,0,0-1.2-.42,2.18,2.18,0,0,0-1.72.76,3.59,3.59,0,0,0-.67,2.41,3.8,3.8,0,0,0,.64,2.43,2.1,2.1,0,0,0,1.68.76,2,2,0,0,0,1.38-.51A2.51,2.51,0,0,0,813.52,121.08Z"/><path class="cls-3" d="M816.12,114.29v-1.63h1.4v1.63Zm0,9.84v-8.3h1.4v8.3Z"/><path class="cls-3" d="M825.34,121.44l1.46.18a3.58,3.58,0,0,1-1.28,2,4,4,0,0,1-6.33-3.55,4.57,4.57,0,0,1,1.08-3.25,3.62,3.62,0,0,1,2.8-1.16,3.54,3.54,0,0,1,2.72,1.13,4.47,4.47,0,0,1,1,3.18v.38h-6.18a3.19,3.19,0,0,0,.77,2.09,2.26,2.26,0,0,0,1.74.73,2.15,2.15,0,0,0,1.32-.4A2.67,2.67,0,0,0,825.34,121.44Zm-4.61-2.27h4.63a2.79,2.79,0,0,0-.53-1.57,2.32,2.32,0,0,0-3.37-.16,2.53,2.53,0,0,0-.73,1.73Z"/><path class="cls-3" d="M828.56,124.12v-8.3h1.27V117a3,3,0,0,1,2.64-1.37,3.65,3.65,0,0,1,1.38.27,2.28,2.28,0,0,1,.94.71,3,3,0,0,1,.44,1,8.92,8.92,0,0,1,.07,1.36v5.11h-1.4v-5a3.79,3.79,0,0,0-.17-1.29,1.42,1.42,0,0,0-.58-.68,2,2,0,0,0-1-.25,2.32,2.32,0,0,0-1.55.57,2.8,2.8,0,0,0-.65,2.16v4.54Z"/><path class="cls-3" d="M842.87,121.08l1.39.18a3.5,3.5,0,0,1-1.16,2.23,3.35,3.35,0,0,1-2.3.81,3.52,3.52,0,0,1-2.73-1.11,4.48,4.48,0,0,1-1-3.19,5.78,5.78,0,0,1,.45-2.35,3.05,3.05,0,0,1,1.35-1.51,4.1,4.1,0,0,1,2-.51,3.44,3.44,0,0,1,2.21.69,3.11,3.11,0,0,1,1.1,1.94l-1.36.21a2.32,2.32,0,0,0-.69-1.26,1.93,1.93,0,0,0-1.2-.42,2.2,2.2,0,0,0-1.73.76,3.64,3.64,0,0,0-.66,2.41,3.74,3.74,0,0,0,.64,2.43,2.08,2.08,0,0,0,1.67.76,2,2,0,0,0,1.38-.51A2.5,2.5,0,0,0,842.87,121.08Z"/><path class="cls-3" d="M851.14,121.44l1.45.18a3.51,3.51,0,0,1-1.27,2,4.32,4.32,0,0,1-5.26-.42,4.34,4.34,0,0,1-1.07-3.14,4.6,4.6,0,0,1,1.08-3.25,3.69,3.69,0,0,1,2.8-1.16,3.57,3.57,0,0,1,2.71,1.13,4.52,4.52,0,0,1,1.06,3.19v.38h-6.19a3.18,3.18,0,0,0,.78,2.09,2.23,2.23,0,0,0,1.73.73,2.09,2.09,0,0,0,1.32-.41A2.55,2.55,0,0,0,851.14,121.44Zm-4.62-2.27h4.64a2.88,2.88,0,0,0-.54-1.57,2.19,2.19,0,0,0-1.74-.81,2.25,2.25,0,0,0-1.63.65A2.63,2.63,0,0,0,846.52,119.17Z"/><path class="cls-3" d="M864.22,123.09a4.73,4.73,0,0,1-1.51.94,4.12,4.12,0,0,1-1.55.27,3,3,0,0,1-2.1-.66,2.21,2.21,0,0,1-.73-1.71,2.29,2.29,0,0,1,1-1.91,3,3,0,0,1,1-.46,7.61,7.61,0,0,1,1.25-.22,13.4,13.4,0,0,0,2.51-.48v-.38a1.51,1.51,0,0,0-.4-1.2,2.31,2.31,0,0,0-1.6-.47,2.45,2.45,0,0,0-1.47.34,2.1,2.1,0,0,0-.7,1.23l-1.37-.18a3.28,3.28,0,0,1,.62-1.43,2.7,2.7,0,0,1,1.24-.84,5.47,5.47,0,0,1,1.88-.29,4.84,4.84,0,0,1,1.73.25,2.16,2.16,0,0,1,1,.63,2.11,2.11,0,0,1,.44,1,7.85,7.85,0,0,1,.07,1.29v1.85a20.49,20.49,0,0,0,.09,2.48,2.92,2.92,0,0,0,.36,1h-1.47A2.88,2.88,0,0,1,864.22,123.09ZM864.1,120a9.49,9.49,0,0,1-2.3.53,6.37,6.37,0,0,0-1.22.29,1.16,1.16,0,0,0-.75,1.12,1.2,1.2,0,0,0,.42.94,1.77,1.77,0,0,0,1.25.37,2.9,2.9,0,0,0,1.44-.35,2.1,2.1,0,0,0,.93-1,3.33,3.33,0,0,0,.23-1.4Z"/><path class="cls-3" d="M867.7,124.12v-8.3H869V117a3,3,0,0,1,2.64-1.37,3.65,3.65,0,0,1,1.38.27,2.28,2.28,0,0,1,.94.71,3,3,0,0,1,.44,1,8.92,8.92,0,0,1,.07,1.36v5.11H873v-5a3.79,3.79,0,0,0-.17-1.29,1.42,1.42,0,0,0-.58-.68,2,2,0,0,0-1-.25,2.32,2.32,0,0,0-1.55.57,2.8,2.8,0,0,0-.65,2.16v4.54Z"/><path class="cls-3" d="M882,124.12v-1.05a2.55,2.55,0,0,1-2.32,1.23,3.18,3.18,0,0,1-1.82-.54,3.5,3.5,0,0,1-1.29-1.53,5.1,5.1,0,0,1-.46-2.25,5.85,5.85,0,0,1,.42-2.26,3.31,3.31,0,0,1,1.24-1.55,3.44,3.44,0,0,1,1.85-.54,2.82,2.82,0,0,1,2.29,1.14v-4.11h1.4v11.46ZM877.54,120a3.59,3.59,0,0,0,.67,2.38,2,2,0,0,0,1.59.79,2,2,0,0,0,1.56-.76,3.49,3.49,0,0,0,.65-2.3,3.91,3.91,0,0,0-.66-2.5,2,2,0,0,0-1.62-.79,2,2,0,0,0-1.56.76A3.8,3.8,0,0,0,877.54,120Z"/><path class="cls-3" d="M893,122.86l.21,1.24a4.73,4.73,0,0,1-1.06.13A2.25,2.25,0,0,1,891,124a1.41,1.41,0,0,1-.6-.63,5.46,5.46,0,0,1-.17-1.66v-4.78h-1v-1.09h1v-2.06l1.4-.84v2.9H893v1.09H891.6v4.85a2.52,2.52,0,0,0,.07.78.55.55,0,0,0,.25.27.8.8,0,0,0,.48.1A4.18,4.18,0,0,0,893,122.86Z"/><path class="cls-3" d="M900.07,121.44l1.45.18a3.51,3.51,0,0,1-1.27,2,4.32,4.32,0,0,1-5.26-.42,4.34,4.34,0,0,1-1.07-3.14,4.6,4.6,0,0,1,1.08-3.25,3.69,3.69,0,0,1,2.8-1.16,3.57,3.57,0,0,1,2.71,1.13,4.52,4.52,0,0,1,1.06,3.19v.38h-6.19a3.18,3.18,0,0,0,.78,2.09,2.23,2.23,0,0,0,1.73.73,2.09,2.09,0,0,0,1.32-.41A2.55,2.55,0,0,0,900.07,121.44Zm-4.62-2.27h4.63a2.79,2.79,0,0,0-.53-1.57,2.19,2.19,0,0,0-1.74-.81,2.25,2.25,0,0,0-1.63.65A2.63,2.63,0,0,0,895.45,119.17Z"/><path class="cls-3" d="M908.7,121.08l1.38.18a3.48,3.48,0,0,1-1.16,2.23,3.32,3.32,0,0,1-2.29.81,3.54,3.54,0,0,1-2.74-1.11,4.48,4.48,0,0,1-1-3.19,5.77,5.77,0,0,1,.44-2.35,3.12,3.12,0,0,1,1.36-1.51,4.1,4.1,0,0,1,2-.51,3.44,3.44,0,0,1,2.21.69,3.11,3.11,0,0,1,1.1,1.94l-1.37.21a2.32,2.32,0,0,0-.69-1.26,1.8,1.8,0,0,0-1.2-.42,2.18,2.18,0,0,0-1.72.76,3.59,3.59,0,0,0-.67,2.41,3.8,3.8,0,0,0,.64,2.43,2.1,2.1,0,0,0,1.68.76,2,2,0,0,0,1.38-.51A2.51,2.51,0,0,0,908.7,121.08Z"/><path class="cls-3" d="M911.28,124.12V112.66h1.4v4.12a3.14,3.14,0,0,1,2.49-1.14,3.29,3.29,0,0,1,1.6.36,2.11,2.11,0,0,1,1,1,4.52,4.52,0,0,1,.3,1.86v5.26h-1.41v-5.26a2.13,2.13,0,0,0-.46-1.54,1.64,1.64,0,0,0-1.29-.48,2.15,2.15,0,0,0-1.18.33,1.72,1.72,0,0,0-.78.88,3.93,3.93,0,0,0-.24,1.53v4.54Z"/><path class="cls-3" d="M920.19,124.12v-8.3h1.26V117a3,3,0,0,1,2.64-1.37,3.65,3.65,0,0,1,1.38.27,2.28,2.28,0,0,1,.94.71,2.64,2.64,0,0,1,.44,1,8.94,8.94,0,0,1,.08,1.36v5.11h-1.41v-5a3.78,3.78,0,0,0-.16-1.29,1.42,1.42,0,0,0-.58-.68,2.18,2.18,0,0,0-1-.25,2.35,2.35,0,0,0-1.56.57,2.84,2.84,0,0,0-.65,2.16v4.54Z"/><path class="cls-3" d="M928.56,120a4.3,4.3,0,0,1,1.28-3.41,3.85,3.85,0,0,1,2.61-.92,3.73,3.73,0,0,1,2.8,1.12,4.24,4.24,0,0,1,1.08,3.1,5.48,5.48,0,0,1-.48,2.52,3.42,3.42,0,0,1-1.39,1.43,4.21,4.21,0,0,1-2,.5,3.74,3.74,0,0,1-2.81-1.11A4.48,4.48,0,0,1,928.56,120Zm1.45,0a3.48,3.48,0,0,0,.69,2.38,2.29,2.29,0,0,0,3.24.25,2,2,0,0,0,.25-.25,3.57,3.57,0,0,0,.7-2.43,3.44,3.44,0,0,0-.7-2.33,2.34,2.34,0,0,0-3.29-.2c-.07.07-.14.13-.2.2A3.57,3.57,0,0,0,930,120Z"/><path class="cls-3" d="M938,124.12V112.66h1.41v11.46Z"/><path class="cls-3" d="M941,120a4.26,4.26,0,0,1,1.29-3.41,3.81,3.81,0,0,1,2.6-.92,3.72,3.72,0,0,1,2.8,1.12,4.24,4.24,0,0,1,1.09,3.1,5.48,5.48,0,0,1-.48,2.52,3.44,3.44,0,0,1-1.4,1.43,4.21,4.21,0,0,1-2,.5,3.74,3.74,0,0,1-2.81-1.11A4.48,4.48,0,0,1,941,120Zm1.45,0a3.44,3.44,0,0,0,.7,2.38,2.3,2.3,0,0,0,3.49,0,3.63,3.63,0,0,0,.69-2.43,3.44,3.44,0,0,0-.7-2.33,2.23,2.23,0,0,0-1.74-.79,2.26,2.26,0,0,0-1.74.78,3.5,3.5,0,0,0-.7,2.39Z"/><path class="cls-3" d="M950.18,124.8l1.37.21a1.26,1.26,0,0,0,.47.92,2.33,2.33,0,0,0,1.43.39,2.45,2.45,0,0,0,1.51-.39,2,2,0,0,0,.72-1.1,9.79,9.79,0,0,0,.1-1.8,2.9,2.9,0,0,1-2.3,1.09,3.13,3.13,0,0,1-2.65-1.24,4.74,4.74,0,0,1-.93-3,5.52,5.52,0,0,1,.43-2.19,3.28,3.28,0,0,1,3.16-2.1,3,3,0,0,1,2.42,1.19v-1h1.3V123a6.76,6.76,0,0,1-.39,2.75,2.84,2.84,0,0,1-1.25,1.27,4.19,4.19,0,0,1-2.11.47,3.94,3.94,0,0,1-2.4-.66A2.26,2.26,0,0,1,950.18,124.8Zm1.16-5a3.59,3.59,0,0,0,.65,2.38,2,2,0,0,0,1.63.75,2.07,2.07,0,0,0,1.62-.74,3.48,3.48,0,0,0,.66-2.34,3.4,3.4,0,0,0-.68-2.3,2.1,2.1,0,0,0-1.63-.77,2,2,0,0,0-1.59.76,3.4,3.4,0,0,0-.66,2.28Z"/><path class="cls-3" d="M959.28,127.31l-.15-1.32a2.73,2.73,0,0,0,.8.13,1.49,1.49,0,0,0,.75-.16,1.14,1.14,0,0,0,.46-.44,6.85,6.85,0,0,0,.43-1,1.42,1.42,0,0,1,.13-.35l-3.15-8.31h1.51l1.73,4.8c.22.61.42,1.25.6,1.93a17.91,17.91,0,0,1,.58-1.89l1.77-4.84h1.41L963,124.3a14.9,14.9,0,0,1-.79,1.88,2.69,2.69,0,0,1-.86,1,1.88,1.88,0,0,1-1.15.32A2.6,2.6,0,0,1,959.28,127.31Z"/><path class="cls-3" d="M706.28,142.06l.2,1.24a4.73,4.73,0,0,1-1.06.13,2.35,2.35,0,0,1-1.19-.25,1.29,1.29,0,0,1-.59-.63,4.87,4.87,0,0,1-.18-1.66v-4.78h-1V135h1V133l1.4-.84V135h1.42v1.09h-1.42V141a2.25,2.25,0,0,0,.08.78.58.58,0,0,0,.24.27.8.8,0,0,0,.48.1A4.32,4.32,0,0,0,706.28,142.06Z"/><path class="cls-3" d="M707.11,139.17a4.23,4.23,0,0,1,1.28-3.41,3.85,3.85,0,0,1,2.61-.92,3.68,3.68,0,0,1,2.8,1.12,4.24,4.24,0,0,1,1.08,3.1,5.48,5.48,0,0,1-.48,2.52A3.44,3.44,0,0,1,713,143a4.21,4.21,0,0,1-2,.5,3.8,3.8,0,0,1-2.82-1.11A4.52,4.52,0,0,1,707.11,139.17Zm1.44,0a3.44,3.44,0,0,0,.7,2.38,2.29,2.29,0,0,0,3.24.25,2,2,0,0,0,.25-.25,3.59,3.59,0,0,0,.7-2.43,3.44,3.44,0,0,0-.7-2.33,2.34,2.34,0,0,0-3.29-.2c-.07.07-.14.13-.2.2a3.58,3.58,0,0,0-.7,2.38Z"/><path class="cls-3" d="M721,133.48v-1.62h1.41v1.62Zm0,9.85V135h1.41v8.3Z"/><path class="cls-3" d="M724.53,143.32V135h1.26v1.16a3.08,3.08,0,0,1,1-1,2.92,2.92,0,0,1,1.47-.37,2.89,2.89,0,0,1,1.52.38,2.14,2.14,0,0,1,.83,1.07,3,3,0,0,1,2.56-1.45,2.56,2.56,0,0,1,1.9.69,2.93,2.93,0,0,1,.66,2.1v5.7h-1.4v-5.23a3.87,3.87,0,0,0-.13-1.22,1.25,1.25,0,0,0-.5-.59,1.63,1.63,0,0,0-.84-.23,2,2,0,0,0-1.46.58,2.6,2.6,0,0,0-.57,1.87v4.82h-1.41v-5.39a2.45,2.45,0,0,0-.34-1.4A1.3,1.3,0,0,0,728,136a2,2,0,0,0-1.1.31,1.8,1.8,0,0,0-.73.92,5.28,5.28,0,0,0-.22,1.72v4.32Z"/><path class="cls-3" d="M737.86,146.51V135h1.28v1.08a3.08,3.08,0,0,1,1-1,2.71,2.71,0,0,1,1.39-.32,3.11,3.11,0,0,1,1.87.55,3.39,3.39,0,0,1,1.23,1.54,5.64,5.64,0,0,1,.41,2.19,5.52,5.52,0,0,1-.46,2.29,3.45,3.45,0,0,1-1.32,1.56,3.53,3.53,0,0,1-1.84.54,2.87,2.87,0,0,1-1.26-.29,3.19,3.19,0,0,1-.92-.75v4Zm1.27-7.3a3.61,3.61,0,0,0,.65,2.38,2,2,0,0,0,3.18,0,3.77,3.77,0,0,0,.66-2.45,3.59,3.59,0,0,0-.65-2.38,1.93,1.93,0,0,0-3.15.05A3.76,3.76,0,0,0,739.13,139.21Z"/><path class="cls-3" d="M746.74,143.32V135H748v1.26a3.61,3.61,0,0,1,.89-1.17,1.7,1.7,0,0,1,.9-.28,2.85,2.85,0,0,1,1.45.45l-.49,1.31a2.06,2.06,0,0,0-1-.31,1.53,1.53,0,0,0-.83.28,1.56,1.56,0,0,0-.52.77,5.75,5.75,0,0,0-.23,1.64v4.35Z"/><path class="cls-3" d="M751.56,139.17a4.3,4.3,0,0,1,1.28-3.41,3.85,3.85,0,0,1,2.61-.92,3.68,3.68,0,0,1,2.8,1.12,4.24,4.24,0,0,1,1.08,3.1,5.48,5.48,0,0,1-.48,2.52,3.42,3.42,0,0,1-1.39,1.43,4.21,4.21,0,0,1-2,.5,3.74,3.74,0,0,1-2.81-1.11A4.48,4.48,0,0,1,751.56,139.17Zm1.45,0a3.48,3.48,0,0,0,.69,2.38,2.29,2.29,0,0,0,3.24.25,2,2,0,0,0,.25-.25,3.57,3.57,0,0,0,.7-2.43,3.44,3.44,0,0,0-.7-2.33,2.34,2.34,0,0,0-3.29-.2c-.07.07-.14.13-.2.2A3.57,3.57,0,0,0,753,139.17Z"/><path class="cls-3" d="M763.28,143.32l-3.16-8.3h1.49l1.78,5c.19.53.37,1.09.53,1.67.12-.44.3-1,.52-1.58l1.85-5.06h1.44l-3.14,8.3Z"/><path class="cls-3" d="M774.66,140.66l1.46.18a3.58,3.58,0,0,1-1.28,2,4.31,4.31,0,0,1-5.26-.42,4.37,4.37,0,0,1-1.07-3.13,4.57,4.57,0,0,1,1.08-3.25,3.62,3.62,0,0,1,2.8-1.16,3.54,3.54,0,0,1,2.72,1.13,4.49,4.49,0,0,1,1,3.18v.38H770a3.19,3.19,0,0,0,.77,2.09,2.26,2.26,0,0,0,1.74.73,2.09,2.09,0,0,0,1.32-.41A2.68,2.68,0,0,0,774.66,140.66Zm-4.61-2.27h4.63a2.79,2.79,0,0,0-.53-1.57,2.32,2.32,0,0,0-3.37-.16,2.56,2.56,0,0,0-.73,1.71Z"/><path class="cls-3" d="M782.28,143.32V131.86h1.4v11.46Z"/><path class="cls-3" d="M785.89,133.48v-1.62h1.39v1.62Zm0,9.85V135h1.39v8.3Z"/><path class="cls-3" d="M789.77,143.32v-7.21h-1.24V135h1.24v-.88a3.79,3.79,0,0,1,.15-1.25,1.76,1.76,0,0,1,.72-.87,2.48,2.48,0,0,1,1.43-.35,7.19,7.19,0,0,1,1.31.14l-.21,1.23a4.58,4.58,0,0,0-.83-.08,1.27,1.27,0,0,0-.9.27,1.44,1.44,0,0,0-.27,1V135h1.62v1.09h-1.62v7.21Z"/><path class="cls-3" d="M799.56,140.66l1.45.18a3.51,3.51,0,0,1-1.27,2,4.31,4.31,0,0,1-5.26-.42,4.37,4.37,0,0,1-1.07-3.13,4.57,4.57,0,0,1,1.08-3.25,3.62,3.62,0,0,1,2.8-1.16A3.54,3.54,0,0,1,800,136a4.47,4.47,0,0,1,1,3.18v.38h-6.18a3.19,3.19,0,0,0,.77,2.09,2.23,2.23,0,0,0,1.73.73,2.09,2.09,0,0,0,1.32-.41A2.61,2.61,0,0,0,799.56,140.66Zm-4.62-2.27h4.64a2.9,2.9,0,0,0-.53-1.57,2.21,2.21,0,0,0-1.75-.81,2.25,2.25,0,0,0-1.63.65,2.56,2.56,0,0,0-.73,1.71Z"/><path class="cls-3" d="M807.56,143.32v-7.21h-1.28V135h1.24v-.88a3.79,3.79,0,0,1,.15-1.25,1.69,1.69,0,0,1,.71-.87,2.61,2.61,0,0,1,1.44-.35,7.19,7.19,0,0,1,1.31.14l-.21,1.23a4.58,4.58,0,0,0-.83-.08,1.27,1.27,0,0,0-.9.27,1.44,1.44,0,0,0-.27,1V135h1.62v1.09h-1.62v7.21Z"/><path class="cls-3" d="M811.15,139.17a4.23,4.23,0,0,1,1.28-3.41,3.85,3.85,0,0,1,2.61-.92,3.66,3.66,0,0,1,2.79,1.12,4.24,4.24,0,0,1,1.09,3.1,5.48,5.48,0,0,1-.48,2.52A3.44,3.44,0,0,1,817,143a4.21,4.21,0,0,1-2,.5,3.8,3.8,0,0,1-2.82-1.11A4.48,4.48,0,0,1,811.15,139.17Zm1.44,0a3.44,3.44,0,0,0,.7,2.38,2.29,2.29,0,0,0,3.24.25,2,2,0,0,0,.25-.25,3.59,3.59,0,0,0,.7-2.43,3.44,3.44,0,0,0-.7-2.33,2.34,2.34,0,0,0-3.29-.2l-.2.2a3.58,3.58,0,0,0-.7,2.38Z"/><path class="cls-3" d="M820.55,143.32V135h1.27v1.26a3.61,3.61,0,0,1,.89-1.17,1.74,1.74,0,0,1,.91-.28,2.84,2.84,0,0,1,1.44.45l-.48,1.31a2.21,2.21,0,0,0-1-.31,1.38,1.38,0,0,0-.83.28,1.58,1.58,0,0,0-.53.77A5.75,5.75,0,0,0,822,139v4.35Z"/><path class="cls-3" d="M833.41,142.06l.21,1.24a4.82,4.82,0,0,1-1.07.13,2.31,2.31,0,0,1-1.18-.25,1.31,1.31,0,0,1-.6-.63,5.46,5.46,0,0,1-.17-1.66v-4.78h-1V135h1V133l1.4-.84V135h1.41v1.09H832V141a2.52,2.52,0,0,0,.07.78.55.55,0,0,0,.25.27.8.8,0,0,0,.48.1A4.18,4.18,0,0,0,833.41,142.06Z"/><path class="cls-3" d="M834.79,143.32V131.86h1.4V136a3.42,3.42,0,0,1,4.09-.76,2.07,2.07,0,0,1,1,1,4.52,4.52,0,0,1,.3,1.86v5.26h-1.41v-5.26a2.13,2.13,0,0,0-.46-1.54,1.64,1.64,0,0,0-1.29-.48,2.15,2.15,0,0,0-1.18.33,1.72,1.72,0,0,0-.78.88,3.93,3.93,0,0,0-.24,1.53v4.54Z"/><path class="cls-3" d="M849.37,140.66l1.45.18a3.56,3.56,0,0,1-1.27,2,4.33,4.33,0,0,1-5.27-.42,4.37,4.37,0,0,1-1.06-3.14A4.6,4.6,0,0,1,844.3,136a3.68,3.68,0,0,1,2.79-1.16,3.57,3.57,0,0,1,2.72,1.13,4.52,4.52,0,0,1,1.06,3.19v.38h-6.19a3.19,3.19,0,0,0,.77,2.09,2.29,2.29,0,0,0,1.74.73,2.15,2.15,0,0,0,1.32-.41A2.68,2.68,0,0,0,849.37,140.66Zm-4.62-2.27h4.63a2.79,2.79,0,0,0-.53-1.57,2.21,2.21,0,0,0-1.74-.81,2.25,2.25,0,0,0-1.63.65,2.56,2.56,0,0,0-.73,1.71Z"/><path class="cls-3" d="M857,143.32V135h1.25v1.18a3,3,0,0,1,2.64-1.37,3.65,3.65,0,0,1,1.38.27,2.28,2.28,0,0,1,.94.71,3,3,0,0,1,.43,1,6.9,6.9,0,0,1,.08,1.36v5.11h-1.4v-5a3.79,3.79,0,0,0-.17-1.29,1.42,1.42,0,0,0-.58-.68,1.93,1.93,0,0,0-1-.25,2.32,2.32,0,0,0-1.55.57,2.8,2.8,0,0,0-.65,2.16v4.54Z"/><path class="cls-3" d="M871.61,140.66l1.45.18a3.51,3.51,0,0,1-1.27,2,4.32,4.32,0,0,1-5.26-.42,4.38,4.38,0,0,1-1.07-3.14,4.6,4.6,0,0,1,1.08-3.25,3.68,3.68,0,0,1,2.79-1.16,3.57,3.57,0,0,1,2.72,1.13,4.52,4.52,0,0,1,1.06,3.19v.38h-6.19a3.08,3.08,0,0,0,.78,2.09,2.23,2.23,0,0,0,1.73.73,2.09,2.09,0,0,0,1.32-.41A2.68,2.68,0,0,0,871.61,140.66ZM867,138.39h4.63a2.79,2.79,0,0,0-.53-1.57,2.21,2.21,0,0,0-1.74-.81,2.25,2.25,0,0,0-1.63.65,2.56,2.56,0,0,0-.73,1.71Z"/><path class="cls-3" d="M873.89,143.32l3-4.32-2.8-4h1.75l1.28,1.94c.24.37.43.68.58.93.22-.34.43-.64.63-.91l1.4-2h1.68l-2.87,3.91,3.09,4.39H879.9l-1.7-2.58-.46-.7-2.18,3.28Z"/><path class="cls-3" d="M885.9,142.06l.2,1.24a4.73,4.73,0,0,1-1.06.13,2.35,2.35,0,0,1-1.19-.25,1.29,1.29,0,0,1-.59-.63,4.87,4.87,0,0,1-.18-1.66v-4.78h-1V135h1V133l1.4-.84V135h1.42v1.09h-1.42V141a2.25,2.25,0,0,0,.08.78.58.58,0,0,0,.24.27.8.8,0,0,0,.48.1A4.32,4.32,0,0,0,885.9,142.06Z"/><path class="cls-3" d="M891.46,144l1.37.2a1.26,1.26,0,0,0,.47.92,2.27,2.27,0,0,0,1.43.39,2.45,2.45,0,0,0,1.51-.39A1.94,1.94,0,0,0,897,144a9.08,9.08,0,0,0,.1-1.81,2.88,2.88,0,0,1-2.3,1.09,3.1,3.1,0,0,1-2.64-1.24,4.68,4.68,0,0,1-.94-3,5.52,5.52,0,0,1,.43-2.19,3.28,3.28,0,0,1,3.16-2.1,3,3,0,0,1,2.42,1.19v-1h1.3v7.17a6.76,6.76,0,0,1-.39,2.75,2.84,2.84,0,0,1-1.25,1.27,4.19,4.19,0,0,1-2.11.47,3.94,3.94,0,0,1-2.4-.66A2.25,2.25,0,0,1,891.46,144Zm1.16-5a3.58,3.58,0,0,0,.65,2.37,2,2,0,0,0,1.63.75,2.07,2.07,0,0,0,1.62-.74,3.48,3.48,0,0,0,.66-2.34,3.4,3.4,0,0,0-.68-2.3,2.1,2.1,0,0,0-1.63-.77,2,2,0,0,0-1.59.76,3.41,3.41,0,0,0-.66,2.29Z"/><path class="cls-3" d="M906.28,140.66l1.45.18a3.56,3.56,0,0,1-1.27,2,4.33,4.33,0,0,1-5.27-.42,4.37,4.37,0,0,1-1.06-3.14,4.6,4.6,0,0,1,1.08-3.25,3.68,3.68,0,0,1,2.79-1.16,3.57,3.57,0,0,1,2.72,1.13,4.52,4.52,0,0,1,1.06,3.19v.38h-6.19a3.19,3.19,0,0,0,.77,2.09,2.26,2.26,0,0,0,1.74.73,2.15,2.15,0,0,0,1.32-.41A2.68,2.68,0,0,0,906.28,140.66Zm-4.62-2.27h4.62a2.79,2.79,0,0,0-.53-1.57A2.21,2.21,0,0,0,904,136a2.25,2.25,0,0,0-1.63.65,2.57,2.57,0,0,0-.7,1.71Z"/><path class="cls-3" d="M909.51,143.32V135h1.27v1.18a3,3,0,0,1,2.64-1.37,3.65,3.65,0,0,1,1.38.27,2.28,2.28,0,0,1,.94.71,3,3,0,0,1,.44,1,8.94,8.94,0,0,1,.08,1.36v5.11h-1.41v-5a3.78,3.78,0,0,0-.16-1.29,1.39,1.39,0,0,0-.59-.68,1.93,1.93,0,0,0-1-.25,2.32,2.32,0,0,0-1.55.57,2.84,2.84,0,0,0-.65,2.16v4.54Z"/><path class="cls-3" d="M924.09,140.66l1.46.18a3.58,3.58,0,0,1-1.28,2,4.31,4.31,0,0,1-5.26-.42,4.37,4.37,0,0,1-1.07-3.13A4.57,4.57,0,0,1,919,136a3.62,3.62,0,0,1,2.8-1.16,3.54,3.54,0,0,1,2.72,1.13,4.47,4.47,0,0,1,1,3.18v.38h-6.18a3.19,3.19,0,0,0,.77,2.09,2.23,2.23,0,0,0,1.73.73,2.12,2.12,0,0,0,1.33-.41A2.6,2.6,0,0,0,924.09,140.66Zm-4.61-2.27h4.63a2.79,2.79,0,0,0-.53-1.57,2.32,2.32,0,0,0-3.37-.16,2.56,2.56,0,0,0-.73,1.71Z"/><path class="cls-3" d="M927.28,143.32V135h1.26v1.26a3.43,3.43,0,0,1,.9-1.17,1.7,1.7,0,0,1,.9-.28,2.84,2.84,0,0,1,1.44.45l-.48,1.31a2.06,2.06,0,0,0-1-.31,1.38,1.38,0,0,0-.83.28,1.56,1.56,0,0,0-.52.77,5.76,5.76,0,0,0-.24,1.64v4.35Z"/><path class="cls-3" d="M938.05,142.29a5,5,0,0,1-1.5.94,4.12,4.12,0,0,1-1.55.27,3,3,0,0,1-2.1-.66,2.24,2.24,0,0,1-.74-1.71,2.34,2.34,0,0,1,1-1.92,3,3,0,0,1,1-.45,6.66,6.66,0,0,1,1.25-.21,14.28,14.28,0,0,0,2.51-.49v-.4a1.59,1.59,0,0,0-.39-1.21,3.1,3.1,0,0,0-3.07-.12,2.1,2.1,0,0,0-.7,1.23l-1.38-.18A3.53,3.53,0,0,1,933,136a2.77,2.77,0,0,1,1.24-.84,5.53,5.53,0,0,1,1.89-.29,4.58,4.58,0,0,1,1.72.25,1.92,1.92,0,0,1,1.44,1.62,8,8,0,0,1,.07,1.29v1.88a20.49,20.49,0,0,0,.09,2.48,3.22,3.22,0,0,0,.35,1h-1.47A3.14,3.14,0,0,1,938.05,142.29Zm-.11-3.14a9.49,9.49,0,0,1-2.3.53,6.45,6.45,0,0,0-1.23.28,1.3,1.3,0,0,0-.55.46,1.25,1.25,0,0,0,.23,1.62,1.84,1.84,0,0,0,1.24.37,3.17,3.17,0,0,0,1.45-.35,2.25,2.25,0,0,0,.93-1,3.38,3.38,0,0,0,.23-1.4Z"/><path class="cls-3" d="M944.61,142.06l.2,1.24a4.73,4.73,0,0,1-1.06.13,2.35,2.35,0,0,1-1.19-.25,1.29,1.29,0,0,1-.59-.63,4.87,4.87,0,0,1-.17-1.66v-4.78h-1V135h1V133l1.39-.84V135h1.42v1.09h-1.42V141a2.25,2.25,0,0,0,.08.78.58.58,0,0,0,.24.27.8.8,0,0,0,.48.1A4.32,4.32,0,0,0,944.61,142.06Z"/><path class="cls-3" d="M946,133.48v-1.62h1.41v1.62Zm0,9.85V135h1.41v8.3Z"/><path class="cls-3" d="M949,139.17a4.26,4.26,0,0,1,1.29-3.41,3.81,3.81,0,0,1,2.6-.92,3.64,3.64,0,0,1,2.8,1.12,4.24,4.24,0,0,1,1.09,3.1,5.48,5.48,0,0,1-.48,2.52,3.44,3.44,0,0,1-1.4,1.43,4.21,4.21,0,0,1-2,.5,3.74,3.74,0,0,1-2.81-1.11A4.48,4.48,0,0,1,949,139.17Zm1.45,0a3.44,3.44,0,0,0,.7,2.38,2.3,2.3,0,0,0,3.49,0,3.63,3.63,0,0,0,.69-2.43,3.44,3.44,0,0,0-.7-2.33,2.23,2.23,0,0,0-1.74-.79,2.26,2.26,0,0,0-1.74.78,3.5,3.5,0,0,0-.7,2.39Z"/><path class="cls-3" d="M958.44,143.32V135h1.26v1.18a3,3,0,0,1,2.64-1.37,3.65,3.65,0,0,1,1.38.27,2.28,2.28,0,0,1,.94.71,2.64,2.64,0,0,1,.44,1,8.94,8.94,0,0,1,.08,1.36v5.11h-1.41v-5a3.78,3.78,0,0,0-.16-1.29,1.42,1.42,0,0,0-.58-.68,1.93,1.93,0,0,0-1-.25,2.35,2.35,0,0,0-1.56.57,2.84,2.84,0,0,0-.65,2.16v4.54Z"/><path class="cls-3" d="M738.92,251.12V239.66h4.36a10.18,10.18,0,0,1,1.74.12,3.33,3.33,0,0,1,1.42.54,2.81,2.81,0,0,1,.92,1.1,3.76,3.76,0,0,1-.59,4,4.54,4.54,0,0,1-3.36,1h-2.93v4.66Zm1.52-6h3a3,3,0,0,0,2.08-.55,2,2,0,0,0,.62-1.54,2.11,2.11,0,0,0-.36-1.23,1.78,1.78,0,0,0-1-.67,6.65,6.65,0,0,0-1.41-.11h-2.93Z"/><path class="cls-3" d="M755.09,248.44l1.46.18a3.58,3.58,0,0,1-1.28,2,4,4,0,0,1-6.33-3.55,4.57,4.57,0,0,1,1.08-3.25,3.62,3.62,0,0,1,2.8-1.16,3.54,3.54,0,0,1,2.72,1.13,4.47,4.47,0,0,1,1,3.18v.38h-6.18a3.19,3.19,0,0,0,.77,2.09,2.23,2.23,0,0,0,1.73.73,2.17,2.17,0,0,0,1.33-.4A2.67,2.67,0,0,0,755.09,248.44Zm-4.61-2.27h4.63a2.79,2.79,0,0,0-.53-1.57,2.32,2.32,0,0,0-3.37-.16,2.53,2.53,0,0,0-.73,1.73Z"/><path class="cls-3" d="M757.79,247a4.23,4.23,0,0,1,1.28-3.41,3.85,3.85,0,0,1,2.61-.92,3.73,3.73,0,0,1,2.8,1.12,4.24,4.24,0,0,1,1.08,3.1,5.48,5.48,0,0,1-.48,2.52,3.44,3.44,0,0,1-1.4,1.43,4.21,4.21,0,0,1-2,.5,3.8,3.8,0,0,1-2.82-1.11A4.52,4.52,0,0,1,757.79,247Zm1.44,0a3.44,3.44,0,0,0,.7,2.38,2.29,2.29,0,0,0,3.24.25,2,2,0,0,0,.25-.25,3.59,3.59,0,0,0,.7-2.43,3.44,3.44,0,0,0-.7-2.33,2.34,2.34,0,0,0-3.29-.2l-.2.2a3.5,3.5,0,0,0-.65,2.38Z"/><path class="cls-3" d="M767.21,254.3V242.82h1.28v1.08a3.24,3.24,0,0,1,1-1,2.93,2.93,0,0,1,1.39-.32,3.25,3.25,0,0,1,1.87.55,3.5,3.5,0,0,1,1.23,1.54,5.71,5.71,0,0,1,.41,2.19,5.61,5.61,0,0,1-.45,2.29,3.51,3.51,0,0,1-1.33,1.57,3.58,3.58,0,0,1-1.83.54,3,3,0,0,1-1.27-.29,3.15,3.15,0,0,1-.91-.75v4Zm1.27-7.29a3.57,3.57,0,0,0,.65,2.37,2,2,0,0,0,3.18,0,3.74,3.74,0,0,0,.67-2.45,3.65,3.65,0,0,0-.66-2.37,1.92,1.92,0,0,0-3.15.05,3.77,3.77,0,0,0-.69,2.44Z"/><path class="cls-3" d="M776.08,251.12V239.66h1.4v11.46Z"/><path class="cls-3" d="M785.34,248.44l1.46.18a3.58,3.58,0,0,1-1.28,2,4,4,0,0,1-6.33-3.55,4.57,4.57,0,0,1,1.08-3.25,3.62,3.62,0,0,1,2.8-1.16,3.54,3.54,0,0,1,2.72,1.13,4.47,4.47,0,0,1,1,3.18v.38h-6.18a3.19,3.19,0,0,0,.77,2.09,2.26,2.26,0,0,0,1.74.73,2.15,2.15,0,0,0,1.32-.4A2.67,2.67,0,0,0,785.34,248.44Zm-4.61-2.27h4.63a2.79,2.79,0,0,0-.53-1.57,2.32,2.32,0,0,0-3.37-.16,2.53,2.53,0,0,0-.73,1.73Z"/><path class="cls-3" d="M794.54,251.12l-2.54-8.3h1.45l1.32,4.79.49,1.78c0-.09.17-.66.43-1.71l1.32-4.86h1.45l1.24,4.81.42,1.59.47-1.6,1.42-4.8h1.37l-2.59,8.3h-1.46l-1.32-5-.32-1.42L796,251.09Z"/><path class="cls-3" d="M804.56,251.12V239.66H806v4.12a3.07,3.07,0,0,1,2.48-1.14,3.16,3.16,0,0,1,1.6.36,2.11,2.11,0,0,1,1,1,4.69,4.69,0,0,1,.29,1.86v5.26h-1.41v-5.26a2.17,2.17,0,0,0-.45-1.54,1.71,1.71,0,0,0-1.3-.48,2.12,2.12,0,0,0-1.17.33,1.79,1.79,0,0,0-.79.88,4.18,4.18,0,0,0-.23,1.53v4.54Z"/><path class="cls-3" d="M812.94,247a4.23,4.23,0,0,1,1.28-3.41,3.85,3.85,0,0,1,2.61-.92,3.69,3.69,0,0,1,2.79,1.12,4.24,4.24,0,0,1,1.09,3.1,5.48,5.48,0,0,1-.48,2.52,3.44,3.44,0,0,1-1.4,1.43,4.21,4.21,0,0,1-2,.5A3.77,3.77,0,0,1,814,250.2,4.48,4.48,0,0,1,812.94,247Zm1.44,0a3.44,3.44,0,0,0,.7,2.38,2.29,2.29,0,0,0,3.24.25,2,2,0,0,0,.25-.25,3.63,3.63,0,0,0,.69-2.43,3.44,3.44,0,0,0-.69-2.33,2.34,2.34,0,0,0-3.29-.2c-.07.07-.14.13-.2.2A3.58,3.58,0,0,0,814.38,247Z"/><path class="cls-3" d="M828.1,251.12h-1.3V239.66h1.4v4.1a2.8,2.8,0,0,1,2.28-1.13,3.55,3.55,0,0,1,1.44.31,3,3,0,0,1,1.13.88,4.21,4.21,0,0,1,.69,1.35,5.3,5.3,0,0,1,.25,1.68,4.8,4.8,0,0,1-1,3.3,3.33,3.33,0,0,1-2.54,1.16,2.68,2.68,0,0,1-2.3-1.22Zm0-4.21a4.29,4.29,0,0,0,.41,2.15,2,2,0,0,0,2.69.89,2,2,0,0,0,.7-.6,3.62,3.62,0,0,0,.67-2.39,3.7,3.7,0,0,0-.64-2.39,2,2,0,0,0-2.81-.35,2.26,2.26,0,0,0-.34.35,3.45,3.45,0,0,0-.7,2.34Z"/><path class="cls-3" d="M841.38,248.44l1.45.18a3.48,3.48,0,0,1-1.27,2,4,4,0,0,1-6.33-3.55,4.57,4.57,0,0,1,1.08-3.25,3.62,3.62,0,0,1,2.8-1.16,3.54,3.54,0,0,1,2.72,1.13,4.47,4.47,0,0,1,1,3.18v.38h-6.18a3.19,3.19,0,0,0,.77,2.09,2.23,2.23,0,0,0,1.73.73,2.15,2.15,0,0,0,1.32-.4A2.68,2.68,0,0,0,841.38,248.44Zm-4.62-2.27h4.64a2.9,2.9,0,0,0-.53-1.57,2.21,2.21,0,0,0-1.75-.81,2.25,2.25,0,0,0-1.63.65A2.63,2.63,0,0,0,836.76,246.17Z"/><path class="cls-3" d="M844.57,251.12V239.66H846v11.46Z"/><path class="cls-3" d="M848.16,241.29v-1.63h1.41v1.63Zm0,9.84v-8.3h1.41v8.3Z"/><path class="cls-3" d="M857.39,248.44l1.45.18a3.51,3.51,0,0,1-1.27,2,4.32,4.32,0,0,1-5.26-.42,4.34,4.34,0,0,1-1.07-3.14,4.6,4.6,0,0,1,1.08-3.25,3.69,3.69,0,0,1,2.8-1.16,3.57,3.57,0,0,1,2.71,1.13,4.52,4.52,0,0,1,1.06,3.19v.38H852.7a3.18,3.18,0,0,0,.78,2.09,2.23,2.23,0,0,0,1.73.73,2.09,2.09,0,0,0,1.32-.41A2.55,2.55,0,0,0,857.39,248.44Zm-4.62-2.27h4.63a2.79,2.79,0,0,0-.53-1.57,2.19,2.19,0,0,0-1.74-.81,2.25,2.25,0,0,0-1.63.65A2.63,2.63,0,0,0,852.77,246.17Z"/><path class="cls-3" d="M862.91,251.12l-3.15-8.3h1.52l1.78,5c.19.53.37,1.09.53,1.67.13-.44.3-1,.53-1.58l1.84-5.06h1.45l-3.14,8.3Z"/><path class="cls-3" d="M874.28,248.44l1.45.18a3.51,3.51,0,0,1-1.27,2,4.32,4.32,0,0,1-5.26-.42,4.29,4.29,0,0,1-1.07-3.14,4.6,4.6,0,0,1,1.08-3.25,3.68,3.68,0,0,1,2.79-1.16,3.57,3.57,0,0,1,2.72,1.13,4.52,4.52,0,0,1,1.06,3.19v.38h-6.19a3.08,3.08,0,0,0,.78,2.09,2.23,2.23,0,0,0,1.73.73,2.09,2.09,0,0,0,1.32-.41A2.68,2.68,0,0,0,874.28,248.44Zm-4.62-2.27h4.62a2.79,2.79,0,0,0-.53-1.57,2.21,2.21,0,0,0-1.74-.81,2.25,2.25,0,0,0-1.63.65,2.56,2.56,0,0,0-.71,1.73Z"/><path class="cls-3" d="M885,249.86l.21,1.24a4.82,4.82,0,0,1-1.07.13A2.31,2.31,0,0,1,883,251a1.31,1.31,0,0,1-.6-.63,5.46,5.46,0,0,1-.17-1.66v-4.78h-1v-1.09h1v-2.06l1.4-.84v2.9H885v1.09h-1.41v4.85a2.52,2.52,0,0,0,.07.78.58.58,0,0,0,.24.27.89.89,0,0,0,.48.1A4.32,4.32,0,0,0,885,249.86Z"/><path class="cls-3" d="M886.4,251.12V239.66h1.4v4.12a3.17,3.17,0,0,1,2.48-1.12,3.42,3.42,0,0,1,1.6.37,2.11,2.11,0,0,1,1,1,4.52,4.52,0,0,1,.3,1.86v5.26h-1.41v-5.26a2.13,2.13,0,0,0-.46-1.54,1.64,1.64,0,0,0-1.29-.48,2.15,2.15,0,0,0-1.18.33,1.72,1.72,0,0,0-.78.88,3.93,3.93,0,0,0-.24,1.53v4.54Z"/><path class="cls-3" d="M900.71,250.09a5,5,0,0,1-1.5.94,4.12,4.12,0,0,1-1.55.27,2.94,2.94,0,0,1-2.11-.66,2.21,2.21,0,0,1-.73-1.71,2.31,2.31,0,0,1,1-1.91,3,3,0,0,1,1-.46,7.61,7.61,0,0,1,1.25-.22,13.4,13.4,0,0,0,2.51-.48v-.38a1.51,1.51,0,0,0-.4-1.2,2.31,2.31,0,0,0-1.6-.47,2.42,2.42,0,0,0-1.46.34,2,2,0,0,0-.7,1.23L895,245.2a3.4,3.4,0,0,1,.62-1.43,2.7,2.7,0,0,1,1.24-.84,5.47,5.47,0,0,1,1.88-.29,4.63,4.63,0,0,1,1.73.25,1.91,1.91,0,0,1,1.43,1.63,7.85,7.85,0,0,1,.07,1.29v1.85a20.49,20.49,0,0,0,.09,2.48,2.92,2.92,0,0,0,.36,1H901A2.92,2.92,0,0,1,900.71,250.09Zm-.12-3.14a9.52,9.52,0,0,1-2.29.53,5.79,5.79,0,0,0-1.23.29,1.16,1.16,0,0,0-.75,1.12,1.2,1.2,0,0,0,.42.94,1.77,1.77,0,0,0,1.25.37,2.93,2.93,0,0,0,1.45-.35,2.15,2.15,0,0,0,.93-1,3.32,3.32,0,0,0,.22-1.4Z"/><path class="cls-3" d="M907.28,249.86l.21,1.24a4.82,4.82,0,0,1-1.07.13,2.31,2.31,0,0,1-1.18-.25,1.41,1.41,0,0,1-.6-.63,5.46,5.46,0,0,1-.17-1.66v-4.78h-1v-1.09h1v-2.06l1.4-.84v2.9h1.41v1.09h-1.41v4.85a2.52,2.52,0,0,0,.07.78.55.55,0,0,0,.25.27.8.8,0,0,0,.48.1A4.18,4.18,0,0,0,907.28,249.86Z"/><path class="cls-3" d="M912.52,248.66l1.39-.22a1.91,1.91,0,0,0,.66,1.28,2.18,2.18,0,0,0,1.49.45,2.12,2.12,0,0,0,1.44-.39,1.2,1.2,0,0,0,.47-.92.82.82,0,0,0-.42-.75,5.13,5.13,0,0,0-1.43-.48A12.22,12.22,0,0,1,914,247a2.07,2.07,0,0,1-.9-.78,2,2,0,0,1-.31-1.12,2.15,2.15,0,0,1,.25-1,2.25,2.25,0,0,1,.69-.78,2.72,2.72,0,0,1,.9-.41,3.81,3.81,0,0,1,1.21-.17,4.78,4.78,0,0,1,1.72.28,2.26,2.26,0,0,1,1.09.76,2.93,2.93,0,0,1,.48,1.29l-1.37.19a1.5,1.5,0,0,0-.55-1,1.93,1.93,0,0,0-1.27-.36,2.16,2.16,0,0,0-1.38.32.89.89,0,0,0-.41.75.81.81,0,0,0,.17.49,1.3,1.3,0,0,0,.54.38c.14,0,.55.16,1.24.35a15.23,15.23,0,0,1,2.08.66,2.11,2.11,0,0,1,.93.74,2,2,0,0,1,.33,1.19,2.32,2.32,0,0,1-.41,1.33,2.62,2.62,0,0,1-1.18,1,4.37,4.37,0,0,1-1.75.34,3.92,3.92,0,0,1-2.47-.67A3.21,3.21,0,0,1,912.52,248.66Z"/><path class="cls-3" d="M926.5,248.08l1.38.18a3.5,3.5,0,0,1-1.16,2.23,3.32,3.32,0,0,1-2.29.81,3.54,3.54,0,0,1-2.74-1.11,4.48,4.48,0,0,1-1-3.19,5.77,5.77,0,0,1,.44-2.35,3.12,3.12,0,0,1,1.36-1.51,4.1,4.1,0,0,1,2-.51,3.5,3.5,0,0,1,2.21.69,3.16,3.16,0,0,1,1.1,1.94l-1.37.21a2.32,2.32,0,0,0-.69-1.26,1.8,1.8,0,0,0-1.2-.42,2.2,2.2,0,0,0-1.73.76,3.64,3.64,0,0,0-.66,2.41,3.74,3.74,0,0,0,.64,2.43,2.08,2.08,0,0,0,1.67.76,1.94,1.94,0,0,0,1.39-.51A2.57,2.57,0,0,0,926.5,248.08Z"/><path class="cls-3" d="M929.09,241.29v-1.63h1.41v1.63Zm0,9.84v-8.3h1.41v8.3Z"/><path class="cls-3" d="M938.28,248.44l1.45.18a3.51,3.51,0,0,1-1.27,2,4.32,4.32,0,0,1-5.26-.42,4.34,4.34,0,0,1-1.07-3.14,4.6,4.6,0,0,1,1.08-3.25,3.69,3.69,0,0,1,2.8-1.16,3.57,3.57,0,0,1,2.71,1.13,4.52,4.52,0,0,1,1.06,3.19v.38h-6.19a3.18,3.18,0,0,0,.78,2.09,2.23,2.23,0,0,0,1.73.73,2.09,2.09,0,0,0,1.32-.41A2.55,2.55,0,0,0,938.28,248.44Zm-4.62-2.27h4.63a2.79,2.79,0,0,0-.53-1.57,2.19,2.19,0,0,0-1.74-.81,2.25,2.25,0,0,0-1.63.65,2.59,2.59,0,0,0-.69,1.73Z"/><path class="cls-3" d="M941.54,251.12v-8.3h1.26V244a3,3,0,0,1,2.64-1.37,3.65,3.65,0,0,1,1.38.27,2.2,2.2,0,0,1,.94.71,2.64,2.64,0,0,1,.44,1,8.94,8.94,0,0,1,.08,1.36v5.11h-1.41V246a3.78,3.78,0,0,0-.16-1.29,1.42,1.42,0,0,0-.58-.68,2.18,2.18,0,0,0-1-.25,2.32,2.32,0,0,0-1.55.57,2.83,2.83,0,0,0-.66,2.16v4.54Z"/><path class="cls-3" d="M955.85,248.08l1.38.18a3.48,3.48,0,0,1-1.16,2.23,3.32,3.32,0,0,1-2.29.81,3.54,3.54,0,0,1-2.74-1.11,4.48,4.48,0,0,1-1-3.19,5.77,5.77,0,0,1,.44-2.35,3.12,3.12,0,0,1,1.36-1.51,4.1,4.1,0,0,1,2-.51,3.44,3.44,0,0,1,2.21.69,3.16,3.16,0,0,1,1.1,1.94l-1.37.21a2.32,2.32,0,0,0-.69-1.26,1.8,1.8,0,0,0-1.2-.42,2.18,2.18,0,0,0-1.72.76,3.59,3.59,0,0,0-.67,2.41,3.74,3.74,0,0,0,.64,2.43,2.08,2.08,0,0,0,1.67.76,1.94,1.94,0,0,0,1.39-.51A2.51,2.51,0,0,0,955.85,248.08Z"/><path class="cls-3" d="M964.12,248.44l1.45.18a3.56,3.56,0,0,1-1.27,2,4.33,4.33,0,0,1-5.27-.42,4.37,4.37,0,0,1-1.06-3.14,4.6,4.6,0,0,1,1.08-3.25,3.68,3.68,0,0,1,2.79-1.16,3.57,3.57,0,0,1,2.72,1.13,4.52,4.52,0,0,1,1.06,3.19v.38h-6.19a3.19,3.19,0,0,0,.77,2.09,2.29,2.29,0,0,0,1.74.73,2.15,2.15,0,0,0,1.32-.41A2.68,2.68,0,0,0,964.12,248.44Zm-4.62-2.27h4.63a2.79,2.79,0,0,0-.53-1.57,2.21,2.21,0,0,0-1.74-.81,2.25,2.25,0,0,0-1.63.65A2.63,2.63,0,0,0,959.5,246.17Z"/><path class="cls-3" d="M707.4,270.32l-2.54-8.3h1.42l1.32,4.79.49,1.78c0-.09.17-.66.43-1.71l1.32-4.86h1.44l1.24,4.81.42,1.59.47-1.6,1.42-4.8h1.45l-2.59,8.3h-1.46l-1.32-5-.32-1.42-1.68,6.39Z"/><path class="cls-3" d="M717.43,260.48v-1.62h1.4v1.62Zm0,9.85V262h1.4v8.3Z"/><path class="cls-3" d="M720.94,270.32V258.86h1.41v11.46Z"/><path class="cls-3" d="M724.5,270.32V258.86h1.4v11.46Z"/><path class="cls-3" d="M737.91,270.32v-1a2.55,2.55,0,0,1-2.32,1.23,3.18,3.18,0,0,1-1.82-.54,3.5,3.5,0,0,1-1.29-1.53,5.1,5.1,0,0,1-.46-2.25,5.85,5.85,0,0,1,.42-2.26,3.31,3.31,0,0,1,1.24-1.55,3.44,3.44,0,0,1,1.85-.54,2.82,2.82,0,0,1,2.29,1.14v-4.11h1.4v11.46Zm-4.44-4.14a3.59,3.59,0,0,0,.67,2.38,2,2,0,0,0,1.59.79,2,2,0,0,0,1.56-.76,3.49,3.49,0,0,0,.65-2.3,3.91,3.91,0,0,0-.66-2.5,2,2,0,0,0-1.62-.79,2,2,0,0,0-1.56.76,3.8,3.8,0,0,0-.63,2.42Z"/><path class="cls-3" d="M747.11,267.66l1.45.18a3.51,3.51,0,0,1-1.27,2,4.32,4.32,0,0,1-5.26-.42,4.38,4.38,0,0,1-1.07-3.14A4.6,4.6,0,0,1,742,263a3.68,3.68,0,0,1,2.79-1.16,3.57,3.57,0,0,1,2.72,1.13,4.52,4.52,0,0,1,1.06,3.19v.38h-6.19a3.08,3.08,0,0,0,.78,2.09,2.23,2.23,0,0,0,1.73.73,2.09,2.09,0,0,0,1.32-.41A2.68,2.68,0,0,0,747.11,267.66Zm-4.62-2.27h4.63a2.79,2.79,0,0,0-.53-1.57,2.21,2.21,0,0,0-1.74-.81,2.25,2.25,0,0,0-1.63.65,2.56,2.56,0,0,0-.73,1.71Z"/><path class="cls-3" d="M755.74,267.29l1.38.17A3.53,3.53,0,0,1,756,269.7a3.42,3.42,0,0,1-2.29.81,3.59,3.59,0,0,1-2.74-1.12,4.48,4.48,0,0,1-1-3.19,5.77,5.77,0,0,1,.44-2.35,3.12,3.12,0,0,1,1.36-1.51,4.1,4.1,0,0,1,2-.51,3.44,3.44,0,0,1,2.21.69,3.16,3.16,0,0,1,1.1,1.94l-1.37.21a2.32,2.32,0,0,0-.69-1.26,1.8,1.8,0,0,0-1.2-.42,2.18,2.18,0,0,0-1.72.76,3.59,3.59,0,0,0-.67,2.41,3.8,3.8,0,0,0,.64,2.43,2.1,2.1,0,0,0,1.68.76,2,2,0,0,0,1.38-.51A2.51,2.51,0,0,0,755.74,267.29Z"/><path class="cls-3" d="M758.28,270.32V262h1.27v1.26a3.61,3.61,0,0,1,.89-1.17,1.7,1.7,0,0,1,.9-.28,2.85,2.85,0,0,1,1.45.45l-.49,1.31a2.06,2.06,0,0,0-1-.31,1.42,1.42,0,0,0-.82.28,1.58,1.58,0,0,0-.53.77,5.75,5.75,0,0,0-.23,1.64v4.35Z"/><path class="cls-3" d="M769.33,267.66l1.46.18a3.58,3.58,0,0,1-1.28,2,4.31,4.31,0,0,1-5.26-.42,4.36,4.36,0,0,1-1.06-3.13,4.6,4.6,0,0,1,1.07-3.25,3.62,3.62,0,0,1,2.8-1.16,3.5,3.5,0,0,1,2.72,1.13,4.47,4.47,0,0,1,1,3.18v.38h-6.19a3.19,3.19,0,0,0,.77,2.09,2.26,2.26,0,0,0,1.74.73,2.09,2.09,0,0,0,1.32-.41A2.61,2.61,0,0,0,769.33,267.66Zm-4.61-2.27h4.63a2.79,2.79,0,0,0-.53-1.57,2.19,2.19,0,0,0-1.74-.81,2.25,2.25,0,0,0-1.63.65,2.56,2.56,0,0,0-.73,1.71Z"/><path class="cls-3" d="M778,269.29a4.73,4.73,0,0,1-1.51.94,4.12,4.12,0,0,1-1.55.27,3,3,0,0,1-2.1-.66,2.21,2.21,0,0,1-.73-1.71,2.32,2.32,0,0,1,1-1.92,3.23,3.23,0,0,1,1-.45,6.66,6.66,0,0,1,1.25-.21,14.28,14.28,0,0,0,2.51-.49v-.38a1.54,1.54,0,0,0-.4-1.21,2.36,2.36,0,0,0-1.6-.46,2.45,2.45,0,0,0-1.47.34,2.19,2.19,0,0,0-.7,1.23l-1.37-.18a3.28,3.28,0,0,1,.62-1.43,2.7,2.7,0,0,1,1.24-.84,5.47,5.47,0,0,1,1.88-.29,4.84,4.84,0,0,1,1.73.25,2.23,2.23,0,0,1,1,.62,2.2,2.2,0,0,1,.44,1,8,8,0,0,1,.07,1.3v1.87a20.49,20.49,0,0,0,.09,2.48,2.92,2.92,0,0,0,.36,1h-1.45A3,3,0,0,1,778,269.29Zm-.12-3.14a9.49,9.49,0,0,1-2.3.53,7.2,7.2,0,0,0-1.22.28,1.33,1.33,0,0,0-.56.46,1.24,1.24,0,0,0-.19.67,1.2,1.2,0,0,0,.42.94,1.77,1.77,0,0,0,1.25.37,2.9,2.9,0,0,0,1.44-.35,2.1,2.1,0,0,0,.93-1,3.33,3.33,0,0,0,.23-1.4Z"/><path class="cls-3" d="M780.89,267.84l1.39-.22a1.9,1.9,0,0,0,.65,1.28,2.76,2.76,0,0,0,2.94.05,1.12,1.12,0,0,0,.46-.91.84.84,0,0,0-.41-.75,5.31,5.31,0,0,0-1.44-.48,14.39,14.39,0,0,1-2.14-.68,2.15,2.15,0,0,1-.91-.78,2.23,2.23,0,0,1-.31-1.13,2.1,2.1,0,0,1,.26-1,2.38,2.38,0,0,1,.69-.79,2.86,2.86,0,0,1,.89-.4,3.91,3.91,0,0,1,1.22-.17,4.76,4.76,0,0,1,1.71.28,2.26,2.26,0,0,1,1.09.76,2.94,2.94,0,0,1,.49,1.29l-1.38.19a1.43,1.43,0,0,0-.54-1,1.93,1.93,0,0,0-1.27-.36,2.16,2.16,0,0,0-1.38.32.9.9,0,0,0-.42.75.76.76,0,0,0,.18.49,1.16,1.16,0,0,0,.53.37c.14.06.56.17,1.25.36a16.71,16.71,0,0,1,2.08.65,2.15,2.15,0,0,1,.92.74,2,2,0,0,1,.34,1.2,2.27,2.27,0,0,1-.41,1.32,2.5,2.5,0,0,1-1.18,1,4.21,4.21,0,0,1-1.75.35,3.92,3.92,0,0,1-2.47-.67A3.19,3.19,0,0,1,780.89,267.84Z"/><path class="cls-3" d="M795.13,267.66l1.45.18a3.48,3.48,0,0,1-1.27,2,4.31,4.31,0,0,1-5.26-.42,4.37,4.37,0,0,1-1.07-3.13,4.57,4.57,0,0,1,1.08-3.25,3.62,3.62,0,0,1,2.8-1.16,3.54,3.54,0,0,1,2.72,1.13,4.47,4.47,0,0,1,1,3.18v.38H790.4a3.19,3.19,0,0,0,.77,2.09,2.23,2.23,0,0,0,1.73.73,2.09,2.09,0,0,0,1.32-.41A2.61,2.61,0,0,0,795.13,267.66Zm-4.62-2.27h4.64a2.9,2.9,0,0,0-.53-1.57,2.21,2.21,0,0,0-1.75-.81,2.25,2.25,0,0,0-1.63.65,2.56,2.56,0,0,0-.73,1.71Z"/><path class="cls-3" d="M801,273.54l.26-1.2a2.54,2.54,0,0,0,.67.11.73.73,0,0,0,.64-.29,2.85,2.85,0,0,0,.21-1.42V262h1.4v8.75a4.08,4.08,0,0,1-.39,2.12,1.85,1.85,0,0,1-1.69.78A4.1,4.1,0,0,1,801,273.54Zm1.78-13V258.9h1.4v1.64Z"/><path class="cls-3" d="M805.83,266.17a4.23,4.23,0,0,1,1.28-3.41,3.85,3.85,0,0,1,2.61-.92,3.66,3.66,0,0,1,2.79,1.12,4.24,4.24,0,0,1,1.09,3.1,5.48,5.48,0,0,1-.48,2.52,3.44,3.44,0,0,1-1.4,1.43,4.21,4.21,0,0,1-2,.5,3.8,3.8,0,0,1-2.82-1.11A4.48,4.48,0,0,1,805.83,266.17Zm1.44,0a3.44,3.44,0,0,0,.7,2.38,2.29,2.29,0,0,0,3.24.25,2,2,0,0,0,.25-.25,3.59,3.59,0,0,0,.7-2.43,3.44,3.44,0,0,0-.7-2.33,2.34,2.34,0,0,0-3.29-.2l-.2.2a3.52,3.52,0,0,0-.69,2.38Z"/><path class="cls-3" d="M816.55,270.32h-1.27V258.86h1.41V263a2.8,2.8,0,0,1,2.27-1.12,3.6,3.6,0,0,1,1.45.31,3,3,0,0,1,1.12.88,4,4,0,0,1,.7,1.35,5.6,5.6,0,0,1,.25,1.68,4.82,4.82,0,0,1-1.06,3.3,3.32,3.32,0,0,1-2.53,1.16,2.66,2.66,0,0,1-2.3-1.22Zm0-4.21a4.17,4.17,0,0,0,.41,2.15,2,2,0,0,0,3.39.29,4.68,4.68,0,0,0,0-4.79,2,2,0,0,0-3.15,0,3.52,3.52,0,0,0-.67,2.32Z"/><path class="cls-3" d="M823.58,267.84l1.4-.22a1.86,1.86,0,0,0,.65,1.28,2.18,2.18,0,0,0,1.49.45,2.08,2.08,0,0,0,1.44-.4A1.16,1.16,0,0,0,829,268a.84.84,0,0,0-.41-.75,5.31,5.31,0,0,0-1.44-.48,14.9,14.9,0,0,1-2.15-.68,2.14,2.14,0,0,1-1-2.83l0-.09a2.2,2.2,0,0,1,.69-.79,2.72,2.72,0,0,1,.9-.41,3.81,3.81,0,0,1,1.21-.17,4.78,4.78,0,0,1,1.72.28,2.26,2.26,0,0,1,1.09.76,3.05,3.05,0,0,1,.48,1.29l-1.37.19a1.44,1.44,0,0,0-.55-1,2,2,0,0,0-1.26-.36,2.19,2.19,0,0,0-1.39.32.91.91,0,0,0-.41.75.83.83,0,0,0,.17.49,1.3,1.3,0,0,0,.54.38c.14.05.55.17,1.24.35a15.23,15.23,0,0,1,2.08.66,2,2,0,0,1,1.27,1.94,2.31,2.31,0,0,1-.41,1.32,2.7,2.7,0,0,1-1.19,1,4.37,4.37,0,0,1-1.75.34,3.91,3.91,0,0,1-2.46-.67A3.15,3.15,0,0,1,823.58,267.84Z"/><path class="cls-3" d="M836.6,260.48v-1.62H838v1.62Zm0,9.85V262H838v8.3Z"/><path class="cls-3" d="M840.15,270.32V262h1.26v1.18a3,3,0,0,1,2.64-1.37,3.65,3.65,0,0,1,1.38.27,2.28,2.28,0,0,1,.94.71,2.64,2.64,0,0,1,.44,1,8.94,8.94,0,0,1,.08,1.36v5.11h-1.41v-5a3.78,3.78,0,0,0-.16-1.29,1.42,1.42,0,0,0-.58-.68,1.93,1.93,0,0,0-1-.25,2.32,2.32,0,0,0-1.55.57,2.83,2.83,0,0,0-.66,2.16v4.54Z"/><path class="cls-3" d="M856.56,269.06l.2,1.24a4.73,4.73,0,0,1-1.06.13,2.35,2.35,0,0,1-1.19-.25,1.29,1.29,0,0,1-.59-.63,5.46,5.46,0,0,1-.17-1.66v-4.78h-1V262h1V260l1.4-.84V262h1.41v1.09h-1.41V268a2.52,2.52,0,0,0,.07.78.58.58,0,0,0,.24.27.8.8,0,0,0,.48.1A4.32,4.32,0,0,0,856.56,269.06Z"/><path class="cls-3" d="M857.94,270.32V258.86h1.4V263a3.42,3.42,0,0,1,4.09-.76,2.07,2.07,0,0,1,1,1,4.51,4.51,0,0,1,.29,1.86v5.26h-1.44v-5.26a2.13,2.13,0,0,0-.46-1.54,1.67,1.67,0,0,0-1.29-.48,2.15,2.15,0,0,0-1.18.33,1.72,1.72,0,0,0-.78.88,3.93,3.93,0,0,0-.24,1.53v4.54Z"/><path class="cls-3" d="M872.51,267.66l1.46.18a3.58,3.58,0,0,1-1.28,2,4.31,4.31,0,0,1-5.26-.42,4.36,4.36,0,0,1-1.06-3.13,4.6,4.6,0,0,1,1.07-3.25,3.62,3.62,0,0,1,2.8-1.16A3.5,3.5,0,0,1,873,263a4.47,4.47,0,0,1,1,3.18v.38h-6.19a3.19,3.19,0,0,0,.77,2.09,2.26,2.26,0,0,0,1.74.73,2.09,2.09,0,0,0,1.32-.41A2.61,2.61,0,0,0,872.51,267.66Zm-4.61-2.27h4.63a2.79,2.79,0,0,0-.53-1.57,2.21,2.21,0,0,0-1.74-.81,2.25,2.25,0,0,0-1.63.65,2.56,2.56,0,0,0-.73,1.71Z"/><path class="cls-3" d="M880.18,270.32V262h1.26v1.18a3,3,0,0,1,2.64-1.37,3.65,3.65,0,0,1,1.38.27,2.2,2.2,0,0,1,.94.71,2.64,2.64,0,0,1,.44,1,8.94,8.94,0,0,1,.08,1.36v5.11h-1.41v-5a3.78,3.78,0,0,0-.16-1.29,1.42,1.42,0,0,0-.58-.68,1.93,1.93,0,0,0-1-.25,2.32,2.32,0,0,0-1.55.57,2.83,2.83,0,0,0-.66,2.16v4.54Z"/><path class="cls-3" d="M894.76,267.66l1.45.18a3.51,3.51,0,0,1-1.27,2,4.31,4.31,0,0,1-5.27-.42,4.36,4.36,0,0,1-1.06-3.13,4.57,4.57,0,0,1,1.08-3.25,3.61,3.61,0,0,1,2.79-1.16A3.5,3.5,0,0,1,895.2,263a4.5,4.5,0,0,1,1.06,3.18v.38h-6.19a3.19,3.19,0,0,0,.77,2.09,2.29,2.29,0,0,0,1.74.73,2.09,2.09,0,0,0,1.32-.41A2.68,2.68,0,0,0,894.76,267.66Zm-4.62-2.27h4.63a2.79,2.79,0,0,0-.53-1.57,2.21,2.21,0,0,0-1.74-.81,2.25,2.25,0,0,0-1.63.65,2.56,2.56,0,0,0-.73,1.71Z"/><path class="cls-3" d="M897,270.32l3-4.32-2.81-4H899l1.28,1.94c.23.37.43.68.57.93.23-.34.44-.64.64-.91l1.39-2h1.68l-2.86,3.91,3.08,4.39h-1.72l-1.71-2.58-.45-.7-2.18,3.28Z"/><path class="cls-3" d="M909.05,269.06l.2,1.24a4.73,4.73,0,0,1-1.06.13,2.35,2.35,0,0,1-1.19-.25,1.41,1.41,0,0,1-.6-.63,5.46,5.46,0,0,1-.17-1.66v-4.78h-1V262h1V260l1.4-.84V262h1.42v1.09h-1.42V268a2.25,2.25,0,0,0,.08.78.53.53,0,0,0,.24.27.8.8,0,0,0,.48.1A4.32,4.32,0,0,0,909.05,269.06Z"/><path class="cls-3" d="M914.48,267.32l1.47-.13a2.7,2.7,0,0,0,.76,1.63,2.15,2.15,0,0,0,1.45.55,2.27,2.27,0,0,0,1.71-.77,2.89,2.89,0,0,0,.71-2,2.6,2.6,0,0,0-.68-1.9,2.32,2.32,0,0,0-1.77-.7,2.42,2.42,0,0,0-1.23.31,2.33,2.33,0,0,0-.85.8l-1.32-.17,1.1-5.88h5.7v1.34H917l-.62,3.08a3.69,3.69,0,0,1,2.17-.72,3.41,3.41,0,0,1,2.53,1,3.57,3.57,0,0,1,1,2.67,4.19,4.19,0,0,1-.91,2.69,3.61,3.61,0,0,1-3,1.39,3.73,3.73,0,0,1-2.56-.87A3.43,3.43,0,0,1,914.48,267.32Z"/><path class="cls-3" d="M928.15,273.52l-.16-1.33a3.19,3.19,0,0,0,.81.13,1.49,1.49,0,0,0,.75-.16,1.21,1.21,0,0,0,.46-.44,8.14,8.14,0,0,0,.43-1,2.91,2.91,0,0,1,.12-.35l-3.15-8.31h1.52l1.73,4.8c.22.61.42,1.25.6,1.93.16-.63.35-1.27.57-1.89l1.78-4.84H935l-3.15,8.44a14.9,14.9,0,0,1-.79,1.88,2.77,2.77,0,0,1-.86,1,2.08,2.08,0,0,1-1.16.32A2.77,2.77,0,0,1,928.15,273.52Z"/><path class="cls-3" d="M941.89,267.66l1.45.18a3.51,3.51,0,0,1-1.27,2,4.32,4.32,0,0,1-5.26-.42,4.38,4.38,0,0,1-1.07-3.14,4.6,4.6,0,0,1,1.08-3.25,3.69,3.69,0,0,1,2.8-1.16,3.57,3.57,0,0,1,2.71,1.13,4.52,4.52,0,0,1,1.06,3.19v.38H937.2a3.18,3.18,0,0,0,.78,2.09,2.23,2.23,0,0,0,1.73.73A2.09,2.09,0,0,0,941,269,2.55,2.55,0,0,0,941.89,267.66Zm-4.62-2.27h4.63a2.79,2.79,0,0,0-.53-1.57,2.19,2.19,0,0,0-1.74-.81,2.25,2.25,0,0,0-1.63.65,2.62,2.62,0,0,0-.72,1.71Z"/><path class="cls-3" d="M950.52,269.29a5,5,0,0,1-1.5.94,4.12,4.12,0,0,1-1.55.27,3,3,0,0,1-2.1-.66,2.24,2.24,0,0,1-.74-1.71,2.34,2.34,0,0,1,1-1.92,3,3,0,0,1,1-.45,6.66,6.66,0,0,1,1.25-.21,13.17,13.17,0,0,0,2.5-.49v-.38a1.54,1.54,0,0,0-.4-1.21,3.14,3.14,0,0,0-3.06-.12,2.1,2.1,0,0,0-.7,1.23l-1.38-.18a3.4,3.4,0,0,1,.62-1.43,2.77,2.77,0,0,1,1.24-.84,5.3,5.3,0,0,1,1.89-.29,4.79,4.79,0,0,1,1.72.25,2.32,2.32,0,0,1,1,.62,2.25,2.25,0,0,1,.44,1,8,8,0,0,1,.07,1.3v1.87a20.49,20.49,0,0,0,.09,2.48,3.13,3.13,0,0,0,.35,1h-1.47A3.24,3.24,0,0,1,950.52,269.29Zm-.12-3.14a9.52,9.52,0,0,1-2.29.53,6.45,6.45,0,0,0-1.23.28,1.3,1.3,0,0,0-.55.46,1.25,1.25,0,0,0,.23,1.62,1.84,1.84,0,0,0,1.24.37,3.17,3.17,0,0,0,1.45-.35,2.25,2.25,0,0,0,.93-1,3.37,3.37,0,0,0,.22-1.4Z"/><path class="cls-3" d="M954,270.32V262h1.29v1.26a3.61,3.61,0,0,1,.89-1.17,1.7,1.7,0,0,1,.9-.28,2.85,2.85,0,0,1,1.45.45l-.49,1.31a2.06,2.06,0,0,0-1-.31,1.42,1.42,0,0,0-.82.28,1.58,1.58,0,0,0-.53.77,5.75,5.75,0,0,0-.23,1.64v4.35Z"/><path class="cls-3" d="M958.77,267.84l1.39-.22a1.91,1.91,0,0,0,.66,1.28,2.18,2.18,0,0,0,1.49.45,2.08,2.08,0,0,0,1.44-.4,1.16,1.16,0,0,0,.47-.91.82.82,0,0,0-.42-.75,5.13,5.13,0,0,0-1.43-.48,14.52,14.52,0,0,1-2.15-.68,2.07,2.07,0,0,1-.9-.78,2.21,2.21,0,0,1,.63-2.93,2.72,2.72,0,0,1,.9-.41,3.81,3.81,0,0,1,1.21-.17,4.78,4.78,0,0,1,1.72.28,2.26,2.26,0,0,1,1.09.76,3.05,3.05,0,0,1,.48,1.29l-1.37.19a1.5,1.5,0,0,0-.55-1,2,2,0,0,0-1.27-.36,2.16,2.16,0,0,0-1.38.32.89.89,0,0,0-.41.75.81.81,0,0,0,.17.49,1.3,1.3,0,0,0,.54.38c.14.05.55.17,1.24.35a15.23,15.23,0,0,1,2.08.66,2.11,2.11,0,0,1,.93.74,2,2,0,0,1,.33,1.2,2.31,2.31,0,0,1-.41,1.32,2.62,2.62,0,0,1-1.18,1,4.37,4.37,0,0,1-1.75.34,3.92,3.92,0,0,1-2.47-.67A3.19,3.19,0,0,1,958.77,267.84Z"/><circle class="cls-4" cx="439.18" cy="129.54" r="27.9"/><circle class="cls-5" cx="510.47" cy="189.58" r="24.26"/><line class="cls-6" x1="438.91" y1="156.83" x2="439.52" y2="250.22"/><circle class="cls-7" cx="593.55" cy="145.92" r="25.97"/><polyline class="cls-6" points="451.65 54.95 526.84 148.34 603.28 83.58"/><polygon points="603.7 102.73 600.08 102.31 602.21 84.48 584.29 83.67 584.46 80.03 606.29 81.03 603.7 102.73"/><circle class="cls-8" cx="510.44" cy="219.26" r="21.83"/><g id="Path_2059-7" data-name="Path 2059-7"><line class="cls-9" x1="548.78" y1="217.47" x2="966.28" y2="217.07"/><path class="cls-5" d="M548.91,220.09a2.63,2.63,0,1,1,2.63-2.63h0a2.61,2.61,0,0,1-2.61,2.63Z"/></g><g id="Path_2059-8" data-name="Path 2059-8"><line class="cls-10" x1="630.5" y1="153.47" x2="966.28" y2="153.07"/><path class="cls-7" d="M630.64,156.09a2.63,2.63,0,1,1,2.63-2.63A2.63,2.63,0,0,1,630.64,156.09Z"/></g><text class="cls-11" transform="translate(868.44 84.12)">General trend</text><path id="Path_2059-9" data-name="Path 2059-9" class="cls-12" d="M618,95.47l348.28-.39"/><g id="Path_2059-10" data-name="Path 2059-10"><polyline class="cls-13" points="966.28 280.07 510 280.48 510 253.66"/><circle class="cls-8" cx="510" cy="253.79" r="2.63"/></g><g id="Path_2059-13" data-name="Path 2059-13"><polyline class="cls-14" points="0 281.07 419.28 281.48 419.28 164.66"/><circle class="cls-4" cx="419.28" cy="164.79" r="2.63"/></g></g></g></svg>