<svg xmlns="http://www.w3.org/2000/svg" xmlns:xlink="http://www.w3.org/1999/xlink" viewBox="0 0 194.82 110.4"><defs><style>.cls-1,.cls-6{fill:none;}.cls-2{clip-path:url(#clip-path);}.cls-3{fill:#1c3d75;}.cls-4{fill:#c46157;}.cls-5{fill:#26a3de;}.cls-6{stroke:#3f1a13;stroke-miterlimit:10;stroke-width:1.06px;}</style><clipPath id="clip-path" transform="translate(0 0)"><rect class="cls-1" width="194.82" height="110.4"/></clipPath></defs><g id="Layer_2" data-name="Layer 2"><g id="Layer_1-2" data-name="Layer 1"><g class="cls-2"><path class="cls-3" d="M181.16,30.13A13.68,13.68,0,1,1,167.5,43.8a13.67,13.67,0,0,1,13.66-13.67" transform="translate(0 0)"/><path class="cls-4" d="M20.18,24A20.2,20.2,0,1,1,0,44.16,20.18,20.18,0,0,1,20.18,24" transform="translate(0 0)"/><path class="cls-5" d="M104.63,0a41,41,0,1,1-41,41.05,41,41,0,0,1,41-41" transform="translate(0 0)"/><polyline class="cls-6" points="19.18 43.75 59.42 109.42 105.5 41.05"/></g></g></g></svg>