<svg xmlns="http://www.w3.org/2000/svg" xmlns:xlink="http://www.w3.org/1999/xlink" viewBox="0 0 152 96.34"><defs><style>.cls-1,.cls-6{fill:none;}.cls-2{clip-path:url(#clip-path);}.cls-3{fill:#1a3d78;}.cls-4{fill:#338ceb;}.cls-5{fill:#85baf2;}.cls-6{stroke:#3f1a13;stroke-miterlimit:10;stroke-width:1.06px;}</style><clipPath id="clip-path" transform="translate(0 0)"><rect class="cls-1" width="152" height="96.34"/></clipPath></defs><g id="Layer_2" data-name="Layer 2"><g id="Layer_1-2" data-name="Layer 1"><g class="cls-2"><path class="cls-3" d="M21.53,9.13A21.69,21.69,0,1,1,0,30.81,21.61,21.61,0,0,1,21.53,9.13" transform="translate(0 0)"/><path class="cls-4" d="M65.73,58.63A18.86,18.86,0,1,1,47,77.48,18.79,18.79,0,0,1,65.73,58.63" transform="translate(0 0)"/><path class="cls-5" d="M132,31.39a20.19,20.19,0,1,1-20.05,20.19A20.11,20.11,0,0,1,132,31.39" transform="translate(0 0)"/><polyline class="cls-6" points="51.54 14.97 79.91 50.54 138.81 0.4"/></g></g></g></svg>