<svg id="Layer_1" data-name="Layer 1" xmlns="http://www.w3.org/2000/svg" viewBox="0 0 272.68 221.29"><defs><style>.cls-1,.cls-10,.cls-100,.cls-101,.cls-102,.cls-103,.cls-104,.cls-105,.cls-106,.cls-107,.cls-108,.cls-109,.cls-11,.cls-110,.cls-111,.cls-112,.cls-113,.cls-114,.cls-115,.cls-116,.cls-117,.cls-118,.cls-119,.cls-12,.cls-120,.cls-121,.cls-122,.cls-123,.cls-124,.cls-125,.cls-126,.cls-127,.cls-128,.cls-129,.cls-13,.cls-130,.cls-131,.cls-132,.cls-133,.cls-134,.cls-135,.cls-136,.cls-137,.cls-138,.cls-139,.cls-14,.cls-140,.cls-141,.cls-142,.cls-143,.cls-144,.cls-15,.cls-16,.cls-17,.cls-18,.cls-19,.cls-2,.cls-20,.cls-21,.cls-22,.cls-23,.cls-24,.cls-25,.cls-26,.cls-27,.cls-28,.cls-29,.cls-3,.cls-30,.cls-31,.cls-32,.cls-33,.cls-34,.cls-35,.cls-36,.cls-37,.cls-38,.cls-39,.cls-4,.cls-40,.cls-41,.cls-42,.cls-43,.cls-44,.cls-45,.cls-46,.cls-47,.cls-48,.cls-49,.cls-5,.cls-50,.cls-51,.cls-52,.cls-53,.cls-54,.cls-55,.cls-56,.cls-57,.cls-58,.cls-59,.cls-6,.cls-60,.cls-61,.cls-62,.cls-63,.cls-64,.cls-65,.cls-66,.cls-67,.cls-68,.cls-69,.cls-7,.cls-70,.cls-71,.cls-72,.cls-73,.cls-74,.cls-75,.cls-76,.cls-77,.cls-78,.cls-79,.cls-8,.cls-80,.cls-81,.cls-82,.cls-83,.cls-84,.cls-85,.cls-86,.cls-87,.cls-88,.cls-89,.cls-9,.cls-90,.cls-91,.cls-92,.cls-93,.cls-94,.cls-95,.cls-96,.cls-97,.cls-98,.cls-99{fill:#439ddc;}.cls-1{opacity:0.1;}.cls-2{opacity:0.11;}.cls-3{opacity:0.11;}.cls-4{opacity:0.12;}.cls-5{opacity:0.13;}.cls-6{opacity:0.13;}.cls-7{opacity:0.14;}.cls-8{opacity:0.14;}.cls-9{opacity:0.15;}.cls-10{opacity:0.16;}.cls-11{opacity:0.16;}.cls-12{opacity:0.17;}.cls-13{opacity:0.18;}.cls-14{opacity:0.18;}.cls-15{opacity:0.19;}.cls-16{opacity:0.19;}.cls-17{opacity:0.2;}.cls-18{opacity:0.21;}.cls-19{opacity:0.21;}.cls-20{opacity:0.22;}.cls-21{opacity:0.23;}.cls-22{opacity:0.23;}.cls-23{opacity:0.24;}.cls-24{opacity:0.24;}.cls-25{opacity:0.25;}.cls-26{opacity:0.26;}.cls-27{opacity:0.26;}.cls-28{opacity:0.27;}.cls-29{opacity:0.28;}.cls-30{opacity:0.28;}.cls-31{opacity:0.29;}.cls-32{opacity:0.3;}.cls-33{opacity:0.3;}.cls-34{opacity:0.31;}.cls-35{opacity:0.31;}.cls-36{opacity:0.32;}.cls-37{opacity:0.33;}.cls-38{opacity:0.33;}.cls-39{opacity:0.34;}.cls-40{opacity:0.35;}.cls-41{opacity:0.35;}.cls-42{opacity:0.36;}.cls-43{opacity:0.36;}.cls-44{opacity:0.37;}.cls-45{opacity:0.38;}.cls-46{opacity:0.38;}.cls-47{opacity:0.39;}.cls-48{opacity:0.4;}.cls-49{opacity:0.4;}.cls-50{opacity:0.41;}.cls-51{opacity:0.41;}.cls-52{opacity:0.42;}.cls-53{opacity:0.43;}.cls-54{opacity:0.43;}.cls-55{opacity:0.44;}.cls-56{opacity:0.45;}.cls-57{opacity:0.45;}.cls-58{opacity:0.46;}.cls-59{opacity:0.47;}.cls-60{opacity:0.47;}.cls-61{opacity:0.48;}.cls-62{opacity:0.48;}.cls-63{opacity:0.49;}.cls-64{opacity:0.5;}.cls-65{opacity:0.5;}.cls-66{opacity:0.51;}.cls-67{opacity:0.52;}.cls-68{opacity:0.52;}.cls-69{opacity:0.53;}.cls-70{opacity:0.53;}.cls-71{opacity:0.54;}.cls-72{opacity:0.55;}.cls-73{opacity:0.55;}.cls-74{opacity:0.56;}.cls-75{opacity:0.57;}.cls-76{opacity:0.57;}.cls-77{opacity:0.58;}.cls-78{opacity:0.58;}.cls-79{opacity:0.59;}.cls-80{opacity:0.6;}.cls-81{opacity:0.6;}.cls-82{opacity:0.61;}.cls-83{opacity:0.62;}.cls-84{opacity:0.62;}.cls-85{opacity:0.63;}.cls-86{opacity:0.63;}.cls-87{opacity:0.64;}.cls-88{opacity:0.65;}.cls-89{opacity:0.65;}.cls-90{opacity:0.66;}.cls-91{opacity:0.67;}.cls-92{opacity:0.67;}.cls-93{opacity:0.68;}.cls-94{opacity:0.69;}.cls-95{opacity:0.69;}.cls-96{opacity:0.7;}.cls-97{opacity:0.7;}.cls-98{opacity:0.71;}.cls-99{opacity:0.72;}.cls-100{opacity:0.72;}.cls-101{opacity:0.73;}.cls-102{opacity:0.74;}.cls-103{opacity:0.74;}.cls-104{opacity:0.75;}.cls-105{opacity:0.75;}.cls-106{opacity:0.76;}.cls-107{opacity:0.77;}.cls-108{opacity:0.77;}.cls-109{opacity:0.78;}.cls-110{opacity:0.79;}.cls-111{opacity:0.79;}.cls-112{opacity:0.8;}.cls-113{opacity:0.8;}.cls-114{opacity:0.81;}.cls-115{opacity:0.82;}.cls-116{opacity:0.82;}.cls-117{opacity:0.83;}.cls-118{opacity:0.84;}.cls-119{opacity:0.84;}.cls-120{opacity:0.85;}.cls-121{opacity:0.86;}.cls-122{opacity:0.86;}.cls-123{opacity:0.87;}.cls-124{opacity:0.87;}.cls-125{opacity:0.88;}.cls-126{opacity:0.89;}.cls-127{opacity:0.89;}.cls-128{opacity:0.9;}.cls-129{opacity:0.91;}.cls-130{opacity:0.91;}.cls-131{opacity:0.92;}.cls-132{opacity:0.92;}.cls-133{opacity:0.93;}.cls-134{opacity:0.94;}.cls-135{opacity:0.94;}.cls-136{opacity:0.95;}.cls-137{opacity:0.96;}.cls-138{opacity:0.96;}.cls-139{opacity:0.97;}.cls-140{opacity:0.97;}.cls-141{opacity:0.98;}.cls-142{opacity:0.99;}.cls-143{opacity:0.99;}.cls-145{font-size:12px;}.cls-145,.cls-146,.cls-147{fill:#3a1c15;font-family:ArialMT, Arial;}.cls-146{font-size:10px;}.cls-147{font-size:14.75px;}.cls-148{letter-spacing:-0.02em;}.cls-149{letter-spacing:-0.02em;}.cls-150{letter-spacing:-0.02em;}.cls-151{letter-spacing:-0.04em;}</style></defs><rect class="cls-1" x="34.89" y="68.38" width="0.96" height="9"/><rect class="cls-2" x="36.32" y="68.38" width="0.96" height="9"/><rect class="cls-3" x="37.75" y="68.38" width="0.96" height="9"/><rect class="cls-4" x="39.19" y="68.38" width="0.96" height="9"/><rect class="cls-5" x="40.62" y="68.38" width="0.96" height="9"/><rect class="cls-6" x="42.05" y="68.38" width="0.96" height="9"/><rect class="cls-7" x="43.49" y="68.38" width="0.96" height="9"/><rect class="cls-8" x="44.92" y="68.38" width="0.96" height="9"/><rect class="cls-9" x="46.35" y="68.38" width="0.96" height="9"/><rect class="cls-10" x="47.78" y="68.38" width="0.96" height="9"/><rect class="cls-11" x="49.22" y="68.38" width="0.96" height="9"/><rect class="cls-12" x="50.65" y="68.38" width="0.96" height="9"/><rect class="cls-13" x="52.08" y="68.38" width="0.96" height="9"/><rect class="cls-14" x="53.52" y="68.38" width="0.96" height="9"/><rect class="cls-15" x="54.95" y="68.38" width="0.96" height="9"/><rect class="cls-16" x="56.38" y="68.38" width="0.96" height="9"/><rect class="cls-17" x="57.81" y="68.38" width="0.96" height="9"/><rect class="cls-18" x="59.25" y="68.38" width="0.96" height="9"/><rect class="cls-19" x="60.68" y="68.38" width="0.96" height="9"/><rect class="cls-20" x="62.11" y="68.38" width="0.96" height="9"/><rect class="cls-21" x="63.55" y="68.38" width="0.96" height="9"/><rect class="cls-22" x="64.98" y="68.38" width="0.96" height="9"/><rect class="cls-23" x="66.41" y="68.38" width="0.96" height="9"/><rect class="cls-24" x="67.84" y="68.38" width="0.96" height="9"/><rect class="cls-25" x="69.28" y="68.38" width="0.96" height="9"/><rect class="cls-26" x="70.71" y="68.38" width="0.96" height="9"/><rect class="cls-27" x="72.14" y="68.38" width="0.96" height="9"/><rect class="cls-28" x="73.58" y="68.38" width="0.96" height="9"/><rect class="cls-29" x="75.01" y="68.38" width="0.96" height="9"/><rect class="cls-30" x="76.44" y="68.38" width="0.96" height="9"/><rect class="cls-31" x="77.87" y="68.38" width="0.96" height="9"/><rect class="cls-32" x="79.31" y="68.38" width="0.96" height="9"/><rect class="cls-33" x="80.74" y="68.38" width="0.96" height="9"/><rect class="cls-34" x="82.17" y="68.38" width="0.96" height="9"/><rect class="cls-35" x="83.61" y="68.38" width="0.96" height="9"/><rect class="cls-36" x="85.04" y="68.38" width="0.96" height="9"/><rect class="cls-37" x="86.47" y="68.38" width="0.96" height="9"/><rect class="cls-38" x="87.9" y="68.38" width="0.96" height="9"/><rect class="cls-39" x="89.34" y="68.38" width="0.96" height="9"/><rect class="cls-40" x="90.77" y="68.38" width="0.96" height="9"/><rect class="cls-41" x="92.2" y="68.38" width="0.96" height="9"/><rect class="cls-42" x="93.64" y="68.38" width="0.96" height="9"/><rect class="cls-43" x="95.07" y="68.38" width="0.96" height="9"/><rect class="cls-44" x="96.5" y="68.38" width="0.96" height="9"/><rect class="cls-45" x="97.93" y="68.38" width="0.96" height="9"/><rect class="cls-46" x="99.37" y="68.38" width="0.96" height="9"/><rect class="cls-47" x="100.8" y="68.38" width="0.96" height="9"/><rect class="cls-48" x="102.23" y="68.38" width="0.96" height="9"/><rect class="cls-49" x="103.67" y="68.38" width="0.96" height="9"/><rect class="cls-50" x="105.1" y="68.38" width="0.96" height="9"/><rect class="cls-51" x="106.53" y="68.38" width="0.96" height="9"/><rect class="cls-52" x="107.96" y="68.38" width="0.96" height="9"/><rect class="cls-53" x="109.4" y="68.38" width="0.96" height="9"/><rect class="cls-54" x="110.83" y="68.38" width="0.96" height="9"/><rect class="cls-55" x="112.26" y="68.38" width="0.96" height="9"/><rect class="cls-56" x="113.7" y="68.38" width="0.96" height="9"/><rect class="cls-57" x="115.13" y="68.38" width="0.96" height="9"/><rect class="cls-58" x="116.56" y="68.38" width="0.96" height="9"/><rect class="cls-59" x="117.99" y="68.38" width="0.96" height="9"/><rect class="cls-60" x="119.43" y="68.38" width="0.96" height="9"/><rect class="cls-61" x="120.86" y="68.38" width="0.96" height="9"/><rect class="cls-62" x="122.29" y="68.38" width="0.96" height="9"/><rect class="cls-63" x="123.72" y="68.38" width="0.96" height="9"/><rect class="cls-64" x="125.16" y="68.38" width="0.96" height="9"/><rect class="cls-65" x="126.59" y="68.38" width="0.96" height="9"/><rect class="cls-66" x="128.02" y="68.38" width="0.96" height="9"/><rect class="cls-67" x="129.46" y="68.38" width="0.96" height="9"/><rect class="cls-68" x="130.89" y="68.38" width="0.96" height="9"/><rect class="cls-69" x="132.32" y="68.38" width="0.96" height="9"/><rect class="cls-70" x="133.75" y="68.38" width="0.96" height="9"/><rect class="cls-71" x="135.19" y="68.38" width="0.96" height="9"/><rect class="cls-72" x="136.62" y="68.38" width="0.96" height="9"/><rect class="cls-73" x="138.05" y="68.38" width="0.96" height="9"/><rect class="cls-74" x="139.49" y="68.38" width="0.96" height="9"/><rect class="cls-75" x="140.92" y="68.38" width="0.96" height="9"/><rect class="cls-76" x="142.35" y="68.38" width="0.96" height="9"/><rect class="cls-77" x="143.78" y="68.38" width="0.96" height="9"/><rect class="cls-78" x="145.22" y="68.38" width="0.96" height="9"/><rect class="cls-79" x="146.65" y="68.38" width="0.96" height="9"/><rect class="cls-80" x="148.08" y="68.38" width="0.96" height="9"/><rect class="cls-81" x="149.52" y="68.38" width="0.96" height="9"/><rect class="cls-82" x="150.95" y="68.38" width="0.96" height="9"/><rect class="cls-83" x="152.38" y="68.38" width="0.96" height="9"/><rect class="cls-84" x="153.81" y="68.38" width="0.96" height="9"/><rect class="cls-85" x="155.25" y="68.38" width="0.96" height="9"/><rect class="cls-86" x="156.68" y="68.38" width="0.96" height="9"/><rect class="cls-87" x="158.11" y="68.38" width="0.96" height="9"/><rect class="cls-88" x="159.55" y="68.38" width="0.96" height="9"/><rect class="cls-89" x="160.98" y="68.38" width="0.96" height="9"/><rect class="cls-90" x="162.41" y="68.38" width="0.96" height="9"/><rect class="cls-91" x="163.84" y="68.38" width="0.96" height="9"/><rect class="cls-92" x="165.28" y="68.38" width="0.96" height="9"/><rect class="cls-93" x="166.71" y="68.38" width="0.96" height="9"/><rect class="cls-94" x="168.14" y="68.38" width="0.96" height="9"/><rect class="cls-95" x="169.58" y="68.38" width="0.96" height="9"/><rect class="cls-96" x="171.01" y="68.38" width="0.96" height="9"/><rect class="cls-97" x="172.44" y="68.38" width="0.96" height="9"/><rect class="cls-98" x="173.87" y="68.38" width="0.96" height="9"/><rect class="cls-99" x="175.31" y="68.38" width="0.96" height="9"/><rect class="cls-100" x="176.74" y="68.38" width="0.96" height="9"/><rect class="cls-101" x="178.17" y="68.38" width="0.96" height="9"/><rect class="cls-102" x="179.61" y="68.38" width="0.96" height="9"/><rect class="cls-103" x="181.04" y="68.38" width="0.96" height="9"/><rect class="cls-104" x="182.47" y="68.38" width="0.96" height="9"/><rect class="cls-105" x="183.9" y="68.38" width="0.96" height="9"/><rect class="cls-106" x="185.34" y="68.38" width="0.96" height="9"/><rect class="cls-107" x="186.77" y="68.38" width="0.96" height="9"/><rect class="cls-108" x="188.2" y="68.38" width="0.96" height="9"/><rect class="cls-109" x="189.64" y="68.38" width="0.96" height="9"/><rect class="cls-110" x="191.07" y="68.38" width="0.96" height="9"/><rect class="cls-111" x="192.5" y="68.38" width="0.96" height="9"/><rect class="cls-112" x="193.93" y="68.38" width="0.96" height="9"/><rect class="cls-113" x="195.37" y="68.38" width="0.96" height="9"/><rect class="cls-114" x="196.8" y="68.38" width="0.96" height="9"/><rect class="cls-115" x="198.23" y="68.38" width="0.96" height="9"/><rect class="cls-116" x="199.67" y="68.38" width="0.96" height="9"/><rect class="cls-117" x="201.1" y="68.38" width="0.96" height="9"/><rect class="cls-118" x="202.53" y="68.38" width="0.96" height="9"/><rect class="cls-119" x="203.96" y="68.38" width="0.96" height="9"/><rect class="cls-120" x="205.4" y="68.38" width="0.96" height="9"/><rect class="cls-121" x="206.83" y="68.38" width="0.96" height="9"/><rect class="cls-122" x="208.26" y="68.38" width="0.96" height="9"/><rect class="cls-123" x="209.7" y="68.38" width="0.96" height="9"/><rect class="cls-124" x="211.13" y="68.38" width="0.96" height="9"/><rect class="cls-125" x="212.56" y="68.38" width="0.96" height="9"/><rect class="cls-126" x="213.99" y="68.38" width="0.96" height="9"/><rect class="cls-127" x="215.43" y="68.38" width="0.96" height="9"/><rect class="cls-128" x="216.86" y="68.38" width="0.96" height="9"/><rect class="cls-129" x="218.29" y="68.38" width="0.96" height="9"/><rect class="cls-130" x="219.73" y="68.38" width="0.96" height="9"/><rect class="cls-131" x="221.16" y="68.38" width="0.96" height="9"/><rect class="cls-132" x="222.59" y="68.38" width="0.96" height="9"/><rect class="cls-133" x="224.02" y="68.38" width="0.96" height="9"/><rect class="cls-134" x="225.46" y="68.38" width="0.96" height="9"/><rect class="cls-135" x="226.89" y="68.38" width="0.96" height="9"/><rect class="cls-136" x="228.32" y="68.38" width="0.96" height="9"/><rect class="cls-137" x="229.76" y="68.38" width="0.96" height="9"/><rect class="cls-138" x="231.19" y="68.38" width="0.96" height="9"/><rect class="cls-139" x="232.62" y="68.38" width="0.96" height="9"/><rect class="cls-140" x="234.05" y="68.38" width="0.96" height="9"/><rect class="cls-141" x="235.49" y="68.38" width="0.96" height="9"/><rect class="cls-142" x="236.92" y="68.38" width="0.96" height="9"/><rect class="cls-143" x="238.35" y="68.38" width="0.96" height="9"/><rect class="cls-144" x="239.79" y="68.38" width="0.96" height="9"/><rect x="169.59" y="58.86" width="0.96" height="20"/><rect x="234.05" y="143.36" width="0.96" height="21"/><rect class="cls-1" x="34.89" y="153.02" width="0.96" height="9"/><rect class="cls-2" x="36.32" y="153.02" width="0.96" height="9"/><rect class="cls-3" x="37.75" y="153.02" width="0.96" height="9"/><rect class="cls-4" x="39.19" y="153.02" width="0.96" height="9"/><rect class="cls-5" x="40.62" y="153.02" width="0.96" height="9"/><rect class="cls-6" x="42.05" y="153.02" width="0.96" height="9"/><rect class="cls-7" x="43.49" y="153.02" width="0.96" height="9"/><rect class="cls-8" x="44.92" y="153.02" width="0.96" height="9"/><rect class="cls-9" x="46.35" y="153.02" width="0.96" height="9"/><rect class="cls-10" x="47.78" y="153.02" width="0.96" height="9"/><rect class="cls-11" x="49.22" y="153.02" width="0.96" height="9"/><rect class="cls-12" x="50.65" y="153.02" width="0.96" height="9"/><rect class="cls-13" x="52.08" y="153.02" width="0.96" height="9"/><rect class="cls-14" x="53.52" y="153.02" width="0.96" height="9"/><rect class="cls-15" x="54.95" y="153.02" width="0.96" height="9"/><rect class="cls-16" x="56.38" y="153.02" width="0.96" height="9"/><rect class="cls-17" x="57.81" y="153.02" width="0.96" height="9"/><rect class="cls-18" x="59.25" y="153.02" width="0.96" height="9"/><rect class="cls-19" x="60.68" y="153.02" width="0.96" height="9"/><rect class="cls-20" x="62.11" y="153.02" width="0.96" height="9"/><rect class="cls-21" x="63.55" y="153.02" width="0.96" height="9"/><rect class="cls-22" x="64.98" y="153.02" width="0.96" height="9"/><rect class="cls-23" x="66.41" y="153.02" width="0.96" height="9"/><rect class="cls-24" x="67.84" y="153.02" width="0.96" height="9"/><rect class="cls-25" x="69.28" y="153.02" width="0.96" height="9"/><rect class="cls-26" x="70.71" y="153.02" width="0.96" height="9"/><rect class="cls-27" x="72.14" y="153.02" width="0.96" height="9"/><rect class="cls-28" x="73.58" y="153.02" width="0.96" height="9"/><rect class="cls-29" x="75.01" y="153.02" width="0.96" height="9"/><rect class="cls-30" x="76.44" y="153.02" width="0.96" height="9"/><rect class="cls-31" x="77.87" y="153.02" width="0.96" height="9"/><rect class="cls-32" x="79.31" y="153.02" width="0.96" height="9"/><rect class="cls-33" x="80.74" y="153.02" width="0.96" height="9"/><rect class="cls-34" x="82.17" y="153.02" width="0.96" height="9"/><rect class="cls-35" x="83.61" y="153.02" width="0.96" height="9"/><rect class="cls-36" x="85.04" y="153.02" width="0.96" height="9"/><rect class="cls-37" x="86.47" y="153.02" width="0.96" height="9"/><rect class="cls-38" x="87.9" y="153.02" width="0.96" height="9"/><rect class="cls-39" x="89.34" y="153.02" width="0.96" height="9"/><rect class="cls-40" x="90.77" y="153.02" width="0.96" height="9"/><rect class="cls-41" x="92.2" y="153.02" width="0.96" height="9"/><rect class="cls-42" x="93.64" y="153.02" width="0.96" height="9"/><rect class="cls-43" x="95.07" y="153.02" width="0.96" height="9"/><rect class="cls-44" x="96.5" y="153.02" width="0.96" height="9"/><rect class="cls-45" x="97.93" y="153.02" width="0.96" height="9"/><rect class="cls-46" x="99.37" y="153.02" width="0.96" height="9"/><rect class="cls-47" x="100.8" y="153.02" width="0.96" height="9"/><rect class="cls-48" x="102.23" y="153.02" width="0.96" height="9"/><rect class="cls-49" x="103.67" y="153.02" width="0.96" height="9"/><rect class="cls-50" x="105.1" y="153.02" width="0.96" height="9"/><rect class="cls-51" x="106.53" y="153.02" width="0.96" height="9"/><rect class="cls-52" x="107.96" y="153.02" width="0.96" height="9"/><rect class="cls-53" x="109.4" y="153.02" width="0.96" height="9"/><rect class="cls-54" x="110.83" y="153.02" width="0.96" height="9"/><rect class="cls-55" x="112.26" y="153.02" width="0.96" height="9"/><rect class="cls-56" x="113.7" y="153.02" width="0.96" height="9"/><rect class="cls-57" x="115.13" y="153.02" width="0.96" height="9"/><rect class="cls-58" x="116.56" y="153.02" width="0.96" height="9"/><rect class="cls-59" x="117.99" y="153.02" width="0.96" height="9"/><rect class="cls-60" x="119.43" y="153.02" width="0.96" height="9"/><rect class="cls-61" x="120.86" y="153.02" width="0.96" height="9"/><rect class="cls-62" x="122.29" y="153.02" width="0.96" height="9"/><rect class="cls-63" x="123.72" y="153.02" width="0.96" height="9"/><rect class="cls-64" x="125.16" y="153.02" width="0.96" height="9"/><rect class="cls-65" x="126.59" y="153.02" width="0.96" height="9"/><rect class="cls-66" x="128.02" y="153.02" width="0.96" height="9"/><rect class="cls-67" x="129.46" y="153.02" width="0.96" height="9"/><rect class="cls-68" x="130.89" y="153.02" width="0.96" height="9"/><rect class="cls-69" x="132.32" y="153.02" width="0.96" height="9"/><rect class="cls-70" x="133.75" y="153.02" width="0.96" height="9"/><rect class="cls-71" x="135.19" y="153.02" width="0.96" height="9"/><rect class="cls-72" x="136.62" y="153.02" width="0.96" height="9"/><rect class="cls-73" x="138.05" y="153.02" width="0.96" height="9"/><rect class="cls-74" x="139.49" y="153.02" width="0.96" height="9"/><rect class="cls-75" x="140.92" y="153.02" width="0.96" height="9"/><rect class="cls-76" x="142.35" y="153.02" width="0.96" height="9"/><rect class="cls-77" x="143.78" y="153.02" width="0.96" height="9"/><rect class="cls-78" x="145.22" y="153.02" width="0.96" height="9"/><rect class="cls-79" x="146.65" y="153.02" width="0.96" height="9"/><rect class="cls-80" x="148.08" y="153.02" width="0.96" height="9"/><rect class="cls-81" x="149.52" y="153.02" width="0.96" height="9"/><rect class="cls-82" x="150.95" y="153.02" width="0.96" height="9"/><rect class="cls-83" x="152.38" y="153.02" width="0.96" height="9"/><rect class="cls-84" x="153.81" y="153.02" width="0.96" height="9"/><rect class="cls-85" x="155.25" y="153.02" width="0.96" height="9"/><rect class="cls-86" x="156.68" y="153.02" width="0.96" height="9"/><rect class="cls-87" x="158.11" y="153.02" width="0.96" height="9"/><rect class="cls-88" x="159.55" y="153.02" width="0.96" height="9"/><rect class="cls-89" x="160.98" y="153.02" width="0.96" height="9"/><rect class="cls-90" x="162.41" y="153.02" width="0.96" height="9"/><rect class="cls-91" x="163.84" y="153.02" width="0.96" height="9"/><rect class="cls-92" x="165.28" y="153.02" width="0.96" height="9"/><rect class="cls-93" x="166.71" y="153.02" width="0.96" height="9"/><rect class="cls-94" x="168.14" y="153.02" width="0.96" height="9"/><rect class="cls-95" x="169.58" y="153.02" width="0.96" height="9"/><rect class="cls-96" x="171.01" y="153.02" width="0.96" height="9"/><rect class="cls-97" x="172.44" y="153.02" width="0.96" height="9"/><rect class="cls-98" x="173.87" y="153.02" width="0.96" height="9"/><rect class="cls-99" x="175.31" y="153.02" width="0.96" height="9"/><rect class="cls-100" x="176.74" y="153.02" width="0.96" height="9"/><rect class="cls-101" x="178.17" y="153.02" width="0.96" height="9"/><rect class="cls-102" x="179.61" y="153.02" width="0.96" height="9"/><rect class="cls-103" x="181.04" y="153.02" width="0.96" height="9"/><rect class="cls-104" x="182.47" y="153.02" width="0.96" height="9"/><rect class="cls-105" x="183.9" y="153.02" width="0.96" height="9"/><rect class="cls-106" x="185.34" y="153.02" width="0.96" height="9"/><rect class="cls-107" x="186.77" y="153.02" width="0.96" height="9"/><rect class="cls-108" x="188.2" y="153.02" width="0.96" height="9"/><rect class="cls-109" x="189.64" y="153.02" width="0.96" height="9"/><rect class="cls-110" x="191.07" y="153.02" width="0.96" height="9"/><rect class="cls-111" x="192.5" y="153.02" width="0.96" height="9"/><rect class="cls-112" x="193.93" y="153.02" width="0.96" height="9"/><rect class="cls-113" x="195.37" y="153.02" width="0.96" height="9"/><rect class="cls-114" x="196.8" y="153.02" width="0.96" height="9"/><rect class="cls-115" x="198.23" y="153.02" width="0.96" height="9"/><rect class="cls-116" x="199.67" y="153.02" width="0.96" height="9"/><rect class="cls-117" x="201.1" y="153.02" width="0.96" height="9"/><rect class="cls-118" x="202.53" y="153.02" width="0.96" height="9"/><rect class="cls-119" x="203.96" y="153.02" width="0.96" height="9"/><rect class="cls-120" x="205.4" y="153.02" width="0.96" height="9"/><rect class="cls-121" x="206.83" y="153.02" width="0.96" height="9"/><rect class="cls-122" x="208.26" y="153.02" width="0.96" height="9"/><rect class="cls-123" x="209.7" y="153.02" width="0.96" height="9"/><rect class="cls-124" x="211.13" y="153.02" width="0.96" height="9"/><rect class="cls-125" x="212.56" y="153.02" width="0.96" height="9"/><rect class="cls-126" x="213.99" y="153.02" width="0.96" height="9"/><rect class="cls-127" x="215.43" y="153.02" width="0.96" height="9"/><rect class="cls-128" x="216.86" y="153.02" width="0.96" height="9"/><rect class="cls-129" x="218.29" y="153.02" width="0.96" height="9"/><rect class="cls-130" x="219.73" y="153.02" width="0.96" height="9"/><rect class="cls-131" x="221.16" y="153.02" width="0.96" height="9"/><rect class="cls-132" x="222.59" y="153.02" width="0.96" height="9"/><rect class="cls-133" x="224.02" y="153.02" width="0.96" height="9"/><rect class="cls-134" x="225.46" y="153.02" width="0.96" height="9"/><rect class="cls-135" x="226.89" y="153.02" width="0.96" height="9"/><rect class="cls-136" x="228.32" y="153.02" width="0.96" height="9"/><rect class="cls-137" x="229.76" y="153.02" width="0.96" height="9"/><rect class="cls-138" x="231.19" y="153.02" width="0.96" height="9"/><rect class="cls-139" x="232.62" y="153.02" width="0.96" height="9"/><rect class="cls-140" x="234.05" y="153.02" width="0.96" height="9"/><rect class="cls-141" x="235.49" y="153.02" width="0.96" height="9"/><rect class="cls-142" x="236.92" y="153.02" width="0.96" height="9"/><rect class="cls-143" x="238.35" y="153.02" width="0.96" height="9"/><rect class="cls-144" x="239.79" y="153.02" width="0.96" height="9"/><text class="cls-145" transform="translate(0.32 40.55)">Low Distrust</text><text class="cls-146" transform="translate(36.32 64.55)">Scientists</text><text class="cls-146" transform="translate(35.32 148.55)">Science</text><text class="cls-147" transform="translate(0.32 11.66)"><tspan class="cls-148">V</tspan><tspan x="9.57" y="0">ietnam</tspan><tspan class="cls-149" x="53.83" y="0">’</tspan><tspan x="56.84" y="0">s Global Ranking </tspan></text><text class="cls-145" transform="translate(204.32 40.55)">High Distrust</text><text class="cls-145" transform="translate(-0.68 124.55)">High<tspan class="cls-150" x="24.68" y="0"> </tspan><tspan class="cls-151" x="27.8" y="0">T</tspan><tspan x="34.68" y="0">rust</tspan></text><text class="cls-145" transform="translate(203.32 124.55)">Low<tspan class="cls-150" x="22.01" y="0"> </tspan><tspan class="cls-151" x="25.13" y="0">T</tspan><tspan x="32.02" y="0">rust</tspan></text></svg>