<svg xmlns="http://www.w3.org/2000/svg" viewBox="0 0 695.5 306.02"><defs><style>.cls-1,.cls-12,.cls-16,.cls-18,.cls-21,.cls-3,.cls-6,.cls-8{fill:none;}.cls-1{stroke:#f28000;}.cls-1,.cls-12,.cls-16,.cls-18,.cls-3,.cls-6,.cls-8{stroke-miterlimit:10;stroke-width:0.7px;}.cls-2{fill:#f28000;}.cls-3{stroke:#193c78;}.cls-4{fill:#193c78;}.cls-10,.cls-11,.cls-14,.cls-5{isolation:isolate;}.cls-11,.cls-14,.cls-5{font-size:16px;}.cls-11,.cls-14,.cls-5,.cls-7{fill:#3e1a13;}.cls-11,.cls-5{font-family:ArialMT, Arial;}.cls-21,.cls-6{stroke:#3f1a13;}.cls-8{stroke:#009ee2;}.cls-9{fill:#009ee2;}.cls-11{letter-spacing:-0.06em;}.cls-12{stroke:#d1ab39;}.cls-13{fill:#d1ab39;}.cls-14{font-family:Arial-BoldMT, Arial;font-weight:700;}.cls-15{letter-spacing:-0.06em;}.cls-16{stroke:#29a78a;}.cls-17{fill:#29a78a;}.cls-18{stroke:#c33;}.cls-19{fill:#c33;}.cls-20{fill:#fff;stroke:#999;}.cls-21{stroke-width:9.13px;}</style></defs><g id="Layer_2" data-name="Layer 2"><g id="Layer_1-2" data-name="Layer 1"><g id="Path_2059" data-name="Path 2059"><line class="cls-1" x1="232.5" y1="155.03" x2="0.5" y2="154.64"/><path class="cls-2" d="M232.37,152.39a2.64,2.64,0,1,1-2.63,2.65v0A2.64,2.64,0,0,1,232.37,152.39Z"/></g><g id="Path_2060" data-name="Path 2060"><line class="cls-3" x1="499.5" y1="171.64" x2="695.5" y2="171.64"/><circle class="cls-4" cx="499.63" cy="171.64" r="2.63"/></g><text class="cls-5" transform="translate(606.99 161.99)">Government</text><path id="Path_2060-2" data-name="Path 2060-2" class="cls-6" d="M695.5,122H408v47.5"/><path class="cls-7" d="M505.32,93V82.88h-3.78V81.53h9.08v1.35h-3.79V93Z"/><path class="cls-7" d="M512,93V81.53h1.4v4.11a3.14,3.14,0,0,1,2.49-1.14,3.32,3.32,0,0,1,1.6.36,2.11,2.11,0,0,1,1,1,4.52,4.52,0,0,1,.3,1.86V93h-1.41V87.72a2.17,2.17,0,0,0-.46-1.54,1.67,1.67,0,0,0-1.29-.48,2.24,2.24,0,0,0-1.18.33,1.81,1.81,0,0,0-.78.88,4,4,0,0,0-.24,1.53V93Z"/><path class="cls-7" d="M520.9,83.15V81.53h1.41v1.62Zm0,9.84v-8.3h1.41V93Z"/><path class="cls-7" d="M529.87,90l1.38.18a3.58,3.58,0,0,1-1.16,2.23,3.39,3.39,0,0,1-2.3.81,3.56,3.56,0,0,1-2.73-1.11,4.51,4.51,0,0,1-1-3.19,5.72,5.72,0,0,1,.45-2.35A3.06,3.06,0,0,1,525.86,85a4,4,0,0,1,2-.51,3.39,3.39,0,0,1,2.21.69,3.13,3.13,0,0,1,1.11,1.94l-1.37.21a2.25,2.25,0,0,0-.69-1.26,1.81,1.81,0,0,0-1.2-.42,2.2,2.2,0,0,0-1.73.76,3.63,3.63,0,0,0-.66,2.41,3.74,3.74,0,0,0,.64,2.43,2.08,2.08,0,0,0,1.67.76,2,2,0,0,0,1.38-.51A2.51,2.51,0,0,0,529.87,90Z"/><path class="cls-7" d="M532.46,93V81.53h1.41v6.53l3.32-3.37H539l-3.17,3.08L539.32,93h-1.73l-2.74-4.25-1,1V93Z"/><path class="cls-7" d="M540.45,93v-8.3h1.27v1.18a3,3,0,0,1,2.64-1.37,3.3,3.3,0,0,1,1.38.27,2.13,2.13,0,0,1,.94.71,2.81,2.81,0,0,1,.44,1,8.79,8.79,0,0,1,.07,1.36V93h-1.4V88a3.76,3.76,0,0,0-.17-1.29A1.34,1.34,0,0,0,545,86a1.93,1.93,0,0,0-1-.25,2.27,2.27,0,0,0-1.55.57,2.82,2.82,0,0,0-.65,2.16V93Z"/><path class="cls-7" d="M555,90.31l1.45.18a3.54,3.54,0,0,1-1.27,2,4.32,4.32,0,0,1-5.26-.42,4.37,4.37,0,0,1-1.07-3.14,4.58,4.58,0,0,1,1.08-3.25,3.65,3.65,0,0,1,2.8-1.16,3.53,3.53,0,0,1,2.71,1.13,4.51,4.51,0,0,1,1.06,3.19v.38h-6.19a3.2,3.2,0,0,0,.78,2.09,2.27,2.27,0,0,0,1.73.73,2.15,2.15,0,0,0,1.32-.41A2.55,2.55,0,0,0,555,90.31ZM550.38,88H555a2.67,2.67,0,0,0-.53-1.57,2.13,2.13,0,0,0-1.74-.81,2.21,2.21,0,0,0-1.63.65,2.59,2.59,0,0,0-.69,1.73Z"/><path class="cls-7" d="M557.69,90.53l1.39-.22a1.88,1.88,0,0,0,.65,1.28,2.29,2.29,0,0,0,1.49.45,2.18,2.18,0,0,0,1.44-.4,1.2,1.2,0,0,0,.47-.92.85.85,0,0,0-.41-.75,6.1,6.1,0,0,0-1.44-.48,12.22,12.22,0,0,1-2.15-.68,2,2,0,0,1-1.21-1.9,2.18,2.18,0,0,1,.25-1,2.28,2.28,0,0,1,.7-.78,2.67,2.67,0,0,1,.89-.41,4.11,4.11,0,0,1,1.21-.17,4.78,4.78,0,0,1,1.72.28,2.33,2.33,0,0,1,1.09.76,3,3,0,0,1,.48,1.29l-1.37.19a1.47,1.47,0,0,0-.54-1,2,2,0,0,0-1.27-.36,2.26,2.26,0,0,0-1.39.32.94.94,0,0,0-.41.75.79.79,0,0,0,.17.49,1.3,1.3,0,0,0,.54.38c.14,0,.55.17,1.24.35a15.23,15.23,0,0,1,2.08.66,1.93,1.93,0,0,1,.93.74,2.1,2.1,0,0,1,.34,1.2,2.31,2.31,0,0,1-.41,1.32,2.7,2.7,0,0,1-1.19,1,4.37,4.37,0,0,1-1.75.34,3.91,3.91,0,0,1-2.46-.67A3.08,3.08,0,0,1,557.69,90.53Z"/><path class="cls-7" d="M565.69,90.53l1.39-.22a1.88,1.88,0,0,0,.65,1.28,2.29,2.29,0,0,0,1.49.45,2.18,2.18,0,0,0,1.44-.4,1.2,1.2,0,0,0,.47-.92.85.85,0,0,0-.41-.75,6.1,6.1,0,0,0-1.44-.48,12.22,12.22,0,0,1-2.15-.68,2,2,0,0,1-1.21-1.9,2.18,2.18,0,0,1,.25-1,2.28,2.28,0,0,1,.7-.78,2.67,2.67,0,0,1,.89-.41,4.11,4.11,0,0,1,1.21-.17,4.78,4.78,0,0,1,1.72.28,2.33,2.33,0,0,1,1.09.76,3,3,0,0,1,.48,1.29l-1.37.19a1.47,1.47,0,0,0-.54-1,2,2,0,0,0-1.27-.36,2.26,2.26,0,0,0-1.39.32.94.94,0,0,0-.41.75.79.79,0,0,0,.17.49,1.3,1.3,0,0,0,.54.38c.14,0,.55.17,1.24.35a15.23,15.23,0,0,1,2.08.66,1.93,1.93,0,0,1,.93.74,2.1,2.1,0,0,1,.34,1.2,2.31,2.31,0,0,1-.41,1.32,2.7,2.7,0,0,1-1.19,1,4.37,4.37,0,0,1-1.75.34,3.91,3.91,0,0,1-2.46-.67A3.08,3.08,0,0,1,565.69,90.53Z"/><path class="cls-7" d="M578.17,88.84a4.31,4.31,0,0,1,1.28-3.42,3.85,3.85,0,0,1,2.61-.92,3.77,3.77,0,0,1,2.8,1.12,4.25,4.25,0,0,1,1.08,3.1,5.48,5.48,0,0,1-.48,2.52,3.44,3.44,0,0,1-1.4,1.43,4.21,4.21,0,0,1-2,.5,3.77,3.77,0,0,1-2.82-1.11A4.5,4.5,0,0,1,578.17,88.84Zm1.45,0a3.52,3.52,0,0,0,.69,2.38,2.3,2.3,0,0,0,3.24.24,1.88,1.88,0,0,0,.25-.24,3.59,3.59,0,0,0,.7-2.43,3.41,3.41,0,0,0-.7-2.33,2.32,2.32,0,0,0-3.29-.2l-.2.2A3.55,3.55,0,0,0,579.62,88.84Z"/><path class="cls-7" d="M587.93,93V85.78h-1.24V84.69h1.24v-.88a3.76,3.76,0,0,1,.15-1.25,1.67,1.67,0,0,1,.71-.88,2.55,2.55,0,0,1,1.43-.34,6.5,6.5,0,0,1,1.32.14l-.21,1.22a4.57,4.57,0,0,0-.83-.07,1.25,1.25,0,0,0-.91.27,1.53,1.53,0,0,0-.26,1v.77h1.61v1.09h-1.61V93Z"/><path class="cls-7" d="M596.45,93V81.53h1.41V93Z"/><path class="cls-7" d="M600,83.15V81.53h1.41v1.62ZM600,93v-8.3h1.41V93Z"/><path class="cls-7" d="M603.59,93v-8.3h1.27v1.18a3,3,0,0,1,2.64-1.37,3.3,3.3,0,0,1,1.38.27,2.13,2.13,0,0,1,.94.71,2.81,2.81,0,0,1,.44,1,8.79,8.79,0,0,1,.07,1.36V93h-1.4V88a3.76,3.76,0,0,0-.17-1.29,1.34,1.34,0,0,0-.58-.68,1.93,1.93,0,0,0-1-.25,2.27,2.27,0,0,0-1.55.57,2.82,2.82,0,0,0-.65,2.16V93Z"/><path class="cls-7" d="M618.17,90.31l1.45.18a3.54,3.54,0,0,1-1.27,2,4.32,4.32,0,0,1-5.26-.42A4.37,4.37,0,0,1,612,88.93a4.58,4.58,0,0,1,1.08-3.25,3.65,3.65,0,0,1,2.8-1.16,3.57,3.57,0,0,1,2.72,1.13,4.52,4.52,0,0,1,1,3.19v.38h-6.19a3.2,3.2,0,0,0,.78,2.09A2.27,2.27,0,0,0,616,92a2.15,2.15,0,0,0,1.32-.41A2.55,2.55,0,0,0,618.17,90.31ZM613.55,88h4.64a2.83,2.83,0,0,0-.54-1.57,2.13,2.13,0,0,0-1.74-.81,2.21,2.21,0,0,0-1.63.65A2.59,2.59,0,0,0,613.55,88Z"/><path class="cls-7" d="M625.82,93v-8.3h1.26V86a3.56,3.56,0,0,1,.9-1.17,1.62,1.62,0,0,1,.9-.28,2.75,2.75,0,0,1,1.45.45l-.49,1.31a2,2,0,0,0-1-.31,1.38,1.38,0,0,0-.83.28,1.48,1.48,0,0,0-.52.77,5.34,5.34,0,0,0-.24,1.64V93Z"/><path class="cls-7" d="M636.84,90.31l1.45.18a3.54,3.54,0,0,1-1.27,2,4.32,4.32,0,0,1-5.26-.42,4.37,4.37,0,0,1-1.07-3.14,4.54,4.54,0,0,1,1.08-3.25,3.65,3.65,0,0,1,2.8-1.16,3.57,3.57,0,0,1,2.72,1.13,4.51,4.51,0,0,1,1,3.19v.38h-6.18a3.21,3.21,0,0,0,.77,2.09,2.25,2.25,0,0,0,1.73.73,2.15,2.15,0,0,0,1.32-.41A2.7,2.7,0,0,0,636.84,90.31ZM632.22,88h4.64a2.84,2.84,0,0,0-.53-1.57,2.15,2.15,0,0,0-1.75-.81,2.19,2.19,0,0,0-1.62.65A2.55,2.55,0,0,0,632.22,88Z"/><path class="cls-7" d="M640.07,83.15V81.53h1.4v1.62Zm0,9.84v-8.3h1.4V93Z"/><path class="cls-7" d="M643.62,93v-8.3h1.26v1.18a3,3,0,0,1,2.64-1.37,3.3,3.3,0,0,1,1.38.27,2.13,2.13,0,0,1,.94.71,2.81,2.81,0,0,1,.44,1,8.79,8.79,0,0,1,.08,1.36V93H649V88a3.75,3.75,0,0,0-.16-1.29,1.38,1.38,0,0,0-.58-.68,2,2,0,0,0-1-.25,2.27,2.27,0,0,0-1.55.57,2.82,2.82,0,0,0-.65,2.16V93Z"/><path class="cls-7" d="M652.85,93V85.78h-1.24V84.69h1.24v-.88a3.76,3.76,0,0,1,.15-1.25,1.67,1.67,0,0,1,.71-.88,2.6,2.6,0,0,1,1.44-.34,6.41,6.41,0,0,1,1.31.14l-.21,1.22a4.57,4.57,0,0,0-.83-.07,1.25,1.25,0,0,0-.91.27,1.53,1.53,0,0,0-.26,1v.77h1.62v1.09h-1.62V93Z"/><path class="cls-7" d="M656.44,88.84a4.24,4.24,0,0,1,1.28-3.42,3.85,3.85,0,0,1,2.61-.92,3.69,3.69,0,0,1,2.79,1.12,4.24,4.24,0,0,1,1.09,3.1,5.48,5.48,0,0,1-.48,2.52,3.44,3.44,0,0,1-1.4,1.43,4.21,4.21,0,0,1-2,.5,3.77,3.77,0,0,1-2.82-1.11A4.46,4.46,0,0,1,656.44,88.84Zm1.44,0a3.46,3.46,0,0,0,.7,2.38,2.3,2.3,0,0,0,3.49,0,3.65,3.65,0,0,0,.69-2.43,3.41,3.41,0,0,0-.7-2.33,2.32,2.32,0,0,0-3.48,0,3.47,3.47,0,0,0-.7,2.39Z"/><path class="cls-7" d="M665.84,93v-8.3h1.27V86a3.41,3.41,0,0,1,.89-1.17,1.62,1.62,0,0,1,.9-.28,2.75,2.75,0,0,1,1.45.45l-.48,1.31a2,2,0,0,0-1-.31,1.35,1.35,0,0,0-.82.28,1.49,1.49,0,0,0-.53.77,5.65,5.65,0,0,0-.23,1.64V93Z"/><path class="cls-7" d="M676.6,90l1.38.18a3.58,3.58,0,0,1-1.16,2.23,3.42,3.42,0,0,1-2.29.81,3.58,3.58,0,0,1-2.74-1.11,4.51,4.51,0,0,1-1-3.19,5.71,5.71,0,0,1,.44-2.35A3.08,3.08,0,0,1,672.59,85a4,4,0,0,1,2-.51,3.44,3.44,0,0,1,2.21.69,3.16,3.16,0,0,1,1.1,1.94l-1.37.21a2.25,2.25,0,0,0-.69-1.26,1.81,1.81,0,0,0-1.2-.42,2.18,2.18,0,0,0-1.72.76,3.56,3.56,0,0,0-.67,2.41,3.82,3.82,0,0,0,.64,2.43,2.14,2.14,0,0,0,1.67.76,2,2,0,0,0,1.39-.51A2.51,2.51,0,0,0,676.6,90Z"/><path class="cls-7" d="M684.87,90.31l1.45.18a3.51,3.51,0,0,1-1.28,2,4.32,4.32,0,0,1-5.26-.42,4.4,4.4,0,0,1-1.06-3.14,4.62,4.62,0,0,1,1.07-3.25,3.65,3.65,0,0,1,2.8-1.16,3.54,3.54,0,0,1,2.72,1.13,4.52,4.52,0,0,1,1.06,3.19v.38h-6.19a3.21,3.21,0,0,0,.77,2.09,2.33,2.33,0,0,0,1.74.73,2.22,2.22,0,0,0,1.32-.41A2.77,2.77,0,0,0,684.87,90.31ZM680.25,88h4.63a2.77,2.77,0,0,0-.53-1.57,2.15,2.15,0,0,0-1.74-.81,2.17,2.17,0,0,0-1.63.65A2.5,2.5,0,0,0,680.25,88Z"/><path class="cls-7" d="M687.52,90.53l1.39-.22a2,2,0,0,0,.65,1.28,2.3,2.3,0,0,0,1.5.45,2.18,2.18,0,0,0,1.44-.4,1.2,1.2,0,0,0,.47-.92.82.82,0,0,0-.42-.75,5.13,5.13,0,0,0-1.43-.48,12.22,12.22,0,0,1-2.15-.68,2.15,2.15,0,0,1-.91-.78,2.22,2.22,0,0,1,0-2.15,2.25,2.25,0,0,1,.69-.78,2.72,2.72,0,0,1,.9-.41,4.11,4.11,0,0,1,1.21-.17,4.78,4.78,0,0,1,1.72.28,2.33,2.33,0,0,1,1.09.76,3,3,0,0,1,.48,1.29l-1.38.19a1.47,1.47,0,0,0-.54-1,2,2,0,0,0-1.27-.36,2.23,2.23,0,0,0-1.38.32.9.9,0,0,0-.41.75.79.79,0,0,0,.17.49,1.3,1.3,0,0,0,.54.38c.14,0,.55.17,1.24.35a16.75,16.75,0,0,1,2.08.66,2.11,2.11,0,0,1,.93.74,2,2,0,0,1,.33,1.2,2.31,2.31,0,0,1-.41,1.32,2.62,2.62,0,0,1-1.18,1,4.37,4.37,0,0,1-1.75.34,3.92,3.92,0,0,1-2.47-.67A3.2,3.2,0,0,1,687.52,90.53Z"/><path class="cls-7" d="M511.08,112.19V100.73h1.4v11.46Z"/><path class="cls-7" d="M520.34,109.53l1.45.18a3.54,3.54,0,0,1-1.27,2,4.32,4.32,0,0,1-5.26-.42,4.41,4.41,0,0,1-1.07-3.14,4.54,4.54,0,0,1,1.08-3.25,3.65,3.65,0,0,1,2.8-1.16,3.57,3.57,0,0,1,2.72,1.13,4.51,4.51,0,0,1,1,3.19v.38h-6.18a3.21,3.21,0,0,0,.77,2.09,2.25,2.25,0,0,0,1.73.73,2.15,2.15,0,0,0,1.32-.41A2.7,2.7,0,0,0,520.34,109.53Zm-4.62-2.27h4.64a2.84,2.84,0,0,0-.53-1.57,2.15,2.15,0,0,0-1.75-.81,2.19,2.19,0,0,0-1.62.65,2.53,2.53,0,0,0-.74,1.71Z"/><path class="cls-7" d="M525.87,112.19l-3.16-8.3h1.48l1.78,5c.2.53.37,1.09.54,1.67.12-.44.3-1,.52-1.58l1.84-5.06h1.45l-3.14,8.3Z"/><path class="cls-7" d="M537.24,109.53l1.45.18a3.54,3.54,0,0,1-1.27,2,4.32,4.32,0,0,1-5.26-.42,4.41,4.41,0,0,1-1.07-3.14,4.58,4.58,0,0,1,1.08-3.25,3.65,3.65,0,0,1,2.8-1.16,3.57,3.57,0,0,1,2.72,1.13,4.51,4.51,0,0,1,1,3.19v.38H532.5a3.2,3.2,0,0,0,.78,2.09,2.25,2.25,0,0,0,1.73.73,2.15,2.15,0,0,0,1.32-.41A2.7,2.7,0,0,0,537.24,109.53Zm-4.62-2.27h4.64a2.83,2.83,0,0,0-.54-1.57,2.13,2.13,0,0,0-1.74-.81,2.21,2.21,0,0,0-1.63.65,2.56,2.56,0,0,0-.73,1.71Z"/><path class="cls-7" d="M540.43,112.19V100.73h1.4v11.46Z"/><path class="cls-7" d="M547.94,108a4.24,4.24,0,0,1,1.28-3.42,3.85,3.85,0,0,1,2.61-.92,3.69,3.69,0,0,1,2.79,1.12,4.24,4.24,0,0,1,1.09,3.1,5.48,5.48,0,0,1-.48,2.52,3.44,3.44,0,0,1-1.4,1.43,4.21,4.21,0,0,1-2,.5,3.77,3.77,0,0,1-2.82-1.11A4.46,4.46,0,0,1,547.94,108Zm1.44,0a3.46,3.46,0,0,0,.7,2.38,2.3,2.3,0,0,0,3.49,0,3.65,3.65,0,0,0,.69-2.43,3.41,3.41,0,0,0-.7-2.33,2.32,2.32,0,0,0-3.48,0,3.47,3.47,0,0,0-.7,2.39Z"/><path class="cls-7" d="M557.69,112.19V105h-1.24v-1.09h1.24V103a3.76,3.76,0,0,1,.15-1.25,1.83,1.83,0,0,1,.72-.88,2.55,2.55,0,0,1,1.43-.34,6.41,6.41,0,0,1,1.31.14l-.21,1.23a3.83,3.83,0,0,0-.83-.08,1.22,1.22,0,0,0-.9.27,1.43,1.43,0,0,0-.27,1v.77h1.62V105h-1.62v7.21Z"/><path class="cls-7" d="M571.63,112.19v-1a2.59,2.59,0,0,1-2.32,1.23,3.34,3.34,0,0,1-1.82-.54,3.62,3.62,0,0,1-1.29-1.53,5.16,5.16,0,0,1-.46-2.25,6,6,0,0,1,.41-2.26,3.24,3.24,0,0,1,1.25-1.55,3.28,3.28,0,0,1,1.85-.54,2.69,2.69,0,0,1,1.33.32,2.83,2.83,0,0,1,1,.82v-4.11H573v11.46Zm-4.44-4.14a3.61,3.61,0,0,0,.67,2.38,2,2,0,0,0,1.58.79,2,2,0,0,0,1.57-.76,3.44,3.44,0,0,0,.64-2.3,4,4,0,0,0-.65-2.5,2,2,0,0,0-1.62-.79,2,2,0,0,0-1.57.76,3.83,3.83,0,0,0-.62,2.42Z"/><path class="cls-7" d="M575.15,102.35v-1.62h1.41v1.62Zm0,9.84v-8.3h1.41v8.3Z"/><path class="cls-7" d="M578.14,109.71l1.39-.22a2,2,0,0,0,.65,1.28,2.3,2.3,0,0,0,1.5.45,2.18,2.18,0,0,0,1.44-.4,1.16,1.16,0,0,0,.46-.92.84.84,0,0,0-.41-.75,5.31,5.31,0,0,0-1.44-.48,13.31,13.31,0,0,1-2.14-.68,2.15,2.15,0,0,1-.91-.78,2.22,2.22,0,0,1-.31-1.12,2,2,0,0,1,.26-1,2.2,2.2,0,0,1,.69-.79,2.67,2.67,0,0,1,.89-.41,4.23,4.23,0,0,1,1.22-.17,4.76,4.76,0,0,1,1.71.28,2.26,2.26,0,0,1,1.09.76,3,3,0,0,1,.49,1.29l-1.38.19a1.47,1.47,0,0,0-.54-1,2,2,0,0,0-1.27-.36,2.16,2.16,0,0,0-1.38.32.9.9,0,0,0-.42.75.79.79,0,0,0,.17.49,1.3,1.3,0,0,0,.54.38c.14,0,.56.17,1.25.35a18.62,18.62,0,0,1,2.08.66,2.08,2.08,0,0,1,.92.74,2,2,0,0,1,.34,1.2,2.31,2.31,0,0,1-.41,1.32,2.62,2.62,0,0,1-1.18,1,4.37,4.37,0,0,1-1.75.34,3.92,3.92,0,0,1-2.47-.67A3.12,3.12,0,0,1,578.14,109.71Z"/><path class="cls-7" d="M589.77,110.93l.2,1.24a5.39,5.39,0,0,1-1.06.13,2.45,2.45,0,0,1-1.19-.25,1.34,1.34,0,0,1-.59-.63,5.16,5.16,0,0,1-.17-1.66V105h-1v-1.09h1v-2.06l1.4-.84v2.9h1.41V105h-1.41v4.85a2.58,2.58,0,0,0,.07.78.62.62,0,0,0,.24.27,1,1,0,0,0,.48.1C589.36,111,589.56,111,589.77,110.93Z"/><path class="cls-7" d="M591.13,112.19v-8.3h1.27v1.26a3.41,3.41,0,0,1,.89-1.17,1.62,1.62,0,0,1,.9-.28,2.75,2.75,0,0,1,1.45.45l-.49,1.31a2,2,0,0,0-1-.31,1.38,1.38,0,0,0-.83.28,1.56,1.56,0,0,0-.52.77,5.65,5.65,0,0,0-.23,1.64v4.35Z"/><path class="cls-7" d="M601.91,112.19V111a3,3,0,0,1-2.63,1.4,3.39,3.39,0,0,1-1.37-.28,2.28,2.28,0,0,1-1-.7,2.79,2.79,0,0,1-.43-1,7.15,7.15,0,0,1-.09-1.31v-5.14h1.41v4.6a7.41,7.41,0,0,0,.09,1.49,1.42,1.42,0,0,0,.56.87,1.8,1.8,0,0,0,1.06.31,2.36,2.36,0,0,0,1.19-.32,1.81,1.81,0,0,0,.78-.88,4.33,4.33,0,0,0,.23-1.63v-4.44h1.41v8.3Z"/><path class="cls-7" d="M604.81,109.71l1.39-.22a2,2,0,0,0,.65,1.28,2.3,2.3,0,0,0,1.5.45,2.18,2.18,0,0,0,1.44-.4,1.2,1.2,0,0,0,.47-.92.82.82,0,0,0-.42-.75,5.31,5.31,0,0,0-1.44-.48,13.31,13.31,0,0,1-2.14-.68,2.15,2.15,0,0,1-.91-.78,2.22,2.22,0,0,1-.31-1.12,2,2,0,0,1,.26-1,2.2,2.2,0,0,1,.69-.79,2.67,2.67,0,0,1,.89-.41,4.23,4.23,0,0,1,1.22-.17,4.76,4.76,0,0,1,1.71.28,2.26,2.26,0,0,1,1.09.76,3,3,0,0,1,.49,1.29l-1.38.19a1.47,1.47,0,0,0-.54-1,2,2,0,0,0-1.27-.36,2.16,2.16,0,0,0-1.38.32.9.9,0,0,0-.42.75.74.74,0,0,0,.18.49,1.3,1.3,0,0,0,.54.38c.14,0,.55.17,1.24.35a16.75,16.75,0,0,1,2.08.66,2.11,2.11,0,0,1,.93.74,2,2,0,0,1,.33,1.2,2.31,2.31,0,0,1-.41,1.32,2.62,2.62,0,0,1-1.18,1,4.37,4.37,0,0,1-1.75.34,3.92,3.92,0,0,1-2.47-.67A3.16,3.16,0,0,1,604.81,109.71Z"/><path class="cls-7" d="M616.44,110.93l.21,1.24a5.49,5.49,0,0,1-1.07.13,2.42,2.42,0,0,1-1.18-.25,1.41,1.41,0,0,1-.6-.63,5.16,5.16,0,0,1-.17-1.66V105h-1v-1.09h1v-2.06L615,101v2.9h1.41V105H615v4.85a2.58,2.58,0,0,0,.07.78.59.59,0,0,0,.25.27.89.89,0,0,0,.48.1C616,111,616.23,111,616.44,110.93Z"/><path class="cls-7" d="M622.27,102.35v-1.62h1.41v1.62Zm0,9.84v-8.3h1.41v8.3Z"/><path class="cls-7" d="M625.82,112.19v-8.3h1.26v1.18a3,3,0,0,1,2.64-1.37,3.46,3.46,0,0,1,1.38.27,2.13,2.13,0,0,1,.94.71,2.81,2.81,0,0,1,.44,1,8.79,8.79,0,0,1,.08,1.36v5.11h-1.41V107.1a3.75,3.75,0,0,0-.16-1.29,1.34,1.34,0,0,0-.58-.68,1.84,1.84,0,0,0-1-.25,2.27,2.27,0,0,0-1.55.57,2.82,2.82,0,0,0-.66,2.16v4.54Z"/><path class="cls-7" d="M638.83,108.53l1.43-.13a3.11,3.11,0,0,0,.47,1.41,2.59,2.59,0,0,0,1.15.89,4.45,4.45,0,0,0,1.76.34,4.21,4.21,0,0,0,1.53-.26,2.2,2.2,0,0,0,1-.7,1.7,1.7,0,0,0,.32-1,1.46,1.46,0,0,0-.31-.94,2.29,2.29,0,0,0-1-.68,19.76,19.76,0,0,0-2-.56,10.75,10.75,0,0,1-2.21-.71,3,3,0,0,1-1.22-1.07,2.61,2.61,0,0,1-.41-1.43,2.92,2.92,0,0,1,.5-1.62,3,3,0,0,1,1.43-1.14,5.4,5.4,0,0,1,2.1-.39,5.58,5.58,0,0,1,2.25.41,3.21,3.21,0,0,1,1.5,1.2,3.53,3.53,0,0,1,.56,1.81l-1.45.11a2.31,2.31,0,0,0-.8-1.64,3,3,0,0,0-2-.56,3.15,3.15,0,0,0-2,.51,1.5,1.5,0,0,0-.63,1.21,1.32,1.32,0,0,0,.45,1,6,6,0,0,0,2.29.81,15.9,15.9,0,0,1,2.53.73,3.53,3.53,0,0,1,1.48,1.17,2.85,2.85,0,0,1,.47,1.63,3.1,3.1,0,0,1-.52,1.72,3.54,3.54,0,0,1-1.5,1.26,5.27,5.27,0,0,1-2.21.45,6.65,6.65,0,0,1-2.61-.45,3.63,3.63,0,0,1-1.64-1.36A3.88,3.88,0,0,1,638.83,108.53Z"/><path class="cls-7" d="M655.25,109.15l1.38.18a3.6,3.6,0,0,1-1.16,2.24,3.41,3.41,0,0,1-2.29.8,3.58,3.58,0,0,1-2.74-1.11,4.51,4.51,0,0,1-1-3.19,5.72,5.72,0,0,1,.45-2.35,3.08,3.08,0,0,1,1.36-1.51,4,4,0,0,1,2-.51,3.44,3.44,0,0,1,2.21.69,3.16,3.16,0,0,1,1.1,1.94l-1.37.21a2.25,2.25,0,0,0-.69-1.26,1.81,1.81,0,0,0-1.2-.42,2.2,2.2,0,0,0-1.73.76,3.63,3.63,0,0,0-.66,2.41,3.74,3.74,0,0,0,.64,2.43,2.14,2.14,0,0,0,1.67.76,2,2,0,0,0,1.38-.51A2.51,2.51,0,0,0,655.25,109.15Z"/><path class="cls-7" d="M657.84,102.35v-1.62h1.41v1.62Zm0,9.84v-8.3h1.41v8.3Z"/><path class="cls-7" d="M667.07,109.53l1.45.18a3.54,3.54,0,0,1-1.27,2,4.32,4.32,0,0,1-5.26-.42,4.41,4.41,0,0,1-1.07-3.14A4.54,4.54,0,0,1,662,104.9a3.64,3.64,0,0,1,2.79-1.16,3.54,3.54,0,0,1,2.72,1.13,4.51,4.51,0,0,1,1.06,3.19v.38h-6.19a3.1,3.1,0,0,0,.78,2.09,2.25,2.25,0,0,0,1.73.73,2.15,2.15,0,0,0,1.32-.41A2.77,2.77,0,0,0,667.07,109.53Zm-4.62-2.27h4.63a2.77,2.77,0,0,0-.53-1.57,2.15,2.15,0,0,0-1.74-.81,2.21,2.21,0,0,0-1.63.65,2.56,2.56,0,0,0-.73,1.71Z"/><path class="cls-7" d="M670.29,112.19v-8.3h1.26v1.18a3,3,0,0,1,2.64-1.37,3.46,3.46,0,0,1,1.38.27,2.13,2.13,0,0,1,.94.71,2.81,2.81,0,0,1,.44,1A8.79,8.79,0,0,1,677,107v5.11h-1.41V107.1a3.75,3.75,0,0,0-.16-1.29,1.34,1.34,0,0,0-.58-.68,1.84,1.84,0,0,0-1-.25,2.27,2.27,0,0,0-1.55.57,2.82,2.82,0,0,0-.66,2.16v4.54Z"/><path class="cls-7" d="M684.6,109.15l1.38.18a3.6,3.6,0,0,1-1.16,2.24,3.41,3.41,0,0,1-2.29.8,3.58,3.58,0,0,1-2.74-1.11,4.51,4.51,0,0,1-1-3.19,5.71,5.71,0,0,1,.44-2.35,3.08,3.08,0,0,1,1.36-1.51,4,4,0,0,1,2-.51,3.44,3.44,0,0,1,2.21.69,3.16,3.16,0,0,1,1.1,1.94l-1.37.21a2.25,2.25,0,0,0-.69-1.26,1.81,1.81,0,0,0-1.2-.42,2.18,2.18,0,0,0-1.72.76,3.56,3.56,0,0,0-.67,2.41,3.82,3.82,0,0,0,.64,2.43,2.14,2.14,0,0,0,1.67.76,2,2,0,0,0,1.39-.51A2.51,2.51,0,0,0,684.6,109.15Z"/><path class="cls-7" d="M692.87,109.53l1.45.18a3.51,3.51,0,0,1-1.28,2,4.32,4.32,0,0,1-5.26-.42,4.4,4.4,0,0,1-1.06-3.14,4.62,4.62,0,0,1,1.07-3.25,3.65,3.65,0,0,1,2.8-1.16,3.54,3.54,0,0,1,2.72,1.13,4.52,4.52,0,0,1,1.06,3.19v.38h-6.19a3.21,3.21,0,0,0,.77,2.09,2.33,2.33,0,0,0,1.74.73,2.22,2.22,0,0,0,1.32-.41A2.77,2.77,0,0,0,692.87,109.53Zm-4.62-2.27h4.63a2.77,2.77,0,0,0-.53-1.57,2.15,2.15,0,0,0-1.74-.81,2.17,2.17,0,0,0-1.63.65,2.54,2.54,0,0,0-.73,1.71Z"/><g id="Path_2060-3" data-name="Path 2060-3"><line class="cls-8" x1="401.5" y1="219.64" x2="695.5" y2="219.64"/><circle class="cls-9" cx="401.63" cy="219.64" r="2.63"/></g><text class="cls-5" transform="translate(626.11 209.99)">Scientists</text><g class="cls-10"><text class="cls-5" transform="translate(0.51 144.99)">NGO</text><text class="cls-11" transform="translate(36.96 144.99)">’</text><text class="cls-5" transform="translate(40.22 144.99)">s</text></g><g id="Path_2059-2" data-name="Path 2059-2"><line class="cls-12" x1="317.5" y1="106.03" x2="1" y2="106.03"/><circle class="cls-13" cx="317.37" cy="106.03" r="2.63"/></g><text class="cls-5" transform="translate(1.01 96.39)">Neighbours</text><text class="cls-14" transform="translate(61 13.73)">The bigger the central blue circle, the greater the distrust in scientists.<tspan x="-43.11" y="19.2">The further away the circles from the cente</tspan><tspan class="cls-15" x="283.21" y="19.2">r</tspan><tspan x="288.56" y="19.2">, the greater the distrust in that group.</tspan></text><text class="cls-5" transform="translate(0 264.99)">Doctors/Nurses</text><line class="cls-16" x1="300.5" y1="275.03" x2="1" y2="275.03"/><circle class="cls-17" cx="300.37" cy="275.03" r="2.63"/><text class="cls-5" transform="translate(618.55 288.99)">Journalists</text><line class="cls-18" x1="457" y1="299.03" x2="694.97" y2="299.03"/><circle class="cls-19" cx="457.13" cy="299.03" r="2.63"/><circle class="cls-20" cx="357.53" cy="196.88" r="30.88"/><circle class="cls-20" cx="357.53" cy="107.07" r="30.88"/><line class="cls-21" x1="357.53" y1="196.88" x2="357.53" y2="107.07"/><circle class="cls-13" cx="357.53" cy="107.07" r="20.29"/><circle class="cls-20" cx="457.38" cy="164.44" r="30.88"/><line class="cls-21" x1="357.53" y1="196.88" x2="457.38" y2="164.44"/><circle class="cls-4" cx="457.38" cy="164.44" r="22.48"/><circle class="cls-20" cx="414.03" cy="274.64" r="30.88"/><line class="cls-21" x1="357.53" y1="196.88" x2="414.03" y2="274.64"/><circle class="cls-19" cx="414.06" cy="274.7" r="21.23"/><circle class="cls-20" cx="324.8" cy="241.94" r="30.88"/><line class="cls-21" x1="357.53" y1="196.88" x2="324.8" y2="241.94"/><circle class="cls-17" cx="324.8" cy="241.94" r="14.17"/><circle class="cls-20" cx="271.41" cy="168.9" r="30.88"/><line class="cls-21" x1="357.53" y1="196.88" x2="271.41" y2="168.9"/><circle class="cls-2" cx="271.41" cy="168.9" r="20.4"/><circle class="cls-9" cx="357.53" cy="196.88" r="18.39"/><path class="cls-7" d="M1.17,190V178.53H2.69v10.1H8.33V190Z"/><path class="cls-7" d="M15.63,187.31l1.46.18a3.61,3.61,0,0,1-1.28,2,4.32,4.32,0,0,1-5.26-.42,4.37,4.37,0,0,1-1.07-3.14,4.58,4.58,0,0,1,1.08-3.25,3.65,3.65,0,0,1,2.8-1.16,3.54,3.54,0,0,1,2.72,1.13,4.51,4.51,0,0,1,1,3.19v.38H10.9a3.21,3.21,0,0,0,.77,2.09,2.29,2.29,0,0,0,1.74.73,2.22,2.22,0,0,0,1.32-.41A2.68,2.68,0,0,0,15.63,187.31ZM11,185h4.63a2.77,2.77,0,0,0-.53-1.57,2.15,2.15,0,0,0-1.74-.81,2.17,2.17,0,0,0-1.63.65A2.56,2.56,0,0,0,11,185Z"/><path class="cls-7" d="M18.85,190v-8.3h1.27v1.18a3,3,0,0,1,2.64-1.37,3.3,3.3,0,0,1,1.38.27,2.13,2.13,0,0,1,.94.71,2.81,2.81,0,0,1,.44,1,8.79,8.79,0,0,1,.07,1.36V190h-1.4v-5a3.76,3.76,0,0,0-.17-1.29,1.34,1.34,0,0,0-.58-.68,1.93,1.93,0,0,0-1-.25,2.27,2.27,0,0,0-1.55.57,2.82,2.82,0,0,0-.65,2.16V190Z"/><path class="cls-7" d="M27.49,190.67l1.37.21a1.33,1.33,0,0,0,.48.92,2.33,2.33,0,0,0,1.43.39,2.49,2.49,0,0,0,1.5-.39,1.91,1.91,0,0,0,.72-1.1,8.37,8.37,0,0,0,.1-1.8A2.92,2.92,0,0,1,30.8,190a3.15,3.15,0,0,1-2.65-1.24,4.68,4.68,0,0,1-.94-3,5.48,5.48,0,0,1,.43-2.19A3.39,3.39,0,0,1,28.89,182a3.23,3.23,0,0,1,1.91-.55,3,3,0,0,1,2.43,1.19v-1h1.29v7.17a7,7,0,0,1-.39,2.75,2.89,2.89,0,0,1-1.25,1.27,4.29,4.29,0,0,1-2.11.47,4,4,0,0,1-2.39-.66A2.28,2.28,0,0,1,27.49,190.67Zm1.17-5a3.62,3.62,0,0,0,.64,2.38,2.14,2.14,0,0,0,3,.23l.23-.23a3.51,3.51,0,0,0,.66-2.34,3.45,3.45,0,0,0-.67-2.3,2.1,2.1,0,0,0-1.63-.77,2,2,0,0,0-1.6.76,3.46,3.46,0,0,0-.65,2.29Z"/><path class="cls-7" d="M39.72,188.73l.2,1.24a5.39,5.39,0,0,1-1.06.13,2.45,2.45,0,0,1-1.19-.25,1.34,1.34,0,0,1-.59-.63,4.89,4.89,0,0,1-.17-1.66v-4.78h-1v-1.09h1v-2.06l1.39-.84v2.9h1.42v1.09H38.3v4.85a2.31,2.31,0,0,0,.08.78.62.62,0,0,0,.24.27.89.89,0,0,0,.48.1C39.31,188.77,39.51,188.76,39.72,188.73Z"/><path class="cls-7" d="M41.09,190V178.53H42.5v4.11a3.15,3.15,0,0,1,2.5-1.11,3.33,3.33,0,0,1,1.61.36,2.15,2.15,0,0,1,1,1,4.69,4.69,0,0,1,.29,1.86V190H46.5v-5.26a2.2,2.2,0,0,0-.46-1.54,1.67,1.67,0,0,0-1.29-.48,2.24,2.24,0,0,0-1.18.33,1.88,1.88,0,0,0-.79.88,4.18,4.18,0,0,0-.23,1.53V190Z"/><path class="cls-7" d="M53.91,185.84a4.28,4.28,0,0,1,1.29-3.42,3.81,3.81,0,0,1,2.6-.92,3.72,3.72,0,0,1,2.8,1.12,4.24,4.24,0,0,1,1.09,3.1,5.48,5.48,0,0,1-.48,2.52,3.44,3.44,0,0,1-1.4,1.43,4.21,4.21,0,0,1-2,.5A3.74,3.74,0,0,1,55,189.06,4.47,4.47,0,0,1,53.91,185.84Zm1.45,0a3.52,3.52,0,0,0,.69,2.38,2.32,2.32,0,0,0,3.26.24,2.72,2.72,0,0,0,.24-.24,3.65,3.65,0,0,0,.69-2.43,3.41,3.41,0,0,0-.7-2.33,2.17,2.17,0,0,0-1.74-.79,2.26,2.26,0,0,0-1.75.78A3.58,3.58,0,0,0,55.36,185.84Z"/><path class="cls-7" d="M63.67,190v-7.21H62.43v-1.09h1.24v-.88a3.76,3.76,0,0,1,.15-1.25,1.74,1.74,0,0,1,.72-.88,2.55,2.55,0,0,1,1.43-.34,6.41,6.41,0,0,1,1.31.14l-.21,1.22a4.57,4.57,0,0,0-.83-.07,1.22,1.22,0,0,0-.9.27,1.43,1.43,0,0,0-.27,1v.77h1.62v1.09H65.07V190Z"/><path class="cls-7" d="M72.2,190V178.53h1.4V190Z"/><path class="cls-7" d="M75.79,180.15v-1.62H77.2v1.62Zm0,9.84v-8.3H77.2V190Z"/><path class="cls-7" d="M79.34,190v-8.3H80.6v1.18a3,3,0,0,1,2.64-1.37,3.3,3.3,0,0,1,1.38.27,2.13,2.13,0,0,1,.94.71,2.81,2.81,0,0,1,.44,1,8.79,8.79,0,0,1,.08,1.36V190H84.67v-5a3.75,3.75,0,0,0-.16-1.29,1.38,1.38,0,0,0-.58-.68,2,2,0,0,0-1-.25,2.3,2.3,0,0,0-1.56.57,2.82,2.82,0,0,0-.65,2.16V190Z"/><path class="cls-7" d="M93.91,187.31l1.46.18a3.61,3.61,0,0,1-1.28,2,4.32,4.32,0,0,1-5.26-.42,4.4,4.4,0,0,1-1.06-3.14,4.57,4.57,0,0,1,1.07-3.25,3.65,3.65,0,0,1,2.8-1.16,3.54,3.54,0,0,1,2.72,1.13,4.51,4.51,0,0,1,1,3.19v.38H89.17a3.21,3.21,0,0,0,.77,2.09,2.33,2.33,0,0,0,1.74.73,2.22,2.22,0,0,0,1.32-.41A2.7,2.7,0,0,0,93.91,187.31ZM89.3,185h4.63a2.77,2.77,0,0,0-.53-1.57,2.15,2.15,0,0,0-1.74-.81,2.17,2.17,0,0,0-1.63.65A2.5,2.5,0,0,0,89.3,185Z"/><path class="cls-7" d="M101.56,190v-8.3h1.27V183a3.41,3.41,0,0,1,.89-1.17,1.62,1.62,0,0,1,.9-.28,2.75,2.75,0,0,1,1.45.45l-.48,1.31a2,2,0,0,0-1-.31,1.35,1.35,0,0,0-.82.28,1.49,1.49,0,0,0-.53.77,5.65,5.65,0,0,0-.23,1.64V190Z"/><path class="cls-7" d="M112.59,187.31l1.45.18a3.54,3.54,0,0,1-1.27,2,3.87,3.87,0,0,1-2.38.7,3.8,3.8,0,0,1-2.89-1.12,4.4,4.4,0,0,1-1.06-3.14,4.58,4.58,0,0,1,1.08-3.25,3.64,3.64,0,0,1,2.79-1.16,3.54,3.54,0,0,1,2.72,1.13,4.52,4.52,0,0,1,1.06,3.19v.38H107.9a3.21,3.21,0,0,0,.77,2.09,2.33,2.33,0,0,0,1.74.73,2.22,2.22,0,0,0,1.32-.41A2.77,2.77,0,0,0,112.59,187.31ZM108,185h4.63a2.77,2.77,0,0,0-.53-1.57,2.15,2.15,0,0,0-1.74-.81,2.17,2.17,0,0,0-1.63.65A2.58,2.58,0,0,0,108,185Z"/><path class="cls-7" d="M115.81,180.15v-1.62h1.41v1.62Zm0,9.84v-8.3h1.41V190Z"/><path class="cls-7" d="M119.36,190v-8.3h1.26v1.18a3,3,0,0,1,2.65-1.37,3.22,3.22,0,0,1,1.37.27,2.22,2.22,0,0,1,1,.71,2.79,2.79,0,0,1,.43,1,6.86,6.86,0,0,1,.08,1.36V190h-1.4v-5a3.76,3.76,0,0,0-.17-1.29A1.34,1.34,0,0,0,124,183a2,2,0,0,0-1-.25,2.27,2.27,0,0,0-1.55.57,2.77,2.77,0,0,0-.65,2.16V190Z"/><path class="cls-7" d="M128.59,190v-7.21h-1.24v-1.09h1.24v-.88a3.76,3.76,0,0,1,.15-1.25,1.83,1.83,0,0,1,.72-.88,2.55,2.55,0,0,1,1.43-.34,6.41,6.41,0,0,1,1.31.14L132,179.7a4.57,4.57,0,0,0-.83-.07,1.22,1.22,0,0,0-.9.27,1.43,1.43,0,0,0-.27,1v.77h1.62v1.09H130V190Z"/><path class="cls-7" d="M132.18,185.84a4.31,4.31,0,0,1,1.28-3.42,3.85,3.85,0,0,1,2.61-.92,3.77,3.77,0,0,1,2.8,1.12,4.25,4.25,0,0,1,1.08,3.1,5.48,5.48,0,0,1-.48,2.52,3.44,3.44,0,0,1-1.4,1.43,4.21,4.21,0,0,1-2,.5,3.77,3.77,0,0,1-2.82-1.11A4.5,4.5,0,0,1,132.18,185.84Zm1.44,0a3.56,3.56,0,0,0,.7,2.38,2.3,2.3,0,0,0,3.24.24,1.88,1.88,0,0,0,.25-.24,3.59,3.59,0,0,0,.7-2.43,3.41,3.41,0,0,0-.7-2.33,2.32,2.32,0,0,0-3.29-.2,1.89,1.89,0,0,0-.2.2A3.56,3.56,0,0,0,133.62,185.84Z"/><path class="cls-7" d="M141.59,190v-8.3h1.26V183a3.43,3.43,0,0,1,.9-1.17,1.62,1.62,0,0,1,.9-.28,2.75,2.75,0,0,1,1.44.45l-.48,1.31a2,2,0,0,0-1-.31,1.38,1.38,0,0,0-.83.28,1.42,1.42,0,0,0-.52.77,5.34,5.34,0,0,0-.24,1.64V190Z"/><path class="cls-7" d="M152.34,187l1.39.18a3.53,3.53,0,0,1-1.16,2.23,3.44,3.44,0,0,1-2.3.81,3.56,3.56,0,0,1-2.73-1.11,4.51,4.51,0,0,1-1-3.19,5.68,5.68,0,0,1,.46-2.34,3,3,0,0,1,1.35-1.51,4,4,0,0,1,2-.51,3.39,3.39,0,0,1,2.21.69,3,3,0,0,1,1.1,1.94l-1.36.21a2.25,2.25,0,0,0-.69-1.26,1.81,1.81,0,0,0-1.2-.42,2.17,2.17,0,0,0-1.73.76,3.63,3.63,0,0,0-.66,2.41,3.74,3.74,0,0,0,.64,2.43,2.08,2.08,0,0,0,1.67.76,2,2,0,0,0,1.38-.51A2.46,2.46,0,0,0,152.34,187Z"/><path class="cls-7" d="M160.61,187.31l1.45.18a3.54,3.54,0,0,1-1.27,2,4.32,4.32,0,0,1-5.26-.42,4.37,4.37,0,0,1-1.07-3.14,4.58,4.58,0,0,1,1.08-3.25,3.65,3.65,0,0,1,2.8-1.16,3.53,3.53,0,0,1,2.71,1.13,4.51,4.51,0,0,1,1.06,3.19v.38h-6.19a3.2,3.2,0,0,0,.78,2.09,2.27,2.27,0,0,0,1.73.73,2.15,2.15,0,0,0,1.32-.41A2.55,2.55,0,0,0,160.61,187.31ZM156,185h4.63a2.67,2.67,0,0,0-.53-1.57,2.13,2.13,0,0,0-1.74-.81,2.21,2.21,0,0,0-1.63.65A2.53,2.53,0,0,0,156,185Z"/><path class="cls-7" d="M163.27,187.53l1.39-.22a1.88,1.88,0,0,0,.65,1.28,2.29,2.29,0,0,0,1.49.45,2.18,2.18,0,0,0,1.44-.4,1.2,1.2,0,0,0,.47-.92.85.85,0,0,0-.41-.75,6.1,6.1,0,0,0-1.44-.48,12.22,12.22,0,0,1-2.15-.68,2,2,0,0,1-1.21-1.9,2.18,2.18,0,0,1,.25-1,2.28,2.28,0,0,1,.7-.78,2.67,2.67,0,0,1,.89-.41,4.11,4.11,0,0,1,1.21-.17,4.78,4.78,0,0,1,1.72.28,2.33,2.33,0,0,1,1.09.76,3,3,0,0,1,.48,1.29l-1.37.19a1.47,1.47,0,0,0-.54-1,2,2,0,0,0-1.27-.36,2.26,2.26,0,0,0-1.39.32.94.94,0,0,0-.41.75.79.79,0,0,0,.17.49,1.36,1.36,0,0,0,.54.38c.14,0,.55.17,1.24.35a15.23,15.23,0,0,1,2.08.66,1.93,1.93,0,0,1,.93.74,2.1,2.1,0,0,1,.34,1.2,2.31,2.31,0,0,1-.41,1.32,2.7,2.7,0,0,1-1.19,1,4.37,4.37,0,0,1-1.75.34,3.91,3.91,0,0,1-2.46-.67A3.08,3.08,0,0,1,163.27,187.53Z"/><path class="cls-7" d="M176.24,190V178.53h1.41V190Z"/><path class="cls-7" d="M185.51,187.31l1.45.18a3.54,3.54,0,0,1-1.27,2,4.32,4.32,0,0,1-5.26-.42,4.29,4.29,0,0,1-1.07-3.14,4.58,4.58,0,0,1,1.08-3.25,3.64,3.64,0,0,1,2.79-1.16,3.54,3.54,0,0,1,2.72,1.13,4.51,4.51,0,0,1,1.06,3.19v.38h-6.19a3.1,3.1,0,0,0,.78,2.09,2.25,2.25,0,0,0,1.73.73,2.15,2.15,0,0,0,1.32-.41A2.77,2.77,0,0,0,185.51,187.31ZM180.89,185h4.63a2.77,2.77,0,0,0-.53-1.57,2.15,2.15,0,0,0-1.74-.81,2.17,2.17,0,0,0-1.63.65A2.59,2.59,0,0,0,180.89,185Z"/><path class="cls-7" d="M191,190l-3.15-8.3h1.48l1.78,5c.19.53.37,1.09.53,1.67.13-.44.3-1,.53-1.58l1.84-5.06h1.44l-3.14,8.3Z"/><path class="cls-7" d="M202.41,187.31l1.45.18a3.54,3.54,0,0,1-1.27,2,4.34,4.34,0,0,1-5.27-.42,4.4,4.4,0,0,1-1.06-3.14,4.58,4.58,0,0,1,1.08-3.25,3.64,3.64,0,0,1,2.79-1.16,3.54,3.54,0,0,1,2.72,1.13,4.52,4.52,0,0,1,1.06,3.19v.38h-6.19a3.21,3.21,0,0,0,.77,2.09,2.33,2.33,0,0,0,1.74.73,2.22,2.22,0,0,0,1.32-.41A2.77,2.77,0,0,0,202.41,187.31ZM197.79,185h4.63a2.77,2.77,0,0,0-.53-1.57,2.15,2.15,0,0,0-1.74-.81,2.17,2.17,0,0,0-1.63.65A2.59,2.59,0,0,0,197.79,185Z"/><path class="cls-7" d="M205.59,190V178.53H207V190Z"/><path class="cls-7" d="M.53,205a4.31,4.31,0,0,1,1.28-3.42,3.9,3.9,0,0,1,2.61-.92,3.72,3.72,0,0,1,2.8,1.12,4.25,4.25,0,0,1,1.08,3.1,5.48,5.48,0,0,1-.48,2.52,3.42,3.42,0,0,1-1.39,1.43,4.21,4.21,0,0,1-2,.5,3.74,3.74,0,0,1-2.81-1.11A4.47,4.47,0,0,1,.53,205ZM2,205a3.52,3.52,0,0,0,.69,2.38,2.26,2.26,0,0,0,1.75.8,2.21,2.21,0,0,0,1.74-.8,3.59,3.59,0,0,0,.7-2.43,3.41,3.41,0,0,0-.7-2.33,2.23,2.23,0,0,0-1.74-.79,2.26,2.26,0,0,0-1.75.78A3.58,3.58,0,0,0,2,205Z"/><path class="cls-7" d="M10.29,209.19V202H9.05v-1.09h1.24V200a3.76,3.76,0,0,1,.15-1.25,1.67,1.67,0,0,1,.71-.88,2.6,2.6,0,0,1,1.44-.34,6.41,6.41,0,0,1,1.31.14l-.21,1.23a3.83,3.83,0,0,0-.83-.08,1.25,1.25,0,0,0-.91.27,1.53,1.53,0,0,0-.26,1v.77H13.3V202H11.69v7.21Z"/><path class="cls-7" d="M24.23,209.19v-1.05a2.59,2.59,0,0,1-2.32,1.23,3.38,3.38,0,0,1-1.83-.54,3.69,3.69,0,0,1-1.29-1.53,5.45,5.45,0,0,1-.45-2.25,6,6,0,0,1,.41-2.26,3.25,3.25,0,0,1,3.09-2.09,2.71,2.71,0,0,1,1.34.32,2.74,2.74,0,0,1,1,.82v-4.11h1.4v11.46Zm-4.45-4.14a3.61,3.61,0,0,0,.67,2.38,2.06,2.06,0,0,0,1.59.79,2,2,0,0,0,1.57-.76,3.44,3.44,0,0,0,.64-2.3,3.88,3.88,0,0,0-.66-2.5,2,2,0,0,0-3.18,0,3.76,3.76,0,0,0-.63,2.42Z"/><path class="cls-7" d="M27.75,199.35v-1.62h1.41v1.62Zm0,9.84v-8.3h1.41v8.3Z"/><path class="cls-7" d="M30.73,206.71l1.39-.22a2,2,0,0,0,.66,1.28,2.29,2.29,0,0,0,1.49.45,2.18,2.18,0,0,0,1.44-.4,1.2,1.2,0,0,0,.47-.92.85.85,0,0,0-.41-.75,6.1,6.1,0,0,0-1.44-.48,13.75,13.75,0,0,1-2.15-.68,2.14,2.14,0,0,1-1.05-2.83l.05-.09a2.2,2.2,0,0,1,.69-.79,2.72,2.72,0,0,1,.9-.41A4.11,4.11,0,0,1,34,200.7a4.78,4.78,0,0,1,1.72.28,2.33,2.33,0,0,1,1.09.76,3.16,3.16,0,0,1,.48,1.29l-1.37.19a1.46,1.46,0,0,0-.55-1,2,2,0,0,0-1.27-.36,2.23,2.23,0,0,0-1.38.32.94.94,0,0,0-.41.75.79.79,0,0,0,.17.49,1.3,1.3,0,0,0,.54.38c.14,0,.55.17,1.24.35a15.23,15.23,0,0,1,2.08.66,1.93,1.93,0,0,1,.93.74,2,2,0,0,1,.33,1.2,2.31,2.31,0,0,1-.41,1.32,2.5,2.5,0,0,1-1.18,1,4.37,4.37,0,0,1-1.75.34,3.91,3.91,0,0,1-2.46-.67A3.15,3.15,0,0,1,30.73,206.71Z"/><path class="cls-7" d="M42.37,207.93l.2,1.24a5.39,5.39,0,0,1-1.06.13,2.45,2.45,0,0,1-1.19-.25,1.34,1.34,0,0,1-.59-.63,4.66,4.66,0,0,1-.18-1.66V202h-1v-1.09h1v-2.06L41,198v2.9h1.42V202H41v4.85a2.31,2.31,0,0,0,.08.78.62.62,0,0,0,.24.27.89.89,0,0,0,.48.1Z"/><path class="cls-7" d="M43.73,209.19v-8.3H45v1.26a3.43,3.43,0,0,1,.9-1.17,1.62,1.62,0,0,1,.9-.28,2.75,2.75,0,0,1,1.44.45l-.48,1.31a2,2,0,0,0-1-.31,1.38,1.38,0,0,0-.83.28,1.48,1.48,0,0,0-.52.77,5.34,5.34,0,0,0-.24,1.64v4.35Z"/><path class="cls-7" d="M54.51,209.19V208a3,3,0,0,1-2.63,1.4,3.48,3.48,0,0,1-1.38-.28,2.26,2.26,0,0,1-.94-.7,2.81,2.81,0,0,1-.44-1,8.23,8.23,0,0,1-.08-1.31v-5.14h1.41v4.6a8.23,8.23,0,0,0,.08,1.49,1.57,1.57,0,0,0,.56.87,1.84,1.84,0,0,0,1.07.31,2.35,2.35,0,0,0,1.18-.32,1.88,1.88,0,0,0,.79-.88,4.77,4.77,0,0,0,.23-1.63v-4.44h1.41v8.3Z"/><path class="cls-7" d="M57.41,206.71l1.39-.22a1.94,1.94,0,0,0,.65,1.28,2.3,2.3,0,0,0,1.5.45,2.14,2.14,0,0,0,1.43-.4,1.17,1.17,0,0,0,.47-.92.85.85,0,0,0-.41-.75,5.31,5.31,0,0,0-1.44-.48,12.38,12.38,0,0,1-2.14-.68,2.15,2.15,0,0,1-.91-.78,2,2,0,0,1-.31-1.12,2.19,2.19,0,0,1,1-1.81,2.67,2.67,0,0,1,.89-.41,4.23,4.23,0,0,1,1.22-.17,4.76,4.76,0,0,1,1.71.28,2.26,2.26,0,0,1,1.09.76A3,3,0,0,1,64,203l-1.37.19a1.47,1.47,0,0,0-.54-1,2,2,0,0,0-1.27-.36,2.26,2.26,0,0,0-1.39.32.94.94,0,0,0-.41.75.79.79,0,0,0,.17.49,1.36,1.36,0,0,0,.54.38c.14,0,.56.17,1.24.35a18.78,18.78,0,0,1,2.09.66,2,2,0,0,1,1.26,1.94,2.31,2.31,0,0,1-.41,1.32,2.7,2.7,0,0,1-1.19,1,4.37,4.37,0,0,1-1.75.34,3.91,3.91,0,0,1-2.46-.67A3.07,3.07,0,0,1,57.41,206.71Z"/><path class="cls-7" d="M69,207.93l.2,1.24a5.39,5.39,0,0,1-1.06.13,2.45,2.45,0,0,1-1.19-.25,1.34,1.34,0,0,1-.59-.63,4.89,4.89,0,0,1-.17-1.66V202h-1v-1.09h1v-2.06l1.39-.84v2.9H69V202H67.58v4.85a2.31,2.31,0,0,0,.08.78.62.62,0,0,0,.24.27.89.89,0,0,0,.48.1C68.59,208,68.79,208,69,207.93Z"/><path class="cls-7" d="M74.87,199.35v-1.62h1.4v1.62Zm0,9.84v-8.3h1.4v8.3Z"/><path class="cls-7" d="M78.41,209.19v-8.3h1.27v1.18a3,3,0,0,1,2.64-1.37,3.46,3.46,0,0,1,1.38.27,2.13,2.13,0,0,1,.94.71,2.81,2.81,0,0,1,.44,1,8.79,8.79,0,0,1,.08,1.36v5.11H83.75V204.1a3.75,3.75,0,0,0-.16-1.29,1.36,1.36,0,0,0-.59-.68,1.76,1.76,0,0,0-1-.25,2.27,2.27,0,0,0-1.55.57,2.82,2.82,0,0,0-.65,2.16v4.54Z"/><path class="cls-7" d="M91.2,206.71l1.39-.22a1.88,1.88,0,0,0,.65,1.28,2.29,2.29,0,0,0,1.49.45,2.18,2.18,0,0,0,1.44-.4,1.2,1.2,0,0,0,.47-.92.85.85,0,0,0-.41-.75,6.1,6.1,0,0,0-1.44-.48,13.75,13.75,0,0,1-2.15-.68,2.14,2.14,0,0,1-1-2.83l0-.09a2.22,2.22,0,0,1,.7-.79,2.67,2.67,0,0,1,.89-.41,4.11,4.11,0,0,1,1.21-.17,4.78,4.78,0,0,1,1.72.28,2.33,2.33,0,0,1,1.09.76,3.16,3.16,0,0,1,.48,1.29l-1.37.19a1.47,1.47,0,0,0-.54-1,2,2,0,0,0-1.27-.36,2.26,2.26,0,0,0-1.39.32.94.94,0,0,0-.41.75.79.79,0,0,0,.17.49,1.3,1.3,0,0,0,.54.38c.14,0,.55.17,1.24.35a15.23,15.23,0,0,1,2.08.66,1.93,1.93,0,0,1,.93.74,2.1,2.1,0,0,1,.34,1.2,2.31,2.31,0,0,1-.41,1.32,2.7,2.7,0,0,1-1.19,1,4.37,4.37,0,0,1-1.75.34,3.91,3.91,0,0,1-2.46-.67A3.09,3.09,0,0,1,91.2,206.71Z"/><path class="cls-7" d="M99.76,212.37V200.89H101V202a3,3,0,0,1,1-1,2.71,2.71,0,0,1,1.39-.32,3.25,3.25,0,0,1,1.87.55,3.39,3.39,0,0,1,1.23,1.54,5.64,5.64,0,0,1,.41,2.19,5.45,5.45,0,0,1-.46,2.29,3.4,3.4,0,0,1-1.32,1.56,3.53,3.53,0,0,1-1.84.54A2.87,2.87,0,0,1,102,209a3,3,0,0,1-.92-.75v4Zm1.27-7.29a3.58,3.58,0,0,0,.65,2.37,2,2,0,0,0,3.18,0,3.75,3.75,0,0,0,.66-2.45,3.59,3.59,0,0,0-.65-2.38,1.93,1.93,0,0,0-3.15,0,3.74,3.74,0,0,0-.72,2.44Z"/><path class="cls-7" d="M114.34,206.53l1.45.18a3.54,3.54,0,0,1-1.27,2,3.87,3.87,0,0,1-2.38.7,3.8,3.8,0,0,1-2.89-1.12,4.4,4.4,0,0,1-1.06-3.14,4.58,4.58,0,0,1,1.08-3.25,3.64,3.64,0,0,1,2.79-1.16,3.54,3.54,0,0,1,2.72,1.13,4.52,4.52,0,0,1,1.06,3.19v.38h-6.19a3.21,3.21,0,0,0,.77,2.09,2.33,2.33,0,0,0,1.74.73,2.22,2.22,0,0,0,1.32-.41A2.77,2.77,0,0,0,114.34,206.53Zm-4.62-2.27h4.63a2.77,2.77,0,0,0-.53-1.57,2.15,2.15,0,0,0-1.74-.81,2.17,2.17,0,0,0-1.63.65,2.56,2.56,0,0,0-.73,1.71Z"/><path class="cls-7" d="M123,206.15l1.38.18a3.6,3.6,0,0,1-1.16,2.24,3.41,3.41,0,0,1-2.29.8,3.58,3.58,0,0,1-2.74-1.11,4.51,4.51,0,0,1-1-3.19,5.72,5.72,0,0,1,.45-2.35,3.08,3.08,0,0,1,1.36-1.51,4,4,0,0,1,2-.51,3.44,3.44,0,0,1,2.21.69,3.16,3.16,0,0,1,1.1,1.94l-1.37.21a2.25,2.25,0,0,0-.69-1.26,1.81,1.81,0,0,0-1.2-.42,2.2,2.2,0,0,0-1.73.76,3.63,3.63,0,0,0-.66,2.41,3.74,3.74,0,0,0,.64,2.43,2.14,2.14,0,0,0,1.67.76,2,2,0,0,0,1.39-.51A2.5,2.5,0,0,0,123,206.15Z"/><path class="cls-7" d="M125.56,199.35v-1.62H127v1.62Zm0,9.84v-8.3H127v8.3Z"/><path class="cls-7" d="M129.45,209.19V202H128.2v-1.09h1.25V200a4.07,4.07,0,0,1,.14-1.25,1.83,1.83,0,0,1,.72-.88,2.55,2.55,0,0,1,1.43-.34,6.41,6.41,0,0,1,1.31.14l-.21,1.23a3.74,3.74,0,0,0-.82-.08,1.25,1.25,0,0,0-.91.27,1.43,1.43,0,0,0-.27,1v.77h1.62V202h-1.62v7.21Z"/><path class="cls-7" d="M133.56,199.35v-1.62H135v1.62Zm0,9.84v-8.3H135v8.3Z"/><path class="cls-7" d="M142.52,206.15l1.39.18a3.68,3.68,0,0,1-1.16,2.24,3.44,3.44,0,0,1-2.3.8,3.61,3.61,0,0,1-2.74-1.11,4.51,4.51,0,0,1-1-3.19,5.71,5.71,0,0,1,.44-2.35,3.08,3.08,0,0,1,1.36-1.51,4,4,0,0,1,2-.51,3.39,3.39,0,0,1,2.21.69,3,3,0,0,1,1.1,1.94l-1.36.21a2.21,2.21,0,0,0-.7-1.26,1.79,1.79,0,0,0-1.19-.42,2.2,2.2,0,0,0-1.73.76,3.63,3.63,0,0,0-.67,2.41,3.75,3.75,0,0,0,.65,2.43,2.08,2.08,0,0,0,1.67.76,2,2,0,0,0,1.38-.51A2.51,2.51,0,0,0,142.52,206.15Z"/><path class="cls-7" d="M149,206.71l1.39-.22a2,2,0,0,0,.66,1.28,2.29,2.29,0,0,0,1.49.45,2.18,2.18,0,0,0,1.44-.4,1.2,1.2,0,0,0,.47-.92.82.82,0,0,0-.42-.75,5.48,5.48,0,0,0-1.43-.48,13.43,13.43,0,0,1-2.15-.68,2,2,0,0,1-.9-.78,2.21,2.21,0,0,1,.63-2.93,2.72,2.72,0,0,1,.9-.41,4.11,4.11,0,0,1,1.21-.17A4.78,4.78,0,0,1,154,201a2.33,2.33,0,0,1,1.09.76,3.16,3.16,0,0,1,.48,1.29l-1.37.19a1.53,1.53,0,0,0-.55-1,2,2,0,0,0-1.27-.36,2.23,2.23,0,0,0-1.38.32.9.9,0,0,0-.41.75.79.79,0,0,0,.17.49,1.3,1.3,0,0,0,.54.38c.14,0,.55.17,1.24.35a16.75,16.75,0,0,1,2.08.66,2.11,2.11,0,0,1,.93.74,2,2,0,0,1,.33,1.2,2.31,2.31,0,0,1-.41,1.32,2.62,2.62,0,0,1-1.18,1,4.37,4.37,0,0,1-1.75.34,3.92,3.92,0,0,1-2.47-.67A3.16,3.16,0,0,1,149,206.71Z"/><path class="cls-7" d="M163.23,206.53l1.46.18a3.61,3.61,0,0,1-1.28,2,4.32,4.32,0,0,1-5.26-.42,4.4,4.4,0,0,1-1.06-3.14,4.62,4.62,0,0,1,1.07-3.25,3.65,3.65,0,0,1,2.8-1.16,3.54,3.54,0,0,1,2.72,1.13,4.52,4.52,0,0,1,1,3.19v.38h-6.19a3.21,3.21,0,0,0,.77,2.09,2.33,2.33,0,0,0,1.74.73,2.22,2.22,0,0,0,1.32-.41A2.77,2.77,0,0,0,163.23,206.53Zm-4.61-2.27h4.63a2.77,2.77,0,0,0-.53-1.57,2.15,2.15,0,0,0-1.74-.81,2.17,2.17,0,0,0-1.63.65,2.54,2.54,0,0,0-.73,1.71Z"/><path class="cls-7" d="M166.2,209.87l1.36.21a1.33,1.33,0,0,0,.48.92,2.33,2.33,0,0,0,1.43.39A2.59,2.59,0,0,0,171,211a2,2,0,0,0,.72-1.09,10,10,0,0,0,.1-1.81,2.94,2.94,0,0,1-2.3,1.09,3.19,3.19,0,0,1-2.65-1.24,4.82,4.82,0,0,1-.94-3,5.66,5.66,0,0,1,.43-2.19,3.46,3.46,0,0,1,1.25-1.55,3.28,3.28,0,0,1,1.92-.55,3,3,0,0,1,2.42,1.19v-1h1.3V208a6.79,6.79,0,0,1-.4,2.75,2.89,2.89,0,0,1-1.25,1.27,4.37,4.37,0,0,1-2.1.47,4,4,0,0,1-2.4-.66A2.27,2.27,0,0,1,166.2,209.87Zm1.16-5a3.61,3.61,0,0,0,.65,2.38,2,2,0,0,0,1.62.75,2.09,2.09,0,0,0,1.63-.74,3.5,3.5,0,0,0,.65-2.34,3.39,3.39,0,0,0-.67-2.3,2.07,2.07,0,0,0-1.63-.77,2,2,0,0,0-1.59.76,3.37,3.37,0,0,0-.66,2.28Z"/><path class="cls-7" d="M175.35,209.19v-8.3h1.26v1.16a3,3,0,0,1,1-1,2.92,2.92,0,0,1,1.47-.37,2.8,2.8,0,0,1,1.52.38,2.05,2.05,0,0,1,.83,1.07,3,3,0,0,1,2.56-1.45,2.49,2.49,0,0,1,1.9.69,2.9,2.9,0,0,1,.66,2.1v5.7H185.2v-5.23a3.85,3.85,0,0,0-.14-1.22,1.16,1.16,0,0,0-.5-.59,1.46,1.46,0,0,0-.84-.23,1.93,1.93,0,0,0-1.45.58,2.58,2.58,0,0,0-.58,1.87v4.82h-1.41v-5.39a2.32,2.32,0,0,0-.34-1.41,1.33,1.33,0,0,0-1.13-.47,2,2,0,0,0-1.1.31,1.84,1.84,0,0,0-.73.92,5.31,5.31,0,0,0-.22,1.73v4.31Z"/><path class="cls-7" d="M194.36,206.53l1.45.18a3.54,3.54,0,0,1-1.27,2,4.32,4.32,0,0,1-5.26-.42,4.41,4.41,0,0,1-1.07-3.14,4.58,4.58,0,0,1,1.08-3.25,3.65,3.65,0,0,1,2.8-1.16,3.53,3.53,0,0,1,2.71,1.13,4.51,4.51,0,0,1,1.06,3.19v.38h-6.19a3.2,3.2,0,0,0,.78,2.09,2.27,2.27,0,0,0,1.73.73,2.15,2.15,0,0,0,1.32-.41A2.55,2.55,0,0,0,194.36,206.53Zm-4.62-2.27h4.64a2.83,2.83,0,0,0-.54-1.57,2.13,2.13,0,0,0-1.74-.81,2.21,2.21,0,0,0-1.63.65,2.56,2.56,0,0,0-.73,1.71Z"/><path class="cls-7" d="M197.58,209.19v-8.3h1.26v1.18a3,3,0,0,1,2.64-1.37,3.46,3.46,0,0,1,1.38.27,2.13,2.13,0,0,1,.94.71,2.81,2.81,0,0,1,.44,1,8.79,8.79,0,0,1,.08,1.36v5.11h-1.41V204.1a3.75,3.75,0,0,0-.16-1.29,1.34,1.34,0,0,0-.58-.68,1.84,1.84,0,0,0-1-.25,2.27,2.27,0,0,0-1.55.57,2.82,2.82,0,0,0-.66,2.16v4.54Z"/><path class="cls-7" d="M209.55,207.93l.2,1.24a5.39,5.39,0,0,1-1.06.13,2.45,2.45,0,0,1-1.19-.25,1.34,1.34,0,0,1-.59-.63,4.66,4.66,0,0,1-.18-1.66V202h-1v-1.09h1v-2.06l1.4-.84v2.9h1.42V202h-1.42v4.85a2.31,2.31,0,0,0,.08.78.62.62,0,0,0,.24.27.89.89,0,0,0,.48.1C209.14,208,209.34,208,209.55,207.93Z"/><line class="cls-6" x1="324.5" y1="220.03" x2="1" y2="220.03"/></g></g></svg>