<svg id="Layer_1" data-name="Layer 1" xmlns="http://www.w3.org/2000/svg" viewBox="0 0 1050.69 37.16"><defs><style>.cls-1,.cls-6,.cls-8{fill:none;stroke:#3f1a13;}.cls-1{stroke-width:1.33px;}.cls-2{fill:#009ee2;}.cls-3{isolation:isolate;}.cls-3,.cls-7{font-size:13px;fill:#3f1a13;font-family:Arial-BoldMT, Arial;font-weight:700;}.cls-4{font-family:ArialMT, Arial;font-weight:400;}.cls-5{letter-spacing:-0.07em;}.cls-6{stroke-width:0.67px;}.cls-8{stroke-width:3.33px;}</style></defs><line class="cls-1" x1="7.81" y1="18.85" x2="7.81" y2="10.85"/><line class="cls-1" x1="7.81" y1="18.85" x2="15.42" y2="16.38"/><line class="cls-1" x1="7.81" y1="18.85" x2="12.52" y2="25.33"/><line class="cls-1" x1="7.81" y1="18.85" x2="3.11" y2="25.33"/><line class="cls-1" x1="7.81" y1="18.85" x2="0.21" y2="16.38"/><circle class="cls-2" cx="7.81" cy="18.85" r="3.58"/><text class="cls-3" transform="translate(30.34 14.56)">Low distrust in scientists<tspan class="cls-4"><tspan x="0" y="15.6">Low distrust in societ</tspan><tspan class="cls-5" x="120.66" y="15.6">y</tspan><tspan x="126.2" y="15.6">, </tspan></tspan></text><line class="cls-6" x1="287.79" y1="20" x2="287.79"/><line class="cls-6" x1="287.79" y1="20" x2="306.82" y2="13.82"/><line class="cls-6" x1="287.79" y1="20" x2="299.55" y2="36.18"/><line class="cls-6" x1="287.79" y1="20" x2="276.04" y2="36.18"/><line class="cls-6" x1="287.79" y1="20" x2="268.77" y2="13.82"/><circle class="cls-2" cx="287.79" cy="20" r="2.53"/><text class="cls-7" transform="translate(317.64 14.56)">Low distrust in scientists, <tspan class="cls-4"><tspan x="0" y="15.6">High distrust in society</tspan></tspan></text><line class="cls-8" x1="570.9" y1="18.85" x2="570.9" y2="10.85"/><line class="cls-8" x1="570.9" y1="18.85" x2="578.51" y2="16.38"/><line class="cls-8" x1="570.9" y1="18.85" x2="575.6" y2="25.33"/><line class="cls-8" x1="570.9" y1="18.85" x2="566.2" y2="25.33"/><line class="cls-8" x1="570.9" y1="18.85" x2="563.29" y2="16.38"/><circle class="cls-2" cx="570.9" cy="18.85" r="5.66"/><text class="cls-7" transform="translate(592.86 14.56)">High distrust in scientists,<tspan class="cls-4"><tspan x="0" y="15.6">Low distrust in society</tspan></tspan></text><line class="cls-8" x1="856.81" y1="20" x2="856.81"/><line class="cls-8" x1="856.81" y1="20" x2="875.84" y2="13.82"/><line class="cls-8" x1="856.81" y1="20" x2="868.57" y2="36.18"/><line class="cls-8" x1="856.81" y1="20" x2="845.06" y2="36.18"/><line class="cls-8" x1="856.81" y1="20" x2="837.79" y2="13.82"/><circle class="cls-2" cx="856.81" cy="20" r="5.66"/><text class="cls-7" transform="translate(884.55 14.56)">High distrust in scientists, <tspan class="cls-4"><tspan x="0" y="15.6">High distrust in society</tspan></tspan></text></svg>