<svg xmlns="http://www.w3.org/2000/svg" viewBox="0 0 116.22 107.76"><defs><style>.cls-1{font-size:6px;fill:#3f1a13;font-family:HelveticaNeue, Helvetica Neue;}.cls-2{fill:#755a53;}.cls-3{fill:#4db0cf;}.cls-4{fill:#f7b033;}.cls-5{fill:none;stroke:#3f1a13;stroke-width:1.06px;}</style></defs><g id="Layer_2" data-name="Layer 2"><g id="Isolation_Mode" data-name="Isolation Mode"><text class="cls-1" transform="translate(44.09 68.11)">The deeper the lean to the <tspan x="0" y="7.2">left, the more people </tspan><tspan x="0" y="14.4">believe that science </tspan><tspan x="0" y="21.6">benefits most people in </tspan><tspan x="0" y="28.8">their country.</tspan></text><rect class="cls-2" x="43.44" y="12.73" width="9.8" height="40.07" rx="4.9"/><path class="cls-3" d="M10.23,18.17A12.69,12.69,0,0,1,24.75,28.74a12.69,12.69,0,0,1-10,14.89A12.68,12.68,0,0,1,.21,33.06a12.69,12.69,0,0,1,10-14.89"/><path class="cls-4" d="M90.4.05a3.35,3.35,0,1,1-2.71,3.88A3.35,3.35,0,0,1,90.4.05"/><line class="cls-5" x1="12.8" y1="31.33" x2="90.87" y2="3.29"/></g></g></svg>