<svg xmlns="http://www.w3.org/2000/svg" xmlns:xlink="http://www.w3.org/1999/xlink" viewBox="0 0 96.72 107.16"><defs><style>.cls-1,.cls-6{fill:none;}.cls-2{clip-path:url(#clip-path);}.cls-3{fill:#1a3d78;}.cls-4{fill:#338ceb;}.cls-5{fill:#85baf2;}.cls-6{stroke:#3f1a13;stroke-miterlimit:10;stroke-width:1.06px;}.cls-7{font-size:6px;font-family:HelveticaNeue, Helvetica Neue;}.cls-7,.cls-8{fill:#3f1a13;}</style><clipPath id="clip-path" transform="translate(0)"><rect class="cls-1" y="4.15" width="78.23" height="49.58"/></clipPath></defs><g id="Layer_2" data-name="Layer 2"><g id="Isolation_Mode" data-name="Isolation Mode"><g class="cls-2"><path class="cls-3" d="M11.08,8.84A11.17,11.17,0,1,1,0,20,11.12,11.12,0,0,1,11.08,8.84" transform="translate(0)"/><path class="cls-4" d="M33.83,34.32A9.71,9.71,0,1,1,24.19,44a9.67,9.67,0,0,1,9.64-9.7" transform="translate(0)"/><path class="cls-5" d="M67.91,20.3A10.39,10.39,0,1,1,57.6,30.69,10.36,10.36,0,0,1,67.91,20.3" transform="translate(0)"/><polyline class="cls-6" points="26.53 11.86 41.13 30.16 71.44 4.36"/></g><text class="cls-7" transform="translate(24.93 67.52)">The deeper the dip, the <tspan x="0" y="7.2">more people believe that </tspan><tspan x="0" y="14.4">science will decrease jobs </tspan><tspan x="0" y="21.6">in the next five years.</tspan></text><polygon class="cls-8" points="76.55 0 68.29 1.42 73.65 7.86 76.55 0"/></g></g></svg>