<svg xmlns="http://www.w3.org/2000/svg" viewBox="0 0 113.15 252.45"><defs><style>.cls-1{font-size:7.5px;}.cls-1,.cls-16,.cls-19{fill:#3f1a13;}.cls-1,.cls-20,.cls-22{font-family:HelveticaNeue, Helvetica Neue;}.cls-2{fill:#755a53;}.cls-3{fill:#4db0cf;}.cls-4{fill:#f7b033;}.cls-26,.cls-5{fill:none;}.cls-5{stroke:#3f1a13;stroke-width:1.06px;}.cls-18,.cls-19,.cls-20,.cls-6{font-size:6px;}.cls-6{fill:#dcd9d2;stroke:#fffcf9;stroke-miterlimit:10;stroke-width:0.32px;font-family:MyriadPro-Regular, Myriad Pro;}.cls-7{fill:#b9b2a4;}.cls-8{fill:#54332c;}.cls-9{fill:#684c46;}.cls-10{fill:#7d645f;}.cls-11{fill:#907c78;}.cls-12{fill:#a69490;}.cls-13{fill:#b9ada9;}.cls-14{fill:#cec6c3;}.cls-15{fill:#e1dedc;}.cls-17{fill:#f8f7f6;}.cls-18{fill:#ab9a97;}.cls-18,.cls-19{font-family:ArialMT, Arial;}.cls-20{fill:#3e1a13;}.cls-21{font-family:HelveticaNeue-Bold, Helvetica Neue;font-weight:700;}.cls-22{font-weight:400;}.cls-23{fill:#209dd9;}.cls-24{fill:#4dafcf;}.cls-25{fill:#f5af31;}.cls-26{stroke:#401a12;stroke-linecap:round;stroke-width:1.06px;}</style></defs><g id="Layer_2" data-name="Layer 2"><g id="Isolation_Mode" data-name="Isolation Mode"><text class="cls-1" transform="translate(1.37 73.46)">The greater the lean to the left, <tspan x="0" y="9.5">the more the number of people </tspan><tspan x="0" y="19">who believe that science </tspan><tspan x="0" y="28.5">benefits most people in their </tspan><tspan x="0" y="38">country compared to those </tspan><tspan x="0" y="47.5">who think few.</tspan></text><rect class="cls-2" x="43.97" y="12.73" width="9.8" height="40.07" rx="4.9"/><path class="cls-3" d="M10.75,18.17A12.69,12.69,0,0,1,25.27,28.74a12.69,12.69,0,0,1-10,14.89A12.69,12.69,0,0,1,.73,33.06a12.69,12.69,0,0,1,10-14.89"/><path class="cls-4" d="M90.92.05a3.35,3.35,0,1,1-2.71,3.88A3.35,3.35,0,0,1,90.92.05"/><line class="cls-5" x1="13.32" y1="31.33" x2="91.4" y2="3.29"/><text class="cls-6" transform="translate(7.82 210.18)">90-100%</text><rect class="cls-7" x="22.62" y="200.1" width="0.02" height="9.97"/><rect class="cls-7" x="18.67" y="200.1" width="0.02" height="9.97"/><path class="cls-7" d="M14.71,200.22V210h0v-9.75Z"/><path class="cls-7" d="M46.39,200.21h0V210h0Z"/><rect class="cls-7" x="42.41" y="200.1" width="0.02" height="9.97"/><rect class="cls-7" x="38.45" y="200.1" width="0.02" height="9.97"/><rect class="cls-7" x="34.5" y="200.1" width="0.02" height="9.97"/><rect class="cls-7" x="30.54" y="200.1" width="0.02" height="9.97"/><path class="cls-7" d="M7.27,210.81l-.47,0h.94Z"/><rect class="cls-7" x="26.58" y="200.1" width="0.02" height="9.97"/><path class="cls-8" d="M45.36,200.1H42.43v10h2.93a5.67,5.67,0,0,0,1-.1v-9.76A4.88,4.88,0,0,0,45.36,200.1Z"/><rect class="cls-9" x="38.48" y="200.1" width="3.93" height="9.97"/><rect class="cls-10" x="34.52" y="200.1" width="3.93" height="9.97"/><rect class="cls-11" x="30.56" y="200.1" width="3.93" height="9.97"/><rect class="cls-12" x="23.59" y="203.12" width="9.97" height="3.93" transform="translate(-176.65 232.69) rotate(-89.73)"/><rect class="cls-13" x="22.65" y="200.1" width="3.93" height="9.97"/><rect class="cls-14" x="18.69" y="200.1" width="3.93" height="9.97"/><path class="cls-15" d="M15.76,200.1a5.07,5.07,0,0,0-1,.11V210a5.07,5.07,0,0,0,1,.11h2.91v-10Z"/><path class="cls-16" d="M50.32,205.47v-.77a4.88,4.88,0,0,0-1.23-2.9,5.08,5.08,0,0,0-1.21-1,5.19,5.19,0,0,0-1.49-.58V210a4.92,4.92,0,0,0,1.49-.58,5.29,5.29,0,0,0,1.21-1A4.91,4.91,0,0,0,50.32,205.47Z"/><path class="cls-17" d="M10.8,204.7a2.55,2.55,0,0,0,0,.39,2.42,2.42,0,0,0,0,.38,5,5,0,0,0,1.22,2.9,5.29,5.29,0,0,0,1.21,1,5,5,0,0,0,1.48.59v-9.74a4.76,4.76,0,0,0-1.48.58,5.29,5.29,0,0,0-1.21,1A5,5,0,0,0,10.8,204.7Z"/><text class="cls-18" transform="translate(0 206.59)">0%</text><text class="cls-19" transform="translate(50.22 206.44)">100%</text><text class="cls-20" transform="translate(12.12 221.25)">People who think science <tspan class="cls-21"><tspan x="0" y="7.2">does </tspan><tspan class="cls-22" x="15.67" y="7.2">benefit people like </tspan></tspan><tspan x="0" y="14.4">themselves (%)</tspan></text><path class="cls-23" d="M3.89,134.94a2,2,0,1,0,2,2,2,2,0,0,0-2-2"/><text class="cls-20" transform="translate(12.05 138.29)">People who think science benefits <tspan class="cls-21"><tspan x="0" y="7.2">Most </tspan><tspan class="cls-22" x="16.11" y="7.2">people in their country (%)</tspan></tspan></text><path class="cls-24" d="M4.5,133.34a3.57,3.57,0,1,0,3.57,3.57,3.57,3.57,0,0,0-3.57-3.57"/><text class="cls-20" transform="translate(12.13 158.12)">People who think science benefits <tspan class="cls-21"><tspan x="0" y="7.2">Few </tspan><tspan class="cls-22" x="13.55" y="7.2">people in their country (%)</tspan></tspan></text><path class="cls-25" d="M3.89,154.89a2,2,0,1,0,2,2,2,2,0,0,0-2-2"/><path class="cls-25" d="M4.5,153.29a3.57,3.57,0,1,0,3.57,3.57,3.57,3.57,0,0,0-3.57-3.57"/><text class="cls-20" transform="translate(12.09 184.01)">Angle of the bar changes to <tspan x="0" y="7.2">reflect majority</tspan></text><line class="cls-26" x1="1.52" y1="177.92" x2="16.59" y2="172.51"/></g></g></svg>