<svg xmlns="http://www.w3.org/2000/svg" xmlns:xlink="http://www.w3.org/1999/xlink" viewBox="0 0 226.77 226.77"><defs><clipPath id="a"><rect x="9.32" y="40.68" width="134.86" height="85.47" style="fill:none"/></clipPath></defs><text transform="translate(21.36 143.94)" style="font-size:10px;fill:#3e1b14;font-family:HelveticaNeue, Helvetica Neue">The deeper the dip in <tspan x="0" y="12">the top ar</tspan><tspan x="43.16" y="12" style="letter-spacing:-0.01796875em">r</tspan><tspan x="46.31" y="12">o</tspan><tspan x="52.05" y="12" style="letter-spacing:-0.055029296875em">w</tspan><tspan x="59.08" y="12">, the mo</tspan><tspan x="95.77" y="12" style="letter-spacing:-0.01796875em">r</tspan><tspan x="98.92" y="12">e </tspan><tspan x="0" y="24">people believe that </tspan><tspan x="0" y="36">science will dec</tspan><tspan x="70.73" y="36" style="letter-spacing:-0.01796875em">r</tspan><tspan x="73.88" y="36">ease </tspan><tspan x="0" y="48">jobs in the next five </tspan><tspan x="0" y="60">years. </tspan></text><g style="clip-path:url(#a)"><path d="M28.42,48.77A19.26,19.26,0,1,1,9.32,68.18V68a19.17,19.17,0,0,1,19.1-19.24h0" style="fill:#1a3e77"/><path d="M67.64,92.69A16.74,16.74,0,1,1,51,109.55v-.17A16.67,16.67,0,0,1,67.64,92.66h0" style="fill:#4884c5"/><path d="M126.39,68.52a17.92,17.92,0,1,1-17.78,18v-.13a17.87,17.87,0,0,1,17.78-17.92" style="fill:#8ab8e4"/><polyline points="55.05 53.98 80.22 85.52 132.47 41.05" style="fill:none;stroke:#3e1b14;stroke-miterlimit:10;stroke-width:1.059999942779541px"/></g><polygon points="141.28 33.53 127.04 35.98 136.28 47.08 141.28 33.53" style="fill:#3e1b14"/><text transform="translate(174.69 156.12)" style="font-size:5.920834541320801px;fill:#3e1a13;font-family:HelveticaNeue, Helvetica Neue">The arrow reflects <tspan x="0" y="7.1">the overall pattern</tspan></text><path d="M156.17,25.6a2,2,0,1,0,2,2,2,2,0,0,0-2-2" style="fill:#229ed9"/><text transform="translate(164.33 28.88)" style="font-size:5.920834541320801px;fill:#3e1a13;font-family:HelveticaNeue, Helvetica Neue">People who have a <tspan x="0" y="7.1">“lot ” or “some” trust </tspan><tspan x="0" y="14.21">in scientists to </tspan><tspan x="0" y="21.31">provide accurate </tspan><tspan x="0" y="28.42">information (%)</tspan></text><path d="M156.78,24a3.57,3.57,0,1,0,3.57,3.57A3.57,3.57,0,0,0,156.78,24" style="fill:#1a3e77"/><path d="M166.72,71.41a1.31,1.31,0,0,1,1,.33,1.25,1.25,0,0,1,.33.92,1.23,1.23,0,0,1-.33.92,1.27,1.27,0,0,1-1,.33h-1.29v1.73h-.56V71.41Zm-.19,2a1.07,1.07,0,0,0,.71-.2.77.77,0,0,0,.22-.58.78.78,0,0,0-.22-.58,1.07,1.07,0,0,0-.71-.2h-1.1v1.56Z" style="fill:#3e1a13"/><path d="M170.79,75.44a1.35,1.35,0,0,1-.86.26,1.56,1.56,0,0,1-.64-.12,1.06,1.06,0,0,1-.45-.33,1.27,1.27,0,0,1-.28-.51,2.52,2.52,0,0,1-.1-.64,1.66,1.66,0,0,1,.11-.64,1.46,1.46,0,0,1,.29-.5,1.28,1.28,0,0,1,.46-.34,1.54,1.54,0,0,1,.58-.11,1.15,1.15,0,0,1,.67.17,1.36,1.36,0,0,1,.44.42,1.73,1.73,0,0,1,.22.57,2.43,2.43,0,0,1,.05.59H169a1.2,1.2,0,0,0,0,.38.76.76,0,0,0,.17.32.84.84,0,0,0,.3.22,1,1,0,0,0,.43.09.88.88,0,0,0,.53-.15.78.78,0,0,0,.27-.45h.49A1.17,1.17,0,0,1,170.79,75.44Zm-.12-2a1.12,1.12,0,0,0-.18-.28.75.75,0,0,0-.28-.18.77.77,0,0,0-.34-.07.78.78,0,0,0-.35.07.75.75,0,0,0-.27.18.84.84,0,0,0-.18.28.94.94,0,0,0-.08.33h1.76A1.23,1.23,0,0,0,170.67,73.48Z" style="fill:#3e1a13"/><path d="M171.73,73.48A1.42,1.42,0,0,1,172,73a1.32,1.32,0,0,1,.46-.34,1.79,1.79,0,0,1,1.29,0,1.4,1.4,0,0,1,.75.85,2.18,2.18,0,0,1,.09.63,2.13,2.13,0,0,1-.09.63,1.46,1.46,0,0,1-.29.5,1.28,1.28,0,0,1-.46.34,1.79,1.79,0,0,1-1.29,0,1.2,1.2,0,0,1-.46-.34,1.46,1.46,0,0,1-.29-.5,2.13,2.13,0,0,1-.09-.63A2.18,2.18,0,0,1,171.73,73.48Zm.51,1.12a1,1,0,0,0,.21.37.93.93,0,0,0,.3.22,1,1,0,0,0,.37.08.91.91,0,0,0,.37-.08,1,1,0,0,0,.31-.22,1,1,0,0,0,.2-.37,1.44,1.44,0,0,0,.08-.49,1.48,1.48,0,0,0-.08-.49,1,1,0,0,0-.2-.37.84.84,0,0,0-.31-.22.91.91,0,0,0-.37-.08,1,1,0,0,0-.37.08.81.81,0,0,0-.3.22,1,1,0,0,0-.21.37,1.49,1.49,0,0,0-.07.49A1.45,1.45,0,0,0,172.24,74.6Z" style="fill:#3e1a13"/><path d="M175.72,72.58V73h0a.8.8,0,0,1,.4-.37,1.36,1.36,0,0,1,.58-.11,1.35,1.35,0,0,1,.62.13,1.16,1.16,0,0,1,.44.35,1.75,1.75,0,0,1,.26.51,2.15,2.15,0,0,1,0,1.23,1.3,1.3,0,0,1-.26.51,1.2,1.2,0,0,1-.43.34,1.49,1.49,0,0,1-.62.12,1.14,1.14,0,0,1-.25,0,1.38,1.38,0,0,1-.27-.08.9.9,0,0,1-.47-.37h0V76.8h-.5V72.58Zm1.81,1.08a1.19,1.19,0,0,0-.17-.36.94.94,0,0,0-.3-.26.93.93,0,0,0-.42-.09.83.83,0,0,0-.43.1.92.92,0,0,0-.29.26,1,1,0,0,0-.16.37,1.52,1.52,0,0,0-.06.42,1.61,1.61,0,0,0,.06.44,1,1,0,0,0,.17.37.77.77,0,0,0,.3.26,1,1,0,0,0,.44.1.87.87,0,0,0,.44-.11.77.77,0,0,0,.28-.26,1.16,1.16,0,0,0,.15-.38,2.12,2.12,0,0,0,.05-.44A1.52,1.52,0,0,0,177.53,73.66Z" style="fill:#3e1a13"/><path d="M179.24,71.41v4.23h-.5V71.41Z" style="fill:#3e1a13"/><path d="M182.19,75.44a1.34,1.34,0,0,1-.86.26,1.56,1.56,0,0,1-.64-.12,1.06,1.06,0,0,1-.45-.33,1.56,1.56,0,0,1-.28-.51,2.52,2.52,0,0,1-.1-.64,1.87,1.87,0,0,1,.11-.64,1.48,1.48,0,0,1,.3-.5,1.34,1.34,0,0,1,.45-.34,1.58,1.58,0,0,1,.58-.11,1.21,1.21,0,0,1,.68.17,1.33,1.33,0,0,1,.43.42,2,2,0,0,1,.23.57,3.07,3.07,0,0,1,.05.59h-2.3a1.58,1.58,0,0,0,.05.38.9.9,0,0,0,.17.32.84.84,0,0,0,.3.22,1,1,0,0,0,.44.09.86.86,0,0,0,.52-.15.69.69,0,0,0,.27-.45h.5A1.22,1.22,0,0,1,182.19,75.44Zm-.12-2a.75.75,0,0,0-.18-.28.8.8,0,0,0-.27-.18.81.81,0,0,0-.35-.07.78.78,0,0,0-.35.07.75.75,0,0,0-.27.18.84.84,0,0,0-.18.28,1.23,1.23,0,0,0-.08.33h1.76A.94.94,0,0,0,182.07,73.48Z" style="fill:#3e1a13"/><path d="M187.35,75.64l-.62-2.44h0l-.62,2.44h-.54l-1-3.06h.56l.69,2.5h0l.62-2.5H187l.64,2.5h0l.69-2.5h.52l-1,3.06Z" style="fill:#3e1a13"/><path d="M189.84,71.41V73h0a.51.51,0,0,1,.16-.24.78.78,0,0,1,.24-.16,1.31,1.31,0,0,1,.28-.09l.28,0a1.22,1.22,0,0,1,.5.08.73.73,0,0,1,.33.23.88.88,0,0,1,.17.35,1.66,1.66,0,0,1,.05.46v2h-.5V73.57a.57.57,0,0,0-.17-.45.61.61,0,0,0-.45-.17,1,1,0,0,0-.4.07.84.84,0,0,0-.28.2.85.85,0,0,0-.17.31,1.12,1.12,0,0,0-.06.38v1.73h-.5V71.41Z" style="fill:#3e1a13"/><path d="M192.56,73.48a1.28,1.28,0,0,1,.29-.51,1.32,1.32,0,0,1,.46-.34,1.62,1.62,0,0,1,.64-.12,1.56,1.56,0,0,1,.64.12,1.35,1.35,0,0,1,.47.34,1.27,1.27,0,0,1,.28.51,1.89,1.89,0,0,1,.1.63,1.85,1.85,0,0,1-.1.63,1.3,1.3,0,0,1-.28.5,1.24,1.24,0,0,1-.47.34,1.56,1.56,0,0,1-.64.12,1.62,1.62,0,0,1-.64-.12,1.2,1.2,0,0,1-.46-.34,1.32,1.32,0,0,1-.29-.5,2.13,2.13,0,0,1-.09-.63A2.18,2.18,0,0,1,192.56,73.48Zm.51,1.12a1,1,0,0,0,.21.37.93.93,0,0,0,.3.22,1,1,0,0,0,.37.08.91.91,0,0,0,.37-.08,1,1,0,0,0,.31-.22,1.18,1.18,0,0,0,.2-.37,1.45,1.45,0,0,0,.07-.49,1.49,1.49,0,0,0-.07-.49,1.18,1.18,0,0,0-.2-.37.84.84,0,0,0-.31-.22A.91.91,0,0,0,194,73a1,1,0,0,0-.37.08.81.81,0,0,0-.3.22,1,1,0,0,0-.21.37,1.49,1.49,0,0,0-.07.49A1.45,1.45,0,0,0,193.07,74.6Z" style="fill:#3e1a13"/><path d="M198.18,71.41V73h0a.61.61,0,0,1,.17-.24.78.78,0,0,1,.24-.16,1.31,1.31,0,0,1,.28-.09,1.33,1.33,0,0,1,.28,0,1.22,1.22,0,0,1,.5.08.75.75,0,0,1,.32.23.78.78,0,0,1,.18.35,2.16,2.16,0,0,1,.05.46v2h-.5V73.57a.58.58,0,0,0-.62-.62,1,1,0,0,0-.4.07.88.88,0,0,0-.29.2.83.83,0,0,0-.16.31,1.12,1.12,0,0,0-.06.38v1.73h-.5V71.41Z" style="fill:#3e1a13"/><path d="M203.68,75.63a.74.74,0,0,1-.36.07.39.39,0,0,1-.31-.11.45.45,0,0,1-.12-.35,1.24,1.24,0,0,1-.48.35,1.44,1.44,0,0,1-.59.11,1.75,1.75,0,0,1-.4,0,1.35,1.35,0,0,1-.32-.15.84.84,0,0,1-.22-.27.9.9,0,0,1-.08-.39.91.91,0,0,1,.09-.43.87.87,0,0,1,.23-.27,1.17,1.17,0,0,1,.34-.15,2.34,2.34,0,0,1,.38-.09l.39-.06.33-.06a.62.62,0,0,0,.23-.11.31.31,0,0,0,.08-.22.54.54,0,0,0-.06-.27.46.46,0,0,0-.16-.15.57.57,0,0,0-.22-.07l-.24,0a1.11,1.11,0,0,0-.54.12.55.55,0,0,0-.23.46h-.5a1.13,1.13,0,0,1,.12-.48.87.87,0,0,1,.28-.32,1.36,1.36,0,0,1,.41-.17,1.89,1.89,0,0,1,.49,0,2.83,2.83,0,0,1,.41,0,1.07,1.07,0,0,1,.37.12.72.72,0,0,1,.27.25.92.92,0,0,1,.1.44v1.57a.94.94,0,0,0,0,.26s.06.08.14.08l.15,0Zm-.82-1.58a.52.52,0,0,1-.25.1,3,3,0,0,1-.32.06l-.34.05a1,1,0,0,0-.31.08.62.62,0,0,0-.22.17.45.45,0,0,0-.08.3.36.36,0,0,0,0,.21.35.35,0,0,0,.13.14.75.75,0,0,0,.18.08l.23,0a1.09,1.09,0,0,0,.42-.07.74.74,0,0,0,.29-.17.63.63,0,0,0,.17-.23.47.47,0,0,0,.05-.22Z" style="fill:#3e1a13"/><path d="M205,75.64l-1.14-3.06h.56l.86,2.55h0l.84-2.55h.53l-1.12,3.06Z" style="fill:#3e1a13"/><path d="M209.28,75.44a1.36,1.36,0,0,1-.87.26,1.59,1.59,0,0,1-.64-.12,1.06,1.06,0,0,1-.45-.33,1.38,1.38,0,0,1-.27-.51,2.14,2.14,0,0,1-.11-.64,1.87,1.87,0,0,1,.11-.64,1.48,1.48,0,0,1,.3-.5,1.34,1.34,0,0,1,.45-.34,1.58,1.58,0,0,1,.58-.11,1.21,1.21,0,0,1,.68.17,1.33,1.33,0,0,1,.43.42,2,2,0,0,1,.23.57,3.07,3.07,0,0,1,.05.59h-2.29a1.2,1.2,0,0,0,0,.38.9.9,0,0,0,.17.32.79.79,0,0,0,.31.22.94.94,0,0,0,.43.09.84.84,0,0,0,.52-.15.69.69,0,0,0,.27-.45h.5A1.26,1.26,0,0,1,209.28,75.44Zm-.13-2a.75.75,0,0,0-.18-.28.8.8,0,0,0-.27-.18.81.81,0,0,0-.35-.07A.78.78,0,0,0,208,73a.75.75,0,0,0-.27.18,1,1,0,0,0-.18.28.93.93,0,0,0-.07.33h1.75A.76.76,0,0,0,209.15,73.48Z" style="fill:#3e1a13"/><path d="M214.65,75.63a.76.76,0,0,1-.37.07.41.41,0,0,1-.31-.11.49.49,0,0,1-.11-.35,1.2,1.2,0,0,1-.49.35,1.44,1.44,0,0,1-.59.11,1.61,1.61,0,0,1-.39,0,1.26,1.26,0,0,1-.33-.15.71.71,0,0,1-.21-.27.78.78,0,0,1-.08-.39.91.91,0,0,1,.09-.43.75.75,0,0,1,.23-.27,1.24,1.24,0,0,1,.33-.15,2.62,2.62,0,0,1,.38-.09l.4-.06.33-.06a.65.65,0,0,0,.22-.11.27.27,0,0,0,.08-.22.54.54,0,0,0-.06-.27.39.39,0,0,0-.16-.15.52.52,0,0,0-.22-.07l-.24,0a1.07,1.07,0,0,0-.53.12.52.52,0,0,0-.23.46h-.5a1,1,0,0,1,.11-.48.89.89,0,0,1,.29-.32,1.31,1.31,0,0,1,.4-.17,2,2,0,0,1,.49,0,2.73,2.73,0,0,1,.41,0,1.07,1.07,0,0,1,.37.12.72.72,0,0,1,.27.25.82.82,0,0,1,.1.44v1.57a1.61,1.61,0,0,0,0,.26.13.13,0,0,0,.14.08l.16,0Zm-.82-1.58a.63.63,0,0,1-.25.1,3,3,0,0,1-.32.06l-.34.05a.94.94,0,0,0-.31.08.54.54,0,0,0-.22.17.45.45,0,0,0-.09.3.46.46,0,0,0,0,.21.44.44,0,0,0,.13.14l.19.08.22,0a1.11,1.11,0,0,0,.43-.07.82.82,0,0,0,.29-.17.6.6,0,0,0,.16-.23.49.49,0,0,0,.06-.22Z" style="fill:#3e1a13"/><path d="M165.31,78.52V80.1h0a.71.71,0,0,1,.39-.37,1.41,1.41,0,0,1,.59-.12,1.38,1.38,0,0,1,.62.13,1.23,1.23,0,0,1,.43.35,1.56,1.56,0,0,1,.27.51,2.18,2.18,0,0,1,0,1.24,1.4,1.4,0,0,1-.26.5,1.14,1.14,0,0,1-.44.34,1.31,1.31,0,0,1-.61.13l-.25,0a1,1,0,0,1-.53-.22.67.67,0,0,1-.21-.23h0v.41h-.5V78.52Zm1.81,2.25a1.4,1.4,0,0,0-.17-.37.91.91,0,0,0-.3-.25.93.93,0,0,0-.42-.1,1,1,0,0,0-.44.1,1.06,1.06,0,0,0-.29.27,1.12,1.12,0,0,0-.16.37,1.83,1.83,0,0,0,0,.85,1.26,1.26,0,0,0,.17.37.83.83,0,0,0,.3.26.88.88,0,0,0,.45.1.83.83,0,0,0,.43-.1A.81.81,0,0,0,167,82a1.32,1.32,0,0,0,.16-.38,2,2,0,0,0,0-.43A1.86,1.86,0,0,0,167.12,80.77Z" style="fill:#3e1a13"/><path d="M170.47,82.55a1.43,1.43,0,0,1-.87.26,1.59,1.59,0,0,1-.64-.12,1.25,1.25,0,0,1-.45-.33,1.38,1.38,0,0,1-.27-.51,2.21,2.21,0,0,1-.11-.65,1.91,1.91,0,0,1,.11-.64,1.48,1.48,0,0,1,.3-.5,1.45,1.45,0,0,1,.45-.33,1.4,1.4,0,0,1,.58-.12,1.29,1.29,0,0,1,.68.17,1.26,1.26,0,0,1,.43.43,1.8,1.8,0,0,1,.23.57,3,3,0,0,1,.05.58h-2.29a1.17,1.17,0,0,0,0,.38,1,1,0,0,0,.17.32.81.81,0,0,0,.31.23,1.1,1.1,0,0,0,.43.08.84.84,0,0,0,.52-.15.69.69,0,0,0,.27-.45h.5A1.31,1.31,0,0,1,170.47,82.55Zm-.13-2a.71.71,0,0,0-.18-.27,1,1,0,0,0-.27-.19,1,1,0,0,0-.35-.07,1,1,0,0,0-.35.07.77.77,0,0,0-.27.19,1.27,1.27,0,0,0-.18.27,1,1,0,0,0-.07.34h1.75A.81.81,0,0,0,170.34,80.58Z" style="fill:#3e1a13"/><path d="M172,78.52v4.22h-.5V78.52Z" style="fill:#3e1a13"/><path d="M172.82,79.13v-.61h.5v.61Zm.5.55v3.06h-.5V79.68Z" style="fill:#3e1a13"/><path d="M176.27,82.55a1.4,1.4,0,0,1-.86.26,1.56,1.56,0,0,1-.64-.12,1.25,1.25,0,0,1-.45-.33,1.56,1.56,0,0,1-.28-.51,2.6,2.6,0,0,1-.1-.65,1.91,1.91,0,0,1,.11-.64,1.48,1.48,0,0,1,.3-.5,1.35,1.35,0,0,1,.45-.33,1.4,1.4,0,0,1,.58-.12,1.29,1.29,0,0,1,.68.17,1.26,1.26,0,0,1,.43.43,1.58,1.58,0,0,1,.22.57,2.38,2.38,0,0,1,.06.58h-2.3a1.17,1.17,0,0,0,.05.38.82.82,0,0,0,.17.32.86.86,0,0,0,.3.23,1.19,1.19,0,0,0,.44.08.86.86,0,0,0,.52-.15.69.69,0,0,0,.27-.45h.5A1.28,1.28,0,0,1,176.27,82.55Zm-.12-2a.71.71,0,0,0-.18-.27,1,1,0,0,0-.27-.19,1,1,0,0,0-.35-.07,1,1,0,0,0-.35.07.77.77,0,0,0-.27.19.8.8,0,0,0-.18.27,1.3,1.3,0,0,0-.08.34h1.76A1,1,0,0,0,176.15,80.58Z" style="fill:#3e1a13"/><path d="M178.13,82.74,177,79.68h.56l.86,2.55h0l.84-2.55h.52l-1.12,3.06Z" style="fill:#3e1a13"/><path d="M182.41,82.55a1.4,1.4,0,0,1-.86.26,1.56,1.56,0,0,1-.64-.12,1.25,1.25,0,0,1-.45-.33,1.4,1.4,0,0,1-.28-.51,2.6,2.6,0,0,1-.1-.65,1.91,1.91,0,0,1,.11-.64,1.48,1.48,0,0,1,.3-.5,1.35,1.35,0,0,1,.45-.33,1.4,1.4,0,0,1,.58-.12,1.29,1.29,0,0,1,.68.17,1.26,1.26,0,0,1,.43.43,1.58,1.58,0,0,1,.22.57,2,2,0,0,1,.05.58h-2.29a1.17,1.17,0,0,0,0,.38.82.82,0,0,0,.17.32.86.86,0,0,0,.3.23,1.19,1.19,0,0,0,.44.08.86.86,0,0,0,.52-.15.69.69,0,0,0,.27-.45h.5A1.28,1.28,0,0,1,182.41,82.55Zm-.12-2a.71.71,0,0,0-.18-.27,1,1,0,0,0-.27-.19,1,1,0,0,0-.35-.07,1,1,0,0,0-.35.07.77.77,0,0,0-.27.19.8.8,0,0,0-.18.27,1.3,1.3,0,0,0-.08.34h1.76A1,1,0,0,0,182.29,80.58Z" style="fill:#3e1a13"/><path d="M186.38,79.68v.45h-.61V82c0,.06,0,.1,0,.14a.16.16,0,0,0,.06.08l.12,0h.42v.44H186l-.33,0a.45.45,0,0,1-.22-.1.46.46,0,0,1-.13-.2,1.12,1.12,0,0,1,0-.35V80.13h-.52v-.45h.52v-.92h.5v.92Z" style="fill:#3e1a13"/><path d="M187.44,78.52v1.61h0a.81.81,0,0,1,.17-.24,1,1,0,0,1,.24-.16,1.31,1.31,0,0,1,.28-.09,1.27,1.27,0,0,1,.28,0,1.46,1.46,0,0,1,.5.08,1,1,0,0,1,.32.23.77.77,0,0,1,.18.36,2,2,0,0,1,.05.45v2H189V80.67a.58.58,0,0,0-.62-.62,1,1,0,0,0-.4.08.66.66,0,0,0-.29.2.79.79,0,0,0-.16.3,1.21,1.21,0,0,0-.06.38v1.73h-.5V78.52Z" style="fill:#3e1a13"/><path d="M192.94,82.73a.74.74,0,0,1-.36.08.43.43,0,0,1-.31-.11.46.46,0,0,1-.12-.36,1.17,1.17,0,0,1-.48.36,1.64,1.64,0,0,1-.6.11,1.74,1.74,0,0,1-.39,0,.86.86,0,0,1-.32-.15.63.63,0,0,1-.22-.26.93.93,0,0,1-.08-.39.89.89,0,0,1,.09-.43.87.87,0,0,1,.23-.27,1.19,1.19,0,0,1,.34-.16l.38-.09.39-.06a1.39,1.39,0,0,0,.33-.06.49.49,0,0,0,.23-.11.29.29,0,0,0,.08-.22.48.48,0,0,0-.06-.26.49.49,0,0,0-.16-.16.81.81,0,0,0-.22-.07l-.24,0a1.11,1.11,0,0,0-.54.13.53.53,0,0,0-.23.46h-.5a1.22,1.22,0,0,1,.12-.49.84.84,0,0,1,.28-.31,1.38,1.38,0,0,1,.41-.18,2.46,2.46,0,0,1,.49,0l.41,0a1.07,1.07,0,0,1,.37.12.75.75,0,0,1,.27.26.88.88,0,0,1,.1.43V82a.87.87,0,0,0,0,.26c0,.06.06.08.14.08l.15,0Zm-.82-1.57a.65.65,0,0,1-.25.1l-.32,0-.34,0a1.4,1.4,0,0,0-.31.09.6.6,0,0,0-.22.16.48.48,0,0,0-.08.3.33.33,0,0,0,.05.21.29.29,0,0,0,.13.14.49.49,0,0,0,.18.08.86.86,0,0,0,.23,0,1.33,1.33,0,0,0,.42-.06.9.9,0,0,0,.29-.18.6.6,0,0,0,.17-.22.5.5,0,0,0,.05-.23Z" style="fill:#3e1a13"/><path d="M194.72,79.68v.45h-.61V82a.57.57,0,0,0,0,.14.16.16,0,0,0,.06.08.23.23,0,0,0,.11,0h.43v.44h-.39l-.33,0a.49.49,0,0,1-.23-.1.46.46,0,0,1-.13-.2,1.53,1.53,0,0,1,0-.35V80.13h-.52v-.45h.52v-.92h.51v.92Z" style="fill:#3e1a13"/><path d="M197.3,82.06a.47.47,0,0,0,.19.18.74.74,0,0,0,.26.1,1.53,1.53,0,0,0,.3,0l.25,0a1.05,1.05,0,0,0,.24-.06.49.49,0,0,0,.18-.14.36.36,0,0,0,.07-.24.33.33,0,0,0-.15-.29,1.42,1.42,0,0,0-.37-.17l-.48-.11a2.09,2.09,0,0,1-.48-.14.92.92,0,0,1-.37-.26.65.65,0,0,1-.15-.46.74.74,0,0,1,.1-.4.87.87,0,0,1,.27-.27,1.37,1.37,0,0,1,.37-.15,1.83,1.83,0,0,1,.4,0,3.58,3.58,0,0,1,.48,0,1.14,1.14,0,0,1,.39.16.84.84,0,0,1,.27.29,1.47,1.47,0,0,1,.12.47h-.51a.43.43,0,0,0-.24-.4.85.85,0,0,0-.22-.09,1.07,1.07,0,0,0-.25,0l-.23,0a.83.83,0,0,0-.21.06.44.44,0,0,0-.15.12.32.32,0,0,0-.06.2.29.29,0,0,0,.09.21.57.57,0,0,0,.24.14,2,2,0,0,0,.32.1l.35.08.37.1a1.07,1.07,0,0,1,.32.16.76.76,0,0,1,.23.24.81.81,0,0,1,.08.37.92.92,0,0,1-.11.46,1,1,0,0,1-.31.3,1.3,1.3,0,0,1-.42.15,2.4,2.4,0,0,1-.46,0,2,2,0,0,1-.49-.06,1.15,1.15,0,0,1-.41-.17,1,1,0,0,1-.28-.32,1.13,1.13,0,0,1-.12-.48h.51A.61.61,0,0,0,197.3,82.06Z" style="fill:#3e1a13"/><path d="M201.71,80.21a.82.82,0,0,0-.51-.16,1,1,0,0,0-.46.1.84.84,0,0,0-.29.27,1.18,1.18,0,0,0-.16.38,2.28,2.28,0,0,0,0,.45,1.51,1.51,0,0,0,.05.42,1,1,0,0,0,.15.35.75.75,0,0,0,.28.25.78.78,0,0,0,.41.1.82.82,0,0,0,.58-.2.87.87,0,0,0,.26-.55h.52a1.44,1.44,0,0,1-.43.88,1.28,1.28,0,0,1-.92.31,1.49,1.49,0,0,1-.62-.12,1.21,1.21,0,0,1-.45-.31,1.62,1.62,0,0,1-.28-.5,2.08,2.08,0,0,1-.09-.63,2.2,2.2,0,0,1,.09-.64,1.43,1.43,0,0,1,.27-.52,1.19,1.19,0,0,1,.45-.35,1.47,1.47,0,0,1,.64-.13,2,2,0,0,1,.49.06,1.34,1.34,0,0,1,.4.19,1.32,1.32,0,0,1,.29.33,1.36,1.36,0,0,1,.14.47H202A.83.83,0,0,0,201.71,80.21Z" style="fill:#3e1a13"/><path d="M203.09,79.13v-.61h.5v.61Zm.5.55v3.06h-.5V79.68Z" style="fill:#3e1a13"/><path d="M206.54,82.55a1.43,1.43,0,0,1-.87.26,1.54,1.54,0,0,1-.63-.12,1.25,1.25,0,0,1-.45-.33,1.27,1.27,0,0,1-.28-.51,2.21,2.21,0,0,1-.1-.65,1.91,1.91,0,0,1,.1-.64,1.48,1.48,0,0,1,.3-.5,1.39,1.39,0,0,1,.46-.33,1.37,1.37,0,0,1,.58-.12,1.26,1.26,0,0,1,.67.17,1.29,1.29,0,0,1,.44.43,1.78,1.78,0,0,1,.22.57,2.36,2.36,0,0,1,.05.58h-2.29a1,1,0,0,0,0,.38.71.71,0,0,0,.17.32.86.86,0,0,0,.3.23,1.14,1.14,0,0,0,.43.08.88.88,0,0,0,.53-.15.78.78,0,0,0,.27-.45H207A1.22,1.22,0,0,1,206.54,82.55Zm-.12-2a.88.88,0,0,0-.19-.27.77.77,0,0,0-.27-.19,1,1,0,0,0-.35-.07,1,1,0,0,0-.35.07,1,1,0,0,0-.27.19,1,1,0,0,0-.17.27,1,1,0,0,0-.08.34h1.76A1.3,1.3,0,0,0,206.42,80.58Z" style="fill:#3e1a13"/><path d="M208,79.68v.49h0a1.06,1.06,0,0,1,1-.56,1.41,1.41,0,0,1,.5.08.92.92,0,0,1,.33.23.86.86,0,0,1,.17.36,1.53,1.53,0,0,1,.06.45v2h-.51V80.67a.61.61,0,0,0-.16-.45.64.64,0,0,0-.46-.17,1,1,0,0,0-.4.08.63.63,0,0,0-.28.2.81.81,0,0,0-.17.3,1.21,1.21,0,0,0-.06.38v1.73h-.5V79.68Z" style="fill:#3e1a13"/><path d="M212.67,80.21a.78.78,0,0,0-.51-.16,1,1,0,0,0-.45.1,1,1,0,0,0-.3.27,1.16,1.16,0,0,0-.15.38,2.3,2.3,0,0,0,0,.45,2,2,0,0,0,0,.42,1,1,0,0,0,.16.35.68.68,0,0,0,.28.25.74.74,0,0,0,.4.1.84.84,0,0,0,.59-.2.86.86,0,0,0,.25-.55h.52a1.49,1.49,0,0,1-.42.88,1.32,1.32,0,0,1-.93.31,1.52,1.52,0,0,1-.62-.12,1.21,1.21,0,0,1-.45-.31,1.42,1.42,0,0,1-.27-.5,2.08,2.08,0,0,1-.09-.63,2.2,2.2,0,0,1,.09-.64,1.29,1.29,0,0,1,.27-.52,1.19,1.19,0,0,1,.45-.35,1.39,1.39,0,0,1,.63-.13,1.88,1.88,0,0,1,.49.06,1.24,1.24,0,0,1,.4.19,1,1,0,0,1,.29.33,1.17,1.17,0,0,1,.14.47h-.52A.77.77,0,0,0,212.67,80.21Z" style="fill:#3e1a13"/><path d="M216.19,82.55a1.43,1.43,0,0,1-.87.26,1.54,1.54,0,0,1-.63-.12,1.25,1.25,0,0,1-.45-.33,1.27,1.27,0,0,1-.28-.51,2.21,2.21,0,0,1-.1-.65,1.91,1.91,0,0,1,.1-.64,1.48,1.48,0,0,1,.3-.5,1.39,1.39,0,0,1,.46-.33,1.37,1.37,0,0,1,.58-.12,1.26,1.26,0,0,1,.67.17,1.29,1.29,0,0,1,.44.43,1.78,1.78,0,0,1,.22.57,2.36,2.36,0,0,1,.05.58h-2.29a1.17,1.17,0,0,0,.05.38.71.71,0,0,0,.17.32.86.86,0,0,0,.3.23,1.14,1.14,0,0,0,.43.08.88.88,0,0,0,.53-.15.78.78,0,0,0,.27-.45h.49A1.22,1.22,0,0,1,216.19,82.55Zm-.12-2a.88.88,0,0,0-.19-.27.77.77,0,0,0-.27-.19.94.94,0,0,0-.34-.07,1,1,0,0,0-.36.07,1,1,0,0,0-.27.19,1,1,0,0,0-.17.27,1,1,0,0,0-.08.34h1.76A1.3,1.3,0,0,0,216.07,80.58Z" style="fill:#3e1a13"/><path d="M167.29,89.85l-.63-2.44h0L166,89.85h-.55l-1-3.06h.56l.69,2.5h0l.62-2.5h.55l.64,2.5h0l.69-2.5h.52l-1,3.06Z" style="fill:#3e1a13"/><path d="M169.31,86.24v-.62h.5v.62Zm.5.55v3.06h-.5V86.79Z" style="fill:#3e1a13"/><path d="M171.12,85.62v4.23h-.5V85.62Z" style="fill:#3e1a13"/><path d="M172.44,85.62v4.23h-.51V85.62Z" style="fill:#3e1a13"/><path d="M174.89,86.24v-.62h.51v.62Zm.51.55v3.06h-.51V86.79Z" style="fill:#3e1a13"/><path d="M176.65,86.79v.48h0a1.07,1.07,0,0,1,1-.55,1.22,1.22,0,0,1,.5.08.79.79,0,0,1,.33.23.88.88,0,0,1,.17.35,1.66,1.66,0,0,1,.05.46v2h-.5V87.78a.58.58,0,0,0-.62-.62,1,1,0,0,0-.4.07.84.84,0,0,0-.28.2.85.85,0,0,0-.17.31,1.12,1.12,0,0,0-.06.38v1.73h-.5V86.79Z" style="fill:#3e1a13"/><path d="M181.3,87.32a.76.76,0,0,0-.51-.16.88.88,0,0,0-.45.1.87.87,0,0,0-.3.27,1.16,1.16,0,0,0-.15.38,1.64,1.64,0,0,0,0,.45,1.84,1.84,0,0,0,0,.41,1,1,0,0,0,.16.36.81.81,0,0,0,.27.25.89.89,0,0,0,.41.1.84.84,0,0,0,.59-.2.86.86,0,0,0,.25-.55h.52a1.39,1.39,0,0,1-.43.87,1.28,1.28,0,0,1-.92.31,1.52,1.52,0,0,1-.62-.11,1.12,1.12,0,0,1-.45-.32,1.37,1.37,0,0,1-.27-.49,2.08,2.08,0,0,1-.09-.63,2.27,2.27,0,0,1,.08-.65,1.51,1.51,0,0,1,.27-.52,1.34,1.34,0,0,1,.46-.35,1.54,1.54,0,0,1,.63-.12,1.93,1.93,0,0,1,.49.06,1.06,1.06,0,0,1,.4.19,1.15,1.15,0,0,1,.29.33,1.3,1.3,0,0,1,.14.47h-.52A.77.77,0,0,0,181.3,87.32Z" style="fill:#3e1a13"/><path d="M183.11,86.79v.64h0a1.33,1.33,0,0,1,.45-.55,1.1,1.1,0,0,1,.67-.16v.53a1.52,1.52,0,0,0-.51.08,1,1,0,0,0-.35.24,1.18,1.18,0,0,0-.19.39,2.73,2.73,0,0,0-.05.53v1.36h-.51V86.79Z" style="fill:#3e1a13"/><path d="M186.79,89.65a1.36,1.36,0,0,1-.87.26,1.54,1.54,0,0,1-.63-.12,1.15,1.15,0,0,1-.45-.33,1.27,1.27,0,0,1-.28-.51,2.15,2.15,0,0,1-.1-.64,1.87,1.87,0,0,1,.1-.64,1.48,1.48,0,0,1,.3-.5,1.28,1.28,0,0,1,.46-.34,1.54,1.54,0,0,1,.58-.11,1.17,1.17,0,0,1,.67.17,1.36,1.36,0,0,1,.44.42,2,2,0,0,1,.22.57,2.43,2.43,0,0,1,.05.59H185a1,1,0,0,0,0,.38.76.76,0,0,0,.17.32.84.84,0,0,0,.3.22,1,1,0,0,0,.43.09.88.88,0,0,0,.53-.15.78.78,0,0,0,.27-.45h.49A1.17,1.17,0,0,1,186.79,89.65Zm-.12-2a.92.92,0,0,0-.19-.28.64.64,0,0,0-.27-.18.78.78,0,0,0-.35-.07.81.81,0,0,0-.35.07,1,1,0,0,0-.27.18,1,1,0,0,0-.17.28A.94.94,0,0,0,185,88h1.76A1.23,1.23,0,0,0,186.67,87.69Z" style="fill:#3e1a13"/><path d="M190.51,89.84a.7.7,0,0,1-.36.07.41.41,0,0,1-.31-.11.45.45,0,0,1-.11-.35,1.2,1.2,0,0,1-.49.35,1.44,1.44,0,0,1-.59.11,1.75,1.75,0,0,1-.4,0,1.35,1.35,0,0,1-.32-.15.71.71,0,0,1-.21-.27.78.78,0,0,1-.08-.39.92.92,0,0,1,.08-.43.78.78,0,0,1,.24-.27,1.11,1.11,0,0,1,.33-.15,2.34,2.34,0,0,1,.38-.09l.4-.06.32-.06a.62.62,0,0,0,.23-.11.31.31,0,0,0,.08-.22.54.54,0,0,0-.06-.27.46.46,0,0,0-.16-.15.57.57,0,0,0-.22-.07l-.24,0a1.07,1.07,0,0,0-.53.12.52.52,0,0,0-.23.46h-.51a1.13,1.13,0,0,1,.12-.48.89.89,0,0,1,.29-.32,1.31,1.31,0,0,1,.4-.17,1.94,1.94,0,0,1,.49,0,2.73,2.73,0,0,1,.41,0,1.07,1.07,0,0,1,.37.12.72.72,0,0,1,.27.25.82.82,0,0,1,.1.44v1.57a1.61,1.61,0,0,0,0,.26s.06.08.14.08l.15,0Zm-.81-1.58a.63.63,0,0,1-.25.1,3.23,3.23,0,0,1-.33.06l-.34,0a1,1,0,0,0-.3.08.66.66,0,0,0-.23.17.51.51,0,0,0-.08.3.46.46,0,0,0,.05.21.44.44,0,0,0,.13.14.68.68,0,0,0,.19.08l.22,0a1.11,1.11,0,0,0,.43-.07.82.82,0,0,0,.29-.17.6.6,0,0,0,.16-.23.49.49,0,0,0,.06-.22Z" style="fill:#3e1a13"/><path d="M191.36,89.16a.69.69,0,0,0,.19.19,1.17,1.17,0,0,0,.26.1,1.53,1.53,0,0,0,.3,0l.25,0a.84.84,0,0,0,.24-.07.49.49,0,0,0,.18-.14.35.35,0,0,0,.07-.23.34.34,0,0,0-.15-.3,1.28,1.28,0,0,0-.37-.16l-.48-.11a3.36,3.36,0,0,1-.48-.14,1.12,1.12,0,0,1-.37-.26.67.67,0,0,1-.15-.46.72.72,0,0,1,.1-.4.87.87,0,0,1,.27-.27,1.11,1.11,0,0,1,.37-.15,1.37,1.37,0,0,1,.4,0,2.33,2.33,0,0,1,.48,0,1.13,1.13,0,0,1,.39.15,1,1,0,0,1,.27.3,1,1,0,0,1,.12.47h-.51a.46.46,0,0,0-.07-.25.52.52,0,0,0-.17-.16.53.53,0,0,0-.22-.08,1,1,0,0,0-.25,0l-.22,0a.65.65,0,0,0-.21.06.4.4,0,0,0-.16.12.29.29,0,0,0-.06.19.27.27,0,0,0,.1.22.82.82,0,0,0,.23.14A1.35,1.35,0,0,0,192,88l.35.08.37.1a1.37,1.37,0,0,1,.32.16.78.78,0,0,1,.23.25.68.68,0,0,1,.08.36.86.86,0,0,1-.11.47.92.92,0,0,1-.3.29,1.26,1.26,0,0,1-.42.16,2.49,2.49,0,0,1-.47,0,1.86,1.86,0,0,1-.48,0,1.26,1.26,0,0,1-.41-.17,1,1,0,0,1-.29-.32,1.22,1.22,0,0,1-.12-.49h.51A.58.58,0,0,0,191.36,89.16Z" style="fill:#3e1a13"/><path d="M196.11,89.65a1.36,1.36,0,0,1-.87.26,1.54,1.54,0,0,1-.63-.12,1.26,1.26,0,0,1-.46-.33,1.38,1.38,0,0,1-.27-.51,2.15,2.15,0,0,1-.1-.64,1.87,1.87,0,0,1,.1-.64,1.48,1.48,0,0,1,.3-.5,1.28,1.28,0,0,1,.46-.34,1.48,1.48,0,0,1,.57-.11,1.18,1.18,0,0,1,.68.17,1.24,1.24,0,0,1,.43.42,1.75,1.75,0,0,1,.23.57,2.43,2.43,0,0,1,0,.59h-2.29a1,1,0,0,0,.05.38.76.76,0,0,0,.17.32.84.84,0,0,0,.3.22,1,1,0,0,0,.43.09.84.84,0,0,0,.52-.15.69.69,0,0,0,.27-.45h.5A1.21,1.21,0,0,1,196.11,89.65Zm-.12-2a.92.92,0,0,0-.19-.28.64.64,0,0,0-.27-.18.78.78,0,0,0-.35-.07.81.81,0,0,0-.35.07,1,1,0,0,0-.27.18,1.34,1.34,0,0,0-.18.28,1.21,1.21,0,0,0-.07.33h1.76A1.23,1.23,0,0,0,196,87.69Z" style="fill:#3e1a13"/><path d="M199.1,90.83a.76.76,0,0,1-.53.18,1.06,1.06,0,0,1-.26,0v-.43h.2a.26.26,0,0,0,.23-.09.64.64,0,0,0,.06-.33V86.79h.5v3.44A.8.8,0,0,1,199.1,90.83Zm-.3-4.59v-.62h.5v.62Z" style="fill:#3e1a13"/><path d="M200,87.69a1.4,1.4,0,0,1,.28-.51,1.45,1.45,0,0,1,.47-.34,1.62,1.62,0,0,1,.64-.12,1.56,1.56,0,0,1,.64.12,1.35,1.35,0,0,1,.47.34,1.4,1.4,0,0,1,.28.51,1.89,1.89,0,0,1,.1.63,1.85,1.85,0,0,1-.1.63,1.44,1.44,0,0,1-.28.5,1.24,1.24,0,0,1-.47.34,1.56,1.56,0,0,1-.64.12,1.62,1.62,0,0,1-.64-.12,1.32,1.32,0,0,1-.47-.34A1.44,1.44,0,0,1,200,89a2.13,2.13,0,0,1-.1-.63A2.19,2.19,0,0,1,200,87.69Zm.51,1.12a1,1,0,0,0,.21.37.84.84,0,0,0,.3.22.9.9,0,0,0,.74,0,1,1,0,0,0,.31-.22,1.18,1.18,0,0,0,.2-.37,1.45,1.45,0,0,0,.07-.49,1.49,1.49,0,0,0-.07-.49,1.18,1.18,0,0,0-.2-.37.84.84,0,0,0-.31-.22.9.9,0,0,0-.74,0,.73.73,0,0,0-.3.22,1,1,0,0,0-.21.37,1.49,1.49,0,0,0-.07.49A1.45,1.45,0,0,0,200.52,88.81Z" style="fill:#3e1a13"/><path d="M204,85.62V87.2h0a.78.78,0,0,1,.39-.37,1.44,1.44,0,0,1,.59-.11,1.35,1.35,0,0,1,.62.13,1.24,1.24,0,0,1,.44.35,1.75,1.75,0,0,1,.26.51,2.15,2.15,0,0,1,0,1.23,1.45,1.45,0,0,1-.26.51,1.16,1.16,0,0,1-.44.34,1.44,1.44,0,0,1-.61.12,1.14,1.14,0,0,1-.25,0,1.47,1.47,0,0,1-.28-.08.89.89,0,0,1-.25-.14.93.93,0,0,1-.21-.23h0v.41h-.5V85.62Zm1.81,2.25a1.49,1.49,0,0,0-.17-.36.94.94,0,0,0-.3-.26.93.93,0,0,0-.42-.09.87.87,0,0,0-.44.1,1.2,1.2,0,0,0-.29.26,1.53,1.53,0,0,0-.16.37,2,2,0,0,0-.05.42,1.61,1.61,0,0,0,.06.44,1.12,1.12,0,0,0,.16.37.94.94,0,0,0,.3.26,1,1,0,0,0,.45.1.81.81,0,0,0,.43-.11.7.7,0,0,0,.28-.26,1.18,1.18,0,0,0,.16-.38,2.12,2.12,0,0,0,0-.44A1.51,1.51,0,0,0,205.81,87.87Z" style="fill:#3e1a13"/><path d="M207.37,89.16a.58.58,0,0,0,.19.19,1.17,1.17,0,0,0,.26.1,1.53,1.53,0,0,0,.3,0l.25,0a.84.84,0,0,0,.24-.07.49.49,0,0,0,.18-.14.35.35,0,0,0,.07-.23.34.34,0,0,0-.15-.3,1.42,1.42,0,0,0-.37-.16l-.48-.11a3.36,3.36,0,0,1-.48-.14,1.12,1.12,0,0,1-.37-.26.67.67,0,0,1-.15-.46.72.72,0,0,1,.1-.4.87.87,0,0,1,.27-.27,1.11,1.11,0,0,1,.37-.15,1.37,1.37,0,0,1,.4,0,2.33,2.33,0,0,1,.48,0,1.13,1.13,0,0,1,.39.15,1,1,0,0,1,.27.3,1,1,0,0,1,.12.47h-.51a.46.46,0,0,0-.07-.25.52.52,0,0,0-.17-.16.58.58,0,0,0-.22-.08,1,1,0,0,0-.25,0l-.22,0a.65.65,0,0,0-.21.06.4.4,0,0,0-.16.12.29.29,0,0,0-.06.19.29.29,0,0,0,.09.22,1.08,1.08,0,0,0,.24.14A1.35,1.35,0,0,0,208,88l.35.08.37.1a1.37,1.37,0,0,1,.32.16.78.78,0,0,1,.23.25.8.8,0,0,1,.08.36.86.86,0,0,1-.11.47.92.92,0,0,1-.3.29,1.26,1.26,0,0,1-.42.16,2.56,2.56,0,0,1-.47,0,1.86,1.86,0,0,1-.48,0,1.26,1.26,0,0,1-.41-.17,1,1,0,0,1-.29-.32,1.22,1.22,0,0,1-.12-.49h.51A.58.58,0,0,0,207.37,89.16Z" style="fill:#3e1a13"/><path d="M211.63,86.24v-.62h.5v.62Zm.5.55v3.06h-.5V86.79Z" style="fill:#3e1a13"/><path d="M213.38,86.79v.48h0a1.05,1.05,0,0,1,1-.55,1.22,1.22,0,0,1,.5.08.73.73,0,0,1,.33.23.88.88,0,0,1,.17.35,1.66,1.66,0,0,1,.05.46v2h-.5V87.78a.61.61,0,0,0-.16-.45.65.65,0,0,0-.46-.17,1,1,0,0,0-.4.07.84.84,0,0,0-.28.2.85.85,0,0,0-.17.31,1.12,1.12,0,0,0-.06.38v1.73h-.5V86.79Z" style="fill:#3e1a13"/><path d="M166.1,93.89v.45h-.61v1.9a.57.57,0,0,0,0,.14.16.16,0,0,0,.06.08.23.23,0,0,0,.11,0h.43V97h-.39l-.33,0a.49.49,0,0,1-.23-.1.46.46,0,0,1-.13-.2,1.53,1.53,0,0,1,0-.35V94.34h-.52v-.45H165V93h.51v.92Z" style="fill:#3e1a13"/><path d="M167.16,92.73v1.61h0a.78.78,0,0,1,.16-.24,1,1,0,0,1,.24-.16,1.31,1.31,0,0,1,.28-.09l.28,0a1.52,1.52,0,0,1,.51.08,1,1,0,0,1,.32.23,1,1,0,0,1,.18.36,2,2,0,0,1,.05.45v2h-.51V94.88a.61.61,0,0,0-.16-.45.64.64,0,0,0-.46-.17,1,1,0,0,0-.4.08.69.69,0,0,0-.28.2,1,1,0,0,0-.17.3,1.2,1.2,0,0,0-.05.38V97h-.51V92.73Z" style="fill:#3e1a13"/><path d="M172.11,96.76a1.42,1.42,0,0,1-.86.26,1.56,1.56,0,0,1-.64-.12,1.25,1.25,0,0,1-.45-.33,1.27,1.27,0,0,1-.28-.51,2.6,2.6,0,0,1-.1-.65,1.69,1.69,0,0,1,.11-.64,1.64,1.64,0,0,1,.29-.5,1.39,1.39,0,0,1,.46-.33,1.4,1.4,0,0,1,.58-.12,1.29,1.29,0,0,1,.68.17,1.36,1.36,0,0,1,.43.43,1.58,1.58,0,0,1,.22.57,2.36,2.36,0,0,1,0,.58h-2.29a1.17,1.17,0,0,0,.05.38.71.71,0,0,0,.17.32.86.86,0,0,0,.3.23,1.14,1.14,0,0,0,.43.08.88.88,0,0,0,.53-.15.78.78,0,0,0,.27-.45h.5A1.28,1.28,0,0,1,172.11,96.76Zm-.12-2a1.06,1.06,0,0,0-.18-.27.92.92,0,0,0-.28-.19.94.94,0,0,0-.34-.07,1,1,0,0,0-.35.07.77.77,0,0,0-.27.19.8.8,0,0,0-.18.27,1,1,0,0,0-.08.34h1.76A1.3,1.3,0,0,0,172,94.79Z" style="fill:#3e1a13"/><path d="M175.24,93.89v.49h0a1.08,1.08,0,0,1,1-.56,1.41,1.41,0,0,1,.5.08.92.92,0,0,1,.33.23.86.86,0,0,1,.17.36,1.55,1.55,0,0,1,.05.45v2h-.5V94.88a.58.58,0,0,0-.62-.62,1,1,0,0,0-.4.08.63.63,0,0,0-.28.2.81.81,0,0,0-.17.3,1.21,1.21,0,0,0-.06.38V97h-.5V93.89Z" style="fill:#3e1a13"/><path d="M180.23,96.76a1.43,1.43,0,0,1-.87.26,1.54,1.54,0,0,1-.63-.12,1.25,1.25,0,0,1-.45-.33,1.27,1.27,0,0,1-.28-.51,2.21,2.21,0,0,1-.1-.65,1.91,1.91,0,0,1,.1-.64,1.48,1.48,0,0,1,.3-.5,1.39,1.39,0,0,1,.46-.33,1.35,1.35,0,0,1,.57-.12A1.27,1.27,0,0,1,180,94a1.18,1.18,0,0,1,.43.43,1.59,1.59,0,0,1,.23.57,2.36,2.36,0,0,1,.05.58h-2.29a1,1,0,0,0,0,.38.71.71,0,0,0,.17.32.86.86,0,0,0,.3.23,1.14,1.14,0,0,0,.43.08.88.88,0,0,0,.53-.15.78.78,0,0,0,.27-.45h.49A1.22,1.22,0,0,1,180.23,96.76Zm-.12-2a.88.88,0,0,0-.19-.27.77.77,0,0,0-.27-.19,1,1,0,0,0-.35-.07,1,1,0,0,0-.35.07,1,1,0,0,0-.27.19,1,1,0,0,0-.17.27,1,1,0,0,0-.08.34h1.76A1.3,1.3,0,0,0,180.11,94.79Z" style="fill:#3e1a13"/><path d="M181,93.89h.64l.74,1.07.76-1.07h.6l-1.05,1.41L183.88,97h-.65l-.85-1.26L181.53,97h-.62l1.15-1.61Z" style="fill:#3e1a13"/><path d="M185.62,93.89v.45H185v1.9a.57.57,0,0,0,0,.14.16.16,0,0,0,.06.08l.11,0h.43V97h-.39l-.33,0a.49.49,0,0,1-.23-.1.46.46,0,0,1-.13-.2,1.53,1.53,0,0,1,0-.35V94.34H184v-.45h.52V93H185v.92Z" style="fill:#3e1a13"/><path d="M188.53,93.27l-.23,1.21h0a.8.8,0,0,1,.35-.23,1.25,1.25,0,0,1,.43-.07,1.5,1.5,0,0,1,.52.09,1.25,1.25,0,0,1,.44.27,1.29,1.29,0,0,1,.29.45,1.74,1.74,0,0,1,.1.63,1.48,1.48,0,0,1-.09.51,1.29,1.29,0,0,1-.27.45,1.33,1.33,0,0,1-.46.31A1.64,1.64,0,0,1,189,97a1.7,1.7,0,0,1-.51-.08,1.42,1.42,0,0,1-.42-.23,1.1,1.1,0,0,1-.29-.38,1.19,1.19,0,0,1-.11-.51h.5a.74.74,0,0,0,.08.3,1.08,1.08,0,0,0,.18.24.71.71,0,0,0,.28.16.93.93,0,0,0,.34.06,1,1,0,0,0,.34-.06.81.81,0,0,0,.29-.19,1,1,0,0,0,.19-.31,1.16,1.16,0,0,0,.07-.44,1,1,0,0,0-.07-.38,1,1,0,0,0-.19-.3.93.93,0,0,0-.3-.2,1.23,1.23,0,0,0-.39-.07.93.93,0,0,0-.44.11,1.17,1.17,0,0,0-.34.29l-.43,0,.39-2.17h2.07v.44Z" style="fill:#3e1a13"/><path d="M194,97.36a2.74,2.74,0,0,1-.18.38.82.82,0,0,1-.19.25.49.49,0,0,1-.23.14.84.84,0,0,1-.29.05h-.18a.55.55,0,0,1-.17,0v-.46a.53.53,0,0,0,.15,0,.44.44,0,0,0,.15,0,.39.39,0,0,0,.25-.07.42.42,0,0,0,.16-.21l.21-.51-1.22-3H193l.9,2.51h0l.86-2.51h.53Z" style="fill:#3e1a13"/><path d="M197.88,96.76A1.4,1.4,0,0,1,197,97a1.56,1.56,0,0,1-.64-.12,1.25,1.25,0,0,1-.45-.33,1.56,1.56,0,0,1-.28-.51,2.6,2.6,0,0,1-.1-.65,1.91,1.91,0,0,1,.11-.64,1.48,1.48,0,0,1,.3-.5,1.35,1.35,0,0,1,.45-.33,1.4,1.4,0,0,1,.58-.12,1.29,1.29,0,0,1,.68.17,1.26,1.26,0,0,1,.43.43,1.58,1.58,0,0,1,.22.57,2.38,2.38,0,0,1,.06.58h-2.3a1.52,1.52,0,0,0,0,.38.85.85,0,0,0,.48.55,1.1,1.1,0,0,0,.43.08.86.86,0,0,0,.52-.15.69.69,0,0,0,.27-.45h.5A1.28,1.28,0,0,1,197.88,96.76Zm-.12-2a.71.71,0,0,0-.18-.27,1,1,0,0,0-.27-.19,1,1,0,0,0-.35-.07,1,1,0,0,0-.35.07.77.77,0,0,0-.27.19.8.8,0,0,0-.18.27,1.3,1.3,0,0,0-.08.34h1.76A1,1,0,0,0,197.76,94.79Z" style="fill:#3e1a13"/><path d="M201.61,96.94a.74.74,0,0,1-.36.08.43.43,0,0,1-.31-.11.46.46,0,0,1-.12-.36,1.17,1.17,0,0,1-.48.36,1.68,1.68,0,0,1-.6.11,1.6,1.6,0,0,1-.39,0,.79.79,0,0,1-.32-.15.63.63,0,0,1-.22-.26.93.93,0,0,1-.08-.39.89.89,0,0,1,.09-.43.87.87,0,0,1,.23-.27,1.26,1.26,0,0,1,.33-.16l.39-.09.39-.06a1.61,1.61,0,0,0,.33-.06.46.46,0,0,0,.22-.11.27.27,0,0,0,.09-.22.4.4,0,0,0-.07-.26.41.41,0,0,0-.16-.16.65.65,0,0,0-.21-.07l-.24,0a1.11,1.11,0,0,0-.54.13.51.51,0,0,0-.23.46h-.5a1.22,1.22,0,0,1,.12-.49.84.84,0,0,1,.28-.31,1.28,1.28,0,0,1,.41-.18,2.46,2.46,0,0,1,.49-.05l.41,0a1.15,1.15,0,0,1,.37.12.65.65,0,0,1,.26.26.78.78,0,0,1,.1.43v1.57a1.42,1.42,0,0,0,0,.26c0,.06.06.08.14.08l.16,0Zm-.82-1.57a.72.72,0,0,1-.25.1l-.32,0-.34,0a1.26,1.26,0,0,0-.31.09.6.6,0,0,0-.22.16.49.49,0,0,0-.09.3.41.41,0,0,0,.05.21.44.44,0,0,0,.13.14.64.64,0,0,0,.19.08.86.86,0,0,0,.23,0,1.33,1.33,0,0,0,.42-.06.9.9,0,0,0,.29-.18.6.6,0,0,0,.17-.22.68.68,0,0,0,0-.23Z" style="fill:#3e1a13"/><path d="M202.53,93.89v.65h0A1.34,1.34,0,0,1,203,94a1.13,1.13,0,0,1,.68-.17v.53a1.35,1.35,0,0,0-.52.09.76.76,0,0,0-.34.24,1,1,0,0,0-.19.39,2,2,0,0,0-.06.52V97h-.5V93.89Z" style="fill:#3e1a13"/><path d="M204.43,96.27a.47.47,0,0,0,.19.18.67.67,0,0,0,.26.1,1.45,1.45,0,0,0,.3,0l.25,0a1.05,1.05,0,0,0,.24-.06.49.49,0,0,0,.18-.14.43.43,0,0,0,.07-.24.33.33,0,0,0-.15-.29,1.42,1.42,0,0,0-.37-.17l-.48-.11a2.34,2.34,0,0,1-.49-.14,1.08,1.08,0,0,1-.37-.26.7.7,0,0,1-.14-.46.74.74,0,0,1,.1-.4.87.87,0,0,1,.27-.27,1.44,1.44,0,0,1,.36-.15,2,2,0,0,1,.41-.05,3.58,3.58,0,0,1,.48,0,1.23,1.23,0,0,1,.39.16.84.84,0,0,1,.27.29,1.25,1.25,0,0,1,.11.47h-.5a.49.49,0,0,0-.08-.25.46.46,0,0,0-.16-.15.85.85,0,0,0-.22-.09,1.07,1.07,0,0,0-.25,0l-.23,0a.83.83,0,0,0-.21.06.44.44,0,0,0-.15.12.32.32,0,0,0-.06.2.29.29,0,0,0,.09.21.57.57,0,0,0,.24.14,2.26,2.26,0,0,0,.31.1l.36.08.37.1a1.07,1.07,0,0,1,.32.16.64.64,0,0,1,.22.24.7.7,0,0,1,.09.37.92.92,0,0,1-.11.46,1,1,0,0,1-.31.3,1.3,1.3,0,0,1-.42.15,2.4,2.4,0,0,1-.46,0,2,2,0,0,1-.49-.06,1.15,1.15,0,0,1-.41-.17,1,1,0,0,1-.28-.32,1.13,1.13,0,0,1-.12-.48h.51A.51.51,0,0,0,204.43,96.27Z" style="fill:#3e1a13"/><path d="M209.1,97.46a5.71,5.71,0,0,1-.3-.67,3.88,3.88,0,0,1-.18-.69,3.67,3.67,0,0,1-.07-.75,4.44,4.44,0,0,1,.24-1.41,4.39,4.39,0,0,1,.69-1.32h.39a4.82,4.82,0,0,0-.61,1.34,5.75,5.75,0,0,0-.17,1.39,5.47,5.47,0,0,0,.18,1.42,5,5,0,0,0,.6,1.35h-.39A7.44,7.44,0,0,1,209.1,97.46Z" style="fill:#3e1a13"/><path d="M210.4,93.5a.93.93,0,0,1,.16-.38.79.79,0,0,1,.3-.27,1,1,0,0,1,.45-.1,1,1,0,0,1,.46.1.79.79,0,0,1,.29.25,1,1,0,0,1,.15.38,2.24,2.24,0,0,1,0,.46,2.3,2.3,0,0,1,0,.45,1.19,1.19,0,0,1-.17.38.92.92,0,0,1-.29.26.87.87,0,0,1-.44.1,1,1,0,0,1-.45-.09.79.79,0,0,1-.29-.25,1.1,1.1,0,0,1-.17-.38,2.14,2.14,0,0,1-.05-.45A2.16,2.16,0,0,1,210.4,93.5Zm.41.73a.77.77,0,0,0,.07.27.57.57,0,0,0,.15.22.42.42,0,0,0,.26.08.41.41,0,0,0,.28-.08.47.47,0,0,0,.15-.21,1.15,1.15,0,0,0,.08-.28c0-.1,0-.2,0-.29s0-.18,0-.28a.82.82,0,0,0-.07-.28.41.41,0,0,0-.15-.21.37.37,0,0,0-.27-.09.4.4,0,0,0-.27.09.57.57,0,0,0-.15.21,1.15,1.15,0,0,0-.08.28,2.72,2.72,0,0,0,0,.28C210.8,94,210.8,94.13,210.81,94.23Zm3.8-1.55-3.18,4.4h-.51l3.19-4.4Zm-1.29,2.71a1.45,1.45,0,0,1,.16-.38.83.83,0,0,1,.3-.26.9.9,0,0,1,.46-.1,1,1,0,0,1,.45.09A.74.74,0,0,1,215,95a.89.89,0,0,1,.16.37,2.32,2.32,0,0,1,0,.46,1.64,1.64,0,0,1-.05.45,1.18,1.18,0,0,1-.16.38.94.94,0,0,1-.3.26.91.91,0,0,1-.43.1,1,1,0,0,1-.45-.09.93.93,0,0,1-.3-.25,1.12,1.12,0,0,1-.16-.37,1.71,1.71,0,0,1-.05-.46A2.32,2.32,0,0,1,213.32,95.39Zm.42.73a1.27,1.27,0,0,0,.06.28.66.66,0,0,0,.15.21.45.45,0,0,0,.54,0,.49.49,0,0,0,.16-.21.77.77,0,0,0,.07-.28c0-.1,0-.2,0-.29s0-.18,0-.28a2.29,2.29,0,0,0-.07-.28.8.8,0,0,0-.15-.21.5.5,0,0,0-.54,0,.65.65,0,0,0-.16.21,1.28,1.28,0,0,0-.07.28c0,.1,0,.2,0,.29S213.73,96,213.74,96.12Z" style="fill:#3e1a13"/><path d="M216.27,96.78a5.22,5.22,0,0,0,.18-1.38,5.16,5.16,0,0,0-.77-2.78h.37c.15.23.27.45.39.66a6.46,6.46,0,0,1,.29.67,5.56,5.56,0,0,1,.19.7,4.56,4.56,0,0,1,.06.75,4.32,4.32,0,0,1-.23,1.4,4.66,4.66,0,0,1-.7,1.32h-.37A4.9,4.9,0,0,0,216.27,96.78Z" style="fill:#3e1a13"/><path d="M156.17,72.47a2,2,0,1,0,2,2,2,2,0,0,0-2-2" style="fill:#f6b032"/><path d="M156.78,70.87a3.57,3.57,0,1,0,3.57,3.57,3.57,3.57,0,0,0-3.57-3.57" style="fill:#4884c5"/><path d="M156.17,113.9a2,2,0,1,0,2,2,2,2,0,0,0-2-2" style="fill:#229ed9"/><path d="M166.65,113a1.3,1.3,0,0,1,1,.33,1.22,1.22,0,0,1,.33.92,1.25,1.25,0,0,1-.33.92,1.3,1.3,0,0,1-1,.33h-1.29v1.72h-.57V113Zm-.19,2a1,1,0,0,0,.7-.19.75.75,0,0,0,.22-.58.72.72,0,0,0-.22-.58,1,1,0,0,0-.7-.2h-1.1V115Z" style="fill:#3e1a13"/><path d="M170.71,117a1.4,1.4,0,0,1-.86.26,1.56,1.56,0,0,1-.64-.12,1.25,1.25,0,0,1-.45-.33,1.4,1.4,0,0,1-.28-.51,2.6,2.6,0,0,1-.1-.65,1.91,1.91,0,0,1,.11-.64,1.48,1.48,0,0,1,.3-.5,1.35,1.35,0,0,1,.45-.33,1.4,1.4,0,0,1,.58-.12,1.29,1.29,0,0,1,.68.17,1.36,1.36,0,0,1,.43.43,1.58,1.58,0,0,1,.22.57,2.36,2.36,0,0,1,0,.58h-2.29a1.23,1.23,0,0,0,.05.39,1,1,0,0,0,.17.32,1,1,0,0,0,.3.22,1.19,1.19,0,0,0,.44.08.86.86,0,0,0,.52-.15.69.69,0,0,0,.27-.45h.5A1.25,1.25,0,0,1,170.71,117Zm-.12-2a.85.85,0,0,0-.18-.27,1,1,0,0,0-.27-.19,1,1,0,0,0-.35-.06,1,1,0,0,0-.35.06.77.77,0,0,0-.27.19.75.75,0,0,0-.18.28,1.14,1.14,0,0,0-.08.33h1.76A1,1,0,0,0,170.59,115Z" style="fill:#3e1a13"/><path d="M171.65,115a1.42,1.42,0,0,1,.29-.51,1.17,1.17,0,0,1,.47-.34,1.41,1.41,0,0,1,.64-.13,1.47,1.47,0,0,1,.64.13,1.2,1.2,0,0,1,.46.34,1.42,1.42,0,0,1,.29.51,2.22,2.22,0,0,1,0,1.25,1.42,1.42,0,0,1-.29.51,1.32,1.32,0,0,1-.46.34,1.62,1.62,0,0,1-.64.12,1.56,1.56,0,0,1-.64-.12,1.27,1.27,0,0,1-.47-.34,1.42,1.42,0,0,1-.29-.51,2.22,2.22,0,0,1,0-1.25Zm.52,1.12a1,1,0,0,0,.2.36.84.84,0,0,0,.31.22.75.75,0,0,0,.37.08.8.8,0,0,0,.37-.08.89.89,0,0,0,.3-.22.84.84,0,0,0,.2-.36,1.48,1.48,0,0,0,.08-.49,1.54,1.54,0,0,0-.08-.5.91.91,0,0,0-.2-.36.82.82,0,0,0-.67-.3.85.85,0,0,0-.68.3,1,1,0,0,0-.2.36,1.54,1.54,0,0,0-.08.5A1.48,1.48,0,0,0,172.17,116.15Z" style="fill:#3e1a13"/><path d="M175.64,114.12v.42h0a.71.71,0,0,1,.39-.37,1.37,1.37,0,0,1,.58-.12,1.32,1.32,0,0,1,.62.13,1.39,1.39,0,0,1,.44.35,1.5,1.5,0,0,1,.26.52,2,2,0,0,1,.09.61,2.51,2.51,0,0,1-.08.62,1.58,1.58,0,0,1-.26.5,1.22,1.22,0,0,1-.44.34,1.33,1.33,0,0,1-.61.13l-.26,0a1.08,1.08,0,0,1-.53-.22.7.7,0,0,1-.2-.22h0v1.57h-.5v-4.23Zm1.81,1.09a1,1,0,0,0-.17-.37.88.88,0,0,0-.29-.25,1,1,0,0,0-.43-.09.83.83,0,0,0-.43.1.73.73,0,0,0-.29.26,1.12,1.12,0,0,0-.16.37,1.51,1.51,0,0,0-.05.42,1.49,1.49,0,0,0,.05.43,1.1,1.1,0,0,0,.17.38.91.91,0,0,0,.3.25.87.87,0,0,0,.44.1.84.84,0,0,0,.44-.1.9.9,0,0,0,.28-.27,1.08,1.08,0,0,0,.15-.38,2,2,0,0,0,0-.43A1.42,1.42,0,0,0,177.45,115.21Z" style="fill:#3e1a13"/><path d="M179.17,113v4.22h-.51V113Z" style="fill:#3e1a13"/><path d="M182.12,117a1.43,1.43,0,0,1-.87.26,1.59,1.59,0,0,1-.64-.12,1.35,1.35,0,0,1-.45-.33,1.38,1.38,0,0,1-.27-.51,2.21,2.21,0,0,1-.11-.65,1.91,1.91,0,0,1,.11-.64,1.48,1.48,0,0,1,.3-.5,1.45,1.45,0,0,1,.45-.33,1.4,1.4,0,0,1,.58-.12,1.29,1.29,0,0,1,.68.17,1.36,1.36,0,0,1,.43.43,1.59,1.59,0,0,1,.23.57,3,3,0,0,1,.05.58h-2.29a1,1,0,0,0,.21.71.91.91,0,0,0,.31.22,1.1,1.1,0,0,0,.43.08.84.84,0,0,0,.52-.15.69.69,0,0,0,.27-.45h.5A1.28,1.28,0,0,1,182.12,117Zm-.13-2a.71.71,0,0,0-.18-.27,1,1,0,0,0-.27-.19,1,1,0,0,0-.35-.06,1,1,0,0,0-.35.06.88.88,0,0,0-.27.19,1.12,1.12,0,0,0-.18.28.88.88,0,0,0-.07.33h1.75A.81.81,0,0,0,182,115Z" style="fill:#3e1a13"/><path d="M187.27,117.18l-.62-2.43h0l-.62,2.43h-.54l-1-3.06h.55l.69,2.51h0l.61-2.51h.55l.64,2.51h0l.69-2.51h.52l-1,3.06Z" style="fill:#3e1a13"/><path d="M189.77,113v1.61h0a.78.78,0,0,1,.16-.24,1,1,0,0,1,.24-.16,1.31,1.31,0,0,1,.28-.09l.28,0a1.41,1.41,0,0,1,.5.08.83.83,0,0,1,.33.24.89.89,0,0,1,.18.35,2,2,0,0,1,.05.45v2h-.51v-2.07a.61.61,0,0,0-.16-.45.63.63,0,0,0-.46-.16,1,1,0,0,0-.4.07.69.69,0,0,0-.28.2.81.81,0,0,0-.17.3,1.23,1.23,0,0,0,0,.39v1.72h-.51V113Z" style="fill:#3e1a13"/><path d="M192.48,115a1.42,1.42,0,0,1,.29-.51,1.2,1.2,0,0,1,.46-.34,1.47,1.47,0,0,1,.64-.13,1.48,1.48,0,0,1,.65.13,1.2,1.2,0,0,1,.46.34,1.42,1.42,0,0,1,.29.51,2.22,2.22,0,0,1,0,1.25,1.42,1.42,0,0,1-.29.51,1.32,1.32,0,0,1-.46.34,1.79,1.79,0,0,1-1.29,0,1.32,1.32,0,0,1-.46-.34,1.42,1.42,0,0,1-.29-.51,2.22,2.22,0,0,1,0-1.25Zm.51,1.12a1,1,0,0,0,.21.36.89.89,0,0,0,.3.22.8.8,0,0,0,.37.08.77.77,0,0,0,.37-.08.84.84,0,0,0,.31-.22,1,1,0,0,0,.2-.36,1.48,1.48,0,0,0,.08-.49,1.54,1.54,0,0,0-.08-.5,1,1,0,0,0-.2-.36.87.87,0,0,0-.31-.23.9.9,0,0,0-.37-.07.82.82,0,0,0-.67.3,1.07,1.07,0,0,0-.21.36,1.55,1.55,0,0,0-.07.5A1.49,1.49,0,0,0,193,116.15Z" style="fill:#3e1a13"/><path d="M198.12,113v1.58h0a.71.71,0,0,1,.39-.37,1.45,1.45,0,0,1,.59-.12,1.38,1.38,0,0,1,.62.13,1.35,1.35,0,0,1,.43.35,1.51,1.51,0,0,1,.27.52,2,2,0,0,1,.09.61,2.11,2.11,0,0,1-.09.62,1.4,1.4,0,0,1-.26.5,1.14,1.14,0,0,1-.44.34,1.31,1.31,0,0,1-.61.13l-.25,0a1.43,1.43,0,0,1-.28-.07,1.28,1.28,0,0,1-.25-.15.73.73,0,0,1-.21-.22h0v.4h-.5V113Zm1.81,2.25a1.4,1.4,0,0,0-.17-.37.91.91,0,0,0-.3-.25.93.93,0,0,0-.42-.09.87.87,0,0,0-.44.1.89.89,0,0,0-.29.26,1.38,1.38,0,0,0-.16.37,2,2,0,0,0-.05.42,2,2,0,0,0,.05.43,1.33,1.33,0,0,0,.17.38.91.91,0,0,0,.3.25.88.88,0,0,0,.45.1.78.78,0,0,0,.71-.37,1.32,1.32,0,0,0,.16-.38,2,2,0,0,0,0-.43A1.42,1.42,0,0,0,199.93,115.21Z" style="fill:#3e1a13"/><path d="M203.28,117a1.43,1.43,0,0,1-.87.26,1.51,1.51,0,0,1-.63-.12,1.29,1.29,0,0,1-.46-.33,1.38,1.38,0,0,1-.27-.51,2.21,2.21,0,0,1-.11-.65,1.91,1.91,0,0,1,.11-.64,1.48,1.48,0,0,1,.3-.5,1.45,1.45,0,0,1,.45-.33,1.4,1.4,0,0,1,.58-.12,1.29,1.29,0,0,1,.68.17,1.36,1.36,0,0,1,.43.43,1.59,1.59,0,0,1,.23.57,2.36,2.36,0,0,1,.05.58h-2.29a1,1,0,0,0,.21.71.91.91,0,0,0,.31.22,1.1,1.1,0,0,0,.43.08.84.84,0,0,0,.52-.15.69.69,0,0,0,.27-.45h.5A1.28,1.28,0,0,1,203.28,117Zm-.13-2a.71.71,0,0,0-.18-.27,1,1,0,0,0-.27-.19,1,1,0,0,0-.35-.06,1,1,0,0,0-.35.06,1,1,0,0,0-.27.19,1.12,1.12,0,0,0-.18.28.88.88,0,0,0-.07.33h1.75A.81.81,0,0,0,203.15,115Z" style="fill:#3e1a13"/><path d="M204.82,113v4.22h-.5V113Z" style="fill:#3e1a13"/><path d="M205.63,113.57V113h.51v.61Zm.51.55v3.06h-.51v-3.06Z" style="fill:#3e1a13"/><path d="M209.08,117a1.38,1.38,0,0,1-.86.26,1.56,1.56,0,0,1-.64-.12,1.25,1.25,0,0,1-.45-.33,1.38,1.38,0,0,1-.27-.51,2.21,2.21,0,0,1-.11-.65,1.91,1.91,0,0,1,.11-.64,1.48,1.48,0,0,1,.3-.5,1.35,1.35,0,0,1,.45-.33,1.4,1.4,0,0,1,.58-.12,1.29,1.29,0,0,1,.68.17,1.36,1.36,0,0,1,.43.43,1.8,1.8,0,0,1,.23.57,3,3,0,0,1,.05.58h-2.3a1.6,1.6,0,0,0,.05.39,1,1,0,0,0,.17.32.91.91,0,0,0,.31.22,1.1,1.1,0,0,0,.43.08.86.86,0,0,0,.52-.15.69.69,0,0,0,.27-.45h.5A1.25,1.25,0,0,1,209.08,117Zm-.12-2a.71.71,0,0,0-.18-.27,1,1,0,0,0-.27-.19,1,1,0,0,0-.35-.06,1,1,0,0,0-.35.06.77.77,0,0,0-.27.19.75.75,0,0,0-.18.28,1.14,1.14,0,0,0-.08.33H209A1,1,0,0,0,209,115Z" style="fill:#3e1a13"/><path d="M210.94,117.18l-1.14-3.06h.56l.86,2.55h0l.84-2.55h.52l-1.11,3.06Z" style="fill:#3e1a13"/><path d="M215.22,117a1.4,1.4,0,0,1-.86.26,1.56,1.56,0,0,1-.64-.12,1.25,1.25,0,0,1-.45-.33,1.56,1.56,0,0,1-.28-.51,2.6,2.6,0,0,1-.1-.65A1.91,1.91,0,0,1,213,115a1.48,1.48,0,0,1,.3-.5,1.35,1.35,0,0,1,.45-.33,1.4,1.4,0,0,1,.58-.12,1.29,1.29,0,0,1,.68.17,1.36,1.36,0,0,1,.43.43,1.58,1.58,0,0,1,.22.57,2.38,2.38,0,0,1,.06.58h-2.3a1.6,1.6,0,0,0,.05.39,1,1,0,0,0,.17.32,1,1,0,0,0,.3.22,1.19,1.19,0,0,0,.44.08.86.86,0,0,0,.52-.15.69.69,0,0,0,.27-.45h.5A1.25,1.25,0,0,1,215.22,117Zm-.12-2a.71.71,0,0,0-.18-.27,1,1,0,0,0-.27-.19,1,1,0,0,0-.35-.06,1,1,0,0,0-.35.06.77.77,0,0,0-.27.19.75.75,0,0,0-.18.28,1.14,1.14,0,0,0-.08.33h1.76A1,1,0,0,0,215.1,115Z" style="fill:#3e1a13"/><path d="M166,121.23v.44h-.61v1.9a.53.53,0,0,0,0,.14.15.15,0,0,0,.06.09.2.2,0,0,0,.11,0H166v.45h-.39a1.55,1.55,0,0,1-.33,0,.54.54,0,0,1-.23-.1.36.36,0,0,1-.12-.2,1,1,0,0,1,0-.34v-2h-.52v-.44h.52v-.92h.51v.92Z" style="fill:#3e1a13"/><path d="M167.08,120.06v1.62h0a.53.53,0,0,1,.17-.24.87.87,0,0,1,.23-.16,1.52,1.52,0,0,1,.28-.09l.28,0a1.27,1.27,0,0,1,.51.08.75.75,0,0,1,.32.23.9.9,0,0,1,.18.35,2.16,2.16,0,0,1,.05.46v2h-.5v-2.07a.61.61,0,0,0-.17-.45.62.62,0,0,0-.46-.17,1,1,0,0,0-.4.07,1,1,0,0,0-.28.2,1,1,0,0,0-.17.31,1.46,1.46,0,0,0,0,.38v1.73h-.51v-4.23Z" style="fill:#3e1a13"/><path d="M172.58,124.28a.74.74,0,0,1-.36.07.39.39,0,0,1-.31-.11.45.45,0,0,1-.12-.35,1.24,1.24,0,0,1-.48.35,1.49,1.49,0,0,1-.6.11,1.61,1.61,0,0,1-.39,0,1.19,1.19,0,0,1-.32-.15.73.73,0,0,1-.22-.27.9.9,0,0,1-.08-.39.91.91,0,0,1,.09-.43.87.87,0,0,1,.23-.27,1.24,1.24,0,0,1,.33-.15,2.74,2.74,0,0,1,.39-.09,2.85,2.85,0,0,1,.39-.06l.33-.06a.57.57,0,0,0,.22-.11.28.28,0,0,0,.09-.22.45.45,0,0,0-.07-.27.39.39,0,0,0-.16-.15.48.48,0,0,0-.21-.07l-.24,0a1.08,1.08,0,0,0-.54.12.52.52,0,0,0-.23.46h-.5a1.13,1.13,0,0,1,.12-.48.87.87,0,0,1,.28-.32,1.36,1.36,0,0,1,.41-.17,1.89,1.89,0,0,1,.49,0l.41,0a1.15,1.15,0,0,1,.37.12.63.63,0,0,1,.26.25.82.82,0,0,1,.1.44v1.57a1.61,1.61,0,0,0,0,.26.14.14,0,0,0,.14.08l.16,0Zm-.82-1.58a.57.57,0,0,1-.25.1,3,3,0,0,1-.32.06l-.34,0a.94.94,0,0,0-.31.08.62.62,0,0,0-.22.17.45.45,0,0,0-.09.3.46.46,0,0,0,.05.21.58.58,0,0,0,.13.14l.19.08.22,0a1.11,1.11,0,0,0,.43-.07.74.74,0,0,0,.29-.17.62.62,0,0,0,.22-.45Z" style="fill:#3e1a13"/><path d="M174.35,121.23v.44h-.61v1.9a.46.46,0,0,0,0,.14.15.15,0,0,0,.06.09.16.16,0,0,0,.11,0h.42v.45H174a1.72,1.72,0,0,1-.34,0,.5.5,0,0,1-.22-.1.37.37,0,0,1-.13-.2,1.05,1.05,0,0,1,0-.34v-2h-.52v-.44h.52v-.92h.5v.92Z" style="fill:#3e1a13"/><path d="M176.94,123.6a.58.58,0,0,0,.19.19.88.88,0,0,0,.26.1,1.39,1.39,0,0,0,.3,0l.25,0a1.09,1.09,0,0,0,.24-.07.49.49,0,0,0,.18-.14.42.42,0,0,0,.07-.23.34.34,0,0,0-.15-.3,1.42,1.42,0,0,0-.37-.16l-.48-.11a3.15,3.15,0,0,1-.49-.14,1.23,1.23,0,0,1-.37-.26.84.84,0,0,1,0-.86.87.87,0,0,1,.27-.27,1.05,1.05,0,0,1,.36-.15,1.44,1.44,0,0,1,.41,0,2.45,2.45,0,0,1,.48,0,1.32,1.32,0,0,1,.39.15,1,1,0,0,1,.27.3,1.2,1.2,0,0,1,.11.47h-.5a.46.46,0,0,0-.08-.25.41.41,0,0,0-.16-.16.58.58,0,0,0-.22-.08,1.07,1.07,0,0,0-.25,0l-.23,0a.73.73,0,0,0-.21.06.44.44,0,0,0-.15.12.29.29,0,0,0-.06.19.29.29,0,0,0,.09.22,1,1,0,0,0,.23.14,1.68,1.68,0,0,0,.32.09l.36.08.37.1a1.37,1.37,0,0,1,.32.16.75.75,0,0,1,.22.25.69.69,0,0,1,.09.36.86.86,0,0,1-.12.47.76.76,0,0,1-.3.29,1.11,1.11,0,0,1-.42.16,2.38,2.38,0,0,1-.46,0,2,2,0,0,1-.49,0,1.17,1.17,0,0,1-.41-.18.93.93,0,0,1-.28-.31,1.22,1.22,0,0,1-.12-.49h.5A.58.58,0,0,0,176.94,123.6Z" style="fill:#3e1a13"/><path d="M181.35,121.76a.76.76,0,0,0-.51-.16.9.9,0,0,0-.46.1.84.84,0,0,0-.29.27,1.18,1.18,0,0,0-.16.38,2.14,2.14,0,0,0-.05.45,1.84,1.84,0,0,0,.05.41,1.46,1.46,0,0,0,.16.36.76.76,0,0,0,.28.25.86.86,0,0,0,.41.1.82.82,0,0,0,.58-.2.87.87,0,0,0,.26-.55h.51a1.25,1.25,0,0,1-1.35,1.18,1.52,1.52,0,0,1-.62-.11,1.2,1.2,0,0,1-.45-.32,1.37,1.37,0,0,1-.27-.49,2.08,2.08,0,0,1-.09-.63,2.27,2.27,0,0,1,.09-.65,1.51,1.51,0,0,1,.27-.52,1.3,1.3,0,0,1,.45-.35,1.56,1.56,0,0,1,.64-.12,1.86,1.86,0,0,1,.48.06,1.11,1.11,0,0,1,.41.19,1.12,1.12,0,0,1,.28.33,1.13,1.13,0,0,1,.15.47h-.53A.76.76,0,0,0,181.35,121.76Z" style="fill:#3e1a13"/><path d="M182.73,120.68v-.62h.5v.62Zm.5.55v3.06h-.5v-3.06Z" style="fill:#3e1a13"/><path d="M186.18,124.09a1.36,1.36,0,0,1-.87.26,1.54,1.54,0,0,1-.63-.12,1.26,1.26,0,0,1-.46-.33,1.38,1.38,0,0,1-.27-.51,2.52,2.52,0,0,1-.11-.64,1.87,1.87,0,0,1,.11-.64,1.48,1.48,0,0,1,.3-.5,1.28,1.28,0,0,1,.46-.34,1.48,1.48,0,0,1,.57-.11,1.18,1.18,0,0,1,.68.17,1.33,1.33,0,0,1,.43.42,1.75,1.75,0,0,1,.23.57,2.43,2.43,0,0,1,0,.59h-2.29a1.2,1.2,0,0,0,0,.38.92.92,0,0,0,.18.32.84.84,0,0,0,.3.22.94.94,0,0,0,.43.09.84.84,0,0,0,.52-.15.69.69,0,0,0,.27-.45h.5A1.21,1.21,0,0,1,186.18,124.09Zm-.12-2a.92.92,0,0,0-.19-.28.71.71,0,0,0-.27-.18.78.78,0,0,0-.35-.07.81.81,0,0,0-.35.07,1,1,0,0,0-.27.18,1.34,1.34,0,0,0-.18.28,1.21,1.21,0,0,0-.07.33h1.76A1.23,1.23,0,0,0,186.06,122.13Z" style="fill:#3e1a13"/><path d="M187.66,121.23v.48h0a1.07,1.07,0,0,1,1-.55,1.22,1.22,0,0,1,.5.08.73.73,0,0,1,.33.23.88.88,0,0,1,.17.35,1.66,1.66,0,0,1,.05.46v2h-.5v-2.07a.58.58,0,0,0-.62-.62,1,1,0,0,0-.4.07.84.84,0,0,0-.28.2.85.85,0,0,0-.17.31,1.12,1.12,0,0,0-.06.38v1.73h-.5v-3.06Z" style="fill:#3e1a13"/><path d="M192.31,121.76a.74.74,0,0,0-.51-.16.88.88,0,0,0-.45.1.87.87,0,0,0-.3.27,1.16,1.16,0,0,0-.15.38,1.64,1.64,0,0,0-.05.45,1.4,1.4,0,0,0,.05.41,1,1,0,0,0,.16.36.81.81,0,0,0,.27.25.89.89,0,0,0,.41.1.84.84,0,0,0,.59-.2.86.86,0,0,0,.25-.55h.52a1.43,1.43,0,0,1-.42.87,1.32,1.32,0,0,1-.93.31,1.52,1.52,0,0,1-.62-.11,1.12,1.12,0,0,1-.45-.32,1.37,1.37,0,0,1-.27-.49,2.08,2.08,0,0,1-.09-.63,2.69,2.69,0,0,1,.08-.65,1.51,1.51,0,0,1,.27-.52,1.25,1.25,0,0,1,.46-.35,1.54,1.54,0,0,1,.63-.12,1.93,1.93,0,0,1,.49.06,1.14,1.14,0,0,1,.4.19,1.15,1.15,0,0,1,.29.33,1.3,1.3,0,0,1,.14.47h-.52A.77.77,0,0,0,192.31,121.76Z" style="fill:#3e1a13"/><path d="M195.83,124.09a1.36,1.36,0,0,1-.87.26,1.54,1.54,0,0,1-.63-.12,1.26,1.26,0,0,1-.46-.33,1.38,1.38,0,0,1-.27-.51,2.52,2.52,0,0,1-.11-.64,1.87,1.87,0,0,1,.11-.64,1.48,1.48,0,0,1,.3-.5,1.28,1.28,0,0,1,.46-.34,1.48,1.48,0,0,1,.57-.11,1.18,1.18,0,0,1,.68.17,1.24,1.24,0,0,1,.43.42,1.75,1.75,0,0,1,.23.57,2.43,2.43,0,0,1,0,.59H194a1.2,1.2,0,0,0,0,.38.92.92,0,0,0,.18.32.84.84,0,0,0,.3.22,1,1,0,0,0,.43.09.84.84,0,0,0,.52-.15.69.69,0,0,0,.27-.45h.5A1.21,1.21,0,0,1,195.83,124.09Zm-.12-2a.92.92,0,0,0-.19-.28.64.64,0,0,0-.27-.18.78.78,0,0,0-.35-.07.81.81,0,0,0-.35.07,1,1,0,0,0-.27.18,1.34,1.34,0,0,0-.18.28,1.21,1.21,0,0,0-.07.33h1.76A1.23,1.23,0,0,0,195.71,122.13Z" style="fill:#3e1a13"/><path d="M201,124.29l-.62-2.44h0l-.62,2.44h-.54l-1-3.06h.55l.7,2.5h0l.61-2.5h.56l.63,2.5h0l.68-2.5h.52l-1,3.06Z" style="fill:#3e1a13"/><path d="M203,120.68v-.62h.51v.62Zm.51.55v3.06H203v-3.06Z" style="fill:#3e1a13"/><path d="M204.82,120.06v4.23h-.5v-4.23Z" style="fill:#3e1a13"/><path d="M206.14,120.06v4.23h-.51v-4.23Z" style="fill:#3e1a13"/><path d="M209.07,120.06v1.62h0a.6.6,0,0,1,.16-.24,1.11,1.11,0,0,1,.24-.16,1.31,1.31,0,0,1,.28-.09l.28,0a1.3,1.3,0,0,1,.51.08.75.75,0,0,1,.32.23,1.06,1.06,0,0,1,.18.35,2.16,2.16,0,0,1,0,.46v2h-.51v-2.07a.61.61,0,0,0-.16-.45.62.62,0,0,0-.46-.17,1,1,0,0,0-.4.07,1,1,0,0,0-.28.2,1,1,0,0,0-.17.31,1.13,1.13,0,0,0-.05.38v1.73h-.51v-4.23Z" style="fill:#3e1a13"/><path d="M214,124.09a1.35,1.35,0,0,1-.86.26,1.56,1.56,0,0,1-.64-.12,1.15,1.15,0,0,1-.45-.33,1.4,1.4,0,0,1-.28-.51,2.52,2.52,0,0,1-.1-.64,1.74,1.74,0,0,1,.4-1.14,1.28,1.28,0,0,1,.46-.34,1.58,1.58,0,0,1,.58-.11,1.21,1.21,0,0,1,.68.17,1.44,1.44,0,0,1,.43.42,1.73,1.73,0,0,1,.22.57,2.43,2.43,0,0,1,0,.59h-2.29a1.2,1.2,0,0,0,.05.38.9.9,0,0,0,.17.32.84.84,0,0,0,.3.22,1,1,0,0,0,.44.09.86.86,0,0,0,.52-.15.69.69,0,0,0,.27-.45h.5A1.22,1.22,0,0,1,214,124.09Zm-.12-2a.9.9,0,0,0-.18-.28.75.75,0,0,0-.28-.18.77.77,0,0,0-.34-.07.78.78,0,0,0-.35.07.75.75,0,0,0-.27.18.84.84,0,0,0-.18.28,1.23,1.23,0,0,0-.08.33H214A.94.94,0,0,0,213.9,122.13Z" style="fill:#3e1a13"/><path d="M215.57,120.06v4.23h-.51v-4.23Z" style="fill:#3e1a13"/><path d="M216.87,121.23v.41h0a.74.74,0,0,1,.39-.37,1.44,1.44,0,0,1,.59-.11,1.35,1.35,0,0,1,.62.13,1.24,1.24,0,0,1,.44.35,1.75,1.75,0,0,1,.26.51,2.15,2.15,0,0,1,0,1.23,1.45,1.45,0,0,1-.26.51,1.24,1.24,0,0,1-.44.34,1.44,1.44,0,0,1-.61.12,1.14,1.14,0,0,1-.25,0,1.47,1.47,0,0,1-.28-.08.89.89,0,0,1-.25-.14.77.77,0,0,1-.21-.23h0v1.57h-.5v-4.22Zm1.81,1.08a1.49,1.49,0,0,0-.17-.36.94.94,0,0,0-.3-.26.93.93,0,0,0-.42-.09.81.81,0,0,0-.43.1.92.92,0,0,0-.29.26,1.24,1.24,0,0,0-.17.37,2,2,0,0,0-.05.42,2.12,2.12,0,0,0,.05.44,1.4,1.4,0,0,0,.17.37.94.94,0,0,0,.3.26,1,1,0,0,0,.45.1.81.81,0,0,0,.43-.11.7.7,0,0,0,.28-.26,1.18,1.18,0,0,0,.16-.38,2.12,2.12,0,0,0,0-.44A1.51,1.51,0,0,0,218.68,122.31Z" style="fill:#3e1a13"/><path d="M164.74,127.78v-.61h.5v.61Zm.5.55v3.06h-.5v-3.06Z" style="fill:#3e1a13"/><path d="M166.5,128.33v.45h0a1.13,1.13,0,0,1,1-.52,1.07,1.07,0,0,1,.51.12.64.64,0,0,1,.33.4,1.12,1.12,0,0,1,.4-.38,1.19,1.19,0,0,1,.56-.14,1.86,1.86,0,0,1,.42.05.91.91,0,0,1,.31.16.71.71,0,0,1,.21.27,1,1,0,0,1,.08.41v2.24h-.51v-2a1.14,1.14,0,0,0,0-.27.73.73,0,0,0-.09-.22.37.37,0,0,0-.18-.14.67.67,0,0,0-.3,0,.78.78,0,0,0-.58.21.74.74,0,0,0-.22.57v1.9h-.5v-2a1.27,1.27,0,0,0,0-.28.67.67,0,0,0-.09-.21.39.39,0,0,0-.17-.14.63.63,0,0,0-.29,0,.84.84,0,0,0-.37.08.8.8,0,0,0-.26.22,1,1,0,0,0-.14.25.74.74,0,0,0,0,.23v1.9H166v-3.06Z" style="fill:#3e1a13"/><path d="M171.6,128.33v.42h0a.71.71,0,0,1,.39-.37,1.4,1.4,0,0,1,.58-.12,1.32,1.32,0,0,1,.62.13,1.39,1.39,0,0,1,.44.35,1.34,1.34,0,0,1,.26.52,2,2,0,0,1,.09.61,2.51,2.51,0,0,1-.08.62,1.58,1.58,0,0,1-.26.5,1.22,1.22,0,0,1-.44.34,1.33,1.33,0,0,1-.61.13l-.26,0a1.08,1.08,0,0,1-.53-.22.7.7,0,0,1-.2-.22h0v1.57h-.51v-4.23Zm1.8,1.09a1,1,0,0,0-.17-.37.88.88,0,0,0-.29-.25,1,1,0,0,0-.43-.09.83.83,0,0,0-.43.1.8.8,0,0,0-.29.26,1.12,1.12,0,0,0-.16.37,1.51,1.51,0,0,0,0,.42,2,2,0,0,0,0,.43,1.1,1.1,0,0,0,.17.38.91.91,0,0,0,.3.25.87.87,0,0,0,.44.1.84.84,0,0,0,.44-.1.9.9,0,0,0,.28-.27,1.08,1.08,0,0,0,.15-.38,2,2,0,0,0,.05-.43A1.42,1.42,0,0,0,173.4,129.42Z" style="fill:#3e1a13"/><path d="M175,128.33V129h0a1.33,1.33,0,0,1,.45-.55,1.11,1.11,0,0,1,.68-.17v.53a1.35,1.35,0,0,0-.52.09.76.76,0,0,0-.34.24,1,1,0,0,0-.19.39,2,2,0,0,0-.06.52v1.36h-.5v-3.06Z" style="fill:#3e1a13"/><path d="M176.49,129.24a1.27,1.27,0,0,1,.28-.51,1.24,1.24,0,0,1,.47-.34,1.64,1.64,0,0,1,1.28,0,1.2,1.2,0,0,1,.46.34,1.42,1.42,0,0,1,.29.51,2.22,2.22,0,0,1,0,1.25,1.42,1.42,0,0,1-.29.51,1.32,1.32,0,0,1-.46.34,1.77,1.77,0,0,1-1.28,0,1.35,1.35,0,0,1-.47-.34,1.27,1.27,0,0,1-.28-.51,1.79,1.79,0,0,1-.1-.62A1.81,1.81,0,0,1,176.49,129.24Zm.51,1.12a1,1,0,0,0,.2.36.84.84,0,0,0,.31.22.77.77,0,0,0,.37.08.9.9,0,0,0,.67-.3,1.07,1.07,0,0,0,.21-.36,1.49,1.49,0,0,0,.07-.49,1.55,1.55,0,0,0-.07-.5,1.07,1.07,0,0,0-.21-.36.83.83,0,0,0-.3-.23.94.94,0,0,0-.37-.07.9.9,0,0,0-.37.07.87.87,0,0,0-.31.23,1,1,0,0,0-.2.36,1.54,1.54,0,0,0-.08.5A1.48,1.48,0,0,0,177,130.36Z" style="fill:#3e1a13"/><path d="M180.8,131.39l-1.14-3.06h.56l.86,2.55h0l.84-2.55h.52l-1.12,3.06Z" style="fill:#3e1a13"/><path d="M185.08,131.2a1.4,1.4,0,0,1-.86.26,1.56,1.56,0,0,1-.64-.12,1.25,1.25,0,0,1-.45-.33,1.4,1.4,0,0,1-.28-.51,2.6,2.6,0,0,1-.1-.65,1.69,1.69,0,0,1,.11-.64,1.64,1.64,0,0,1,.29-.5,1.5,1.5,0,0,1,.46-.33,1.4,1.4,0,0,1,.58-.12,1.29,1.29,0,0,1,.68.17,1.36,1.36,0,0,1,.43.43,1.58,1.58,0,0,1,.22.57,2,2,0,0,1,0,.58h-2.29a1.23,1.23,0,0,0,.05.39,1,1,0,0,0,.17.32,1,1,0,0,0,.3.22,1.19,1.19,0,0,0,.44.08.86.86,0,0,0,.52-.15.69.69,0,0,0,.27-.45h.5A1.25,1.25,0,0,1,185.08,131.2Zm-.12-2a.85.85,0,0,0-.18-.27,1,1,0,0,0-.27-.19,1,1,0,0,0-.35-.06,1,1,0,0,0-.35.06.77.77,0,0,0-.27.19.75.75,0,0,0-.18.28,1.14,1.14,0,0,0-.08.33H185A1,1,0,0,0,185,129.23Z" style="fill:#3e1a13"/><path d="M188.27,127.17v4.22h-.5v-4.22Z" style="fill:#3e1a13"/><path d="M189.08,127.78v-.61h.51v.61Zm.51.55v3.06h-.51v-3.06Z" style="fill:#3e1a13"/><path d="M190.06,128.78v-.45h.52v-.45a.74.74,0,0,1,.21-.57.93.93,0,0,1,.63-.19h.17l.16,0v.43l-.14,0h-.15a.55.55,0,0,0-.28.07.32.32,0,0,0-.1.28v.42h.59v.45h-.59v2.61h-.5v-2.61Z" style="fill:#3e1a13"/><path d="M194.29,131.2a1.43,1.43,0,0,1-.87.26,1.54,1.54,0,0,1-.63-.12,1.25,1.25,0,0,1-.45-.33,1.27,1.27,0,0,1-.28-.51,2.21,2.21,0,0,1-.1-.65,1.91,1.91,0,0,1,.1-.64,1.48,1.48,0,0,1,.3-.5,1.39,1.39,0,0,1,.46-.33,1.37,1.37,0,0,1,.58-.12,1.26,1.26,0,0,1,.67.17,1.39,1.39,0,0,1,.44.43,1.78,1.78,0,0,1,.22.57,2.36,2.36,0,0,1,.05.58h-2.29a1,1,0,0,0,0,.39.83.83,0,0,0,.17.32,1,1,0,0,0,.3.22,1.14,1.14,0,0,0,.43.08.88.88,0,0,0,.53-.15.78.78,0,0,0,.27-.45h.49A1.19,1.19,0,0,1,194.29,131.2Zm-.12-2A.88.88,0,0,0,194,129a.77.77,0,0,0-.27-.19,1,1,0,0,0-.35-.06,1,1,0,0,0-.35.06,1,1,0,0,0-.27.19.88.88,0,0,0-.17.28.89.89,0,0,0-.08.33h1.76A1.3,1.3,0,0,0,194.17,129.23Z" style="fill:#3e1a13"/><path d="M196.64,128.78v-.45h.51v-.45a.74.74,0,0,1,.22-.57.91.91,0,0,1,.63-.19h.16l.17,0v.43l-.15,0H198a.55.55,0,0,0-.28.07.32.32,0,0,0-.1.28v.42h.59v.45h-.59v2.61h-.51v-2.61Z" style="fill:#3e1a13"/><path d="M198.63,129.24a1.4,1.4,0,0,1,.28-.51,1.24,1.24,0,0,1,.47-.34,1.47,1.47,0,0,1,.64-.13,1.44,1.44,0,0,1,.64.13,1.24,1.24,0,0,1,.47.34,1.4,1.4,0,0,1,.28.51,2,2,0,0,1,0,1.25,1.4,1.4,0,0,1-.28.51,1.35,1.35,0,0,1-.47.34,1.59,1.59,0,0,1-.64.12,1.62,1.62,0,0,1-.64-.12,1.35,1.35,0,0,1-.47-.34,1.4,1.4,0,0,1-.28-.51,2,2,0,0,1,0-1.25Zm.51,1.12a1.07,1.07,0,0,0,.21.36.73.73,0,0,0,.3.22.9.9,0,0,0,.74,0,.73.73,0,0,0,.3-.22,1.07,1.07,0,0,0,.21-.36,1.49,1.49,0,0,0,.07-.49,1.55,1.55,0,0,0-.07-.5,1.07,1.07,0,0,0-.21-.36.76.76,0,0,0-.3-.23,1,1,0,0,0-.74,0,.76.76,0,0,0-.3.23,1.07,1.07,0,0,0-.21.36,1.55,1.55,0,0,0-.07.5A1.49,1.49,0,0,0,199.14,130.36Z" style="fill:#3e1a13"/><path d="M202.55,128.33V129h0a1.33,1.33,0,0,1,.45-.55,1.08,1.08,0,0,1,.67-.17v.53a1.29,1.29,0,0,0-.51.09.73.73,0,0,0-.35.24,1.18,1.18,0,0,0-.19.39,2,2,0,0,0-.06.52v1.36h-.5v-3.06Z" style="fill:#3e1a13"/><path d="M207,128.33v.45h-.61v1.9a.52.52,0,0,0,0,.14.22.22,0,0,0,0,.08l.12,0H207v.44h-.38l-.33,0a.49.49,0,0,1-.23-.1.46.46,0,0,1-.13-.2,1.12,1.12,0,0,1,0-.35v-1.94h-.52v-.45h.52v-.91h.5v.91Z" style="fill:#3e1a13"/><path d="M208.08,127.17v1.61h0a.78.78,0,0,1,.16-.24,1,1,0,0,1,.24-.16,1.31,1.31,0,0,1,.28-.09l.28,0a1.41,1.41,0,0,1,.5.08.83.83,0,0,1,.33.24.77.77,0,0,1,.17.35,1.55,1.55,0,0,1,.05.45v2h-.5v-2.07a.61.61,0,0,0-.16-.45.65.65,0,0,0-.46-.16,1,1,0,0,0-.4.07.63.63,0,0,0-.28.2.81.81,0,0,0-.17.3,1.23,1.23,0,0,0-.06.39v1.72h-.5v-4.22Z" style="fill:#3e1a13"/><path d="M213,131.2a1.42,1.42,0,0,1-.86.26,1.56,1.56,0,0,1-.64-.12,1.25,1.25,0,0,1-.45-.33,1.27,1.27,0,0,1-.28-.51,2.21,2.21,0,0,1-.1-.65,1.91,1.91,0,0,1,.1-.64,1.48,1.48,0,0,1,.3-.5,1.39,1.39,0,0,1,.46-.33,1.37,1.37,0,0,1,.58-.12,1.26,1.26,0,0,1,.67.17,1.39,1.39,0,0,1,.44.43,1.78,1.78,0,0,1,.22.57,2.36,2.36,0,0,1,.05.58h-2.29a1.23,1.23,0,0,0,0,.39.83.83,0,0,0,.17.32,1,1,0,0,0,.3.22,1.14,1.14,0,0,0,.43.08.88.88,0,0,0,.53-.15.78.78,0,0,0,.27-.45h.49A1.19,1.19,0,0,1,213,131.2Zm-.12-2a.88.88,0,0,0-.19-.27.77.77,0,0,0-.27-.19.93.93,0,0,0-.34-.06,1,1,0,0,0-.36.06,1,1,0,0,0-.27.19.88.88,0,0,0-.17.28.89.89,0,0,0-.08.33H213A1.3,1.3,0,0,0,212.92,129.23Z" style="fill:#3e1a13"/><path d="M165.18,135.44v.48h0a1.07,1.07,0,0,1,1-.55,1.22,1.22,0,0,1,.5.08.73.73,0,0,1,.33.23.88.88,0,0,1,.17.35,1.66,1.66,0,0,1,.05.46v2h-.5v-2.07a.57.57,0,0,0-.17-.45.61.61,0,0,0-.45-.17,1,1,0,0,0-.4.07.84.84,0,0,0-.28.2.85.85,0,0,0-.17.31,1.12,1.12,0,0,0-.06.38v1.73h-.5v-3.06Z" style="fill:#3e1a13"/><path d="M170.17,138.3a1.36,1.36,0,0,1-.87.26,1.54,1.54,0,0,1-.63-.12,1.26,1.26,0,0,1-.46-.33,1.38,1.38,0,0,1-.27-.51,2.15,2.15,0,0,1-.1-.64,1.87,1.87,0,0,1,.1-.64,1.48,1.48,0,0,1,.3-.5,1.28,1.28,0,0,1,.46-.34,1.52,1.52,0,0,1,.57-.11,1.18,1.18,0,0,1,.68.17,1.24,1.24,0,0,1,.43.42,1.75,1.75,0,0,1,.23.57,2.43,2.43,0,0,1,0,.59h-2.29a1,1,0,0,0,0,.38.76.76,0,0,0,.17.32.84.84,0,0,0,.3.22,1,1,0,0,0,.43.08.89.89,0,0,0,.53-.14.73.73,0,0,0,.26-.45h.5A1.17,1.17,0,0,1,170.17,138.3Zm-.12-2a.92.92,0,0,0-.19-.28.64.64,0,0,0-.27-.18.78.78,0,0,0-.35-.07.81.81,0,0,0-.35.07,1,1,0,0,0-.27.18,1.34,1.34,0,0,0-.18.28,1.21,1.21,0,0,0-.07.33h1.76A1.23,1.23,0,0,0,170.05,136.34Z" style="fill:#3e1a13"/><path d="M170.94,135.44h.64l.74,1.07.76-1.07h.61l-1.06,1.41,1.19,1.65h-.65l-.85-1.27-.86,1.27h-.6l1.14-1.61Z" style="fill:#3e1a13"/><path d="M175.56,135.44v.44H175v1.9a.53.53,0,0,0,0,.14.15.15,0,0,0,.06.09.16.16,0,0,0,.11,0h.43v.45h-.39a1.55,1.55,0,0,1-.33,0,.49.49,0,0,1-.23-.1.37.37,0,0,1-.13-.2,1.44,1.44,0,0,1,0-.34v-2h-.52v-.44h.52v-.92H175v.92Z" style="fill:#3e1a13"/><path d="M180.06,139.36a1.4,1.4,0,0,1-1.08.38,2.28,2.28,0,0,1-.44-.05,1.16,1.16,0,0,1-.4-.16,1,1,0,0,1-.3-.27.83.83,0,0,1-.13-.42h.5a.46.46,0,0,0,.09.23.62.62,0,0,0,.2.15.92.92,0,0,0,.25.09l.26,0a1.08,1.08,0,0,0,.42-.08.81.81,0,0,0,.28-.24.85.85,0,0,0,.16-.36,1.78,1.78,0,0,0,.06-.47V138h0a.78.78,0,0,1-.39.41,1.22,1.22,0,0,1-.56.14,1.26,1.26,0,0,1-.6-.13,1.14,1.14,0,0,1-.42-.33,1.29,1.29,0,0,1-.26-.49,2,2,0,0,1-.09-.6,2.77,2.77,0,0,1,.07-.56,1.64,1.64,0,0,1,.24-.52,1.3,1.3,0,0,1,1.11-.53,1.18,1.18,0,0,1,.53.12,1,1,0,0,1,.38.39h0v-.44h.47v2.8A1.65,1.65,0,0,1,180.06,139.36Zm-.65-1.37a.75.75,0,0,0,.28-.28,1,1,0,0,0,.16-.38,2,2,0,0,0,.05-.42,1.33,1.33,0,0,0-.05-.4,1,1,0,0,0-.15-.35.84.84,0,0,0-.27-.26.82.82,0,0,0-.4-.09.86.86,0,0,0-.41.09.68.68,0,0,0-.28.25.86.86,0,0,0-.16.35,1.51,1.51,0,0,0-.05.42,2,2,0,0,0,0,.42.92.92,0,0,0,.14.37.78.78,0,0,0,.26.28.9.9,0,0,0,.42.1A.87.87,0,0,0,179.41,138Z" style="fill:#3e1a13"/><path d="M183.32,138.3a1.34,1.34,0,0,1-.86.26,1.56,1.56,0,0,1-.64-.12,1.15,1.15,0,0,1-.45-.33,1.56,1.56,0,0,1-.28-.51,2.52,2.52,0,0,1-.1-.64,1.87,1.87,0,0,1,.11-.64,1.48,1.48,0,0,1,.3-.5,1.34,1.34,0,0,1,.45-.34,1.58,1.58,0,0,1,.58-.11,1.21,1.21,0,0,1,.68.17,1.33,1.33,0,0,1,.43.42,2,2,0,0,1,.23.57,3.07,3.07,0,0,1,0,.59h-2.3a1.58,1.58,0,0,0,0,.38.9.9,0,0,0,.17.32.84.84,0,0,0,.3.22,1,1,0,0,0,.44.08A.86.86,0,0,0,183,138a.69.69,0,0,0,.27-.45h.5A1.22,1.22,0,0,1,183.32,138.3Zm-.12-2a.75.75,0,0,0-.18-.28.8.8,0,0,0-.27-.18.81.81,0,0,0-.35-.07.78.78,0,0,0-.35.07.75.75,0,0,0-.27.18.84.84,0,0,0-.18.28,1.23,1.23,0,0,0-.08.33h1.76A.94.94,0,0,0,183.2,136.34Z" style="fill:#3e1a13"/><path d="M184.81,135.44v.48h0a1.06,1.06,0,0,1,1-.55,1.22,1.22,0,0,1,.5.08.86.86,0,0,1,.33.23.88.88,0,0,1,.17.35,2.16,2.16,0,0,1,.05.46v2h-.5v-2.07a.61.61,0,0,0-.17-.45.62.62,0,0,0-.46-.17.94.94,0,0,0-.39.07.88.88,0,0,0-.29.2.83.83,0,0,0-.16.31,1.12,1.12,0,0,0-.06.38v1.73h-.5v-3.06Z" style="fill:#3e1a13"/><path d="M189.79,138.3a1.32,1.32,0,0,1-.86.26,1.59,1.59,0,0,1-.64-.12,1.15,1.15,0,0,1-.45-.33,1.38,1.38,0,0,1-.27-.51,2.14,2.14,0,0,1-.11-.64,1.87,1.87,0,0,1,.11-.64,1.48,1.48,0,0,1,.3-.5,1.34,1.34,0,0,1,.45-.34,1.58,1.58,0,0,1,.58-.11,1.21,1.21,0,0,1,.68.17,1.33,1.33,0,0,1,.43.42,2,2,0,0,1,.23.57,3.07,3.07,0,0,1,0,.59H188a1.58,1.58,0,0,0,0,.38,1.09,1.09,0,0,0,.17.32.79.79,0,0,0,.31.22.94.94,0,0,0,.43.08.84.84,0,0,0,.52-.14.69.69,0,0,0,.27-.45h.5A1.22,1.22,0,0,1,189.79,138.3Zm-.12-2a.75.75,0,0,0-.18-.28.8.8,0,0,0-.27-.18.81.81,0,0,0-.35-.07.78.78,0,0,0-.35.07.75.75,0,0,0-.27.18.84.84,0,0,0-.18.28,1.23,1.23,0,0,0-.08.33h1.76A.76.76,0,0,0,189.67,136.34Z" style="fill:#3e1a13"/><path d="M191.26,135.44v.64h0a1.33,1.33,0,0,1,.45-.55,1.08,1.08,0,0,1,.67-.16v.53a1.62,1.62,0,0,0-.52.08,1,1,0,0,0-.34.24,1,1,0,0,0-.19.39,2.09,2.09,0,0,0-.06.53v1.36h-.5v-3.06Z" style="fill:#3e1a13"/><path d="M195.49,138.49a.74.74,0,0,1-.36.07.41.41,0,0,1-.31-.11.45.45,0,0,1-.12-.35,1.17,1.17,0,0,1-.48.35,1.44,1.44,0,0,1-.59.11,1.75,1.75,0,0,1-.4,0,1.35,1.35,0,0,1-.32-.15.84.84,0,0,1-.22-.27.9.9,0,0,1-.08-.39.91.91,0,0,1,.09-.43.78.78,0,0,1,.24-.27,1,1,0,0,1,.33-.15,2.34,2.34,0,0,1,.38-.09l.39-.06.33-.06a.82.82,0,0,0,.23-.11.31.31,0,0,0,.08-.22.54.54,0,0,0-.06-.27.46.46,0,0,0-.16-.15.57.57,0,0,0-.22-.07l-.24,0a1,1,0,0,0-.53.12.53.53,0,0,0-.24.46h-.5a1.13,1.13,0,0,1,.12-.48,1,1,0,0,1,.28-.32,1.36,1.36,0,0,1,.41-.17,1.89,1.89,0,0,1,.49,0,2.83,2.83,0,0,1,.41,0,1.07,1.07,0,0,1,.37.12.72.72,0,0,1,.27.25.92.92,0,0,1,.1.44v1.57a.94.94,0,0,0,0,.26c0,.05.06.08.14.08l.15,0Zm-.82-1.58a.52.52,0,0,1-.25.1,3,3,0,0,1-.32.06l-.34.05a1,1,0,0,0-.31.08.62.62,0,0,0-.22.17.45.45,0,0,0-.08.3.36.36,0,0,0,0,.21.35.35,0,0,0,.13.14.75.75,0,0,0,.18.08l.23,0a1.06,1.06,0,0,0,.42-.07.74.74,0,0,0,.29-.17.63.63,0,0,0,.17-.23.47.47,0,0,0,0-.22Z" style="fill:#3e1a13"/><path d="M197.27,135.44v.44h-.61v1.9a.53.53,0,0,0,0,.14.15.15,0,0,0,.06.09.18.18,0,0,0,.11,0h.43v.45h-.39a1.55,1.55,0,0,1-.33,0,.49.49,0,0,1-.23-.1.44.44,0,0,1-.13-.2,1.44,1.44,0,0,1,0-.34v-2h-.52v-.44h.52v-.92h.51v.92Z" style="fill:#3e1a13"/><path d="M197.85,134.89v-.62h.51v.62Zm.51.55v3.06h-.51v-3.06Z" style="fill:#3e1a13"/><path d="M199.07,136.34a1.27,1.27,0,0,1,.28-.51,1.35,1.35,0,0,1,.47-.34,1.77,1.77,0,0,1,1.28,0,1.45,1.45,0,0,1,.47.34,1.4,1.4,0,0,1,.28.51,2.18,2.18,0,0,1,.09.63,2.13,2.13,0,0,1-.09.63,1.44,1.44,0,0,1-.28.5,1.32,1.32,0,0,1-.47.34,1.77,1.77,0,0,1-1.28,0,1.24,1.24,0,0,1-.47-.34,1.3,1.3,0,0,1-.28-.5,1.85,1.85,0,0,1-.1-.63A1.89,1.89,0,0,1,199.07,136.34Zm.51,1.12a1.18,1.18,0,0,0,.2.37,1,1,0,0,0,.31.22.9.9,0,0,0,.37.07.85.85,0,0,0,.67-.29,1,1,0,0,0,.21-.37,1.45,1.45,0,0,0,.07-.49,1.49,1.49,0,0,0-.07-.49,1,1,0,0,0-.21-.37.81.81,0,0,0-.3-.22,1,1,0,0,0-.37-.08.91.91,0,0,0-.37.08.84.84,0,0,0-.31.22,1.18,1.18,0,0,0-.2.37,1.48,1.48,0,0,0-.08.49A1.44,1.44,0,0,0,199.58,137.46Z" style="fill:#3e1a13"/><path d="M203,135.44v.48h0a1.06,1.06,0,0,1,1-.55,1.25,1.25,0,0,1,.5.08.75.75,0,0,1,.32.23.78.78,0,0,1,.18.35,2.16,2.16,0,0,1,0,.46v2h-.5v-2.07a.61.61,0,0,0-.17-.45.62.62,0,0,0-.46-.17.94.94,0,0,0-.39.07.88.88,0,0,0-.29.2.83.83,0,0,0-.16.31,1.12,1.12,0,0,0-.06.38v1.73h-.5v-3.06Z" style="fill:#3e1a13"/><path d="M207.92,139a5.58,5.58,0,0,1-.3-.66,4.39,4.39,0,0,1-.18-.69,3.67,3.67,0,0,1-.07-.75,4.68,4.68,0,0,1,.93-2.73h.39a4.82,4.82,0,0,0-.61,1.34,5.69,5.69,0,0,0-.17,1.39,5.34,5.34,0,0,0,.18,1.41,5,5,0,0,0,.6,1.35h-.39A7.44,7.44,0,0,1,207.92,139Z" style="fill:#3e1a13"/><path d="M209.22,135a1,1,0,0,1,.16-.38.7.7,0,0,1,.3-.26.88.88,0,0,1,.45-.1,1,1,0,0,1,.46.09.81.81,0,0,1,.29.26.92.92,0,0,1,.15.38,2,2,0,0,1,0,.9,1.1,1.1,0,0,1-.17.38.73.73,0,0,1-.29.26.84.84,0,0,1-.44.1,1,1,0,0,1-.45-.09.71.71,0,0,1-.29-.25,1.14,1.14,0,0,1-.17-.37,2.24,2.24,0,0,1-.05-.46A2.31,2.31,0,0,1,209.22,135Zm.41.73a.89.89,0,0,0,.07.28.54.54,0,0,0,.15.21.37.37,0,0,0,.26.09.47.47,0,0,0,.28-.08.62.62,0,0,0,.15-.21.89.89,0,0,0,.08-.29,2.83,2.83,0,0,0,0-.29c0-.08,0-.18,0-.28a.89.89,0,0,0-.07-.28.51.51,0,0,0-.15-.21.36.36,0,0,0-.27-.08.4.4,0,0,0-.27.08.8.8,0,0,0-.15.21,1.29,1.29,0,0,0-.08.28c0,.1,0,.2,0,.29A2.72,2.72,0,0,0,209.63,135.77Zm3.8-1.55-3.18,4.4h-.51l3.19-4.4Zm-1.28,2.72a1.08,1.08,0,0,1,.15-.38,1,1,0,0,1,.3-.27,1,1,0,0,1,.46-.09,1,1,0,0,1,.46.09.88.88,0,0,1,.29.25,1.16,1.16,0,0,1,.15.38,2.25,2.25,0,0,1,0,.46,1.73,1.73,0,0,1-.05.45,1.18,1.18,0,0,1-.16.38,1.08,1.08,0,0,1-.3.26.91.91,0,0,1-.43.09,1,1,0,0,1-.45-.09.73.73,0,0,1-.3-.25,1,1,0,0,1-.16-.37,1.64,1.64,0,0,1-.05-.45A1.71,1.71,0,0,1,212.15,136.94Zm.41.73a1.07,1.07,0,0,0,.06.27.6.6,0,0,0,.16.22.4.4,0,0,0,.26.08.4.4,0,0,0,.27-.08.49.49,0,0,0,.16-.21.82.82,0,0,0,.07-.28c0-.1,0-.2,0-.29a2.72,2.72,0,0,0,0-.28,1.91,1.91,0,0,0-.07-.28.57.57,0,0,0-.15-.21.45.45,0,0,0-.54,0,.49.49,0,0,0-.16.21,1.15,1.15,0,0,0-.07.28c0,.1,0,.19,0,.28S212.55,137.57,212.56,137.67Z" style="fill:#3e1a13"/><path d="M215.09,138.33a5.35,5.35,0,0,0,.18-1.39,5.1,5.1,0,0,0-.77-2.77h.37a6,6,0,0,1,.68,1.33,5.56,5.56,0,0,1,.19.7,4.49,4.49,0,0,1-.17,2.15,4.48,4.48,0,0,1-.7,1.31h-.37A4.56,4.56,0,0,0,215.09,138.33Z" style="fill:#3e1a13"/><path d="M156.78,112.3a3.57,3.57,0,1,0,3.57,3.57,3.57,3.57,0,0,0-3.57-3.57" style="fill:#8ab8e4"/><polyline points="157.17 157.3 161.83 163.13 169.17 156.88" style="fill:none;stroke:#401b13;stroke-linecap:round;stroke-width:1.059999942779541px"/><polygon points="170.07 158.89 171.49 154.91 167.33 155.67 170.07 158.89" style="fill:#401b13"/></svg>