<svg xmlns="http://www.w3.org/2000/svg" viewBox="0 0 113.48 220.97"><defs><style>.cls-1{font-size:7.5px;fill:#3f1a13;}.cls-1,.cls-9{font-family:HelveticaNeue, Helvetica Neue;}.cls-2{fill:#1c3d75;}.cls-15,.cls-3,.cls-7{fill:none;}.cls-3{stroke:#3f1a13;stroke-width:1.06px;}.cls-3,.cls-7,.cls-8{stroke-miterlimit:10;}.cls-4{fill:#f8b233;}.cls-5{fill:#26a3de;}.cls-6{fill:#c46157;}.cls-7{stroke:#f8b233;stroke-width:3px;}.cls-13,.cls-8,.cls-9{fill:#3e1a13;}.cls-15,.cls-8{stroke:#d9d1d0;stroke-width:0.5px;}.cls-9{font-size:6px;}.cls-10{fill:#c46057;}.cls-11{fill:#2aa2dc;}.cls-12{fill:#f7b232;}.cls-14{fill:#1b3e73;}.cls-15{stroke-linecap:round;}</style></defs><g id="Layer_2" data-name="Layer 2"><g id="Isolation_Mode" data-name="Isolation Mode"><text class="cls-1" transform="translate(0.51 74.96)">The bigger the yellow circle, <tspan x="0" y="9.5">the more the likelyhood of a </tspan><tspan x="0" y="19">plunge in the cultural </tspan><tspan x="0" y="28.5">authority of science.</tspan></text><path class="cls-2" d="M76.92,12.78a5.8,5.8,0,1,1-5.79,5.8,5.79,5.79,0,0,1,5.79-5.8"/><polyline class="cls-3" points="8.22 18.56 25.29 46.41 44.83 17.41"/><circle class="cls-4" cx="25.08" cy="45.99" r="7.91"/><path class="cls-5" d="M44.46,0A17.41,17.41,0,1,1,27.08,17.41,17.39,17.39,0,0,1,44.46,0"/><path class="cls-6" d="M8.65,10.16A8.57,8.57,0,1,1,.09,18.73a8.56,8.56,0,0,1,8.56-8.57"/><line class="cls-7" x1="25.29" y1="46.4" x2="44.83" y2="17.41"/><line class="cls-8" x1="73.52" y1="218.24" x2="80.64" y2="207.67"/><text class="cls-9" transform="translate(10.3 215.8)">High risk of plunge</text><text class="cls-9" transform="translate(10.86 189.76)">Low risk of plunge</text><path class="cls-10" d="M3.57,118.16a3.57,3.57,0,1,0,3.57,3.57,3.57,3.57,0,0,0-3.57-3.57"/><text class="cls-9" transform="translate(10.13 123.28)">Religious, low trust in science (%)</text><path class="cls-11" d="M3.57,151.08a3.57,3.57,0,1,0,3.57,3.57,3.57,3.57,0,0,0-3.57-3.57"/><text class="cls-9" transform="translate(10.14 156.2)">Religious, high trust in science (%) </text><path class="cls-12" d="M3.57,130.55a3.57,3.57,0,1,0,3.57,3.57,3.57,3.57,0,0,0-3.57-3.57"/><path class="cls-13" d="M13.19,132a1.28,1.28,0,0,0-.78-.23,1.33,1.33,0,0,0-.65.14,1.23,1.23,0,0,0-.45.39,1.47,1.47,0,0,0-.26.55,2.37,2.37,0,0,0-.09.65,2.5,2.5,0,0,0,.09.69,1.49,1.49,0,0,0,.26.57,1.22,1.22,0,0,0,.45.39,1.34,1.34,0,0,0,.66.14,1.31,1.31,0,0,0,.5-.09,1.12,1.12,0,0,0,.38-.26,1.3,1.3,0,0,0,.25-.39,1.85,1.85,0,0,0,.11-.49h.57a2,2,0,0,1-.56,1.26,1.82,1.82,0,0,1-1.3.45,2.14,2.14,0,0,1-.87-.17,1.82,1.82,0,0,1-.62-.47,2.28,2.28,0,0,1-.37-.71,3.12,3.12,0,0,1-.12-.88,3.17,3.17,0,0,1,.13-.88,2.13,2.13,0,0,1,.39-.71,1.74,1.74,0,0,1,.64-.49,2.14,2.14,0,0,1,.87-.17,2.25,2.25,0,0,1,.64.09,1.64,1.64,0,0,1,.53.26,1.51,1.51,0,0,1,.39.44,1.58,1.58,0,0,1,.2.6h-.57A1,1,0,0,0,13.19,132Z"/><path class="cls-13" d="M15.36,131.38V133h0a.74.74,0,0,1,.17-.25,1,1,0,0,1,.24-.16,1.52,1.52,0,0,1,.28-.09l.29,0a1.52,1.52,0,0,1,.51.08.83.83,0,0,1,.33.24,1.06,1.06,0,0,1,.18.35,2.16,2.16,0,0,1,.05.46v2h-.51v-2.1a.61.61,0,0,0-.17-.45.6.6,0,0,0-.46-.17,1,1,0,0,0-.41.07.84.84,0,0,0-.28.2.79.79,0,0,0-.17.31,1.23,1.23,0,0,0-.06.39v1.75h-.51v-4.28Z"/><path class="cls-13" d="M18.11,133.48a1.55,1.55,0,0,1,.29-.52,1.42,1.42,0,0,1,.48-.35,1.59,1.59,0,0,1,.64-.12,1.6,1.6,0,0,1,.65.12,1.42,1.42,0,0,1,.48.35,1.53,1.53,0,0,1,.28.52,1.85,1.85,0,0,1,.1.63,1.91,1.91,0,0,1-.1.64,1.4,1.4,0,0,1-.28.51,1.42,1.42,0,0,1-.48.35,1.6,1.6,0,0,1-.65.12,1.59,1.59,0,0,1-.64-.12,1.4,1.4,0,0,1-.77-.86,2.2,2.2,0,0,1-.09-.64A2.13,2.13,0,0,1,18.11,133.48Zm.52,1.14a1.07,1.07,0,0,0,.21.36,1,1,0,0,0,.31.23.94.94,0,0,0,.37.07,1,1,0,0,0,.38-.07,1,1,0,0,0,.31-.23,1,1,0,0,0,.2-.36,1.6,1.6,0,0,0,.08-.51,1.59,1.59,0,0,0-.08-.5,1.1,1.1,0,0,0-.2-.37,1,1,0,0,0-.31-.22.81.81,0,0,0-.38-.08.8.8,0,0,0-.37.08,1,1,0,0,0-.31.22,1.12,1.12,0,0,0-.21.37,1.59,1.59,0,0,0-.07.5A1.61,1.61,0,0,0,18.63,134.62Z"/><path class="cls-13" d="M21.56,133.48a1.4,1.4,0,0,1,.29-.52,1.29,1.29,0,0,1,.47-.35,1.64,1.64,0,0,1,.65-.12,1.67,1.67,0,0,1,.65.12,1.48,1.48,0,0,1,.47.35,1.55,1.55,0,0,1,.29.52,2.13,2.13,0,0,1,.09.63,2.2,2.2,0,0,1-.09.64,1.42,1.42,0,0,1-.29.51,1.48,1.48,0,0,1-.47.35,1.67,1.67,0,0,1-.65.12,1.64,1.64,0,0,1-.65-.12,1.43,1.43,0,0,1-.76-.86,1.91,1.91,0,0,1-.1-.64A1.85,1.85,0,0,1,21.56,133.48Zm.52,1.14a1.25,1.25,0,0,0,.2.36,1,1,0,0,0,.31.23,1,1,0,0,0,.38.07.94.94,0,0,0,.37-.07,1,1,0,0,0,.31-.23,1.07,1.07,0,0,0,.21-.36,1.61,1.61,0,0,0,.07-.51,1.59,1.59,0,0,0-.07-.5,1.12,1.12,0,0,0-.21-.37,1,1,0,0,0-.31-.22.8.8,0,0,0-.37-.08.81.81,0,0,0-.38.08,1,1,0,0,0-.31.22,1.31,1.31,0,0,0-.2.37,1.59,1.59,0,0,0-.08.5A1.6,1.6,0,0,0,22.08,134.62Z"/><path class="cls-13" d="M25.46,135a.58.58,0,0,0,.19.19.78.78,0,0,0,.27.09,1,1,0,0,0,.3,0h.25l.24-.07a.45.45,0,0,0,.19-.14.36.36,0,0,0,.07-.24.34.34,0,0,0-.15-.3,1.21,1.21,0,0,0-.38-.16l-.49-.12a2.43,2.43,0,0,1-.48-.14,1,1,0,0,1-.38-.26.68.68,0,0,1-.15-.47.72.72,0,0,1,.11-.4.87.87,0,0,1,.27-.27,1.12,1.12,0,0,1,.37-.16,1.92,1.92,0,0,1,.41,0,2.33,2.33,0,0,1,.48,0,1.29,1.29,0,0,1,.4.16.79.79,0,0,1,.27.3,1.08,1.08,0,0,1,.12.47h-.51a.49.49,0,0,0-.08-.25.61.61,0,0,0-.16-.16.63.63,0,0,0-.23-.08,1,1,0,0,0-.25,0,.93.93,0,0,0-.23,0,.65.65,0,0,0-.21.06.4.4,0,0,0-.16.12.29.29,0,0,0-.06.19.28.28,0,0,0,.09.22.82.82,0,0,0,.24.15,1.68,1.68,0,0,0,.32.09l.37.08.37.11a1.07,1.07,0,0,1,.32.16.66.66,0,0,1,.23.24.76.76,0,0,1,.09.38.83.83,0,0,1-.12.46,1,1,0,0,1-.3.31,1.46,1.46,0,0,1-.43.15,2.59,2.59,0,0,1-.47,0,1.93,1.93,0,0,1-.49-.06,1.13,1.13,0,0,1-.42-.17.83.83,0,0,1-.28-.33,1,1,0,0,1-.13-.48h.51A.61.61,0,0,0,25.46,135Z"/><path class="cls-13" d="M30.27,135.46a1.38,1.38,0,0,1-.88.27,1.59,1.59,0,0,1-.64-.12,1.2,1.2,0,0,1-.46-.34,1.27,1.27,0,0,1-.28-.51,2.28,2.28,0,0,1-.1-.66,2,2,0,0,1,.1-.65,1.66,1.66,0,0,1,.31-.51,1.39,1.39,0,0,1,.46-.33,1.4,1.4,0,0,1,.58-.12,1.31,1.31,0,0,1,.69.17,1.39,1.39,0,0,1,.44.43,2,2,0,0,1,.23.58,2.48,2.48,0,0,1,.05.59H28.45a1.23,1.23,0,0,0,0,.39,1.06,1.06,0,0,0,.18.33.84.84,0,0,0,.3.22,1,1,0,0,0,.44.08.81.81,0,0,0,.53-.15.69.69,0,0,0,.27-.45h.51A1.22,1.22,0,0,1,30.27,135.46Zm-.12-2a.92.92,0,0,0-.19-.28.9.9,0,0,0-.28-.18.91.91,0,0,0-.7,0,.77.77,0,0,0-.28.19,1.12,1.12,0,0,0-.18.28.89.89,0,0,0-.07.34h1.78A1.28,1.28,0,0,0,30.15,133.47Z"/><path class="cls-13" d="M33.43,132.56v.65h0a1.33,1.33,0,0,1,.45-.55,1.14,1.14,0,0,1,.69-.17V133a1.54,1.54,0,0,0-.52.08.77.77,0,0,0-.35.25,1,1,0,0,0-.19.39,2.13,2.13,0,0,0-.07.53v1.38H33v-3.1Z"/><path class="cls-13" d="M37.16,135.46a1.4,1.4,0,0,1-.88.27,1.56,1.56,0,0,1-.64-.12,1.13,1.13,0,0,1-.46-.34,1.27,1.27,0,0,1-.28-.51,2.68,2.68,0,0,1-.11-.66,2,2,0,0,1,.11-.65,1.63,1.63,0,0,1,.3-.51,1.43,1.43,0,0,1,.47-.33,1.37,1.37,0,0,1,.58-.12,1.31,1.31,0,0,1,.69.17,1.39,1.39,0,0,1,.44.43,1.7,1.7,0,0,1,.22.58,2.51,2.51,0,0,1,.06.59H35.33a1.6,1.6,0,0,0,.05.39,1.06,1.06,0,0,0,.18.33.84.84,0,0,0,.3.22,1,1,0,0,0,.44.08.81.81,0,0,0,.53-.15.69.69,0,0,0,.27-.45h.51A1.22,1.22,0,0,1,37.16,135.46Zm-.13-2a.75.75,0,0,0-.18-.28.9.9,0,0,0-.28-.18.78.78,0,0,0-.35-.07.86.86,0,0,0-.36.07.83.83,0,0,0-.27.19.9.9,0,0,0-.18.28,1.13,1.13,0,0,0-.08.34h1.79A1,1,0,0,0,37,133.47Z"/><path class="cls-13" d="M38.72,131.38v4.28h-.51v-4.28Z"/><path class="cls-13" d="M39.54,132v-.62h.51V132Zm.51.56v3.1h-.51v-3.1Z"/><path class="cls-13" d="M43.17,136.54a1.41,1.41,0,0,1-1.09.38,2.28,2.28,0,0,1-.44,0,1.46,1.46,0,0,1-.41-.16.89.89,0,0,1-.3-.28.81.81,0,0,1-.13-.43h.51a.34.34,0,0,0,.09.24.74.74,0,0,0,.19.16l.26.08.26,0a.94.94,0,0,0,.43-.09.85.85,0,0,0,.29-.24,1,1,0,0,0,.16-.37,1.74,1.74,0,0,0,0-.47v-.21h0a.84.84,0,0,1-.4.43,1.24,1.24,0,0,1-.56.13,1.41,1.41,0,0,1-.61-.12,1.32,1.32,0,0,1-.43-.34,1.26,1.26,0,0,1-.26-.5,2,2,0,0,1-.09-.6,2.22,2.22,0,0,1,.07-.57A1.7,1.7,0,0,1,41,133a1.23,1.23,0,0,1,.45-.39,1.36,1.36,0,0,1,.67-.15,1.08,1.08,0,0,1,.54.13A.84.84,0,0,1,43,133h0v-.44h.48v2.84A1.59,1.59,0,0,1,43.17,136.54Zm-.65-1.4a.84.84,0,0,0,.29-.27,1.68,1.68,0,0,0,.16-.39,2.1,2.1,0,0,0,.05-.43,1.75,1.75,0,0,0-.05-.4,1.05,1.05,0,0,0-.15-.36.78.78,0,0,0-.28-.26.82.82,0,0,0-.4-.09.82.82,0,0,0-.71.34,1,1,0,0,0-.16.36,2,2,0,0,0-.05.43,2,2,0,0,0,0,.42,1.26,1.26,0,0,0,.15.38.75.75,0,0,0,.26.27.82.82,0,0,0,.42.11A.81.81,0,0,0,42.52,135.14Z"/><path class="cls-13" d="M44.32,132v-.62h.51V132Zm.51.56v3.1h-.51v-3.1Z"/><path class="cls-13" d="M45.55,133.48a1.55,1.55,0,0,1,.29-.52,1.38,1.38,0,0,1,.47-.35,1.67,1.67,0,0,1,.65-.12,1.6,1.6,0,0,1,.65.12,1.38,1.38,0,0,1,.47.35,1.4,1.4,0,0,1,.29.52,2.13,2.13,0,0,1,.1.63,2.2,2.2,0,0,1-.1.64,1.28,1.28,0,0,1-.29.51,1.38,1.38,0,0,1-.47.35,1.6,1.6,0,0,1-.65.12,1.67,1.67,0,0,1-.65-.12,1.38,1.38,0,0,1-.47-.35,1.42,1.42,0,0,1-.29-.51,2.2,2.2,0,0,1-.1-.64A2.13,2.13,0,0,1,45.55,133.48Zm.52,1.14a1.07,1.07,0,0,0,.21.36,1,1,0,0,0,.31.23.9.9,0,0,0,.37.07,1,1,0,0,0,.38-.07,1,1,0,0,0,.3-.23,1.07,1.07,0,0,0,.21-.36,1.6,1.6,0,0,0,.08-.51,1.59,1.59,0,0,0-.08-.5,1.12,1.12,0,0,0-.21-.37.93.93,0,0,0-.3-.22.84.84,0,0,0-.38-.08.77.77,0,0,0-.37.08,1,1,0,0,0-.31.22,1.12,1.12,0,0,0-.21.37,1.59,1.59,0,0,0-.07.5A1.61,1.61,0,0,0,46.07,134.62Z"/><path class="cls-13" d="M49.55,132.56v.49h0a1.08,1.08,0,0,1,1-.56,1.52,1.52,0,0,1,.51.08,1,1,0,0,1,.33.24.88.88,0,0,1,.17.35,1.66,1.66,0,0,1,.05.46v2h-.51v-2.1a.57.57,0,0,0-.62-.62.89.89,0,0,0-.7.27,1.17,1.17,0,0,0-.17.31,1.6,1.6,0,0,0-.05.39v1.75h-.51v-3.1Z"/><path class="cls-13" d="M54.1,132v-.62h.51V132Zm.51.56v3.1H54.1v-3.1Z"/><path class="cls-13" d="M55.88,132.56v.49h0a1.09,1.09,0,0,1,1-.56,1.43,1.43,0,0,1,.51.08.83.83,0,0,1,.33.24.78.78,0,0,1,.18.35,2.16,2.16,0,0,1,0,.46v2h-.51v-2.1a.61.61,0,0,0-.17-.45.58.58,0,0,0-.46-.17,1,1,0,0,0-.4.07.88.88,0,0,0-.29.2.94.94,0,0,0-.17.31,1.23,1.23,0,0,0-.06.39v1.75H55.4v-3.1Z"/><path class="cls-13" d="M62.26,133.1a.76.76,0,0,0-.51-.16,1,1,0,0,0-.47.1.84.84,0,0,0-.29.27,1,1,0,0,0-.16.39,1.64,1.64,0,0,0,0,.45,1.93,1.93,0,0,0,0,.42,1,1,0,0,0,.16.36.78.78,0,0,0,.28.26.88.88,0,0,0,.41.09.86.86,0,0,0,.6-.19,1,1,0,0,0,.26-.56h.52a1.47,1.47,0,0,1-.43.89,1.38,1.38,0,0,1-.94.31,1.57,1.57,0,0,1-.63-.12,1.12,1.12,0,0,1-.45-.32,1.44,1.44,0,0,1-.28-.5,2.15,2.15,0,0,1-.09-.64,2.27,2.27,0,0,1,.09-.65,1.56,1.56,0,0,1,.27-.53,1.23,1.23,0,0,1,.46-.35,1.47,1.47,0,0,1,.64-.13,2,2,0,0,1,.5.06,1.2,1.2,0,0,1,.41.2,1.17,1.17,0,0,1,.29.33,1.29,1.29,0,0,1,.14.48h-.53A.77.77,0,0,0,62.26,133.1Z"/><path class="cls-13" d="M66.38,135.65a.75.75,0,0,1-.37.08.43.43,0,0,1-.31-.11.5.5,0,0,1-.12-.37,1.25,1.25,0,0,1-.49.37,1.73,1.73,0,0,1-.6.11,1.68,1.68,0,0,1-.4,0,.78.78,0,0,1-.55-.42,1,1,0,0,1-.08-.4.91.91,0,0,1,.09-.43.78.78,0,0,1,.24-.27,1.26,1.26,0,0,1,.33-.16l.39-.09.4-.06.33-.06a.62.62,0,0,0,.23-.12.26.26,0,0,0,.08-.22.48.48,0,0,0-.06-.26.41.41,0,0,0-.16-.16.57.57,0,0,0-.22-.07,1.06,1.06,0,0,0-.25,0,1.13,1.13,0,0,0-.54.12.53.53,0,0,0-.23.47h-.51a1.14,1.14,0,0,1,.12-.49.89.89,0,0,1,.29-.32,1.38,1.38,0,0,1,.41-.18,2.54,2.54,0,0,1,.49,0,3,3,0,0,1,.42,0,1.21,1.21,0,0,1,.38.12.75.75,0,0,1,.27.26.92.92,0,0,1,.1.44v1.59a1.42,1.42,0,0,0,0,.26c0,.06.06.09.14.09l.16,0Zm-.83-1.6a.64.64,0,0,1-.25.11l-.33.05-.35,0a1.4,1.4,0,0,0-.31.09.62.62,0,0,0-.22.17.45.45,0,0,0-.09.3.48.48,0,0,0,0,.22.57.57,0,0,0,.13.14.62.62,0,0,0,.19.07.85.85,0,0,0,.23,0,1.11,1.11,0,0,0,.43-.07,1.07,1.07,0,0,0,.3-.17.69.69,0,0,0,.16-.23.53.53,0,0,0,.06-.23Z"/><path class="cls-13" d="M67.24,135a.58.58,0,0,0,.19.19.8.8,0,0,0,.26.09,1.05,1.05,0,0,0,.31,0h.25l.24-.07a.42.42,0,0,0,.26-.38.34.34,0,0,0-.15-.3,1.21,1.21,0,0,0-.38-.16l-.49-.12a2.53,2.53,0,0,1-.49-.14,1,1,0,0,1-.37-.26.68.68,0,0,1-.15-.47.72.72,0,0,1,.1-.4.87.87,0,0,1,.27-.27,1.18,1.18,0,0,1,.38-.16,1.84,1.84,0,0,1,.41,0,2.45,2.45,0,0,1,.48,0,1.29,1.29,0,0,1,.4.16.79.79,0,0,1,.27.3,1.08,1.08,0,0,1,.12.47h-.51a.61.61,0,0,0-.08-.25.52.52,0,0,0-.17-.16.58.58,0,0,0-.22-.08,1.07,1.07,0,0,0-.25,0,.9.9,0,0,0-.23,0,.79.79,0,0,0-.22.06.44.44,0,0,0-.15.12.29.29,0,0,0-.06.19.28.28,0,0,0,.09.22.7.7,0,0,0,.24.15,1.35,1.35,0,0,0,.32.09l.36.08.38.11a1.07,1.07,0,0,1,.32.16.66.66,0,0,1,.23.24.76.76,0,0,1,.09.38.83.83,0,0,1-.12.46.92.92,0,0,1-.31.31,1.3,1.3,0,0,1-.42.15,2.59,2.59,0,0,1-.47,0,2,2,0,0,1-.5-.06,1.15,1.15,0,0,1-.41-.17.85.85,0,0,1-.29-.33,1.13,1.13,0,0,1-.12-.48h.51A.61.61,0,0,0,67.24,135Z"/><path class="cls-13" d="M72.05,135.46a1.42,1.42,0,0,1-.88.27,1.56,1.56,0,0,1-.64-.12,1.13,1.13,0,0,1-.46-.34,1.27,1.27,0,0,1-.28-.51,2.68,2.68,0,0,1-.11-.66,2,2,0,0,1,.11-.65,1.63,1.63,0,0,1,.3-.51,1.43,1.43,0,0,1,.47-.33,1.37,1.37,0,0,1,.58-.12,1.31,1.31,0,0,1,.69.17,1.39,1.39,0,0,1,.44.43,1.7,1.7,0,0,1,.22.58,2,2,0,0,1,.05.59H70.22a1.23,1.23,0,0,0,0,.39,1,1,0,0,0,.17.33.87.87,0,0,0,.31.22,1,1,0,0,0,.44.08.83.83,0,0,0,.53-.15.69.69,0,0,0,.27-.45h.51A1.22,1.22,0,0,1,72.05,135.46Zm-.13-2a.75.75,0,0,0-.18-.28.9.9,0,0,0-.28-.18.78.78,0,0,0-.35-.07.86.86,0,0,0-.36.07.83.83,0,0,0-.27.19.75.75,0,0,0-.18.28,1.13,1.13,0,0,0-.08.34H72A.82.82,0,0,0,71.92,133.47Z"/><path class="cls-13" d="M74.67,133.48A1.4,1.4,0,0,1,75,133a1.29,1.29,0,0,1,.47-.35,1.82,1.82,0,0,1,1.3,0,1.48,1.48,0,0,1,.47.35,1.55,1.55,0,0,1,.29.52,2.13,2.13,0,0,1,.09.63,2.2,2.2,0,0,1-.09.64,1.42,1.42,0,0,1-.29.51,1.48,1.48,0,0,1-.47.35,1.82,1.82,0,0,1-1.3,0,1.43,1.43,0,0,1-.76-.86,1.91,1.91,0,0,1-.1-.64A1.85,1.85,0,0,1,74.67,133.48Zm.52,1.14a1.25,1.25,0,0,0,.2.36,1,1,0,0,0,.31.23,1,1,0,0,0,.38.07.94.94,0,0,0,.37-.07,1,1,0,0,0,.31-.23,1.07,1.07,0,0,0,.21-.36,1.61,1.61,0,0,0,.07-.51,1.59,1.59,0,0,0-.07-.5,1.12,1.12,0,0,0-.21-.37,1,1,0,0,0-.31-.22.8.8,0,0,0-.37-.08.84.84,0,0,0-.38.08,1,1,0,0,0-.31.22,1.31,1.31,0,0,0-.2.37,1.59,1.59,0,0,0-.08.5A1.6,1.6,0,0,0,75.19,134.62Z"/><path class="cls-13" d="M77.87,133v-.45h.52v-.46a.74.74,0,0,1,.22-.57.94.94,0,0,1,.64-.2h.17l.16,0v.44l-.14,0h-.15a.45.45,0,0,0-.28.07.32.32,0,0,0-.11.28v.43h.6V133h-.6v2.65h-.51V133Z"/><path class="cls-13" d="M12.78,142.86v-.42h0a.82.82,0,0,1-.4.38,1.63,1.63,0,0,1-.59.11,1.54,1.54,0,0,1-.63-.13,1.2,1.2,0,0,1-.44-.36,1.56,1.56,0,0,1-.27-.51,2.18,2.18,0,0,1-.09-.63,2.06,2.06,0,0,1,.09-.62,1.34,1.34,0,0,1,.7-.86,1.39,1.39,0,0,1,.63-.13l.25,0,.28.08a1.35,1.35,0,0,1,.26.15,1.15,1.15,0,0,1,.21.23h0v-1.59h.51v4.28ZM11,141.76a1,1,0,0,0,.17.37.94.94,0,0,0,.3.26,1,1,0,0,0,.43.1.87.87,0,0,0,.44-.11.73.73,0,0,0,.29-.26,1.19,1.19,0,0,0,.17-.38,2,2,0,0,0,.05-.42,1.68,1.68,0,0,0-.06-.45,1,1,0,0,0-.17-.37.83.83,0,0,0-.3-.26.88.88,0,0,0-.45-.1.87.87,0,0,0-.44.1.94.94,0,0,0-.29.27,1.13,1.13,0,0,0-.15.39,2.12,2.12,0,0,0,0,.44A1.52,1.52,0,0,0,11,141.76Z"/><path class="cls-13" d="M14.11,139.2v-.62h.51v.62Zm.51.56v3.1h-.51v-3.1Z"/><path class="cls-13" d="M15.8,142.17a.5.5,0,0,0,.19.19.67.67,0,0,0,.26.09,1,1,0,0,0,.3,0l.26,0,.24-.07a.49.49,0,0,0,.18-.14.36.36,0,0,0,.07-.24.34.34,0,0,0-.15-.3,1.15,1.15,0,0,0-.37-.16l-.49-.12a2.34,2.34,0,0,1-.49-.14,1.12,1.12,0,0,1-.38-.26.73.73,0,0,1-.14-.47.72.72,0,0,1,.1-.4.87.87,0,0,1,.27-.27,1.12,1.12,0,0,1,.37-.16,2,2,0,0,1,.41-.05,2.49,2.49,0,0,1,.49,0,1.14,1.14,0,0,1,.39.16.66.66,0,0,1,.27.3,1.08,1.08,0,0,1,.12.47h-.5a.61.61,0,0,0-.08-.25.65.65,0,0,0-.17-.16.57.57,0,0,0-.23-.08l-.24,0-.24,0a.73.73,0,0,0-.21.06.48.48,0,0,0-.16.12.29.29,0,0,0,0,.19.28.28,0,0,0,.09.22.7.7,0,0,0,.24.15,1.35,1.35,0,0,0,.32.09l.36.08.37.11a1.13,1.13,0,0,1,.33.16.88.88,0,0,1,.23.24,1,1,0,0,1,0,.84.92.92,0,0,1-.31.31,1.46,1.46,0,0,1-.43.15,2.42,2.42,0,0,1-.47.05,2,2,0,0,1-.49-.06,1.08,1.08,0,0,1-.41-.17.85.85,0,0,1-.29-.33,1.13,1.13,0,0,1-.12-.48h.51A.51.51,0,0,0,15.8,142.17Z"/><path class="cls-13" d="M21.16,142.85a.75.75,0,0,1-.37.08.48.48,0,0,1-.32-.11.54.54,0,0,1-.11-.37,1.33,1.33,0,0,1-.49.37,1.73,1.73,0,0,1-.6.11,1.62,1.62,0,0,1-.4-.05.84.84,0,0,1-.33-.15.73.73,0,0,1-.22-.27,1.06,1.06,0,0,1,0-.83.78.78,0,0,1,.24-.27,1.13,1.13,0,0,1,.33-.16l.39-.09.4-.06L20,141a.62.62,0,0,0,.23-.12.29.29,0,0,0,.08-.22.48.48,0,0,0-.06-.26.49.49,0,0,0-.16-.16.57.57,0,0,0-.22-.07l-.25,0a1.13,1.13,0,0,0-.54.12.53.53,0,0,0-.23.47h-.51a1.14,1.14,0,0,1,.12-.49.89.89,0,0,1,.29-.32,1.28,1.28,0,0,1,.41-.18,2.54,2.54,0,0,1,.49-.05,3,3,0,0,1,.42,0,1.07,1.07,0,0,1,.37.12.7.7,0,0,1,.28.26.92.92,0,0,1,.1.44v1.59a1,1,0,0,0,0,.27s.06.08.14.08l.16,0Zm-.83-1.6a.64.64,0,0,1-.25.11l-.33,0-.35.05a1.4,1.4,0,0,0-.31.09.54.54,0,0,0-.22.17.47.47,0,0,0-.09.3.48.48,0,0,0,0,.22.57.57,0,0,0,.13.14.62.62,0,0,0,.19.07.85.85,0,0,0,.23,0,1.11,1.11,0,0,0,.43-.07,1.07,1.07,0,0,0,.3-.17.69.69,0,0,0,.16-.23.53.53,0,0,0,.06-.23Z"/><path class="cls-13" d="M24,143.74a1.43,1.43,0,0,1-1.09.38,2.3,2.3,0,0,1-.45-.05,1.09,1.09,0,0,1-.4-.16.84.84,0,0,1-.31-.28.81.81,0,0,1-.13-.43h.51a.39.39,0,0,0,.09.24.64.64,0,0,0,.2.16l.25.08.27,0a.93.93,0,0,0,.42-.09.85.85,0,0,0,.29-.24.83.83,0,0,0,.16-.37,1.73,1.73,0,0,0,.06-.47v-.21h0a.8.8,0,0,1-.4.43,1.18,1.18,0,0,1-.56.13,1.24,1.24,0,0,1-1-.46,1.4,1.4,0,0,1-.26-.5,2,2,0,0,1-.09-.6,2.78,2.78,0,0,1,.07-.57,1.7,1.7,0,0,1,.24-.53,1.31,1.31,0,0,1,.45-.39,1.4,1.4,0,0,1,.68-.15,1.13,1.13,0,0,1,.54.13.87.87,0,0,1,.38.38h0v-.44h.48v2.84A1.64,1.64,0,0,1,24,143.74Zm-.65-1.4a.9.9,0,0,0,.28-.27,1.34,1.34,0,0,0,.16-.39,2.1,2.1,0,0,0,.05-.43,1.33,1.33,0,0,0-.05-.4,1.05,1.05,0,0,0-.15-.36.72.72,0,0,0-.27-.25.78.78,0,0,0-.41-.1.9.9,0,0,0-.42.09.88.88,0,0,0-.29.25,1.19,1.19,0,0,0-.16.36,2,2,0,0,0-.05.43,3,3,0,0,0,0,.42,1.26,1.26,0,0,0,.15.38.78.78,0,0,0,.69.38A.86.86,0,0,0,23.31,142.34Z"/><path class="cls-13" d="M25.54,139.76v.65h0a1.33,1.33,0,0,1,.45-.55,1.14,1.14,0,0,1,.69-.17v.54a1.64,1.64,0,0,0-.53.08.86.86,0,0,0-.34.25,1,1,0,0,0-.2.39,2.17,2.17,0,0,0-.05.53v1.38h-.51v-3.1Z"/><path class="cls-13" d="M29.27,142.66a1.4,1.4,0,0,1-.88.27,1.56,1.56,0,0,1-.64-.12,1.13,1.13,0,0,1-.46-.34A1.27,1.27,0,0,1,27,142a2.68,2.68,0,0,1-.11-.66,2,2,0,0,1,.11-.65,1.48,1.48,0,0,1,.3-.5,1.32,1.32,0,0,1,.47-.34,1.37,1.37,0,0,1,.58-.12,1.31,1.31,0,0,1,.69.17,1.39,1.39,0,0,1,.44.43,1.7,1.7,0,0,1,.22.58,2.51,2.51,0,0,1,.06.59H27.44a1.23,1.23,0,0,0,0,.39,1,1,0,0,0,.17.33,1,1,0,0,0,.31.22,1,1,0,0,0,.44.09.84.84,0,0,0,.53-.16.67.67,0,0,0,.27-.45h.51A1.22,1.22,0,0,1,29.27,142.66Zm-.13-2a.84.84,0,0,0-.18-.28.9.9,0,0,0-.28-.18.78.78,0,0,0-.35-.07.86.86,0,0,0-.36.07.83.83,0,0,0-.27.19.9.9,0,0,0-.18.28,1.21,1.21,0,0,0-.08.34h1.79A1.06,1.06,0,0,0,29.14,140.67Z"/><path class="cls-13" d="M32.49,142.66a1.4,1.4,0,0,1-.88.27,1.59,1.59,0,0,1-.64-.12,1.2,1.2,0,0,1-.46-.34,1.27,1.27,0,0,1-.28-.51,2.68,2.68,0,0,1-.11-.66,2,2,0,0,1,.11-.65,1.51,1.51,0,0,1,.31-.5,1.28,1.28,0,0,1,.46-.34,1.4,1.4,0,0,1,.58-.12,1.31,1.31,0,0,1,.69.17,1.39,1.39,0,0,1,.44.43,2,2,0,0,1,.23.58,2.48,2.48,0,0,1,.05.59H30.66a1.6,1.6,0,0,0,.05.39,1.06,1.06,0,0,0,.18.33.84.84,0,0,0,.3.22,1,1,0,0,0,.44.09.82.82,0,0,0,.53-.16.67.67,0,0,0,.27-.45h.51A1.22,1.22,0,0,1,32.49,142.66Zm-.12-2a1.07,1.07,0,0,0-.19-.28.9.9,0,0,0-.28-.18.91.91,0,0,0-.7,0,.77.77,0,0,0-.28.19,1.12,1.12,0,0,0-.18.28,1.21,1.21,0,0,0-.08.34h1.79A1.37,1.37,0,0,0,32.37,140.67Z"/><path class="cls-13" d="M34,139.76v.46h0a1.1,1.1,0,0,1,1-.53,1.14,1.14,0,0,1,.52.12.66.66,0,0,1,.33.41,1,1,0,0,1,.41-.39,1.19,1.19,0,0,1,.56-.14,1.88,1.88,0,0,1,.43.05.88.88,0,0,1,.32.16.67.67,0,0,1,.21.28,1,1,0,0,1,.08.41v2.27h-.51v-2a1.12,1.12,0,0,0,0-.27.43.43,0,0,0-.09-.22.45.45,0,0,0-.18-.15.87.87,0,0,0-.31-.05.74.74,0,0,0-.8.79v1.93h-.51v-2a1.27,1.27,0,0,0,0-.28.85.85,0,0,0-.09-.22.49.49,0,0,0-.18-.14.79.79,0,0,0-.29-.05.76.76,0,0,0-.38.09,1.09,1.09,0,0,0-.26.21,1.16,1.16,0,0,0-.14.27.69.69,0,0,0,0,.22v1.93h-.52v-3.1Z"/><path class="cls-13" d="M40.83,142.66a1.38,1.38,0,0,1-.88.27,1.56,1.56,0,0,1-.64-.12,1.2,1.2,0,0,1-.46-.34,1.4,1.4,0,0,1-.28-.51,2.68,2.68,0,0,1-.11-.66,2,2,0,0,1,.11-.65,1.69,1.69,0,0,1,.31-.5,1.28,1.28,0,0,1,.46-.34,1.4,1.4,0,0,1,.58-.12,1.31,1.31,0,0,1,.69.17,1.39,1.39,0,0,1,.44.43,2,2,0,0,1,.23.58,3.13,3.13,0,0,1,0,.59H39a1.6,1.6,0,0,0,0,.39,1.06,1.06,0,0,0,.18.33.84.84,0,0,0,.3.22,1,1,0,0,0,.44.09.82.82,0,0,0,.53-.16.72.72,0,0,0,.28-.45h.5A1.22,1.22,0,0,1,40.83,142.66Zm-.12-2a1.07,1.07,0,0,0-.19-.28.9.9,0,0,0-.28-.18.91.91,0,0,0-.7,0,.77.77,0,0,0-.28.19,1.12,1.12,0,0,0-.18.28A1.21,1.21,0,0,0,39,141h1.79A1.37,1.37,0,0,0,40.71,140.67Z"/><path class="cls-13" d="M42.33,139.76v.49h0a1.07,1.07,0,0,1,1-.56,1.54,1.54,0,0,1,.52.08,1,1,0,0,1,.33.24.88.88,0,0,1,.17.35,1.66,1.66,0,0,1,.05.46v2h-.51v-2.1a.61.61,0,0,0-.16-.45.62.62,0,0,0-.47-.17,1,1,0,0,0-.4.07.88.88,0,0,0-.29.2,1.17,1.17,0,0,0-.17.31,1.23,1.23,0,0,0-.05.39v1.75h-.52v-3.1Z"/><path class="cls-13" d="M46.52,139.76v.45H45.9v1.93a.57.57,0,0,0,0,.14.1.1,0,0,0,.06.08.16.16,0,0,0,.12,0h.43v.45h-.39l-.34,0a.61.61,0,0,1-.23-.1.44.44,0,0,1-.13-.21,1.09,1.09,0,0,1,0-.34v-2h-.53v-.45h.53v-.93h.51v.93Z"/><path class="cls-13" d="M49.2,143.38a5,5,0,0,1-.3-.68,5.56,5.56,0,0,1-.19-.7,4.59,4.59,0,0,1-.06-.76,4.69,4.69,0,0,1,.23-1.42,4.54,4.54,0,0,1,.71-1.34H50a4.87,4.87,0,0,0-.61,1.35,5.45,5.45,0,0,0-.18,1.41,5.57,5.57,0,0,0,.18,1.44A5.24,5.24,0,0,0,50,144h-.39Q49.38,143.71,49.2,143.38Z"/><path class="cls-13" d="M50.52,139.36a1,1,0,0,1,.16-.38.77.77,0,0,1,.3-.27.92.92,0,0,1,.46-.1,1.06,1.06,0,0,1,.47.09.92.92,0,0,1,.29.26,1,1,0,0,1,.16.38,2.42,2.42,0,0,1,0,.47,1.68,1.68,0,0,1,0,.45,1,1,0,0,1-.17.39.73.73,0,0,1-.29.26.88.88,0,0,1-.45.11,1,1,0,0,1-.45-.1.68.68,0,0,1-.3-.25,1.19,1.19,0,0,1-.17-.38,2.24,2.24,0,0,1-.05-.46A2.34,2.34,0,0,1,50.52,139.36Zm.42.74a1.15,1.15,0,0,0,.06.28.6.6,0,0,0,.16.22.36.36,0,0,0,.26.09.41.41,0,0,0,.28-.09.65.65,0,0,0,.16-.21.88.88,0,0,0,.07-.29,1.46,1.46,0,0,0,0-.29c0-.09,0-.18,0-.29a1.28,1.28,0,0,0-.07-.28.66.66,0,0,0-.15-.21.41.41,0,0,0-.28-.09.4.4,0,0,0-.27.09.56.56,0,0,0-.16.21,1.28,1.28,0,0,0-.07.28c0,.11,0,.2,0,.3S50.93,140,50.94,140.1Zm3.85-1.57L51.56,143h-.51l3.22-4.46Zm-1.31,2.75a1.18,1.18,0,0,1,.16-.38.77.77,0,0,1,.3-.27,1,1,0,0,1,.47-.1,1,1,0,0,1,.46.09,1.08,1.08,0,0,1,.3.26,1.16,1.16,0,0,1,.15.38,2.42,2.42,0,0,1,0,.47,2.14,2.14,0,0,1,0,.45,1.15,1.15,0,0,1-.17.39.94.94,0,0,1-.3.26.87.87,0,0,1-.44.1,1,1,0,0,1-.46-.09.94.94,0,0,1-.3-.26.89.89,0,0,1-.16-.37,1.7,1.7,0,0,1-.06-.46A2.34,2.34,0,0,1,53.48,141.28Zm.42.74a.82.82,0,0,0,.07.28.57.57,0,0,0,.15.22.4.4,0,0,0,.27.09.38.38,0,0,0,.27-.09.54.54,0,0,0,.16-.21.89.89,0,0,0,.08-.29c0-.1,0-.2,0-.29s0-.18,0-.29a.89.89,0,0,0-.07-.28.45.45,0,0,0-.15-.21.4.4,0,0,0-.27-.09.37.37,0,0,0-.27.09.56.56,0,0,0-.16.21.9.9,0,0,0-.08.28c0,.11,0,.2,0,.3S53.89,141.92,53.9,142Z"/><path class="cls-13" d="M56.47,142.69a5.45,5.45,0,0,0,.18-1.41,5.55,5.55,0,0,0-.18-1.43,5.15,5.15,0,0,0-.61-1.37h.39c.14.22.27.44.39.67s.21.44.3.67a4.35,4.35,0,0,1,.18.71,3.67,3.67,0,0,1,.07.75,4.47,4.47,0,0,1-.24,1.43,4.36,4.36,0,0,1-.7,1.33h-.39A4.75,4.75,0,0,0,56.47,142.69Z"/><path class="cls-14" d="M3.57,162.77a3.57,3.57,0,1,0,3.57,3.57,3.57,3.57,0,0,0-3.57-3.57"/><text class="cls-9" transform="translate(10.14 167.89)">Not religious, high trust in science (%) </text><polyline class="cls-15" points="67.3 208.09 73.52 218.24 80.64 207.67"/><circle class="cls-12" cx="73.44" cy="218.09" r="2.88"/><path class="cls-15" d="M80.5,201.32a6.35,6.35,0,1,1-6.33,6.36h0a6.35,6.35,0,0,1,6.33-6.35h0"/><path class="cls-15" d="M67.45,205a3.12,3.12,0,1,1-3.12,3.13h0A3.12,3.12,0,0,1,67.45,205"/><polyline class="cls-15" points="67.81 188.38 73.16 190.02 81.15 187.96"/><circle class="cls-12" cx="73.16" cy="190.02" r="0.77"/><path class="cls-15" d="M81,181.62A6.35,6.35,0,1,1,74.68,188h0A6.34,6.34,0,0,1,81,181.62h0"/><path class="cls-15" d="M68,185.32a3.13,3.13,0,1,1-3.11,3.13h0A3.12,3.12,0,0,1,68,185.32"/><path class="cls-10" d="M3.57,118.16a3.57,3.57,0,1,0,3.57,3.57,3.57,3.57,0,0,0-3.57-3.57"/></g></g></svg>