<svg xmlns="http://www.w3.org/2000/svg" viewBox="0 0 226.77 226.77"><line x1="165.03" y1="140.12" x2="175.07" y2="125.22" style="fill:#3e1b14"/><text transform="translate(19.5 143.94)" style="font-size:10px;fill:#3e1b14;font-family:HelveticaNeue, Helvetica Neue">The bigger the yellow <tspan x="0" y="12">ci</tspan><tspan x="7.59" y="12" style="letter-spacing:-0.01796875em">r</tspan><tspan x="10.74" y="12">cle, the mo</tspan><tspan x="60.39" y="12" style="letter-spacing:-0.018017578125em">r</tspan><tspan x="63.54" y="12">e the </tspan><tspan x="0" y="24">likelyhood of a </tspan><tspan x="0" y="36">plunge in the cultural </tspan><tspan x="0" y="48">authority of science. </tspan></text><text transform="translate(172.34 142.61)" style="font-size:5.369257926940918px;fill:#3e1a13;font-family:HelveticaNeue, Helvetica Neue">High risk of <tspan x="0" y="6.44">Plunge</tspan></text><text transform="translate(171.96 105.86)" style="font-size:5.369257926940918px;fill:#3e1a13;font-family:HelveticaNeue, Helvetica Neue">Low risk of <tspan x="0" y="6.44">Plunge</tspan></text><path d="M129.08,42.16A9.88,9.88,0,1,1,119.2,52a9.88,9.88,0,0,1,9.88-9.88" style="fill:#1c3e73"/><polyline points="22.76 52.94 51.98 100.62 85.44 50.98" style="fill:none;stroke:#3e1b14;stroke-miterlimit:10;stroke-width:1.059999942779541px"/><circle cx="51.63" cy="99.92" r="13.55" style="fill:#f8b333"/><path d="M84.82,21.16A29.82,29.82,0,1,1,55,51V51a29.8,29.8,0,0,1,29.78-29.8h0" style="fill:#2ca3dd"/><path d="M23.48,38.56A14.68,14.68,0,1,1,8.83,53.26v0A14.67,14.67,0,0,1,23.48,38.56" style="fill:#c56158"/><line x1="51.98" y1="100.62" x2="85.44" y2="50.96" style="fill:none;stroke:#f8b333;stroke-miterlimit:10;stroke-width:3px"/><path d="M155.71,21.25a3.57,3.57,0,1,0,3.57,3.57,3.57,3.57,0,0,0-3.57-3.57" style="fill:#c56057"/><text transform="translate(162.28 26.36)" style="font-size:5.369257926940918px;fill:#3e1a13;font-family:HelveticaNeue, Helvetica Neue">Religious, <tspan x="0" y="6.44">Low Trust </tspan><tspan x="0" y="12.89">In Science (%)</tspan></text><path d="M155.72,166.68a3.57,3.57,0,1,0,3.57,3.57,3.57,3.57,0,0,0-3.57-3.57" style="fill:#2aa3dd"/><text transform="translate(162.28 171.79)" style="font-size:5.369257926940918px;fill:#3e1a13;font-family:HelveticaNeue, Helvetica Neue">Religious, <tspan x="0" y="6.44">High Trust </tspan><tspan x="0" y="12.89">In Science (%) </tspan></text><path d="M155.71,51.06a3.57,3.57,0,1,0,3.57,3.57,3.57,3.57,0,0,0-3.57-3.57" style="fill:#f8b333"/><text transform="translate(162.28 56.18)" style="font-size:5.369257926940918px;fill:#3e1a13;font-family:HelveticaNeue, Helvetica Neue">Choose Religion <tspan x="0" y="6.44">In Case Of </tspan><tspan x="0" y="12.89">Disagreement (%)</tspan></text><path d="M155.72,196.49a3.57,3.57,0,1,0,3.57,3.57,3.57,3.57,0,0,0-3.57-3.57" style="fill:#1c3e73"/><text transform="translate(162.28 201.61)" style="font-size:5.369257926940918px;fill:#3e1a13;font-family:HelveticaNeue, Helvetica Neue">Not Religious,<tspan x="0" y="6.44">High Trust </tspan><tspan x="0" y="12.89">In Science (%) </tspan></text><polyline points="156.26 125.81 165.03 140.12 175.07 125.23" style="fill:none;stroke:#401b13;stroke-linecap:round;stroke-width:1.059999942779541px"/><circle cx="164.92" cy="139.91" r="4.06" style="fill:#f8b333"/><path d="M174.88,116.28a8.95,8.95,0,1,1-8.93,9v0a8.93,8.93,0,0,1,8.93-8.94h0" style="fill:none;stroke:#401b13;stroke-linecap:round;stroke-width:1.059999942779541px"/><path d="M156.48,121.5a4.41,4.41,0,1,1-4.4,4.41h0a4.4,4.4,0,0,1,4.4-4.4" style="fill:none;stroke:#401b13;stroke-linecap:round;stroke-width:1.059999942779541px"/><polyline points="158.27 90.73 165.81 93.04 177.08 90.14" style="fill:none;stroke:#401b13;stroke-linecap:round;stroke-width:1.059999942779541px"/><circle cx="165.82" cy="93.04" r="1.08" style="fill:#f8b333"/><path d="M176.89,81.19a9,9,0,1,1-8.93,9h0a9,9,0,0,1,8.93-9h0" style="fill:none;stroke:#401b13;stroke-linecap:round;stroke-width:1.059999942779541px"/><path d="M158.49,86.41a4.41,4.41,0,1,1-4.39,4.42h0a4.41,4.41,0,0,1,4.39-4.41" style="fill:none;stroke:#401b13;stroke-linecap:round;stroke-width:1.059999942779541px"/><path d="M155.71,21.25a3.57,3.57,0,1,0,3.57,3.57,3.57,3.57,0,0,0-3.57-3.57" style="fill:#c56057"/></svg>