<?xml version="1.0" encoding="UTF-8" standalone="no"?>
<svg
   xmlns:dc="http://purl.org/dc/elements/1.1/"
   xmlns:cc="http://creativecommons.org/ns#"
   xmlns:rdf="http://www.w3.org/1999/02/22-rdf-syntax-ns#"
   xmlns:svg="http://www.w3.org/2000/svg"
   xmlns="http://www.w3.org/2000/svg"
   xmlns:sodipodi="http://sodipodi.sourceforge.net/DTD/sodipodi-0.dtd"
   xmlns:inkscape="http://www.inkscape.org/namespaces/inkscape"
   viewBox="0 0 226.77 226.77"
   version="1.1"
   id="svg136"
   sodipodi:docname="Icon_benefits-03.svg"
   inkscape:version="0.92.2 5c3e80d, 2017-08-06">
  <metadata
     id="metadata142">
    <rdf:RDF>
      <cc:Work
         rdf:about="">
        <dc:format>image/svg+xml</dc:format>
        <dc:type
           rdf:resource="http://purl.org/dc/dcmitype/StillImage" />
      </cc:Work>
    </rdf:RDF>
  </metadata>
  <defs
     id="defs140" />
  <sodipodi:namedview
     pagecolor="#ffffff"
     bordercolor="#666666"
     borderopacity="1"
     objecttolerance="10"
     gridtolerance="10"
     guidetolerance="10"
     inkscape:pageopacity="0"
     inkscape:pageshadow="2"
     inkscape:window-width="1285"
     inkscape:window-height="706"
     id="namedview138"
     showgrid="false"
     inkscape:zoom="8.3256161"
     inkscape:cx="137.65074"
     inkscape:cy="69.490907"
     inkscape:window-x="0"
     inkscape:window-y="0"
     inkscape:window-maximized="0"
     inkscape:current-layer="svg136" />
  <text
     transform="translate(19.29 143.94)"
     style="font-size:10px;fill:#3e1b14;font-family:HelveticaNeue, Helvetica Neue"
     id="text30">The g<tspan
   x="25.19"
   y="0"
   style="letter-spacing:-0.01796875em"
   id="tspan2">r</tspan>
<tspan
   x="28.34"
   y="0"
   id="tspan4">eater the lean to </tspan>
<tspan
   x="0"
   y="12"
   id="tspan6">the left, the mo</tspan>
<tspan
   x="67.25"
   y="12"
   style="letter-spacing:-0.01796875em"
   id="tspan8">r</tspan>
<tspan
   x="70.4"
   y="12"
   id="tspan10">e the </tspan>
<tspan
   x="0"
   y="24"
   id="tspan12">number of people who </tspan>
<tspan
   x="0"
   y="36"
   id="tspan14">believe that science </tspan>
<tspan
   x="0"
   y="48"
   id="tspan16">benefits most people in </tspan>
<tspan
   x="0"
   y="60"
   id="tspan18">their country compa</tspan>
<tspan
   x="89.84"
   y="60"
   style="letter-spacing:-0.01796875em"
   id="tspan20">r</tspan>
<tspan
   x="92.99"
   y="60"
   id="tspan22">ed </tspan>
<tspan
   x="0"
   y="72"
   id="tspan24">to those who think fe</tspan>
<tspan
   x="93.72"
   y="72"
   style="letter-spacing:-0.05498046875em"
   id="tspan26">w</tspan>
<tspan
   x="100.75"
   y="72"
   id="tspan28">.</tspan>
</text>
  <path
     d="M73.21,54.24h0A6.8,6.8,0,0,1,80,61v42a6.81,6.81,0,0,1-6.8,6.8h0a6.81,6.81,0,0,1-6.8-6.8V61A6.8,6.8,0,0,1,73.21,54.24Z"
     style="fill:#765b54"
     id="path32" />
  <path
     d="M20.36,61.78A17.59,17.59,0,0,1,40.49,76.41v0A17.6,17.6,0,0,1,26.63,97.09,17.6,17.6,0,0,1,6.47,82.52v-.09A17.6,17.6,0,0,1,20.33,61.78"
     style="fill:#4eb0d0"
     id="path34" />
  <path
     d="M131.54,36.65A4.65,4.65,0,1,1,127.78,42h0a4.65,4.65,0,0,1,3.76-5.38"
     style="fill:#f6b032"
     id="path36" />
  <line
     x1="23.92"
     y1="80.03"
     x2="132.19"
     y2="41.14"
     style="fill:none;stroke:#3e1b14;stroke-width:1.059999942779541px"
     id="line38" />
  <text
     transform="translate(153 161.41)"
     style="font-size:3.841428279876709px;fill:#dbd7d1;stroke:#fffcf9;stroke-miterlimit:10;stroke-width:0.3201190233230591px;font-family:MyriadPro-Regular, Myriad Pro"
     id="text40">90-100%</text>
  <rect
     x="146.36"
     y="188.59"
     width="9.97"
     height="0.02"
     style="fill:#b9b2a4"
     id="rect42" />
  <rect
     x="146.36"
     y="192.55"
     width="9.97"
     height="0.02"
     style="fill:#b9b2a4"
     id="rect44" />
  <path
     d="M146.48,196.53h9.73v0h-9.75Z"
     style="fill:#b9b2a4"
     id="path46" />
  <path
     d="M146.47,164.85v0h9.76v0Z"
     style="fill:#b9b2a4"
     id="path48" />
  <rect
     x="146.36"
     y="168.81"
     width="9.97"
     height="0.02"
     style="fill:#b9b2a4"
     id="rect50" />
  <rect
     x="146.36"
     y="172.76"
     width="9.97"
     height="0.02"
     style="fill:#b9b2a4"
     id="rect52" />
  <rect
     x="146.36"
     y="176.72"
     width="9.97"
     height="0.02"
     style="fill:#b9b2a4"
     id="rect54" />
  <rect
     x="146.36"
     y="180.68"
     width="9.97"
     height="0.02"
     style="fill:#b9b2a4"
     id="rect56" />
  <path
     d="M152.44,162l-.47,0h.94A3.59,3.59,0,0,0,152.44,162Z"
     style="fill:#b9b2a4"
     id="path58" />
  <rect
     x="146.36"
     y="184.64"
     width="9.97"
     height="0.02"
     style="fill:#b9b2a4"
     id="rect60" />
  <path
     d="M146.36,165.88v2.93h10v-2.93a5.67,5.67,0,0,0-.1-1h-9.76A4.88,4.88,0,0,0,146.36,165.88Z"
     style="fill:#54342c"
     id="path62" />
  <rect
     x="146.36"
     y="168.83"
     width="9.97"
     height="3.93"
     style="fill:#694c46"
     id="rect64" />
  <rect
     x="146.36"
     y="172.79"
     width="9.97"
     height="3.93"
     style="fill:#7e6560"
     id="rect66" />
  <rect
     x="146.36"
     y="176.75"
     width="9.97"
     height="3.93"
     style="fill:#917c79"
     id="rect68" />
  <rect
     x="-184.60999"
     y="146.36"
     width="3.9300001"
     height="9.9700003"
     transform="rotate(-90)"
     style="fill:#a79692"
     id="rect70" />
  <rect
     x="146.36"
     y="184.66"
     width="9.97"
     height="3.93"
     style="fill:#bbafaa"
     id="rect72" />
  <rect
     x="146.36"
     y="188.62"
     width="9.97"
     height="3.93"
     style="fill:#d0c7c4"
     id="rect74" />
  <path
     d="M146.36,195.48a5.07,5.07,0,0,0,.11,1h9.75a5.07,5.07,0,0,0,.11-1v-2.91h-10Z"
     style="fill:#e3dfdd"
     id="path76" />
  <path
     d="M151.73,160.92H151a4.86,4.86,0,0,0-2.9,1.23,5.08,5.08,0,0,0-1,1.21,4.92,4.92,0,0,0-.58,1.49h9.75a4.92,4.92,0,0,0-.58-1.49,5.08,5.08,0,0,0-1-1.21A4.86,4.86,0,0,0,151.73,160.92Z"
     style="fill:#3e1a13"
     id="path78" />
  <path
     d="M151,200.44a2.55,2.55,0,0,0,.39,0,2.48,2.48,0,0,0,.38,0,5,5,0,0,0,2.9-1.22,5.29,5.29,0,0,0,1-1.21,4.76,4.76,0,0,0,.58-1.48h-9.73a4.76,4.76,0,0,0,.58,1.48,5.29,5.29,0,0,0,1,1.21A5,5,0,0,0,151,200.44Z"
     style="fill:#f8f7f6"
     id="path80" />
  <text
     transform="translate(148.54 205.81)"
     style="font-size:3.841428279876709px;fill:#b9b2a4;font-family:ArialMT, Arial"
     id="text82">0%</text>
  <text
     transform="translate(146.69 159.02)"
     style="font-size:3.841428279876709px;fill:#b9b2a4;font-family:ArialMT, Arial"
     id="text84">100%</text>
  <text
     transform="translate(160.46 168.67)"
     style="font-size:5.920834541320801px;fill:#3e1a13;font-family:HelveticaNeue, Helvetica Neue"
     id="text94">People Who Think<tspan
   x="0"
   y="7.1"
   id="tspan86">Science </tspan>
<tspan
   x="22.81"
   y="7.1"
   style="font-family:HelveticaNeue-Bold, Helvetica Neue;font-weight:700"
   id="tspan88">Does</tspan>
<tspan
   x="0"
   y="14.21"
   id="tspan90">Benefit People Like </tspan>
<tspan
   x="0"
   y="21.31"
   id="tspan92">Themselves (%)</tspan>
</text>
  <path
     d="M150.64,23.86a2,2,0,1,0,2,2,2,2,0,0,0-2-2"
     style="fill:#229ed9"
     id="path96" />
  <text
     transform="translate(158.81 27.14)"
     style="font-size:5.920834541320801px;fill:#3e1a13;font-family:HelveticaNeue, Helvetica Neue"
     id="text108">People Who Think<tspan
   x="0"
   y="7.1"
   id="tspan98">Science Benefits </tspan>
<tspan
   style="font-family:HelveticaNeue-Bold, Helvetica Neue;font-weight:700"
   id="tspan104">
  <tspan
     x="0"
     y="14.21"
     id="tspan100">Most </tspan>
  <tspan
     x="15.9"
     y="14.21"
     style="font-family:HelveticaNeue, Helvetica Neue;font-weight:400"
     id="tspan102">People In Their </tspan>
</tspan>
<tspan
   x="0"
   y="21.31"
   id="tspan106">Country (%)</tspan>
</text>
  <path
     d="M151.26,22.26a3.57,3.57,0,1,0,3.57,3.57,3.57,3.57,0,0,0-3.57-3.57"
     style="fill:#4eb0d0"
     id="path110" />
  <text
     transform="translate(158.89 70.12)"
     style="font-size:5.920834541320801px;fill:#3e1a13;font-family:HelveticaNeue, Helvetica Neue"
     id="text122">People Who Think<tspan
   x="0"
   y="7.1"
   id="tspan112">Science Benefits </tspan>
<tspan
   style="font-family:HelveticaNeue-Bold, Helvetica Neue;font-weight:700"
   id="tspan118">
  <tspan
     x="0"
     y="14.21"
     id="tspan114">Few </tspan>
  <tspan
     x="13.37"
     y="14.21"
     style="font-family:HelveticaNeue, Helvetica Neue;font-weight:400"
     id="tspan116">People In Their </tspan>
</tspan>
<tspan
   x="0"
   y="21.31"
   id="tspan120">Country (%)</tspan>
</text>
  <path
     d="M150.64,67a2,2,0,1,0,2,2,2,2,0,0,0-2-2"
     style="fill:#f6b032"
     id="path124" />
  <path
     d="M151.26,65.35a3.57,3.57,0,1,0,3.57,3.57,3.57,3.57,0,0,0-3.57-3.57"
     style="fill:#f6b032"
     id="path126" />
  <text
     transform="translate(170.53 119.39)"
     style="font-size:5.920834541320801px;fill:#3e1a13;font-family:HelveticaNeue, Helvetica Neue"
     id="text132">Angle of the bar <tspan
   x="0"
   y="7.1"
   id="tspan128">changes to reflect </tspan>
<tspan
   x="0"
   y="14.21"
   id="tspan130">majority</tspan>
</text>
  <line
     x1="151.26"
     y1="124.37"
     x2="166.32"
     y2="118.96"
     style="fill:none;stroke:#401b13;stroke-linecap:round;stroke-width:1.059999942779541px"
     id="line134" />
</svg>
