<svg xmlns="http://www.w3.org/2000/svg" xmlns:xlink="http://www.w3.org/1999/xlink" viewBox="0 0 104.25 252.57"><defs><style>.cls-1,.cls-15,.cls-7{fill:none;}.cls-2{font-size:7.5px;}.cls-2,.cls-8{fill:#3f1a13;}.cls-2,.cls-9{font-family:HelveticaNeue, Helvetica Neue;}.cls-3{clip-path:url(#clip-path);}.cls-4{fill:#1a3d78;}.cls-5{fill:#338ceb;}.cls-6{fill:#85baf2;}.cls-7{stroke:#3f1a13;stroke-miterlimit:10;stroke-width:1.06px;}.cls-9{font-size:6px;}.cls-12,.cls-9{fill:#3e1a13;}.cls-10{fill:#209dd9;}.cls-11{fill:#1b3e76;}.cls-13{fill:#4783c4;}.cls-14{fill:#89b7e2;}.cls-15{stroke:#401a12;stroke-linecap:round;stroke-width:1.06px;}.cls-16{fill:#401a12;}</style><clipPath id="clip-path"><rect class="cls-1" x="0.05" y="4.15" width="78.23" height="49.58"/></clipPath></defs><g id="Layer_2" data-name="Layer 2"><g id="Isolation_Mode" data-name="Isolation Mode"><text class="cls-2" transform="translate(0.72 76.16)">The deeper the dip, the more <tspan x="0" y="9.5">people believe that science </tspan><tspan x="0" y="19">will decrease jobs in the next </tspan><tspan x="0" y="28.5">five years.</tspan></text><g class="cls-3"><path class="cls-4" d="M11.13,8.84A11.17,11.17,0,1,1,.05,20,11.13,11.13,0,0,1,11.13,8.84"/><path class="cls-5" d="M33.88,34.32A9.71,9.71,0,1,1,24.25,44a9.67,9.67,0,0,1,9.63-9.7"/><path class="cls-6" d="M68,20.3A10.39,10.39,0,1,1,57.65,30.69,10.36,10.36,0,0,1,68,20.3"/><polyline class="cls-7" points="26.58 11.86 41.18 30.16 71.49 4.36"/></g><polygon class="cls-8" points="76.6 0 68.34 1.42 73.7 7.86 76.6 0"/><text class="cls-9" transform="translate(11.95 226.12)">The arrow reflects the <tspan x="0" y="7.2">overall pattern</tspan></text><path class="cls-10" d="M3.48,129.36a2,2,0,1,0,2,2,2,2,0,0,0-2-2"/><text class="cls-9" transform="translate(11.65 132.7)">People who have a “lot ” or <tspan x="0" y="7.2">“some” trust in scientists to </tspan><tspan x="0" y="14.4">provide accurate information (%)</tspan></text><path class="cls-11" d="M4.1,127.76a3.57,3.57,0,1,0,3.57,3.56,3.56,3.56,0,0,0-3.57-3.56"/><path class="cls-12" d="M14.07,156.89a1.34,1.34,0,0,1,1,.34,1.22,1.22,0,0,1,.34.93,1.26,1.26,0,0,1-.34.94,1.33,1.33,0,0,1-1,.33H12.76v1.75h-.57v-4.29ZM13.88,159a1.06,1.06,0,0,0,.71-.2.76.76,0,0,0,.23-.59.72.72,0,0,0-.23-.58,1,1,0,0,0-.71-.21H12.76V159Z"/><path class="cls-12" d="M18.2,161a1.41,1.41,0,0,1-.88.26,1.64,1.64,0,0,1-.65-.12,1.39,1.39,0,0,1-.46-.33,1.51,1.51,0,0,1-.27-.52,2.27,2.27,0,0,1-.11-.65,1.93,1.93,0,0,1,.11-.65,1.44,1.44,0,0,1,.3-.51,1.53,1.53,0,0,1,.46-.34,1.45,1.45,0,0,1,.59-.12,1.24,1.24,0,0,1,.69.18,1.26,1.26,0,0,1,.43.43,1.72,1.72,0,0,1,.23.58,2.39,2.39,0,0,1,.05.59H16.37a1.23,1.23,0,0,0,.05.39.85.85,0,0,0,.48.55,1.15,1.15,0,0,0,.44.08.9.9,0,0,0,.53-.15.69.69,0,0,0,.27-.46h.5A1.22,1.22,0,0,1,18.2,161Zm-.13-2a.9.9,0,0,0-.18-.28.92.92,0,0,0-.28-.19,1,1,0,0,0-.35-.07,1,1,0,0,0-.36.07,1,1,0,0,0-.27.19.84.84,0,0,0-.18.28,1.3,1.3,0,0,0-.08.34h1.78A1,1,0,0,0,18.07,159Z"/><path class="cls-12" d="M19.15,159a1.28,1.28,0,0,1,.29-.51,1.26,1.26,0,0,1,.47-.35,1.67,1.67,0,0,1,.65-.13,1.64,1.64,0,0,1,.65.13,1.26,1.26,0,0,1,.47.35A1.28,1.28,0,0,1,22,159a2.1,2.1,0,0,1,0,1.28,1.44,1.44,0,0,1-.29.51,1.24,1.24,0,0,1-.47.34,1.64,1.64,0,0,1-.65.12,1.67,1.67,0,0,1-.65-.12,1.24,1.24,0,0,1-.47-.34,1.44,1.44,0,0,1-.29-.51,2.1,2.1,0,0,1,0-1.28Zm.52,1.14a1.18,1.18,0,0,0,.2.37.93.93,0,0,0,.31.22,1,1,0,0,0,.38.08.91.91,0,0,0,.37-.08.77.77,0,0,0,.31-.22,1,1,0,0,0,.21-.37,1.5,1.5,0,0,0,.08-.5,1.54,1.54,0,0,0-.08-.5,1,1,0,0,0-.21-.37.79.79,0,0,0-.31-.23.91.91,0,0,0-.37-.08,1,1,0,0,0-.38.08,1,1,0,0,0-.31.23,1.18,1.18,0,0,0-.2.37,1.54,1.54,0,0,0-.08.5A1.5,1.5,0,0,0,19.67,160.13Z"/><path class="cls-12" d="M23.19,158.08v.42h0a.73.73,0,0,1,.39-.38,1.46,1.46,0,0,1,.6-.12,1.38,1.38,0,0,1,.62.14,1.19,1.19,0,0,1,.45.35,1.81,1.81,0,0,1,.26.52,2.18,2.18,0,0,1,.09.63,2.51,2.51,0,0,1-.08.62,1.38,1.38,0,0,1-.27.51,1.27,1.27,0,0,1-.44.35,1.52,1.52,0,0,1-.62.12,1.23,1.23,0,0,1-.26,0,1.47,1.47,0,0,1-.28-.08.94.94,0,0,1-.26-.14.78.78,0,0,1-.2-.24h0v1.6h-.51v-4.28Zm1.84,1.1a1.16,1.16,0,0,0-.18-.37.83.83,0,0,0-.3-.26.94.94,0,0,0-.43-.1.87.87,0,0,0-.44.11.89.89,0,0,0-.29.26,1.18,1.18,0,0,0-.16.38,1.52,1.52,0,0,0-.06.42,1.68,1.68,0,0,0,.06.45,1,1,0,0,0,.17.37.83.83,0,0,0,.3.26.93.93,0,0,0,.45.1.82.82,0,0,0,.44-.1.84.84,0,0,0,.29-.27A1.38,1.38,0,0,0,25,160a2.12,2.12,0,0,0,0-.44A2,2,0,0,0,25,159.18Z"/><path class="cls-12" d="M26.76,156.89v4.29h-.51v-4.29Z"/><path class="cls-12" d="M29.75,161a1.37,1.37,0,0,1-.88.26,1.59,1.59,0,0,1-.64-.12,1.39,1.39,0,0,1-.46-.33,1.53,1.53,0,0,1-.28-.52,2.68,2.68,0,0,1-.1-.65,1.71,1.71,0,0,1,.11-.65,1.44,1.44,0,0,1,.3-.51,1.36,1.36,0,0,1,1-.46,1.22,1.22,0,0,1,.69.18,1.29,1.29,0,0,1,.44.43,1.72,1.72,0,0,1,.23.58,2.39,2.39,0,0,1,.05.59H27.93a1,1,0,0,0,.05.39.76.76,0,0,0,.17.32.81.81,0,0,0,.31.23,1.14,1.14,0,0,0,.43.08.86.86,0,0,0,.53-.15.74.74,0,0,0,.28-.46h.5A1.27,1.27,0,0,1,29.75,161Zm-.12-2a.92.92,0,0,0-.19-.28,1,1,0,0,0-.27-.19,1,1,0,0,0-.35-.07,1,1,0,0,0-.36.07.77.77,0,0,0-.27.19A1.07,1.07,0,0,0,28,159a1.28,1.28,0,0,0-.07.34h1.78A1.3,1.3,0,0,0,29.63,159Z"/><path class="cls-12" d="M35,161.18l-.63-2.47h0l-.62,2.47h-.55l-1-3.1h.57l.7,2.53h0l.62-2.53h.56l.65,2.53h0l.7-2.53h.53l-1,3.1Z"/><path class="cls-12" d="M37.5,156.89v1.64h0a.81.81,0,0,1,.17-.24.82.82,0,0,1,.25-.16,1.33,1.33,0,0,1,.28-.1l.28,0a1.23,1.23,0,0,1,.51.09.73.73,0,0,1,.33.23.77.77,0,0,1,.18.36,2.16,2.16,0,0,1,.05.46v2h-.51v-2.1a.64.64,0,0,0-.17-.46.62.62,0,0,0-.46-.17,1,1,0,0,0-.4.08.66.66,0,0,0-.29.2.85.85,0,0,0-.17.31,1.23,1.23,0,0,0-.06.39v1.75H37v-4.29Z"/><path class="cls-12" d="M40.26,159a1.4,1.4,0,0,1,.28-.51,1.3,1.3,0,0,1,.48-.35,1.64,1.64,0,0,1,.65-.13,1.67,1.67,0,0,1,.65.13,1.35,1.35,0,0,1,.47.35,1.42,1.42,0,0,1,.29.51,2.32,2.32,0,0,1,0,1.28,1.61,1.61,0,0,1-.29.51,1.32,1.32,0,0,1-.47.34,1.67,1.67,0,0,1-.65.12,1.64,1.64,0,0,1-.65-.12,1.27,1.27,0,0,1-.48-.34,1.58,1.58,0,0,1-.28-.51,2.1,2.1,0,0,1,0-1.28Zm.52,1.14a1,1,0,0,0,.2.37.84.84,0,0,0,.31.22,1,1,0,0,0,.38.08,1,1,0,0,0,.37-.08.84.84,0,0,0,.31-.22,1,1,0,0,0,.21-.37,1.51,1.51,0,0,0,.07-.5,1.55,1.55,0,0,0-.07-.5,1,1,0,0,0-.21-.37.87.87,0,0,0-.31-.23,1,1,0,0,0-.37-.08,1,1,0,0,0-.38.08.87.87,0,0,0-.31.23,1,1,0,0,0-.2.37,1.54,1.54,0,0,0-.08.5A1.5,1.5,0,0,0,40.78,160.13Z"/><path class="cls-12" d="M46,156.89v1.64h0a.81.81,0,0,1,.17-.24.78.78,0,0,1,.24-.16,1.42,1.42,0,0,1,.29-.1,1.33,1.33,0,0,1,.28,0,1.29,1.29,0,0,1,.51.09.73.73,0,0,1,.33.23,1,1,0,0,1,.18.36,2.16,2.16,0,0,1,0,.46v2H47.5v-2.1a.59.59,0,0,0-.63-.63,1,1,0,0,0-.41.08.63.63,0,0,0-.28.2A.73.73,0,0,0,46,159a1.23,1.23,0,0,0-.06.39v1.75h-.51v-4.29Z"/><path class="cls-12" d="M51.52,161.17a.72.72,0,0,1-.36.07.43.43,0,0,1-.32-.11.5.5,0,0,1-.11-.36,1.2,1.2,0,0,1-.49.36,1.54,1.54,0,0,1-.61.11,1.61,1.61,0,0,1-.39,0,1.26,1.26,0,0,1-.33-.15.73.73,0,0,1-.22-.27,1,1,0,0,1-.08-.4.89.89,0,0,1,.09-.43.78.78,0,0,1,.24-.27.92.92,0,0,1,.33-.16,2.74,2.74,0,0,1,.39-.09l.4-.07a1.61,1.61,0,0,0,.33-.06.49.49,0,0,0,.23-.11.29.29,0,0,0,.08-.22.54.54,0,0,0-.06-.27.49.49,0,0,0-.16-.16.78.78,0,0,0-.23-.07l-.24,0a1.13,1.13,0,0,0-.54.13.51.51,0,0,0-.23.46h-.51a1.13,1.13,0,0,1,.12-.48.82.82,0,0,1,.29-.32,1,1,0,0,1,.41-.18A1.93,1.93,0,0,1,50,158a3,3,0,0,1,.42,0,1.08,1.08,0,0,1,.37.13.62.62,0,0,1,.27.26.81.81,0,0,1,.11.43v1.6a.9.9,0,0,0,0,.26c0,.06.06.08.14.08l.15,0Zm-.82-1.6a.78.78,0,0,1-.26.11l-.32,0-.35.05a1.41,1.41,0,0,0-.31.08.49.49,0,0,0-.22.18.45.45,0,0,0-.09.3.46.46,0,0,0,.05.21.35.35,0,0,0,.13.14.64.64,0,0,0,.19.08.86.86,0,0,0,.23,0,1.35,1.35,0,0,0,.43-.06.9.9,0,0,0,.29-.18.6.6,0,0,0,.17-.23.53.53,0,0,0,.06-.23Z"/><path class="cls-12" d="M52.85,161.18l-1.15-3.1h.57l.87,2.58h0l.85-2.58h.53l-1.13,3.1Z"/><path class="cls-12" d="M57.19,161a1.36,1.36,0,0,1-.87.26,1.64,1.64,0,0,1-.65-.12,1.39,1.39,0,0,1-.46-.33,1.51,1.51,0,0,1-.27-.52,2.27,2.27,0,0,1-.11-.65,1.93,1.93,0,0,1,.11-.65,1.44,1.44,0,0,1,.3-.51,1.53,1.53,0,0,1,.46-.34,1.45,1.45,0,0,1,.59-.12,1.26,1.26,0,0,1,1.12.61,1.72,1.72,0,0,1,.23.58,2.39,2.39,0,0,1,0,.59H55.37a1.23,1.23,0,0,0,.05.39.76.76,0,0,0,.17.32.81.81,0,0,0,.31.23,1.15,1.15,0,0,0,.44.08.9.9,0,0,0,.53-.15.69.69,0,0,0,.27-.46h.5A1.19,1.19,0,0,1,57.19,161Zm-.12-2a.9.9,0,0,0-.18-.28.92.92,0,0,0-.28-.19,1,1,0,0,0-.35-.07,1,1,0,0,0-.36.07.88.88,0,0,0-.27.19.84.84,0,0,0-.18.28,1,1,0,0,0-.08.34h1.78A1,1,0,0,0,57.07,159Z"/><path class="cls-12" d="M62.64,161.17a.76.76,0,0,1-.37.07.39.39,0,0,1-.31-.11.46.46,0,0,1-.12-.36,1.14,1.14,0,0,1-.49.36,1.52,1.52,0,0,1-.6.11,1.7,1.7,0,0,1-.4,0,1.26,1.26,0,0,1-.33-.15.84.84,0,0,1-.22-.27,1,1,0,0,1-.08-.4.89.89,0,0,1,.09-.43.78.78,0,0,1,.24-.27,1,1,0,0,1,.33-.16,2.74,2.74,0,0,1,.39-.09l.4-.07a1.5,1.5,0,0,0,.33-.06.49.49,0,0,0,.23-.11.26.26,0,0,0,.08-.22.54.54,0,0,0-.06-.27.41.41,0,0,0-.16-.16.81.81,0,0,0-.22-.07l-.25,0a1.13,1.13,0,0,0-.54.13.51.51,0,0,0-.23.46h-.51a1.13,1.13,0,0,1,.12-.48.82.82,0,0,1,.29-.32,1,1,0,0,1,.41-.18,1.93,1.93,0,0,1,.49-.06,3,3,0,0,1,.42,0,1.22,1.22,0,0,1,.38.13.75.75,0,0,1,.27.26.91.91,0,0,1,.1.43v1.6a1.51,1.51,0,0,0,0,.26c0,.06.06.08.14.08l.16,0Zm-.83-1.6a.82.82,0,0,1-.25.11l-.33,0-.35.05a1.41,1.41,0,0,0-.31.08.55.55,0,0,0-.22.18.45.45,0,0,0-.09.3.46.46,0,0,0,.05.21.35.35,0,0,0,.13.14.64.64,0,0,0,.19.08.86.86,0,0,0,.23,0,1.35,1.35,0,0,0,.43-.06,1.09,1.09,0,0,0,.3-.18.69.69,0,0,0,.16-.23.53.53,0,0,0,.06-.23Z"/><path class="cls-12" d="M65.31,156.89v1.61h0a.73.73,0,0,1,.39-.38,1.46,1.46,0,0,1,.6-.12,1.32,1.32,0,0,1,.62.14,1.19,1.19,0,0,1,.45.35,1.61,1.61,0,0,1,.27.52,2.18,2.18,0,0,1,.09.63,2.11,2.11,0,0,1-.09.62,1.38,1.38,0,0,1-.27.51,1.18,1.18,0,0,1-.44.35,1.49,1.49,0,0,1-.62.12,1.23,1.23,0,0,1-.26,0,1.38,1.38,0,0,1-.27-.08,1,1,0,0,1-.27-.14.78.78,0,0,1-.2-.24h0v.42H64.8v-4.29Zm1.83,2.29a1.16,1.16,0,0,0-.18-.37.73.73,0,0,0-.29-.26,1,1,0,0,0-.43-.1.84.84,0,0,0-.44.11.83.83,0,0,0-.3.26,1.18,1.18,0,0,0-.16.38,1.51,1.51,0,0,0,0,.42,2.22,2.22,0,0,0,0,.45,1.14,1.14,0,0,0,.17.37.79.79,0,0,0,.31.26.88.88,0,0,0,.45.1.87.87,0,0,0,.44-.1.81.81,0,0,0,.28-.27,1.14,1.14,0,0,0,.16-.39,2.12,2.12,0,0,0,0-.44A1.52,1.52,0,0,0,67.14,159.18Z"/><path class="cls-12" d="M70.53,161a1.36,1.36,0,0,1-.87.26,1.6,1.6,0,0,1-.65-.12,1.39,1.39,0,0,1-.46-.33,1.53,1.53,0,0,1-.28-.52,2.68,2.68,0,0,1-.1-.65,1.71,1.71,0,0,1,.11-.65,1.44,1.44,0,0,1,.3-.51,1.36,1.36,0,0,1,1-.46,1.29,1.29,0,0,1,1.12.61,1.72,1.72,0,0,1,.23.58,2.39,2.39,0,0,1,0,.59H68.71a1,1,0,0,0,.05.39.76.76,0,0,0,.17.32.81.81,0,0,0,.31.23,1.14,1.14,0,0,0,.43.08.91.91,0,0,0,.54-.15.78.78,0,0,0,.27-.46H71A1.27,1.27,0,0,1,70.53,161Zm-.12-2a.92.92,0,0,0-.19-.28,1,1,0,0,0-.27-.19,1,1,0,0,0-.35-.07,1,1,0,0,0-.36.07.77.77,0,0,0-.27.19.84.84,0,0,0-.18.28,1,1,0,0,0-.08.34h1.78A1,1,0,0,0,70.41,159Z"/><path class="cls-12" d="M72.1,156.89v4.29h-.51v-4.29Z"/><path class="cls-12" d="M72.92,157.52v-.63h.51v.63Zm.51.56v3.1h-.51v-3.1Z"/><path class="cls-12" d="M76.42,161a1.39,1.39,0,0,1-.88.26,1.56,1.56,0,0,1-.64-.12,1.21,1.21,0,0,1-.46-.33,1.38,1.38,0,0,1-.28-.52,2.68,2.68,0,0,1-.11-.65,1.93,1.93,0,0,1,.11-.65,1.44,1.44,0,0,1,.3-.51,1.45,1.45,0,0,1,.47-.34,1.4,1.4,0,0,1,.58-.12,1.22,1.22,0,0,1,.69.18,1.29,1.29,0,0,1,.44.43,2,2,0,0,1,.23.58,3,3,0,0,1,0,.59H74.59a1.6,1.6,0,0,0,0,.39.92.92,0,0,0,.18.32.86.86,0,0,0,.3.23,1.19,1.19,0,0,0,.44.08.88.88,0,0,0,.53-.15.69.69,0,0,0,.27-.46h.51A1.27,1.27,0,0,1,76.42,161Zm-.13-2a.75.75,0,0,0-.18-.28.92.92,0,0,0-.28-.19,1,1,0,0,0-.35-.07,1,1,0,0,0-.36.07,1,1,0,0,0-.27.19,1.34,1.34,0,0,0-.18.28,1.3,1.3,0,0,0-.08.34h1.79A1,1,0,0,0,76.29,159Z"/><path class="cls-12" d="M78.3,161.18l-1.16-3.1h.57l.87,2.58h0l.84-2.58H80l-1.14,3.1Z"/><path class="cls-12" d="M82.64,161a1.37,1.37,0,0,1-.88.26,1.59,1.59,0,0,1-.64-.12,1.29,1.29,0,0,1-.46-.33,1.53,1.53,0,0,1-.28-.52,2.27,2.27,0,0,1-.1-.65,1.93,1.93,0,0,1,.1-.65,1.62,1.62,0,0,1,.31-.51,1.36,1.36,0,0,1,1-.46,1.22,1.22,0,0,1,.69.18,1.29,1.29,0,0,1,.44.43,2,2,0,0,1,.23.58,2.39,2.39,0,0,1,0,.59H80.82a1.23,1.23,0,0,0,0,.39.92.92,0,0,0,.18.32.86.86,0,0,0,.3.23,1.19,1.19,0,0,0,.44.08.88.88,0,0,0,.53-.15.74.74,0,0,0,.28-.46h.5A1.27,1.27,0,0,1,82.64,161Zm-.12-2a.9.9,0,0,0-.47-.47.91.91,0,0,0-.7,0,.92.92,0,0,0-.28.19,1.34,1.34,0,0,0-.18.28,1,1,0,0,0-.07.34H82.6A1.3,1.3,0,0,0,82.52,159Z"/><path class="cls-12" d="M86.66,158.08v.45H86v1.92a.61.61,0,0,0,0,.15.14.14,0,0,0,0,.08l.12,0h.43v.45h-.39a1.65,1.65,0,0,1-.34,0,.54.54,0,0,1-.23-.1.41.41,0,0,1-.13-.2,1.61,1.61,0,0,1,0-.35v-2H85v-.45h.53v-.93H86v.93Z"/><path class="cls-12" d="M87.73,156.89v1.64h0a.78.78,0,0,1,.16-.24,1,1,0,0,1,.25-.16,1.33,1.33,0,0,1,.28-.1l.28,0a1.23,1.23,0,0,1,.51.09.73.73,0,0,1,.33.23.77.77,0,0,1,.18.36,2.16,2.16,0,0,1,.05.46v2h-.51v-2.1a.6.6,0,0,0-.17-.46.62.62,0,0,0-.46-.17,1,1,0,0,0-.4.08.66.66,0,0,0-.29.2,1,1,0,0,0-.17.31,1.23,1.23,0,0,0-.06.39v1.75h-.51v-4.29Z"/><path class="cls-12" d="M93.31,161.17a.76.76,0,0,1-.37.07.39.39,0,0,1-.31-.11.46.46,0,0,1-.12-.36,1.14,1.14,0,0,1-.49.36,1.52,1.52,0,0,1-.6.11,1.7,1.7,0,0,1-.4,0,1.26,1.26,0,0,1-.33-.15.84.84,0,0,1-.22-.27,1,1,0,0,1-.08-.4.89.89,0,0,1,.09-.43.78.78,0,0,1,.24-.27,1,1,0,0,1,.33-.16,2.74,2.74,0,0,1,.39-.09l.4-.07a1.39,1.39,0,0,0,.33-.06.45.45,0,0,0,.23-.11.27.27,0,0,0,.09-.22.54.54,0,0,0-.07-.27.41.41,0,0,0-.16-.16.81.81,0,0,0-.22-.07l-.24,0a1.08,1.08,0,0,0-.54.13A.5.5,0,0,0,91,159h-.51a1.13,1.13,0,0,1,.12-.48.82.82,0,0,1,.29-.32,1,1,0,0,1,.41-.18,2,2,0,0,1,.5-.06,2.83,2.83,0,0,1,.41,0,1.14,1.14,0,0,1,.38.13.75.75,0,0,1,.27.26.81.81,0,0,1,.1.43v1.6a1.51,1.51,0,0,0,0,.26c0,.06.06.08.14.08l.16,0Zm-.83-1.6a.72.72,0,0,1-.25.11l-.33,0-.34.05a1.5,1.5,0,0,0-.32.08A.55.55,0,0,0,91,160a.45.45,0,0,0-.09.3.46.46,0,0,0,0,.21.44.44,0,0,0,.13.14.64.64,0,0,0,.19.08.9.9,0,0,0,.23,0,1.35,1.35,0,0,0,.43-.06,1.09,1.09,0,0,0,.3-.18.91.91,0,0,0,.17-.23.68.68,0,0,0,0-.23Z"/><path class="cls-12" d="M95.11,158.08v.45h-.62v1.92c0,.06,0,.11,0,.15a.16.16,0,0,0,.06.08l.12,0h.43v.45h-.39a1.65,1.65,0,0,1-.34,0,.54.54,0,0,1-.23-.1.41.41,0,0,1-.13-.2,1.16,1.16,0,0,1,0-.35v-2h-.53v-.45H94v-.93h.51v.93Z"/><path class="cls-12" d="M12.5,167.69a.55.55,0,0,0,.19.18.82.82,0,0,0,.26.1,1.55,1.55,0,0,0,.31,0l.25,0a.84.84,0,0,0,.24-.06.44.44,0,0,0,.18-.14.41.41,0,0,0,.08-.24.34.34,0,0,0-.15-.3,1.49,1.49,0,0,0-.38-.17c-.15,0-.31-.08-.49-.11a2.53,2.53,0,0,1-.49-.14,1,1,0,0,1-.37-.27.65.65,0,0,1-.15-.46.78.78,0,0,1,.1-.41.87.87,0,0,1,.27-.27,1.16,1.16,0,0,1,.38-.15,1.4,1.4,0,0,1,.41-.06,2.44,2.44,0,0,1,.48.05,1.09,1.09,0,0,1,.4.16.79.79,0,0,1,.27.3,1,1,0,0,1,.12.47H13.9a.46.46,0,0,0-.08-.25.44.44,0,0,0-.17-.16.85.85,0,0,0-.22-.09,1.07,1.07,0,0,0-.25,0l-.23,0a.81.81,0,0,0-.22.07.44.44,0,0,0-.15.12.29.29,0,0,0-.06.19.29.29,0,0,0,.09.22.57.57,0,0,0,.24.14,2,2,0,0,0,.32.1l.36.08.38.1a1.37,1.37,0,0,1,.32.16.78.78,0,0,1,.23.25.7.7,0,0,1,.09.37.84.84,0,0,1-.12.47,1,1,0,0,1-.31.3,1.11,1.11,0,0,1-.42.16,2.59,2.59,0,0,1-.47,0,2,2,0,0,1-.5-.06,1.17,1.17,0,0,1-.41-.18.89.89,0,0,1-.29-.32,1.18,1.18,0,0,1-.12-.49h.51A.66.66,0,0,0,12.5,167.69Z"/><path class="cls-12" d="M17,165.82a.73.73,0,0,0-.51-.17.89.89,0,0,0-.46.11.66.66,0,0,0-.3.27,1.18,1.18,0,0,0-.16.38,2.31,2.31,0,0,0,0,.46,2,2,0,0,0,0,.42,1.46,1.46,0,0,0,.16.36.75.75,0,0,0,.28.25.82.82,0,0,0,.42.1.84.84,0,0,0,.59-.2.87.87,0,0,0,.26-.56h.52a1.39,1.39,0,0,1-.43.89,1.34,1.34,0,0,1-.94.32,1.52,1.52,0,0,1-.62-.12,1.27,1.27,0,0,1-.46-.32,1.42,1.42,0,0,1-.27-.5,1.91,1.91,0,0,1-.1-.64,2.22,2.22,0,0,1,.09-.65,1.35,1.35,0,0,1,.28-.53,1.33,1.33,0,0,1,.45-.36,1.64,1.64,0,0,1,.65-.13,1.93,1.93,0,0,1,.49.07,1.11,1.11,0,0,1,.41.19,1.07,1.07,0,0,1,.29.34,1.3,1.3,0,0,1,.15.47h-.53A.75.75,0,0,0,17,165.82Z"/><path class="cls-12" d="M18.36,164.72v-.63h.51v.63Zm.51.56v3.1h-.51v-3.1Z"/><path class="cls-12" d="M21.86,168.18a1.38,1.38,0,0,1-.88.27,1.59,1.59,0,0,1-.64-.13,1.29,1.29,0,0,1-.46-.33,1.53,1.53,0,0,1-.28-.52,2.27,2.27,0,0,1-.1-.65,1.93,1.93,0,0,1,.1-.65,1.62,1.62,0,0,1,.31-.51,1.36,1.36,0,0,1,1-.46,1.22,1.22,0,0,1,.69.18,1.29,1.29,0,0,1,.44.43,1.72,1.72,0,0,1,.23.58,2.39,2.39,0,0,1,.05.59H20a1.23,1.23,0,0,0,0,.39.92.92,0,0,0,.18.32.86.86,0,0,0,.3.23A1.19,1.19,0,0,0,21,168a.86.86,0,0,0,.53-.15.74.74,0,0,0,.28-.46h.5A1.27,1.27,0,0,1,21.86,168.18Zm-.12-2a.92.92,0,0,0-.19-.28,1,1,0,0,0-.27-.19,1,1,0,0,0-.36-.07,1,1,0,0,0-.35.07.92.92,0,0,0-.28.19,1.34,1.34,0,0,0-.18.28,1,1,0,0,0-.07.34h1.78A1.3,1.3,0,0,0,21.74,166.19Z"/><path class="cls-12" d="M23.37,165.28v.49h0a1.07,1.07,0,0,1,1-.57,1.29,1.29,0,0,1,.51.09.78.78,0,0,1,.5.59,1.66,1.66,0,0,1,.05.46v2h-.51v-2.1a.63.63,0,0,0-.16-.46.66.66,0,0,0-.47-.17,1,1,0,0,0-.4.08.75.75,0,0,0-.29.2,1,1,0,0,0-.17.31,1.6,1.6,0,0,0-.05.39v1.75h-.51v-3.1Z"/><path class="cls-12" d="M28.08,165.82a.77.77,0,0,0-.52-.17.92.92,0,0,0-.46.11.66.66,0,0,0-.3.27,1.18,1.18,0,0,0-.16.38,2.31,2.31,0,0,0-.05.46,1.52,1.52,0,0,0,.06.42,1.14,1.14,0,0,0,.15.36.78.78,0,0,0,.29.25.76.76,0,0,0,.41.1.84.84,0,0,0,.59-.2.87.87,0,0,0,.26-.56h.52a1.44,1.44,0,0,1-.42.89,1.37,1.37,0,0,1-.94.32,1.54,1.54,0,0,1-.63-.12,1.27,1.27,0,0,1-.46-.32,1.42,1.42,0,0,1-.27-.5,1.91,1.91,0,0,1-.1-.64,2.22,2.22,0,0,1,.09-.65,1.35,1.35,0,0,1,.28-.53,1.27,1.27,0,0,1,.46-.36,1.55,1.55,0,0,1,.64-.13,1.93,1.93,0,0,1,.49.07,1.11,1.11,0,0,1,.41.19,1,1,0,0,1,.29.34,1.13,1.13,0,0,1,.15.47h-.53A.8.8,0,0,0,28.08,165.82Z"/><path class="cls-12" d="M31.64,168.18a1.38,1.38,0,0,1-.88.27,1.59,1.59,0,0,1-.64-.13,1.29,1.29,0,0,1-.46-.33,1.53,1.53,0,0,1-.28-.52,2.27,2.27,0,0,1-.1-.65,1.93,1.93,0,0,1,.1-.65,1.62,1.62,0,0,1,.31-.51,1.36,1.36,0,0,1,1-.46,1.22,1.22,0,0,1,.69.18,1.29,1.29,0,0,1,.44.43,2,2,0,0,1,.23.58,2.39,2.39,0,0,1,0,.59H29.82a1.23,1.23,0,0,0,0,.39.92.92,0,0,0,.18.32.86.86,0,0,0,.3.23,1.19,1.19,0,0,0,.44.08.88.88,0,0,0,.53-.15.74.74,0,0,0,.28-.46h.5A1.27,1.27,0,0,1,31.64,168.18Zm-.12-2a.9.9,0,0,0-.47-.47.91.91,0,0,0-.7,0,.92.92,0,0,0-.28.19,1.34,1.34,0,0,0-.18.28,1,1,0,0,0-.07.34H31.6A1.3,1.3,0,0,0,31.52,166.19Z"/><path class="cls-12" d="M36.87,168.38l-.63-2.47h0l-.62,2.47h-.55l-1-3.1h.57l.7,2.53h0l.62-2.53h.56l.65,2.53h0l.7-2.53h.53l-1,3.1Z"/><path class="cls-12" d="M38.91,164.72v-.63h.51v.63Zm.51.56v3.1h-.51v-3.1Z"/><path class="cls-12" d="M40.75,164.09v4.29h-.51v-4.29Z"/><path class="cls-12" d="M42.08,164.09v4.29h-.5v-4.29Z"/><path class="cls-12" d="M44.58,164.72v-.63h.5v.63Zm.5.56v3.1h-.5v-3.1Z"/><path class="cls-12" d="M46.36,165.28v.49h0a1.07,1.07,0,0,1,1-.57,1.29,1.29,0,0,1,.51.09.78.78,0,0,1,.5.59,1.65,1.65,0,0,1,.06.46v2h-.51v-2.1a.59.59,0,0,0-.63-.63,1,1,0,0,0-.41.08.72.72,0,0,0-.28.2.87.87,0,0,0-.18.31,1.6,1.6,0,0,0,0,.39v1.75h-.51v-3.1Z"/><path class="cls-12" d="M51.07,165.82a.77.77,0,0,0-.52-.17.92.92,0,0,0-.46.11.71.71,0,0,0-.3.27,1.45,1.45,0,0,0-.16.38,2.31,2.31,0,0,0-.05.46,1.52,1.52,0,0,0,.06.42,1.14,1.14,0,0,0,.15.36.78.78,0,0,0,.29.25.76.76,0,0,0,.41.1.84.84,0,0,0,.59-.2.87.87,0,0,0,.26-.56h.53a1.44,1.44,0,0,1-.43.89,1.35,1.35,0,0,1-.94.32,1.54,1.54,0,0,1-.63-.12,1.36,1.36,0,0,1-.46-.32,1.42,1.42,0,0,1-.27-.5,2.13,2.13,0,0,1,0-1.29,1.47,1.47,0,0,1,.27-.53,1.27,1.27,0,0,1,.46-.36,1.59,1.59,0,0,1,.64-.13,1.87,1.87,0,0,1,.49.07,1.11,1.11,0,0,1,.41.19,1,1,0,0,1,.29.34,1.13,1.13,0,0,1,.15.47h-.53A.74.74,0,0,0,51.07,165.82Z"/><path class="cls-12" d="M52.9,165.28v.65h0a1.3,1.3,0,0,1,.46-.56,1.16,1.16,0,0,1,.68-.17v.54a1.31,1.31,0,0,0-.52.09.81.81,0,0,0-.35.24,1,1,0,0,0-.19.4,2.09,2.09,0,0,0-.06.53v1.38h-.51v-3.1Z"/><path class="cls-12" d="M56.63,168.18a1.38,1.38,0,0,1-.88.27,1.55,1.55,0,0,1-.64-.13,1.29,1.29,0,0,1-.46-.33,1.53,1.53,0,0,1-.28-.52,2.68,2.68,0,0,1-.11-.65,1.93,1.93,0,0,1,.11-.65,1.62,1.62,0,0,1,.31-.51,1.36,1.36,0,0,1,1-.46,1.22,1.22,0,0,1,.69.18,1.29,1.29,0,0,1,.44.43,2,2,0,0,1,.23.58,3,3,0,0,1,.05.59H54.8a1.6,1.6,0,0,0,.05.39.92.92,0,0,0,.18.32.86.86,0,0,0,.3.23,1.19,1.19,0,0,0,.44.08.88.88,0,0,0,.53-.15.74.74,0,0,0,.28-.46h.5A1.27,1.27,0,0,1,56.63,168.18Zm-.12-2a.9.9,0,0,0-.47-.47.91.91,0,0,0-.7,0,.92.92,0,0,0-.28.19,1.34,1.34,0,0,0-.18.28,1.3,1.3,0,0,0-.08.34h1.79A1.3,1.3,0,0,0,56.51,166.19Z"/><path class="cls-12" d="M60.4,168.37a.74.74,0,0,1-.36.08.42.42,0,0,1-.32-.12.46.46,0,0,1-.12-.36,1.17,1.17,0,0,1-.48.36,1.54,1.54,0,0,1-.61.12,1.75,1.75,0,0,1-.4,0,1.05,1.05,0,0,1-.32-.15.64.64,0,0,1-.22-.27.82.82,0,0,1-.08-.4.89.89,0,0,1,.09-.43.87.87,0,0,1,.23-.27,1,1,0,0,1,.34-.16,2.46,2.46,0,0,1,.39-.09l.4-.07a1.61,1.61,0,0,0,.33-.06.49.49,0,0,0,.23-.11.29.29,0,0,0,.08-.22.54.54,0,0,0-.06-.27.49.49,0,0,0-.16-.16.78.78,0,0,0-.23-.07l-.24,0a1.11,1.11,0,0,0-.54.13.51.51,0,0,0-.23.46h-.51a.9.9,0,0,1,.12-.48.8.8,0,0,1,.28-.32,1,1,0,0,1,.42-.18,1.93,1.93,0,0,1,.49-.06,2,2,0,0,1,.42,0,.9.9,0,0,1,.37.12.68.68,0,0,1,.27.26.81.81,0,0,1,.1.43v1.6a.79.79,0,0,0,0,.26c0,.06.06.08.14.08a.31.31,0,0,0,.15,0Zm-.82-1.6a.78.78,0,0,1-.26.11l-.32.05-.35,0-.31.08a.58.58,0,0,0-.23.18.51.51,0,0,0-.08.3.36.36,0,0,0,0,.21.35.35,0,0,0,.13.14.54.54,0,0,0,.19.08.86.86,0,0,0,.23,0,1.4,1.4,0,0,0,.43-.06.9.9,0,0,0,.29-.18.63.63,0,0,0,.17-.23.53.53,0,0,0,.06-.23Z"/><path class="cls-12" d="M61.27,167.69a.47.47,0,0,0,.19.18.67.67,0,0,0,.26.1,1.53,1.53,0,0,0,.3,0l.25,0a1,1,0,0,0,.25-.06.62.62,0,0,0,.18-.14.4.4,0,0,0,.07-.24.34.34,0,0,0-.15-.3,1.42,1.42,0,0,0-.37-.17l-.49-.11a2.34,2.34,0,0,1-.49-.14,1.05,1.05,0,0,1-.38-.27.65.65,0,0,1-.15-.46.78.78,0,0,1,.11-.41.87.87,0,0,1,.27-.27,1.11,1.11,0,0,1,.37-.15,1.51,1.51,0,0,1,.41-.06,2.46,2.46,0,0,1,.49.05,1,1,0,0,1,.39.16.66.66,0,0,1,.27.3,1,1,0,0,1,.12.47h-.51a.46.46,0,0,0-.07-.25.52.52,0,0,0-.17-.16.79.79,0,0,0-.23-.09,1,1,0,0,0-.25,0l-.23,0a.74.74,0,0,0-.21.07.48.48,0,0,0-.16.12.29.29,0,0,0-.06.19.3.3,0,0,0,.1.22.59.59,0,0,0,.23.14l.33.1.36.08.37.1a1.68,1.68,0,0,1,.33.16.92.92,0,0,1,.23.25.81.81,0,0,1,.08.37.93.93,0,0,1-.11.47,1,1,0,0,1-.31.3,1.23,1.23,0,0,1-.43.16,2.42,2.42,0,0,1-.47,0,2,2,0,0,1-.49-.06,1.09,1.09,0,0,1-.41-.18.89.89,0,0,1-.29-.32,1.18,1.18,0,0,1-.12-.49h.51A.55.55,0,0,0,61.27,167.69Z"/><path class="cls-12" d="M66.07,168.18a1.37,1.37,0,0,1-.87.27,1.6,1.6,0,0,1-.65-.13,1.39,1.39,0,0,1-.46-.33,1.53,1.53,0,0,1-.28-.52,2.68,2.68,0,0,1-.1-.65,1.71,1.71,0,0,1,.11-.65,1.44,1.44,0,0,1,.3-.51,1.36,1.36,0,0,1,1-.46,1.29,1.29,0,0,1,1.12.61,1.72,1.72,0,0,1,.23.58,2.39,2.39,0,0,1,0,.59H64.25a1,1,0,0,0,0,.39.76.76,0,0,0,.17.32.81.81,0,0,0,.31.23,1.14,1.14,0,0,0,.43.08.91.91,0,0,0,.54-.15.78.78,0,0,0,.27-.46h.5A1.27,1.27,0,0,1,66.07,168.18Zm-.12-2a.92.92,0,0,0-.19-.28.88.88,0,0,0-.27-.19,1,1,0,0,0-.35-.07,1,1,0,0,0-.36.07.77.77,0,0,0-.27.19.84.84,0,0,0-.18.28,1,1,0,0,0-.08.34H66A1,1,0,0,0,66,166.19Z"/><path class="cls-12" d="M69.11,169.37a.77.77,0,0,1-.55.19l-.26,0v-.44h.21a.26.26,0,0,0,.23-.09.68.68,0,0,0,.06-.34v-3.4h.51v3.49A.8.8,0,0,1,69.11,169.37Zm-.31-4.65v-.63h.51v.63Z"/><path class="cls-12" d="M70,166.19a1.4,1.4,0,0,1,.28-.51,1.3,1.3,0,0,1,.48-.35,1.64,1.64,0,0,1,.65-.13,1.67,1.67,0,0,1,.65.13,1.35,1.35,0,0,1,.47.35,1.42,1.42,0,0,1,.29.51,2.32,2.32,0,0,1,0,1.28,1.61,1.61,0,0,1-.29.51,1.32,1.32,0,0,1-.47.34,1.67,1.67,0,0,1-.65.13,1.64,1.64,0,0,1-.65-.13,1.27,1.27,0,0,1-.48-.34,1.58,1.58,0,0,1-.28-.51,2.1,2.1,0,0,1,0-1.28Zm.51,1.14a1,1,0,0,0,.21.37.84.84,0,0,0,.31.22,1,1,0,0,0,.38.08,1,1,0,0,0,.37-.08.84.84,0,0,0,.31-.22,1,1,0,0,0,.21-.37,1.51,1.51,0,0,0,.07-.5,1.55,1.55,0,0,0-.07-.5,1,1,0,0,0-.21-.37.87.87,0,0,0-.31-.23,1,1,0,0,0-.37-.08,1,1,0,0,0-.38.08.87.87,0,0,0-.31.23,1,1,0,0,0-.21.37,1.89,1.89,0,0,0-.07.5A1.83,1.83,0,0,0,70.54,167.33Z"/><path class="cls-12" d="M74.07,164.09v1.61h0a.82.82,0,0,1,.4-.38,1.45,1.45,0,0,1,.59-.12,1.39,1.39,0,0,1,.63.14,1.09,1.09,0,0,1,.44.35,1.61,1.61,0,0,1,.27.52,2.18,2.18,0,0,1,.09.63,2.11,2.11,0,0,1-.09.62,1.37,1.37,0,0,1-.26.51,1.24,1.24,0,0,1-.44.35,1.54,1.54,0,0,1-.63.13l-.25,0a1.47,1.47,0,0,1-.28-.08.94.94,0,0,1-.26-.14,1,1,0,0,1-.21-.24h0v.42h-.51v-4.29Zm1.83,2.29a1,1,0,0,0-.17-.37.83.83,0,0,0-.3-.26,1,1,0,0,0-.43-.1.87.87,0,0,0-.44.11.73.73,0,0,0-.29.26,1.19,1.19,0,0,0-.17.38,2,2,0,0,0,0,.42,1.68,1.68,0,0,0,.06.45,1,1,0,0,0,.17.37.76.76,0,0,0,.3.26.88.88,0,0,0,.45.1.84.84,0,0,0,.44-.1.94.94,0,0,0,.29-.27,1.13,1.13,0,0,0,.15-.39,2.12,2.12,0,0,0,0-.44A1.52,1.52,0,0,0,75.9,166.38Z"/><path class="cls-12" d="M77.49,167.69a.55.55,0,0,0,.19.18.74.74,0,0,0,.26.1,1.55,1.55,0,0,0,.31,0l.25,0a.84.84,0,0,0,.24-.06.44.44,0,0,0,.18-.14.41.41,0,0,0,.08-.24.34.34,0,0,0-.15-.3,1.49,1.49,0,0,0-.38-.17c-.15,0-.31-.08-.49-.11a2.53,2.53,0,0,1-.49-.14,1,1,0,0,1-.37-.27.65.65,0,0,1-.15-.46.78.78,0,0,1,.1-.41.87.87,0,0,1,.27-.27,1.2,1.2,0,0,1,.37-.15,1.52,1.52,0,0,1,.42-.06,2.44,2.44,0,0,1,.48.05,1,1,0,0,1,.39.16.74.74,0,0,1,.28.3,1,1,0,0,1,.12.47h-.51a.57.57,0,0,0-.08-.25.44.44,0,0,0-.17-.16.85.85,0,0,0-.22-.09l-.25,0-.23,0a.81.81,0,0,0-.22.07.44.44,0,0,0-.15.12.29.29,0,0,0-.06.19.29.29,0,0,0,.09.22.57.57,0,0,0,.24.14,2,2,0,0,0,.32.1l.36.08.38.1a1.37,1.37,0,0,1,.32.16.78.78,0,0,1,.23.25.7.7,0,0,1,.09.37.84.84,0,0,1-.12.47,1,1,0,0,1-.31.3,1.18,1.18,0,0,1-.42.16,2.59,2.59,0,0,1-.47,0,2,2,0,0,1-.5-.06,1.17,1.17,0,0,1-.41-.18.89.89,0,0,1-.29-.32,1.18,1.18,0,0,1-.12-.49h.51A.66.66,0,0,0,77.49,167.69Z"/><path class="cls-12" d="M81.8,164.72v-.63h.51v.63Zm.51.56v3.1H81.8v-3.1Z"/><path class="cls-12" d="M83.58,165.28v.49h0a1.07,1.07,0,0,1,1-.57,1.29,1.29,0,0,1,.51.09.73.73,0,0,1,.33.23,1,1,0,0,1,.18.36,2.16,2.16,0,0,1,0,.46v2h-.51v-2.1a.59.59,0,0,0-.63-.63,1,1,0,0,0-.41.08.72.72,0,0,0-.28.2.85.85,0,0,0-.17.31,1.23,1.23,0,0,0-.06.39v1.75H83.1v-3.1Z"/><path class="cls-12" d="M89.43,165.28v.45h-.62v1.92a.61.61,0,0,0,0,.15.22.22,0,0,0,0,.08.34.34,0,0,0,.12,0h.43v.45H89a1.65,1.65,0,0,1-.34,0,.54.54,0,0,1-.23-.1.5.5,0,0,1-.13-.2,1.61,1.61,0,0,1,0-.35v-2h-.53v-.45h.53v-.93h.51v.93Z"/><path class="cls-12" d="M90.5,164.09v1.64h0a.78.78,0,0,1,.16-.24,1,1,0,0,1,.25-.16.92.92,0,0,1,.28-.09,1,1,0,0,1,.28,0,1.23,1.23,0,0,1,.51.09.73.73,0,0,1,.33.23.77.77,0,0,1,.18.36,2.16,2.16,0,0,1,0,.46v2h-.51v-2.1a.6.6,0,0,0-.17-.46.62.62,0,0,0-.46-.17,1,1,0,0,0-.4.08.75.75,0,0,0-.29.2,1,1,0,0,0-.17.31,1.23,1.23,0,0,0-.06.39v1.75H90v-4.29Z"/><path class="cls-12" d="M95.53,168.18a1.42,1.42,0,0,1-.88.27,1.64,1.64,0,0,1-.65-.13,1.25,1.25,0,0,1-.45-.33,1.38,1.38,0,0,1-.28-.52,2.68,2.68,0,0,1-.11-.65,1.93,1.93,0,0,1,.11-.65,1.44,1.44,0,0,1,.3-.51,1.45,1.45,0,0,1,.47-.34,1.37,1.37,0,0,1,.58-.12,1.24,1.24,0,0,1,.69.18,1.26,1.26,0,0,1,.43.43,1.54,1.54,0,0,1,.23.58,2,2,0,0,1,0,.59H93.7a1.23,1.23,0,0,0,0,.39.85.85,0,0,0,.48.55,1.15,1.15,0,0,0,.44.08.9.9,0,0,0,.53-.15.69.69,0,0,0,.27-.46H96A1.27,1.27,0,0,1,95.53,168.18Zm-.13-2a.9.9,0,0,0-.18-.28.92.92,0,0,0-.28-.19,1,1,0,0,0-.35-.07,1,1,0,0,0-.36.07,1,1,0,0,0-.27.19.84.84,0,0,0-.18.28,1.3,1.3,0,0,0-.08.34h1.78A.81.81,0,0,0,95.4,166.19Z"/><path class="cls-12" d="M12.59,172.48V173h0a1.07,1.07,0,0,1,1-.57,1.29,1.29,0,0,1,.51.09.73.73,0,0,1,.33.23.87.87,0,0,1,.18.36,2.16,2.16,0,0,1,0,.46v2h-.51v-2.1a.57.57,0,0,0-.63-.62,1,1,0,0,0-.41.07.72.72,0,0,0-.28.2.85.85,0,0,0-.17.31,1.23,1.23,0,0,0-.06.39v1.75h-.51v-3.1Z"/><path class="cls-12" d="M17.64,175.38a1.37,1.37,0,0,1-.87.27,1.6,1.6,0,0,1-.65-.12,1.41,1.41,0,0,1-.46-.34,1.73,1.73,0,0,1-.28-.52,2.68,2.68,0,0,1-.1-.65,1.71,1.71,0,0,1,.11-.65,1.44,1.44,0,0,1,.3-.51,1.39,1.39,0,0,1,.46-.33,1.42,1.42,0,0,1,.59-.13,1.29,1.29,0,0,1,1.12.61,1.72,1.72,0,0,1,.23.58,2.39,2.39,0,0,1,.05.59H15.82a1,1,0,0,0,0,.39.76.76,0,0,0,.17.32.81.81,0,0,0,.31.23,1.15,1.15,0,0,0,.44.08.9.9,0,0,0,.53-.15.78.78,0,0,0,.27-.46h.5A1.27,1.27,0,0,1,17.64,175.38Zm-.12-2a.92.92,0,0,0-.19-.28.88.88,0,0,0-.27-.19,1,1,0,0,0-.35-.06,1,1,0,0,0-.36.06.77.77,0,0,0-.27.19.84.84,0,0,0-.18.28,1,1,0,0,0-.08.34H17.6A1,1,0,0,0,17.52,173.39Z"/><path class="cls-12" d="M18.42,172.48h.66l.74,1.08.77-1.08h.62l-1.07,1.42,1.2,1.68h-.66l-.86-1.29L19,175.58h-.62L19.5,174Z"/><path class="cls-12" d="M23.1,172.48v.45h-.62v1.92a.61.61,0,0,0,0,.15.16.16,0,0,0,.06.08.23.23,0,0,0,.11,0h.43v.45h-.39a1.72,1.72,0,0,1-.34,0,.45.45,0,0,1-.22-.1.35.35,0,0,1-.13-.2,1.13,1.13,0,0,1-.05-.35v-2h-.52v-.45H22v-.93h.51v.93Z"/><path class="cls-12" d="M26.05,171.85l-.22,1.22h0a.83.83,0,0,1,.36-.23,1.29,1.29,0,0,1,.43-.07,1.51,1.51,0,0,1,.53.09,1.16,1.16,0,0,1,.44.27,1.27,1.27,0,0,1,.3.46,1.76,1.76,0,0,1,.1.64,1.58,1.58,0,0,1-.09.52,1.18,1.18,0,0,1-.28.45,1.4,1.4,0,0,1-.46.32,1.67,1.67,0,0,1-.65.12,1.46,1.46,0,0,1-.52-.09,1.18,1.18,0,0,1-.43-.23,1.13,1.13,0,0,1-.3-.38,1.24,1.24,0,0,1-.11-.52h.51a1.09,1.09,0,0,0,.08.31.88.88,0,0,0,.19.24.74.74,0,0,0,.27.16,1.05,1.05,0,0,0,.7,0,.81.81,0,0,0,.29-.19,1,1,0,0,0,.19-.32,1.16,1.16,0,0,0,.07-.44,1.12,1.12,0,0,0-.06-.38,1.1,1.1,0,0,0-.2-.31.79.79,0,0,0-.3-.2,1,1,0,0,0-.4-.07.82.82,0,0,0-.44.11,1.21,1.21,0,0,0-.35.29l-.44,0,.4-2.21h2.1v.45Z"/><path class="cls-12" d="M31.56,176a2.92,2.92,0,0,1-.18.39,1,1,0,0,1-.19.25.61.61,0,0,1-.24.15.85.85,0,0,1-.29,0h-.18l-.18,0v-.47l.16,0,.14,0a.42.42,0,0,0,.26-.07.45.45,0,0,0,.16-.22l.21-.52L30,172.48h.58l.9,2.53h0l.87-2.53h.54Z"/><path class="cls-12" d="M35.53,175.38a1.37,1.37,0,0,1-.87.27,1.64,1.64,0,0,1-.65-.12,1.41,1.41,0,0,1-.46-.34,1.51,1.51,0,0,1-.27-.52,2.27,2.27,0,0,1-.11-.65,1.93,1.93,0,0,1,.11-.65,1.44,1.44,0,0,1,.3-.51,1.5,1.5,0,0,1,.46-.33,1.45,1.45,0,0,1,.59-.13,1.26,1.26,0,0,1,1.12.61,1.72,1.72,0,0,1,.23.58,2.39,2.39,0,0,1,.05.59H33.71a1.23,1.23,0,0,0,0,.39.76.76,0,0,0,.17.32.81.81,0,0,0,.31.23,1.15,1.15,0,0,0,.44.08.9.9,0,0,0,.53-.15.69.69,0,0,0,.27-.46H36A1.19,1.19,0,0,1,35.53,175.38Zm-.12-2a.9.9,0,0,0-.18-.28.92.92,0,0,0-.28-.19,1,1,0,0,0-.35-.06,1,1,0,0,0-.36.06.88.88,0,0,0-.27.19.84.84,0,0,0-.18.28,1,1,0,0,0-.08.34h1.78A1,1,0,0,0,35.41,173.39Z"/><path class="cls-12" d="M39.31,175.57a.75.75,0,0,1-.37.08.41.41,0,0,1-.31-.12.46.46,0,0,1-.12-.36,1.14,1.14,0,0,1-.49.36,1.53,1.53,0,0,1-.6.12,1.75,1.75,0,0,1-.4-.05.78.78,0,0,1-.55-.42,1,1,0,0,1-.08-.4.91.91,0,0,1,.09-.43.78.78,0,0,1,.24-.27,1,1,0,0,1,.33-.16,2.74,2.74,0,0,1,.39-.09l.4-.07a1.39,1.39,0,0,0,.33-.06.45.45,0,0,0,.23-.11.27.27,0,0,0,.09-.22.54.54,0,0,0-.07-.27.33.33,0,0,0-.16-.15.53.53,0,0,0-.22-.08H37.8a1.08,1.08,0,0,0-.54.12.5.5,0,0,0-.24.46h-.51a1.13,1.13,0,0,1,.12-.48.82.82,0,0,1,.29-.32,1,1,0,0,1,.41-.18,2,2,0,0,1,.5-.06,1.84,1.84,0,0,1,.41,0,.94.94,0,0,1,.38.12.75.75,0,0,1,.27.26.81.81,0,0,1,.1.43v1.6a1.42,1.42,0,0,0,0,.26.13.13,0,0,0,.14.09.34.34,0,0,0,.16,0Zm-.83-1.6a.72.72,0,0,1-.25.11l-.33,0-.34.05a2.49,2.49,0,0,0-.32.08.55.55,0,0,0-.22.18.45.45,0,0,0-.09.3.46.46,0,0,0,0,.21.38.38,0,0,0,.14.14.49.49,0,0,0,.18.08.91.91,0,0,0,.23,0,1.33,1.33,0,0,0,.43-.07,1.09,1.09,0,0,0,.3-.18.76.76,0,0,0,.17-.23.64.64,0,0,0,0-.23Z"/><path class="cls-12" d="M40.24,172.48v.65h0a1.36,1.36,0,0,1,.45-.56,1.22,1.22,0,0,1,.69-.17V173a1.41,1.41,0,0,0-.53.08.72.72,0,0,0-.34.25.9.9,0,0,0-.2.39,2.09,2.09,0,0,0-.06.53v1.38h-.51v-3.1Z"/><path class="cls-12" d="M42.17,174.89a.55.55,0,0,0,.19.18.74.74,0,0,0,.26.1,1.55,1.55,0,0,0,.31,0,1.1,1.1,0,0,0,.25,0,.84.84,0,0,0,.24-.06.44.44,0,0,0,.18-.14.41.41,0,0,0,.08-.24.34.34,0,0,0-.15-.3,1.49,1.49,0,0,0-.38-.17c-.15,0-.31-.08-.49-.11a2.53,2.53,0,0,1-.49-.14,1,1,0,0,1-.37-.27.65.65,0,0,1-.15-.46.78.78,0,0,1,.1-.41.87.87,0,0,1,.27-.27,1.2,1.2,0,0,1,.37-.15,1.52,1.52,0,0,1,.42-.06,2.44,2.44,0,0,1,.48,0,1,1,0,0,1,.39.16.74.74,0,0,1,.28.3,1,1,0,0,1,.12.47h-.51a.57.57,0,0,0-.08-.25.44.44,0,0,0-.17-.16.85.85,0,0,0-.22-.09,1.1,1.1,0,0,0-.25,0h-.23a.81.81,0,0,0-.22.07.44.44,0,0,0-.15.12.29.29,0,0,0-.06.19.29.29,0,0,0,.09.22.57.57,0,0,0,.24.14,2,2,0,0,0,.32.1l.36.08.38.1a1.37,1.37,0,0,1,.32.16.78.78,0,0,1,.23.25.72.72,0,0,1,.09.37.84.84,0,0,1-.12.47,1,1,0,0,1-.31.3,1.18,1.18,0,0,1-.42.16,2.59,2.59,0,0,1-.47.05,2,2,0,0,1-.5-.06,1.17,1.17,0,0,1-.41-.18.89.89,0,0,1-.29-.32,1.18,1.18,0,0,1-.12-.49h.51A.66.66,0,0,0,42.17,174.89Z"/><path class="cls-12" d="M46.9,176.09a4.43,4.43,0,0,1-.3-.67,5.71,5.71,0,0,1-.19-.71,4.61,4.61,0,0,1,.17-2.18,4.8,4.8,0,0,1,.71-1.34h.39a4.92,4.92,0,0,0-.61,1.36,5.45,5.45,0,0,0-.18,1.41,5.55,5.55,0,0,0,.18,1.43,5,5,0,0,0,.61,1.37h-.39A5.8,5.8,0,0,1,46.9,176.09Z"/><path class="cls-12" d="M48.22,172.08a.93.93,0,0,1,.46-.66,1,1,0,0,1,.46-.1,1.09,1.09,0,0,1,.47.1.81.81,0,0,1,.29.26,1.09,1.09,0,0,1,.16.38,2.35,2.35,0,0,1,0,.47,2.3,2.3,0,0,1-.05.45,1,1,0,0,1-.17.38.87.87,0,0,1-.3.27.82.82,0,0,1-.44.1,1,1,0,0,1-.45-.09.7.7,0,0,1-.3-.26.89.89,0,0,1-.17-.38,2.16,2.16,0,0,1,0-.46A2.24,2.24,0,0,1,48.22,172.08Zm.41.74a1.28,1.28,0,0,0,.07.28.56.56,0,0,0,.16.21.36.36,0,0,0,.26.09.47.47,0,0,0,.28-.08.6.6,0,0,0,.16-.22.82.82,0,0,0,.07-.28,1.52,1.52,0,0,0,0-.29c0-.09,0-.19,0-.29a1.15,1.15,0,0,0-.07-.28.6.6,0,0,0-.16-.22.37.37,0,0,0-.27-.09.4.4,0,0,0-.27.09.6.6,0,0,0-.16.22.82.82,0,0,0-.07.28,1.46,1.46,0,0,0,0,.29C48.62,172.62,48.62,172.71,48.63,172.82Zm3.85-1.57-3.22,4.45h-.51L52,171.25ZM51.18,174a1.14,1.14,0,0,1,.16-.39,1,1,0,0,1,.3-.27,1.09,1.09,0,0,1,.47-.1,1,1,0,0,1,.46.1.73.73,0,0,1,.29.26A.93.93,0,0,1,53,174a2.34,2.34,0,0,1,0,.47,1.74,1.74,0,0,1-.06.45,1.18,1.18,0,0,1-.16.38,1,1,0,0,1-.3.27,1,1,0,0,1-.44.1,1,1,0,0,1-.46-.1.81.81,0,0,1-.3-.25,1.1,1.1,0,0,1-.17-.38,2.16,2.16,0,0,1,0-.46A2.24,2.24,0,0,1,51.18,174Zm.42.74a.89.89,0,0,0,.07.28.45.45,0,0,0,.15.21.4.4,0,0,0,.27.09.46.46,0,0,0,.27-.08.6.6,0,0,0,.16-.22,1.15,1.15,0,0,0,.08-.28c0-.11,0-.2,0-.29s0-.19,0-.29a.82.82,0,0,0-.07-.28.57.57,0,0,0-.15-.22.4.4,0,0,0-.27-.09.41.41,0,0,0-.28.09.57.57,0,0,0-.15.22.83.83,0,0,0-.08.28c0,.1,0,.2,0,.29S51.59,174.63,51.6,174.74Z"/><path class="cls-12" d="M54.17,175.41a5.45,5.45,0,0,0,.18-1.41,5,5,0,0,0-.79-2.81H54c.14.23.27.45.39.67a5.79,5.79,0,0,1,.29.68,3.46,3.46,0,0,1,.19.7,3.84,3.84,0,0,1,.07.76,4.52,4.52,0,0,1-.24,1.43,4.72,4.72,0,0,1-.7,1.33h-.39A4.75,4.75,0,0,0,54.17,175.41Z"/><path class="cls-13" d="M4.1,156.34a3.57,3.57,0,1,0,3.57,3.57,3.57,3.57,0,0,0-3.57-3.57"/><path class="cls-10" d="M3.48,186a2,2,0,1,0,2,2,2,2,0,0,0-2-2"/><path class="cls-12" d="M14,185a1.36,1.36,0,0,1,1,.33,1.3,1.3,0,0,1,.33.94,1.26,1.26,0,0,1-.33.93,1.28,1.28,0,0,1-1,.33h-1.3v1.75h-.57V185Zm-.19,2.05a1,1,0,0,0,.71-.2.74.74,0,0,0,.23-.58.76.76,0,0,0-.23-.59,1.06,1.06,0,0,0-.71-.2H12.69v1.57Z"/><path class="cls-12" d="M18.12,189.12a1.48,1.48,0,0,1-.88.26,1.56,1.56,0,0,1-.64-.12,1.13,1.13,0,0,1-.46-.34,1.27,1.27,0,0,1-.28-.51,2.28,2.28,0,0,1-.11-.66,1.87,1.87,0,0,1,.11-.64,1.44,1.44,0,0,1,.3-.51,1.38,1.38,0,0,1,.46-.34,1.45,1.45,0,0,1,.59-.12,1.33,1.33,0,0,1,.69.17,1.42,1.42,0,0,1,.44.44,1.58,1.58,0,0,1,.22.57,2.54,2.54,0,0,1,.06.6H16.29a1.2,1.2,0,0,0,.05.38.94.94,0,0,0,.17.33.87.87,0,0,0,.31.22,1,1,0,0,0,.44.09.9.9,0,0,0,.53-.15.72.72,0,0,0,.27-.46h.51A1.27,1.27,0,0,1,18.12,189.12Zm-.13-2a.71.71,0,0,0-.18-.27.77.77,0,0,0-.28-.19.78.78,0,0,0-.35-.07.86.86,0,0,0-.36.07.83.83,0,0,0-.27.19.75.75,0,0,0-.18.28,1.21,1.21,0,0,0-.08.34h1.78A.85.85,0,0,0,18,187.12Z"/><path class="cls-12" d="M19.07,187.13a1.4,1.4,0,0,1,.29-.52,1.35,1.35,0,0,1,.47-.34,1.51,1.51,0,0,1,.65-.13,1.45,1.45,0,0,1,.65.13,1.35,1.35,0,0,1,.47.34,1.4,1.4,0,0,1,.29.52,2.07,2.07,0,0,1,0,1.27,1.28,1.28,0,0,1-.29.51,1.26,1.26,0,0,1-.47.35,1.6,1.6,0,0,1-.65.12,1.67,1.67,0,0,1-.65-.12,1.26,1.26,0,0,1-.47-.35,1.28,1.28,0,0,1-.29-.51,2.07,2.07,0,0,1,0-1.27Zm.52,1.14a1.07,1.07,0,0,0,.21.36.79.79,0,0,0,.31.23.91.91,0,0,0,.37.08,1,1,0,0,0,.38-.08.83.83,0,0,0,.3-.23,1.07,1.07,0,0,0,.21-.36,1.59,1.59,0,0,0,.08-.5,1.5,1.5,0,0,0-.08-.5,1,1,0,0,0-.21-.37.83.83,0,0,0-.3-.23,1,1,0,0,0-.38-.08.91.91,0,0,0-.37.08.79.79,0,0,0-.31.23,1,1,0,0,0-.21.37,1.5,1.5,0,0,0-.08.5A1.59,1.59,0,0,0,19.59,188.27Z"/><path class="cls-12" d="M23.11,186.21v.42h0a.74.74,0,0,1,.39-.37,1.46,1.46,0,0,1,.6-.12,1.35,1.35,0,0,1,.62.13,1.33,1.33,0,0,1,.45.36,1.69,1.69,0,0,1,.26.52,2.06,2.06,0,0,1,.09.62,2.18,2.18,0,0,1-.08.63,1.56,1.56,0,0,1-.27.51,1.07,1.07,0,0,1-.44.34,1.38,1.38,0,0,1-.62.13l-.26,0-.28-.08a1.74,1.74,0,0,1-.26-.15.74.74,0,0,1-.2-.23h0v1.6H22.6v-4.29Zm1.84,1.1a1.27,1.27,0,0,0-.18-.37.75.75,0,0,0-.3-.25,1,1,0,0,0-.86,0,1,1,0,0,0-.3.27,1.12,1.12,0,0,0-.16.37,1.58,1.58,0,0,0,0,.43,1.61,1.61,0,0,0,0,.44,1.19,1.19,0,0,0,.17.38,1.08,1.08,0,0,0,.3.26,1.06,1.06,0,0,0,.45.1.88.88,0,0,0,.45-.11.72.72,0,0,0,.28-.27,1.45,1.45,0,0,0,.16-.38,2.12,2.12,0,0,0,0-.44A1.54,1.54,0,0,0,25,187.31Z"/><path class="cls-12" d="M26.68,185v4.28h-.51V185Z"/><path class="cls-12" d="M29.67,189.12a1.43,1.43,0,0,1-.87.26,1.6,1.6,0,0,1-.65-.12,1.28,1.28,0,0,1-.46-.34,1.4,1.4,0,0,1-.28-.51,2.69,2.69,0,0,1-.1-.66,1.66,1.66,0,0,1,.11-.64,1.44,1.44,0,0,1,.3-.51,1.28,1.28,0,0,1,.46-.34,1.41,1.41,0,0,1,.59-.12,1.29,1.29,0,0,1,.68.17,1.42,1.42,0,0,1,.44.44,1.59,1.59,0,0,1,.23.57,2.52,2.52,0,0,1,.05.6H27.85a1,1,0,0,0,0,.38.79.79,0,0,0,.48.55,1,1,0,0,0,.43.09.91.91,0,0,0,.54-.15.81.81,0,0,0,.27-.46h.5A1.27,1.27,0,0,1,29.67,189.12Zm-.12-2a.88.88,0,0,0-.19-.27.74.74,0,0,0-.27-.19.84.84,0,0,0-.35-.07.83.83,0,0,0-.36.07.66.66,0,0,0-.27.19.75.75,0,0,0-.18.28.94.94,0,0,0-.08.34h1.78A1.05,1.05,0,0,0,29.55,187.12Z"/><path class="cls-12" d="M34.9,189.31l-.63-2.46h0l-.63,2.46h-.55l-1-3.1h.57l.7,2.54h0l.63-2.54h.55l.65,2.54h0l.7-2.54h.53l-1,3.1Z"/><path class="cls-12" d="M37.42,185v1.64h0a.6.6,0,0,1,.16-.24,1.38,1.38,0,0,1,.25-.17,1.31,1.31,0,0,1,.28-.09l.28,0a1.43,1.43,0,0,1,.51.08.83.83,0,0,1,.33.24.77.77,0,0,1,.18.36,2.06,2.06,0,0,1,0,.45v2H39v-2.1a.57.57,0,0,0-.17-.45.62.62,0,0,0-.46-.17,1,1,0,0,0-.4.07.78.78,0,0,0-.29.21.92.92,0,0,0-.17.31,1.12,1.12,0,0,0-.06.38v1.75h-.51V185Z"/><path class="cls-12" d="M40.18,187.13a1.4,1.4,0,0,1,.29-.52,1.27,1.27,0,0,1,.47-.34,1.69,1.69,0,0,1,1.3,0,1.45,1.45,0,0,1,.47.34,1.55,1.55,0,0,1,.29.52,2.29,2.29,0,0,1,0,1.27,1.42,1.42,0,0,1-.29.51,1.35,1.35,0,0,1-.47.35,1.82,1.82,0,0,1-1.3,0,1.19,1.19,0,0,1-.47-.35,1.28,1.28,0,0,1-.29-.51,1.85,1.85,0,0,1-.1-.63A1.87,1.87,0,0,1,40.18,187.13Zm.52,1.14a1.25,1.25,0,0,0,.2.36.87.87,0,0,0,.31.23,1,1,0,0,0,.38.08,1,1,0,0,0,.37-.08.87.87,0,0,0,.31-.23,1.07,1.07,0,0,0,.21-.36,1.59,1.59,0,0,0,.07-.5,1.51,1.51,0,0,0-.07-.5,1,1,0,0,0-.21-.37.87.87,0,0,0-.31-.23,1,1,0,0,0-.37-.08,1,1,0,0,0-.38.08.87.87,0,0,0-.31.23,1.18,1.18,0,0,0-.2.37,1.5,1.5,0,0,0-.08.5A1.59,1.59,0,0,0,40.7,188.27Z"/><path class="cls-12" d="M45.89,185v1.6h0a.8.8,0,0,1,.4-.37,1.45,1.45,0,0,1,.59-.12,1.39,1.39,0,0,1,.63.13,1.29,1.29,0,0,1,.44.36,1.51,1.51,0,0,1,.27.52,2.06,2.06,0,0,1,.09.62,2.18,2.18,0,0,1-.09.63,1.54,1.54,0,0,1-.26.51,1.17,1.17,0,0,1-.45.34,1.32,1.32,0,0,1-.62.13l-.25,0-.28-.08a1.35,1.35,0,0,1-.26-.15.93.93,0,0,1-.21-.23h0v.41h-.51V185Zm1.83,2.28a1.24,1.24,0,0,0-.17-.37.91.91,0,0,0-.3-.25.85.85,0,0,0-.43-.1.87.87,0,0,0-.44.1.84.84,0,0,0-.29.27,1.14,1.14,0,0,0-.17.37,2.1,2.1,0,0,0-.05.43,1.61,1.61,0,0,0,.06.44,1,1,0,0,0,.17.38,1,1,0,0,0,.3.26,1,1,0,0,0,.45.1.84.84,0,0,0,.44-.11.75.75,0,0,0,.29-.27,1.16,1.16,0,0,0,.15-.38,2.12,2.12,0,0,0,.05-.44A1.54,1.54,0,0,0,47.72,187.31Z"/><path class="cls-12" d="M51.12,189.12a1.48,1.48,0,0,1-.88.26,1.64,1.64,0,0,1-.65-.12,1.17,1.17,0,0,1-.45-.34,1.27,1.27,0,0,1-.28-.51,2.28,2.28,0,0,1-.11-.66,1.87,1.87,0,0,1,.11-.64,1.44,1.44,0,0,1,.3-.51,1.38,1.38,0,0,1,.46-.34,1.45,1.45,0,0,1,.59-.12,1.33,1.33,0,0,1,.69.17,1.39,1.39,0,0,1,.43.44,1.43,1.43,0,0,1,.23.57,2.52,2.52,0,0,1,0,.6H49.29a1.2,1.2,0,0,0,.05.38.8.8,0,0,0,.17.33.87.87,0,0,0,.31.22,1,1,0,0,0,.44.09.9.9,0,0,0,.53-.15.72.72,0,0,0,.27-.46h.51A1.27,1.27,0,0,1,51.12,189.12Zm-.13-2a.85.85,0,0,0-.18-.27.77.77,0,0,0-.28-.19.81.81,0,0,0-.35-.07.86.86,0,0,0-.36.07.74.74,0,0,0-.27.19.75.75,0,0,0-.18.28,1.21,1.21,0,0,0-.08.34h1.78A.85.85,0,0,0,51,187.12Z"/><path class="cls-12" d="M52.68,185v4.28h-.51V185Z"/><path class="cls-12" d="M53.5,185.65V185H54v.62Zm.51.56v3.1H53.5v-3.1Z"/><path class="cls-12" d="M57,189.12a1.44,1.44,0,0,1-.88.26,1.59,1.59,0,0,1-.64-.12,1.28,1.28,0,0,1-.46-.34,1.4,1.4,0,0,1-.28-.51,2.69,2.69,0,0,1-.1-.66,1.66,1.66,0,0,1,.11-.64,1.44,1.44,0,0,1,.3-.51,1.28,1.28,0,0,1,.46-.34,1.41,1.41,0,0,1,.59-.12,1.29,1.29,0,0,1,.68.17,1.42,1.42,0,0,1,.44.44,1.59,1.59,0,0,1,.23.57,2.52,2.52,0,0,1,0,.6H55.18a1,1,0,0,0,0,.38.79.79,0,0,0,.48.55,1,1,0,0,0,.43.09.86.86,0,0,0,.53-.15.77.77,0,0,0,.28-.46h.5A1.27,1.27,0,0,1,57,189.12Zm-.12-2a.88.88,0,0,0-.19-.27.83.83,0,0,0-.27-.19.84.84,0,0,0-.35-.07.8.8,0,0,0-.36.07.66.66,0,0,0-.27.19.75.75,0,0,0-.18.28.94.94,0,0,0-.08.34H57A1.37,1.37,0,0,0,56.88,187.12Z"/><path class="cls-12" d="M58.88,189.31l-1.15-3.1h.57l.87,2.59h0l.85-2.59h.53l-1.13,3.1Z"/><path class="cls-12" d="M63.22,189.12a1.43,1.43,0,0,1-.87.26,1.6,1.6,0,0,1-.65-.12,1.28,1.28,0,0,1-.46-.34,1.56,1.56,0,0,1-.28-.51,2.69,2.69,0,0,1-.1-.66,1.66,1.66,0,0,1,.11-.64,1.44,1.44,0,0,1,.3-.51,1.28,1.28,0,0,1,.46-.34,1.45,1.45,0,0,1,.59-.12,1.29,1.29,0,0,1,.68.17,1.32,1.32,0,0,1,.44.44,1.59,1.59,0,0,1,.23.57,2.52,2.52,0,0,1,0,.6H61.4a1,1,0,0,0,.05.38.79.79,0,0,0,.48.55,1,1,0,0,0,.44.09.9.9,0,0,0,.53-.15.81.81,0,0,0,.27-.46h.5A1.19,1.19,0,0,1,63.22,189.12Zm-.12-2a.88.88,0,0,0-.19-.27.74.74,0,0,0-.27-.19.81.81,0,0,0-.35-.07.86.86,0,0,0-.36.07.66.66,0,0,0-.27.19.75.75,0,0,0-.18.28.94.94,0,0,0-.08.34h1.78A1.05,1.05,0,0,0,63.1,187.12Z"/><path class="cls-12" d="M67.24,186.21v.45h-.62v1.93a.46.46,0,0,0,0,.14.15.15,0,0,0,.06.09.23.23,0,0,0,.11,0h.43v.45h-.39a1.78,1.78,0,0,1-.34,0,.45.45,0,0,1-.22-.1.38.38,0,0,1-.13-.21,1.05,1.05,0,0,1,0-.34v-2h-.53v-.45h.53v-.93h.5v.93Z"/><path class="cls-12" d="M68.32,185v1.64h0a.53.53,0,0,1,.17-.24,1,1,0,0,1,.24-.17,1.31,1.31,0,0,1,.28-.09,1.43,1.43,0,0,1,.29,0,1.52,1.52,0,0,1,.51.08,1,1,0,0,1,.33.24.86.86,0,0,1,.17.36,1.59,1.59,0,0,1,.05.45v2h-.5v-2.1a.61.61,0,0,0-.17-.45.66.66,0,0,0-.47-.17,1,1,0,0,0-.4.07.86.86,0,0,0-.29.21.92.92,0,0,0-.17.31,1.46,1.46,0,0,0-.05.38v1.75h-.51V185Z"/><path class="cls-12" d="M73.89,189.3a.74.74,0,0,1-.36.08.46.46,0,0,1-.32-.11.47.47,0,0,1-.12-.36,1.23,1.23,0,0,1-.49.36,1.64,1.64,0,0,1-.6.11,1.75,1.75,0,0,1-.4,0,.86.86,0,0,1-.32-.15.59.59,0,0,1-.22-.27.78.78,0,0,1-.09-.39,1,1,0,0,1,.09-.44.78.78,0,0,1,.24-.27,1.19,1.19,0,0,1,.34-.16l.39-.09.39-.06a1.59,1.59,0,0,0,.34-.06.47.47,0,0,0,.22-.12.25.25,0,0,0,.09-.21.49.49,0,0,0-.06-.27.52.52,0,0,0-.39-.23l-.24,0a1.08,1.08,0,0,0-.54.12.54.54,0,0,0-.23.47h-.52a1.18,1.18,0,0,1,.12-.49,1,1,0,0,1,.29-.32,1.38,1.38,0,0,1,.41-.18,2.65,2.65,0,0,1,.5-.05l.42,0a1.15,1.15,0,0,1,.37.12.84.84,0,0,1,.27.26.82.82,0,0,1,.1.44v1.59a1.65,1.65,0,0,0,0,.27.13.13,0,0,0,.14.08l.16,0Zm-.83-1.59a.72.72,0,0,1-.25.1l-.33.05-.34,0a1.26,1.26,0,0,0-.31.09.58.58,0,0,0-.23.17.47.47,0,0,0-.09.3.38.38,0,0,0,.06.22.43.43,0,0,0,.13.14.68.68,0,0,0,.19.08l.23,0a1.14,1.14,0,0,0,.43-.07.82.82,0,0,0,.29-.17.72.72,0,0,0,.17-.23.68.68,0,0,0,0-.23Z"/><path class="cls-12" d="M75.69,186.21v.45h-.62v1.93a.46.46,0,0,0,0,.14.19.19,0,0,0,0,.09.34.34,0,0,0,.12,0h.43v.45H75.3a1.78,1.78,0,0,1-.34,0,.54.54,0,0,1-.23-.1.43.43,0,0,1-.12-.21,1,1,0,0,1,0-.34v-2H74v-.45h.52v-.93h.51v.93Z"/><path class="cls-12" d="M78.31,188.62a.58.58,0,0,0,.19.19,1.08,1.08,0,0,0,.27.1,1.39,1.39,0,0,0,.3,0l.25,0a.84.84,0,0,0,.24-.07.45.45,0,0,0,.19-.14.43.43,0,0,0,.07-.24.34.34,0,0,0-.15-.3,1.5,1.5,0,0,0-.38-.16c-.15,0-.31-.08-.49-.11a3.37,3.37,0,0,1-.48-.15,1,1,0,0,1-.38-.26.68.68,0,0,1-.15-.47.75.75,0,0,1,.11-.4.87.87,0,0,1,.27-.27,1.38,1.38,0,0,1,.37-.16,1.92,1.92,0,0,1,.41-.05,1.94,1.94,0,0,1,.49.05,1.32,1.32,0,0,1,.39.15.87.87,0,0,1,.27.3,1.08,1.08,0,0,1,.12.47h-.51a.49.49,0,0,0-.08-.25.52.52,0,0,0-.17-.16.72.72,0,0,0-.22-.08,1,1,0,0,0-.25,0l-.23,0a.65.65,0,0,0-.21.06.4.4,0,0,0-.16.12.32.32,0,0,0-.06.2.27.27,0,0,0,.09.21.82.82,0,0,0,.24.15l.32.1.37.08a2.54,2.54,0,0,1,.37.1,1.07,1.07,0,0,1,.32.16.69.69,0,0,1,.23.25.7.7,0,0,1,.09.37.86.86,0,0,1-.12.47,1.07,1.07,0,0,1-.3.3,1.47,1.47,0,0,1-.43.16,3.73,3.73,0,0,1-.47,0,2.54,2.54,0,0,1-.49,0,1.33,1.33,0,0,1-.42-.18.83.83,0,0,1-.28-.33,1,1,0,0,1-.13-.48h.51A.77.77,0,0,0,78.31,188.62Z"/><path class="cls-12" d="M82.78,186.75a.77.77,0,0,0-.52-.16.92.92,0,0,0-.46.1.87.87,0,0,0-.3.27,1.14,1.14,0,0,0-.16.39,2.22,2.22,0,0,0,0,.45,1.42,1.42,0,0,0,.06.42,1.11,1.11,0,0,0,.15.37.88.88,0,0,0,.29.25.86.86,0,0,0,.41.1.84.84,0,0,0,.59-.2.89.89,0,0,0,.26-.56h.53a1.47,1.47,0,0,1-.43.89,1.35,1.35,0,0,1-.94.31,1.73,1.73,0,0,1-.63-.11,1.39,1.39,0,0,1-.46-.33,1.34,1.34,0,0,1-.27-.5,2.15,2.15,0,0,1-.1-.64,2.27,2.27,0,0,1,.1-.65,1.56,1.56,0,0,1,.27-.53,1.25,1.25,0,0,1,.46-.35,1.41,1.41,0,0,1,.64-.13,1.93,1.93,0,0,1,.49.06,1.12,1.12,0,0,1,.41.2,1,1,0,0,1,.29.33,1.13,1.13,0,0,1,.15.48H83A.77.77,0,0,0,82.78,186.75Z"/><path class="cls-12" d="M84.18,185.65V185h.51v.62Zm.51.56v3.1h-.51v-3.1Z"/><path class="cls-12" d="M87.67,189.12a1.43,1.43,0,0,1-.87.26,1.6,1.6,0,0,1-.65-.12,1.28,1.28,0,0,1-.46-.34,1.56,1.56,0,0,1-.28-.51,2.69,2.69,0,0,1-.1-.66,1.87,1.87,0,0,1,.11-.64,1.44,1.44,0,0,1,.3-.51,1.28,1.28,0,0,1,.46-.34,1.41,1.41,0,0,1,.59-.12,1.29,1.29,0,0,1,.68.17,1.32,1.32,0,0,1,.44.44,1.59,1.59,0,0,1,.23.57,2.52,2.52,0,0,1,0,.6H85.85a1.2,1.2,0,0,0,.05.38.79.79,0,0,0,.48.55,1,1,0,0,0,.44.09.9.9,0,0,0,.53-.15.76.76,0,0,0,.27-.46h.5A1.23,1.23,0,0,1,87.67,189.12Zm-.12-2a.88.88,0,0,0-.19-.27.74.74,0,0,0-.27-.19.81.81,0,0,0-.35-.07.86.86,0,0,0-.36.07.66.66,0,0,0-.27.19.75.75,0,0,0-.18.28.94.94,0,0,0-.08.34h1.78A1.05,1.05,0,0,0,87.55,187.12Z"/><path class="cls-12" d="M89.18,186.21v.49h0a1.08,1.08,0,0,1,1-.56,1.52,1.52,0,0,1,.51.08.91.91,0,0,1,.33.24,1,1,0,0,1,.18.36,2.06,2.06,0,0,1,0,.45v2h-.51v-2.1a.61.61,0,0,0-.17-.45.64.64,0,0,0-.46-.17,1,1,0,0,0-.41.07.74.74,0,0,0-.28.21.67.67,0,0,0-.17.31,1.12,1.12,0,0,0-.06.38v1.75H88.7v-3.1Z"/><path class="cls-12" d="M93.89,186.75a.77.77,0,0,0-.52-.16,1,1,0,0,0-.46.1,1,1,0,0,0-.3.27,1.13,1.13,0,0,0-.15.39,1.68,1.68,0,0,0,0,.45,1.42,1.42,0,0,0,0,.42,1,1,0,0,0,.16.37.76.76,0,0,0,.28.25.86.86,0,0,0,.41.1.84.84,0,0,0,.59-.2.9.9,0,0,0,.27-.56h.52a1.47,1.47,0,0,1-.43.89,1.35,1.35,0,0,1-.94.31,1.73,1.73,0,0,1-.63-.11,1.25,1.25,0,0,1-.45-.33,1.23,1.23,0,0,1-.28-.5,2.15,2.15,0,0,1-.09-.64,2.27,2.27,0,0,1,.09-.65,1.56,1.56,0,0,1,.27-.53,1.25,1.25,0,0,1,.46-.35,1.44,1.44,0,0,1,.64-.13,2,2,0,0,1,.5.06,1.08,1.08,0,0,1,.4.2,1.18,1.18,0,0,1,.3.33,1.29,1.29,0,0,1,.14.48h-.53A.77.77,0,0,0,93.89,186.75Z"/><path class="cls-12" d="M97.45,189.12a1.43,1.43,0,0,1-.87.26,1.6,1.6,0,0,1-.65-.12,1.28,1.28,0,0,1-.46-.34,1.56,1.56,0,0,1-.28-.51,2.69,2.69,0,0,1-.1-.66,1.66,1.66,0,0,1,.11-.64,1.44,1.44,0,0,1,.3-.51,1.28,1.28,0,0,1,.46-.34,1.41,1.41,0,0,1,.59-.12,1.29,1.29,0,0,1,.68.17,1.32,1.32,0,0,1,.44.44,1.59,1.59,0,0,1,.23.57,2.52,2.52,0,0,1,0,.6H95.63a1,1,0,0,0,.05.38.79.79,0,0,0,.48.55,1,1,0,0,0,.43.09.86.86,0,0,0,.53-.15.73.73,0,0,0,.28-.46h.5A1.27,1.27,0,0,1,97.45,189.12Zm-.12-2a.88.88,0,0,0-.19-.27.74.74,0,0,0-.27-.19.84.84,0,0,0-.35-.07.83.83,0,0,0-.36.07.66.66,0,0,0-.27.19.75.75,0,0,0-.18.28.94.94,0,0,0-.08.34h1.78A1.37,1.37,0,0,0,97.33,187.12Z"/><path class="cls-12" d="M14.56,196.51l-.63-2.46h0l-.62,2.46h-.55l-1-3.1h.56L13,196h0l.62-2.54h.56l.65,2.54h0l.7-2.54h.52l-1,3.1Z"/><path class="cls-12" d="M16.61,192.85v-.62h.51v.62Zm.51.56v3.1h-.51v-3.1Z"/><path class="cls-12" d="M18.45,192.23v4.28h-.51v-4.28Z"/><path class="cls-12" d="M19.78,192.23v4.28h-.51v-4.28Z"/><path class="cls-12" d="M22.75,192.23v1.64h0a.6.6,0,0,1,.16-.24,1.38,1.38,0,0,1,.25-.17,1.31,1.31,0,0,1,.28-.09l.28,0a1.43,1.43,0,0,1,.51.08.83.83,0,0,1,.33.24.77.77,0,0,1,.18.36,2.06,2.06,0,0,1,0,.45v2H24.3v-2.1a.57.57,0,0,0-.17-.45.62.62,0,0,0-.46-.17,1,1,0,0,0-.4.07.78.78,0,0,0-.29.21.92.92,0,0,0-.17.31,1.12,1.12,0,0,0-.06.38v1.75h-.51v-4.28Z"/><path class="cls-12" d="M27.78,196.32a1.48,1.48,0,0,1-.88.26,1.56,1.56,0,0,1-.64-.12,1.13,1.13,0,0,1-.46-.34,1.27,1.27,0,0,1-.28-.51,2.68,2.68,0,0,1-.11-.66,1.87,1.87,0,0,1,.11-.64,1.44,1.44,0,0,1,.3-.51,1.32,1.32,0,0,1,.47-.34,1.37,1.37,0,0,1,.58-.12,1.33,1.33,0,0,1,.69.17A1.54,1.54,0,0,1,28,194a1.58,1.58,0,0,1,.22.57,2.09,2.09,0,0,1,.05.6H26a1.2,1.2,0,0,0,.05.38.94.94,0,0,0,.17.33.87.87,0,0,0,.31.22,1,1,0,0,0,.44.09.9.9,0,0,0,.53-.15.72.72,0,0,0,.27-.46h.51A1.27,1.27,0,0,1,27.78,196.32Zm-.13-2a.85.85,0,0,0-.18-.27.77.77,0,0,0-.28-.19.78.78,0,0,0-.35-.07.86.86,0,0,0-.36.07.83.83,0,0,0-.27.19.75.75,0,0,0-.18.28,1.21,1.21,0,0,0-.08.34h1.78A.85.85,0,0,0,27.65,194.32Z"/><path class="cls-12" d="M29.34,192.23v4.28h-.51v-4.28Z"/><path class="cls-12" d="M30.66,193.41v.42h0a.8.8,0,0,1,.4-.37,1.45,1.45,0,0,1,.59-.12,1.39,1.39,0,0,1,.63.13,1.33,1.33,0,0,1,.45.36,1.69,1.69,0,0,1,.26.52,2.06,2.06,0,0,1,.09.62,2.59,2.59,0,0,1-.08.63,1.56,1.56,0,0,1-.27.51,1.14,1.14,0,0,1-.44.34,1.38,1.38,0,0,1-.62.13l-.26,0-.28-.08a1.35,1.35,0,0,1-.26-.15.93.93,0,0,1-.21-.23h0v1.6h-.51v-4.29Zm1.84,1.1a1.27,1.27,0,0,0-.18-.37.91.91,0,0,0-.3-.25.83.83,0,0,0-.43-.1.87.87,0,0,0-.44.1,1.06,1.06,0,0,0-.29.27,1.12,1.12,0,0,0-.16.37,1.59,1.59,0,0,0-.06.43,1.61,1.61,0,0,0,.06.44,1,1,0,0,0,.17.38,1.08,1.08,0,0,0,.3.26,1.06,1.06,0,0,0,.45.1.82.82,0,0,0,.44-.11.69.69,0,0,0,.29-.27,1.16,1.16,0,0,0,.15-.38,1.61,1.61,0,0,0,0-.44A2,2,0,0,0,32.5,194.51Z"/><path class="cls-12" d="M35.39,192.85v-.62h.51v.62Zm.51.56v3.1h-.51v-3.1Z"/><path class="cls-12" d="M37.17,193.41v.46h0a1.15,1.15,0,0,1,1-.53,1.14,1.14,0,0,1,.52.12.69.69,0,0,1,.33.41,1,1,0,0,1,.41-.39,1.19,1.19,0,0,1,.56-.14,1.73,1.73,0,0,1,.42,0,1,1,0,0,1,.33.16.74.74,0,0,1,.21.28,1,1,0,0,1,.07.41v2.27h-.51v-2a2.13,2.13,0,0,0,0-.27.73.73,0,0,0-.09-.22.65.65,0,0,0-.18-.15.87.87,0,0,0-.31-.05.76.76,0,0,0-.81.79v1.93h-.51v-2a2.46,2.46,0,0,0,0-.28.51.51,0,0,0-.1-.21.41.41,0,0,0-.17-.15.79.79,0,0,0-.29-.05.76.76,0,0,0-.38.09.8.8,0,0,0-.26.22.94.94,0,0,0-.14.26.74.74,0,0,0,0,.22v1.93h-.51v-3.1Z"/><path class="cls-12" d="M42.34,193.41v.42h0a.76.76,0,0,1,.4-.37,1.41,1.41,0,0,1,.59-.12,1.39,1.39,0,0,1,.63.13,1.29,1.29,0,0,1,.44.36,1.51,1.51,0,0,1,.27.52,2.06,2.06,0,0,1,.09.62,2.18,2.18,0,0,1-.09.63,1.54,1.54,0,0,1-.26.51,1.17,1.17,0,0,1-.45.34,1.32,1.32,0,0,1-.62.13l-.25,0-.28-.08a1.35,1.35,0,0,1-.26-.15.93.93,0,0,1-.21-.23h0v1.6h-.51v-4.29Zm1.83,1.1a1.24,1.24,0,0,0-.17-.37.91.91,0,0,0-.3-.25.85.85,0,0,0-.43-.1.87.87,0,0,0-.44.1.84.84,0,0,0-.29.27,1.14,1.14,0,0,0-.17.37,1.92,1.92,0,0,0,0,.87,1.21,1.21,0,0,0,.18.38.86.86,0,0,0,.3.26,1,1,0,0,0,.45.1.87.87,0,0,0,.44-.11.75.75,0,0,0,.29-.27,1.16,1.16,0,0,0,.15-.38,2.12,2.12,0,0,0,0-.44A1.54,1.54,0,0,0,44.17,194.51Z"/><path class="cls-12" d="M45.83,193.41v.66h0a1.39,1.39,0,0,1,.46-.56,1.13,1.13,0,0,1,.68-.17v.54a1.62,1.62,0,0,0-.52.08.9.9,0,0,0-.35.25,1.18,1.18,0,0,0-.19.39,2.15,2.15,0,0,0-.06.53v1.38h-.51v-3.1Z"/><path class="cls-12" d="M47.29,194.33a1.75,1.75,0,0,1,.29-.52,1.39,1.39,0,0,1,.48-.34,1.48,1.48,0,0,1,.65-.13,1.51,1.51,0,0,1,.65.13,1.45,1.45,0,0,1,.47.34,1.55,1.55,0,0,1,.29.52,2.2,2.2,0,0,1,.09.64,2.13,2.13,0,0,1-.09.63,1.42,1.42,0,0,1-.29.51,1.35,1.35,0,0,1-.47.35,1.67,1.67,0,0,1-.65.12,1.64,1.64,0,0,1-.65-.12,1.3,1.3,0,0,1-.48-.35,1.58,1.58,0,0,1-.29-.51,2.13,2.13,0,0,1-.09-.63A2.2,2.2,0,0,1,47.29,194.33Zm.52,1.14a1,1,0,0,0,.21.36.87.87,0,0,0,.31.23,1,1,0,0,0,.38.08,1,1,0,0,0,.37-.08.87.87,0,0,0,.31-.23,1,1,0,0,0,.21-.36,1.59,1.59,0,0,0,.07-.5,1.51,1.51,0,0,0-.07-.5,1,1,0,0,0-.21-.37.87.87,0,0,0-.31-.23,1,1,0,0,0-.37-.08,1,1,0,0,0-.38.08.87.87,0,0,0-.31.23,1,1,0,0,0-.21.37,1.51,1.51,0,0,0-.07.5A1.59,1.59,0,0,0,47.81,195.47Z"/><path class="cls-12" d="M51.66,196.51l-1.15-3.1h.57L52,196h0l.85-2.59h.53l-1.13,3.1Z"/><path class="cls-12" d="M56,196.32a1.46,1.46,0,0,1-.88.26,1.56,1.56,0,0,1-.64-.12,1.13,1.13,0,0,1-.46-.34,1.27,1.27,0,0,1-.28-.51,2.68,2.68,0,0,1-.11-.66,1.87,1.87,0,0,1,.11-.64,1.44,1.44,0,0,1,.3-.51,1.32,1.32,0,0,1,.47-.34,1.37,1.37,0,0,1,.58-.12,1.31,1.31,0,0,1,.69.17,1.42,1.42,0,0,1,.44.44,1.58,1.58,0,0,1,.22.57,2.09,2.09,0,0,1,0,.6H54.18a1.58,1.58,0,0,0,0,.38.94.94,0,0,0,.17.33.87.87,0,0,0,.31.22,1,1,0,0,0,.44.09.88.88,0,0,0,.53-.15.72.72,0,0,0,.27-.46h.51A1.27,1.27,0,0,1,56,196.32Zm-.13-2a.71.71,0,0,0-.18-.27.77.77,0,0,0-.28-.19.78.78,0,0,0-.35-.07.86.86,0,0,0-.36.07.83.83,0,0,0-.27.19.9.9,0,0,0-.18.28,1.21,1.21,0,0,0-.08.34H56A.85.85,0,0,0,55.88,194.32Z"/><path class="cls-12" d="M59.24,192.23v4.28h-.51v-4.28Z"/><path class="cls-12" d="M60.06,192.85v-.62h.51v.62Zm.51.56v3.1h-.51v-3.1Z"/><path class="cls-12" d="M61.05,193.86v-.45h.53V193a.74.74,0,0,1,.21-.57.94.94,0,0,1,.64-.2h.17l.16,0v.44l-.14,0h-.15a.52.52,0,0,0-.28.07.32.32,0,0,0-.11.28v.43h.61v.45h-.61v2.65h-.5v-2.65Z"/><path class="cls-12" d="M65.34,196.32a1.46,1.46,0,0,1-.88.26,1.56,1.56,0,0,1-.64-.12,1.13,1.13,0,0,1-.46-.34,1.27,1.27,0,0,1-.28-.51A2.68,2.68,0,0,1,63,195a1.87,1.87,0,0,1,.11-.64,1.44,1.44,0,0,1,.3-.51,1.32,1.32,0,0,1,.47-.34,1.37,1.37,0,0,1,.58-.12,1.31,1.31,0,0,1,.69.17,1.42,1.42,0,0,1,.44.44,1.58,1.58,0,0,1,.22.57,2.09,2.09,0,0,1,0,.6H63.51a1.58,1.58,0,0,0,.05.38.94.94,0,0,0,.17.33.87.87,0,0,0,.31.22,1,1,0,0,0,.44.09A.88.88,0,0,0,65,196a.72.72,0,0,0,.27-.46h.51A1.27,1.27,0,0,1,65.34,196.32Zm-.13-2a.71.71,0,0,0-.18-.27.77.77,0,0,0-.28-.19.78.78,0,0,0-.35-.07.86.86,0,0,0-.36.07.83.83,0,0,0-.27.19.9.9,0,0,0-.18.28,1.21,1.21,0,0,0-.08.34h1.78A.85.85,0,0,0,65.21,194.32Z"/><path class="cls-12" d="M67.72,193.86v-.45h.52V193a.71.71,0,0,1,.22-.57.94.94,0,0,1,.64-.2h.16l.17,0v.44l-.14,0h-.15a.59.59,0,0,0-.29.07.35.35,0,0,0-.1.28v.43h.6v.45h-.6v2.65h-.51v-2.65Z"/><path class="cls-12" d="M69.73,194.33a1.55,1.55,0,0,1,.29-.52,1.39,1.39,0,0,1,.48-.34,1.47,1.47,0,0,1,.64-.13,1.53,1.53,0,0,1,.66.13,1.45,1.45,0,0,1,.47.34,1.53,1.53,0,0,1,.28.52,1.91,1.91,0,0,1,.1.64,1.85,1.85,0,0,1-.1.63,1.4,1.4,0,0,1-.28.51,1.35,1.35,0,0,1-.47.35,1.69,1.69,0,0,1-.66.12,1.62,1.62,0,0,1-.64-.12,1.3,1.3,0,0,1-.48-.35,1.42,1.42,0,0,1-.29-.51,2.13,2.13,0,0,1-.09-.63A2.2,2.2,0,0,1,69.73,194.33Zm.52,1.14a1,1,0,0,0,.21.36.87.87,0,0,0,.31.23,1,1,0,0,0,.37.08,1,1,0,0,0,.38-.08.87.87,0,0,0,.31-.23,1,1,0,0,0,.21-.36,1.59,1.59,0,0,0,.07-.5,1.51,1.51,0,0,0-.07-.5,1,1,0,0,0-.21-.37.87.87,0,0,0-.31-.23,1,1,0,0,0-.38-.08,1,1,0,0,0-.37.08.87.87,0,0,0-.31.23,1,1,0,0,0-.21.37,1.51,1.51,0,0,0-.07.5A1.59,1.59,0,0,0,70.25,195.47Z"/><path class="cls-12" d="M73.71,193.41v.66h0a1.39,1.39,0,0,1,.46-.56,1.14,1.14,0,0,1,.69-.17v.54a1.64,1.64,0,0,0-.53.08.9.9,0,0,0-.35.25,1.18,1.18,0,0,0-.19.39,2.15,2.15,0,0,0-.06.53v1.38h-.51v-3.1Z"/><path class="cls-12" d="M78.24,193.41v.45h-.62v1.93a.46.46,0,0,0,0,.14.15.15,0,0,0,.06.09.23.23,0,0,0,.11,0h.43v.45h-.39a1.78,1.78,0,0,1-.34,0,.45.45,0,0,1-.22-.1.38.38,0,0,1-.13-.21,1.05,1.05,0,0,1,0-.34v-2h-.53v-.45h.53v-.93h.5v.93Z"/><path class="cls-12" d="M79.32,192.23v1.64h0a.53.53,0,0,1,.17-.24,1,1,0,0,1,.24-.17,1.31,1.31,0,0,1,.28-.09,1.43,1.43,0,0,1,.29,0,1.52,1.52,0,0,1,.51.08,1,1,0,0,1,.33.24.86.86,0,0,1,.17.36,1.59,1.59,0,0,1,.05.45v2h-.5v-2.1a.61.61,0,0,0-.17-.45.66.66,0,0,0-.47-.17,1,1,0,0,0-.4.07.86.86,0,0,0-.29.21.92.92,0,0,0-.17.31,1.46,1.46,0,0,0-.05.38v1.75h-.51v-4.28Z"/><path class="cls-12" d="M84.34,196.32a1.46,1.46,0,0,1-.88.26,1.56,1.56,0,0,1-.64-.12,1.2,1.2,0,0,1-.46-.34,1.27,1.27,0,0,1-.28-.51A2.68,2.68,0,0,1,82,195a1.87,1.87,0,0,1,.11-.64,1.45,1.45,0,0,1,.31-.51,1.28,1.28,0,0,1,.46-.34,1.4,1.4,0,0,1,.58-.12,1.31,1.31,0,0,1,.69.17,1.42,1.42,0,0,1,.44.44,1.8,1.8,0,0,1,.23.57,3.17,3.17,0,0,1,0,.6H82.51a1.58,1.58,0,0,0,0,.38,1,1,0,0,0,.18.33.84.84,0,0,0,.3.22,1,1,0,0,0,.44.09A.88.88,0,0,0,84,196a.77.77,0,0,0,.28-.46h.5A1.27,1.27,0,0,1,84.34,196.32Zm-.12-2a.88.88,0,0,0-.19-.27.77.77,0,0,0-.28-.19.91.91,0,0,0-.7,0,.77.77,0,0,0-.28.19,1.12,1.12,0,0,0-.18.28,1.21,1.21,0,0,0-.08.34H84.3A1.37,1.37,0,0,0,84.22,194.32Z"/><path class="cls-12" d="M87.51,193.41v.49h0a1.07,1.07,0,0,1,1-.56,1.43,1.43,0,0,1,.51.08.83.83,0,0,1,.33.24.77.77,0,0,1,.18.36,2.06,2.06,0,0,1,0,.45v2h-.51v-2.1a.57.57,0,0,0-.17-.45.62.62,0,0,0-.46-.17,1,1,0,0,0-.4.07.78.78,0,0,0-.29.21.92.92,0,0,0-.17.31,1.12,1.12,0,0,0-.06.38v1.75H87v-3.1Z"/><path class="cls-12" d="M92.56,196.32a1.43,1.43,0,0,1-.87.26,1.64,1.64,0,0,1-.65-.12,1.28,1.28,0,0,1-.46-.34,1.38,1.38,0,0,1-.27-.51,2.28,2.28,0,0,1-.11-.66,1.87,1.87,0,0,1,.11-.64,1.44,1.44,0,0,1,.3-.51,1.38,1.38,0,0,1,.46-.34,1.45,1.45,0,0,1,.59-.12,1.33,1.33,0,0,1,.69.17,1.39,1.39,0,0,1,.43.44,1.59,1.59,0,0,1,.23.57,2.52,2.52,0,0,1,0,.6H90.74a1.2,1.2,0,0,0,.05.38.79.79,0,0,0,.48.55,1,1,0,0,0,.44.09.9.9,0,0,0,.53-.15.72.72,0,0,0,.27-.46H93A1.19,1.19,0,0,1,92.56,196.32Zm-.12-2a.85.85,0,0,0-.18-.27.77.77,0,0,0-.28-.19.81.81,0,0,0-.35-.07.86.86,0,0,0-.36.07.74.74,0,0,0-.27.19.75.75,0,0,0-.18.28,1.21,1.21,0,0,0-.08.34h1.78A1.05,1.05,0,0,0,92.44,194.32Z"/><path class="cls-12" d="M93.34,193.41H94l.74,1.09.78-1.09h.61l-1.07,1.43,1.2,1.67h-.65l-.87-1.28-.86,1.28h-.62l1.16-1.63Z"/><path class="cls-12" d="M98,193.41v.45h-.62v1.93a.53.53,0,0,0,0,.14.15.15,0,0,0,.06.09l.12,0H98v.45h-.4a1.62,1.62,0,0,1-.33,0,.42.42,0,0,1-.36-.31,1.05,1.05,0,0,1,0-.34v-2h-.53v-.45h.53v-.93h.51v.93Z"/><path class="cls-12" d="M14.36,204.59a1.43,1.43,0,0,1-1.09.38,2.2,2.2,0,0,1-.44-.05,1.13,1.13,0,0,1-.41-.16.89.89,0,0,1-.3-.28.81.81,0,0,1-.14-.42h.51a.43.43,0,0,0,.09.23.64.64,0,0,0,.2.16.72.72,0,0,0,.26.08,1.15,1.15,0,0,0,.26,0,.87.87,0,0,0,.42-.09.62.62,0,0,0,.29-.24,1,1,0,0,0,.17-.37,2.26,2.26,0,0,0,.05-.47v-.2h0a.86.86,0,0,1-.4.42,1.25,1.25,0,0,1-.57.13,1.48,1.48,0,0,1-.61-.12,1.44,1.44,0,0,1-.43-.34,1.58,1.58,0,0,1-.26-.5,2,2,0,0,1-.09-.6,2.3,2.3,0,0,1,.08-.57,1.34,1.34,0,0,1,.24-.53,1.52,1.52,0,0,1,.44-.39,1.4,1.4,0,0,1,.68-.15,1.13,1.13,0,0,1,.54.13.9.9,0,0,1,.38.39h0v-.45h.48v2.84A1.64,1.64,0,0,1,14.36,204.59Zm-.65-1.39a.83.83,0,0,0,.28-.28,1,1,0,0,0,.16-.39,1.59,1.59,0,0,0,.06-.43,1.75,1.75,0,0,0-.05-.4,1.46,1.46,0,0,0-.16-.36.81.81,0,0,0-.27-.25.76.76,0,0,0-.41-.1.93.93,0,0,0-.42.09.91.91,0,0,0-.44.61,1.54,1.54,0,0,0-.06.43,2,2,0,0,0,0,.42,1,1,0,0,0,.14.38.9.9,0,0,0,.27.28.77.77,0,0,0,.42.1A.83.83,0,0,0,13.71,203.2Z"/><path class="cls-12" d="M17.67,203.52a1.43,1.43,0,0,1-.87.26,1.6,1.6,0,0,1-.65-.12,1.28,1.28,0,0,1-.46-.34,1.4,1.4,0,0,1-.28-.51,2.69,2.69,0,0,1-.1-.66,1.66,1.66,0,0,1,.11-.64,1.44,1.44,0,0,1,.3-.51,1.28,1.28,0,0,1,.46-.34,1.41,1.41,0,0,1,.59-.12,1.29,1.29,0,0,1,.68.17,1.42,1.42,0,0,1,.44.44,1.59,1.59,0,0,1,.23.57,2.52,2.52,0,0,1,.05.6H15.85a1,1,0,0,0,.05.38.79.79,0,0,0,.48.55,1,1,0,0,0,.43.09.91.91,0,0,0,.54-.15.81.81,0,0,0,.27-.46h.5A1.27,1.27,0,0,1,17.67,203.52Zm-.12-2a1,1,0,0,0-.46-.46.84.84,0,0,0-.35-.07.83.83,0,0,0-.36.07.77.77,0,0,0-.27.19.75.75,0,0,0-.18.28.94.94,0,0,0-.08.34h1.78A1.05,1.05,0,0,0,17.55,201.52Z"/><path class="cls-12" d="M19.18,200.61v.49h0a1.08,1.08,0,0,1,1-.56,1.52,1.52,0,0,1,.51.08,1,1,0,0,1,.33.24.86.86,0,0,1,.17.36,1.58,1.58,0,0,1,.06.45v2h-.51v-2.1a.61.61,0,0,0-.17-.45.64.64,0,0,0-.46-.17,1,1,0,0,0-.41.07.74.74,0,0,0-.28.21.67.67,0,0,0-.17.31,1.12,1.12,0,0,0-.06.38v1.75H18.7v-3.1Z"/><path class="cls-12" d="M24.23,203.52a1.44,1.44,0,0,1-.88.26,1.59,1.59,0,0,1-.64-.12,1.2,1.2,0,0,1-.46-.34,1.4,1.4,0,0,1-.28-.51,2.28,2.28,0,0,1-.1-.66,1.87,1.87,0,0,1,.1-.64,1.62,1.62,0,0,1,.31-.51,1.28,1.28,0,0,1,.46-.34,1.4,1.4,0,0,1,.58-.12,1.31,1.31,0,0,1,.69.17,1.42,1.42,0,0,1,.44.44,1.8,1.8,0,0,1,.23.57,2.52,2.52,0,0,1,.05.6H22.41a1.2,1.2,0,0,0,0,.38,1,1,0,0,0,.18.33.84.84,0,0,0,.3.22,1,1,0,0,0,.44.09.86.86,0,0,0,.53-.15.77.77,0,0,0,.28-.46h.5A1.27,1.27,0,0,1,24.23,203.52Zm-.12-2a.88.88,0,0,0-.19-.27.92.92,0,0,0-.28-.19.91.91,0,0,0-.7,0,.92.92,0,0,0-.28.19,1.12,1.12,0,0,0-.18.28.94.94,0,0,0-.07.34h1.78A1.37,1.37,0,0,0,24.11,201.52Z"/><path class="cls-12" d="M25.72,200.61v.66h0a1.31,1.31,0,0,1,.46-.56,1.11,1.11,0,0,1,.68-.17v.54a1.58,1.58,0,0,0-.52.08.83.83,0,0,0-.35.25,1,1,0,0,0-.19.39,2.15,2.15,0,0,0-.06.53v1.38h-.51v-3.1Z"/><path class="cls-12" d="M30,203.7a.74.74,0,0,1-.36.08.46.46,0,0,1-.32-.11.47.47,0,0,1-.12-.36,1.23,1.23,0,0,1-.49.36,1.64,1.64,0,0,1-.6.11,1.75,1.75,0,0,1-.4-.05.86.86,0,0,1-.32-.15.62.62,0,0,1-.22-.26.84.84,0,0,1-.08-.4,1,1,0,0,1,.09-.44.75.75,0,0,1,.23-.27,1.19,1.19,0,0,1,.34-.16l.39-.09.4-.06a1.61,1.61,0,0,0,.33-.06.7.7,0,0,0,.23-.11.31.31,0,0,0,.08-.22.49.49,0,0,0-.06-.27.61.61,0,0,0-.16-.16.62.62,0,0,0-.23-.07l-.24,0a1.08,1.08,0,0,0-.54.12.54.54,0,0,0-.23.47h-.51a.94.94,0,0,1,.12-.49.87.87,0,0,1,.28-.32,1.38,1.38,0,0,1,.41-.18,2.65,2.65,0,0,1,.5-.05l.42,0a1.15,1.15,0,0,1,.37.12.72.72,0,0,1,.37.7V203a.91.91,0,0,0,0,.27c0,.05.06.08.14.08l.15,0Zm-.83-1.59a.65.65,0,0,1-.25.1l-.33.06-.34,0a1.26,1.26,0,0,0-.31.09.66.66,0,0,0-.23.17.49.49,0,0,0-.09.3.38.38,0,0,0,.06.22.35.35,0,0,0,.13.14l.19.08.23,0a1.14,1.14,0,0,0,.43-.07.82.82,0,0,0,.29-.17.72.72,0,0,0,.17-.23.5.5,0,0,0,.05-.23Z"/><path class="cls-12" d="M31.8,200.61v.45h-.62V203a.46.46,0,0,0,0,.14.15.15,0,0,0,.06.09.23.23,0,0,0,.11,0h.43v.45h-.39a1.78,1.78,0,0,1-.34,0,.42.42,0,0,1-.36-.31,1.44,1.44,0,0,1,0-.34v-2h-.52v-.45h.52v-.93h.51v.93Z"/><path class="cls-12" d="M32.4,200.05v-.62h.51v.62Zm.51.56v3.1H32.4v-3.1Z"/><path class="cls-12" d="M33.62,201.53a1.75,1.75,0,0,1,.29-.52,1.39,1.39,0,0,1,.48-.34,1.48,1.48,0,0,1,.65-.13,1.51,1.51,0,0,1,.65.13,1.45,1.45,0,0,1,.47.34,1.55,1.55,0,0,1,.29.52,2.2,2.2,0,0,1,.09.64,2.13,2.13,0,0,1-.09.63,1.55,1.55,0,0,1-.29.52,1.45,1.45,0,0,1-.47.34,1.67,1.67,0,0,1-.65.12,1.64,1.64,0,0,1-.65-.12,1.39,1.39,0,0,1-.48-.34,1.75,1.75,0,0,1-.29-.52,2.13,2.13,0,0,1-.09-.63A2.2,2.2,0,0,1,33.62,201.53Zm.52,1.14a1,1,0,0,0,.21.36.87.87,0,0,0,.31.23,1,1,0,0,0,.38.08,1,1,0,0,0,.37-.08.87.87,0,0,0,.31-.23,1,1,0,0,0,.21-.36,1.59,1.59,0,0,0,.07-.5,1.51,1.51,0,0,0-.07-.5,1,1,0,0,0-.21-.37.87.87,0,0,0-.31-.23A1,1,0,0,0,35,201a1,1,0,0,0-.38.08.87.87,0,0,0-.31.23,1,1,0,0,0-.21.37,1.51,1.51,0,0,0-.07.5A1.59,1.59,0,0,0,34.14,202.67Z"/><path class="cls-12" d="M37.62,200.61v.49h0a1.09,1.09,0,0,1,1-.56,1.43,1.43,0,0,1,.51.08.83.83,0,0,1,.33.24.87.87,0,0,1,.18.36,2.06,2.06,0,0,1,.05.45v2H39.2v-2.1a.61.61,0,0,0-.17-.45.62.62,0,0,0-.46-.17,1,1,0,0,0-.41.07.83.83,0,0,0-.28.21.78.78,0,0,0-.17.31,1.12,1.12,0,0,0-.06.38v1.75h-.51v-3.1Z"/><path class="cls-12" d="M42.6,204.23a4.54,4.54,0,0,1-.3-.68,4.26,4.26,0,0,1-.19-.7,3.7,3.7,0,0,1-.07-.76,4.64,4.64,0,0,1,1-2.76h.38a5.18,5.18,0,0,0-.61,1.35,5.45,5.45,0,0,0-.18,1.41,5.17,5.17,0,0,0,.19,1.44,5.25,5.25,0,0,0,.6,1.37H43A6.78,6.78,0,0,1,42.6,204.23Z"/><path class="cls-12" d="M43.92,200.21a1,1,0,0,1,.16-.38.72.72,0,0,1,.3-.27,1.11,1.11,0,0,1,.92,0,.82.82,0,0,1,.3.25,1.13,1.13,0,0,1,.15.39,2.24,2.24,0,0,1,0,.46,2.14,2.14,0,0,1,0,.45,1.15,1.15,0,0,1-.17.39.83.83,0,0,1-.3.26.84.84,0,0,1-.44.11,1,1,0,0,1-.46-.1.81.81,0,0,1-.3-.25,1.18,1.18,0,0,1-.16-.38,1.71,1.71,0,0,1-.05-.46A1.78,1.78,0,0,1,43.92,200.21Zm.41.74a1.15,1.15,0,0,0,.07.28.71.71,0,0,0,.15.22.4.4,0,0,0,.27.09.41.41,0,0,0,.28-.09.49.49,0,0,0,.16-.21,1.23,1.23,0,0,0,.07-.29c0-.1,0-.2,0-.29s0-.18,0-.28a1.24,1.24,0,0,0-.06-.29.65.65,0,0,0-.16-.21.37.37,0,0,0-.27-.09.4.4,0,0,0-.27.09.65.65,0,0,0-.16.21,1.23,1.23,0,0,0-.08.29,2.81,2.81,0,0,0,0,.29C44.32,200.75,44.32,200.85,44.33,201Zm3.85-1.57L45,203.84h-.52l3.23-4.46Zm-1.3,2.75a1,1,0,0,1,.16-.38.86.86,0,0,1,.3-.27.92.92,0,0,1,.46-.1.94.94,0,0,1,.47.1.79.79,0,0,1,.29.25,1,1,0,0,1,.16.39,2.25,2.25,0,0,1,0,.46,1.64,1.64,0,0,1,0,.45,1,1,0,0,1-.17.39.73.73,0,0,1-.29.26.88.88,0,0,1-.45.1,1,1,0,0,1-.45-.09.75.75,0,0,1-.3-.25,1.19,1.19,0,0,1-.17-.38,2.24,2.24,0,0,1-.05-.46A2.34,2.34,0,0,1,46.88,202.13Zm.42.74a.82.82,0,0,0,.07.28.48.48,0,0,0,.15.22.37.37,0,0,0,.27.09.4.4,0,0,0,.27-.09.49.49,0,0,0,.16-.21.88.88,0,0,0,.07-.29,1.46,1.46,0,0,0,0-.29,2.72,2.72,0,0,0,0-.28.88.88,0,0,0-.07-.29.8.8,0,0,0-.15-.21.41.41,0,0,0-.28-.09.4.4,0,0,0-.27.09.65.65,0,0,0-.16.21,1.23,1.23,0,0,0-.07.29,2.83,2.83,0,0,0,0,.29C47.28,202.67,47.29,202.77,47.3,202.87Z"/><path class="cls-12" d="M49.87,203.54a5.43,5.43,0,0,0,.18-1.4,5.17,5.17,0,0,0-.19-1.44,5.25,5.25,0,0,0-.6-1.37h.38c.15.22.28.45.4.67a5.79,5.79,0,0,1,.29.68,4.26,4.26,0,0,1,.19.7,4.56,4.56,0,0,1,.07.76,4.46,4.46,0,0,1-.24,1.42,4.55,4.55,0,0,1-.71,1.34h-.38A5.24,5.24,0,0,0,49.87,203.54Z"/><path class="cls-14" d="M4.1,184.37a3.57,3.57,0,1,0,3.57,3.56,3.56,3.56,0,0,0-3.57-3.56"/><polyline class="cls-15" points="0.53 214.13 5.18 219.96 12.53 213.71"/><polygon class="cls-16" points="13.43 215.72 14.84 211.74 10.69 212.5 13.43 215.72"/></g></g></svg>