<?xml version="1.0" encoding="utf-8"?>
<!-- Generator: Adobe Illustrator 24.3.0, SVG Export Plug-In . SVG Version: 6.00 Build 0)  -->
<svg version="1.1" id="Layer_1" xmlns="http://www.w3.org/2000/svg" xmlns:xlink="http://www.w3.org/1999/xlink" x="0px" y="0px"
	 viewBox="0 0 113.5 221" style="enable-background:new 0 0 113.5 221;" xml:space="preserve">
<style type="text/css">
	.st0{enable-background:new    ;}
	.st1{fill:#3F1A13;}
	.st2{fill:#1C3D75;}
	.st3{fill:none;stroke:#3F1A13;stroke-width:1.06;stroke-miterlimit:10;}
	.st4{fill:#F8B233;}
	.st5{fill:#26A3DE;}
	.st6{fill:#C46157;}
	.st7{fill:none;stroke:#F8B233;stroke-width:3;stroke-miterlimit:10;}
	.st8{fill:none;stroke:#D9D1D0;stroke-width:0.5;stroke-miterlimit:10;}
	.st9{fill:#3E1A13;}
	.st10{fill:#C46057;}
	.st11{fill:#2AA2DC;}
	.st12{fill:#F7B232;}
	.st13{fill:#1B3E73;}
	.st14{fill:none;stroke:#D9D1D0;stroke-width:0.5;stroke-linecap:round;}
</style>
<g id="Layer_2_1_">
	<g id="Isolation_Mode">
		<g class="st0">
			<path class="st1" d="M2.5,75v-4.7H0.7v-0.6h4.3v0.6H3.2V75H2.5z"/>
			<path class="st1" d="M5.6,75v-5.4h0.7v1.9C6.6,71.2,6.9,71,7.4,71c0.3,0,0.5,0.1,0.8,0.2c0.2,0.1,0.4,0.3,0.5,0.5
				c0.1,0.2,0.1,0.5,0.1,0.9V75H8.1v-2.5c0-0.3-0.1-0.6-0.2-0.7c-0.1-0.1-0.3-0.2-0.6-0.2c-0.2,0-0.4,0.1-0.6,0.2
				c-0.2,0.1-0.3,0.2-0.4,0.4c-0.1,0.2-0.1,0.4-0.1,0.7V75H5.6z"/>
			<path class="st1" d="M12.4,73.7l0.7,0.1c-0.1,0.4-0.3,0.7-0.6,0.9c-0.3,0.2-0.7,0.3-1.1,0.3c-0.6,0-1-0.2-1.4-0.5
				S9.5,73.7,9.5,73c0-0.7,0.2-1.2,0.5-1.5c0.3-0.4,0.8-0.5,1.3-0.5c0.5,0,0.9,0.2,1.3,0.5c0.3,0.4,0.5,0.9,0.5,1.5c0,0,0,0.1,0,0.2
				h-2.9c0,0.4,0.1,0.8,0.4,1c0.2,0.2,0.5,0.3,0.8,0.3c0.2,0,0.4-0.1,0.6-0.2S12.3,74,12.4,73.7z M10.3,72.6h2.2
				c0-0.3-0.1-0.6-0.2-0.7c-0.2-0.3-0.5-0.4-0.8-0.4c-0.3,0-0.6,0.1-0.8,0.3C10.4,72,10.3,72.3,10.3,72.6z"/>
			<path class="st1" d="M16.6,75H16v-5.4h0.7v1.9c0.3-0.3,0.6-0.5,1.1-0.5c0.2,0,0.5,0,0.7,0.1c0.2,0.1,0.4,0.2,0.5,0.4
				s0.2,0.4,0.3,0.6c0.1,0.2,0.1,0.5,0.1,0.8c0,0.7-0.2,1.2-0.5,1.5c-0.3,0.4-0.7,0.5-1.2,0.5c-0.5,0-0.8-0.2-1.1-0.6V75z M16.6,73
				c0,0.5,0.1,0.8,0.2,1c0.2,0.3,0.5,0.5,0.8,0.5c0.3,0,0.5-0.1,0.7-0.4c0.2-0.3,0.3-0.6,0.3-1.1c0-0.5-0.1-0.9-0.3-1.1
				c-0.2-0.2-0.4-0.4-0.7-0.4c-0.3,0-0.5,0.1-0.7,0.4C16.7,72.2,16.6,72.5,16.6,73z"/>
			<path class="st1" d="M20.2,70.3v-0.8h0.7v0.8H20.2z M20.2,75v-3.9h0.7V75H20.2z"/>
			<path class="st1" d="M21.7,75.3l0.6,0.1c0,0.2,0.1,0.3,0.2,0.4c0.2,0.1,0.4,0.2,0.7,0.2c0.3,0,0.5-0.1,0.7-0.2s0.3-0.3,0.3-0.5
				c0-0.1,0-0.4,0-0.8c-0.3,0.3-0.6,0.5-1.1,0.5c-0.5,0-0.9-0.2-1.2-0.6s-0.4-0.8-0.4-1.4c0-0.4,0.1-0.7,0.2-1
				c0.1-0.3,0.3-0.6,0.6-0.7s0.6-0.3,0.9-0.3c0.5,0,0.8,0.2,1.1,0.6v-0.5H25v3.4c0,0.6-0.1,1-0.2,1.3c-0.1,0.3-0.3,0.5-0.6,0.6
				c-0.3,0.1-0.6,0.2-1,0.2c-0.5,0-0.8-0.1-1.1-0.3C21.9,76,21.7,75.7,21.7,75.3z M22.3,72.9c0,0.5,0.1,0.9,0.3,1.1
				c0.2,0.2,0.5,0.4,0.8,0.4c0.3,0,0.6-0.1,0.8-0.3s0.3-0.6,0.3-1.1c0-0.5-0.1-0.8-0.3-1.1c-0.2-0.2-0.5-0.4-0.8-0.4
				c-0.3,0-0.5,0.1-0.7,0.4S22.3,72.5,22.3,72.9z"/>
			<path class="st1" d="M25.9,75.3l0.6,0.1c0,0.2,0.1,0.3,0.2,0.4c0.2,0.1,0.4,0.2,0.7,0.2c0.3,0,0.5-0.1,0.7-0.2s0.3-0.3,0.3-0.5
				c0-0.1,0-0.4,0-0.8c-0.3,0.3-0.6,0.5-1.1,0.5c-0.5,0-0.9-0.2-1.2-0.6s-0.4-0.8-0.4-1.4c0-0.4,0.1-0.7,0.2-1
				c0.1-0.3,0.3-0.6,0.6-0.7s0.6-0.3,0.9-0.3c0.5,0,0.8,0.2,1.1,0.6v-0.5h0.6v3.4c0,0.6-0.1,1-0.2,1.3c-0.1,0.3-0.3,0.5-0.6,0.6
				c-0.3,0.1-0.6,0.2-1,0.2c-0.5,0-0.8-0.1-1.1-0.3C26,76,25.9,75.7,25.9,75.3z M26.4,72.9c0,0.5,0.1,0.9,0.3,1.1
				c0.2,0.2,0.5,0.4,0.8,0.4c0.3,0,0.6-0.1,0.8-0.3s0.3-0.6,0.3-1.1c0-0.5-0.1-0.8-0.3-1.1c-0.2-0.2-0.5-0.4-0.8-0.4
				c-0.3,0-0.5,0.1-0.7,0.4S26.4,72.5,26.4,72.9z"/>
			<path class="st1" d="M32.9,73.7l0.7,0.1c-0.1,0.4-0.3,0.7-0.6,0.9c-0.3,0.2-0.7,0.3-1.1,0.3c-0.6,0-1-0.2-1.4-0.5S30,73.7,30,73
				c0-0.7,0.2-1.2,0.5-1.5c0.3-0.4,0.8-0.5,1.3-0.5c0.5,0,0.9,0.2,1.3,0.5c0.3,0.4,0.5,0.9,0.5,1.5c0,0,0,0.1,0,0.2h-2.9
				c0,0.4,0.1,0.8,0.4,1c0.2,0.2,0.5,0.3,0.8,0.3c0.2,0,0.4-0.1,0.6-0.2S32.8,74,32.9,73.7z M30.7,72.6h2.2c0-0.3-0.1-0.6-0.2-0.7
				c-0.2-0.3-0.5-0.4-0.8-0.4c-0.3,0-0.6,0.1-0.8,0.3C30.8,72,30.7,72.3,30.7,72.6z"/>
			<path class="st1" d="M34.4,75v-3.9h0.6v0.6c0.2-0.3,0.3-0.5,0.4-0.5s0.3-0.1,0.4-0.1c0.2,0,0.4,0.1,0.7,0.2l-0.2,0.6
				c-0.2-0.1-0.3-0.1-0.5-0.1c-0.1,0-0.3,0-0.4,0.1c-0.1,0.1-0.2,0.2-0.2,0.4c-0.1,0.2-0.1,0.5-0.1,0.8v2H34.4z"/>
			<path class="st1" d="M40.4,74.4l0.1,0.6C40.3,75,40.1,75,40,75c-0.2,0-0.4,0-0.6-0.1c-0.1-0.1-0.2-0.2-0.3-0.3
				c-0.1-0.1-0.1-0.4-0.1-0.8v-2.2h-0.5v-0.5h0.5v-1l0.7-0.4v1.4h0.7v0.5h-0.7v2.3c0,0.2,0,0.3,0,0.4c0,0.1,0.1,0.1,0.1,0.1
				c0.1,0,0.1,0,0.2,0C40.2,74.4,40.3,74.4,40.4,74.4z"/>
			<path class="st1" d="M41,75v-5.4h0.7v1.9c0.3-0.4,0.7-0.5,1.2-0.5c0.3,0,0.5,0.1,0.8,0.2c0.2,0.1,0.4,0.3,0.5,0.5
				c0.1,0.2,0.1,0.5,0.1,0.9V75h-0.7v-2.5c0-0.3-0.1-0.6-0.2-0.7c-0.1-0.1-0.3-0.2-0.6-0.2c-0.2,0-0.4,0.1-0.6,0.2
				c-0.2,0.1-0.3,0.2-0.4,0.4c-0.1,0.2-0.1,0.4-0.1,0.7V75H41z"/>
			<path class="st1" d="M47.9,73.7l0.7,0.1c-0.1,0.4-0.3,0.7-0.6,0.9c-0.3,0.2-0.7,0.3-1.1,0.3c-0.6,0-1-0.2-1.4-0.5
				C45.1,74.2,45,73.7,45,73c0-0.7,0.2-1.2,0.5-1.5c0.3-0.4,0.8-0.5,1.3-0.5c0.5,0,0.9,0.2,1.3,0.5c0.3,0.4,0.5,0.9,0.5,1.5
				c0,0,0,0.1,0,0.2h-2.9c0,0.4,0.1,0.8,0.4,1c0.2,0.2,0.5,0.3,0.8,0.3c0.2,0,0.4-0.1,0.6-0.2S47.8,74,47.9,73.7z M45.7,72.6h2.2
				c0-0.3-0.1-0.6-0.2-0.7c-0.2-0.3-0.5-0.4-0.8-0.4c-0.3,0-0.6,0.1-0.8,0.3C45.8,72,45.7,72.3,45.7,72.6z"/>
			<path class="st1" d="M51.4,76.5l-0.1-0.6c0.1,0,0.3,0.1,0.4,0.1c0.1,0,0.3,0,0.4-0.1s0.2-0.1,0.2-0.2c0-0.1,0.1-0.2,0.2-0.5
				c0,0,0-0.1,0.1-0.2l-1.5-3.9h0.7l0.8,2.3c0.1,0.3,0.2,0.6,0.3,0.9c0.1-0.3,0.2-0.6,0.3-0.9l0.8-2.3h0.7l-1.5,4
				c-0.2,0.4-0.3,0.7-0.4,0.9c-0.1,0.2-0.3,0.4-0.4,0.5c-0.2,0.1-0.3,0.2-0.5,0.2C51.7,76.5,51.6,76.5,51.4,76.5z"/>
			<path class="st1" d="M57.9,73.7l0.7,0.1c-0.1,0.4-0.3,0.7-0.6,0.9c-0.3,0.2-0.7,0.3-1.1,0.3c-0.6,0-1-0.2-1.4-0.5
				C55.2,74.2,55,73.7,55,73c0-0.7,0.2-1.2,0.5-1.5c0.3-0.4,0.8-0.5,1.3-0.5c0.5,0,0.9,0.2,1.3,0.5c0.3,0.4,0.5,0.9,0.5,1.5
				c0,0,0,0.1,0,0.2h-2.9c0,0.4,0.1,0.8,0.4,1c0.2,0.2,0.5,0.3,0.8,0.3c0.2,0,0.4-0.1,0.6-0.2S57.8,74,57.9,73.7z M55.7,72.6h2.2
				c0-0.3-0.1-0.6-0.2-0.7c-0.2-0.3-0.5-0.4-0.8-0.4c-0.3,0-0.6,0.1-0.8,0.3C55.8,72,55.7,72.3,55.7,72.6z"/>
			<path class="st1" d="M59.4,75v-5.4H60V75H59.4z"/>
			<path class="st1" d="M61,75v-5.4h0.7V75H61z"/>
			<path class="st1" d="M62.5,73c0-0.7,0.2-1.3,0.6-1.6c0.3-0.3,0.7-0.4,1.2-0.4c0.5,0,1,0.2,1.3,0.5c0.3,0.3,0.5,0.8,0.5,1.5
				c0,0.5-0.1,0.9-0.2,1.2s-0.4,0.5-0.7,0.7C64.9,75,64.6,75,64.3,75c-0.5,0-1-0.2-1.3-0.5C62.6,74.2,62.5,73.7,62.5,73z M63.1,73
				c0,0.5,0.1,0.9,0.3,1.1c0.2,0.2,0.5,0.4,0.8,0.4c0.3,0,0.6-0.1,0.8-0.4c0.2-0.2,0.3-0.6,0.3-1.1c0-0.5-0.1-0.8-0.3-1.1
				s-0.5-0.4-0.8-0.4c-0.3,0-0.6,0.1-0.8,0.4C63.2,72.1,63.1,72.5,63.1,73z"/>
			<path class="st1" d="M67.6,75l-1.2-3.9h0.7l0.6,2.2l0.2,0.8c0,0,0.1-0.3,0.2-0.8l0.6-2.3h0.7l0.6,2.3l0.2,0.7l0.2-0.8l0.7-2.2
				h0.6L70.5,75h-0.7l-0.6-2.3L69.1,72l-0.8,3H67.6z"/>
			<path class="st1" d="M76.9,73.5l0.6,0.1c-0.1,0.4-0.3,0.8-0.5,1S76.4,75,75.9,75c-0.5,0-1-0.2-1.3-0.5c-0.3-0.3-0.5-0.8-0.5-1.5
				c0-0.4,0.1-0.8,0.2-1.1c0.1-0.3,0.4-0.6,0.6-0.7c0.3-0.2,0.6-0.2,0.9-0.2c0.4,0,0.8,0.1,1,0.3c0.3,0.2,0.4,0.5,0.5,0.9l-0.6,0.1
				c-0.1-0.3-0.2-0.5-0.3-0.6s-0.3-0.2-0.6-0.2c-0.3,0-0.6,0.1-0.8,0.4c-0.2,0.2-0.3,0.6-0.3,1.1c0,0.5,0.1,0.9,0.3,1.1
				c0.2,0.2,0.5,0.4,0.8,0.4c0.3,0,0.5-0.1,0.6-0.2C76.8,74.1,76.9,73.9,76.9,73.5z"/>
			<path class="st1" d="M78.1,70.3v-0.8h0.7v0.8H78.1z M78.1,75v-3.9h0.7V75H78.1z"/>
			<path class="st1" d="M79.8,75v-3.9h0.6v0.6c0.2-0.3,0.3-0.5,0.4-0.5s0.3-0.1,0.4-0.1c0.2,0,0.4,0.1,0.7,0.2l-0.2,0.6
				c-0.2-0.1-0.3-0.1-0.5-0.1c-0.1,0-0.3,0-0.4,0.1c-0.1,0.1-0.2,0.2-0.2,0.4c-0.1,0.2-0.1,0.5-0.1,0.8v2H79.8z"/>
			<path class="st1" d="M84.8,73.5l0.6,0.1c-0.1,0.4-0.3,0.8-0.5,1S84.3,75,83.9,75c-0.5,0-1-0.2-1.3-0.5c-0.3-0.3-0.5-0.8-0.5-1.5
				c0-0.4,0.1-0.8,0.2-1.1c0.1-0.3,0.4-0.6,0.6-0.7c0.3-0.2,0.6-0.2,0.9-0.2c0.4,0,0.8,0.1,1,0.3c0.3,0.2,0.4,0.5,0.5,0.9l-0.6,0.1
				c-0.1-0.3-0.2-0.5-0.3-0.6s-0.3-0.2-0.6-0.2c-0.3,0-0.6,0.1-0.8,0.4c-0.2,0.2-0.3,0.6-0.3,1.1c0,0.5,0.1,0.9,0.3,1.1
				c0.2,0.2,0.5,0.4,0.8,0.4c0.3,0,0.5-0.1,0.6-0.2C84.7,74.1,84.8,73.9,84.8,73.5z"/>
			<path class="st1" d="M86,75v-5.4h0.7V75H86z"/>
			<path class="st1" d="M90.4,73.7l0.7,0.1c-0.1,0.4-0.3,0.7-0.6,0.9c-0.3,0.2-0.7,0.3-1.1,0.3c-0.6,0-1-0.2-1.4-0.5
				c-0.3-0.4-0.5-0.8-0.5-1.5c0-0.7,0.2-1.2,0.5-1.5c0.3-0.4,0.8-0.5,1.3-0.5c0.5,0,0.9,0.2,1.3,0.5c0.3,0.4,0.5,0.9,0.5,1.5
				c0,0,0,0.1,0,0.2h-2.9c0,0.4,0.1,0.8,0.4,1c0.2,0.2,0.5,0.3,0.8,0.3c0.2,0,0.4-0.1,0.6-0.2S90.3,74,90.4,73.7z M88.2,72.6h2.2
				c0-0.3-0.1-0.6-0.2-0.7c-0.2-0.3-0.5-0.4-0.8-0.4c-0.3,0-0.6,0.1-0.8,0.3C88.3,72,88.2,72.3,88.2,72.6z"/>
			<path class="st1" d="M92.1,75v-0.8h0.8V75c0,0.3,0,0.5-0.1,0.7c-0.1,0.2-0.3,0.3-0.5,0.4L92,75.7c0.1-0.1,0.2-0.2,0.3-0.3
				c0.1-0.1,0.1-0.3,0.1-0.5H92.1z"/>
		</g>
		<g class="st0">
			<path class="st1" d="M2.4,83.9l0.1,0.6c-0.2,0-0.4,0.1-0.5,0.1c-0.2,0-0.4,0-0.6-0.1c-0.1-0.1-0.2-0.2-0.3-0.3
				c-0.1-0.1-0.1-0.4-0.1-0.8v-2.2H0.6v-0.5h0.5v-1l0.7-0.4v1.4h0.7v0.5H1.8v2.3c0,0.2,0,0.3,0,0.4c0,0.1,0.1,0.1,0.1,0.1
				c0.1,0,0.1,0,0.2,0C2.2,83.9,2.3,83.9,2.4,83.9z"/>
			<path class="st1" d="M3.1,84.5v-5.4h0.7V81c0.3-0.4,0.7-0.5,1.2-0.5c0.3,0,0.5,0.1,0.8,0.2c0.2,0.1,0.4,0.3,0.5,0.5
				c0.1,0.2,0.1,0.5,0.1,0.9v2.5H5.6V82c0-0.3-0.1-0.6-0.2-0.7c-0.1-0.1-0.3-0.2-0.6-0.2c-0.2,0-0.4,0.1-0.6,0.2
				c-0.2,0.1-0.3,0.2-0.4,0.4c-0.1,0.2-0.1,0.4-0.1,0.7v2.1H3.1z"/>
			<path class="st1" d="M9.9,83.2l0.7,0.1c-0.1,0.4-0.3,0.7-0.6,0.9c-0.3,0.2-0.7,0.3-1.1,0.3c-0.6,0-1-0.2-1.4-0.5
				C7.2,83.7,7,83.2,7,82.5c0-0.7,0.2-1.2,0.5-1.5c0.3-0.4,0.8-0.5,1.3-0.5c0.5,0,0.9,0.2,1.3,0.5c0.3,0.4,0.5,0.9,0.5,1.5
				c0,0,0,0.1,0,0.2H7.7c0,0.4,0.1,0.8,0.4,1C8.3,83.9,8.6,84,8.9,84c0.2,0,0.4-0.1,0.6-0.2S9.8,83.5,9.9,83.2z M7.8,82.1h2.2
				c0-0.3-0.1-0.6-0.2-0.7C9.5,81.2,9.2,81,8.9,81c-0.3,0-0.6,0.1-0.8,0.3C7.9,81.5,7.8,81.8,7.8,82.1z"/>
			<path class="st1" d="M13.5,84.5v-3.9h0.6v0.5c0.1-0.2,0.3-0.3,0.5-0.5c0.2-0.1,0.4-0.2,0.7-0.2c0.3,0,0.5,0.1,0.7,0.2
				c0.2,0.1,0.3,0.3,0.4,0.5c0.3-0.5,0.7-0.7,1.2-0.7c0.4,0,0.7,0.1,0.9,0.3c0.2,0.2,0.3,0.5,0.3,1v2.7h-0.7V82c0-0.3,0-0.5-0.1-0.6
				s-0.1-0.2-0.2-0.3c-0.1-0.1-0.2-0.1-0.4-0.1c-0.3,0-0.5,0.1-0.7,0.3s-0.3,0.5-0.3,0.9v2.3h-0.7v-2.5c0-0.3-0.1-0.5-0.2-0.7
				s-0.3-0.2-0.5-0.2c-0.2,0-0.4,0-0.5,0.1c-0.2,0.1-0.3,0.2-0.3,0.4c-0.1,0.2-0.1,0.5-0.1,0.8v2H13.5z"/>
			<path class="st1" d="M19.5,82.5c0-0.7,0.2-1.3,0.6-1.6c0.3-0.3,0.7-0.4,1.2-0.4c0.5,0,1,0.2,1.3,0.5c0.3,0.3,0.5,0.8,0.5,1.5
				c0,0.5-0.1,0.9-0.2,1.2c-0.1,0.3-0.4,0.5-0.7,0.7c-0.3,0.2-0.6,0.2-0.9,0.2c-0.5,0-1-0.2-1.3-0.5C19.7,83.7,19.5,83.2,19.5,82.5z
				 M20.2,82.5c0,0.5,0.1,0.9,0.3,1.1c0.2,0.2,0.5,0.4,0.8,0.4c0.3,0,0.6-0.1,0.8-0.4c0.2-0.2,0.3-0.6,0.3-1.1
				c0-0.5-0.1-0.8-0.3-1.1c-0.2-0.2-0.5-0.4-0.8-0.4c-0.3,0-0.6,0.1-0.8,0.4C20.3,81.6,20.2,82,20.2,82.5z"/>
			<path class="st1" d="M23.9,84.5v-3.9h0.6v0.6c0.2-0.3,0.3-0.5,0.4-0.5s0.3-0.1,0.4-0.1c0.2,0,0.4,0.1,0.7,0.2l-0.2,0.6
				c-0.2-0.1-0.3-0.1-0.5-0.1c-0.1,0-0.3,0-0.4,0.1c-0.1,0.1-0.2,0.2-0.2,0.4c-0.1,0.2-0.1,0.5-0.1,0.8v2H23.9z"/>
			<path class="st1" d="M29.1,83.2l0.7,0.1c-0.1,0.4-0.3,0.7-0.6,0.9c-0.3,0.2-0.7,0.3-1.1,0.3c-0.6,0-1-0.2-1.4-0.5
				c-0.3-0.4-0.5-0.8-0.5-1.5c0-0.7,0.2-1.2,0.5-1.5c0.3-0.4,0.8-0.5,1.3-0.5c0.5,0,0.9,0.2,1.3,0.5c0.3,0.4,0.5,0.9,0.5,1.5
				c0,0,0,0.1,0,0.2h-2.9c0,0.4,0.1,0.8,0.4,1c0.2,0.2,0.5,0.3,0.8,0.3c0.2,0,0.4-0.1,0.6-0.2S29,83.5,29.1,83.2z M26.9,82.1h2.2
				c0-0.3-0.1-0.6-0.2-0.7C28.6,81.2,28.4,81,28,81c-0.3,0-0.6,0.1-0.8,0.3C27.1,81.5,27,81.8,26.9,82.1z"/>
			<path class="st1" d="M34.1,83.9l0.1,0.6c-0.2,0-0.4,0.1-0.5,0.1c-0.2,0-0.4,0-0.6-0.1c-0.1-0.1-0.2-0.2-0.3-0.3
				c-0.1-0.1-0.1-0.4-0.1-0.8v-2.2h-0.5v-0.5h0.5v-1l0.7-0.4v1.4h0.7v0.5h-0.7v2.3c0,0.2,0,0.3,0,0.4c0,0.1,0.1,0.1,0.1,0.1
				c0.1,0,0.1,0,0.2,0C33.9,83.9,34,83.9,34.1,83.9z"/>
			<path class="st1" d="M34.8,84.5v-5.4h0.7V81c0.3-0.4,0.7-0.5,1.2-0.5c0.3,0,0.5,0.1,0.8,0.2c0.2,0.1,0.4,0.3,0.5,0.5
				c0.1,0.2,0.1,0.5,0.1,0.9v2.5h-0.7V82c0-0.3-0.1-0.6-0.2-0.7c-0.1-0.1-0.3-0.2-0.6-0.2c-0.2,0-0.4,0.1-0.6,0.2
				c-0.2,0.1-0.3,0.2-0.4,0.4c-0.1,0.2-0.1,0.4-0.1,0.7v2.1H34.8z"/>
			<path class="st1" d="M41.6,83.2l0.7,0.1c-0.1,0.4-0.3,0.7-0.6,0.9c-0.3,0.2-0.7,0.3-1.1,0.3c-0.6,0-1-0.2-1.4-0.5
				c-0.3-0.4-0.5-0.8-0.5-1.5c0-0.7,0.2-1.2,0.5-1.5c0.3-0.4,0.8-0.5,1.3-0.5c0.5,0,0.9,0.2,1.3,0.5c0.3,0.4,0.5,0.9,0.5,1.5
				c0,0,0,0.1,0,0.2h-2.9c0,0.4,0.1,0.8,0.4,1c0.2,0.2,0.5,0.3,0.8,0.3c0.2,0,0.4-0.1,0.6-0.2S41.5,83.5,41.6,83.2z M39.4,82.1h2.2
				c0-0.3-0.1-0.6-0.2-0.7c-0.2-0.3-0.5-0.4-0.8-0.4c-0.3,0-0.6,0.1-0.8,0.3C39.6,81.5,39.5,81.8,39.4,82.1z"/>
			<path class="st1" d="M45.2,84.5v-5.4h0.7v5.4H45.2z"/>
			<path class="st1" d="M46.9,79.8v-0.8h0.7v0.8H46.9z M46.9,84.5v-3.9h0.7v3.9H46.9z"/>
			<path class="st1" d="M48.5,84.5v-5.4h0.7v3.1l1.6-1.6h0.9L50.1,82l1.6,2.4h-0.8l-1.3-2l-0.5,0.4v1.5H48.5z"/>
			<path class="st1" d="M54.9,83.2l0.7,0.1c-0.1,0.4-0.3,0.7-0.6,0.9c-0.3,0.2-0.7,0.3-1.1,0.3c-0.6,0-1-0.2-1.4-0.5
				c-0.3-0.4-0.5-0.8-0.5-1.5c0-0.7,0.2-1.2,0.5-1.5c0.3-0.4,0.8-0.5,1.3-0.5c0.5,0,0.9,0.2,1.3,0.5c0.3,0.4,0.5,0.9,0.5,1.5
				c0,0,0,0.1,0,0.2h-2.9c0,0.4,0.1,0.8,0.4,1c0.2,0.2,0.5,0.3,0.8,0.3c0.2,0,0.4-0.1,0.6-0.2S54.8,83.5,54.9,83.2z M52.8,82.1h2.2
				c0-0.3-0.1-0.6-0.2-0.7c-0.2-0.3-0.5-0.4-0.8-0.4c-0.3,0-0.6,0.1-0.8,0.3C52.9,81.5,52.8,81.8,52.8,82.1z"/>
			<path class="st1" d="M56.4,84.5v-5.4h0.7v5.4H56.4z"/>
			<path class="st1" d="M58.1,86L58,85.3c0.1,0,0.3,0.1,0.4,0.1c0.1,0,0.3,0,0.4-0.1s0.2-0.1,0.2-0.2c0-0.1,0.1-0.2,0.2-0.5
				c0,0,0-0.1,0.1-0.2l-1.5-3.9h0.7l0.8,2.3c0.1,0.3,0.2,0.6,0.3,0.9c0.1-0.3,0.2-0.6,0.3-0.9l0.8-2.3h0.7l-1.5,4
				c-0.2,0.4-0.3,0.7-0.4,0.9c-0.1,0.2-0.3,0.4-0.4,0.5C58.9,86,58.7,86,58.5,86C58.4,86,58.2,86,58.1,86z"/>
			<path class="st1" d="M61.9,84.5v-5.4h0.7V81c0.3-0.4,0.7-0.5,1.2-0.5c0.3,0,0.5,0.1,0.8,0.2c0.2,0.1,0.4,0.3,0.5,0.5
				C65,81.3,65,81.6,65,82v2.5h-0.7V82c0-0.3-0.1-0.6-0.2-0.7c-0.1-0.1-0.3-0.2-0.6-0.2c-0.2,0-0.4,0.1-0.6,0.2
				c-0.2,0.1-0.3,0.2-0.4,0.4c-0.1,0.2-0.1,0.4-0.1,0.7v2.1H61.9z"/>
			<path class="st1" d="M65.8,82.5c0-0.7,0.2-1.3,0.6-1.6c0.3-0.3,0.7-0.4,1.2-0.4c0.5,0,1,0.2,1.3,0.5c0.3,0.3,0.5,0.8,0.5,1.5
				c0,0.5-0.1,0.9-0.2,1.2c-0.1,0.3-0.4,0.5-0.7,0.7c-0.3,0.2-0.6,0.2-0.9,0.2c-0.5,0-1-0.2-1.3-0.5C66,83.7,65.8,83.2,65.8,82.5z
				 M66.5,82.5c0,0.5,0.1,0.9,0.3,1.1c0.2,0.2,0.5,0.4,0.8,0.4c0.3,0,0.6-0.1,0.8-0.4c0.2-0.2,0.3-0.6,0.3-1.1
				c0-0.5-0.1-0.8-0.3-1.1c-0.2-0.2-0.5-0.4-0.8-0.4c-0.3,0-0.6,0.1-0.8,0.4C66.6,81.6,66.5,82,66.5,82.5z"/>
			<path class="st1" d="M70,82.5c0-0.7,0.2-1.3,0.6-1.6c0.3-0.3,0.7-0.4,1.2-0.4c0.5,0,1,0.2,1.3,0.5c0.3,0.3,0.5,0.8,0.5,1.5
				c0,0.5-0.1,0.9-0.2,1.2s-0.4,0.5-0.7,0.7c-0.3,0.2-0.6,0.2-0.9,0.2c-0.5,0-1-0.2-1.3-0.5C70.1,83.7,70,83.2,70,82.5z M70.6,82.5
				c0,0.5,0.1,0.9,0.3,1.1c0.2,0.2,0.5,0.4,0.8,0.4c0.3,0,0.6-0.1,0.8-0.4c0.2-0.2,0.3-0.6,0.3-1.1c0-0.5-0.1-0.8-0.3-1.1
				S72.1,81,71.8,81c-0.3,0-0.6,0.1-0.8,0.4C70.7,81.6,70.6,82,70.6,82.5z"/>
			<path class="st1" d="M76.9,84.5V84c-0.2,0.4-0.6,0.6-1.1,0.6c-0.3,0-0.6-0.1-0.9-0.3c-0.3-0.2-0.5-0.4-0.6-0.7
				c-0.1-0.3-0.2-0.7-0.2-1.1c0-0.4,0.1-0.7,0.2-1.1c0.1-0.3,0.3-0.6,0.6-0.7c0.3-0.2,0.5-0.3,0.9-0.3c0.2,0,0.4,0,0.6,0.1
				c0.2,0.1,0.3,0.2,0.4,0.4v-1.9h0.7v5.4H76.9z M74.8,82.5c0,0.5,0.1,0.9,0.3,1.1c0.2,0.2,0.5,0.4,0.7,0.4c0.3,0,0.5-0.1,0.7-0.4
				s0.3-0.6,0.3-1.1c0-0.5-0.1-0.9-0.3-1.2S76.1,81,75.8,81c-0.3,0-0.5,0.1-0.7,0.4C74.9,81.6,74.8,82,74.8,82.5z"/>
			<path class="st1" d="M80.4,82.5c0-0.7,0.2-1.3,0.6-1.6c0.3-0.3,0.7-0.4,1.2-0.4c0.5,0,1,0.2,1.3,0.5c0.3,0.3,0.5,0.8,0.5,1.5
				c0,0.5-0.1,0.9-0.2,1.2s-0.4,0.5-0.7,0.7c-0.3,0.2-0.6,0.2-0.9,0.2c-0.5,0-1-0.2-1.3-0.5C80.6,83.7,80.4,83.2,80.4,82.5z
				 M81.1,82.5c0,0.5,0.1,0.9,0.3,1.1c0.2,0.2,0.5,0.4,0.8,0.4c0.3,0,0.6-0.1,0.8-0.4c0.2-0.2,0.3-0.6,0.3-1.1
				c0-0.5-0.1-0.8-0.3-1.1S82.5,81,82.2,81c-0.3,0-0.6,0.1-0.8,0.4C81.2,81.6,81.1,82,81.1,82.5z"/>
			<path class="st1" d="M85,84.5v-3.4h-0.6v-0.5H85v-0.4c0-0.3,0-0.5,0.1-0.6c0.1-0.2,0.2-0.3,0.3-0.4S85.8,79,86,79
				c0.2,0,0.4,0,0.6,0.1l-0.1,0.6c-0.1,0-0.3,0-0.4,0c-0.2,0-0.3,0-0.4,0.1c-0.1,0.1-0.1,0.2-0.1,0.5v0.4h0.8v0.5h-0.8v3.4H85z"/>
			<path class="st1" d="M91.5,84c-0.2,0.2-0.5,0.4-0.7,0.4c-0.2,0.1-0.5,0.1-0.7,0.1c-0.4,0-0.8-0.1-1-0.3c-0.2-0.2-0.3-0.5-0.3-0.8
				c0-0.2,0-0.4,0.1-0.5c0.1-0.2,0.2-0.3,0.3-0.4c0.1-0.1,0.3-0.2,0.5-0.2c0.1,0,0.3-0.1,0.6-0.1c0.5-0.1,0.9-0.1,1.2-0.2
				c0-0.1,0-0.1,0-0.2c0-0.3-0.1-0.5-0.2-0.6c-0.2-0.1-0.4-0.2-0.8-0.2c-0.3,0-0.5,0.1-0.7,0.2c-0.1,0.1-0.3,0.3-0.3,0.6l-0.6-0.1
				c0.1-0.3,0.2-0.5,0.3-0.7c0.1-0.2,0.3-0.3,0.6-0.4s0.5-0.1,0.9-0.1c0.3,0,0.6,0,0.8,0.1c0.2,0.1,0.4,0.2,0.5,0.3
				c0.1,0.1,0.2,0.3,0.2,0.4c0,0.1,0,0.3,0,0.6v0.9c0,0.6,0,1,0,1.2c0,0.2,0.1,0.3,0.2,0.5h-0.7C91.6,84.3,91.5,84.2,91.5,84z
				 M91.5,82.5c-0.2,0.1-0.6,0.2-1.1,0.2c-0.3,0-0.5,0.1-0.6,0.1s-0.2,0.1-0.3,0.2c-0.1,0.1-0.1,0.2-0.1,0.3c0,0.2,0.1,0.3,0.2,0.4
				S90,84,90.2,84c0.3,0,0.5-0.1,0.7-0.2c0.2-0.1,0.3-0.3,0.4-0.5c0.1-0.1,0.1-0.4,0.1-0.7V82.5z"/>
		</g>
		<g class="st0">
			<path class="st1" d="M1,95.5v-5.4h0.6v0.5c0.1-0.2,0.3-0.3,0.5-0.4C2.3,90,2.5,90,2.7,90c0.3,0,0.6,0.1,0.9,0.3s0.4,0.4,0.6,0.7
				c0.1,0.3,0.2,0.7,0.2,1c0,0.4-0.1,0.8-0.2,1.1c-0.1,0.3-0.4,0.6-0.6,0.7C3.3,94,3,94,2.7,94c-0.2,0-0.4,0-0.6-0.1
				c-0.2-0.1-0.3-0.2-0.4-0.4v1.9H1z M1.6,92c0,0.5,0.1,0.9,0.3,1.1c0.2,0.2,0.4,0.4,0.7,0.4c0.3,0,0.5-0.1,0.8-0.4
				c0.2-0.2,0.3-0.6,0.3-1.2c0-0.5-0.1-0.9-0.3-1.1c-0.2-0.2-0.4-0.4-0.7-0.4c-0.3,0-0.5,0.1-0.7,0.4C1.7,91.2,1.6,91.5,1.6,92z"/>
			<path class="st1" d="M5.2,94v-5.4h0.7V94H5.2z"/>
			<path class="st1" d="M9.4,94v-0.6C9.1,93.8,8.7,94,8.2,94c-0.2,0-0.4,0-0.6-0.1s-0.3-0.2-0.4-0.3c-0.1-0.1-0.2-0.3-0.2-0.5
				c0-0.1,0-0.3,0-0.6v-2.4h0.7v2.2c0,0.3,0,0.6,0,0.7c0,0.2,0.1,0.3,0.3,0.4c0.1,0.1,0.3,0.1,0.5,0.1c0.2,0,0.4-0.1,0.6-0.2
				c0.2-0.1,0.3-0.2,0.4-0.4c0.1-0.2,0.1-0.4,0.1-0.8v-2.1H10V94H9.4z"/>
			<path class="st1" d="M11,94v-3.9h0.6v0.6c0.3-0.4,0.7-0.6,1.2-0.6c0.2,0,0.5,0,0.6,0.1c0.2,0.1,0.3,0.2,0.4,0.3s0.2,0.3,0.2,0.5
				c0,0.1,0,0.3,0,0.6V94h-0.7v-2.4c0-0.3,0-0.5-0.1-0.6c-0.1-0.1-0.1-0.2-0.3-0.3c-0.1-0.1-0.3-0.1-0.5-0.1c-0.3,0-0.5,0.1-0.7,0.3
				c-0.2,0.2-0.3,0.5-0.3,1V94H11z"/>
			<path class="st1" d="M15.1,94.3l0.6,0.1c0,0.2,0.1,0.3,0.2,0.4c0.2,0.1,0.4,0.2,0.7,0.2c0.3,0,0.5-0.1,0.7-0.2s0.3-0.3,0.3-0.5
				c0-0.1,0-0.4,0-0.8C17.4,93.8,17,94,16.6,94c-0.5,0-0.9-0.2-1.2-0.6s-0.4-0.8-0.4-1.4c0-0.4,0.1-0.7,0.2-1
				c0.1-0.3,0.3-0.6,0.6-0.7s0.6-0.3,0.9-0.3c0.5,0,0.8,0.2,1.1,0.6v-0.5h0.6v3.4c0,0.6-0.1,1-0.2,1.3c-0.1,0.3-0.3,0.5-0.6,0.6
				c-0.3,0.1-0.6,0.2-1,0.2c-0.5,0-0.8-0.1-1.1-0.3C15.2,95,15.1,94.7,15.1,94.3z M15.6,91.9c0,0.5,0.1,0.9,0.3,1.1
				c0.2,0.2,0.5,0.4,0.8,0.4c0.3,0,0.6-0.1,0.8-0.3s0.3-0.6,0.3-1.1c0-0.5-0.1-0.8-0.3-1.1c-0.2-0.2-0.5-0.4-0.8-0.4
				c-0.3,0-0.5,0.1-0.7,0.4S15.6,91.5,15.6,91.9z"/>
			<path class="st1" d="M22,92.7l0.7,0.1c-0.1,0.4-0.3,0.7-0.6,0.9C21.8,93.9,21.4,94,21,94c-0.6,0-1-0.2-1.4-0.5
				c-0.3-0.4-0.5-0.8-0.5-1.5c0-0.7,0.2-1.2,0.5-1.5C20,90.2,20.4,90,21,90c0.5,0,0.9,0.2,1.3,0.5c0.3,0.4,0.5,0.9,0.5,1.5
				c0,0,0,0.1,0,0.2h-2.9c0,0.4,0.1,0.8,0.4,1c0.2,0.2,0.5,0.3,0.8,0.3c0.2,0,0.4-0.1,0.6-0.2S21.9,93,22,92.7z M19.9,91.6H22
				c0-0.3-0.1-0.6-0.2-0.7c-0.2-0.3-0.5-0.4-0.8-0.4c-0.3,0-0.6,0.1-0.8,0.3C20,91,19.9,91.3,19.9,91.6z"/>
			<path class="st1" d="M25.6,89.3v-0.8h0.7v0.8H25.6z M25.6,94v-3.9h0.7V94H25.6z"/>
			<path class="st1" d="M27.3,94v-3.9h0.6v0.6c0.3-0.4,0.7-0.6,1.2-0.6c0.2,0,0.5,0,0.6,0.1s0.3,0.2,0.4,0.3s0.2,0.3,0.2,0.5
				c0,0.1,0,0.3,0,0.6V94h-0.7v-2.4c0-0.3,0-0.5-0.1-0.6c-0.1-0.1-0.1-0.2-0.3-0.3c-0.1-0.1-0.3-0.1-0.5-0.1c-0.3,0-0.5,0.1-0.7,0.3
				c-0.2,0.2-0.3,0.5-0.3,1V94H27.3z"/>
			<path class="st1" d="M35,93.4l0.1,0.6c-0.2,0-0.4,0.1-0.5,0.1c-0.2,0-0.4,0-0.6-0.1c-0.1-0.1-0.2-0.2-0.3-0.3
				c-0.1-0.1-0.1-0.4-0.1-0.8v-2.2h-0.5v-0.5h0.5v-1l0.7-0.4v1.4H35v0.5h-0.7v2.3c0,0.2,0,0.3,0,0.4c0,0.1,0.1,0.1,0.1,0.1
				c0.1,0,0.1,0,0.2,0C34.8,93.4,34.9,93.4,35,93.4z"/>
			<path class="st1" d="M35.6,94v-5.4h0.7v1.9c0.3-0.4,0.7-0.5,1.2-0.5c0.3,0,0.5,0.1,0.8,0.2c0.2,0.1,0.4,0.3,0.5,0.5
				c0.1,0.2,0.1,0.5,0.1,0.9V94h-0.7v-2.5c0-0.3-0.1-0.6-0.2-0.7c-0.1-0.1-0.3-0.2-0.6-0.2c-0.2,0-0.4,0.1-0.6,0.2
				c-0.2,0.1-0.3,0.2-0.4,0.4c-0.1,0.2-0.1,0.4-0.1,0.7V94H35.6z"/>
			<path class="st1" d="M42.4,92.7l0.7,0.1c-0.1,0.4-0.3,0.7-0.6,0.9c-0.3,0.2-0.7,0.3-1.1,0.3c-0.6,0-1-0.2-1.4-0.5
				s-0.5-0.8-0.5-1.5c0-0.7,0.2-1.2,0.5-1.5c0.3-0.4,0.8-0.5,1.3-0.5c0.5,0,0.9,0.2,1.3,0.5c0.3,0.4,0.5,0.9,0.5,1.5
				c0,0,0,0.1,0,0.2h-2.9c0,0.4,0.1,0.8,0.4,1c0.2,0.2,0.5,0.3,0.8,0.3c0.2,0,0.4-0.1,0.6-0.2S42.3,93,42.4,92.7z M40.3,91.6h2.2
				c0-0.3-0.1-0.6-0.2-0.7c-0.2-0.3-0.5-0.4-0.8-0.4c-0.3,0-0.6,0.1-0.8,0.3C40.4,91,40.3,91.3,40.3,91.6z"/>
			<path class="st1" d="M48.6,92.5l0.6,0.1c-0.1,0.4-0.3,0.8-0.5,1C48.4,93.9,48,94,47.6,94c-0.5,0-1-0.2-1.3-0.5
				c-0.3-0.3-0.5-0.8-0.5-1.5c0-0.4,0.1-0.8,0.2-1.1c0.1-0.3,0.4-0.6,0.6-0.7c0.3-0.2,0.6-0.2,0.9-0.2c0.4,0,0.8,0.1,1,0.3
				c0.3,0.2,0.4,0.5,0.5,0.9l-0.6,0.1c-0.1-0.3-0.2-0.5-0.3-0.6c-0.2-0.1-0.3-0.2-0.6-0.2c-0.3,0-0.6,0.1-0.8,0.4
				c-0.2,0.2-0.3,0.6-0.3,1.1c0,0.5,0.1,0.9,0.3,1.1c0.2,0.2,0.5,0.4,0.8,0.4c0.3,0,0.5-0.1,0.6-0.2C48.4,93.1,48.5,92.9,48.6,92.5z
				"/>
			<path class="st1" d="M52.3,94v-0.6C52,93.8,51.6,94,51.1,94c-0.2,0-0.4,0-0.6-0.1s-0.3-0.2-0.4-0.3c-0.1-0.1-0.2-0.3-0.2-0.5
				c0-0.1,0-0.3,0-0.6v-2.4h0.7v2.2c0,0.3,0,0.6,0,0.7c0,0.2,0.1,0.3,0.3,0.4c0.1,0.1,0.3,0.1,0.5,0.1c0.2,0,0.4-0.1,0.6-0.2
				c0.2-0.1,0.3-0.2,0.4-0.4c0.1-0.2,0.1-0.4,0.1-0.8v-2.1h0.7V94H52.3z"/>
			<path class="st1" d="M53.9,94v-5.4h0.7V94H53.9z"/>
			<path class="st1" d="M57.1,93.4l0.1,0.6C57,94,56.8,94,56.7,94c-0.2,0-0.4,0-0.6-0.1c-0.1-0.1-0.2-0.2-0.3-0.3
				c-0.1-0.1-0.1-0.4-0.1-0.8v-2.2h-0.5v-0.5h0.5v-1l0.7-0.4v1.4h0.7v0.5h-0.7v2.3c0,0.2,0,0.3,0,0.4c0,0.1,0.1,0.1,0.1,0.1
				c0.1,0,0.1,0,0.2,0C56.9,93.4,56.9,93.4,57.1,93.4z"/>
			<path class="st1" d="M60.3,94v-0.6C60,93.8,59.5,94,59,94c-0.2,0-0.4,0-0.6-0.1c-0.2-0.1-0.3-0.2-0.4-0.3
				c-0.1-0.1-0.2-0.3-0.2-0.5c0-0.1,0-0.3,0-0.6v-2.4h0.7v2.2c0,0.3,0,0.6,0,0.7c0,0.2,0.1,0.3,0.3,0.4c0.1,0.1,0.3,0.1,0.5,0.1
				c0.2,0,0.4-0.1,0.6-0.2c0.2-0.1,0.3-0.2,0.4-0.4c0.1-0.2,0.1-0.4,0.1-0.8v-2.1h0.7V94H60.3z"/>
			<path class="st1" d="M61.9,94v-3.9h0.6v0.6c0.2-0.3,0.3-0.5,0.4-0.5s0.3-0.1,0.4-0.1c0.2,0,0.4,0.1,0.7,0.2l-0.2,0.6
				c-0.2-0.1-0.3-0.1-0.5-0.1c-0.1,0-0.3,0-0.4,0.1c-0.1,0.1-0.2,0.2-0.2,0.4c-0.1,0.2-0.1,0.5-0.1,0.8v2H61.9z"/>
			<path class="st1" d="M66.9,93.5c-0.2,0.2-0.5,0.4-0.7,0.4C66,94,65.7,94,65.5,94c-0.4,0-0.8-0.1-1-0.3c-0.2-0.2-0.3-0.5-0.3-0.8
				c0-0.2,0-0.4,0.1-0.5c0.1-0.2,0.2-0.3,0.3-0.4c0.1-0.1,0.3-0.2,0.5-0.2c0.1,0,0.3-0.1,0.6-0.1c0.5-0.1,0.9-0.1,1.2-0.2
				c0-0.1,0-0.1,0-0.2c0-0.3-0.1-0.5-0.2-0.6c-0.2-0.1-0.4-0.2-0.8-0.2c-0.3,0-0.5,0.1-0.7,0.2S65,91,64.9,91.3l-0.6-0.1
				c0.1-0.3,0.2-0.5,0.3-0.7c0.1-0.2,0.3-0.3,0.6-0.4S65.7,90,66,90c0.3,0,0.6,0,0.8,0.1c0.2,0.1,0.4,0.2,0.5,0.3
				c0.1,0.1,0.2,0.3,0.2,0.4c0,0.1,0,0.3,0,0.6v0.9c0,0.6,0,1,0,1.2s0.1,0.3,0.2,0.5h-0.7C67,93.8,66.9,93.7,66.9,93.5z M66.9,92
				c-0.2,0.1-0.6,0.2-1.1,0.2c-0.3,0-0.5,0.1-0.6,0.1S65,92.5,65,92.6c-0.1,0.1-0.1,0.2-0.1,0.3c0,0.2,0.1,0.3,0.2,0.4
				c0.1,0.1,0.3,0.2,0.6,0.2c0.3,0,0.5-0.1,0.7-0.2c0.2-0.1,0.3-0.3,0.4-0.5c0.1-0.1,0.1-0.4,0.1-0.7V92z"/>
			<path class="st1" d="M68.5,94v-5.4h0.7V94H68.5z"/>
		</g>
		<g class="st0">
			<path class="st1" d="M3.5,103c-0.2,0.2-0.5,0.4-0.7,0.4c-0.2,0.1-0.5,0.1-0.7,0.1c-0.4,0-0.8-0.1-1-0.3c-0.2-0.2-0.3-0.5-0.3-0.8
				c0-0.2,0-0.4,0.1-0.5c0.1-0.2,0.2-0.3,0.3-0.4c0.1-0.1,0.3-0.2,0.5-0.2c0.1,0,0.3-0.1,0.6-0.1c0.5-0.1,0.9-0.1,1.2-0.2
				c0-0.1,0-0.1,0-0.2c0-0.3-0.1-0.5-0.2-0.6c-0.2-0.1-0.4-0.2-0.8-0.2c-0.3,0-0.5,0.1-0.7,0.2c-0.1,0.1-0.3,0.3-0.3,0.6l-0.6-0.1
				c0.1-0.3,0.2-0.5,0.3-0.7c0.1-0.2,0.3-0.3,0.6-0.4s0.5-0.1,0.9-0.1c0.3,0,0.6,0,0.8,0.1c0.2,0.1,0.4,0.2,0.5,0.3
				c0.1,0.1,0.2,0.3,0.2,0.4c0,0.1,0,0.3,0,0.6v0.9c0,0.6,0,1,0,1.2c0,0.2,0.1,0.3,0.2,0.5H3.7C3.6,103.3,3.6,103.2,3.5,103z
				 M3.5,101.5c-0.2,0.1-0.6,0.2-1.1,0.2c-0.3,0-0.5,0.1-0.6,0.1s-0.2,0.1-0.3,0.2c-0.1,0.1-0.1,0.2-0.1,0.3c0,0.2,0.1,0.3,0.2,0.4
				S2,103,2.3,103c0.3,0,0.5-0.1,0.7-0.2c0.2-0.1,0.3-0.3,0.4-0.5c0.1-0.1,0.1-0.4,0.1-0.7V101.5z"/>
			<path class="st1" d="M7.7,103.5v-0.6c-0.3,0.4-0.7,0.7-1.2,0.7c-0.2,0-0.4,0-0.6-0.1c-0.2-0.1-0.3-0.2-0.4-0.3
				c-0.1-0.1-0.2-0.3-0.2-0.5c0-0.1,0-0.3,0-0.6v-2.4h0.7v2.2c0,0.3,0,0.6,0,0.7c0,0.2,0.1,0.3,0.3,0.4c0.1,0.1,0.3,0.1,0.5,0.1
				c0.2,0,0.4-0.1,0.6-0.2c0.2-0.1,0.3-0.2,0.4-0.4c0.1-0.2,0.1-0.4,0.1-0.8v-2.1h0.7v3.9H7.7z"/>
			<path class="st1" d="M10.8,102.9l0.1,0.6c-0.2,0-0.4,0.1-0.5,0.1c-0.2,0-0.4,0-0.6-0.1c-0.1-0.1-0.2-0.2-0.3-0.3
				c-0.1-0.1-0.1-0.4-0.1-0.8v-2.2H9v-0.5h0.5v-1l0.7-0.4v1.4h0.7v0.5h-0.7v2.3c0,0.2,0,0.3,0,0.4c0,0.1,0.1,0.1,0.1,0.1
				c0.1,0,0.1,0,0.2,0C10.6,102.9,10.7,102.9,10.8,102.9z"/>
			<path class="st1" d="M11.4,103.5v-5.4h0.7v1.9c0.3-0.4,0.7-0.5,1.2-0.5c0.3,0,0.5,0.1,0.8,0.2c0.2,0.1,0.4,0.3,0.5,0.5
				c0.1,0.2,0.1,0.5,0.1,0.9v2.5h-0.7V101c0-0.3-0.1-0.6-0.2-0.7c-0.1-0.1-0.3-0.2-0.6-0.2c-0.2,0-0.4,0.1-0.6,0.2
				c-0.2,0.1-0.3,0.2-0.4,0.4c-0.1,0.2-0.1,0.4-0.1,0.7v2.1H11.4z"/>
			<path class="st1" d="M15.4,101.5c0-0.7,0.2-1.3,0.6-1.6c0.3-0.3,0.7-0.4,1.2-0.4c0.5,0,1,0.2,1.3,0.5c0.3,0.3,0.5,0.8,0.5,1.5
				c0,0.5-0.1,0.9-0.2,1.2c-0.1,0.3-0.4,0.5-0.7,0.7c-0.3,0.2-0.6,0.2-0.9,0.2c-0.5,0-1-0.2-1.3-0.5
				C15.5,102.7,15.4,102.2,15.4,101.5z M16,101.5c0,0.5,0.1,0.9,0.3,1.1c0.2,0.2,0.5,0.4,0.8,0.4c0.3,0,0.6-0.1,0.8-0.4
				c0.2-0.2,0.3-0.6,0.3-1.1c0-0.5-0.1-0.8-0.3-1.1c-0.2-0.2-0.5-0.4-0.8-0.4c-0.3,0-0.6,0.1-0.8,0.4C16.1,100.6,16,101,16,101.5z"
				/>
			<path class="st1" d="M19.8,103.5v-3.9h0.6v0.6c0.2-0.3,0.3-0.5,0.4-0.5s0.3-0.1,0.4-0.1c0.2,0,0.4,0.1,0.7,0.2l-0.2,0.6
				c-0.2-0.1-0.3-0.1-0.5-0.1c-0.1,0-0.3,0-0.4,0.1c-0.1,0.1-0.2,0.2-0.2,0.4c-0.1,0.2-0.1,0.5-0.1,0.8v2H19.8z"/>
			<path class="st1" d="M22.3,98.8v-0.8h0.7v0.8H22.3z M22.3,103.5v-3.9h0.7v3.9H22.3z"/>
			<path class="st1" d="M25.4,102.9l0.1,0.6c-0.2,0-0.4,0.1-0.5,0.1c-0.2,0-0.4,0-0.6-0.1c-0.1-0.1-0.2-0.2-0.3-0.3
				c-0.1-0.1-0.1-0.4-0.1-0.8v-2.2h-0.5v-0.5h0.5v-1l0.7-0.4v1.4h0.7v0.5h-0.7v2.3c0,0.2,0,0.3,0,0.4c0,0.1,0.1,0.1,0.1,0.1
				c0.1,0,0.1,0,0.2,0C25.2,102.9,25.3,102.9,25.4,102.9z"/>
			<path class="st1" d="M26,105l-0.1-0.6c0.1,0,0.3,0.1,0.4,0.1c0.1,0,0.3,0,0.4-0.1s0.2-0.1,0.2-0.2c0-0.1,0.1-0.2,0.2-0.5
				c0,0,0-0.1,0.1-0.2l-1.5-3.9h0.7l0.8,2.3c0.1,0.3,0.2,0.6,0.3,0.9c0.1-0.3,0.2-0.6,0.3-0.9l0.8-2.3h0.7l-1.5,4
				c-0.2,0.4-0.3,0.7-0.4,0.9c-0.1,0.2-0.3,0.4-0.4,0.5c-0.2,0.1-0.3,0.2-0.5,0.2C26.3,105,26.1,105,26,105z"/>
			<path class="st1" d="M31.6,101.5c0-0.7,0.2-1.3,0.6-1.6c0.3-0.3,0.7-0.4,1.2-0.4c0.5,0,1,0.2,1.3,0.5c0.3,0.3,0.5,0.8,0.5,1.5
				c0,0.5-0.1,0.9-0.2,1.2s-0.4,0.5-0.7,0.7c-0.3,0.2-0.6,0.2-0.9,0.2c-0.5,0-1-0.2-1.3-0.5C31.8,102.7,31.6,102.2,31.6,101.5z
				 M32.3,101.5c0,0.5,0.1,0.9,0.3,1.1c0.2,0.2,0.5,0.4,0.8,0.4c0.3,0,0.6-0.1,0.8-0.4c0.2-0.2,0.3-0.6,0.3-1.1
				c0-0.5-0.1-0.8-0.3-1.1s-0.5-0.4-0.8-0.4c-0.3,0-0.6,0.1-0.8,0.4C32.4,100.6,32.3,101,32.3,101.5z"/>
			<path class="st1" d="M36.2,103.5v-3.4h-0.6v-0.5h0.6v-0.4c0-0.3,0-0.5,0.1-0.6c0.1-0.2,0.2-0.3,0.3-0.4S37,98,37.3,98
				c0.2,0,0.4,0,0.6,0.1l-0.1,0.6c-0.1,0-0.3,0-0.4,0c-0.2,0-0.3,0-0.4,0.1c-0.1,0.1-0.1,0.2-0.1,0.5v0.4h0.8v0.5h-0.8v3.4H36.2z"/>
			<path class="st1" d="M39.9,102.3l0.7-0.1c0,0.3,0.1,0.5,0.3,0.6c0.2,0.1,0.4,0.2,0.7,0.2c0.3,0,0.5-0.1,0.7-0.2
				c0.1-0.1,0.2-0.3,0.2-0.4c0-0.1-0.1-0.3-0.2-0.4c-0.1-0.1-0.3-0.1-0.7-0.2c-0.5-0.1-0.8-0.2-1-0.3s-0.3-0.2-0.4-0.4
				c-0.1-0.2-0.1-0.3-0.1-0.5c0-0.2,0-0.3,0.1-0.5s0.2-0.3,0.3-0.4c0.1-0.1,0.2-0.1,0.4-0.2s0.4-0.1,0.6-0.1c0.3,0,0.6,0,0.8,0.1
				c0.2,0.1,0.4,0.2,0.5,0.4c0.1,0.2,0.2,0.4,0.2,0.6l-0.6,0.1c0-0.2-0.1-0.4-0.3-0.5c-0.1-0.1-0.3-0.2-0.6-0.2
				c-0.3,0-0.5,0.1-0.6,0.2c-0.1,0.1-0.2,0.2-0.2,0.4c0,0.1,0,0.2,0.1,0.2c0.1,0.1,0.1,0.1,0.3,0.2c0.1,0,0.3,0.1,0.6,0.2
				c0.5,0.1,0.8,0.2,1,0.3c0.2,0.1,0.3,0.2,0.4,0.3c0.1,0.2,0.2,0.3,0.2,0.6c0,0.2-0.1,0.4-0.2,0.6c-0.1,0.2-0.3,0.3-0.6,0.5
				c-0.2,0.1-0.5,0.2-0.8,0.2c-0.5,0-0.9-0.1-1.2-0.3S40,102.7,39.9,102.3z"/>
			<path class="st1" d="M46.5,102l0.6,0.1c-0.1,0.4-0.3,0.8-0.5,1s-0.7,0.4-1.1,0.4c-0.5,0-1-0.2-1.3-0.5c-0.3-0.3-0.5-0.8-0.5-1.5
				c0-0.4,0.1-0.8,0.2-1.1c0.1-0.3,0.4-0.6,0.6-0.7c0.3-0.2,0.6-0.2,0.9-0.2c0.4,0,0.8,0.1,1,0.3c0.3,0.2,0.4,0.5,0.5,0.9l-0.6,0.1
				c-0.1-0.3-0.2-0.5-0.3-0.6s-0.3-0.2-0.6-0.2c-0.3,0-0.6,0.1-0.8,0.4c-0.2,0.2-0.3,0.6-0.3,1.1c0,0.5,0.1,0.9,0.3,1.1
				c0.2,0.2,0.5,0.4,0.8,0.4c0.3,0,0.5-0.1,0.6-0.2C46.3,102.6,46.4,102.4,46.5,102z"/>
			<path class="st1" d="M47.7,98.8v-0.8h0.7v0.8H47.7z M47.7,103.5v-3.9h0.7v3.9H47.7z"/>
			<path class="st1" d="M52,102.2l0.7,0.1c-0.1,0.4-0.3,0.7-0.6,0.9c-0.3,0.2-0.7,0.3-1.1,0.3c-0.6,0-1-0.2-1.4-0.5
				c-0.3-0.4-0.5-0.8-0.5-1.5c0-0.7,0.2-1.2,0.5-1.5c0.3-0.4,0.8-0.5,1.3-0.5c0.5,0,0.9,0.2,1.3,0.5c0.3,0.4,0.5,0.9,0.5,1.5
				c0,0,0,0.1,0,0.2h-2.9c0,0.4,0.1,0.8,0.4,1c0.2,0.2,0.5,0.3,0.8,0.3c0.2,0,0.4-0.1,0.6-0.2S51.9,102.5,52,102.2z M49.9,101.1H52
				c0-0.3-0.1-0.6-0.2-0.7c-0.2-0.3-0.5-0.4-0.8-0.4c-0.3,0-0.6,0.1-0.8,0.3C50,100.5,49.9,100.8,49.9,101.1z"/>
			<path class="st1" d="M53.5,103.5v-3.9h0.6v0.6c0.3-0.4,0.7-0.6,1.2-0.6c0.2,0,0.5,0,0.6,0.1c0.2,0.1,0.3,0.2,0.4,0.3
				s0.2,0.3,0.2,0.5c0,0.1,0,0.3,0,0.6v2.4H56v-2.4c0-0.3,0-0.5-0.1-0.6c-0.1-0.1-0.1-0.2-0.3-0.3c-0.1-0.1-0.3-0.1-0.5-0.1
				c-0.3,0-0.5,0.1-0.7,0.3c-0.2,0.2-0.3,0.5-0.3,1v2.1H53.5z"/>
			<path class="st1" d="M60.2,102l0.6,0.1c-0.1,0.4-0.3,0.8-0.5,1c-0.3,0.3-0.7,0.4-1.1,0.4c-0.5,0-1-0.2-1.3-0.5
				c-0.3-0.3-0.5-0.8-0.5-1.5c0-0.4,0.1-0.8,0.2-1.1c0.1-0.3,0.4-0.6,0.6-0.7c0.3-0.2,0.6-0.2,0.9-0.2c0.4,0,0.8,0.1,1,0.3
				c0.3,0.2,0.4,0.5,0.5,0.9l-0.6,0.1c-0.1-0.3-0.2-0.5-0.3-0.6c-0.2-0.1-0.3-0.2-0.6-0.2c-0.3,0-0.6,0.1-0.8,0.4
				c-0.2,0.2-0.3,0.6-0.3,1.1c0,0.5,0.1,0.9,0.3,1.1c0.2,0.2,0.5,0.4,0.8,0.4c0.3,0,0.5-0.1,0.6-0.2C60.1,102.6,60.2,102.4,60.2,102
				z"/>
			<path class="st1" d="M64.1,102.2l0.7,0.1c-0.1,0.4-0.3,0.7-0.6,0.9c-0.3,0.2-0.7,0.3-1.1,0.3c-0.6,0-1-0.2-1.4-0.5
				s-0.5-0.8-0.5-1.5c0-0.7,0.2-1.2,0.5-1.5c0.3-0.4,0.8-0.5,1.3-0.5c0.5,0,0.9,0.2,1.3,0.5c0.3,0.4,0.5,0.9,0.5,1.5
				c0,0,0,0.1,0,0.2h-2.9c0,0.4,0.1,0.8,0.4,1c0.2,0.2,0.5,0.3,0.8,0.3c0.2,0,0.4-0.1,0.6-0.2S64,102.5,64.1,102.2z M61.9,101.1h2.2
				c0-0.3-0.1-0.6-0.2-0.7c-0.2-0.3-0.5-0.4-0.8-0.4c-0.3,0-0.6,0.1-0.8,0.3C62.1,100.5,62,100.8,61.9,101.1z"/>
			<path class="st1" d="M65.8,103.5v-0.8h0.8v0.8H65.8z"/>
		</g>
		<path class="st2" d="M76.9,12.8c3.2,0,5.8,2.6,5.8,5.8s-2.6,5.8-5.8,5.8c-3.2,0-5.8-2.6-5.8-5.8c0,0,0,0,0,0
			C71.1,15.4,73.7,12.8,76.9,12.8C76.9,12.8,76.9,12.8,76.9,12.8"/>
		<polyline class="st3" points="8.2,18.6 25.3,46.4 44.8,17.4 		"/>
		<circle class="st4" cx="25.1" cy="46" r="7.9"/>
		<path class="st5" d="M44.5,0c9.6,0,17.4,7.8,17.4,17.4c0,9.6-7.8,17.4-17.4,17.4c-9.6,0-17.4-7.8-17.4-17.4c0,0,0,0,0,0
			C27.1,7.8,34.8,0,44.5,0C44.5,0,44.5,0,44.5,0"/>
		<path class="st6" d="M8.6,10.2c4.7,0,8.6,3.8,8.6,8.6c0,4.7-3.8,8.6-8.6,8.6c-4.7,0-8.6-3.8-8.6-8.6c0,0,0,0,0,0
			C0.1,14,3.9,10.2,8.6,10.2C8.6,10.2,8.6,10.2,8.6,10.2"/>
		<line class="st7" x1="25.3" y1="46.4" x2="44.8" y2="17.4"/>
		<line class="st8" x1="73.5" y1="218.2" x2="80.6" y2="207.7"/>
		<g class="st0">
			<path class="st9" d="M10.8,215.8v-4.3h0.6v1.8h2.2v-1.8h0.6v4.3h-0.6v-2h-2.2v2H10.8z"/>
			<path class="st9" d="M15,212.1v-0.6h0.5v0.6H15z M15,215.8v-3.1h0.5v3.1H15z"/>
			<path class="st9" d="M16.3,216.1l0.5,0.1c0,0.2,0.1,0.3,0.2,0.3c0.1,0.1,0.3,0.1,0.5,0.1c0.2,0,0.4,0,0.6-0.1s0.2-0.2,0.3-0.4
				c0-0.1,0-0.3,0-0.7c-0.2,0.3-0.5,0.4-0.9,0.4c-0.4,0-0.8-0.2-1-0.5s-0.4-0.7-0.4-1.1c0-0.3,0.1-0.6,0.2-0.8s0.3-0.4,0.5-0.6
				s0.4-0.2,0.7-0.2c0.4,0,0.7,0.1,0.9,0.4v-0.4h0.5v2.7c0,0.5,0,0.8-0.1,1c-0.1,0.2-0.3,0.4-0.5,0.5s-0.5,0.2-0.8,0.2
				c-0.4,0-0.7-0.1-0.9-0.3C16.4,216.6,16.3,216.4,16.3,216.1z M16.7,214.2c0,0.4,0.1,0.7,0.2,0.9s0.4,0.3,0.6,0.3
				c0.2,0,0.4-0.1,0.6-0.3c0.2-0.2,0.2-0.5,0.2-0.9c0-0.4-0.1-0.7-0.3-0.9s-0.4-0.3-0.6-0.3c-0.2,0-0.4,0.1-0.6,0.3
				C16.8,213.5,16.7,213.8,16.7,214.2z"/>
			<path class="st9" d="M19.7,215.8v-4.3h0.5v1.5c0.2-0.3,0.6-0.4,0.9-0.4c0.2,0,0.4,0,0.6,0.1c0.2,0.1,0.3,0.2,0.4,0.4
				s0.1,0.4,0.1,0.7v2h-0.5v-2c0-0.3-0.1-0.5-0.2-0.6c-0.1-0.1-0.3-0.2-0.5-0.2c-0.2,0-0.3,0-0.4,0.1s-0.2,0.2-0.3,0.3
				s-0.1,0.3-0.1,0.6v1.7H19.7z"/>
			<path class="st9" d="M24.7,215.8v-3.1h0.5v0.5c0.1-0.2,0.2-0.4,0.3-0.4s0.2-0.1,0.3-0.1c0.2,0,0.4,0.1,0.5,0.2l-0.2,0.5
				c-0.1-0.1-0.3-0.1-0.4-0.1c-0.1,0-0.2,0-0.3,0.1c-0.1,0.1-0.2,0.2-0.2,0.3c-0.1,0.2-0.1,0.4-0.1,0.6v1.6H24.7z"/>
			<path class="st9" d="M26.7,212.1v-0.6h0.5v0.6H26.7z M26.7,215.8v-3.1h0.5v3.1H26.7z"/>
			<path class="st9" d="M27.8,214.9l0.5-0.1c0,0.2,0.1,0.4,0.2,0.5s0.3,0.2,0.6,0.2c0.2,0,0.4,0,0.5-0.1c0.1-0.1,0.2-0.2,0.2-0.3
				c0-0.1-0.1-0.2-0.2-0.3c-0.1,0-0.3-0.1-0.5-0.2c-0.4-0.1-0.7-0.2-0.8-0.3c-0.1-0.1-0.3-0.2-0.3-0.3c-0.1-0.1-0.1-0.3-0.1-0.4
				c0-0.1,0-0.3,0.1-0.4s0.1-0.2,0.3-0.3c0.1-0.1,0.2-0.1,0.3-0.2c0.1,0,0.3-0.1,0.5-0.1c0.2,0,0.5,0,0.6,0.1s0.3,0.2,0.4,0.3
				c0.1,0.1,0.1,0.3,0.2,0.5l-0.5,0.1c0-0.2-0.1-0.3-0.2-0.4s-0.3-0.1-0.5-0.1c-0.2,0-0.4,0-0.5,0.1s-0.2,0.2-0.2,0.3
				c0,0.1,0,0.1,0.1,0.2c0,0.1,0.1,0.1,0.2,0.1c0.1,0,0.2,0.1,0.5,0.1c0.4,0.1,0.6,0.2,0.8,0.2c0.1,0.1,0.3,0.2,0.3,0.3
				s0.1,0.3,0.1,0.5c0,0.2-0.1,0.3-0.2,0.5c-0.1,0.2-0.3,0.3-0.4,0.4c-0.2,0.1-0.4,0.1-0.7,0.1c-0.4,0-0.7-0.1-0.9-0.3
				S27.9,215.2,27.8,214.9z"/>
			<path class="st9" d="M31,215.8v-4.3h0.5v2.4l1.2-1.3h0.7l-1.2,1.2l1.3,2H33l-1-1.6l-0.4,0.4v1.2H31z"/>
			<path class="st9" d="M35.5,214.2c0-0.6,0.2-1,0.5-1.3c0.3-0.2,0.6-0.3,1-0.3c0.4,0,0.8,0.1,1,0.4c0.3,0.3,0.4,0.7,0.4,1.2
				c0,0.4-0.1,0.7-0.2,0.9s-0.3,0.4-0.5,0.5s-0.5,0.2-0.8,0.2c-0.4,0-0.8-0.1-1.1-0.4S35.5,214.8,35.5,214.2z M36,214.2
				c0,0.4,0.1,0.7,0.3,0.9s0.4,0.3,0.7,0.3c0.3,0,0.5-0.1,0.7-0.3s0.3-0.5,0.3-0.9c0-0.4-0.1-0.7-0.3-0.9s-0.4-0.3-0.7-0.3
				c-0.3,0-0.5,0.1-0.7,0.3S36,213.8,36,214.2z"/>
			<path class="st9" d="M39.2,215.8v-2.7h-0.5v-0.4h0.5v-0.3c0-0.2,0-0.4,0.1-0.5c0.1-0.1,0.1-0.2,0.3-0.3c0.1-0.1,0.3-0.1,0.5-0.1
				c0.1,0,0.3,0,0.5,0.1l-0.1,0.5c-0.1,0-0.2,0-0.3,0c-0.2,0-0.3,0-0.3,0.1s-0.1,0.2-0.1,0.4v0.3h0.6v0.4h-0.6v2.7H39.2z"/>
			<path class="st9" d="M42.4,217v-4.3h0.5v0.4c0.1-0.2,0.2-0.3,0.4-0.4c0.1-0.1,0.3-0.1,0.5-0.1c0.3,0,0.5,0.1,0.7,0.2
				s0.4,0.3,0.5,0.6c0.1,0.2,0.2,0.5,0.2,0.8c0,0.3-0.1,0.6-0.2,0.9c-0.1,0.3-0.3,0.5-0.5,0.6c-0.2,0.1-0.4,0.2-0.7,0.2
				c-0.2,0-0.3,0-0.5-0.1s-0.3-0.2-0.3-0.3v1.5H42.4z M42.8,214.3c0,0.4,0.1,0.7,0.2,0.9s0.4,0.3,0.6,0.3c0.2,0,0.4-0.1,0.6-0.3
				s0.3-0.5,0.3-0.9c0-0.4-0.1-0.7-0.2-0.9s-0.4-0.3-0.6-0.3c-0.2,0-0.4,0.1-0.6,0.3S42.8,213.9,42.8,214.3z"/>
			<path class="st9" d="M45.7,215.8v-4.3h0.5v4.3H45.7z"/>
			<path class="st9" d="M49.1,215.8v-0.5c-0.2,0.4-0.6,0.5-1,0.5c-0.2,0-0.4,0-0.5-0.1s-0.3-0.2-0.4-0.3c-0.1-0.1-0.1-0.2-0.2-0.4
				c0-0.1,0-0.3,0-0.5v-1.9h0.5v1.7c0,0.3,0,0.5,0,0.6c0,0.1,0.1,0.2,0.2,0.3c0.1,0.1,0.2,0.1,0.4,0.1s0.3,0,0.4-0.1
				c0.1-0.1,0.2-0.2,0.3-0.3s0.1-0.3,0.1-0.6v-1.7h0.5v3.1H49.1z"/>
			<path class="st9" d="M50.4,215.8v-3.1h0.5v0.4c0.2-0.3,0.6-0.5,1-0.5c0.2,0,0.4,0,0.5,0.1c0.2,0.1,0.3,0.2,0.4,0.3
				s0.1,0.2,0.2,0.4c0,0.1,0,0.3,0,0.5v1.9h-0.5v-1.9c0-0.2,0-0.4-0.1-0.5c0-0.1-0.1-0.2-0.2-0.3s-0.2-0.1-0.4-0.1
				c-0.2,0-0.4,0.1-0.6,0.2s-0.2,0.4-0.2,0.8v1.7H50.4z"/>
			<path class="st9" d="M53.6,216.1l0.5,0.1c0,0.2,0.1,0.3,0.2,0.3c0.1,0.1,0.3,0.1,0.5,0.1c0.2,0,0.4,0,0.6-0.1s0.2-0.2,0.3-0.4
				c0-0.1,0-0.3,0-0.7c-0.2,0.3-0.5,0.4-0.9,0.4c-0.4,0-0.8-0.2-1-0.5s-0.4-0.7-0.4-1.1c0-0.3,0.1-0.6,0.2-0.8s0.3-0.4,0.5-0.6
				s0.4-0.2,0.7-0.2c0.4,0,0.7,0.1,0.9,0.4v-0.4h0.5v2.7c0,0.5,0,0.8-0.1,1c-0.1,0.2-0.3,0.4-0.5,0.5s-0.5,0.2-0.8,0.2
				c-0.4,0-0.7-0.1-0.9-0.3C53.7,216.6,53.6,216.4,53.6,216.1z M54.1,214.2c0,0.4,0.1,0.7,0.2,0.9s0.4,0.3,0.6,0.3
				c0.2,0,0.4-0.1,0.6-0.3c0.2-0.2,0.2-0.5,0.2-0.9c0-0.4-0.1-0.7-0.3-0.9s-0.4-0.3-0.6-0.3c-0.2,0-0.4,0.1-0.6,0.3
				C54.1,213.5,54.1,213.8,54.1,214.2z"/>
			<path class="st9" d="M59.2,214.8l0.5,0.1c-0.1,0.3-0.2,0.6-0.5,0.7s-0.5,0.3-0.9,0.3c-0.5,0-0.8-0.1-1.1-0.4s-0.4-0.7-0.4-1.2
				c0-0.5,0.1-0.9,0.4-1.2s0.6-0.4,1-0.4c0.4,0,0.8,0.1,1,0.4s0.4,0.7,0.4,1.2c0,0,0,0.1,0,0.1h-2.3c0,0.3,0.1,0.6,0.3,0.8
				s0.4,0.3,0.7,0.3c0.2,0,0.4-0.1,0.5-0.2S59.1,215,59.2,214.8z M57.5,213.9h1.7c0-0.3-0.1-0.5-0.2-0.6c-0.2-0.2-0.4-0.3-0.7-0.3
				c-0.2,0-0.4,0.1-0.6,0.2S57.5,213.7,57.5,213.9z"/>
		</g>
		<g class="st0">
			<path class="st9" d="M11.3,189.8v-4.3h0.6v3.8H14v0.5H11.3z"/>
			<path class="st9" d="M14.4,188.2c0-0.6,0.2-1,0.5-1.3c0.3-0.2,0.6-0.3,1-0.3c0.4,0,0.8,0.1,1,0.4c0.3,0.3,0.4,0.7,0.4,1.2
				c0,0.4-0.1,0.7-0.2,0.9s-0.3,0.4-0.5,0.5s-0.5,0.2-0.8,0.2c-0.4,0-0.8-0.1-1.1-0.4S14.4,188.7,14.4,188.2z M14.9,188.2
				c0,0.4,0.1,0.7,0.3,0.9s0.4,0.3,0.7,0.3c0.3,0,0.5-0.1,0.7-0.3s0.3-0.5,0.3-0.9c0-0.4-0.1-0.7-0.3-0.9s-0.4-0.3-0.7-0.3
				c-0.3,0-0.5,0.1-0.7,0.3S14.9,187.8,14.9,188.2z"/>
			<path class="st9" d="M18.5,189.8l-1-3.1h0.5l0.5,1.8l0.2,0.7c0,0,0.1-0.2,0.2-0.6l0.5-1.8H20l0.5,1.8l0.2,0.6l0.2-0.6l0.5-1.8
				h0.5l-1,3.1h-0.5l-0.5-1.9l-0.1-0.5l-0.6,2.4H18.5z"/>
			<path class="st9" d="M23.9,189.8v-3.1h0.5v0.5c0.1-0.2,0.2-0.4,0.3-0.4s0.2-0.1,0.3-0.1c0.2,0,0.4,0.1,0.5,0.2l-0.2,0.5
				c-0.1-0.1-0.3-0.1-0.4-0.1c-0.1,0-0.2,0-0.3,0.1c-0.1,0.1-0.2,0.2-0.2,0.3c-0.1,0.2-0.1,0.4-0.1,0.6v1.6H23.9z"/>
			<path class="st9" d="M25.9,186.1v-0.6h0.5v0.6H25.9z M25.9,189.8v-3.1h0.5v3.1H25.9z"/>
			<path class="st9" d="M27,188.8l0.5-0.1c0,0.2,0.1,0.4,0.2,0.5s0.3,0.2,0.6,0.2c0.2,0,0.4,0,0.5-0.1c0.1-0.1,0.2-0.2,0.2-0.3
				c0-0.1-0.1-0.2-0.2-0.3c-0.1,0-0.3-0.1-0.5-0.2c-0.4-0.1-0.7-0.2-0.8-0.3c-0.1-0.1-0.3-0.2-0.3-0.3c-0.1-0.1-0.1-0.3-0.1-0.4
				c0-0.1,0-0.3,0.1-0.4s0.1-0.2,0.3-0.3c0.1-0.1,0.2-0.1,0.3-0.2c0.1,0,0.3-0.1,0.5-0.1c0.2,0,0.5,0,0.6,0.1s0.3,0.2,0.4,0.3
				c0.1,0.1,0.1,0.3,0.2,0.5l-0.5,0.1c0-0.2-0.1-0.3-0.2-0.4s-0.3-0.1-0.5-0.1c-0.2,0-0.4,0-0.5,0.1s-0.2,0.2-0.2,0.3
				c0,0.1,0,0.1,0.1,0.2c0,0.1,0.1,0.1,0.2,0.1c0.1,0,0.2,0.1,0.5,0.1c0.4,0.1,0.6,0.2,0.8,0.2c0.1,0.1,0.3,0.2,0.3,0.3
				s0.1,0.3,0.1,0.5c0,0.2-0.1,0.3-0.2,0.5c-0.1,0.2-0.3,0.3-0.4,0.4c-0.2,0.1-0.4,0.1-0.7,0.1c-0.4,0-0.7-0.1-0.9-0.3
				S27.1,189.2,27,188.8z"/>
			<path class="st9" d="M30.3,189.8v-4.3h0.5v2.4l1.2-1.3h0.7l-1.2,1.2l1.3,2h-0.7l-1-1.6l-0.4,0.4v1.2H30.3z"/>
			<path class="st9" d="M34.7,188.2c0-0.6,0.2-1,0.5-1.3c0.3-0.2,0.6-0.3,1-0.3c0.4,0,0.8,0.1,1,0.4c0.3,0.3,0.4,0.7,0.4,1.2
				c0,0.4-0.1,0.7-0.2,0.9s-0.3,0.4-0.5,0.5s-0.5,0.2-0.8,0.2c-0.4,0-0.8-0.1-1.1-0.4S34.7,188.7,34.7,188.2z M35.3,188.2
				c0,0.4,0.1,0.7,0.3,0.9s0.4,0.3,0.7,0.3c0.3,0,0.5-0.1,0.7-0.3s0.3-0.5,0.3-0.9c0-0.4-0.1-0.7-0.3-0.9s-0.4-0.3-0.7-0.3
				c-0.3,0-0.5,0.1-0.7,0.3S35.3,187.8,35.3,188.2z"/>
			<path class="st9" d="M38.4,189.8v-2.7h-0.5v-0.4h0.5v-0.3c0-0.2,0-0.4,0.1-0.5c0.1-0.1,0.1-0.2,0.3-0.3c0.1-0.1,0.3-0.1,0.5-0.1
				c0.1,0,0.3,0,0.5,0.1l-0.1,0.5c-0.1,0-0.2,0-0.3,0c-0.2,0-0.3,0-0.3,0.1s-0.1,0.2-0.1,0.4v0.3h0.6v0.4h-0.6v2.7H38.4z"/>
			<path class="st9" d="M41.6,191v-4.3h0.5v0.4c0.1-0.2,0.2-0.3,0.4-0.4c0.1-0.1,0.3-0.1,0.5-0.1c0.3,0,0.5,0.1,0.7,0.2
				s0.4,0.3,0.5,0.6c0.1,0.2,0.2,0.5,0.2,0.8c0,0.3-0.1,0.6-0.2,0.9c-0.1,0.3-0.3,0.5-0.5,0.6c-0.2,0.1-0.4,0.2-0.7,0.2
				c-0.2,0-0.3,0-0.5-0.1s-0.3-0.2-0.3-0.3v1.5H41.6z M42.1,188.2c0,0.4,0.1,0.7,0.2,0.9s0.4,0.3,0.6,0.3c0.2,0,0.4-0.1,0.6-0.3
				s0.3-0.5,0.3-0.9c0-0.4-0.1-0.7-0.2-0.9s-0.4-0.3-0.6-0.3c-0.2,0-0.4,0.1-0.6,0.3S42.1,187.8,42.1,188.2z"/>
			<path class="st9" d="M44.9,189.8v-4.3h0.5v4.3H44.9z"/>
			<path class="st9" d="M48.3,189.8v-0.5c-0.2,0.4-0.6,0.5-1,0.5c-0.2,0-0.4,0-0.5-0.1s-0.3-0.2-0.4-0.3c-0.1-0.1-0.1-0.2-0.2-0.4
				c0-0.1,0-0.3,0-0.5v-1.9h0.5v1.7c0,0.3,0,0.5,0,0.6c0,0.1,0.1,0.2,0.2,0.3c0.1,0.1,0.2,0.1,0.4,0.1s0.3,0,0.4-0.1
				c0.1-0.1,0.2-0.2,0.3-0.3s0.1-0.3,0.1-0.6v-1.7h0.5v3.1H48.3z"/>
			<path class="st9" d="M49.6,189.8v-3.1h0.5v0.4c0.2-0.3,0.6-0.5,1-0.5c0.2,0,0.4,0,0.5,0.1c0.2,0.1,0.3,0.2,0.4,0.3
				s0.1,0.2,0.2,0.4c0,0.1,0,0.3,0,0.5v1.9h-0.5v-1.9c0-0.2,0-0.4-0.1-0.5c0-0.1-0.1-0.2-0.2-0.3S51.1,187,51,187
				c-0.2,0-0.4,0.1-0.6,0.2s-0.2,0.4-0.2,0.8v1.7H49.6z"/>
			<path class="st9" d="M52.8,190l0.5,0.1c0,0.2,0.1,0.3,0.2,0.3c0.1,0.1,0.3,0.1,0.5,0.1c0.2,0,0.4,0,0.6-0.1s0.2-0.2,0.3-0.4
				c0-0.1,0-0.3,0-0.7c-0.2,0.3-0.5,0.4-0.9,0.4c-0.4,0-0.8-0.2-1-0.5s-0.4-0.7-0.4-1.1c0-0.3,0.1-0.6,0.2-0.8s0.3-0.4,0.5-0.6
				s0.4-0.2,0.7-0.2c0.4,0,0.7,0.1,0.9,0.4v-0.4h0.5v2.7c0,0.5,0,0.8-0.1,1c-0.1,0.2-0.3,0.4-0.5,0.5s-0.5,0.2-0.8,0.2
				c-0.4,0-0.7-0.1-0.9-0.3C52.9,190.6,52.8,190.4,52.8,190z M53.3,188.1c0,0.4,0.1,0.7,0.2,0.9s0.4,0.3,0.6,0.3
				c0.2,0,0.4-0.1,0.6-0.3c0.2-0.2,0.2-0.5,0.2-0.9c0-0.4-0.1-0.7-0.3-0.9s-0.4-0.3-0.6-0.3c-0.2,0-0.4,0.1-0.6,0.3
				C53.4,187.5,53.3,187.8,53.3,188.1z"/>
			<path class="st9" d="M58.4,188.8l0.5,0.1c-0.1,0.3-0.2,0.6-0.5,0.7s-0.5,0.3-0.9,0.3c-0.5,0-0.8-0.1-1.1-0.4s-0.4-0.7-0.4-1.2
				c0-0.5,0.1-0.9,0.4-1.2s0.6-0.4,1-0.4c0.4,0,0.8,0.1,1,0.4s0.4,0.7,0.4,1.2c0,0,0,0.1,0,0.1h-2.3c0,0.3,0.1,0.6,0.3,0.8
				s0.4,0.3,0.7,0.3c0.2,0,0.4-0.1,0.5-0.2C58.2,189.1,58.3,189,58.4,188.8z M56.7,187.9h1.7c0-0.3-0.1-0.5-0.2-0.6
				c-0.2-0.2-0.4-0.3-0.7-0.3c-0.2,0-0.4,0.1-0.6,0.2S56.7,187.6,56.7,187.9z"/>
		</g>
		<path class="st10" d="M3.6,118.2c-2,0-3.6,1.6-3.6,3.6s1.6,3.6,3.6,3.6s3.6-1.6,3.6-3.6l0,0C7.1,119.8,5.5,118.2,3.6,118.2"/>
		<g class="st0">
			<path class="st9" d="M10.6,123.3V119h1.9c0.4,0,0.7,0,0.9,0.1c0.2,0.1,0.4,0.2,0.5,0.4s0.2,0.4,0.2,0.6c0,0.3-0.1,0.6-0.3,0.8
				s-0.5,0.3-0.9,0.4c0.2,0.1,0.3,0.1,0.3,0.2c0.2,0.2,0.3,0.3,0.5,0.6l0.7,1.2h-0.7l-0.6-0.9c-0.2-0.3-0.3-0.5-0.4-0.6
				s-0.2-0.2-0.3-0.3s-0.2-0.1-0.3-0.1c-0.1,0-0.2,0-0.3,0h-0.7v1.9H10.6z M11.2,120.9h1.2c0.3,0,0.5,0,0.6-0.1
				c0.1-0.1,0.3-0.1,0.3-0.3c0.1-0.1,0.1-0.2,0.1-0.4c0-0.2-0.1-0.4-0.2-0.5s-0.4-0.2-0.7-0.2h-1.4V120.9z"/>
			<path class="st9" d="M17,122.3l0.5,0.1c-0.1,0.3-0.2,0.6-0.5,0.7s-0.5,0.3-0.9,0.3c-0.5,0-0.8-0.1-1.1-0.4s-0.4-0.7-0.4-1.2
				c0-0.5,0.1-0.9,0.4-1.2s0.6-0.4,1-0.4c0.4,0,0.8,0.1,1,0.4s0.4,0.7,0.4,1.2c0,0,0,0.1,0,0.1h-2.3c0,0.3,0.1,0.6,0.3,0.8
				s0.4,0.3,0.7,0.3c0.2,0,0.4-0.1,0.5-0.2S16.9,122.5,17,122.3z M15.3,121.4H17c0-0.3-0.1-0.5-0.2-0.6c-0.2-0.2-0.4-0.3-0.7-0.3
				c-0.2,0-0.4,0.1-0.6,0.2S15.3,121.2,15.3,121.4z"/>
			<path class="st9" d="M18.2,123.3V119h0.5v4.3H18.2z"/>
			<path class="st9" d="M19.5,119.6V119h0.5v0.6H19.5z M19.5,123.3v-3.1h0.5v3.1H19.5z"/>
			<path class="st9" d="M20.8,123.5l0.5,0.1c0,0.2,0.1,0.3,0.2,0.3c0.1,0.1,0.3,0.1,0.5,0.1c0.2,0,0.4,0,0.6-0.1s0.2-0.2,0.3-0.4
				c0-0.1,0-0.3,0-0.7c-0.2,0.3-0.5,0.4-0.9,0.4c-0.4,0-0.8-0.2-1-0.5s-0.4-0.7-0.4-1.1c0-0.3,0.1-0.6,0.2-0.8s0.3-0.4,0.5-0.6
				s0.4-0.2,0.7-0.2c0.4,0,0.7,0.1,0.9,0.4v-0.4h0.5v2.7c0,0.5,0,0.8-0.1,1c-0.1,0.2-0.3,0.4-0.5,0.5s-0.5,0.2-0.8,0.2
				c-0.4,0-0.7-0.1-0.9-0.3C20.9,124.1,20.8,123.9,20.8,123.5z M21.2,121.7c0,0.4,0.1,0.7,0.2,0.9s0.4,0.3,0.6,0.3
				c0.2,0,0.4-0.1,0.6-0.3c0.2-0.2,0.2-0.5,0.2-0.9c0-0.4-0.1-0.7-0.3-0.9s-0.4-0.3-0.6-0.3c-0.2,0-0.4,0.1-0.6,0.3
				C21.3,121,21.2,121.3,21.2,121.7z"/>
			<path class="st9" d="M24.2,119.6V119h0.5v0.6H24.2z M24.2,123.3v-3.1h0.5v3.1H24.2z"/>
			<path class="st9" d="M25.3,121.7c0-0.6,0.2-1,0.5-1.3c0.3-0.2,0.6-0.3,1-0.3c0.4,0,0.8,0.1,1,0.4c0.3,0.3,0.4,0.7,0.4,1.2
				c0,0.4-0.1,0.7-0.2,0.9s-0.3,0.4-0.5,0.5s-0.5,0.2-0.8,0.2c-0.4,0-0.8-0.1-1.1-0.4S25.3,122.3,25.3,121.7z M25.9,121.7
				c0,0.4,0.1,0.7,0.3,0.9s0.4,0.3,0.7,0.3c0.3,0,0.5-0.1,0.7-0.3s0.3-0.5,0.3-0.9c0-0.4-0.1-0.7-0.3-0.9s-0.4-0.3-0.7-0.3
				c-0.3,0-0.5,0.1-0.7,0.3S25.9,121.3,25.9,121.7z"/>
			<path class="st9" d="M30.9,123.3v-0.5c-0.2,0.4-0.6,0.5-1,0.5c-0.2,0-0.4,0-0.5-0.1s-0.3-0.2-0.4-0.3c-0.1-0.1-0.1-0.2-0.2-0.4
				c0-0.1,0-0.3,0-0.5v-1.9h0.5v1.7c0,0.3,0,0.5,0,0.6c0,0.1,0.1,0.2,0.2,0.3c0.1,0.1,0.2,0.1,0.4,0.1s0.3,0,0.4-0.1
				c0.1-0.1,0.2-0.2,0.3-0.3s0.1-0.3,0.1-0.6v-1.7h0.5v3.1H30.9z"/>
			<path class="st9" d="M32,122.4l0.5-0.1c0,0.2,0.1,0.4,0.2,0.5s0.3,0.2,0.6,0.2c0.2,0,0.4,0,0.5-0.1c0.1-0.1,0.2-0.2,0.2-0.3
				c0-0.1-0.1-0.2-0.2-0.3c-0.1,0-0.3-0.1-0.5-0.2c-0.4-0.1-0.7-0.2-0.8-0.3c-0.1-0.1-0.3-0.2-0.3-0.3c-0.1-0.1-0.1-0.3-0.1-0.4
				c0-0.1,0-0.3,0.1-0.4s0.1-0.2,0.3-0.3c0.1-0.1,0.2-0.1,0.3-0.2c0.1,0,0.3-0.1,0.5-0.1c0.2,0,0.5,0,0.6,0.1s0.3,0.2,0.4,0.3
				c0.1,0.1,0.1,0.3,0.2,0.5l-0.5,0.1c0-0.2-0.1-0.3-0.2-0.4s-0.3-0.1-0.5-0.1c-0.2,0-0.4,0-0.5,0.1s-0.2,0.2-0.2,0.3
				c0,0.1,0,0.1,0.1,0.2c0,0.1,0.1,0.1,0.2,0.1c0.1,0,0.2,0.1,0.5,0.1c0.4,0.1,0.6,0.2,0.8,0.2c0.1,0.1,0.3,0.2,0.3,0.3
				s0.1,0.3,0.1,0.5c0,0.2-0.1,0.3-0.2,0.5c-0.1,0.2-0.3,0.3-0.4,0.4c-0.2,0.1-0.4,0.1-0.7,0.1c-0.4,0-0.7-0.1-0.9-0.3
				S32.1,122.7,32,122.4z"/>
			<path class="st9" d="M35.3,123.3v-0.6h0.6v0.6c0,0.2,0,0.4-0.1,0.5c-0.1,0.1-0.2,0.2-0.4,0.3l-0.1-0.2c0.1,0,0.2-0.1,0.2-0.2
				s0.1-0.2,0.1-0.4H35.3z"/>
			<path class="st9" d="M38.5,123.3V119h0.5v4.3H38.5z"/>
			<path class="st9" d="M39.7,121.7c0-0.6,0.2-1,0.5-1.3c0.3-0.2,0.6-0.3,1-0.3c0.4,0,0.8,0.1,1,0.4c0.3,0.3,0.4,0.7,0.4,1.2
				c0,0.4-0.1,0.7-0.2,0.9s-0.3,0.4-0.5,0.5s-0.5,0.2-0.8,0.2c-0.4,0-0.8-0.1-1.1-0.4S39.7,122.3,39.7,121.7z M40.2,121.7
				c0,0.4,0.1,0.7,0.3,0.9s0.4,0.3,0.7,0.3c0.3,0,0.5-0.1,0.7-0.3s0.3-0.5,0.3-0.9c0-0.4-0.1-0.7-0.3-0.9s-0.4-0.3-0.7-0.3
				c-0.3,0-0.5,0.1-0.7,0.3S40.2,121.3,40.2,121.7z"/>
			<path class="st9" d="M43.8,123.3l-1-3.1h0.5l0.5,1.8l0.2,0.7c0,0,0.1-0.2,0.2-0.6l0.5-1.8h0.5l0.5,1.8l0.2,0.6l0.2-0.6l0.5-1.8
				h0.5l-1,3.1h-0.5l-0.5-1.9l-0.1-0.5l-0.6,2.4H43.8z"/>
			<path class="st9" d="M50.4,122.8l0.1,0.5c-0.1,0-0.3,0-0.4,0c-0.2,0-0.3,0-0.4-0.1s-0.2-0.1-0.2-0.2c0-0.1-0.1-0.3-0.1-0.6v-1.8
				h-0.4v-0.4h0.4v-0.8l0.5-0.3v1.1h0.5v0.4h-0.5v1.8c0,0.2,0,0.2,0,0.3s0,0.1,0.1,0.1s0.1,0,0.2,0
				C50.2,122.8,50.3,122.8,50.4,122.8z"/>
			<path class="st9" d="M50.9,123.3v-3.1h0.5v0.5c0.1-0.2,0.2-0.4,0.3-0.4s0.2-0.1,0.3-0.1c0.2,0,0.4,0.1,0.5,0.2l-0.2,0.5
				c-0.1-0.1-0.3-0.1-0.4-0.1c-0.1,0-0.2,0-0.3,0.1c-0.1,0.1-0.2,0.2-0.2,0.3c-0.1,0.2-0.1,0.4-0.1,0.6v1.6H50.9z"/>
			<path class="st9" d="M54.9,123.3v-0.5c-0.2,0.4-0.6,0.5-1,0.5c-0.2,0-0.4,0-0.5-0.1s-0.3-0.2-0.4-0.3c-0.1-0.1-0.1-0.2-0.2-0.4
				c0-0.1,0-0.3,0-0.5v-1.9h0.5v1.7c0,0.3,0,0.5,0,0.6c0,0.1,0.1,0.2,0.2,0.3c0.1,0.1,0.2,0.1,0.4,0.1s0.3,0,0.4-0.1
				c0.1-0.1,0.2-0.2,0.3-0.3s0.1-0.3,0.1-0.6v-1.7h0.5v3.1H54.9z"/>
			<path class="st9" d="M56,122.4l0.5-0.1c0,0.2,0.1,0.4,0.2,0.5s0.3,0.2,0.6,0.2c0.2,0,0.4,0,0.5-0.1c0.1-0.1,0.2-0.2,0.2-0.3
				c0-0.1-0.1-0.2-0.2-0.3c-0.1,0-0.3-0.1-0.5-0.2c-0.4-0.1-0.7-0.2-0.8-0.3c-0.1-0.1-0.3-0.2-0.3-0.3c-0.1-0.1-0.1-0.3-0.1-0.4
				c0-0.1,0-0.3,0.1-0.4s0.1-0.2,0.3-0.3c0.1-0.1,0.2-0.1,0.3-0.2c0.1,0,0.3-0.1,0.5-0.1c0.2,0,0.5,0,0.6,0.1
				c0.2,0.1,0.3,0.2,0.4,0.3c0.1,0.1,0.1,0.3,0.2,0.5L58,121c0-0.2-0.1-0.3-0.2-0.4s-0.3-0.1-0.5-0.1c-0.2,0-0.4,0-0.5,0.1
				s-0.2,0.2-0.2,0.3c0,0.1,0,0.1,0.1,0.2c0,0.1,0.1,0.1,0.2,0.1c0.1,0,0.2,0.1,0.5,0.1c0.4,0.1,0.6,0.2,0.8,0.2
				c0.1,0.1,0.3,0.2,0.3,0.3s0.1,0.3,0.1,0.5c0,0.2-0.1,0.3-0.2,0.5c-0.1,0.2-0.3,0.3-0.4,0.4c-0.2,0.1-0.4,0.1-0.7,0.1
				c-0.4,0-0.7-0.1-0.9-0.3S56.1,122.7,56,122.4z"/>
			<path class="st9" d="M60.4,122.8l0.1,0.5c-0.1,0-0.3,0-0.4,0c-0.2,0-0.3,0-0.4-0.1s-0.2-0.1-0.2-0.2c0-0.1-0.1-0.3-0.1-0.6v-1.8
				h-0.4v-0.4h0.4v-0.8l0.5-0.3v1.1h0.5v0.4h-0.5v1.8c0,0.2,0,0.2,0,0.3s0,0.1,0.1,0.1s0.1,0,0.2,0
				C60.2,122.8,60.3,122.8,60.4,122.8z"/>
			<path class="st9" d="M62.5,119.6V119h0.5v0.6H62.5z M62.5,123.3v-3.1h0.5v3.1H62.5z"/>
			<path class="st9" d="M63.9,123.3v-3.1h0.5v0.4c0.2-0.3,0.6-0.5,1-0.5c0.2,0,0.4,0,0.5,0.1c0.2,0.1,0.3,0.2,0.4,0.3
				s0.1,0.2,0.2,0.4c0,0.1,0,0.3,0,0.5v1.9h-0.5v-1.9c0-0.2,0-0.4-0.1-0.5c0-0.1-0.1-0.2-0.2-0.3s-0.2-0.1-0.4-0.1
				c-0.2,0-0.4,0.1-0.6,0.2s-0.2,0.4-0.2,0.8v1.7H63.9z"/>
			<path class="st9" d="M68.7,122.4l0.5-0.1c0,0.2,0.1,0.4,0.2,0.5s0.3,0.2,0.6,0.2c0.2,0,0.4,0,0.5-0.1c0.1-0.1,0.2-0.2,0.2-0.3
				c0-0.1-0.1-0.2-0.2-0.3c-0.1,0-0.3-0.1-0.5-0.2c-0.4-0.1-0.7-0.2-0.8-0.3c-0.1-0.1-0.3-0.2-0.3-0.3c-0.1-0.1-0.1-0.3-0.1-0.4
				c0-0.1,0-0.3,0.1-0.4s0.1-0.2,0.3-0.3c0.1-0.1,0.2-0.1,0.3-0.2c0.1,0,0.3-0.1,0.5-0.1c0.2,0,0.5,0,0.6,0.1s0.3,0.2,0.4,0.3
				c0.1,0.1,0.1,0.3,0.2,0.5l-0.5,0.1c0-0.2-0.1-0.3-0.2-0.4s-0.3-0.1-0.5-0.1c-0.2,0-0.4,0-0.5,0.1s-0.2,0.2-0.2,0.3
				c0,0.1,0,0.1,0.1,0.2c0,0.1,0.1,0.1,0.2,0.1c0.1,0,0.2,0.1,0.5,0.1c0.4,0.1,0.6,0.2,0.8,0.2c0.1,0.1,0.3,0.2,0.3,0.3
				s0.1,0.3,0.1,0.5c0,0.2-0.1,0.3-0.2,0.5c-0.1,0.2-0.3,0.3-0.4,0.4c-0.2,0.1-0.4,0.1-0.7,0.1c-0.4,0-0.7-0.1-0.9-0.3
				S68.7,122.7,68.7,122.4z"/>
			<path class="st9" d="M73.9,122.1l0.5,0.1c-0.1,0.4-0.2,0.6-0.4,0.8c-0.2,0.2-0.5,0.3-0.9,0.3c-0.4,0-0.8-0.1-1-0.4
				c-0.3-0.3-0.4-0.7-0.4-1.2c0-0.3,0.1-0.6,0.2-0.9s0.3-0.4,0.5-0.6c0.2-0.1,0.5-0.2,0.7-0.2c0.3,0,0.6,0.1,0.8,0.3
				c0.2,0.2,0.4,0.4,0.4,0.7l-0.5,0.1c0-0.2-0.1-0.4-0.3-0.5s-0.3-0.2-0.5-0.2c-0.3,0-0.5,0.1-0.6,0.3c-0.2,0.2-0.2,0.5-0.2,0.9
				c0,0.4,0.1,0.7,0.2,0.9s0.4,0.3,0.6,0.3c0.2,0,0.4-0.1,0.5-0.2S73.9,122.4,73.9,122.1z"/>
			<path class="st9" d="M74.9,119.6V119h0.5v0.6H74.9z M74.9,123.3v-3.1h0.5v3.1H74.9z"/>
			<path class="st9" d="M78.3,122.3l0.5,0.1c-0.1,0.3-0.2,0.6-0.5,0.7s-0.5,0.3-0.9,0.3c-0.5,0-0.8-0.1-1.1-0.4s-0.4-0.7-0.4-1.2
				c0-0.5,0.1-0.9,0.4-1.2s0.6-0.4,1-0.4c0.4,0,0.8,0.1,1,0.4s0.4,0.7,0.4,1.2c0,0,0,0.1,0,0.1h-2.3c0,0.3,0.1,0.6,0.3,0.8
				s0.4,0.3,0.7,0.3c0.2,0,0.4-0.1,0.5-0.2S78.3,122.5,78.3,122.3z M76.6,121.4h1.7c0-0.3-0.1-0.5-0.2-0.6c-0.2-0.2-0.4-0.3-0.7-0.3
				c-0.2,0-0.4,0.1-0.6,0.2S76.6,121.2,76.6,121.4z"/>
			<path class="st9" d="M79.6,123.3v-3.1H80v0.4c0.2-0.3,0.6-0.5,1-0.5c0.2,0,0.4,0,0.5,0.1c0.2,0.1,0.3,0.2,0.4,0.3
				s0.1,0.2,0.2,0.4c0,0.1,0,0.3,0,0.5v1.9h-0.5v-1.9c0-0.2,0-0.4-0.1-0.5c0-0.1-0.1-0.2-0.2-0.3s-0.2-0.1-0.4-0.1
				c-0.2,0-0.4,0.1-0.6,0.2s-0.2,0.4-0.2,0.8v1.7H79.6z"/>
			<path class="st9" d="M84.9,122.1l0.5,0.1c-0.1,0.4-0.2,0.6-0.4,0.8c-0.2,0.2-0.5,0.3-0.9,0.3c-0.4,0-0.8-0.1-1-0.4
				c-0.3-0.3-0.4-0.7-0.4-1.2c0-0.3,0.1-0.6,0.2-0.9s0.3-0.4,0.5-0.6c0.2-0.1,0.5-0.2,0.7-0.2c0.3,0,0.6,0.1,0.8,0.3
				c0.2,0.2,0.4,0.4,0.4,0.7l-0.5,0.1c0-0.2-0.1-0.4-0.3-0.5s-0.3-0.2-0.5-0.2c-0.3,0-0.5,0.1-0.6,0.3c-0.2,0.2-0.2,0.5-0.2,0.9
				c0,0.4,0.1,0.7,0.2,0.9s0.4,0.3,0.6,0.3c0.2,0,0.4-0.1,0.5-0.2S84.9,122.4,84.9,122.1z"/>
			<path class="st9" d="M88,122.3l0.5,0.1c-0.1,0.3-0.2,0.6-0.5,0.7s-0.5,0.3-0.9,0.3c-0.5,0-0.8-0.1-1.1-0.4s-0.4-0.7-0.4-1.2
				c0-0.5,0.1-0.9,0.4-1.2s0.6-0.4,1-0.4c0.4,0,0.8,0.1,1,0.4s0.4,0.7,0.4,1.2c0,0,0,0.1,0,0.1h-2.3c0,0.3,0.1,0.6,0.3,0.8
				s0.4,0.3,0.7,0.3c0.2,0,0.4-0.1,0.5-0.2S87.9,122.5,88,122.3z M86.3,121.4H88c0-0.3-0.1-0.5-0.2-0.6c-0.2-0.2-0.4-0.3-0.7-0.3
				c-0.2,0-0.4,0.1-0.6,0.2S86.3,121.2,86.3,121.4z"/>
			<path class="st9" d="M91.9,124.5c-0.3-0.4-0.5-0.8-0.7-1.3s-0.3-1-0.3-1.5c0-0.5,0.1-0.9,0.2-1.3c0.2-0.5,0.4-1,0.8-1.5h0.4
				c-0.2,0.4-0.4,0.7-0.5,0.9c-0.1,0.3-0.2,0.6-0.3,0.8c-0.1,0.4-0.1,0.7-0.1,1.1c0,0.9,0.3,1.9,0.9,2.8H91.9z"/>
			<path class="st9" d="M92.8,120c0-0.3,0.1-0.6,0.2-0.8s0.4-0.3,0.7-0.3c0.3,0,0.5,0.1,0.7,0.3c0.2,0.2,0.3,0.5,0.3,0.8
				c0,0.4-0.1,0.6-0.3,0.8c-0.2,0.2-0.4,0.3-0.7,0.3c-0.3,0-0.5-0.1-0.6-0.3S92.8,120.4,92.8,120z M93.8,119.3
				c-0.1,0-0.2,0.1-0.3,0.2s-0.1,0.3-0.1,0.6c0,0.3,0,0.5,0.1,0.6s0.2,0.2,0.3,0.2c0.1,0,0.2-0.1,0.3-0.2s0.1-0.3,0.1-0.6
				c0-0.3,0-0.5-0.1-0.6S93.9,119.3,93.8,119.3z M93.8,123.4l2.3-4.5h0.4l-2.3,4.5H93.8z M95.6,122.3c0-0.3,0.1-0.6,0.2-0.8
				c0.2-0.2,0.4-0.3,0.7-0.3c0.3,0,0.5,0.1,0.7,0.3c0.2,0.2,0.3,0.5,0.3,0.8c0,0.4-0.1,0.6-0.3,0.8c-0.2,0.2-0.4,0.3-0.7,0.3
				c-0.3,0-0.5-0.1-0.6-0.3C95.7,123,95.6,122.7,95.6,122.3z M96.5,121.5c-0.1,0-0.2,0.1-0.3,0.2s-0.1,0.3-0.1,0.6
				c0,0.3,0,0.5,0.1,0.6s0.2,0.2,0.3,0.2c0.1,0,0.2-0.1,0.3-0.2s0.1-0.3,0.1-0.6c0-0.3,0-0.5-0.1-0.6S96.7,121.5,96.5,121.5z"/>
			<path class="st9" d="M98.6,124.5h-0.4c0.6-0.9,0.9-1.9,0.9-2.8c0-0.4,0-0.7-0.1-1.1c-0.1-0.3-0.2-0.6-0.3-0.8
				c-0.1-0.2-0.2-0.5-0.5-0.9h0.4c0.4,0.5,0.6,1,0.8,1.5c0.2,0.4,0.2,0.9,0.2,1.3c0,0.5-0.1,1-0.3,1.5S98.9,124.2,98.6,124.5z"/>
		</g>
		<path class="st11" d="M3.6,151.1c-2,0-3.6,1.6-3.6,3.6c0,2,1.6,3.6,3.6,3.6c2,0,3.6-1.6,3.6-3.6S5.5,151.1,3.6,151.1
			C3.6,151.1,3.6,151.1,3.6,151.1"/>
		<g class="st0">
			<path class="st9" d="M10.6,156.2v-4.3h1.9c0.4,0,0.7,0,0.9,0.1c0.2,0.1,0.4,0.2,0.5,0.4s0.2,0.4,0.2,0.6c0,0.3-0.1,0.6-0.3,0.8
				s-0.5,0.3-0.9,0.4c0.2,0.1,0.3,0.1,0.3,0.2c0.2,0.2,0.3,0.3,0.5,0.6l0.7,1.2h-0.7l-0.6-0.9c-0.2-0.3-0.3-0.5-0.4-0.6
				s-0.2-0.2-0.3-0.3s-0.2-0.1-0.3-0.1c-0.1,0-0.2,0-0.3,0h-0.7v1.9H10.6z M11.2,153.8h1.2c0.3,0,0.5,0,0.6-0.1
				c0.1-0.1,0.3-0.1,0.3-0.3c0.1-0.1,0.1-0.2,0.1-0.4c0-0.2-0.1-0.4-0.2-0.5s-0.4-0.2-0.7-0.2h-1.4V153.8z"/>
			<path class="st9" d="M17,155.2l0.5,0.1c-0.1,0.3-0.2,0.6-0.5,0.7s-0.5,0.3-0.9,0.3c-0.5,0-0.8-0.1-1.1-0.4s-0.4-0.7-0.4-1.2
				c0-0.5,0.1-0.9,0.4-1.2s0.6-0.4,1-0.4c0.4,0,0.8,0.1,1,0.4s0.4,0.7,0.4,1.2c0,0,0,0.1,0,0.1h-2.3c0,0.3,0.1,0.6,0.3,0.8
				s0.4,0.3,0.7,0.3c0.2,0,0.4-0.1,0.5-0.2S16.9,155.4,17,155.2z M15.3,154.3H17c0-0.3-0.1-0.5-0.2-0.6c-0.2-0.2-0.4-0.3-0.7-0.3
				c-0.2,0-0.4,0.1-0.6,0.2S15.3,154.1,15.3,154.3z"/>
			<path class="st9" d="M18.2,156.2v-4.3h0.5v4.3H18.2z"/>
			<path class="st9" d="M19.5,152.5v-0.6h0.5v0.6H19.5z M19.5,156.2v-3.1h0.5v3.1H19.5z"/>
			<path class="st9" d="M20.8,156.5l0.5,0.1c0,0.2,0.1,0.3,0.2,0.3c0.1,0.1,0.3,0.1,0.5,0.1c0.2,0,0.4,0,0.6-0.1s0.2-0.2,0.3-0.4
				c0-0.1,0-0.3,0-0.7c-0.2,0.3-0.5,0.4-0.9,0.4c-0.4,0-0.8-0.2-1-0.5s-0.4-0.7-0.4-1.1c0-0.3,0.1-0.6,0.2-0.8s0.3-0.4,0.5-0.6
				s0.4-0.2,0.7-0.2c0.4,0,0.7,0.1,0.9,0.4v-0.4h0.5v2.7c0,0.5,0,0.8-0.1,1c-0.1,0.2-0.3,0.4-0.5,0.5s-0.5,0.2-0.8,0.2
				c-0.4,0-0.7-0.1-0.9-0.3C20.9,157,20.8,156.8,20.8,156.5z M21.2,154.6c0,0.4,0.1,0.7,0.2,0.9s0.4,0.3,0.6,0.3
				c0.2,0,0.4-0.1,0.6-0.3c0.2-0.2,0.2-0.5,0.2-0.9c0-0.4-0.1-0.7-0.3-0.9s-0.4-0.3-0.6-0.3c-0.2,0-0.4,0.1-0.6,0.3
				C21.3,153.9,21.2,154.2,21.2,154.6z"/>
			<path class="st9" d="M24.2,152.5v-0.6h0.5v0.6H24.2z M24.2,156.2v-3.1h0.5v3.1H24.2z"/>
			<path class="st9" d="M25.3,154.6c0-0.6,0.2-1,0.5-1.3c0.3-0.2,0.6-0.3,1-0.3c0.4,0,0.8,0.1,1,0.4c0.3,0.3,0.4,0.7,0.4,1.2
				c0,0.4-0.1,0.7-0.2,0.9s-0.3,0.4-0.5,0.5s-0.5,0.2-0.8,0.2c-0.4,0-0.8-0.1-1.1-0.4S25.3,155.2,25.3,154.6z M25.9,154.6
				c0,0.4,0.1,0.7,0.3,0.9s0.4,0.3,0.7,0.3c0.3,0,0.5-0.1,0.7-0.3s0.3-0.5,0.3-0.9c0-0.4-0.1-0.7-0.3-0.9s-0.4-0.3-0.7-0.3
				c-0.3,0-0.5,0.1-0.7,0.3S25.9,154.2,25.9,154.6z"/>
			<path class="st9" d="M30.9,156.2v-0.5c-0.2,0.4-0.6,0.5-1,0.5c-0.2,0-0.4,0-0.5-0.1s-0.3-0.2-0.4-0.3c-0.1-0.1-0.1-0.2-0.2-0.4
				c0-0.1,0-0.3,0-0.5v-1.9h0.5v1.7c0,0.3,0,0.5,0,0.6c0,0.1,0.1,0.2,0.2,0.3c0.1,0.1,0.2,0.1,0.4,0.1s0.3,0,0.4-0.1
				c0.1-0.1,0.2-0.2,0.3-0.3s0.1-0.3,0.1-0.6v-1.7h0.5v3.1H30.9z"/>
			<path class="st9" d="M32,155.3l0.5-0.1c0,0.2,0.1,0.4,0.2,0.5s0.3,0.2,0.6,0.2c0.2,0,0.4,0,0.5-0.1c0.1-0.1,0.2-0.2,0.2-0.3
				c0-0.1-0.1-0.2-0.2-0.3c-0.1,0-0.3-0.1-0.5-0.2c-0.4-0.1-0.7-0.2-0.8-0.3c-0.1-0.1-0.3-0.2-0.3-0.3c-0.1-0.1-0.1-0.3-0.1-0.4
				c0-0.1,0-0.3,0.1-0.4s0.1-0.2,0.3-0.3c0.1-0.1,0.2-0.1,0.3-0.2c0.1,0,0.3-0.1,0.5-0.1c0.2,0,0.5,0,0.6,0.1s0.3,0.2,0.4,0.3
				c0.1,0.1,0.1,0.3,0.2,0.5L34,154c0-0.2-0.1-0.3-0.2-0.4s-0.3-0.1-0.5-0.1c-0.2,0-0.4,0-0.5,0.1s-0.2,0.2-0.2,0.3
				c0,0.1,0,0.1,0.1,0.2c0,0.1,0.1,0.1,0.2,0.1c0.1,0,0.2,0.1,0.5,0.1c0.4,0.1,0.6,0.2,0.8,0.2c0.1,0.1,0.3,0.2,0.3,0.3
				s0.1,0.3,0.1,0.5c0,0.2-0.1,0.3-0.2,0.5c-0.1,0.2-0.3,0.3-0.4,0.4c-0.2,0.1-0.4,0.1-0.7,0.1c-0.4,0-0.7-0.1-0.9-0.3
				S32.1,155.6,32,155.3z"/>
			<path class="st9" d="M35.4,156.2v-0.6H36v0.6c0,0.2,0,0.4-0.1,0.5c-0.1,0.1-0.2,0.2-0.4,0.3l-0.1-0.2c0.1,0,0.2-0.1,0.2-0.2
				s0.1-0.2,0.1-0.4H35.4z"/>
			<path class="st9" d="M38.5,156.2v-4.3h0.5v1.5c0.2-0.3,0.6-0.4,0.9-0.4c0.2,0,0.4,0,0.6,0.1c0.2,0.1,0.3,0.2,0.4,0.4
				s0.1,0.4,0.1,0.7v2h-0.5v-2c0-0.3-0.1-0.5-0.2-0.6c-0.1-0.1-0.3-0.2-0.5-0.2c-0.2,0-0.3,0-0.4,0.1s-0.2,0.2-0.3,0.3
				s-0.1,0.3-0.1,0.6v1.7H38.5z"/>
			<path class="st9" d="M41.9,152.5v-0.6h0.5v0.6H41.9z M41.9,156.2v-3.1h0.5v3.1H41.9z"/>
			<path class="st9" d="M43.1,156.5l0.5,0.1c0,0.2,0.1,0.3,0.2,0.3c0.1,0.1,0.3,0.1,0.5,0.1c0.2,0,0.4,0,0.6-0.1s0.2-0.2,0.3-0.4
				c0-0.1,0-0.3,0-0.7c-0.2,0.3-0.5,0.4-0.9,0.4c-0.4,0-0.8-0.2-1-0.5s-0.4-0.7-0.4-1.1c0-0.3,0.1-0.6,0.2-0.8s0.3-0.4,0.5-0.6
				s0.4-0.2,0.7-0.2c0.4,0,0.7,0.1,0.9,0.4v-0.4h0.5v2.7c0,0.5,0,0.8-0.1,1c-0.1,0.2-0.3,0.4-0.5,0.5s-0.5,0.2-0.8,0.2
				c-0.4,0-0.7-0.1-0.9-0.3C43.2,157,43.1,156.8,43.1,156.5z M43.6,154.6c0,0.4,0.1,0.7,0.2,0.9s0.4,0.3,0.6,0.3
				c0.2,0,0.4-0.1,0.6-0.3c0.2-0.2,0.2-0.5,0.2-0.9c0-0.4-0.1-0.7-0.3-0.9s-0.4-0.3-0.6-0.3c-0.2,0-0.4,0.1-0.6,0.3
				C43.6,153.9,43.6,154.2,43.6,154.6z"/>
			<path class="st9" d="M46.6,156.2v-4.3h0.5v1.5c0.2-0.3,0.6-0.4,0.9-0.4c0.2,0,0.4,0,0.6,0.1c0.2,0.1,0.3,0.2,0.4,0.4
				s0.1,0.4,0.1,0.7v2h-0.5v-2c0-0.3-0.1-0.5-0.2-0.6c-0.1-0.1-0.3-0.2-0.5-0.2c-0.2,0-0.3,0-0.4,0.1s-0.2,0.2-0.3,0.3
				s-0.1,0.3-0.1,0.6v1.7H46.6z"/>
			<path class="st9" d="M52.7,155.7l0.1,0.5c-0.1,0-0.3,0-0.4,0c-0.2,0-0.3,0-0.4-0.1s-0.2-0.1-0.2-0.2c0-0.1-0.1-0.3-0.1-0.6v-1.8
				h-0.4v-0.4h0.4v-0.8l0.5-0.3v1.1h0.5v0.4h-0.5v1.8c0,0.2,0,0.2,0,0.3s0,0.1,0.1,0.1s0.1,0,0.2,0
				C52.5,155.7,52.6,155.7,52.7,155.7z"/>
			<path class="st9" d="M53.2,156.2v-3.1h0.5v0.5c0.1-0.2,0.2-0.4,0.3-0.4s0.2-0.1,0.3-0.1c0.2,0,0.4,0.1,0.5,0.2l-0.2,0.5
				c-0.1-0.1-0.3-0.1-0.4-0.1c-0.1,0-0.2,0-0.3,0.1c-0.1,0.1-0.2,0.2-0.2,0.3c-0.1,0.2-0.1,0.4-0.1,0.6v1.6H53.2z"/>
			<path class="st9" d="M57.3,156.2v-0.5c-0.2,0.4-0.6,0.5-1,0.5c-0.2,0-0.4,0-0.5-0.1s-0.3-0.2-0.4-0.3c-0.1-0.1-0.1-0.2-0.2-0.4
				c0-0.1,0-0.3,0-0.5v-1.9h0.5v1.7c0,0.3,0,0.5,0,0.6c0,0.1,0.1,0.2,0.2,0.3c0.1,0.1,0.2,0.1,0.4,0.1s0.3,0,0.4-0.1
				c0.1-0.1,0.2-0.2,0.3-0.3s0.1-0.3,0.1-0.6v-1.7h0.5v3.1H57.3z"/>
			<path class="st9" d="M58.4,155.3l0.5-0.1c0,0.2,0.1,0.4,0.2,0.5s0.3,0.2,0.6,0.2c0.2,0,0.4,0,0.5-0.1c0.1-0.1,0.2-0.2,0.2-0.3
				c0-0.1-0.1-0.2-0.2-0.3c-0.1,0-0.3-0.1-0.5-0.2c-0.4-0.1-0.7-0.2-0.8-0.3c-0.1-0.1-0.3-0.2-0.3-0.3c-0.1-0.1-0.1-0.3-0.1-0.4
				c0-0.1,0-0.3,0.1-0.4s0.1-0.2,0.3-0.3c0.1-0.1,0.2-0.1,0.3-0.2c0.1,0,0.3-0.1,0.5-0.1c0.2,0,0.5,0,0.6,0.1s0.3,0.2,0.4,0.3
				c0.1,0.1,0.1,0.3,0.2,0.5l-0.5,0.1c0-0.2-0.1-0.3-0.2-0.4s-0.3-0.1-0.5-0.1c-0.2,0-0.4,0-0.5,0.1s-0.2,0.2-0.2,0.3
				c0,0.1,0,0.1,0.1,0.2c0,0.1,0.1,0.1,0.2,0.1c0.1,0,0.2,0.1,0.5,0.1c0.4,0.1,0.6,0.2,0.8,0.2c0.1,0.1,0.3,0.2,0.3,0.3
				s0.1,0.3,0.1,0.5c0,0.2-0.1,0.3-0.2,0.5c-0.1,0.2-0.3,0.3-0.4,0.4c-0.2,0.1-0.4,0.1-0.7,0.1c-0.4,0-0.7-0.1-0.9-0.3
				S58.4,155.6,58.4,155.3z"/>
			<path class="st9" d="M62.7,155.7l0.1,0.5c-0.1,0-0.3,0-0.4,0c-0.2,0-0.3,0-0.4-0.1s-0.2-0.1-0.2-0.2c0-0.1-0.1-0.3-0.1-0.6v-1.8
				h-0.4v-0.4h0.4v-0.8l0.5-0.3v1.1h0.5v0.4h-0.5v1.8c0,0.2,0,0.2,0,0.3s0,0.1,0.1,0.1s0.1,0,0.2,0
				C62.5,155.7,62.6,155.7,62.7,155.7z"/>
			<path class="st9" d="M64.9,152.5v-0.6h0.5v0.6H64.9z M64.9,156.2v-3.1h0.5v3.1H64.9z"/>
			<path class="st9" d="M66.2,156.2v-3.1h0.5v0.4c0.2-0.3,0.6-0.5,1-0.5c0.2,0,0.4,0,0.5,0.1c0.2,0.1,0.3,0.2,0.4,0.3
				s0.1,0.2,0.2,0.4c0,0.1,0,0.3,0,0.5v1.9h-0.5v-1.9c0-0.2,0-0.4-0.1-0.5c0-0.1-0.1-0.2-0.2-0.3s-0.2-0.1-0.4-0.1
				c-0.2,0-0.4,0.1-0.6,0.2s-0.2,0.4-0.2,0.8v1.7H66.2z"/>
			<path class="st9" d="M71,155.3l0.5-0.1c0,0.2,0.1,0.4,0.2,0.5s0.3,0.2,0.6,0.2c0.2,0,0.4,0,0.5-0.1c0.1-0.1,0.2-0.2,0.2-0.3
				c0-0.1-0.1-0.2-0.2-0.3c-0.1,0-0.3-0.1-0.5-0.2c-0.4-0.1-0.7-0.2-0.8-0.3c-0.1-0.1-0.3-0.2-0.3-0.3c-0.1-0.1-0.1-0.3-0.1-0.4
				c0-0.1,0-0.3,0.1-0.4s0.1-0.2,0.3-0.3c0.1-0.1,0.2-0.1,0.3-0.2c0.1,0,0.3-0.1,0.5-0.1c0.2,0,0.5,0,0.6,0.1s0.3,0.2,0.4,0.3
				c0.1,0.1,0.1,0.3,0.2,0.5L73,154c0-0.2-0.1-0.3-0.2-0.4s-0.3-0.1-0.5-0.1c-0.2,0-0.4,0-0.5,0.1s-0.2,0.2-0.2,0.3
				c0,0.1,0,0.1,0.1,0.2c0,0.1,0.1,0.1,0.2,0.1c0.1,0,0.2,0.1,0.5,0.1c0.4,0.1,0.6,0.2,0.8,0.2c0.1,0.1,0.3,0.2,0.3,0.3
				s0.1,0.3,0.1,0.5c0,0.2-0.1,0.3-0.2,0.5c-0.1,0.2-0.3,0.3-0.4,0.4c-0.2,0.1-0.4,0.1-0.7,0.1c-0.4,0-0.7-0.1-0.9-0.3
				S71.1,155.6,71,155.3z"/>
			<path class="st9" d="M76.3,155.1l0.5,0.1c-0.1,0.4-0.2,0.6-0.4,0.8c-0.2,0.2-0.5,0.3-0.9,0.3c-0.4,0-0.8-0.1-1-0.4
				c-0.3-0.3-0.4-0.7-0.4-1.2c0-0.3,0.1-0.6,0.2-0.9s0.3-0.4,0.5-0.6c0.2-0.1,0.5-0.2,0.7-0.2c0.3,0,0.6,0.1,0.8,0.3
				c0.2,0.2,0.4,0.4,0.4,0.7l-0.5,0.1c0-0.2-0.1-0.4-0.3-0.5s-0.3-0.2-0.5-0.2c-0.3,0-0.5,0.1-0.6,0.3c-0.2,0.2-0.2,0.5-0.2,0.9
				c0,0.4,0.1,0.7,0.2,0.9s0.4,0.3,0.6,0.3c0.2,0,0.4-0.1,0.5-0.2S76.2,155.3,76.3,155.1z"/>
			<path class="st9" d="M77.2,152.5v-0.6h0.5v0.6H77.2z M77.2,156.2v-3.1h0.5v3.1H77.2z"/>
			<path class="st9" d="M80.7,155.2l0.5,0.1c-0.1,0.3-0.2,0.6-0.5,0.7s-0.5,0.3-0.9,0.3c-0.5,0-0.8-0.1-1.1-0.4s-0.4-0.7-0.4-1.2
				c0-0.5,0.1-0.9,0.4-1.2s0.6-0.4,1-0.4c0.4,0,0.8,0.1,1,0.4s0.4,0.7,0.4,1.2c0,0,0,0.1,0,0.1h-2.3c0,0.3,0.1,0.6,0.3,0.8
				s0.4,0.3,0.7,0.3c0.2,0,0.4-0.1,0.5-0.2S80.6,155.4,80.7,155.2z M79,154.3h1.7c0-0.3-0.1-0.5-0.2-0.6c-0.2-0.2-0.4-0.3-0.7-0.3
				c-0.2,0-0.4,0.1-0.6,0.2S79,154.1,79,154.3z"/>
			<path class="st9" d="M81.9,156.2v-3.1h0.5v0.4c0.2-0.3,0.6-0.5,1-0.5c0.2,0,0.4,0,0.5,0.1c0.2,0.1,0.3,0.2,0.4,0.3
				s0.1,0.2,0.2,0.4c0,0.1,0,0.3,0,0.5v1.9h-0.5v-1.9c0-0.2,0-0.4-0.1-0.5c0-0.1-0.1-0.2-0.2-0.3s-0.2-0.1-0.4-0.1
				c-0.2,0-0.4,0.1-0.6,0.2s-0.2,0.4-0.2,0.8v1.7H81.9z"/>
			<path class="st9" d="M87.3,155.1l0.5,0.1c-0.1,0.4-0.2,0.6-0.4,0.8c-0.2,0.2-0.5,0.3-0.9,0.3c-0.4,0-0.8-0.1-1-0.4
				c-0.3-0.3-0.4-0.7-0.4-1.2c0-0.3,0.1-0.6,0.2-0.9s0.3-0.4,0.5-0.6c0.2-0.1,0.5-0.2,0.7-0.2c0.3,0,0.6,0.1,0.8,0.3
				c0.2,0.2,0.4,0.4,0.4,0.7l-0.5,0.1c0-0.2-0.1-0.4-0.3-0.5s-0.3-0.2-0.5-0.2c-0.3,0-0.5,0.1-0.6,0.3c-0.2,0.2-0.2,0.5-0.2,0.9
				c0,0.4,0.1,0.7,0.2,0.9s0.4,0.3,0.6,0.3c0.2,0,0.4-0.1,0.5-0.2S87.2,155.3,87.3,155.1z"/>
			<path class="st9" d="M90.4,155.2l0.5,0.1c-0.1,0.3-0.2,0.6-0.5,0.7s-0.5,0.3-0.9,0.3c-0.5,0-0.8-0.1-1.1-0.4s-0.4-0.7-0.4-1.2
				c0-0.5,0.1-0.9,0.4-1.2s0.6-0.4,1-0.4c0.4,0,0.8,0.1,1,0.4s0.4,0.7,0.4,1.2c0,0,0,0.1,0,0.1h-2.3c0,0.3,0.1,0.6,0.3,0.8
				s0.4,0.3,0.7,0.3c0.2,0,0.4-0.1,0.5-0.2S90.3,155.4,90.4,155.2z M88.6,154.3h1.7c0-0.3-0.1-0.5-0.2-0.6c-0.2-0.2-0.4-0.3-0.7-0.3
				c-0.2,0-0.4,0.1-0.6,0.2S88.7,154.1,88.6,154.3z"/>
			<path class="st9" d="M94.3,157.5c-0.3-0.4-0.5-0.8-0.7-1.3s-0.3-1-0.3-1.5c0-0.5,0.1-0.9,0.2-1.3c0.2-0.5,0.4-1,0.8-1.5h0.4
				c-0.2,0.4-0.4,0.7-0.5,0.9c-0.1,0.3-0.2,0.6-0.3,0.8c-0.1,0.4-0.1,0.7-0.1,1.1c0,0.9,0.3,1.9,0.9,2.8H94.3z"/>
			<path class="st9" d="M95.2,152.9c0-0.3,0.1-0.6,0.2-0.8s0.4-0.3,0.7-0.3c0.3,0,0.5,0.1,0.7,0.3c0.2,0.2,0.3,0.5,0.3,0.8
				c0,0.4-0.1,0.6-0.3,0.8c-0.2,0.2-0.4,0.3-0.7,0.3c-0.3,0-0.5-0.1-0.6-0.3S95.2,153.3,95.2,152.9z M96.1,152.2
				c-0.1,0-0.2,0.1-0.3,0.2s-0.1,0.3-0.1,0.6c0,0.3,0,0.5,0.1,0.6s0.2,0.2,0.3,0.2c0.1,0,0.2-0.1,0.3-0.2s0.1-0.3,0.1-0.6
				c0-0.3,0-0.5-0.1-0.6S96.2,152.2,96.1,152.2z M96.1,156.4l2.3-4.5h0.4l-2.3,4.5H96.1z M98,155.2c0-0.3,0.1-0.6,0.2-0.8
				c0.2-0.2,0.4-0.3,0.7-0.3c0.3,0,0.5,0.1,0.7,0.3c0.2,0.2,0.3,0.5,0.3,0.8c0,0.4-0.1,0.6-0.3,0.8c-0.2,0.2-0.4,0.3-0.7,0.3
				c-0.3,0-0.5-0.1-0.6-0.3C98.1,155.9,98,155.6,98,155.2z M98.9,154.5c-0.1,0-0.2,0.1-0.3,0.2s-0.1,0.3-0.1,0.6
				c0,0.3,0,0.5,0.1,0.6s0.2,0.2,0.3,0.2c0.1,0,0.2-0.1,0.3-0.2s0.1-0.3,0.1-0.6c0-0.3,0-0.5-0.1-0.6S99,154.5,98.9,154.5z"/>
			<path class="st9" d="M100.9,157.5h-0.4c0.6-0.9,0.9-1.9,0.9-2.8c0-0.4,0-0.7-0.1-1.1c-0.1-0.3-0.2-0.6-0.3-0.8
				c-0.1-0.2-0.2-0.5-0.5-0.9h0.4c0.4,0.5,0.6,1,0.8,1.5c0.2,0.4,0.2,0.9,0.2,1.3c0,0.5-0.1,1-0.3,1.5S101.2,157.1,100.9,157.5z"/>
		</g>
		<path class="st12" d="M3.6,130.6c-2,0-3.6,1.6-3.6,3.6c0,2,1.6,3.6,3.6,3.6c2,0,3.6-1.6,3.6-3.6S5.5,130.6,3.6,130.6
			C3.6,130.6,3.6,130.6,3.6,130.6"/>
		<path class="st9" d="M13.2,132c-0.2-0.2-0.5-0.2-0.8-0.2c-0.2,0-0.4,0-0.6,0.1c-0.2,0.1-0.3,0.2-0.4,0.4c-0.1,0.2-0.2,0.4-0.3,0.6
			c-0.1,0.2-0.1,0.4-0.1,0.6c0,0.2,0,0.5,0.1,0.7c0,0.2,0.1,0.4,0.3,0.6c0.1,0.2,0.3,0.3,0.4,0.4c0.2,0.1,0.4,0.2,0.7,0.1
			c0.2,0,0.3,0,0.5-0.1c0.1-0.1,0.3-0.1,0.4-0.3c0.1-0.1,0.2-0.2,0.2-0.4c0.1-0.2,0.1-0.3,0.1-0.5h0.6c0,0.5-0.2,0.9-0.6,1.3
			c-0.4,0.3-0.8,0.5-1.3,0.4c-0.3,0-0.6-0.1-0.9-0.2c-0.2-0.1-0.4-0.3-0.6-0.5c-0.2-0.2-0.3-0.5-0.4-0.7c-0.1-0.3-0.1-0.6-0.1-0.9
			c0-0.3,0-0.6,0.1-0.9c0.1-0.3,0.2-0.5,0.4-0.7c0.2-0.2,0.4-0.4,0.6-0.5c0.3-0.1,0.6-0.2,0.9-0.2c0.2,0,0.4,0,0.6,0.1
			c0.2,0.1,0.4,0.1,0.5,0.3c0.2,0.1,0.3,0.3,0.4,0.4c0.1,0.2,0.2,0.4,0.2,0.6h-0.6C13.6,132.4,13.4,132.2,13.2,132z"/>
		<path class="st9" d="M15.4,131.4v1.6l0,0c0-0.1,0.1-0.2,0.2-0.2c0.1-0.1,0.2-0.1,0.2-0.2c0.1,0,0.2-0.1,0.3-0.1h0.3
			c0.2,0,0.3,0,0.5,0.1c0.1,0.1,0.2,0.1,0.3,0.2c0.1,0.1,0.1,0.2,0.2,0.4c0,0.2,0,0.3,0,0.5v2h-0.5v-2.1c0-0.2-0.1-0.3-0.2-0.4
			c-0.1-0.1-0.3-0.2-0.5-0.2c-0.1,0-0.3,0-0.4,0.1c-0.1,0-0.2,0.1-0.3,0.2c-0.1,0.1-0.1,0.2-0.2,0.3c0,0.1-0.1,0.3-0.1,0.4v1.8h-0.5
			v-4.3L15.4,131.4z"/>
		<path class="st9" d="M18.1,133.5c0.1-0.2,0.2-0.4,0.3-0.5c0.1-0.1,0.3-0.3,0.5-0.4c0.2-0.1,0.4-0.1,0.6-0.1c0.2,0,0.4,0,0.6,0.1
			c0.2,0.1,0.3,0.2,0.5,0.4c0.1,0.2,0.2,0.3,0.3,0.5c0.1,0.2,0.1,0.4,0.1,0.6c0,0.2,0,0.4-0.1,0.6c-0.1,0.2-0.2,0.4-0.3,0.5
			c-0.1,0.1-0.3,0.3-0.5,0.4c-0.2,0.1-0.4,0.1-0.6,0.1c-0.2,0-0.4,0-0.6-0.1c-0.4-0.2-0.6-0.5-0.8-0.9c-0.1-0.2-0.1-0.4-0.1-0.6
			C18,133.9,18,133.7,18.1,133.5z M18.6,134.6c0,0.1,0.1,0.3,0.2,0.4c0.1,0.1,0.2,0.2,0.3,0.2c0.1,0,0.2,0.1,0.4,0.1
			c0.1,0,0.3,0,0.4-0.1c0.1-0.1,0.2-0.1,0.3-0.2c0.1-0.1,0.2-0.2,0.2-0.4c0.1-0.2,0.1-0.3,0.1-0.5c0-0.2,0-0.3-0.1-0.5
			c0-0.1-0.1-0.3-0.2-0.4c-0.1-0.1-0.2-0.2-0.3-0.2c-0.1-0.1-0.2-0.1-0.4-0.1c-0.1,0-0.3,0-0.4,0.1c-0.1,0.1-0.2,0.1-0.3,0.2
			c-0.1,0.1-0.2,0.2-0.2,0.4c0,0.2-0.1,0.3-0.1,0.5C18.6,134.3,18.6,134.5,18.6,134.6z"/>
		<path class="st9" d="M21.6,133.5c0.1-0.2,0.2-0.4,0.3-0.5c0.1-0.2,0.3-0.3,0.5-0.4c0.2-0.1,0.4-0.1,0.6-0.1c0.2,0,0.4,0,0.6,0.1
			c0.2,0.1,0.3,0.2,0.5,0.4c0.1,0.2,0.2,0.3,0.3,0.5c0.1,0.2,0.1,0.4,0.1,0.6c0,0.2,0,0.4-0.1,0.6c-0.1,0.2-0.2,0.4-0.3,0.5
			c-0.1,0.1-0.3,0.3-0.5,0.4c-0.2,0.1-0.4,0.1-0.6,0.1c-0.2,0-0.4,0-0.6-0.1c-0.4-0.2-0.6-0.5-0.8-0.9c-0.1-0.2-0.1-0.4-0.1-0.6
			C21.5,133.9,21.5,133.7,21.6,133.5z M22.1,134.6c0,0.1,0.1,0.3,0.2,0.4c0.1,0.1,0.2,0.2,0.3,0.2c0.1,0,0.2,0.1,0.4,0.1
			c0.1,0,0.3,0,0.4-0.1c0.1-0.1,0.2-0.1,0.3-0.2c0.1-0.1,0.2-0.2,0.2-0.4c0.1-0.2,0.1-0.3,0.1-0.5c0-0.2,0-0.3-0.1-0.5
			c0-0.1-0.1-0.3-0.2-0.4c-0.1-0.1-0.2-0.2-0.3-0.2c-0.1-0.1-0.2-0.1-0.4-0.1c-0.1,0-0.3,0-0.4,0.1c-0.1,0.1-0.2,0.1-0.3,0.2
			c-0.1,0.1-0.2,0.2-0.2,0.4c-0.1,0.2-0.1,0.3-0.1,0.5C22,134.3,22,134.5,22.1,134.6z"/>
		<path class="st9" d="M25.5,135c0,0.1,0.1,0.1,0.2,0.2c0.1,0,0.2,0.1,0.3,0.1c0.1,0,0.2,0,0.3,0h0.2l0.2-0.1c0.1,0,0.1-0.1,0.2-0.1
			c0.1-0.1,0.1-0.2,0.1-0.2c0-0.1-0.1-0.2-0.1-0.3c-0.1-0.1-0.2-0.1-0.4-0.2l-0.5-0.1c-0.2,0-0.3-0.1-0.5-0.1
			c-0.1-0.1-0.3-0.1-0.4-0.3c-0.1-0.1-0.2-0.3-0.1-0.5c0-0.1,0-0.3,0.1-0.4c0.1-0.1,0.2-0.2,0.3-0.3c0.1-0.1,0.2-0.1,0.4-0.2
			c0.1,0,0.3,0,0.4,0c0.2,0,0.3,0,0.5,0c0.1,0,0.3,0.1,0.4,0.2c0.1,0.1,0.2,0.2,0.3,0.3c0.1,0.1,0.1,0.3,0.1,0.5h-0.5
			c0-0.1,0-0.2-0.1-0.2c0-0.1-0.1-0.1-0.2-0.2c-0.1,0-0.1-0.1-0.2-0.1c-0.1,0-0.2,0-0.2,0c-0.1,0-0.2,0-0.2,0c-0.1,0-0.1,0-0.2,0.1
			c-0.1,0-0.1,0.1-0.2,0.1c0,0.1-0.1,0.1-0.1,0.2c0,0.1,0,0.2,0.1,0.2c0.1,0.1,0.2,0.1,0.2,0.1c0.1,0,0.2,0.1,0.3,0.1l0.4,0.1
			l0.4,0.1c0.1,0,0.2,0.1,0.3,0.2c0.1,0.1,0.2,0.1,0.2,0.2c0.1,0.1,0.1,0.2,0.1,0.4c0,0.2,0,0.3-0.1,0.5c-0.1,0.1-0.2,0.2-0.3,0.3
			c-0.1,0.1-0.3,0.1-0.4,0.1c-0.2,0-0.3,0-0.5,0c-0.2,0-0.3,0-0.5-0.1c-0.2,0-0.3-0.1-0.4-0.2c-0.1-0.1-0.2-0.2-0.3-0.3
			c-0.1-0.1-0.1-0.3-0.1-0.5h0.5C25.4,134.8,25.4,134.9,25.5,135z"/>
		<path class="st9" d="M30.3,135.5c-0.3,0.2-0.6,0.3-0.9,0.3c-0.2,0-0.4,0-0.6-0.1c-0.2-0.1-0.3-0.2-0.5-0.3
			c-0.1-0.1-0.2-0.3-0.3-0.5c-0.1-0.2-0.1-0.4-0.1-0.7c0-0.2,0-0.4,0.1-0.6c0.1-0.2,0.2-0.4,0.3-0.5c0.1-0.1,0.3-0.3,0.5-0.3
			c0.2-0.1,0.4-0.1,0.6-0.1c0.2,0,0.5,0.1,0.7,0.2c0.2,0.1,0.3,0.3,0.4,0.4c0.1,0.2,0.2,0.4,0.2,0.6c0,0.2,0.1,0.4,0,0.6h-2.3
			c0,0.1,0,0.3,0,0.4c0,0.1,0.1,0.2,0.2,0.3c0.1,0.1,0.2,0.2,0.3,0.2c0.1,0.1,0.3,0.1,0.4,0.1c0.2,0,0.4,0,0.5-0.1
			c0.1-0.1,0.2-0.3,0.3-0.4h0.5C30.6,135,30.5,135.3,30.3,135.5z M30.1,133.5c0-0.1-0.1-0.2-0.2-0.3c-0.1-0.1-0.2-0.1-0.3-0.2
			c-0.2-0.1-0.5-0.1-0.7,0c-0.1,0-0.2,0.1-0.3,0.2c-0.1,0.1-0.1,0.2-0.2,0.3c0,0.1-0.1,0.2-0.1,0.3h1.8
			C30.2,133.7,30.2,133.6,30.1,133.5L30.1,133.5z"/>
		<path class="st9" d="M33.4,132.6v0.6l0,0c0.1-0.2,0.3-0.4,0.5-0.6c0.2-0.1,0.4-0.2,0.7-0.2v0.5c-0.2,0-0.4,0-0.5,0.1
			c-0.1,0-0.3,0.1-0.3,0.2c-0.1,0.1-0.2,0.2-0.2,0.4c0,0.2-0.1,0.4-0.1,0.5v1.4H33v-3.1L33.4,132.6z"/>
		<path class="st9" d="M37.2,135.5c-0.3,0.2-0.6,0.3-0.9,0.3c-0.2,0-0.4,0-0.6-0.1c-0.2-0.1-0.3-0.2-0.5-0.3
			c-0.1-0.1-0.2-0.3-0.3-0.5c-0.1-0.2-0.1-0.4-0.1-0.7c0-0.2,0-0.4,0.1-0.6c0.1-0.2,0.2-0.4,0.3-0.5c0.1-0.1,0.3-0.3,0.5-0.3
			c0.2-0.1,0.4-0.1,0.6-0.1c0.2,0,0.5,0.1,0.7,0.2c0.2,0.1,0.3,0.3,0.4,0.4c0.1,0.2,0.2,0.4,0.2,0.6c0,0.2,0.1,0.4,0.1,0.6h-2.3
			c0,0.1,0,0.3,0,0.4c0,0.1,0.1,0.2,0.2,0.3c0.1,0.1,0.2,0.2,0.3,0.2c0.1,0.1,0.3,0.1,0.4,0.1c0.2,0,0.4,0,0.5-0.1
			c0.1-0.1,0.2-0.3,0.3-0.4h0.5C37.6,135,37.4,135.3,37.2,135.5z M37,133.5c0-0.1-0.1-0.2-0.2-0.3c-0.1-0.1-0.2-0.1-0.3-0.2
			c-0.1-0.1-0.2-0.1-0.3-0.1c-0.1,0-0.2,0-0.4,0.1c-0.1,0-0.2,0.1-0.3,0.2c-0.1,0.1-0.1,0.2-0.2,0.3c0,0.1-0.1,0.2-0.1,0.3h1.8
			C37.1,133.7,37.1,133.6,37,133.5L37,133.5z"/>
		<path class="st9" d="M38.7,131.4v4.3h-0.5v-4.3H38.7z"/>
		<path class="st9" d="M39.5,132v-0.6H40v0.6H39.5z M40,132.6v3.1h-0.5v-3.1H40z"/>
		<path class="st9" d="M43.2,136.5c-0.3,0.3-0.7,0.4-1.1,0.4c-0.1,0-0.3,0-0.4,0c-0.1,0-0.3-0.1-0.4-0.2c-0.1-0.1-0.2-0.2-0.3-0.3
			c-0.1-0.1-0.1-0.3-0.1-0.4h0.5c0,0.1,0,0.2,0.1,0.2c0.1,0.1,0.1,0.1,0.2,0.2l0.3,0.1h0.3c0.1,0,0.3,0,0.4-0.1
			c0.1-0.1,0.2-0.1,0.3-0.2c0.1-0.1,0.1-0.2,0.2-0.4c0-0.2,0-0.3,0-0.5v-0.2l0,0c-0.1,0.2-0.2,0.3-0.4,0.4c-0.2,0.1-0.4,0.1-0.6,0.1
			c-0.2,0-0.4,0-0.6-0.1c-0.2-0.1-0.3-0.2-0.4-0.3c-0.1-0.1-0.2-0.3-0.3-0.5c-0.1-0.2-0.1-0.4-0.1-0.6c0-0.2,0-0.4,0.1-0.6
			c0.1-0.2,0.2-0.4,0.3-0.6c0.1-0.2,0.3-0.3,0.5-0.4c0.2-0.1,0.4-0.2,0.7-0.1c0.2,0,0.4,0,0.5,0.1c0.2,0.1,0.3,0.2,0.3,0.4l0,0v-0.4
			h0.5v2.8C43.5,135.8,43.4,136.2,43.2,136.5z M42.5,135.1c0.1-0.1,0.2-0.2,0.3-0.3c0.1-0.1,0.1-0.3,0.2-0.4c0-0.1,0-0.3,0-0.4
			c0-0.1,0-0.3,0-0.4c0-0.1-0.1-0.3-0.2-0.4c-0.1-0.1-0.2-0.2-0.3-0.3c-0.1-0.1-0.3-0.1-0.4-0.1c-0.3,0-0.5,0.1-0.7,0.3
			c-0.1,0.1-0.1,0.2-0.2,0.4c0,0.1,0,0.3,0,0.4c0,0.1,0,0.3,0,0.4c0,0.1,0.1,0.3,0.2,0.4c0.1,0.1,0.2,0.2,0.3,0.3
			c0.1,0.1,0.3,0.1,0.4,0.1C42.2,135.3,42.4,135.2,42.5,135.1z"/>
		<path class="st9" d="M44.3,132v-0.6h0.5v0.6H44.3z M44.8,132.6v3.1h-0.5v-3.1H44.8z"/>
		<path class="st9" d="M45.5,133.5c0.1-0.2,0.2-0.4,0.3-0.5c0.1-0.1,0.3-0.3,0.5-0.4c0.2-0.1,0.4-0.1,0.7-0.1c0.2,0,0.4,0,0.7,0.1
			c0.2,0.1,0.3,0.2,0.5,0.4c0.1,0.2,0.2,0.3,0.3,0.5c0.1,0.2,0.1,0.4,0.1,0.6c0,0.2,0,0.4-0.1,0.6c-0.1,0.2-0.2,0.4-0.3,0.5
			c-0.1,0.1-0.3,0.3-0.5,0.4c-0.2,0.1-0.4,0.1-0.7,0.1c-0.2,0-0.4,0-0.7-0.1c-0.2-0.1-0.3-0.2-0.5-0.4c-0.1-0.1-0.2-0.3-0.3-0.5
			c-0.1-0.2-0.1-0.4-0.1-0.6C45.5,133.9,45.5,133.7,45.5,133.5z M46.1,134.6c0,0.1,0.1,0.3,0.2,0.4c0.1,0.1,0.2,0.2,0.3,0.2
			c0.1,0,0.2,0.1,0.4,0.1c0.1,0,0.3,0,0.4-0.1c0.1-0.1,0.2-0.1,0.3-0.2c0.1-0.1,0.2-0.2,0.2-0.4c0.1-0.2,0.1-0.3,0.1-0.5
			c0-0.2,0-0.3-0.1-0.5c0-0.1-0.1-0.3-0.2-0.4c-0.1-0.1-0.2-0.2-0.3-0.2c-0.1-0.1-0.2-0.1-0.4-0.1c-0.1,0-0.3,0-0.4,0.1
			c-0.1,0.1-0.2,0.1-0.3,0.2c-0.1,0.1-0.2,0.2-0.2,0.4c0,0.2-0.1,0.3-0.1,0.5C46,134.3,46,134.5,46.1,134.6z"/>
		<path class="st9" d="M49.5,132.6v0.5l0,0c0.2-0.4,0.6-0.6,1-0.6c0.2,0,0.3,0,0.5,0.1c0.1,0.1,0.2,0.1,0.3,0.2
			c0.1,0.1,0.1,0.2,0.2,0.4c0,0.2,0.1,0.3,0,0.5v2h-0.5v-2.1c0-0.3-0.2-0.6-0.5-0.6c0,0-0.1,0-0.1,0c-0.3,0-0.5,0.1-0.7,0.3
			c-0.1,0.1-0.1,0.2-0.2,0.3c0,0.1,0,0.3,0,0.4v1.8h-0.5v-3.1L49.5,132.6z"/>
		<path class="st9" d="M54.1,132v-0.6h0.5v0.6H54.1z M54.6,132.6v3.1h-0.5v-3.1H54.6z"/>
		<path class="st9" d="M55.9,132.6v0.5l0,0c0.2-0.4,0.6-0.6,1-0.6c0.2,0,0.3,0,0.5,0.1c0.1,0.1,0.2,0.1,0.3,0.2
			c0.1,0.1,0.2,0.2,0.2,0.4c0,0.2,0,0.3,0,0.5v2h-0.5v-2.1c0-0.2-0.1-0.3-0.2-0.4c-0.1-0.1-0.3-0.2-0.5-0.2c-0.1,0-0.3,0-0.4,0.1
			c-0.1,0-0.2,0.1-0.3,0.2c-0.1,0.1-0.1,0.2-0.2,0.3c0,0.1-0.1,0.3-0.1,0.4v1.8h-0.4v-3.1L55.9,132.6z"/>
		<path class="st9" d="M62.3,133.1c-0.1-0.1-0.3-0.2-0.5-0.2c-0.2,0-0.3,0-0.5,0.1c-0.1,0.1-0.2,0.2-0.3,0.3
			c-0.1,0.1-0.1,0.3-0.2,0.4c0,0.1,0,0.3,0,0.4c0,0.1,0,0.3,0,0.4c0,0.1,0.1,0.3,0.2,0.4c0.1,0.1,0.2,0.2,0.3,0.3
			c0.1,0.1,0.3,0.1,0.4,0.1c0.2,0,0.4-0.1,0.6-0.2c0.1-0.2,0.2-0.4,0.3-0.6h0.5c0,0.3-0.2,0.7-0.4,0.9c-0.3,0.2-0.6,0.3-0.9,0.3
			c-0.2,0-0.4,0-0.6-0.1c-0.2-0.1-0.3-0.2-0.5-0.3c-0.1-0.1-0.2-0.3-0.3-0.5c-0.1-0.2-0.1-0.4-0.1-0.6c0-0.2,0-0.4,0.1-0.6
			c0.1-0.2,0.1-0.4,0.3-0.5c0.1-0.2,0.3-0.3,0.5-0.4c0.2-0.1,0.4-0.1,0.6-0.1c0.2,0,0.3,0,0.5,0.1c0.1,0,0.3,0.1,0.4,0.2
			c0.1,0.1,0.2,0.2,0.3,0.3c0.1,0.1,0.1,0.3,0.1,0.5h-0.5C62.5,133.4,62.4,133.2,62.3,133.1z"/>
		<path class="st9" d="M66.4,135.7c-0.1,0.1-0.2,0.1-0.4,0.1c-0.1,0-0.2,0-0.3-0.1c-0.1-0.1-0.1-0.2-0.1-0.4
			c-0.1,0.2-0.3,0.3-0.5,0.4c-0.2,0.1-0.4,0.1-0.6,0.1c-0.1,0-0.3,0-0.4,0c-0.2,0-0.4-0.2-0.5-0.4c-0.1-0.1-0.1-0.3-0.1-0.4
			c0-0.1,0-0.3,0.1-0.4c0.1-0.1,0.1-0.2,0.2-0.3c0.1-0.1,0.2-0.1,0.3-0.2l0.4-0.1l0.4-0.1l0.3-0.1c0.1,0,0.2-0.1,0.2-0.1
			c0.1-0.1,0.1-0.1,0.1-0.2c0-0.1,0-0.2-0.1-0.3c0-0.1-0.1-0.1-0.2-0.2c-0.1,0-0.1-0.1-0.2-0.1c-0.1,0-0.2,0-0.2,0
			c-0.2,0-0.4,0-0.5,0.1c-0.2,0.1-0.2,0.3-0.2,0.5h-0.5c0-0.2,0-0.3,0.1-0.5c0.1-0.1,0.2-0.2,0.3-0.3c0.1-0.1,0.3-0.1,0.4-0.2
			c0.2,0,0.3,0,0.5,0c0.1,0,0.3,0,0.4,0c0.1,0,0.3,0.1,0.4,0.1c0.1,0.1,0.2,0.2,0.3,0.3c0.1,0.1,0.1,0.3,0.1,0.4v1.6
			c0,0.1,0,0.2,0,0.3c0,0.1,0.1,0.1,0.1,0.1h0.2L66.4,135.7z M65.5,134.1c-0.1,0.1-0.2,0.1-0.2,0.1l-0.3,0.1h-0.3
			c-0.1,0-0.2,0-0.3,0.1c-0.1,0-0.2,0.1-0.2,0.2c-0.1,0.1-0.1,0.2-0.1,0.3c0,0.1,0,0.1,0,0.2c0,0.1,0.1,0.1,0.1,0.1
			c0.1,0,0.1,0.1,0.2,0.1c0.1,0,0.2,0,0.2,0c0.1,0,0.3,0,0.4-0.1c0.1,0,0.2-0.1,0.3-0.2c0.1-0.1,0.1-0.1,0.2-0.2
			c0-0.1,0.1-0.1,0.1-0.2L65.5,134.1z"/>
		<path class="st9" d="M67.2,135c0,0.1,0.1,0.1,0.2,0.2c0.1,0,0.2,0.1,0.3,0.1c0.1,0,0.2,0,0.3,0h0.2l0.2-0.1
			c0.2-0.1,0.3-0.2,0.3-0.4c0-0.1-0.1-0.2-0.2-0.3c-0.1-0.1-0.2-0.1-0.4-0.2l-0.5-0.1c-0.2,0-0.3-0.1-0.5-0.1
			c-0.1-0.1-0.3-0.1-0.4-0.3c-0.1-0.1-0.2-0.3-0.2-0.5c0-0.1,0-0.3,0.1-0.4c0.1-0.1,0.2-0.2,0.3-0.3c0.1-0.1,0.2-0.1,0.4-0.2
			c0.1,0,0.3,0,0.4,0c0.2,0,0.3,0,0.5,0c0.1,0,0.3,0.1,0.4,0.2c0.1,0.1,0.2,0.2,0.3,0.3c0.1,0.1,0.1,0.3,0.1,0.5h-0.5
			c0-0.1,0-0.2-0.1-0.2c0-0.1-0.1-0.1-0.2-0.2c-0.1,0-0.1-0.1-0.2-0.1c-0.1,0-0.2,0-0.2,0c-0.1,0-0.2,0-0.2,0c-0.1,0-0.1,0-0.2,0.1
			c-0.1,0-0.1,0.1-0.2,0.1c0,0.1-0.1,0.1-0.1,0.2c0,0.1,0,0.2,0.1,0.2c0.1,0.1,0.2,0.1,0.2,0.1c0.1,0,0.2,0.1,0.3,0.1l0.4,0.1
			l0.4,0.1c0.1,0,0.2,0.1,0.3,0.2c0.1,0.1,0.2,0.1,0.2,0.2c0.1,0.1,0.1,0.2,0.1,0.4c0,0.2,0,0.3-0.1,0.5c-0.1,0.1-0.2,0.2-0.3,0.3
			c-0.1,0.1-0.3,0.1-0.4,0.1c-0.2,0-0.3,0-0.5,0c-0.2,0-0.3,0-0.5-0.1c-0.1,0-0.3-0.1-0.4-0.2c-0.1-0.1-0.2-0.2-0.3-0.3
			c-0.1-0.1-0.1-0.3-0.1-0.5h0.5C67.2,134.8,67.2,134.9,67.2,135z"/>
		<path class="st9" d="M72.1,135.5c-0.3,0.2-0.6,0.3-0.9,0.3c-0.2,0-0.4,0-0.6-0.1c-0.2-0.1-0.3-0.2-0.5-0.3
			c-0.1-0.1-0.2-0.3-0.3-0.5c-0.1-0.2-0.1-0.4-0.1-0.7c0-0.2,0-0.4,0.1-0.6c0.1-0.2,0.2-0.4,0.3-0.5c0.1-0.1,0.3-0.3,0.5-0.3
			c0.2-0.1,0.4-0.1,0.6-0.1c0.2,0,0.5,0.1,0.7,0.2c0.2,0.1,0.3,0.3,0.4,0.4c0.1,0.2,0.2,0.4,0.2,0.6c0,0.2,0.1,0.4,0.1,0.6h-2.3
			c0,0.1,0,0.3,0,0.4c0,0.1,0.1,0.2,0.2,0.3c0.1,0.1,0.2,0.2,0.3,0.2c0.1,0.1,0.3,0.1,0.4,0.1c0.2,0,0.4,0,0.5-0.1
			c0.1-0.1,0.2-0.3,0.3-0.4h0.5C72.4,135,72.3,135.3,72.1,135.5z M71.9,133.5c0-0.1-0.1-0.2-0.2-0.3c-0.1-0.1-0.2-0.1-0.3-0.2
			c-0.1-0.1-0.2-0.1-0.3-0.1c-0.1,0-0.2,0-0.4,0.1c-0.1,0-0.2,0.1-0.3,0.2c-0.1,0.1-0.1,0.2-0.2,0.3c0,0.1-0.1,0.2-0.1,0.3H72
			C72,133.7,72,133.6,71.9,133.5L71.9,133.5z"/>
		<path class="st9" d="M74.7,133.5c0.1-0.2,0.2-0.3,0.3-0.5c0.1-0.2,0.3-0.3,0.5-0.4c0.4-0.2,0.9-0.2,1.3,0c0.2,0.1,0.3,0.2,0.5,0.4
			c0.1,0.2,0.2,0.3,0.3,0.5c0.1,0.2,0.1,0.4,0.1,0.6c0,0.2,0,0.4-0.1,0.6c-0.1,0.2-0.2,0.4-0.3,0.5c-0.1,0.1-0.3,0.3-0.5,0.4
			c-0.4,0.2-0.9,0.2-1.3,0c-0.4-0.2-0.6-0.5-0.8-0.9c-0.1-0.2-0.1-0.4-0.1-0.6C74.6,133.9,74.6,133.7,74.7,133.5z M75.2,134.6
			c0,0.1,0.1,0.3,0.2,0.4c0.1,0.1,0.2,0.2,0.3,0.2c0.1,0,0.2,0.1,0.4,0.1c0.1,0,0.3,0,0.4-0.1c0.1-0.1,0.2-0.1,0.3-0.2
			c0.1-0.1,0.2-0.2,0.2-0.4c0.1-0.2,0.1-0.3,0.1-0.5c0-0.2,0-0.3-0.1-0.5c0-0.1-0.1-0.3-0.2-0.4c-0.1-0.1-0.2-0.2-0.3-0.2
			c-0.1-0.1-0.2-0.1-0.4-0.1c-0.1,0-0.3,0-0.4,0.1c-0.1,0.1-0.2,0.1-0.3,0.2c-0.1,0.1-0.2,0.2-0.2,0.4c-0.1,0.2-0.1,0.3-0.1,0.5
			C75.1,134.3,75.1,134.5,75.2,134.6z"/>
		<path class="st9" d="M77.9,133v-0.4h0.5v-0.5c0-0.2,0.1-0.4,0.2-0.6c0.2-0.1,0.4-0.2,0.6-0.2h0.2h0.2v0.4h-0.1h-0.2
			c-0.1,0-0.2,0-0.3,0.1c-0.1,0.1-0.1,0.2-0.1,0.3v0.4h0.6v0.5h-0.6v2.6h-0.5V133H77.9z"/>
		<path class="st9" d="M12.8,142.9v-0.4l0,0c-0.1,0.2-0.2,0.3-0.4,0.4c-0.2,0.1-0.4,0.1-0.6,0.1c-0.2,0-0.4,0-0.6-0.1
			c-0.2-0.1-0.3-0.2-0.4-0.4c-0.1-0.2-0.2-0.3-0.3-0.5c-0.1-0.2-0.1-0.4-0.1-0.6c0-0.2,0-0.4,0.1-0.6c0.1-0.4,0.4-0.7,0.7-0.9
			c0.2-0.1,0.4-0.1,0.6-0.1H12l0.3,0.1c0.1,0,0.2,0.1,0.3,0.1c0.1,0.1,0.2,0.1,0.2,0.2l0,0v-1.6h0.5v4.3L12.8,142.9z M11,141.8
			c0,0.1,0.1,0.3,0.2,0.4c0.1,0.1,0.2,0.2,0.3,0.3c0.1,0.1,0.3,0.1,0.4,0.1c0.2,0,0.3,0,0.4-0.1c0.1-0.1,0.2-0.1,0.3-0.3
			c0.1-0.1,0.1-0.2,0.2-0.4c0-0.1,0-0.3,0.1-0.4c0-0.2,0-0.3-0.1-0.4c0-0.1-0.1-0.3-0.2-0.4c-0.1-0.1-0.2-0.2-0.3-0.3
			c-0.1-0.1-0.3-0.1-0.4-0.1c-0.2,0-0.3,0-0.4,0.1c-0.1,0.1-0.2,0.2-0.3,0.3c-0.1,0.1-0.1,0.3-0.1,0.4c0,0.1,0,0.3,0,0.4
			C11,141.5,11,141.6,11,141.8z"/>
		<path class="st9" d="M14.1,139.2v-0.6h0.5v0.6H14.1z M14.6,139.8v3.1h-0.5v-3.1H14.6z"/>
		<path class="st9" d="M15.8,142.2c0,0.1,0.1,0.1,0.2,0.2c0.1,0,0.2,0.1,0.3,0.1c0.1,0,0.2,0,0.3,0h0.3l0.2-0.1
			c0.1,0,0.1-0.1,0.2-0.1c0.1-0.1,0.1-0.2,0.1-0.2c0-0.1-0.1-0.2-0.1-0.3c-0.1-0.1-0.2-0.1-0.4-0.2l-0.5-0.1c-0.2,0-0.3-0.1-0.5-0.1
			c-0.1-0.1-0.3-0.1-0.4-0.3c-0.1-0.1-0.1-0.3-0.1-0.5c0-0.1,0-0.3,0.1-0.4c0.1-0.1,0.2-0.2,0.3-0.3c0.1-0.1,0.2-0.1,0.4-0.2
			c0.1,0,0.3,0,0.4-0.1c0.2,0,0.3,0,0.5,0c0.1,0,0.3,0.1,0.4,0.2c0.1,0.1,0.2,0.2,0.3,0.3c0.1,0.1,0.1,0.3,0.1,0.5h-0.5
			c0-0.1,0-0.2-0.1-0.2c0-0.1-0.1-0.1-0.2-0.2c-0.1,0-0.1-0.1-0.2-0.1h-0.2h-0.2c-0.1,0-0.1,0-0.2,0.1c-0.1,0-0.1,0.1-0.2,0.1
			c0,0.1,0,0.1,0,0.2c0,0.1,0,0.2,0.1,0.2c0.1,0.1,0.2,0.1,0.2,0.1c0.1,0,0.2,0.1,0.3,0.1l0.4,0.1l0.4,0.1c0.1,0,0.2,0.1,0.3,0.2
			c0.1,0.1,0.2,0.1,0.2,0.2c0.1,0.3,0.1,0.6,0,0.8c-0.1,0.1-0.2,0.2-0.3,0.3c-0.1,0.1-0.3,0.1-0.4,0.1c-0.2,0-0.3,0-0.5,0.1
			c-0.2,0-0.3,0-0.5-0.1c-0.1,0-0.3-0.1-0.4-0.2c-0.1-0.1-0.2-0.2-0.3-0.3c-0.1-0.1-0.1-0.3-0.1-0.5h0.5
			C15.8,141.9,15.8,142.1,15.8,142.2z"/>
		<path class="st9" d="M21.2,142.9c-0.1,0.1-0.2,0.1-0.4,0.1c-0.1,0-0.2,0-0.3-0.1c-0.1-0.1-0.1-0.2-0.1-0.4
			c-0.1,0.2-0.3,0.3-0.5,0.4c-0.2,0.1-0.4,0.1-0.6,0.1c-0.1,0-0.3,0-0.4-0.1c-0.1,0-0.2-0.1-0.3-0.1c-0.1-0.1-0.2-0.2-0.2-0.3
			c-0.1-0.3-0.1-0.6,0-0.8c0.1-0.1,0.1-0.2,0.2-0.3c0.1-0.1,0.2-0.1,0.3-0.2l0.4-0.1l0.4-0.1L20,141c0.1,0,0.2-0.1,0.2-0.1
			c0.1-0.1,0.1-0.1,0.1-0.2c0-0.1,0-0.2-0.1-0.3c0-0.1-0.1-0.1-0.2-0.2c-0.1,0-0.1-0.1-0.2-0.1h-0.2c-0.2,0-0.4,0-0.5,0.1
			c-0.2,0.1-0.2,0.3-0.2,0.5h-0.5c0-0.2,0-0.3,0.1-0.5c0.1-0.1,0.2-0.2,0.3-0.3c0.1-0.1,0.3-0.1,0.4-0.2c0.2,0,0.3,0,0.5-0.1
			c0.1,0,0.3,0,0.4,0c0.1,0,0.3,0.1,0.4,0.1c0.1,0.1,0.2,0.1,0.3,0.3c0.1,0.1,0.1,0.3,0.1,0.4v1.6c0,0.1,0,0.2,0,0.3
			c0,0,0.1,0.1,0.1,0.1h0.2L21.2,142.9z M20.3,141.3c-0.1,0.1-0.2,0.1-0.2,0.1h-0.3l-0.4,0.1c-0.1,0-0.2,0-0.3,0.1
			c-0.1,0-0.2,0.1-0.2,0.2c-0.1,0.1-0.1,0.2-0.1,0.3c0,0.1,0,0.1,0,0.2c0,0.1,0.1,0.1,0.1,0.1c0.1,0,0.1,0.1,0.2,0.1
			c0.1,0,0.2,0,0.2,0c0.1,0,0.3,0,0.4-0.1c0.1,0,0.2-0.1,0.3-0.2c0.1-0.1,0.1-0.1,0.2-0.2c0-0.1,0.1-0.1,0.1-0.2L20.3,141.3z"/>
		<path class="st9" d="M24,143.7c-0.3,0.3-0.7,0.4-1.1,0.4c-0.2,0-0.3,0-0.5-0.1c-0.1,0-0.3-0.1-0.4-0.2c-0.1-0.1-0.2-0.2-0.3-0.3
			c-0.1-0.1-0.1-0.3-0.1-0.4h0.5c0,0.1,0,0.2,0.1,0.2c0.1,0.1,0.1,0.1,0.2,0.2l0.2,0.1h0.3c0.1,0,0.3,0,0.4-0.1
			c0.1-0.1,0.2-0.1,0.3-0.2c0.1-0.1,0.1-0.2,0.2-0.4c0-0.2,0.1-0.3,0.1-0.5v-0.2l0,0c-0.1,0.2-0.2,0.3-0.4,0.4
			c-0.2,0.1-0.4,0.1-0.6,0.1c-0.4,0-0.8-0.2-1-0.5c-0.1-0.1-0.2-0.3-0.3-0.5c-0.1-0.2-0.1-0.4-0.1-0.6c0-0.2,0-0.4,0.1-0.6
			c0-0.2,0.1-0.4,0.2-0.5c0.1-0.2,0.3-0.3,0.5-0.4c0.2-0.1,0.4-0.2,0.7-0.1c0.2,0,0.4,0,0.5,0.1c0.2,0.1,0.3,0.2,0.4,0.4l0,0v-0.4
			h0.5v2.8C24.4,143,24.3,143.4,24,143.7z M23.4,142.3c0.1-0.1,0.2-0.2,0.3-0.3c0.1-0.1,0.1-0.3,0.2-0.4c0-0.1,0-0.3,0-0.4
			c0-0.1,0-0.3,0-0.4c0-0.1-0.1-0.3-0.1-0.4c-0.1-0.1-0.2-0.2-0.3-0.2c-0.1-0.1-0.3-0.1-0.4-0.1c-0.1,0-0.3,0-0.4,0.1
			c-0.1,0.1-0.2,0.1-0.3,0.2c-0.1,0.1-0.1,0.2-0.2,0.4c0,0.1,0,0.3,0,0.4c0,0.1,0,0.3,0,0.4c0,0.1,0.1,0.3,0.1,0.4
			c0.1,0.2,0.4,0.4,0.7,0.4C23,142.5,23.2,142.4,23.4,142.3L23.4,142.3z"/>
		<path class="st9" d="M25.5,139.8v0.6l0,0c0.1-0.2,0.3-0.4,0.5-0.6c0.2-0.1,0.4-0.2,0.7-0.2v0.5c-0.2,0-0.4,0-0.5,0.1
			c-0.1,0.1-0.2,0.1-0.3,0.2c-0.1,0.1-0.2,0.2-0.2,0.4c0,0.2-0.1,0.4,0,0.5v1.4h-0.5v-3.1L25.5,139.8z"/>
		<path class="st9" d="M29.3,142.7c-0.3,0.2-0.6,0.3-0.9,0.3c-0.2,0-0.4,0-0.6-0.1c-0.2-0.1-0.3-0.2-0.5-0.3
			c-0.1-0.1-0.2-0.3-0.3-0.5c-0.1-0.2-0.1-0.4-0.1-0.7c0-0.2,0-0.4,0.1-0.6c0.1-0.2,0.2-0.4,0.3-0.5c0.1-0.1,0.3-0.3,0.5-0.3
			c0.2-0.1,0.4-0.1,0.6-0.1c0.2,0,0.5,0.1,0.7,0.2c0.2,0.1,0.3,0.3,0.4,0.4c0.1,0.2,0.2,0.4,0.2,0.6c0,0.2,0.1,0.4,0.1,0.6h-2.3
			c0,0.1,0,0.3,0,0.4c0,0.1,0.1,0.2,0.2,0.3c0.1,0.1,0.2,0.2,0.3,0.2c0.1,0.1,0.3,0.1,0.4,0.1c0.2,0,0.4,0,0.5-0.2
			c0.1-0.1,0.2-0.3,0.3-0.4h0.5C29.6,142.2,29.5,142.5,29.3,142.7z M29.1,140.7c0-0.1-0.1-0.2-0.2-0.3c-0.1-0.1-0.2-0.1-0.3-0.2
			c-0.1-0.1-0.2-0.1-0.4-0.1c-0.1,0-0.2,0-0.4,0.1c-0.1,0-0.2,0.1-0.3,0.2c-0.1,0.1-0.1,0.2-0.2,0.3c0,0.1-0.1,0.2-0.1,0.3h1.8
			C29.2,140.9,29.2,140.8,29.1,140.7L29.1,140.7z"/>
		<path class="st9" d="M32.5,142.7c-0.3,0.2-0.6,0.3-0.9,0.3c-0.2,0-0.4,0-0.6-0.1c-0.2-0.1-0.3-0.2-0.5-0.3
			c-0.1-0.1-0.2-0.3-0.3-0.5c-0.1-0.2-0.1-0.4-0.1-0.7c0-0.2,0-0.4,0.1-0.6c0.1-0.2,0.2-0.4,0.3-0.5c0.1-0.1,0.3-0.3,0.5-0.3
			c0.2-0.1,0.4-0.1,0.6-0.1c0.2,0,0.5,0.1,0.7,0.2c0.2,0.1,0.3,0.3,0.4,0.4c0.1,0.2,0.2,0.4,0.2,0.6c0,0.2,0.1,0.4,0,0.6h-2.3
			c0,0.1,0,0.3,0,0.4c0,0.1,0.1,0.2,0.2,0.3c0.1,0.1,0.2,0.2,0.3,0.2c0.1,0.1,0.3,0.1,0.4,0.1c0.2,0,0.4,0,0.5-0.2
			c0.1-0.1,0.2-0.3,0.3-0.4h0.5C32.9,142.2,32.7,142.5,32.5,142.7z M32.4,140.7c0-0.1-0.1-0.2-0.2-0.3c-0.1-0.1-0.2-0.1-0.3-0.2
			c-0.2-0.1-0.5-0.1-0.7,0c-0.1,0-0.2,0.1-0.3,0.2c-0.1,0.1-0.1,0.2-0.2,0.3c0,0.1-0.1,0.2-0.1,0.3h1.8
			C32.4,140.9,32.4,140.8,32.4,140.7L32.4,140.7z"/>
		<path class="st9" d="M34,139.8v0.5l0,0c0.2-0.3,0.6-0.6,1-0.5c0.2,0,0.4,0,0.5,0.1c0.2,0.1,0.3,0.2,0.3,0.4
			c0.1-0.2,0.2-0.3,0.4-0.4c0.2-0.1,0.4-0.1,0.6-0.1c0.1,0,0.3,0,0.4,0.1c0.1,0,0.2,0.1,0.3,0.2c0.1,0.1,0.2,0.2,0.2,0.3
			c0.1,0.1,0.1,0.3,0.1,0.4v2.3h-0.5v-2c0-0.1,0-0.2,0-0.3c0-0.1,0-0.2-0.1-0.2c0-0.1-0.1-0.1-0.2-0.1c-0.1,0-0.2-0.1-0.3-0.1
			c-0.4,0-0.8,0.3-0.8,0.7c0,0,0,0.1,0,0.1v1.9h-0.5v-2c0-0.1,0-0.2,0-0.3c0-0.1,0-0.2-0.1-0.2c0-0.1-0.1-0.1-0.2-0.1
			c-0.1,0-0.2-0.1-0.3-0.1c-0.1,0-0.3,0-0.4,0.1c-0.1,0.1-0.2,0.1-0.3,0.2c-0.1,0.1-0.1,0.2-0.1,0.3c0,0.1,0,0.1,0,0.2v1.9h-0.5
			v-3.1L34,139.8z"/>
		<path class="st9" d="M40.8,142.7c-0.3,0.2-0.6,0.3-0.9,0.3c-0.2,0-0.4,0-0.6-0.1c-0.2-0.1-0.3-0.2-0.5-0.3
			c-0.1-0.1-0.2-0.3-0.3-0.5c-0.1-0.2-0.1-0.4-0.1-0.7c0-0.2,0-0.4,0.1-0.6c0.1-0.2,0.2-0.4,0.3-0.5c0.1-0.1,0.3-0.3,0.5-0.3
			c0.2-0.1,0.4-0.1,0.6-0.1c0.2,0,0.5,0.1,0.7,0.2c0.2,0.1,0.3,0.3,0.4,0.4c0.1,0.2,0.2,0.4,0.2,0.6c0,0.2,0,0.4,0,0.6H39
			c0,0.1,0,0.3,0,0.4c0,0.1,0.1,0.2,0.2,0.3c0.1,0.1,0.2,0.2,0.3,0.2c0.1,0.1,0.3,0.1,0.4,0.1c0.2,0,0.4,0,0.5-0.2
			c0.1-0.1,0.2-0.3,0.3-0.4h0.5C41.2,142.2,41.1,142.5,40.8,142.7z M40.7,140.7c0-0.1-0.1-0.2-0.2-0.3c-0.1-0.1-0.2-0.1-0.3-0.2
			c-0.2-0.1-0.5-0.1-0.7,0c-0.1,0-0.2,0.1-0.3,0.2c-0.1,0.1-0.1,0.2-0.2,0.3c0,0.1-0.1,0.2-0.1,0.3h1.8
			C40.8,140.9,40.8,140.8,40.7,140.7L40.7,140.7z"/>
		<path class="st9" d="M42.3,139.8v0.5l0,0c0.2-0.4,0.6-0.6,1-0.6c0.2,0,0.4,0,0.5,0.1c0.1,0.1,0.2,0.1,0.3,0.2
			c0.1,0.1,0.1,0.2,0.2,0.4c0,0.2,0.1,0.3,0,0.5v2h-0.5v-2.1c0-0.2,0-0.3-0.2-0.4c-0.1-0.1-0.3-0.2-0.5-0.2c-0.1,0-0.3,0-0.4,0.1
			c-0.1,0-0.2,0.1-0.3,0.2c-0.1,0.1-0.1,0.2-0.2,0.3c0,0.1-0.1,0.3,0,0.4v1.8h-0.5v-3.1L42.3,139.8z"/>
		<path class="st9" d="M46.5,139.8v0.4h-0.6v1.9c0,0,0,0.1,0,0.1c0,0,0,0.1,0.1,0.1c0,0,0.1,0,0.1,0h0.4v0.4h-0.4h-0.3
			c-0.1,0-0.2-0.1-0.2-0.1c-0.1-0.1-0.1-0.1-0.1-0.2c0-0.1,0-0.2,0-0.3v-2h-0.5v-0.4h0.5v-0.9h0.5v0.9L46.5,139.8z"/>
		<path class="st9" d="M49.2,143.4c-0.1-0.2-0.2-0.4-0.3-0.7c-0.1-0.2-0.1-0.5-0.2-0.7c0-0.3-0.1-0.5-0.1-0.8c0-0.5,0.1-1,0.2-1.4
			c0.2-0.5,0.4-0.9,0.7-1.3H50c-0.3,0.4-0.5,0.9-0.6,1.4c-0.1,0.5-0.2,0.9-0.2,1.4c0,0.5,0.1,1,0.2,1.4c0.1,0.5,0.3,0.9,0.6,1.3
			h-0.4C49.5,143.8,49.3,143.6,49.2,143.4z"/>
		<path class="st9" d="M50.5,139.4c0-0.1,0.1-0.3,0.2-0.4c0.1-0.1,0.2-0.2,0.3-0.3c0.1-0.1,0.3-0.1,0.5-0.1c0.2,0,0.3,0,0.5,0.1
			c0.1,0.1,0.2,0.2,0.3,0.3c0.1,0.1,0.1,0.2,0.2,0.4c0,0.2,0,0.3,0,0.5c0,0.1,0,0.3,0,0.4c0,0.1-0.1,0.3-0.2,0.4
			c-0.1,0.1-0.2,0.2-0.3,0.3c-0.1,0.1-0.3,0.1-0.5,0.1c-0.2,0-0.3,0-0.5-0.1c-0.1-0.1-0.2-0.1-0.3-0.2c-0.1-0.1-0.1-0.2-0.2-0.4
			c0-0.2,0-0.3,0-0.5C50.5,139.7,50.5,139.5,50.5,139.4z M50.9,140.1c0,0.1,0,0.2,0.1,0.3c0,0.1,0.1,0.2,0.2,0.2
			c0.1,0.1,0.2,0.1,0.3,0.1c0.1,0,0.2,0,0.3-0.1c0.1-0.1,0.1-0.1,0.2-0.2c0-0.1,0.1-0.2,0.1-0.3c0-0.1,0-0.2,0-0.3
			c0-0.1,0-0.2,0-0.3c0-0.1,0-0.2-0.1-0.3c0-0.1-0.1-0.2-0.2-0.2c-0.1-0.1-0.2-0.1-0.3-0.1c-0.1,0-0.2,0-0.3,0.1
			c-0.1,0.1-0.1,0.1-0.2,0.2c0,0.1-0.1,0.2-0.1,0.3c0,0.1,0,0.2,0,0.3S50.9,140,50.9,140.1z M54.8,138.5l-3.2,4.5h-0.5l3.2-4.5
			L54.8,138.5z M53.5,141.3c0-0.1,0.1-0.3,0.2-0.4c0.1-0.1,0.2-0.2,0.3-0.3c0.1-0.1,0.3-0.1,0.5-0.1c0.2,0,0.3,0,0.5,0.1
			c0.1,0.1,0.2,0.2,0.3,0.3c0.1,0.1,0.1,0.2,0.2,0.4c0,0.2,0,0.3,0,0.5c0,0.1,0,0.3,0,0.4c0,0.1-0.1,0.3-0.2,0.4
			c-0.1,0.1-0.2,0.2-0.3,0.3c-0.1,0.1-0.3,0.1-0.4,0.1c-0.2,0-0.3,0-0.5-0.1c-0.1-0.1-0.2-0.2-0.3-0.3c-0.1-0.1-0.1-0.2-0.2-0.4
			c0-0.1-0.1-0.3-0.1-0.5C53.4,141.6,53.4,141.4,53.5,141.3z M53.9,142c0,0.1,0,0.2,0.1,0.3c0,0.1,0.1,0.2,0.2,0.2
			c0.1,0.1,0.2,0.1,0.3,0.1c0.1,0,0.2,0,0.3-0.1c0.1-0.1,0.1-0.1,0.2-0.2c0-0.1,0.1-0.2,0.1-0.3c0-0.1,0-0.2,0-0.3s0-0.2,0-0.3
			c0-0.1,0-0.2-0.1-0.3c0-0.1-0.1-0.2-0.2-0.2c-0.1-0.1-0.2-0.1-0.3-0.1c-0.1,0-0.2,0-0.3,0.1c-0.1,0.1-0.1,0.1-0.2,0.2
			c0,0.1-0.1,0.2-0.1,0.3c0,0.1,0,0.2,0,0.3S53.9,141.9,53.9,142L53.9,142z"/>
		<path class="st9" d="M56.5,142.7c0.1-0.5,0.2-0.9,0.2-1.4c0-0.5-0.1-1-0.2-1.4c-0.1-0.5-0.3-0.9-0.6-1.4h0.4
			c0.1,0.2,0.3,0.4,0.4,0.7s0.2,0.4,0.3,0.7c0.1,0.2,0.1,0.5,0.2,0.7c0,0.2,0.1,0.5,0.1,0.8c0,0.5-0.1,1-0.2,1.4
			c-0.2,0.5-0.4,0.9-0.7,1.3h-0.4C56.1,143.6,56.3,143.2,56.5,142.7z"/>
		<path class="st13" d="M3.6,162.8c-2,0-3.6,1.6-3.6,3.6c0,2,1.6,3.6,3.6,3.6c2,0,3.6-1.6,3.6-3.6S5.5,162.8,3.6,162.8
			C3.6,162.8,3.6,162.8,3.6,162.8"/>
		<g class="st0">
			<path class="st9" d="M10.6,167.9v-4.3h0.6l2.3,3.4v-3.4H14v4.3h-0.6l-2.3-3.4v3.4H10.6z"/>
			<path class="st9" d="M14.7,166.3c0-0.6,0.2-1,0.5-1.3c0.3-0.2,0.6-0.3,1-0.3c0.4,0,0.8,0.1,1,0.4c0.3,0.3,0.4,0.7,0.4,1.2
				c0,0.4-0.1,0.7-0.2,0.9s-0.3,0.4-0.5,0.5s-0.5,0.2-0.8,0.2c-0.4,0-0.8-0.1-1.1-0.4S14.7,166.9,14.7,166.3z M15.2,166.3
				c0,0.4,0.1,0.7,0.3,0.9s0.4,0.3,0.7,0.3c0.3,0,0.5-0.1,0.7-0.3s0.3-0.5,0.3-0.9c0-0.4-0.1-0.7-0.3-0.9s-0.4-0.3-0.7-0.3
				c-0.3,0-0.5,0.1-0.7,0.3S15.2,165.9,15.2,166.3z"/>
			<path class="st9" d="M19.4,167.4l0.1,0.5c-0.1,0-0.3,0-0.4,0c-0.2,0-0.3,0-0.4-0.1s-0.2-0.1-0.2-0.2c0-0.1-0.1-0.3-0.1-0.6v-1.8
				h-0.4v-0.4h0.4V164l0.5-0.3v1.1h0.5v0.4h-0.5v1.8c0,0.2,0,0.2,0,0.3s0,0.1,0.1,0.1s0.1,0,0.2,0C19.2,167.4,19.3,167.4,19.4,167.4
				z"/>
			<path class="st9" d="M21.5,167.9v-3.1H22v0.5c0.1-0.2,0.2-0.4,0.3-0.4s0.2-0.1,0.3-0.1c0.2,0,0.4,0.1,0.5,0.2l-0.2,0.5
				c-0.1-0.1-0.3-0.1-0.4-0.1c-0.1,0-0.2,0-0.3,0.1c-0.1,0.1-0.2,0.2-0.2,0.3c-0.1,0.2-0.1,0.4-0.1,0.6v1.6H21.5z"/>
			<path class="st9" d="M25.7,166.9l0.5,0.1c-0.1,0.3-0.2,0.6-0.5,0.7s-0.5,0.3-0.9,0.3c-0.5,0-0.8-0.1-1.1-0.4s-0.4-0.7-0.4-1.2
				c0-0.5,0.1-0.9,0.4-1.2s0.6-0.4,1-0.4c0.4,0,0.8,0.1,1,0.4s0.4,0.7,0.4,1.2c0,0,0,0.1,0,0.1h-2.3c0,0.3,0.1,0.6,0.3,0.8
				s0.4,0.3,0.7,0.3c0.2,0,0.4-0.1,0.5-0.2S25.6,167.1,25.7,166.9z M23.9,166h1.7c0-0.3-0.1-0.5-0.2-0.6c-0.2-0.2-0.4-0.3-0.7-0.3
				c-0.2,0-0.4,0.1-0.6,0.2S24,165.8,23.9,166z"/>
			<path class="st9" d="M26.9,167.9v-4.3h0.5v4.3H26.9z"/>
			<path class="st9" d="M28.2,164.2v-0.6h0.5v0.6H28.2z M28.2,167.9v-3.1h0.5v3.1H28.2z"/>
			<path class="st9" d="M29.4,168.1l0.5,0.1c0,0.2,0.1,0.3,0.2,0.3c0.1,0.1,0.3,0.1,0.5,0.1c0.2,0,0.4,0,0.6-0.1s0.2-0.2,0.3-0.4
				c0-0.1,0-0.3,0-0.7c-0.2,0.3-0.5,0.4-0.9,0.4c-0.4,0-0.8-0.2-1-0.5s-0.4-0.7-0.4-1.1c0-0.3,0.1-0.6,0.2-0.8s0.3-0.4,0.5-0.6
				s0.4-0.2,0.7-0.2c0.4,0,0.7,0.1,0.9,0.4v-0.4h0.5v2.7c0,0.5,0,0.8-0.1,1c-0.1,0.2-0.3,0.4-0.5,0.5s-0.5,0.2-0.8,0.2
				c-0.4,0-0.7-0.1-0.9-0.3C29.5,168.7,29.4,168.5,29.4,168.1z M29.9,166.3c0,0.4,0.1,0.7,0.2,0.9s0.4,0.3,0.6,0.3
				c0.2,0,0.4-0.1,0.6-0.3c0.2-0.2,0.2-0.5,0.2-0.9c0-0.4-0.1-0.7-0.3-0.9s-0.4-0.3-0.6-0.3c-0.2,0-0.4,0.1-0.6,0.3
				C30,165.6,29.9,165.9,29.9,166.3z"/>
			<path class="st9" d="M32.9,164.2v-0.6h0.5v0.6H32.9z M32.9,167.9v-3.1h0.5v3.1H32.9z"/>
			<path class="st9" d="M34,166.3c0-0.6,0.2-1,0.5-1.3c0.3-0.2,0.6-0.3,1-0.3c0.4,0,0.8,0.1,1,0.4c0.3,0.3,0.4,0.7,0.4,1.2
				c0,0.4-0.1,0.7-0.2,0.9s-0.3,0.4-0.5,0.5s-0.5,0.2-0.8,0.2c-0.4,0-0.8-0.1-1.1-0.4S34,166.9,34,166.3z M34.6,166.3
				c0,0.4,0.1,0.7,0.3,0.9s0.4,0.3,0.7,0.3c0.3,0,0.5-0.1,0.7-0.3s0.3-0.5,0.3-0.9c0-0.4-0.1-0.7-0.3-0.9s-0.4-0.3-0.7-0.3
				c-0.3,0-0.5,0.1-0.7,0.3S34.6,165.9,34.6,166.3z"/>
			<path class="st9" d="M39.6,167.9v-0.5c-0.2,0.4-0.6,0.5-1,0.5c-0.2,0-0.4,0-0.5-0.1s-0.3-0.2-0.4-0.3c-0.1-0.1-0.1-0.2-0.2-0.4
				c0-0.1,0-0.3,0-0.5v-1.9h0.5v1.7c0,0.3,0,0.5,0,0.6c0,0.1,0.1,0.2,0.2,0.3c0.1,0.1,0.2,0.1,0.4,0.1s0.3,0,0.4-0.1
				c0.1-0.1,0.2-0.2,0.3-0.3s0.1-0.3,0.1-0.6v-1.7h0.5v3.1H39.6z"/>
			<path class="st9" d="M40.7,167l0.5-0.1c0,0.2,0.1,0.4,0.2,0.5s0.3,0.2,0.6,0.2c0.2,0,0.4,0,0.5-0.1c0.1-0.1,0.2-0.2,0.2-0.3
				c0-0.1-0.1-0.2-0.2-0.3c-0.1,0-0.3-0.1-0.5-0.2c-0.4-0.1-0.7-0.2-0.8-0.3c-0.1-0.1-0.3-0.2-0.3-0.3c-0.1-0.1-0.1-0.3-0.1-0.4
				c0-0.1,0-0.3,0.1-0.4s0.1-0.2,0.3-0.3c0.1-0.1,0.2-0.1,0.3-0.2c0.1,0,0.3-0.1,0.5-0.1c0.2,0,0.5,0,0.6,0.1s0.3,0.2,0.4,0.3
				c0.1,0.1,0.1,0.3,0.2,0.5l-0.5,0.1c0-0.2-0.1-0.3-0.2-0.4s-0.3-0.1-0.5-0.1c-0.2,0-0.4,0-0.5,0.1s-0.2,0.2-0.2,0.3
				c0,0.1,0,0.1,0.1,0.2c0,0.1,0.1,0.1,0.2,0.1c0.1,0,0.2,0.1,0.5,0.1c0.4,0.1,0.6,0.2,0.8,0.2c0.1,0.1,0.3,0.2,0.3,0.3
				s0.1,0.3,0.1,0.5c0,0.2-0.1,0.3-0.2,0.5c-0.1,0.2-0.3,0.3-0.4,0.4c-0.2,0.1-0.4,0.1-0.7,0.1c-0.4,0-0.7-0.1-0.9-0.3
				S40.7,167.3,40.7,167z"/>
			<path class="st9" d="M44,167.9v-0.6h0.6v0.6c0,0.2,0,0.4-0.1,0.5c-0.1,0.1-0.2,0.2-0.4,0.3l-0.1-0.2c0.1,0,0.2-0.1,0.2-0.2
				s0.1-0.2,0.1-0.4H44z"/>
			<path class="st9" d="M47.2,167.9v-4.3h0.5v1.5c0.2-0.3,0.6-0.4,0.9-0.4c0.2,0,0.4,0,0.6,0.1c0.2,0.1,0.3,0.2,0.4,0.4
				s0.1,0.4,0.1,0.7v2h-0.5v-2c0-0.3-0.1-0.5-0.2-0.6c-0.1-0.1-0.3-0.2-0.5-0.2c-0.2,0-0.3,0-0.4,0.1s-0.2,0.2-0.3,0.3
				s-0.1,0.3-0.1,0.6v1.7H47.2z"/>
			<path class="st9" d="M50.6,164.2v-0.6h0.5v0.6H50.6z M50.6,167.9v-3.1h0.5v3.1H50.6z"/>
			<path class="st9" d="M51.8,168.1l0.5,0.1c0,0.2,0.1,0.3,0.2,0.3c0.1,0.1,0.3,0.1,0.5,0.1c0.2,0,0.4,0,0.6-0.1s0.2-0.2,0.3-0.4
				c0-0.1,0-0.3,0-0.7c-0.2,0.3-0.5,0.4-0.9,0.4c-0.4,0-0.8-0.2-1-0.5s-0.4-0.7-0.4-1.1c0-0.3,0.1-0.6,0.2-0.8s0.3-0.4,0.5-0.6
				s0.4-0.2,0.7-0.2c0.4,0,0.7,0.1,0.9,0.4v-0.4h0.5v2.7c0,0.5,0,0.8-0.1,1c-0.1,0.2-0.3,0.4-0.5,0.5s-0.5,0.2-0.8,0.2
				c-0.4,0-0.7-0.1-0.9-0.3C51.9,168.7,51.8,168.5,51.8,168.1z M52.2,166.3c0,0.4,0.1,0.7,0.2,0.9s0.4,0.3,0.6,0.3
				c0.2,0,0.4-0.1,0.6-0.3c0.2-0.2,0.2-0.5,0.2-0.9c0-0.4-0.1-0.7-0.3-0.9s-0.4-0.3-0.6-0.3c-0.2,0-0.4,0.1-0.6,0.3
				C52.3,165.6,52.2,165.9,52.2,166.3z"/>
			<path class="st9" d="M55.2,167.9v-4.3h0.5v1.5c0.2-0.3,0.6-0.4,0.9-0.4c0.2,0,0.4,0,0.6,0.1c0.2,0.1,0.3,0.2,0.4,0.4
				s0.1,0.4,0.1,0.7v2h-0.5v-2c0-0.3-0.1-0.5-0.2-0.6c-0.1-0.1-0.3-0.2-0.5-0.2c-0.2,0-0.3,0-0.4,0.1s-0.2,0.2-0.3,0.3
				s-0.1,0.3-0.1,0.6v1.7H55.2z"/>
			<path class="st9" d="M61.4,167.4l0.1,0.5c-0.1,0-0.3,0-0.4,0c-0.2,0-0.3,0-0.4-0.1s-0.2-0.1-0.2-0.2c0-0.1-0.1-0.3-0.1-0.6v-1.8
				h-0.4v-0.4h0.4V164l0.5-0.3v1.1h0.5v0.4h-0.5v1.8c0,0.2,0,0.2,0,0.3s0,0.1,0.1,0.1s0.1,0,0.2,0C61.2,167.4,61.3,167.4,61.4,167.4
				z"/>
			<path class="st9" d="M61.9,167.9v-3.1h0.5v0.5c0.1-0.2,0.2-0.4,0.3-0.4s0.2-0.1,0.3-0.1c0.2,0,0.4,0.1,0.5,0.2l-0.2,0.5
				c-0.1-0.1-0.3-0.1-0.4-0.1c-0.1,0-0.2,0-0.3,0.1c-0.1,0.1-0.2,0.2-0.2,0.3c-0.1,0.2-0.1,0.4-0.1,0.6v1.6H61.9z"/>
			<path class="st9" d="M65.9,167.9v-0.5c-0.2,0.4-0.6,0.5-1,0.5c-0.2,0-0.4,0-0.5-0.1s-0.3-0.2-0.4-0.3c-0.1-0.1-0.1-0.2-0.2-0.4
				c0-0.1,0-0.3,0-0.5v-1.9h0.5v1.7c0,0.3,0,0.5,0,0.6c0,0.1,0.1,0.2,0.2,0.3c0.1,0.1,0.2,0.1,0.4,0.1s0.3,0,0.4-0.1
				c0.1-0.1,0.2-0.2,0.3-0.3s0.1-0.3,0.1-0.6v-1.7h0.5v3.1H65.9z"/>
			<path class="st9" d="M67,167l0.5-0.1c0,0.2,0.1,0.4,0.2,0.5s0.3,0.2,0.6,0.2c0.2,0,0.4,0,0.5-0.1c0.1-0.1,0.2-0.2,0.2-0.3
				c0-0.1-0.1-0.2-0.2-0.3c-0.1,0-0.3-0.1-0.5-0.2c-0.4-0.1-0.7-0.2-0.8-0.3c-0.1-0.1-0.3-0.2-0.3-0.3c-0.1-0.1-0.1-0.3-0.1-0.4
				c0-0.1,0-0.3,0.1-0.4s0.1-0.2,0.3-0.3c0.1-0.1,0.2-0.1,0.3-0.2c0.1,0,0.3-0.1,0.5-0.1c0.2,0,0.5,0,0.6,0.1s0.3,0.2,0.4,0.3
				c0.1,0.1,0.1,0.3,0.2,0.5l-0.5,0.1c0-0.2-0.1-0.3-0.2-0.4s-0.3-0.1-0.5-0.1c-0.2,0-0.4,0-0.5,0.1s-0.2,0.2-0.2,0.3
				c0,0.1,0,0.1,0.1,0.2c0,0.1,0.1,0.1,0.2,0.1c0.1,0,0.2,0.1,0.5,0.1c0.4,0.1,0.6,0.2,0.8,0.2c0.1,0.1,0.3,0.2,0.3,0.3
				s0.1,0.3,0.1,0.5c0,0.2-0.1,0.3-0.2,0.5c-0.1,0.2-0.3,0.3-0.4,0.4c-0.2,0.1-0.4,0.1-0.7,0.1c-0.4,0-0.7-0.1-0.9-0.3
				S67.1,167.3,67,167z"/>
			<path class="st9" d="M71.4,167.4l0.1,0.5c-0.1,0-0.3,0-0.4,0c-0.2,0-0.3,0-0.4-0.1s-0.2-0.1-0.2-0.2c0-0.1-0.1-0.3-0.1-0.6v-1.8
				h-0.4v-0.4h0.4V164l0.5-0.3v1.1h0.5v0.4h-0.5v1.8c0,0.2,0,0.2,0,0.3s0,0.1,0.1,0.1s0.1,0,0.2,0C71.2,167.4,71.3,167.4,71.4,167.4
				z"/>
			<path class="st9" d="M73.6,164.2v-0.6h0.5v0.6H73.6z M73.6,167.9v-3.1h0.5v3.1H73.6z"/>
			<path class="st9" d="M74.9,167.9v-3.1h0.5v0.4c0.2-0.3,0.6-0.5,1-0.5c0.2,0,0.4,0,0.5,0.1c0.2,0.1,0.3,0.2,0.4,0.3
				s0.1,0.2,0.2,0.4c0,0.1,0,0.3,0,0.5v1.9h-0.5V166c0-0.2,0-0.4-0.1-0.5c0-0.1-0.1-0.2-0.2-0.3s-0.2-0.1-0.4-0.1
				c-0.2,0-0.4,0.1-0.6,0.2s-0.2,0.4-0.2,0.8v1.7H74.9z"/>
			<path class="st9" d="M79.7,167l0.5-0.1c0,0.2,0.1,0.4,0.2,0.5s0.3,0.2,0.6,0.2c0.2,0,0.4,0,0.5-0.1c0.1-0.1,0.2-0.2,0.2-0.3
				c0-0.1-0.1-0.2-0.2-0.3c-0.1,0-0.3-0.1-0.5-0.2c-0.4-0.1-0.7-0.2-0.8-0.3c-0.1-0.1-0.3-0.2-0.3-0.3c-0.1-0.1-0.1-0.3-0.1-0.4
				c0-0.1,0-0.3,0.1-0.4s0.1-0.2,0.3-0.3c0.1-0.1,0.2-0.1,0.3-0.2c0.1,0,0.3-0.1,0.5-0.1c0.2,0,0.5,0,0.6,0.1s0.3,0.2,0.4,0.3
				c0.1,0.1,0.1,0.3,0.2,0.5l-0.5,0.1c0-0.2-0.1-0.3-0.2-0.4s-0.3-0.1-0.5-0.1c-0.2,0-0.4,0-0.5,0.1s-0.2,0.2-0.2,0.3
				c0,0.1,0,0.1,0.1,0.2c0,0.1,0.1,0.1,0.2,0.1c0.1,0,0.2,0.1,0.5,0.1c0.4,0.1,0.6,0.2,0.8,0.2c0.1,0.1,0.3,0.2,0.3,0.3
				s0.1,0.3,0.1,0.5c0,0.2-0.1,0.3-0.2,0.5c-0.1,0.2-0.3,0.3-0.4,0.4c-0.2,0.1-0.4,0.1-0.7,0.1c-0.4,0-0.7-0.1-0.9-0.3
				S79.7,167.3,79.7,167z"/>
			<path class="st9" d="M84.9,166.8l0.5,0.1c-0.1,0.4-0.2,0.6-0.4,0.8c-0.2,0.2-0.5,0.3-0.9,0.3c-0.4,0-0.8-0.1-1-0.4
				c-0.3-0.3-0.4-0.7-0.4-1.2c0-0.3,0.1-0.6,0.2-0.9s0.3-0.4,0.5-0.6c0.2-0.1,0.5-0.2,0.7-0.2c0.3,0,0.6,0.1,0.8,0.3
				c0.2,0.2,0.4,0.4,0.4,0.7l-0.5,0.1c0-0.2-0.1-0.4-0.3-0.5s-0.3-0.2-0.5-0.2c-0.3,0-0.5,0.1-0.6,0.3c-0.2,0.2-0.2,0.5-0.2,0.9
				c0,0.4,0.1,0.7,0.2,0.9s0.4,0.3,0.6,0.3c0.2,0,0.4-0.1,0.5-0.2S84.9,167,84.9,166.8z"/>
			<path class="st9" d="M85.9,164.2v-0.6h0.5v0.6H85.9z M85.9,167.9v-3.1h0.5v3.1H85.9z"/>
			<path class="st9" d="M89.4,166.9l0.5,0.1c-0.1,0.3-0.2,0.6-0.5,0.7s-0.5,0.3-0.9,0.3c-0.5,0-0.8-0.1-1.1-0.4s-0.4-0.7-0.4-1.2
				c0-0.5,0.1-0.9,0.4-1.2s0.6-0.4,1-0.4c0.4,0,0.8,0.1,1,0.4s0.4,0.7,0.4,1.2c0,0,0,0.1,0,0.1h-2.3c0,0.3,0.1,0.6,0.3,0.8
				s0.4,0.3,0.7,0.3c0.2,0,0.4-0.1,0.5-0.2S89.3,167.1,89.4,166.9z M87.6,166h1.7c0-0.3-0.1-0.5-0.2-0.6c-0.2-0.2-0.4-0.3-0.7-0.3
				c-0.2,0-0.4,0.1-0.6,0.2S87.7,165.8,87.6,166z"/>
			<path class="st9" d="M90.6,167.9v-3.1H91v0.4c0.2-0.3,0.6-0.5,1-0.5c0.2,0,0.4,0,0.5,0.1c0.2,0.1,0.3,0.2,0.4,0.3
				s0.1,0.2,0.2,0.4c0,0.1,0,0.3,0,0.5v1.9h-0.5V166c0-0.2,0-0.4-0.1-0.5c0-0.1-0.1-0.2-0.2-0.3s-0.2-0.1-0.4-0.1
				c-0.2,0-0.4,0.1-0.6,0.2s-0.2,0.4-0.2,0.8v1.7H90.6z"/>
			<path class="st9" d="M95.9,166.8l0.5,0.1c-0.1,0.4-0.2,0.6-0.4,0.8c-0.2,0.2-0.5,0.3-0.9,0.3c-0.4,0-0.8-0.1-1-0.4
				c-0.3-0.3-0.4-0.7-0.4-1.2c0-0.3,0.1-0.6,0.2-0.9s0.3-0.4,0.5-0.6c0.2-0.1,0.5-0.2,0.7-0.2c0.3,0,0.6,0.1,0.8,0.3
				c0.2,0.2,0.4,0.4,0.4,0.7l-0.5,0.1c0-0.2-0.1-0.4-0.3-0.5s-0.3-0.2-0.5-0.2c-0.3,0-0.5,0.1-0.6,0.3c-0.2,0.2-0.2,0.5-0.2,0.9
				c0,0.4,0.1,0.7,0.2,0.9s0.4,0.3,0.6,0.3c0.2,0,0.4-0.1,0.5-0.2S95.9,167,95.9,166.8z"/>
			<path class="st9" d="M99,166.9l0.5,0.1c-0.1,0.3-0.2,0.6-0.5,0.7s-0.5,0.3-0.9,0.3c-0.5,0-0.8-0.1-1.1-0.4s-0.4-0.7-0.4-1.2
				c0-0.5,0.1-0.9,0.4-1.2s0.6-0.4,1-0.4c0.4,0,0.8,0.1,1,0.4s0.4,0.7,0.4,1.2c0,0,0,0.1,0,0.1h-2.3c0,0.3,0.1,0.6,0.3,0.8
				s0.4,0.3,0.7,0.3c0.2,0,0.4-0.1,0.5-0.2S99,167.1,99,166.9z M97.3,166H99c0-0.3-0.1-0.5-0.2-0.6c-0.2-0.2-0.4-0.3-0.7-0.3
				c-0.2,0-0.4,0.1-0.6,0.2S97.3,165.8,97.3,166z"/>
			<path class="st9" d="M102.9,169.2c-0.3-0.4-0.5-0.8-0.7-1.3s-0.3-1-0.3-1.5c0-0.5,0.1-0.9,0.2-1.3c0.2-0.5,0.4-1,0.8-1.5h0.4
				c-0.2,0.4-0.4,0.7-0.5,0.9c-0.1,0.3-0.2,0.6-0.3,0.8c-0.1,0.4-0.1,0.7-0.1,1.1c0,0.9,0.3,1.9,0.9,2.8H102.9z"/>
			<path class="st9" d="M103.9,164.6c0-0.3,0.1-0.6,0.2-0.8s0.4-0.3,0.7-0.3c0.3,0,0.5,0.1,0.7,0.3c0.2,0.2,0.3,0.5,0.3,0.8
				c0,0.4-0.1,0.6-0.3,0.8c-0.2,0.2-0.4,0.3-0.7,0.3c-0.3,0-0.5-0.1-0.6-0.3S103.9,165,103.9,164.6z M104.8,163.9
				c-0.1,0-0.2,0.1-0.3,0.2s-0.1,0.3-0.1,0.6c0,0.3,0,0.5,0.1,0.6s0.2,0.2,0.3,0.2c0.1,0,0.2-0.1,0.3-0.2s0.1-0.3,0.1-0.6
				c0-0.3,0-0.5-0.1-0.6S104.9,163.9,104.8,163.9z M104.8,168l2.3-4.5h0.4l-2.3,4.5H104.8z M106.6,166.9c0-0.3,0.1-0.6,0.2-0.8
				c0.2-0.2,0.4-0.3,0.7-0.3c0.3,0,0.5,0.1,0.7,0.3c0.2,0.2,0.3,0.5,0.3,0.8c0,0.4-0.1,0.6-0.3,0.8c-0.2,0.2-0.4,0.3-0.7,0.3
				c-0.3,0-0.5-0.1-0.6-0.3C106.7,167.6,106.6,167.3,106.6,166.9z M107.6,166.1c-0.1,0-0.2,0.1-0.3,0.2s-0.1,0.3-0.1,0.6
				c0,0.3,0,0.5,0.1,0.6s0.2,0.2,0.3,0.2c0.1,0,0.2-0.1,0.3-0.2s0.1-0.3,0.1-0.6c0-0.3,0-0.5-0.1-0.6S107.7,166.1,107.6,166.1z"/>
			<path class="st9" d="M109.6,169.2h-0.4c0.6-0.9,0.9-1.9,0.9-2.8c0-0.4,0-0.7-0.1-1.1c-0.1-0.3-0.2-0.6-0.3-0.8
				c-0.1-0.2-0.2-0.5-0.5-0.9h0.4c0.4,0.5,0.6,1,0.8,1.5c0.2,0.4,0.2,0.9,0.2,1.3c0,0.5-0.1,1-0.3,1.5S109.9,168.8,109.6,169.2z"/>
		</g>
		<polyline class="st14" points="67.3,208.1 73.5,218.2 80.6,207.7 		"/>
		<circle class="st12" cx="73.4" cy="218.1" r="2.9"/>
		<path class="st14" d="M80.5,201.3c3.5,0,6.4,2.8,6.4,6.3c0,3.5-2.8,6.4-6.3,6.4c-3.5,0-6.4-2.8-6.4-6.3c0,0,0,0,0,0l0,0
			C74.2,204.2,77,201.3,80.5,201.3L80.5,201.3"/>
		<path class="st14" d="M67.4,205c1.7,0,3.1,1.4,3.1,3.1c0,1.7-1.4,3.1-3.1,3.1c-1.7,0-3.1-1.4-3.1-3.1l0,0
			C64.3,206.4,65.7,205,67.4,205C67.4,205,67.4,205,67.4,205"/>
		<polyline class="st14" points="67.8,188.4 73.2,190 81.2,188 		"/>
		<circle class="st12" cx="73.2" cy="190" r="0.8"/>
		<path class="st14" d="M81,181.6c3.5,0,6.4,2.8,6.4,6.3c0,3.5-2.8,6.4-6.3,6.4c-3.5,0-6.4-2.8-6.4-6.3l0,0
			C74.7,184.5,77.5,181.6,81,181.6C81,181.6,81,181.6,81,181.6L81,181.6"/>
		<path class="st14" d="M68,185.3c1.7,0,3.1,1.4,3.1,3.1c0,1.7-1.4,3.1-3.1,3.1s-3.1-1.4-3.1-3.1c0,0,0,0,0,0l0,0
			C64.9,186.7,66.3,185.3,68,185.3C68,185.3,68,185.3,68,185.3"/>
		<path class="st10" d="M3.6,118.2c-2,0-3.6,1.6-3.6,3.6s1.6,3.6,3.6,3.6s3.6-1.6,3.6-3.6l0,0C7.1,119.8,5.5,118.2,3.6,118.2"/>
	</g>
</g>
</svg>
