<?xml version="1.0" encoding="UTF-8" standalone="no"?>
<svg
   xmlns:dc="http://purl.org/dc/elements/1.1/"
   xmlns:cc="http://creativecommons.org/ns#"
   xmlns:rdf="http://www.w3.org/1999/02/22-rdf-syntax-ns#"
   xmlns:svg="http://www.w3.org/2000/svg"
   xmlns="http://www.w3.org/2000/svg"
   xmlns:sodipodi="http://sodipodi.sourceforge.net/DTD/sodipodi-0.dtd"
   xmlns:inkscape="http://www.inkscape.org/namespaces/inkscape"
   viewBox="0 0 226.77 226.77"
   version="1.1"
   id="svg96"
   sodipodi:docname="Icon_societal-01.svg"
   inkscape:version="0.92.2 5c3e80d, 2017-08-06">
  <metadata
     id="metadata102">
    <rdf:RDF>
      <cc:Work
         rdf:about="">
        <dc:format>image/svg+xml</dc:format>
        <dc:type
           rdf:resource="http://purl.org/dc/dcmitype/StillImage" />
      </cc:Work>
    </rdf:RDF>
  </metadata>
  <defs
     id="defs100" />
  <sodipodi:namedview
     pagecolor="#ffffff"
     bordercolor="#666666"
     borderopacity="1"
     objecttolerance="10"
     gridtolerance="10"
     guidetolerance="10"
     inkscape:pageopacity="0"
     inkscape:pageshadow="2"
     inkscape:window-width="725"
     inkscape:window-height="480"
     id="namedview98"
     showgrid="false"
     inkscape:zoom="1.040702"
     inkscape:cx="113.385"
     inkscape:cy="113.385"
     inkscape:window-x="0"
     inkscape:window-y="0"
     inkscape:window-maximized="0"
     inkscape:current-layer="svg96" />
  <circle
     cx="90.63"
     cy="95.3"
     r="7.04"
     style="fill:#cd3433"
     id="circle2" />
  <circle
     cx="76.3"
     cy="21.14"
     r="10.17"
     style="fill:#d1ab39"
     id="circle4" />
  <circle
     cx="125.55"
     cy="59.66"
     r="11.27"
     style="fill:#1b3d76"
     id="circle6" />
  <circle
     cx="47.18"
     cy="115.83"
     r="7.11"
     style="fill:#28a78a"
     id="circle8" />
  <circle
     cx="22.34"
     cy="58.69"
     r="10.23"
     style="fill:#f0810d"
     id="circle10" />
  <path
     d="M71.23,74.74,22.3,59M72.9,80.8,47.6,115.11M79,79.93l7.44,9.6M80.76,74.74,126,59.13M76.42,70.4,76,20.64"
     style="fill:none;stroke:#401b13;stroke-linecap:round;stroke-width:0.9726841008113922px"
     id="path12" />
  <path
     d="m 86.76,74.67 a 10.4,10.4 0 1 0 0,0.07 v 0"
     style="fill:#1f9cd8"
     id="path14"
     inkscape:connector-curvature="0" />
  <text
     transform="translate(19.71 143.94)"
     style="font-size:10px;fill:#3e1b14;font-family:HelveticaNeue, Helvetica Neue"
     id="text44">The bigger the blue <tspan
   x="0"
   y="12"
   id="tspan16">ci</tspan>
<tspan
   x="7.59"
   y="12"
   style="letter-spacing:-0.01796875em"
   id="tspan18">r</tspan>
<tspan
   x="10.74"
   y="12"
   id="tspan20">cle and thicker the </tspan>
<tspan
   x="0"
   y="24"
   id="tspan22">lines the g</tspan>
<tspan
   x="45.75"
   y="24"
   style="letter-spacing:-0.01796875em"
   id="tspan24">r</tspan>
<tspan
   x="48.9"
   y="24"
   id="tspan26">eater the </tspan>
<tspan
   x="0"
   y="36"
   id="tspan28">distrust in scientists. </tspan>
<tspan
   x="0"
   y="48"
   id="tspan30">The longer the lines the </tspan>
<tspan
   x="0"
   y="60"
   id="tspan32">g</tspan>
<tspan
   x="5.74"
   y="60"
   style="letter-spacing:-0.01796875em"
   id="tspan34">r</tspan>
<tspan
   x="8.89"
   y="60"
   id="tspan36">eater the distrust in </tspan>
<tspan
   x="0"
   y="72"
   id="tspan38">that societal g</tspan>
<tspan
   x="62.97"
   y="72"
   style="letter-spacing:-0.01796875em"
   id="tspan40">r</tspan>
<tspan
   x="66.12"
   y="72"
   id="tspan42">oup.</tspan>
</text>
  <path
     d="M165.65,142.64a3.57,3.57,0,1,0,3.57,3.57,3.57,3.57,0,0,0-3.57-3.57"
     style="fill:#d2ab38"
     id="path46" />
  <path
     d="M165.65,158.21a3.57,3.57,0,1,0,3.57,3.57,3.57,3.57,0,0,0-3.57-3.57"
     style="fill:#f0800a"
     id="path48" />
  <path
     d="M165.65,173.77a3.57,3.57,0,1,0,3.57,3.57,3.57,3.57,0,0,0-3.57-3.57"
     style="fill:#ca3638"
     id="path50" />
  <path
     d="M165.65,189.34a3.57,3.57,0,1,0,3.57,3.56,3.56,3.56,0,0,0-3.57-3.56"
     style="fill:#1b3e74"
     id="path52" />
  <path
     d="M165.65,204.9a3.57,3.57,0,1,0,3.57,3.57,3.57,3.57,0,0,0-3.57-3.57"
     style="fill:#2fa68b"
     id="path54" />
  <text
     transform="translate(172.22 147.76)"
     style="font-size:5.369257926940918px;fill:#3e1a13;font-family:HelveticaNeue, Helvetica Neue"
     id="text56">Neighbours</text>
  <text
     transform="translate(172.22 163.32)"
     style="font-size:5.369257926940918px;fill:#3e1a13;font-family:HelveticaNeue, Helvetica Neue"
     id="text58">NGOs</text>
  <text
     transform="translate(172.22 178.89)"
     style="font-size:5.369257926940918px;fill:#3e1a13;font-family:HelveticaNeue, Helvetica Neue"
     id="text60">Journalists</text>
  <text
     transform="translate(172.22 194.45)"
     style="font-size:5.369257926940918px;fill:#3e1a13;font-family:HelveticaNeue, Helvetica Neue"
     id="text62">Government</text>
  <text
     transform="translate(172.22 210.02)"
     style="font-size:5.369257926940918px;fill:#3e1a13;font-family:HelveticaNeue, Helvetica Neue"
     id="text64">Doctors </text>
  <text
     transform="translate(172.22 217)"
     style="font-size:5.369257926940918px;fill:#3e1a13;font-family:HelveticaNeue, Helvetica Neue"
     id="text66">And nurses</text>
  <path
     d="M155.46,22.69a2,2,0,1,0,2,2,2,2,0,0,0-2-2"
     style="fill:#229ed9"
     id="path68" />
  <path
     d="M155.05,37.9a5.42,5.42,0,1,0,5.42,5.42,5.42,5.42,0,0,0-5.42-5.42"
     style="fill:#229ed9"
     id="path70" />
  <text
     transform="translate(163.62 25.97)"
     style="font-size:5.920834541320801px;fill:#3e1a13;font-family:HelveticaNeue, Helvetica Neue"
     id="text74">Low Distrust<tspan
   x="0"
   y="7.11"
   id="tspan72">In Scientists (%)</tspan>
</text>
  <text
     transform="translate(163.21 45.55)"
     style="font-size:5.920834541320801px;fill:#3e1a13;font-family:HelveticaNeue, Helvetica Neue"
     id="text78">High Distrust<tspan
   x="0"
   y="7.11"
   id="tspan76">In Scientists (%)</tspan>
</text>
  <line
     x1="162.2"
     y1="120.63"
     x2="211.79"
     y2="120.63"
     style="fill:none;stroke:#401b13;stroke-linecap:round;stroke-width:1.059999942779541px"
     id="line80" />
  <text
     transform="translate(162.2 127.1)"
     style="font-size:5.369257926940918px;fill:#3e1a13;font-family:HelveticaNeue, Helvetica Neue"
     id="text82">High distrust </text>
  <line
     x1="191.4"
     y1="100.95"
     x2="162.54"
     y2="100.95"
     style="fill:none;stroke:#401b13;stroke-linecap:round;stroke-width:1.059999942779541px"
     id="line84" />
  <text
     transform="translate(162.2 107.67)"
     style="font-size:5.369257926940918px;fill:#3e1a13;font-family:HelveticaNeue, Helvetica Neue"
     id="text86">Medium distrust </text>
  <line
     x1="170.89"
     y1="81.61"
     x2="162.87"
     y2="81.61"
     style="fill:none;stroke:#401b13;stroke-linecap:round;stroke-width:1.059999942779541px"
     id="line88" />
  <text
     transform="translate(162.2 87.99)"
     style="font-size:5.369257926940918px;fill:#3e1a13;font-family:HelveticaNeue, Helvetica Neue"
     id="text92">
    <tspan
       id="tspan90">Low distrust  </tspan>  </text>
  <text
     transform="translate(162.2 74.74)"
     style="font-size:6.062466621398926px;fill:#3e1a13;font-family:HelveticaNeue-Bold, Helvetica Neue;font-weight:700"
     id="text94">SOCIETAL GROUPS </text>
</svg>
