<svg xmlns="http://www.w3.org/2000/svg" viewBox="0 0 190.29 194.38"><defs><style>.cls-1{fill:#3e1a13;}.cls-2{fill:#1b3d73;}.cls-10,.cls-3,.cls-7{fill:none;}.cls-3{stroke:#3e1a13;stroke-width:1.06px;}.cls-3,.cls-7{stroke-miterlimit:10;}.cls-4{fill:#f7b232;}.cls-5{fill:#2aa2dc;}.cls-6{fill:#c46158;}.cls-7{stroke:#f7b232;stroke-width:3px;}.cls-8{fill:#c46057;}.cls-9{fill:#1b3e73;}.cls-10{stroke:#401a12;stroke-linecap:round;stroke-width:0.5px;}</style></defs><g id="Layer_2" data-name="Layer 2"><g id="Layer_1-2" data-name="Layer 1"><line class="cls-1" x1="149.97" y1="118.87" x2="160.01" y2="103.98"/><path class="cls-1" d="M3.05,114.84v-7H.45V107H6.69v.92H4.09v7Z"/><path class="cls-1" d="M7.64,114.84V107h1v2.82a2.16,2.16,0,0,1,1.7-.78,2.24,2.24,0,0,1,1.1.25,1.36,1.36,0,0,1,.67.69,3.06,3.06,0,0,1,.2,1.27v3.62h-1v-3.62a1.48,1.48,0,0,0-.32-1,1.16,1.16,0,0,0-.89-.33,1.53,1.53,0,0,0-.8.22,1.18,1.18,0,0,0-.54.61,2.69,2.69,0,0,0-.16,1v3.12Z"/><path class="cls-1" d="M17.66,113l1,.13a2.42,2.42,0,0,1-.88,1.35,2.57,2.57,0,0,1-1.63.49,2.62,2.62,0,0,1-2-.77,3,3,0,0,1-.74-2.16,3.14,3.14,0,0,1,.75-2.24A2.49,2.49,0,0,1,16.1,109a2.48,2.48,0,0,1,1.87.77,3.12,3.12,0,0,1,.72,2.2v.25H14.43a2.25,2.25,0,0,0,.53,1.44,1.57,1.57,0,0,0,1.2.5,1.49,1.49,0,0,0,.91-.28A1.83,1.83,0,0,0,17.66,113Zm-3.17-1.56h3.18a1.92,1.92,0,0,0-.36-1.08,1.5,1.5,0,0,0-1.2-.56,1.53,1.53,0,0,0-1.12.45A1.74,1.74,0,0,0,14.49,111.44Z"/><path class="cls-1" d="M23.82,114.84h-.9V107h1v2.81a1.9,1.9,0,0,1,1.56-.77,2.39,2.39,0,0,1,1,.21,2,2,0,0,1,.77.6,2.59,2.59,0,0,1,.48.92,4,4,0,0,1,.17,1.16,3.29,3.29,0,0,1-.72,2.27,2.3,2.3,0,0,1-1.74.8,1.81,1.81,0,0,1-1.59-.85Zm0-2.9a3,3,0,0,0,.28,1.49,1.4,1.4,0,0,0,1.24.74,1.38,1.38,0,0,0,1.09-.55,2.47,2.47,0,0,0,.46-1.64,2.54,2.54,0,0,0-.44-1.65,1.36,1.36,0,0,0-1.07-.53,1.4,1.4,0,0,0-1.1.55A2.41,2.41,0,0,0,23.81,111.94Z"/><path class="cls-1" d="M29.05,108.08V107h1v1.11Zm0,6.76v-5.7h1v5.7Z"/><path class="cls-1" d="M31.31,115.31l.94.14a.93.93,0,0,0,.33.64,1.69,1.69,0,0,0,1,.26,1.78,1.78,0,0,0,1-.26,1.32,1.32,0,0,0,.5-.76,6.42,6.42,0,0,0,.07-1.24,2,2,0,0,1-1.58.75,2.13,2.13,0,0,1-1.82-.85,3.25,3.25,0,0,1-.65-2,3.72,3.72,0,0,1,.3-1.5A2.22,2.22,0,0,1,33.59,109a2.05,2.05,0,0,1,1.67.81v-.68h.89v4.93a4.68,4.68,0,0,1-.27,1.88,2,2,0,0,1-.86.88,2.93,2.93,0,0,1-1.45.32,2.71,2.71,0,0,1-1.65-.46A1.55,1.55,0,0,1,31.31,115.31Zm.8-3.42a2.44,2.44,0,0,0,.45,1.63,1.41,1.41,0,0,0,1.12.52,1.46,1.46,0,0,0,1.12-.51,2.42,2.42,0,0,0,.45-1.61,2.33,2.33,0,0,0-.47-1.58,1.41,1.41,0,0,0-1.12-.53,1.38,1.38,0,0,0-1.09.52A2.34,2.34,0,0,0,32.11,111.89Z"/><path class="cls-1" d="M37.43,115.31l.94.14a.93.93,0,0,0,.33.64,1.67,1.67,0,0,0,1,.26,1.79,1.79,0,0,0,1-.26,1.3,1.3,0,0,0,.49-.76,5.67,5.67,0,0,0,.07-1.24,2,2,0,0,1-1.58.75,2.15,2.15,0,0,1-1.82-.85,3.25,3.25,0,0,1-.64-2,3.89,3.89,0,0,1,.29-1.5,2.43,2.43,0,0,1,.86-1.07,2.32,2.32,0,0,1,1.32-.37,2,2,0,0,1,1.66.81v-.68h.9v4.93A4.47,4.47,0,0,1,42,116a2,2,0,0,1-.85.88,3,3,0,0,1-1.45.32,2.71,2.71,0,0,1-1.65-.46A1.55,1.55,0,0,1,37.43,115.31Zm.8-3.42a2.44,2.44,0,0,0,.45,1.63,1.41,1.41,0,0,0,1.12.52,1.42,1.42,0,0,0,1.11-.51,2.42,2.42,0,0,0,.45-1.61,2.33,2.33,0,0,0-.46-1.58,1.41,1.41,0,0,0-1.12-.53,1.4,1.4,0,0,0-1.1.52A2.34,2.34,0,0,0,38.23,111.89Z"/><path class="cls-1" d="M47.63,113l1,.13a2.46,2.46,0,0,1-.87,1.35,3,3,0,0,1-3.62-.28A3,3,0,0,1,43.4,112a3.14,3.14,0,0,1,.75-2.24,2.69,2.69,0,0,1,3.79,0,3.12,3.12,0,0,1,.72,2.2v.25H44.4a2.2,2.2,0,0,0,.54,1.44,1.54,1.54,0,0,0,1.19.5,1.47,1.47,0,0,0,.91-.28A1.83,1.83,0,0,0,47.63,113Zm-3.17-1.56h3.18a1.92,1.92,0,0,0-.36-1.08,1.5,1.5,0,0,0-1.2-.56,1.53,1.53,0,0,0-1.12.45A1.74,1.74,0,0,0,44.46,111.44Z"/><path class="cls-1" d="M49.83,114.84v-5.7h.87V110a2.5,2.5,0,0,1,.62-.8,1.06,1.06,0,0,1,.62-.19,1.82,1.82,0,0,1,1,.31l-.33.89a1.47,1.47,0,0,0-.71-.2.91.91,0,0,0-.57.19,1,1,0,0,0-.36.53,3.61,3.61,0,0,0-.16,1.12v3Z"/><path class="cls-1" d="M58.67,114l.14.86a3.32,3.32,0,0,1-.73.08,1.64,1.64,0,0,1-.81-.16.91.91,0,0,1-.41-.44,3.4,3.4,0,0,1-.12-1.14v-3.28H56v-.75h.71v-1.42l1-.58v2h1v.75h-1v3.33a1.76,1.76,0,0,0,0,.53.39.39,0,0,0,.17.19.62.62,0,0,0,.33.07A2.43,2.43,0,0,0,58.67,114Z"/><path class="cls-1" d="M59.62,114.84V107h1v2.82A2.16,2.16,0,0,1,62.3,109a2.29,2.29,0,0,1,1.1.25,1.45,1.45,0,0,1,.67.69,3.23,3.23,0,0,1,.2,1.27v3.62h-1v-3.62a1.48,1.48,0,0,0-.32-1,1.14,1.14,0,0,0-.88-.33,1.54,1.54,0,0,0-.81.22,1.28,1.28,0,0,0-.54.61,2.69,2.69,0,0,0-.16,1v3.12Z"/><path class="cls-1" d="M69.64,113l1,.13a2.46,2.46,0,0,1-.87,1.35,3,3,0,0,1-3.62-.28,3,3,0,0,1-.73-2.16,3.14,3.14,0,0,1,.74-2.24,2.69,2.69,0,0,1,3.79,0,3.12,3.12,0,0,1,.72,2.2v.25H66.41a2.2,2.2,0,0,0,.54,1.44,1.55,1.55,0,0,0,1.19.5,1.47,1.47,0,0,0,.91-.28A1.76,1.76,0,0,0,69.64,113Zm-3.17-1.56h3.18a1.92,1.92,0,0,0-.36-1.08,1.5,1.5,0,0,0-1.2-.56,1.53,1.53,0,0,0-1.12.45A1.74,1.74,0,0,0,66.47,111.44Z"/><path class="cls-1" d="M74.87,117l-.11-.91a2,2,0,0,0,.55.08,1.09,1.09,0,0,0,.52-.1.91.91,0,0,0,.32-.3,4.68,4.68,0,0,0,.29-.72l.09-.24-2.17-5.71h1l1.18,3.3c.16.42.29.86.42,1.32.11-.44.24-.88.39-1.3l1.22-3.32h1l-2.17,5.8a11.45,11.45,0,0,1-.54,1.29,1.91,1.91,0,0,1-.59.7,1.41,1.41,0,0,1-.8.22A2.2,2.2,0,0,1,74.87,117Z"/><path class="cls-1" d="M84.32,113l1,.13a2.42,2.42,0,0,1-.88,1.35,2.59,2.59,0,0,1-1.63.49,2.63,2.63,0,0,1-2-.77,3,3,0,0,1-.73-2.16,3.18,3.18,0,0,1,.74-2.24,2.5,2.5,0,0,1,1.92-.79,2.45,2.45,0,0,1,1.87.77,3.08,3.08,0,0,1,.73,2.2s0,.14,0,.25H81.09a2.14,2.14,0,0,0,.53,1.44,1.56,1.56,0,0,0,1.19.5,1.45,1.45,0,0,0,.91-.28A1.84,1.84,0,0,0,84.32,113Zm-3.18-1.56h3.19a2,2,0,0,0-.37-1.08,1.5,1.5,0,0,0-1.2-.56,1.55,1.55,0,0,0-1.12.45A1.74,1.74,0,0,0,81.14,111.44Z"/><path class="cls-1" d="M86.51,114.84V107h1v7.87Z"/><path class="cls-1" d="M89,114.84V107h1v7.87Z"/><path class="cls-1" d="M91.06,112a2.93,2.93,0,0,1,.88-2.35,2.66,2.66,0,0,1,1.79-.63,2.51,2.51,0,0,1,1.92.77,2.91,2.91,0,0,1,.75,2.13,3.78,3.78,0,0,1-.33,1.73,2.33,2.33,0,0,1-1,1,2.83,2.83,0,0,1-1.38.35,2.55,2.55,0,0,1-1.93-.77A3,3,0,0,1,91.06,112Zm1,0a2.41,2.41,0,0,0,.48,1.64,1.6,1.6,0,0,0,2.4,0,2.51,2.51,0,0,0,.48-1.68,2.37,2.37,0,0,0-.48-1.6,1.6,1.6,0,0,0-2.4,0A2.41,2.41,0,0,0,92.05,112Z"/><path class="cls-1" d="M98.59,114.84l-1.75-5.7h1l.91,3.29.34,1.22c0-.06.11-.45.29-1.17l.91-3.34h1l.86,3.3.28,1.09.33-1.1,1-3.29h.94l-1.79,5.7h-1l-.91-3.42-.22-1-1.15,4.39Z"/><path class="cls-1" d="M4.64,126l1,.12a2.47,2.47,0,0,1-.79,1.54,2.35,2.35,0,0,1-1.58.56,2.44,2.44,0,0,1-1.88-.77,3.08,3.08,0,0,1-.72-2.19,4,4,0,0,1,.31-1.62,2.1,2.1,0,0,1,.93-1,2.77,2.77,0,0,1,1.36-.34,2.32,2.32,0,0,1,1.52.47A2.12,2.12,0,0,1,5.5,124l-.94.15a1.58,1.58,0,0,0-.47-.87,1.27,1.27,0,0,0-.83-.29,1.51,1.51,0,0,0-1.19.53,2.48,2.48,0,0,0-.45,1.65,2.51,2.51,0,0,0,.44,1.67,1.41,1.41,0,0,0,1.15.52,1.33,1.33,0,0,0,1-.35A1.75,1.75,0,0,0,4.64,126Z"/><path class="cls-1" d="M6.42,121.28v-1.11h1v1.11Zm0,6.76v-5.7h1V128Z"/><path class="cls-1" d="M8.85,128v-5.7h.87v.86a2.37,2.37,0,0,1,.62-.8,1.06,1.06,0,0,1,.62-.19,1.85,1.85,0,0,1,1,.31l-.33.89a1.47,1.47,0,0,0-.71-.2.91.91,0,0,0-.57.19,1,1,0,0,0-.36.53,3.65,3.65,0,0,0-.16,1.12v3Z"/><path class="cls-1" d="M16.25,126l.95.12a2.43,2.43,0,0,1-.8,1.54,2.32,2.32,0,0,1-1.57.56,2.46,2.46,0,0,1-1.89-.77,3.12,3.12,0,0,1-.71-2.19,3.87,3.87,0,0,1,.31-1.62,2.1,2.1,0,0,1,.93-1,2.77,2.77,0,0,1,1.36-.34,2.32,2.32,0,0,1,1.52.47,2.17,2.17,0,0,1,.76,1.33l-.94.15a1.53,1.53,0,0,0-.48-.87,1.23,1.23,0,0,0-.82-.29,1.51,1.51,0,0,0-1.19.53,2.48,2.48,0,0,0-.46,1.65,2.51,2.51,0,0,0,.45,1.67,1.4,1.4,0,0,0,1.14.52,1.35,1.35,0,0,0,1-.35A1.75,1.75,0,0,0,16.25,126Z"/><path class="cls-1" d="M18,128v-7.87h1V128Z"/><path class="cls-1" d="M24.38,126.2l1,.13a2.46,2.46,0,0,1-.87,1.36,2.65,2.65,0,0,1-1.63.48,2.63,2.63,0,0,1-2-.77,3,3,0,0,1-.73-2.16,3.18,3.18,0,0,1,.74-2.24,2.69,2.69,0,0,1,3.79,0,3.12,3.12,0,0,1,.73,2.2s0,.14,0,.25H21.15a2.14,2.14,0,0,0,.53,1.44,1.56,1.56,0,0,0,1.19.5,1.45,1.45,0,0,0,.91-.28A1.84,1.84,0,0,0,24.38,126.2Zm-3.18-1.56h3.19a2,2,0,0,0-.37-1.08,1.5,1.5,0,0,0-1.2-.56,1.55,1.55,0,0,0-1.12.45A1.74,1.74,0,0,0,21.2,124.64Z"/><path class="cls-1" d="M26.84,128v-1.1h1.1V128a2,2,0,0,1-.21,1,1.43,1.43,0,0,1-.69.58l-.26-.42a1,1,0,0,0,.45-.39,1.78,1.78,0,0,0,.16-.75Z"/><path class="cls-1" d="M34.81,127.17,35,128a3.32,3.32,0,0,1-.73.08,1.71,1.71,0,0,1-.82-.16.89.89,0,0,1-.4-.44,3.4,3.4,0,0,1-.12-1.14v-3.28h-.71v-.75h.71v-1.42l1-.58v2h1v.75h-1v3.33a1.76,1.76,0,0,0,0,.53.35.35,0,0,0,.17.19.58.58,0,0,0,.33.07A2.52,2.52,0,0,0,34.81,127.17Z"/><path class="cls-1" d="M35.76,128v-7.87h1V123a2.16,2.16,0,0,1,1.71-.78,2.26,2.26,0,0,1,1.1.25,1.4,1.4,0,0,1,.67.69,3.06,3.06,0,0,1,.2,1.27V128h-1v-3.62a1.48,1.48,0,0,0-.32-1,1.16,1.16,0,0,0-.89-.33,1.59,1.59,0,0,0-.81.22,1.28,1.28,0,0,0-.54.61,2.89,2.89,0,0,0-.16,1V128Z"/><path class="cls-1" d="M45.78,126.2l1,.13a2.48,2.48,0,0,1-.88,1.36,3,3,0,0,1-3.62-.29,3.07,3.07,0,0,1-.73-2.16,3.18,3.18,0,0,1,.74-2.24,2.53,2.53,0,0,1,1.93-.79,2.48,2.48,0,0,1,1.87.77,3.12,3.12,0,0,1,.72,2.2s0,.14,0,.25H42.55a2.19,2.19,0,0,0,.53,1.44,1.56,1.56,0,0,0,1.19.5,1.45,1.45,0,0,0,.91-.28A1.84,1.84,0,0,0,45.78,126.2Zm-3.18-1.56h3.19a1.84,1.84,0,0,0-.37-1.08,1.46,1.46,0,0,0-1.19-.56,1.52,1.52,0,0,0-1.12.45A1.75,1.75,0,0,0,42.6,124.64Z"/><path class="cls-1" d="M51.05,128v-5.7h.86v.8a2,2,0,0,1,.72-.68,2,2,0,0,1,1-.25,1.85,1.85,0,0,1,1,.26,1.41,1.41,0,0,1,.57.74,2,2,0,0,1,1.77-1,1.7,1.7,0,0,1,1.3.47,2,2,0,0,1,.46,1.44V128h-1v-3.59a2.71,2.71,0,0,0-.1-.84.75.75,0,0,0-.34-.41,1.09,1.09,0,0,0-.58-.16,1.39,1.39,0,0,0-1,.4,1.81,1.81,0,0,0-.4,1.29V128h-1v-3.71a1.58,1.58,0,0,0-.24-1,.88.88,0,0,0-.77-.33,1.46,1.46,0,0,0-.76.22,1.18,1.18,0,0,0-.5.63,3.58,3.58,0,0,0-.16,1.19v3Z"/><path class="cls-1" d="M59.85,125.19a2.93,2.93,0,0,1,.88-2.35,2.67,2.67,0,0,1,1.8-.63,2.54,2.54,0,0,1,1.92.77,2.91,2.91,0,0,1,.75,2.13,3.64,3.64,0,0,1-.34,1.73,2.27,2.27,0,0,1-1,1,2.82,2.82,0,0,1-1.37.35,2.58,2.58,0,0,1-1.94-.77A3.07,3.07,0,0,1,59.85,125.19Zm1,0a2.41,2.41,0,0,0,.48,1.64,1.54,1.54,0,0,0,1.21.54,1.52,1.52,0,0,0,1.19-.54,2.51,2.51,0,0,0,.48-1.68,2.37,2.37,0,0,0-.48-1.6,1.6,1.6,0,0,0-2.4,0A2.41,2.41,0,0,0,60.84,125.19Z"/><path class="cls-1" d="M66.32,128v-5.7h.87v.86a2.5,2.5,0,0,1,.61-.8,1.08,1.08,0,0,1,.62-.19,1.88,1.88,0,0,1,1,.31l-.34.89a1.43,1.43,0,0,0-.7-.2.87.87,0,0,0-.57.19,1,1,0,0,0-.36.53,3.65,3.65,0,0,0-.17,1.12v3Z"/><path class="cls-1" d="M73.9,126.2l1,.13a2.48,2.48,0,0,1-.88,1.36,3,3,0,0,1-3.62-.29,3,3,0,0,1-.73-2.16,3.18,3.18,0,0,1,.74-2.24,2.5,2.5,0,0,1,1.92-.79,2.45,2.45,0,0,1,1.87.77,3.08,3.08,0,0,1,.73,2.2s0,.14,0,.25H70.67a2.14,2.14,0,0,0,.53,1.44,1.56,1.56,0,0,0,1.19.5,1.45,1.45,0,0,0,.91-.28A1.84,1.84,0,0,0,73.9,126.2Zm-3.18-1.56h3.19a2,2,0,0,0-.37-1.08,1.48,1.48,0,0,0-1.2-.56,1.55,1.55,0,0,0-1.12.45A1.74,1.74,0,0,0,70.72,124.64Z"/><path class="cls-1" d="M81.28,127.17l.14.86a3.44,3.44,0,0,1-.73.08,1.65,1.65,0,0,1-.82-.16,1,1,0,0,1-.41-.44,3.4,3.4,0,0,1-.12-1.14v-3.28h-.71v-.75h.71v-1.42l1-.58v2h1v.75h-1v3.33a1.39,1.39,0,0,0,.06.53.33.33,0,0,0,.16.19.62.62,0,0,0,.33.07A2.62,2.62,0,0,0,81.28,127.17Z"/><path class="cls-1" d="M82.22,128v-7.87h1V123a2.16,2.16,0,0,1,1.71-.78,2.26,2.26,0,0,1,1.1.25,1.45,1.45,0,0,1,.67.69,3.23,3.23,0,0,1,.2,1.27V128h-1v-3.62a1.48,1.48,0,0,0-.31-1,1.18,1.18,0,0,0-.89-.33,1.54,1.54,0,0,0-.81.22,1.28,1.28,0,0,0-.54.61,2.69,2.69,0,0,0-.16,1V128Z"/><path class="cls-1" d="M92.24,126.2l1,.13a2.46,2.46,0,0,1-.87,1.36,2.66,2.66,0,0,1-1.64.48,2.62,2.62,0,0,1-2-.77,3,3,0,0,1-.73-2.16,3.14,3.14,0,0,1,.74-2.24,2.69,2.69,0,0,1,3.79,0,3.12,3.12,0,0,1,.73,2.2s0,.14,0,.25H89a2.14,2.14,0,0,0,.53,1.44,1.55,1.55,0,0,0,1.19.5,1.47,1.47,0,0,0,.91-.28A1.76,1.76,0,0,0,92.24,126.2Zm-3.17-1.56h3.18a1.92,1.92,0,0,0-.36-1.08,1.5,1.5,0,0,0-1.2-.56,1.53,1.53,0,0,0-1.12.45A1.74,1.74,0,0,0,89.07,124.64Z"/><path class="cls-1" d="M.9,141.24v-7.87h1v7.87Z"/><path class="cls-1" d="M3.37,134.48v-1.11h1v1.11Zm0,6.76v-5.7h1v5.7Z"/><path class="cls-1" d="M5.81,141.24v-7.87h1v4.49l2.29-2.32h1.25l-2.18,2.11,2.4,3.59H9.35l-1.89-2.92-.68.66v2.26Z"/><path class="cls-1" d="M15.21,139.4l1,.13a2.52,2.52,0,0,1-.87,1.36,2.66,2.66,0,0,1-1.64.48,2.62,2.62,0,0,1-2-.77,3,3,0,0,1-.74-2.16,3.14,3.14,0,0,1,.75-2.24,2.49,2.49,0,0,1,1.92-.79,2.45,2.45,0,0,1,1.87.78,3.09,3.09,0,0,1,.72,2.19v.25H12a2.2,2.2,0,0,0,.54,1.44,1.54,1.54,0,0,0,1.19.5,1.47,1.47,0,0,0,.91-.28A1.76,1.76,0,0,0,15.21,139.4ZM12,137.84h3.18a1.92,1.92,0,0,0-.36-1.08,1.5,1.5,0,0,0-1.2-.56,1.53,1.53,0,0,0-1.12.45A1.74,1.74,0,0,0,12,137.84Z"/><path class="cls-1" d="M17.4,141.24v-7.87h1v7.87Z"/><path class="cls-1" d="M19.83,143.44l-.11-.91a2,2,0,0,0,.55.08,1.09,1.09,0,0,0,.52-.1.81.81,0,0,0,.31-.3,4.36,4.36,0,0,0,.3-.72l.09-.24-2.17-5.71h1l1.19,3.3c.15.42.29.86.41,1.32.11-.44.25-.88.4-1.3l1.22-3.32h1l-2.17,5.8a13.11,13.11,0,0,1-.55,1.29,1.82,1.82,0,0,1-.59.7,1.36,1.36,0,0,1-.79.22A1.81,1.81,0,0,1,19.83,143.44Z"/><path class="cls-1" d="M25.37,141.24v-7.87h1v2.82a2.16,2.16,0,0,1,1.7-.78,2.24,2.24,0,0,1,1.1.25,1.36,1.36,0,0,1,.67.69,3.06,3.06,0,0,1,.2,1.27v3.62h-1v-3.62a1.48,1.48,0,0,0-.32-1.05,1.16,1.16,0,0,0-.89-.33,1.53,1.53,0,0,0-.8.22,1.18,1.18,0,0,0-.54.61,2.69,2.69,0,0,0-.16,1.05v3.12Z"/><path class="cls-1" d="M31.13,138.39A2.93,2.93,0,0,1,32,136a2.66,2.66,0,0,1,1.79-.63,2.51,2.51,0,0,1,1.92.77,2.91,2.91,0,0,1,.75,2.13,3.78,3.78,0,0,1-.33,1.73,2.33,2.33,0,0,1-1,1,2.83,2.83,0,0,1-1.38.35,2.59,2.59,0,0,1-1.94-.77A3.07,3.07,0,0,1,31.13,138.39Zm1,0A2.41,2.41,0,0,0,32.6,140a1.6,1.6,0,0,0,2.4,0,2.5,2.5,0,0,0,.48-1.67,2.38,2.38,0,0,0-.48-1.61,1.6,1.6,0,0,0-2.4,0A2.41,2.41,0,0,0,32.12,138.39Z"/><path class="cls-1" d="M37.24,138.39a2.94,2.94,0,0,1,.89-2.35,2.64,2.64,0,0,1,1.79-.63,2.54,2.54,0,0,1,1.92.77,2.91,2.91,0,0,1,.75,2.13,3.78,3.78,0,0,1-.33,1.73,2.33,2.33,0,0,1-1,1,2.83,2.83,0,0,1-1.38.35A2.59,2.59,0,0,1,38,140.6,3.07,3.07,0,0,1,37.24,138.39Zm1,0a2.41,2.41,0,0,0,.48,1.64,1.6,1.6,0,0,0,2.4,0,2.5,2.5,0,0,0,.47-1.67,2.38,2.38,0,0,0-.48-1.61,1.59,1.59,0,0,0-2.39,0A2.41,2.41,0,0,0,38.24,138.39Z"/><path class="cls-1" d="M47.42,141.24v-.72a1.76,1.76,0,0,1-1.59.85,2.25,2.25,0,0,1-1.26-.38,2.46,2.46,0,0,1-.88-1.05,3.61,3.61,0,0,1-.32-1.55,4.08,4.08,0,0,1,.29-1.55,2.23,2.23,0,0,1,2.12-1.43,2,2,0,0,1,.92.21,2,2,0,0,1,.66.57v-2.82h1v7.87Zm-3.05-2.85a2.47,2.47,0,0,0,.46,1.64,1.38,1.38,0,0,0,2.17,0,2.45,2.45,0,0,0,.44-1.59,2.65,2.65,0,0,0-.45-1.71,1.37,1.37,0,0,0-1.11-.55,1.34,1.34,0,0,0-1.08.52A2.6,2.6,0,0,0,44.37,138.39Z"/><path class="cls-1" d="M52.54,138.39a2.93,2.93,0,0,1,.88-2.35,2.64,2.64,0,0,1,1.79-.63,2.52,2.52,0,0,1,1.92.77,2.91,2.91,0,0,1,.75,2.13,3.78,3.78,0,0,1-.33,1.73,2.33,2.33,0,0,1-1,1,2.83,2.83,0,0,1-1.38.35,2.59,2.59,0,0,1-1.94-.77A3.07,3.07,0,0,1,52.54,138.39Zm1,0A2.41,2.41,0,0,0,54,140a1.6,1.6,0,0,0,2.4,0,2.5,2.5,0,0,0,.48-1.67,2.38,2.38,0,0,0-.48-1.61,1.6,1.6,0,0,0-2.4,0A2.41,2.41,0,0,0,53.53,138.39Z"/><path class="cls-1" d="M59.24,141.24v-5h-.85v-.75h.85v-.61a2.63,2.63,0,0,1,.11-.86,1.15,1.15,0,0,1,.49-.6,1.71,1.71,0,0,1,1-.24,4.36,4.36,0,0,1,.91.1l-.15.84a3.88,3.88,0,0,0-.57,0,.82.82,0,0,0-.62.19,1,1,0,0,0-.18.7v.53h1.11v.75H60.21v5Z"/><path class="cls-1" d="M68.85,140.54a3.49,3.49,0,0,1-1,.64,2.85,2.85,0,0,1-1.06.19,2.07,2.07,0,0,1-1.45-.46A1.63,1.63,0,0,1,65,139a1.59,1.59,0,0,1,.5-.56,2.55,2.55,0,0,1,.69-.31A7.59,7.59,0,0,1,67,138a8.68,8.68,0,0,0,1.73-.33v-.25a1.1,1.1,0,0,0-.27-.84,1.68,1.68,0,0,0-1.1-.32,1.71,1.71,0,0,0-1,.24,1.42,1.42,0,0,0-.48.84l-1-.13a2.39,2.39,0,0,1,.43-1,1.83,1.83,0,0,1,.85-.57,3.74,3.74,0,0,1,1.3-.2,3.27,3.27,0,0,1,1.18.17,1.34,1.34,0,0,1,1,1.09,6,6,0,0,1,0,.89v1.29a13.38,13.38,0,0,0,.07,1.71,2.21,2.21,0,0,0,.24.68H69A2.12,2.12,0,0,1,68.85,140.54Zm-.08-2.16a7.34,7.34,0,0,1-1.58.36,3.41,3.41,0,0,0-.85.2.83.83,0,0,0-.38.31.86.86,0,0,0,.16,1.1,1.23,1.23,0,0,0,.86.26,2,2,0,0,0,1-.24,1.53,1.53,0,0,0,.64-.67,2.24,2.24,0,0,0,.16-1Z"/><path class="cls-1" d="M.92,156.63v-7.89H1.8v.74a2.29,2.29,0,0,1,.7-.66,2,2,0,0,1,1-.21,2.25,2.25,0,0,1,1.29.37A2.3,2.3,0,0,1,5.59,150a3.9,3.9,0,0,1,.28,1.51,3.79,3.79,0,0,1-.31,1.57,2.39,2.39,0,0,1-2.18,1.45,1.74,1.74,0,0,1-.86-.21,1.77,1.77,0,0,1-.63-.51v2.78Zm.88-5a2.48,2.48,0,0,0,.44,1.63,1.37,1.37,0,0,0,1.08.52,1.39,1.39,0,0,0,1.1-.54,2.57,2.57,0,0,0,.46-1.69,2.5,2.5,0,0,0-.45-1.63,1.34,1.34,0,0,0-1.07-.55,1.41,1.41,0,0,0-1.09.58A2.59,2.59,0,0,0,1.8,151.62Z"/><path class="cls-1" d="M7,154.44v-7.87H8v7.87Z"/><path class="cls-1" d="M13.22,154.44v-.84a2.08,2.08,0,0,1-1.81,1,2.43,2.43,0,0,1-.94-.19,1.55,1.55,0,0,1-.65-.49,1.89,1.89,0,0,1-.3-.72,4.82,4.82,0,0,1-.06-.9v-3.53h1v3.16a5.62,5.62,0,0,0,.06,1,1.06,1.06,0,0,0,.38.6,1.24,1.24,0,0,0,.73.22,1.61,1.61,0,0,0,.82-.23,1.3,1.3,0,0,0,.54-.6,3.2,3.2,0,0,0,.16-1.12v-3h1v5.7Z"/><path class="cls-1" d="M15.6,154.44v-5.7h.87v.81a2,2,0,0,1,1.81-.94,2.44,2.44,0,0,1,.95.18,1.53,1.53,0,0,1,.65.49,2,2,0,0,1,.3.71,5.21,5.21,0,0,1,.05.94v3.51h-1V151a2.43,2.43,0,0,0-.12-.88.87.87,0,0,0-.4-.47,1.22,1.22,0,0,0-.67-.18,1.59,1.59,0,0,0-1.07.4,1.91,1.91,0,0,0-.44,1.48v3.12Z"/><path class="cls-1" d="M21.54,154.91l.94.14a.93.93,0,0,0,.33.64,1.65,1.65,0,0,0,1,.26,1.82,1.82,0,0,0,1-.26,1.35,1.35,0,0,0,.49-.76,6.42,6.42,0,0,0,.07-1.24,2,2,0,0,1-1.58.75,2.15,2.15,0,0,1-1.82-.85,3.24,3.24,0,0,1-.64-2,3.73,3.73,0,0,1,.29-1.51A2.36,2.36,0,0,1,22.5,149a2.3,2.3,0,0,1,1.32-.37,2,2,0,0,1,1.66.81v-.68h.89v4.93a4.68,4.68,0,0,1-.27,1.88,1.93,1.93,0,0,1-.86.88,2.89,2.89,0,0,1-1.44.32,2.76,2.76,0,0,1-1.65-.45A1.55,1.55,0,0,1,21.54,154.91Zm.8-3.42a2.44,2.44,0,0,0,.45,1.63,1.37,1.37,0,0,0,1.11.52,1.43,1.43,0,0,0,1.12-.51,2.42,2.42,0,0,0,.45-1.61,2.33,2.33,0,0,0-.46-1.58,1.43,1.43,0,0,0-1.12-.53,1.4,1.4,0,0,0-1.1.52A2.34,2.34,0,0,0,22.34,151.49Z"/><path class="cls-1" d="M31.74,152.6l1,.13a2.48,2.48,0,0,1-.88,1.36,3,3,0,0,1-3.62-.29,3.07,3.07,0,0,1-.73-2.16,3.18,3.18,0,0,1,.74-2.24,2.53,2.53,0,0,1,1.93-.79,2.45,2.45,0,0,1,1.87.78,3.09,3.09,0,0,1,.72,2.19s0,.14,0,.25H28.51a2.19,2.19,0,0,0,.53,1.44,1.56,1.56,0,0,0,1.19.5,1.45,1.45,0,0,0,.91-.28A1.84,1.84,0,0,0,31.74,152.6ZM28.56,151h3.19a1.84,1.84,0,0,0-.37-1.08,1.46,1.46,0,0,0-1.19-.56,1.52,1.52,0,0,0-1.12.45A1.77,1.77,0,0,0,28.56,151Z"/><path class="cls-1" d="M37,147.68v-1.11h1v1.11Zm0,6.76v-5.7h1v5.7Z"/><path class="cls-1" d="M39.45,154.44v-5.7h.87v.81a2.05,2.05,0,0,1,1.82-.94,2.47,2.47,0,0,1,1,.18,1.56,1.56,0,0,1,.64.49,1.68,1.68,0,0,1,.3.71,5,5,0,0,1,.06.94v3.51h-1V151a2.73,2.73,0,0,0-.11-.88,1,1,0,0,0-.4-.47,1.25,1.25,0,0,0-.68-.18,1.57,1.57,0,0,0-1.06.4,1.91,1.91,0,0,0-.45,1.48v3.12Z"/><path class="cls-1" d="M50.74,153.57l.14.86a3.53,3.53,0,0,1-.73.09,1.64,1.64,0,0,1-.82-.17,1,1,0,0,1-.41-.44,3.4,3.4,0,0,1-.12-1.14v-3.28h-.71v-.75h.71v-1.42l1-.58v2h1v.75h-1v3.33a1.49,1.49,0,0,0,.06.54.35.35,0,0,0,.16.18.62.62,0,0,0,.33.07A2.62,2.62,0,0,0,50.74,153.57Z"/><path class="cls-1" d="M51.68,154.44v-7.87h1v2.82a2.16,2.16,0,0,1,1.71-.78,2.26,2.26,0,0,1,1.1.25,1.45,1.45,0,0,1,.67.69,3.23,3.23,0,0,1,.2,1.27v3.62h-1v-3.62a1.48,1.48,0,0,0-.31-1,1.18,1.18,0,0,0-.89-.33,1.54,1.54,0,0,0-.81.22,1.28,1.28,0,0,0-.54.61,2.69,2.69,0,0,0-.16,1v3.12Z"/><path class="cls-1" d="M61.7,152.6l1,.13a2.46,2.46,0,0,1-.87,1.36,2.66,2.66,0,0,1-1.64.48,2.62,2.62,0,0,1-2-.77,3,3,0,0,1-.73-2.16,3.14,3.14,0,0,1,.74-2.24,2.49,2.49,0,0,1,1.92-.79,2.44,2.44,0,0,1,1.87.78,3.1,3.1,0,0,1,.73,2.19s0,.14,0,.25H58.48a2.14,2.14,0,0,0,.53,1.44,1.55,1.55,0,0,0,1.19.5,1.47,1.47,0,0,0,.91-.28A1.76,1.76,0,0,0,61.7,152.6ZM58.53,151h3.18a1.92,1.92,0,0,0-.36-1.08,1.5,1.5,0,0,0-1.2-.56,1.53,1.53,0,0,0-1.12.45A1.76,1.76,0,0,0,58.53,151Z"/><path class="cls-1" d="M70.7,152.35l1,.12a2.48,2.48,0,0,1-.8,1.54,2.33,2.33,0,0,1-1.58.56,2.44,2.44,0,0,1-1.88-.77,3.12,3.12,0,0,1-.71-2.19A4,4,0,0,1,67,150a2.17,2.17,0,0,1,.94-1,2.75,2.75,0,0,1,1.36-.34,2.34,2.34,0,0,1,1.52.47,2.16,2.16,0,0,1,.75,1.33l-.94.15a1.5,1.5,0,0,0-.47-.87,1.24,1.24,0,0,0-.82-.29,1.5,1.5,0,0,0-1.19.53,2.45,2.45,0,0,0-.46,1.65,2.57,2.57,0,0,0,.44,1.67,1.44,1.44,0,0,0,1.15.52,1.31,1.31,0,0,0,.95-.35A1.71,1.71,0,0,0,70.7,152.35Z"/><path class="cls-1" d="M76.21,154.44v-.84a2.08,2.08,0,0,1-1.81,1,2.47,2.47,0,0,1-.94-.19,1.61,1.61,0,0,1-.65-.49,1.89,1.89,0,0,1-.3-.72,4.82,4.82,0,0,1-.06-.9v-3.53h1v3.16a5.62,5.62,0,0,0,.06,1,1.06,1.06,0,0,0,.38.6,1.24,1.24,0,0,0,.73.22,1.59,1.59,0,0,0,.82-.23,1.2,1.2,0,0,0,.54-.6,3,3,0,0,0,.16-1.12v-3h1v5.7Z"/><path class="cls-1" d="M78.57,154.44v-7.87h1v7.87Z"/><path class="cls-1" d="M83.15,153.57l.14.86a3.53,3.53,0,0,1-.74.09,1.63,1.63,0,0,1-.81-.17,1,1,0,0,1-.41-.44,3.4,3.4,0,0,1-.12-1.14v-3.28H80.5v-.75h.71v-1.42l1-.58v2h1v.75h-1v3.33a1.89,1.89,0,0,0,0,.54.42.42,0,0,0,.17.18.62.62,0,0,0,.33.07A2.62,2.62,0,0,0,83.15,153.57Z"/><path class="cls-1" d="M87.83,154.44v-.84a2.08,2.08,0,0,1-1.81,1,2.43,2.43,0,0,1-.94-.19,1.55,1.55,0,0,1-.65-.49,1.89,1.89,0,0,1-.3-.72,4.82,4.82,0,0,1-.06-.9v-3.53h1v3.16a5.62,5.62,0,0,0,.06,1,1.06,1.06,0,0,0,.38.6,1.24,1.24,0,0,0,.73.22,1.61,1.61,0,0,0,.82-.23,1.3,1.3,0,0,0,.54-.6,3.2,3.2,0,0,0,.16-1.12v-3h1v5.7Z"/><path class="cls-1" d="M90.2,154.44v-5.7h.87v.86a2.5,2.5,0,0,1,.61-.8,1.08,1.08,0,0,1,.62-.19,1.88,1.88,0,0,1,1,.31l-.34.9a1.36,1.36,0,0,0-.71-.21.86.86,0,0,0-.56.19,1,1,0,0,0-.36.53,3.65,3.65,0,0,0-.17,1.12v3Z"/><path class="cls-1" d="M97.59,153.74a3.45,3.45,0,0,1-1,.64,2.9,2.9,0,0,1-1.07.19,2.06,2.06,0,0,1-1.44-.46,1.52,1.52,0,0,1-.51-1.17,1.66,1.66,0,0,1,.19-.77,1.7,1.7,0,0,1,.5-.56,2.61,2.61,0,0,1,.7-.31,7.59,7.59,0,0,1,.86-.15,8.55,8.55,0,0,0,1.72-.33c0-.13,0-.22,0-.25a1.06,1.06,0,0,0-.28-.84,1.64,1.64,0,0,0-1.1-.32,1.67,1.67,0,0,0-1,.24,1.42,1.42,0,0,0-.48.84l-1-.13a2.53,2.53,0,0,1,.42-1,1.86,1.86,0,0,1,.86-.57,3.64,3.64,0,0,1,1.29-.2,3.3,3.3,0,0,1,1.19.17,1.55,1.55,0,0,1,.67.43,1.49,1.49,0,0,1,.3.66,5.58,5.58,0,0,1,0,.89v1.29a14.19,14.19,0,0,0,.06,1.71,2.24,2.24,0,0,0,.25.68h-1A2.12,2.12,0,0,1,97.59,153.74Zm-.08-2.16a7.2,7.2,0,0,1-1.58.36,3.43,3.43,0,0,0-.84.2.83.83,0,0,0-.38.31.82.82,0,0,0-.13.46.79.79,0,0,0,.29.64,1.2,1.2,0,0,0,.85.26,2,2,0,0,0,1-.24,1.59,1.59,0,0,0,.64-.67,2.43,2.43,0,0,0,.15-1Z"/><path class="cls-1" d="M100,154.44v-7.87h1v7.87Z"/><path class="cls-1" d="M4.64,166.94a3.82,3.82,0,0,1-1,.64,2.9,2.9,0,0,1-1.07.19,2.09,2.09,0,0,1-1.44-.46,1.52,1.52,0,0,1-.51-1.17,1.66,1.66,0,0,1,.19-.77,1.7,1.7,0,0,1,.5-.56,2.33,2.33,0,0,1,.7-.31,7.19,7.19,0,0,1,.86-.15A8.55,8.55,0,0,0,4.56,164c0-.13,0-.22,0-.25a1.06,1.06,0,0,0-.28-.84,1.64,1.64,0,0,0-1.1-.32,1.73,1.73,0,0,0-1,.24,1.5,1.5,0,0,0-.48.84l-.94-.13a2.39,2.39,0,0,1,.42-1A1.81,1.81,0,0,1,2,162a3.64,3.64,0,0,1,1.29-.2,3.33,3.33,0,0,1,1.19.17,1.55,1.55,0,0,1,.67.43,1.55,1.55,0,0,1,.3.66,5.58,5.58,0,0,1,0,.89v1.29A13.86,13.86,0,0,0,5.6,167a2.18,2.18,0,0,0,.24.69h-1A1.91,1.91,0,0,1,4.64,166.94Zm-.08-2.16a7.34,7.34,0,0,1-1.58.36,3.79,3.79,0,0,0-.84.19.86.86,0,0,0-.38.32.83.83,0,0,0-.14.46.8.8,0,0,0,.3.64,1.25,1.25,0,0,0,.85.26,2,2,0,0,0,1-.24,1.59,1.59,0,0,0,.64-.67,2.43,2.43,0,0,0,.15-1Z"/><path class="cls-1" d="M10.78,167.64v-.84a2.09,2.09,0,0,1-1.81,1,2.31,2.31,0,0,1-1-.2,1.52,1.52,0,0,1-.65-.48,2,2,0,0,1-.3-.72,6.22,6.22,0,0,1-.05-.9v-3.53H8v3.16a5.62,5.62,0,0,0,.06,1,1,1,0,0,0,.39.6,1.24,1.24,0,0,0,.73.22,1.61,1.61,0,0,0,.82-.23,1.3,1.3,0,0,0,.54-.6,3.24,3.24,0,0,0,.15-1.12v-3.05h1v5.7Z"/><path class="cls-1" d="M15.27,166.77l.14.86a3.47,3.47,0,0,1-.74.08,1.64,1.64,0,0,1-.81-.16,1,1,0,0,1-.41-.44,3.4,3.4,0,0,1-.12-1.14v-3.28h-.71v-.75h.71v-1.42l1-.58v2h1v.75h-1V166a1.76,1.76,0,0,0,.05.53.39.39,0,0,0,.17.19.62.62,0,0,0,.33.07A2.62,2.62,0,0,0,15.27,166.77Z"/><path class="cls-1" d="M16.21,167.64v-7.87h1v2.82a2.16,2.16,0,0,1,1.71-.78,2.26,2.26,0,0,1,1.1.25,1.45,1.45,0,0,1,.67.69,3.23,3.23,0,0,1,.2,1.27v3.62h-1V164a1.48,1.48,0,0,0-.31-1.05,1.18,1.18,0,0,0-.89-.33,1.54,1.54,0,0,0-.81.22,1.28,1.28,0,0,0-.54.61,2.69,2.69,0,0,0-.16,1.05v3.12Z"/><path class="cls-1" d="M22,164.79a2.93,2.93,0,0,1,.88-2.35,2.66,2.66,0,0,1,1.79-.63,2.55,2.55,0,0,1,1.93.77,3,3,0,0,1,.74,2.13,3.78,3.78,0,0,1-.33,1.73,2.33,2.33,0,0,1-1,1,2.83,2.83,0,0,1-1.38.35,2.57,2.57,0,0,1-1.93-.77A3,3,0,0,1,22,164.79Zm1,0a2.41,2.41,0,0,0,.48,1.64,1.6,1.6,0,0,0,2.4,0,2.51,2.51,0,0,0,.48-1.68,2.37,2.37,0,0,0-.48-1.6,1.6,1.6,0,0,0-2.4,0A2.41,2.41,0,0,0,23,164.79Z"/><path class="cls-1" d="M28.44,167.64v-5.7h.87v.86a2.37,2.37,0,0,1,.61-.8,1.08,1.08,0,0,1,.62-.19,1.82,1.82,0,0,1,1,.31l-.33.89a1.44,1.44,0,0,0-.71-.2.91.91,0,0,0-.57.19,1,1,0,0,0-.36.53,3.93,3.93,0,0,0-.16,1.12v3Z"/><path class="cls-1" d="M32.11,160.88v-1.11h1v1.11Zm0,6.76v-5.7h1v5.7Z"/><path class="cls-1" d="M36.66,166.77l.14.86a3.32,3.32,0,0,1-.73.08,1.64,1.64,0,0,1-.81-.16.91.91,0,0,1-.41-.44,3.4,3.4,0,0,1-.12-1.14v-3.28H34v-.75h.71v-1.42l1-.58v2h1v.75h-1V166a1.76,1.76,0,0,0,.05.53.39.39,0,0,0,.17.19.62.62,0,0,0,.33.07A2.43,2.43,0,0,0,36.66,166.77Z"/><path class="cls-1" d="M37.57,169.84l-.11-.91A2,2,0,0,0,38,169a1.09,1.09,0,0,0,.52-.1.89.89,0,0,0,.31-.3,4.36,4.36,0,0,0,.3-.72l.09-.24-2.17-5.71h1l1.19,3.3c.15.42.29.86.41,1.32.12-.44.25-.88.4-1.3l1.22-3.32h1l-2.17,5.8q-.36.93-.54,1.29a1.92,1.92,0,0,1-.6.7,1.36,1.36,0,0,1-.79.22A2.14,2.14,0,0,1,37.57,169.84Z"/><path class="cls-1" d="M45.81,164.79a2.93,2.93,0,0,1,.88-2.35,2.64,2.64,0,0,1,1.79-.63,2.52,2.52,0,0,1,1.92.77,2.91,2.91,0,0,1,.75,2.13,3.78,3.78,0,0,1-.33,1.73,2.33,2.33,0,0,1-1,1,2.83,2.83,0,0,1-1.38.35,2.59,2.59,0,0,1-1.94-.77A3.07,3.07,0,0,1,45.81,164.79Zm1,0a2.41,2.41,0,0,0,.48,1.64,1.6,1.6,0,0,0,2.4,0,2.51,2.51,0,0,0,.48-1.68,2.37,2.37,0,0,0-.48-1.6,1.6,1.6,0,0,0-2.4,0A2.41,2.41,0,0,0,46.8,164.79Z"/><path class="cls-1" d="M52.51,167.64v-4.95h-.85v-.75h.85v-.61a2.59,2.59,0,0,1,.11-.86,1.21,1.21,0,0,1,.49-.61,1.8,1.8,0,0,1,1-.23,4.36,4.36,0,0,1,.91.1l-.15.84a2.87,2.87,0,0,0-.57,0,.82.82,0,0,0-.62.19,1,1,0,0,0-.18.7v.53h1.11v.75H53.48v4.95Z"/><path class="cls-1" d="M58,165.94l1-.15a1.41,1.41,0,0,0,.45.88,1.6,1.6,0,0,0,1,.3,1.5,1.5,0,0,0,1-.27.79.79,0,0,0,.32-.63.59.59,0,0,0-.28-.52,4.24,4.24,0,0,0-1-.33,9,9,0,0,1-1.47-.46,1.4,1.4,0,0,1-.63-.54,1.49,1.49,0,0,1-.21-.77,1.58,1.58,0,0,1,.17-.71,1.76,1.76,0,0,1,.48-.54,2.12,2.12,0,0,1,.62-.28,2.73,2.73,0,0,1,.83-.11,3.28,3.28,0,0,1,1.18.19,1.6,1.6,0,0,1,.75.52,2.07,2.07,0,0,1,.33.89l-.94.13a1,1,0,0,0-.38-.69,1.31,1.31,0,0,0-.87-.25,1.56,1.56,0,0,0-1,.22.65.65,0,0,0-.29.52.56.56,0,0,0,.12.34.89.89,0,0,0,.37.25c.1,0,.38.12.86.25a10.92,10.92,0,0,1,1.43.45,1.36,1.36,0,0,1,.87,1.33,1.59,1.59,0,0,1-.29.91,1.72,1.72,0,0,1-.81.66,2.86,2.86,0,0,1-1.2.24,2.75,2.75,0,0,1-1.7-.46A2.17,2.17,0,0,1,58,165.94Z"/><path class="cls-1" d="M67.62,165.55l.95.12a2.48,2.48,0,0,1-.8,1.54,2.33,2.33,0,0,1-1.58.56,2.46,2.46,0,0,1-1.88-.77,3.12,3.12,0,0,1-.71-2.19,3.87,3.87,0,0,1,.31-1.62,2.1,2.1,0,0,1,.93-1,2.77,2.77,0,0,1,1.36-.34,2.32,2.32,0,0,1,1.52.47,2.14,2.14,0,0,1,.76,1.33l-.94.15a1.53,1.53,0,0,0-.48-.87,1.24,1.24,0,0,0-.82-.29,1.52,1.52,0,0,0-1.19.52,2.53,2.53,0,0,0-.46,1.66,2.57,2.57,0,0,0,.44,1.67,1.44,1.44,0,0,0,1.15.52,1.31,1.31,0,0,0,.95-.35A1.71,1.71,0,0,0,67.62,165.55Z"/><path class="cls-1" d="M69.4,160.88v-1.11h1v1.11Zm0,6.76v-5.7h1v5.7Z"/><path class="cls-1" d="M75.74,165.8l1,.13a2.4,2.4,0,0,1-.87,1.35,3,3,0,0,1-3.62-.28,3,3,0,0,1-.73-2.16,3.14,3.14,0,0,1,.74-2.24,2.69,2.69,0,0,1,3.79,0,3.12,3.12,0,0,1,.73,2.2c0,.05,0,.14,0,.25H72.52a2.14,2.14,0,0,0,.53,1.44,1.55,1.55,0,0,0,1.19.5,1.47,1.47,0,0,0,.91-.28A1.76,1.76,0,0,0,75.74,165.8Zm-3.17-1.56h3.18a1.92,1.92,0,0,0-.36-1.08,1.5,1.5,0,0,0-1.2-.56,1.53,1.53,0,0,0-1.12.45A1.74,1.74,0,0,0,72.57,164.24Z"/><path class="cls-1" d="M78,167.64v-5.7h.87v.81a2,2,0,0,1,1.81-.94,2.44,2.44,0,0,1,1,.18,1.51,1.51,0,0,1,.65.49,2,2,0,0,1,.3.71,6.37,6.37,0,0,1,0,.94v3.51h-1v-3.47a2.43,2.43,0,0,0-.12-.88.91.91,0,0,0-.4-.47,1.22,1.22,0,0,0-.67-.18,1.59,1.59,0,0,0-1.07.4,1.91,1.91,0,0,0-.45,1.48v3.12Z"/><path class="cls-1" d="M87.8,165.55l1,.12a2.48,2.48,0,0,1-.8,1.54,2.33,2.33,0,0,1-1.58.56,2.46,2.46,0,0,1-1.88-.77,3.12,3.12,0,0,1-.71-2.19,3.87,3.87,0,0,1,.31-1.62,2.1,2.1,0,0,1,.93-1,2.75,2.75,0,0,1,1.36-.34,2.34,2.34,0,0,1,1.52.47,2.14,2.14,0,0,1,.76,1.33l-.94.15a1.53,1.53,0,0,0-.48-.87,1.24,1.24,0,0,0-.82-.29,1.52,1.52,0,0,0-1.19.52,2.53,2.53,0,0,0-.46,1.66,2.57,2.57,0,0,0,.44,1.67,1.44,1.44,0,0,0,1.15.52,1.31,1.31,0,0,0,1-.35A1.71,1.71,0,0,0,87.8,165.55Z"/><path class="cls-1" d="M93.48,165.8l1,.13a2.42,2.42,0,0,1-.88,1.35,2.57,2.57,0,0,1-1.63.49,2.61,2.61,0,0,1-2-.77,3,3,0,0,1-.74-2.16A3.18,3.18,0,0,1,90,162.6a2.53,2.53,0,0,1,1.93-.79,2.48,2.48,0,0,1,1.87.77,3.12,3.12,0,0,1,.72,2.2V165H90.25a2.19,2.19,0,0,0,.53,1.44,1.57,1.57,0,0,0,1.2.5,1.44,1.44,0,0,0,.9-.28A1.84,1.84,0,0,0,93.48,165.8Zm-3.17-1.56h3.18a1.92,1.92,0,0,0-.36-1.08,1.5,1.5,0,0,0-1.2-.56,1.52,1.52,0,0,0-1.12.45A1.7,1.7,0,0,0,90.31,164.24Z"/><path class="cls-1" d="M96,167.64v-1.1h1.1v1.1Z"/><path class="cls-1" d="M157.71,121.36v-3.84h.51v1.57h2v-1.57h.51v3.84h-.51v-1.81h-2v1.81Z"/><path class="cls-1" d="M161.51,118.06v-.54H162v.54Zm0,3.3v-2.79H162v2.79Z"/><path class="cls-1" d="M162.62,121.59l.45.07a.49.49,0,0,0,.16.31.85.85,0,0,0,.48.13.91.91,0,0,0,.51-.13.64.64,0,0,0,.24-.37,2.68,2.68,0,0,0,0-.61,1,1,0,0,1-.78.37,1,1,0,0,1-.88-.42,1.57,1.57,0,0,1-.32-1,1.77,1.77,0,0,1,.15-.73,1.15,1.15,0,0,1,.41-.53,1.18,1.18,0,0,1,.65-.18,1,1,0,0,1,.81.4v-.34H165V121a2.23,2.23,0,0,1-.14.92,1,1,0,0,1-.42.43,1.37,1.37,0,0,1-.7.16,1.34,1.34,0,0,1-.81-.23A.75.75,0,0,1,162.62,121.59Zm.39-1.67a1.25,1.25,0,0,0,.21.8.73.73,0,0,0,.55.25.69.69,0,0,0,.54-.25,1.17,1.17,0,0,0,.22-.79,1.14,1.14,0,0,0-.22-.77.72.72,0,0,0-.55-.26.67.67,0,0,0-.53.26A1.11,1.11,0,0,0,163,119.92Z"/><path class="cls-1" d="M165.69,121.36v-3.84h.47v1.37a1.07,1.07,0,0,1,.83-.38,1.13,1.13,0,0,1,.54.12.77.77,0,0,1,.33.34,1.63,1.63,0,0,1,.1.62v1.77h-.48v-1.77a.74.74,0,0,0-.15-.51.56.56,0,0,0-.43-.16.73.73,0,0,0-.4.11.61.61,0,0,0-.26.29,1.45,1.45,0,0,0-.08.52v1.52Z"/><path class="cls-1" d="M170.16,121.36v-2.79h.43V119a.94.94,0,0,1,.3-.39.47.47,0,0,1,.3-.1.9.9,0,0,1,.48.15l-.16.44a.63.63,0,0,0-.34-.1.45.45,0,0,0-.28.09.49.49,0,0,0-.18.26,1.92,1.92,0,0,0-.08.55v1.46Z"/><path class="cls-1" d="M172,118.06v-.54h.47v.54Zm0,3.3v-2.79h.47v2.79Z"/><path class="cls-1" d="M173,120.53l.46-.08a.66.66,0,0,0,.22.43.78.78,0,0,0,.51.15.74.74,0,0,0,.48-.13.41.41,0,0,0,.16-.31.29.29,0,0,0-.14-.25,2.06,2.06,0,0,0-.49-.16,4.39,4.39,0,0,1-.72-.23.7.7,0,0,1-.3-.26.72.72,0,0,1-.1-.38.77.77,0,0,1,.08-.34.83.83,0,0,1,.23-.26,1,1,0,0,1,.3-.14,1.4,1.4,0,0,1,.41-.06,1.5,1.5,0,0,1,.58.1.75.75,0,0,1,.36.25,1,1,0,0,1,.17.43l-.47.07a.5.5,0,0,0-.18-.34.66.66,0,0,0-.42-.12.79.79,0,0,0-.47.11.31.31,0,0,0-.14.25.25.25,0,0,0,.06.16.42.42,0,0,0,.18.13l.42.12a5.49,5.49,0,0,1,.7.22.76.76,0,0,1,.31.25.72.72,0,0,1,.11.4.77.77,0,0,1-.14.44.91.91,0,0,1-.39.33,1.59,1.59,0,0,1-.59.11,1.32,1.32,0,0,1-.83-.22A1,1,0,0,1,173,120.53Z"/><path class="cls-1" d="M175.83,121.36v-3.84h.48v2.19l1.11-1.14H178l-1.06,1,1.17,1.75h-.58l-.92-1.42-.33.32v1.1Z"/><path class="cls-1" d="M179.83,120a1.46,1.46,0,0,1,.43-1.15,1.38,1.38,0,0,1,1.82.07,1.43,1.43,0,0,1,.36,1,1.77,1.77,0,0,1-.16.84,1.09,1.09,0,0,1-.47.48,1.39,1.39,0,0,1-.67.17,1.26,1.26,0,0,1-.95-.37A1.5,1.5,0,0,1,179.83,120Zm.49,0a1.23,1.23,0,0,0,.23.8.77.77,0,0,0,.59.26.75.75,0,0,0,.58-.26A1.2,1.2,0,0,0,182,120a1.14,1.14,0,0,0-.24-.78.77.77,0,0,0-1.17,0A1.19,1.19,0,0,0,180.32,120Z"/><path class="cls-1" d="M183.11,121.36v-2.42h-.42v-.37h.42v-.29a1.13,1.13,0,0,1,0-.42.58.58,0,0,1,.24-.3.9.9,0,0,1,.48-.11,2.47,2.47,0,0,1,.44,0l-.07.41-.28,0a.4.4,0,0,0-.3.09.53.53,0,0,0-.09.35v.25h.54v.37h-.54v2.42Z"/><path class="cls-1" d="M157.69,127.8V124h1.45a4.37,4.37,0,0,1,.59,0,1.44,1.44,0,0,1,.47.18,1,1,0,0,1,.31.38,1.11,1.11,0,0,1,.12.52,1.18,1.18,0,0,1-.32.83,1.46,1.46,0,0,1-1.12.34h-1v1.56Zm.51-2h1a1,1,0,0,0,.7-.19.64.64,0,0,0,.21-.51.72.72,0,0,0-.12-.42.55.55,0,0,0-.32-.22,1.79,1.79,0,0,0-.48,0h-1Z"/><path class="cls-1" d="M161.2,127.8V124h.47v3.84Z"/><path class="cls-1" d="M164.23,127.8v-.41a1,1,0,0,1-.88.47,1.14,1.14,0,0,1-.46-.09.68.68,0,0,1-.32-.24.86.86,0,0,1-.15-.35,2.51,2.51,0,0,1,0-.44V125h.47v1.54a2.68,2.68,0,0,0,0,.5.52.52,0,0,0,.18.29.61.61,0,0,0,.36.11.8.8,0,0,0,.4-.11.59.59,0,0,0,.26-.3,1.46,1.46,0,0,0,.08-.54V125h.47v2.78Z"/><path class="cls-1" d="M165.39,127.8V125h.43v.39a1,1,0,0,1,.88-.46,1.23,1.23,0,0,1,.47.09.78.78,0,0,1,.31.24,1,1,0,0,1,.15.35,2.64,2.64,0,0,1,0,.46v1.71h-.47v-1.69a1.48,1.48,0,0,0-.05-.43.45.45,0,0,0-.2-.23.58.58,0,0,0-.33-.09.81.81,0,0,0-.52.19,1,1,0,0,0-.22.73v1.52Z"/><path class="cls-1" d="M168.29,128l.46.07a.43.43,0,0,0,.16.31.78.78,0,0,0,.48.13.84.84,0,0,0,.51-.13.64.64,0,0,0,.24-.37,3.69,3.69,0,0,0,0-.6,1,1,0,0,1-.77.36,1.07,1.07,0,0,1-.89-.41,1.61,1.61,0,0,1-.31-1,1.94,1.94,0,0,1,.14-.73,1.13,1.13,0,0,1,1.06-.71,1,1,0,0,1,.82.4V125h.43v2.4a2.32,2.32,0,0,1-.13.93,1,1,0,0,1-.42.42,1.41,1.41,0,0,1-.71.16,1.31,1.31,0,0,1-.8-.22A.75.75,0,0,1,168.29,128Zm.39-1.67a1.18,1.18,0,0,0,.22.8.72.72,0,0,0,1.09,0,1.15,1.15,0,0,0,.22-.78,1.12,1.12,0,0,0-.23-.78.71.71,0,0,0-1.08,0A1.17,1.17,0,0,0,168.68,126.36Z"/><path class="cls-1" d="M173.27,126.9l.49.07a1.22,1.22,0,0,1-.43.66,1.27,1.27,0,0,1-.8.23,1.25,1.25,0,0,1-1-.37,1.46,1.46,0,0,1-.36-1.06,1.54,1.54,0,0,1,.36-1.09,1.3,1.3,0,0,1,1.85,0,1.5,1.5,0,0,1,.35,1.07v.13h-2.08a1.09,1.09,0,0,0,.26.7.76.76,0,0,0,.59.25.72.72,0,0,0,.44-.14A.92.92,0,0,0,173.27,126.9Zm-1.55-.76h1.56a1.14,1.14,0,0,0-.18-.53.74.74,0,0,0-.59-.27.72.72,0,0,0-.54.22A.86.86,0,0,0,171.72,126.14Z"/><path class="cls-1" d="M157.3,84.61V80.77h.51v3.39h1.89v.45Z"/><path class="cls-1" d="M160.07,83.22a1.41,1.41,0,0,1,.43-1.14,1.28,1.28,0,0,1,.88-.31,1.23,1.23,0,0,1,.93.37,1.41,1.41,0,0,1,.37,1,2,2,0,0,1-.16.85,1.27,1.27,0,0,1-.47.48,1.42,1.42,0,0,1-.67.17,1.27,1.27,0,0,1-.95-.38A1.5,1.5,0,0,1,160.07,83.22Zm.48,0a1.14,1.14,0,0,0,.24.8.74.74,0,0,0,.59.27A.74.74,0,0,0,162,84a1.19,1.19,0,0,0,.23-.81,1.15,1.15,0,0,0-.23-.79.77.77,0,0,0-.58-.26.76.76,0,0,0-.59.26A1.18,1.18,0,0,0,160.55,83.22Z"/><path class="cls-1" d="M163.75,84.61l-.86-2.78h.49l.44,1.61L164,84s0-.22.14-.57l.45-1.63h.48l.42,1.61.14.54.16-.54.47-1.61h.46l-.87,2.78h-.49L164.91,83l-.11-.48-.56,2.14Z"/><path class="cls-1" d="M168.6,84.61V81.83H169v.42a1.13,1.13,0,0,1,.3-.39.53.53,0,0,1,.3-.09,1,1,0,0,1,.49.15l-.16.44a.69.69,0,0,0-.35-.1.47.47,0,0,0-.28.09.48.48,0,0,0-.17.26,1.59,1.59,0,0,0-.08.55v1.45Z"/><path class="cls-1" d="M170.39,81.31v-.54h.47v.54Zm0,3.3V81.83h.47v2.78Z"/><path class="cls-1" d="M171.39,83.78l.47-.07a.66.66,0,0,0,.22.43.76.76,0,0,0,.5.15.71.71,0,0,0,.48-.13.4.4,0,0,0,.16-.31.31.31,0,0,0-.14-.26,2.25,2.25,0,0,0-.48-.16,4,4,0,0,1-.72-.22.74.74,0,0,1-.31-.27.76.76,0,0,1-.1-.37.73.73,0,0,1,.09-.35.71.71,0,0,1,.23-.26,1.05,1.05,0,0,1,.3-.14,1.77,1.77,0,0,1,.41,0,1.66,1.66,0,0,1,.57.09.75.75,0,0,1,.37.26.94.94,0,0,1,.16.43l-.46.06a.49.49,0,0,0-.18-.33.69.69,0,0,0-.43-.12.76.76,0,0,0-.46.1.3.3,0,0,0-.14.25.25.25,0,0,0,.06.17.38.38,0,0,0,.18.13l.41.12a5,5,0,0,1,.7.22.62.62,0,0,1,.31.24.69.69,0,0,1,.12.41.82.82,0,0,1-.14.44.85.85,0,0,1-.4.32,1.38,1.38,0,0,1-.59.12,1.29,1.29,0,0,1-.82-.23A1.08,1.08,0,0,1,171.39,83.78Z"/><path class="cls-1" d="M174.27,84.61V80.77h.47V83l1.12-1.13h.61l-1.07,1,1.18,1.75H176l-.92-1.42-.33.32v1.1Z"/><path class="cls-1" d="M178.27,83.22a1.41,1.41,0,0,1,.43-1.14,1.27,1.27,0,0,1,.87-.31,1.24,1.24,0,0,1,.94.37,1.45,1.45,0,0,1,.37,1,1.83,1.83,0,0,1-.17.85,1.18,1.18,0,0,1-.46.48,1.43,1.43,0,0,1-.68.17,1.24,1.24,0,0,1-.94-.38A1.5,1.5,0,0,1,178.27,83.22Zm.48,0a1.14,1.14,0,0,0,.24.8.73.73,0,0,0,.58.27.75.75,0,0,0,.59-.27,1.24,1.24,0,0,0,.23-.81,1.2,1.2,0,0,0-.23-.79.77.77,0,0,0-.59-.26.75.75,0,0,0-.58.26A1.18,1.18,0,0,0,178.75,83.22Z"/><path class="cls-1" d="M181.54,84.61V82.2h-.42v-.37h.42v-.3a1.37,1.37,0,0,1,.05-.41.64.64,0,0,1,.24-.3.85.85,0,0,1,.48-.11,2.39,2.39,0,0,1,.44,0l-.07.41-.28,0a.41.41,0,0,0-.3.09.5.5,0,0,0-.09.34v.26h.54v.37H182v2.41Z"/><path class="cls-1" d="M157.32,91.06V87.21h1.45a3.91,3.91,0,0,1,.58,0,1.15,1.15,0,0,1,.48.18,1,1,0,0,1,.31.37,1.29,1.29,0,0,1,.11.53,1.19,1.19,0,0,1-.31.83,1.53,1.53,0,0,1-1.13.33h-1v1.57Zm.51-2h1a1.07,1.07,0,0,0,.7-.18.66.66,0,0,0,.21-.52.69.69,0,0,0-.12-.41.57.57,0,0,0-.32-.23,2.57,2.57,0,0,0-.48,0h-1Z"/><path class="cls-1" d="M160.83,91.06V87.21h.47v3.85Z"/><path class="cls-1" d="M163.86,91.06v-.41a1,1,0,0,1-.89.47,1.22,1.22,0,0,1-.46-.09.88.88,0,0,1-.31-.24.93.93,0,0,1-.15-.35,2.29,2.29,0,0,1,0-.44V88.27h.47v1.55a2.75,2.75,0,0,0,0,.5.53.53,0,0,0,.19.29.61.61,0,0,0,.36.1.82.82,0,0,0,.4-.1.68.68,0,0,0,.26-.3,1.56,1.56,0,0,0,.08-.55V88.27h.47v2.79Z"/><path class="cls-1" d="M165,91.06V88.27h.42v.4a1,1,0,0,1,.89-.46,1.14,1.14,0,0,1,.46.09.73.73,0,0,1,.32.24.93.93,0,0,1,.15.35,4.17,4.17,0,0,1,0,.46v1.71h-.47v-1.7a1.19,1.19,0,0,0-.06-.43.47.47,0,0,0-.19-.23.67.67,0,0,0-.33-.08.76.76,0,0,0-.52.19.94.94,0,0,0-.22.73v1.52Z"/><path class="cls-1" d="M167.92,91.29l.46.07a.45.45,0,0,0,.16.31.85.85,0,0,0,.48.13.88.88,0,0,0,.5-.13.7.7,0,0,0,.25-.37,3.84,3.84,0,0,0,0-.61,1,1,0,0,1-.77.37,1.05,1.05,0,0,1-.89-.42,1.57,1.57,0,0,1-.32-1,1.81,1.81,0,0,1,.15-.74,1.2,1.2,0,0,1,.42-.52,1.12,1.12,0,0,1,.64-.18,1,1,0,0,1,.81.4v-.34h.44v2.41a2.45,2.45,0,0,1-.13.92,1,1,0,0,1-.42.43,1.52,1.52,0,0,1-.71.16,1.31,1.31,0,0,1-.8-.23A.73.73,0,0,1,167.92,91.29Zm.39-1.67a1.19,1.19,0,0,0,.22.8.69.69,0,0,0,.54.25.73.73,0,0,0,.55-.25,1.17,1.17,0,0,0,.22-.79,1.14,1.14,0,0,0-.23-.77.69.69,0,0,0-1.08,0A1.11,1.11,0,0,0,168.31,89.62Z"/><path class="cls-1" d="M172.9,90.16l.49.06a1.15,1.15,0,0,1-.43.66,1.44,1.44,0,0,1-1.77-.14,1.45,1.45,0,0,1-.36-1,1.54,1.54,0,0,1,.37-1.09,1.3,1.3,0,0,1,1.85,0,1.53,1.53,0,0,1,.35,1.07v.13h-2.08a1.11,1.11,0,0,0,.26.7.78.78,0,0,0,.58.24.75.75,0,0,0,.45-.13A.92.92,0,0,0,172.9,90.16Zm-1.55-.76h1.55a.92.92,0,0,0-.18-.53.72.72,0,0,0-.58-.27.74.74,0,0,0-.55.22A.84.84,0,0,0,171.35,89.4Z"/><g id="Layer_2-2" data-name="Layer 2"><g id="Isolation_Mode" data-name="Isolation Mode"><path class="cls-2" d="M99.61,21.67a8.19,8.19,0,1,1-8.18,8.18,8.19,8.19,0,0,1,8.18-8.18"/><polyline class="cls-3" points="11.54 30.6 35.75 70.1 63.46 28.97"/><circle class="cls-4" cx="35.46" cy="69.51" r="11.22"/><path class="cls-5" d="M63,4.27A24.7,24.7,0,1,1,38.28,29V29A24.69,24.69,0,0,1,63,4.27h0"/><path class="cls-6" d="M12.13,18.69A12.16,12.16,0,1,1,0,30.87v0A12.15,12.15,0,0,1,12.13,18.69"/><line class="cls-7" x1="35.75" y1="70.1" x2="63.46" y2="28.96"/></g></g><path class="cls-8" d="M140.65,0a3.57,3.57,0,1,0,3.57,3.57A3.57,3.57,0,0,0,140.65,0"/><path class="cls-1" d="M147.64,5.11V1.27h1.7a2.29,2.29,0,0,1,.79.1.83.83,0,0,1,.42.37,1.06,1.06,0,0,1,.16.58,1,1,0,0,1-.26.69,1.39,1.39,0,0,1-.82.35,1.91,1.91,0,0,1,.31.19,2.51,2.51,0,0,1,.42.52l.67,1h-.64l-.51-.8c-.15-.23-.27-.4-.37-.53a1,1,0,0,0-.26-.25.7.7,0,0,0-.23-.11h-.87v1.7ZM148.15,3h1.09a1.63,1.63,0,0,0,.55-.07.58.58,0,0,0,.3-.23.67.67,0,0,0,.1-.34.59.59,0,0,0-.2-.45.9.9,0,0,0-.62-.18h-1.22Z"/><path class="cls-1" d="M153.36,4.22l.48.06a1.2,1.2,0,0,1-.42.66,1.48,1.48,0,0,1-1.77-.14,1.46,1.46,0,0,1-.36-1.06,1.56,1.56,0,0,1,.36-1.09,1.24,1.24,0,0,1,.94-.39,1.17,1.17,0,0,1,.91.39,1.48,1.48,0,0,1,.36,1.06v.13h-2.08a1,1,0,0,0,.26.7.74.74,0,0,0,.58.25.72.72,0,0,0,.44-.14A.89.89,0,0,0,153.36,4.22Zm-1.55-.77h1.55a.89.89,0,0,0-.18-.52.7.7,0,0,0-.58-.28.78.78,0,0,0-.55.22A.83.83,0,0,0,151.81,3.45Z"/><path class="cls-1" d="M154.43,5.11V1.27h.47V5.11Z"/><path class="cls-1" d="M155.63,1.81V1.27h.47v.54Zm0,3.3V2.33h.47V5.11Z"/><path class="cls-1" d="M156.74,5.34l.45.07a.46.46,0,0,0,.16.31.78.78,0,0,0,.48.13.84.84,0,0,0,.51-.13.64.64,0,0,0,.24-.37,2.2,2.2,0,0,0,0-.6,1,1,0,0,1-.77.36A1.05,1.05,0,0,1,157,4.7a1.62,1.62,0,0,1-.32-1,1.77,1.77,0,0,1,.15-.73,1.08,1.08,0,0,1,.41-.52,1.18,1.18,0,0,1,.65-.19,1,1,0,0,1,.81.4V2.33h.43v2.4a2.28,2.28,0,0,1-.13.93,1,1,0,0,1-.42.43,1.48,1.48,0,0,1-.7.15A1.34,1.34,0,0,1,157,6,.77.77,0,0,1,156.74,5.34Zm.39-1.67a1.24,1.24,0,0,0,.21.8.7.7,0,0,0,.55.25.66.66,0,0,0,.54-.25,1.15,1.15,0,0,0,.22-.78,1.14,1.14,0,0,0-.22-.77.69.69,0,0,0-.55-.26.66.66,0,0,0-.53.25A1.13,1.13,0,0,0,157.13,3.67Z"/><path class="cls-1" d="M159.81,1.81V1.27h.47v.54Zm0,3.3V2.33h.47V5.11Z"/><path class="cls-1" d="M160.82,3.72a1.48,1.48,0,0,1,.43-1.15,1.35,1.35,0,0,1,.88-.31,1.26,1.26,0,0,1,.94.38,1.45,1.45,0,0,1,.36,1,1.84,1.84,0,0,1-.16.85,1.2,1.2,0,0,1-.47.48,1.38,1.38,0,0,1-.67.16,1.24,1.24,0,0,1-.94-.37A1.46,1.46,0,0,1,160.82,3.72Zm.49,0a1.21,1.21,0,0,0,.23.8.75.75,0,0,0,.59.27.73.73,0,0,0,.58-.27A1.2,1.2,0,0,0,163,3.7a1.14,1.14,0,0,0-.24-.78.72.72,0,0,0-.58-.26.74.74,0,0,0-.59.26A1.21,1.21,0,0,0,161.31,3.72Z"/><path class="cls-1" d="M165.81,5.11V4.7a1,1,0,0,1-.88.47,1.14,1.14,0,0,1-.46-.09.73.73,0,0,1-.32-.24.86.86,0,0,1-.15-.35,4.17,4.17,0,0,1,0-.44V2.33h.47V3.87a2.6,2.6,0,0,0,0,.5.48.48,0,0,0,.19.29.56.56,0,0,0,.35.11.8.8,0,0,0,.4-.11.55.55,0,0,0,.26-.3,1.28,1.28,0,0,0,.08-.54V2.33h.47V5.11Z"/><path class="cls-1" d="M166.78,4.28l.47-.07a.69.69,0,0,0,.22.43.93.93,0,0,0,1,0,.4.4,0,0,0,.16-.32.28.28,0,0,0-.14-.25,2.25,2.25,0,0,0-.48-.16,5.06,5.06,0,0,1-.72-.22.79.79,0,0,1-.3-.27.7.7,0,0,1,0-.72.71.71,0,0,1,.23-.26,1.05,1.05,0,0,1,.3-.14,1.35,1.35,0,0,1,.41-.06,1.61,1.61,0,0,1,.57.1.75.75,0,0,1,.37.26.94.94,0,0,1,.16.43l-.46.06a.52.52,0,0,0-.18-.34.67.67,0,0,0-.43-.12.78.78,0,0,0-.46.11.3.3,0,0,0-.14.25.27.27,0,0,0,.06.17.36.36,0,0,0,.18.12l.41.12a6.9,6.9,0,0,1,.7.22.7.7,0,0,1,.31.25.65.65,0,0,1,.12.4.82.82,0,0,1-.14.45.85.85,0,0,1-.4.32,1.38,1.38,0,0,1-.59.11,1.29,1.29,0,0,1-.82-.22A1.08,1.08,0,0,1,166.78,4.28Z"/><path class="cls-1" d="M169.78,5.11V4.58h.54v.53a1,1,0,0,1-.11.48.66.66,0,0,1-.33.28l-.13-.2a.46.46,0,0,0,.22-.19.88.88,0,0,0,.08-.37Z"/><path class="cls-1" d="M147.61,11.56V7.71h.51V11.1H150v.46Z"/><path class="cls-1" d="M150.38,10.16A1.46,1.46,0,0,1,150.81,9a1.28,1.28,0,0,1,.88-.31,1.24,1.24,0,0,1,.94.38,1.42,1.42,0,0,1,.36,1,1.84,1.84,0,0,1-.16.85,1.14,1.14,0,0,1-.47.48,1.39,1.39,0,0,1-.67.17,1.27,1.27,0,0,1-.95-.38A1.5,1.5,0,0,1,150.38,10.16Zm.49,0a1.19,1.19,0,0,0,.23.8.75.75,0,0,0,.59.27.73.73,0,0,0,.58-.27,1.17,1.17,0,0,0,.24-.81,1.1,1.1,0,0,0-.24-.78.73.73,0,0,0-.58-.27.77.77,0,0,0-.59.26A1.23,1.23,0,0,0,150.87,10.16Z"/><path class="cls-1" d="M154.06,11.56l-.85-2.79h.48l.45,1.61.16.6s.06-.22.15-.58l.44-1.63h.48l.42,1.62.14.53.16-.54.48-1.61H157l-.87,2.79h-.49l-.45-1.67-.11-.48-.56,2.15Z"/><path class="cls-1" d="M160,11.56V8.17h-1.26V7.71h3v.46h-1.27v3.39Z"/><path class="cls-1" d="M162.19,11.56V8.77h.42v.42a1.38,1.38,0,0,1,.3-.39.56.56,0,0,1,.31-.09.9.9,0,0,1,.48.15l-.16.44a.67.67,0,0,0-.35-.1.49.49,0,0,0-.28.09.48.48,0,0,0-.17.26,1.87,1.87,0,0,0-.08.55v1.46Z"/><path class="cls-1" d="M165.81,11.56v-.41a1,1,0,0,1-.89.47,1.06,1.06,0,0,1-.46-.1.7.7,0,0,1-.31-.23.93.93,0,0,1-.15-.35,2.36,2.36,0,0,1,0-.44V8.77h.47v1.55a2.55,2.55,0,0,0,0,.49.48.48,0,0,0,.19.3.61.61,0,0,0,.36.1.73.73,0,0,0,.4-.11.61.61,0,0,0,.26-.29,1.56,1.56,0,0,0,.08-.55V8.77h.47v2.79Z"/><path class="cls-1" d="M166.78,10.72l.47-.07a.61.61,0,0,0,.21.43.78.78,0,0,0,.51.15.74.74,0,0,0,.48-.13.41.41,0,0,0,.16-.31.29.29,0,0,0-.14-.25,1.67,1.67,0,0,0-.49-.16,4.91,4.91,0,0,1-.71-.23.63.63,0,0,1-.31-.27.66.66,0,0,1-.1-.37.77.77,0,0,1,.08-.34.87.87,0,0,1,.23-.27,1.29,1.29,0,0,1,.31-.14,1.68,1.68,0,0,1,.4,0,1.72,1.72,0,0,1,.58.09.78.78,0,0,1,.36.26,1,1,0,0,1,.17.43l-.47.06a.49.49,0,0,0-.18-.33.66.66,0,0,0-.42-.12.82.82,0,0,0-.47.1.34.34,0,0,0-.14.26.25.25,0,0,0,.06.16.52.52,0,0,0,.18.13l.42.12a5.49,5.49,0,0,1,.7.22.74.74,0,0,1,.31.24.76.76,0,0,1,.11.41.74.74,0,0,1-.14.44.91.91,0,0,1-.39.33,1.59,1.59,0,0,1-.59.11,1.32,1.32,0,0,1-.83-.23A1,1,0,0,1,166.78,10.72Z"/><path class="cls-1" d="M170.68,11.13l.07.42a1.59,1.59,0,0,1-.36,0,.71.71,0,0,1-.39-.08.41.41,0,0,1-.2-.21,1.67,1.67,0,0,1-.06-.56V9.14h-.35V8.77h.35V8.08l.47-.28v1h.47v.37h-.47v1.63a1.26,1.26,0,0,0,0,.26l.08.09a.4.4,0,0,0,.17,0A.79.79,0,0,0,170.68,11.13Z"/><path class="cls-1" d="M147.72,18V14.15h.51V18Z"/><path class="cls-1" d="M149.06,18V15.21h.43v.4a1,1,0,0,1,.88-.46,1.19,1.19,0,0,1,.47.09.7.7,0,0,1,.31.24.93.93,0,0,1,.15.35,2.39,2.39,0,0,1,0,.46V18h-.48V16.3a1.23,1.23,0,0,0,0-.43.43.43,0,0,0-.2-.22.58.58,0,0,0-.33-.09.76.76,0,0,0-.52.19,1,1,0,0,0-.21.73V18Z"/><path class="cls-1" d="M153.43,16.76l.48,0a.94.94,0,0,0,.16.47.78.78,0,0,0,.38.3,1.45,1.45,0,0,0,.59.12,1.38,1.38,0,0,0,.52-.09.71.71,0,0,0,.33-.24A.56.56,0,0,0,156,17a.5.5,0,0,0-.11-.32.75.75,0,0,0-.34-.23l-.69-.19a3,3,0,0,1-.74-.24,1,1,0,0,1-.41-.35.89.89,0,0,1-.13-.48,1,1,0,0,1,.16-.55,1.09,1.09,0,0,1,.48-.38,1.83,1.83,0,0,1,.71-.13,1.79,1.79,0,0,1,.75.14,1,1,0,0,1,.5.4,1.16,1.16,0,0,1,.19.61l-.48,0a.83.83,0,0,0-.27-.55,1.05,1.05,0,0,0-.67-.18,1,1,0,0,0-.67.17.5.5,0,0,0-.21.4.45.45,0,0,0,.15.35,2.06,2.06,0,0,0,.76.27,4.57,4.57,0,0,1,.85.24,1.21,1.21,0,0,1,.5.4.91.91,0,0,1,.16.54,1,1,0,0,1-.18.58,1.1,1.1,0,0,1-.5.42,1.78,1.78,0,0,1-.74.15,2.28,2.28,0,0,1-.88-.15,1.18,1.18,0,0,1-.55-.46A1.34,1.34,0,0,1,153.43,16.76Z"/><path class="cls-1" d="M158.94,17l.46.06a1.19,1.19,0,0,1-.39.75,1.1,1.1,0,0,1-.76.27,1.18,1.18,0,0,1-.92-.37,1.49,1.49,0,0,1-.35-1.07,1.92,1.92,0,0,1,.15-.79,1,1,0,0,1,.45-.51,1.42,1.42,0,0,1,.67-.17,1.17,1.17,0,0,1,.74.23,1,1,0,0,1,.37.65l-.46.07a.75.75,0,0,0-.23-.42.63.63,0,0,0-.4-.14.71.71,0,0,0-.58.26,1.16,1.16,0,0,0-.23.8,1.28,1.28,0,0,0,.22.82.69.69,0,0,0,.56.25.61.61,0,0,0,.46-.17A.8.8,0,0,0,158.94,17Z"/><path class="cls-1" d="M159.81,14.7v-.55h.47v.55Zm0,3.3V15.21h.47V18Z"/><path class="cls-1" d="M162.91,17.1l.48.06a1.2,1.2,0,0,1-.42.67,1.35,1.35,0,0,1-.8.23,1.24,1.24,0,0,1-1-.38,1.45,1.45,0,0,1-.36-1.05,1.5,1.5,0,0,1,.37-1.09,1.3,1.3,0,0,1,1.85,0,1.53,1.53,0,0,1,.35,1.07v.13h-2.08a1.06,1.06,0,0,0,.26.7.78.78,0,0,0,.58.24.75.75,0,0,0,.45-.13A1,1,0,0,0,162.91,17.1Zm-1.55-.76h1.55a.92.92,0,0,0-.18-.53.72.72,0,0,0-.58-.27.74.74,0,0,0-.55.22A.81.81,0,0,0,161.36,16.34Z"/><path class="cls-1" d="M164,18V15.21h.42v.4a1,1,0,0,1,.89-.46,1.14,1.14,0,0,1,.46.09.73.73,0,0,1,.32.24.78.78,0,0,1,.14.35,2.39,2.39,0,0,1,0,.46V18h-.47V16.3a1.19,1.19,0,0,0-.06-.43.41.41,0,0,0-.19-.22.63.63,0,0,0-.33-.09.74.74,0,0,0-.52.19.94.94,0,0,0-.22.73V18Z"/><path class="cls-1" d="M168.79,17l.46.06a1.19,1.19,0,0,1-.39.75,1.11,1.11,0,0,1-.77.27,1.17,1.17,0,0,1-.91-.37,1.49,1.49,0,0,1-.35-1.07,1.92,1.92,0,0,1,.15-.79,1,1,0,0,1,.45-.51,1.42,1.42,0,0,1,.67-.17,1.17,1.17,0,0,1,.74.23,1.08,1.08,0,0,1,.37.65l-.46.07a.75.75,0,0,0-.23-.42.63.63,0,0,0-.4-.14.69.69,0,0,0-.58.26,1.16,1.16,0,0,0-.23.8,1.28,1.28,0,0,0,.22.82.69.69,0,0,0,.56.25.63.63,0,0,0,.46-.17A.8.8,0,0,0,168.79,17Z"/><path class="cls-1" d="M171.56,17.1l.49.06a1.21,1.21,0,0,1-.43.67,1.3,1.3,0,0,1-.79.23,1.24,1.24,0,0,1-1-.38,1.45,1.45,0,0,1-.36-1.05,1.54,1.54,0,0,1,.36-1.09,1.23,1.23,0,0,1,.94-.39,1.19,1.19,0,0,1,.91.38,1.49,1.49,0,0,1,.36,1.07.72.72,0,0,1,0,.13H170a1.06,1.06,0,0,0,.26.7.77.77,0,0,0,.58.24.72.72,0,0,0,.44-.13A.85.85,0,0,0,171.56,17.1ZM170,16.34h1.56a.92.92,0,0,0-.18-.53.72.72,0,0,0-.58-.27.74.74,0,0,0-.55.22A.86.86,0,0,0,170,16.34Z"/><path class="cls-1" d="M175,19.13a4.63,4.63,0,0,1-.66-1.16,3.55,3.55,0,0,1-.27-1.36,3.44,3.44,0,0,1,.2-1.2,5.12,5.12,0,0,1,.73-1.32h.34a5.43,5.43,0,0,0-.42.78,4,4,0,0,0-.37,1.74,4.68,4.68,0,0,0,.79,2.52Z"/><path class="cls-1" d="M175.88,15.08a1.14,1.14,0,0,1,.21-.7.7.7,0,0,1,.6-.29.76.76,0,0,1,.6.26,1.06,1.06,0,0,1,.23.76,1.09,1.09,0,0,1-.23.75.79.79,0,0,1-.6.26.77.77,0,0,1-.58-.26A1.15,1.15,0,0,1,175.88,15.08Zm.82-.67a.35.35,0,0,0-.29.16.93.93,0,0,0-.12.56.87.87,0,0,0,.12.52.36.36,0,0,0,.29.15.35.35,0,0,0,.3-.16,1,1,0,0,0,.11-.55,1,1,0,0,0-.11-.53A.37.37,0,0,0,176.7,14.41Zm0,3.73,2.11-4.05h.38l-2.09,4.05Zm1.67-1a1.26,1.26,0,0,1,.2-.71.7.7,0,0,1,.61-.28.76.76,0,0,1,.6.26,1.11,1.11,0,0,1,.23.76,1.09,1.09,0,0,1-.24.75.77.77,0,0,1-.59.26.75.75,0,0,1-.58-.26A1.12,1.12,0,0,1,178.37,17.1Zm.82-.67a.33.33,0,0,0-.29.16.91.91,0,0,0-.12.55.84.84,0,0,0,.12.52.35.35,0,0,0,.29.15.34.34,0,0,0,.29-.15.91.91,0,0,0,.12-.55.88.88,0,0,0-.12-.53A.35.35,0,0,0,179.19,16.43Z"/><path class="cls-1" d="M181,19.13h-.34a4.75,4.75,0,0,0,.78-2.52,4.6,4.6,0,0,0-.11-1,3.89,3.89,0,0,0-.25-.75c-.07-.16-.21-.42-.42-.79H181a5.12,5.12,0,0,1,.73,1.32,3.68,3.68,0,0,1,.2,1.2,3.55,3.55,0,0,1-.27,1.36A5,5,0,0,1,181,19.13Z"/><path class="cls-5" d="M140.66,145.44a3.57,3.57,0,1,0,3.57,3.56,3.56,3.56,0,0,0-3.57-3.56"/><path class="cls-1" d="M147.65,150.55V146.7h1.7a2.23,2.23,0,0,1,.78.11.88.88,0,0,1,.43.36,1.18,1.18,0,0,1,.16.58.93.93,0,0,1-.27.69,1.3,1.3,0,0,1-.81.36,1.3,1.3,0,0,1,.3.19,2.72,2.72,0,0,1,.42.51l.67,1.05h-.64l-.51-.8c-.14-.23-.27-.41-.36-.53a1.26,1.26,0,0,0-.26-.26.77.77,0,0,0-.23-.1l-.29,0h-.59v1.71Zm.5-2.15h1.1a1.57,1.57,0,0,0,.54-.07.64.64,0,0,0,.3-.23.62.62,0,0,0,.1-.35.58.58,0,0,0-.19-.45,1,1,0,0,0-.63-.17h-1.22Z"/><path class="cls-1" d="M153.36,149.65l.49.06a1.15,1.15,0,0,1-.43.66,1.42,1.42,0,0,1-1.76-.14,1.45,1.45,0,0,1-.36-1,1.54,1.54,0,0,1,.36-1.09,1.3,1.3,0,0,1,1.85,0,1.49,1.49,0,0,1,.35,1.07v.13h-2.08a1.11,1.11,0,0,0,.26.7.79.79,0,0,0,.59.24.72.72,0,0,0,.44-.13A1,1,0,0,0,153.36,149.65Zm-1.55-.76h1.56a1,1,0,0,0-.18-.53.74.74,0,0,0-.59-.27.72.72,0,0,0-.54.22A.86.86,0,0,0,151.81,148.89Z"/><path class="cls-1" d="M154.43,150.55V146.7h.47v3.85Z"/><path class="cls-1" d="M155.64,147.25v-.55h.47v.55Zm0,3.3v-2.79h.47v2.79Z"/><path class="cls-1" d="M156.74,150.78l.46.07a.45.45,0,0,0,.16.31,1,1,0,0,0,1,0,.7.7,0,0,0,.25-.37,3.84,3.84,0,0,0,0-.61,1,1,0,0,1-.77.37,1.05,1.05,0,0,1-.89-.42,1.56,1.56,0,0,1-.31-1,1.81,1.81,0,0,1,.14-.74,1.28,1.28,0,0,1,.42-.52,1.14,1.14,0,0,1,.64-.18,1,1,0,0,1,.81.4v-.34h.44v2.41a2.26,2.26,0,0,1-.13.92,1,1,0,0,1-.42.43,1.52,1.52,0,0,1-.71.16,1.31,1.31,0,0,1-.8-.23A.73.73,0,0,1,156.74,150.78Zm.39-1.67a1.15,1.15,0,0,0,.22.79.69.69,0,0,0,.54.26.73.73,0,0,0,.55-.25,1.17,1.17,0,0,0,.22-.79,1.14,1.14,0,0,0-.23-.77.69.69,0,0,0-1.08,0A1.11,1.11,0,0,0,157.13,149.11Z"/><path class="cls-1" d="M159.82,147.25v-.55h.47v.55Zm0,3.3v-2.79h.47v2.79Z"/><path class="cls-1" d="M160.83,149.15a1.42,1.42,0,0,1,.43-1.14,1.28,1.28,0,0,1,.88-.31,1.24,1.24,0,0,1,.93.38,1.39,1.39,0,0,1,.37,1,1.93,1.93,0,0,1-.16.84,1.15,1.15,0,0,1-.47.48,1.42,1.42,0,0,1-.67.17,1.3,1.3,0,0,1-.95-.37A1.51,1.51,0,0,1,160.83,149.15Zm.48,0a1.19,1.19,0,0,0,.24.81.76.76,0,0,0,.59.26.74.74,0,0,0,.58-.27,1.17,1.17,0,0,0,.23-.81,1.12,1.12,0,0,0-.23-.78.74.74,0,0,0-.58-.27.74.74,0,0,0-.59.27A1.13,1.13,0,0,0,161.31,149.15Z"/><path class="cls-1" d="M165.82,150.55v-.41a1,1,0,0,1-.89.47,1.22,1.22,0,0,1-.46-.09.8.8,0,0,1-.31-.24.93.93,0,0,1-.15-.35,2.29,2.29,0,0,1,0-.44v-1.73h.47v1.55a2.75,2.75,0,0,0,0,.5.48.48,0,0,0,.19.29.61.61,0,0,0,.36.1.82.82,0,0,0,.4-.1.68.68,0,0,0,.26-.3,1.56,1.56,0,0,0,.08-.55v-1.49h.47v2.79Z"/><path class="cls-1" d="M166.79,149.72l.47-.08a.61.61,0,0,0,.21.43.78.78,0,0,0,.51.15.74.74,0,0,0,.48-.13.41.41,0,0,0,.16-.31.29.29,0,0,0-.14-.25,2.06,2.06,0,0,0-.49-.16,5.67,5.67,0,0,1-.72-.23.7.7,0,0,1-.3-.26.72.72,0,0,1-.1-.38.77.77,0,0,1,.08-.34.87.87,0,0,1,.23-.27,1,1,0,0,1,.3-.13,1.4,1.4,0,0,1,.41-.06,1.72,1.72,0,0,1,.58.09.84.84,0,0,1,.36.26,1,1,0,0,1,.17.43l-.47.06a.49.49,0,0,0-.18-.33.66.66,0,0,0-.42-.12.74.74,0,0,0-.47.11.31.31,0,0,0-.14.25.25.25,0,0,0,.06.16.42.42,0,0,0,.18.13l.42.12a5.49,5.49,0,0,1,.7.22.69.69,0,0,1,.31.25.7.7,0,0,1,.11.4.72.72,0,0,1-.14.44.91.91,0,0,1-.39.33,1.59,1.59,0,0,1-.59.11,1.39,1.39,0,0,1-.83-.22A1.08,1.08,0,0,1,166.79,149.72Z"/><path class="cls-1" d="M169.79,150.55V150h.53v.54a1,1,0,0,1-.1.48.71.71,0,0,1-.33.28l-.14-.2a.43.43,0,0,0,.22-.2.69.69,0,0,0,.08-.36Z"/><path class="cls-1" d="M147.65,157v-3.84h.51v1.58h2v-1.58h.51V157h-.51v-1.81h-2V157Z"/><path class="cls-1" d="M151.46,153.69v-.54h.47v.54Zm0,3.3v-2.78h.47V157Z"/><path class="cls-1" d="M152.56,157.22l.46.07a.45.45,0,0,0,.16.31.78.78,0,0,0,.48.13.84.84,0,0,0,.51-.13.75.75,0,0,0,.24-.37,3.69,3.69,0,0,0,0-.6,1,1,0,0,1-.77.36,1.07,1.07,0,0,1-.89-.41,1.61,1.61,0,0,1-.31-1,1.76,1.76,0,0,1,.14-.73,1.16,1.16,0,0,1,.42-.52,1.07,1.07,0,0,1,.64-.19,1,1,0,0,1,.82.4v-.33h.43v2.4a2.23,2.23,0,0,1-.13.92.92.92,0,0,1-.42.43,1.41,1.41,0,0,1-.71.16,1.31,1.31,0,0,1-.8-.22A.75.75,0,0,1,152.56,157.22Zm.39-1.67a1.19,1.19,0,0,0,.22.8.68.68,0,0,0,.54.25.7.7,0,0,0,.55-.25,1.15,1.15,0,0,0,.22-.78,1.17,1.17,0,0,0-.23-.78.69.69,0,0,0-1.08,0A1.11,1.11,0,0,0,153,155.55Z"/><path class="cls-1" d="M155.63,157v-3.84h.48v1.38a1,1,0,0,1,.83-.39,1.05,1.05,0,0,1,.54.13.68.68,0,0,1,.32.33,1.5,1.5,0,0,1,.1.63V157h-.47v-1.76a.75.75,0,0,0-.15-.52.58.58,0,0,0-.44-.16.77.77,0,0,0-.39.11.63.63,0,0,0-.27.29,1.48,1.48,0,0,0-.07.52V157Z"/><path class="cls-1" d="M161.15,157V153.6h-1.27v-.45h3.05v.45h-1.27V157Z"/><path class="cls-1" d="M163.39,157v-2.78h.42v.42a1.13,1.13,0,0,1,.3-.39.54.54,0,0,1,.3-.1.89.89,0,0,1,.49.16l-.16.43a.78.78,0,0,0-.35-.1.47.47,0,0,0-.28.09.52.52,0,0,0-.17.26,1.63,1.63,0,0,0-.08.55V157Z"/><path class="cls-1" d="M167,157v-.41a1,1,0,0,1-.88.47,1.18,1.18,0,0,1-.46-.09.73.73,0,0,1-.32-.24.86.86,0,0,1-.14-.35,2.29,2.29,0,0,1,0-.44v-1.72h.47v1.54a2.68,2.68,0,0,0,0,.5.48.48,0,0,0,.19.29.56.56,0,0,0,.35.11.77.77,0,0,0,.4-.11.56.56,0,0,0,.27-.3,1.5,1.5,0,0,0,.07-.54v-1.49h.48V157Z"/><path class="cls-1" d="M168,156.16l.46-.07a.69.69,0,0,0,.22.43.76.76,0,0,0,.5.15.75.75,0,0,0,.49-.14.4.4,0,0,0,.15-.31.29.29,0,0,0-.13-.25,2.69,2.69,0,0,0-.49-.16,4.39,4.39,0,0,1-.72-.23.7.7,0,0,1-.3-.26.69.69,0,0,1-.1-.37.69.69,0,0,1,.08-.35.82.82,0,0,1,.23-.26,1,1,0,0,1,.3-.14,1.4,1.4,0,0,1,.41-.06,1.72,1.72,0,0,1,.58.1.83.83,0,0,1,.36.25,1,1,0,0,1,.16.44l-.46.06a.5.5,0,0,0-.18-.34.67.67,0,0,0-.43-.12.78.78,0,0,0-.46.11.31.31,0,0,0-.14.25.27.27,0,0,0,.06.17.41.41,0,0,0,.18.12l.42.12a6.1,6.1,0,0,1,.7.22.76.76,0,0,1,.31.25.72.72,0,0,1,.11.4.82.82,0,0,1-.14.45.87.87,0,0,1-.4.32,1.64,1.64,0,0,1-1.41-.11A1,1,0,0,1,168,156.16Z"/><path class="cls-1" d="M171.88,156.57l.07.42a2.47,2.47,0,0,1-.36,0,.89.89,0,0,1-.4-.08.53.53,0,0,1-.2-.22,2,2,0,0,1-.05-.55v-1.61h-.35v-.36h.35v-.69l.47-.29v1h.47v.36h-.47v1.63a.76.76,0,0,0,0,.26.18.18,0,0,0,.08.09.25.25,0,0,0,.16,0Z"/><path class="cls-1" d="M147.72,163.43v-3.84h.51v3.84Z"/><path class="cls-1" d="M149.07,163.43v-2.78h.42V161a1,1,0,0,1,.89-.45,1.14,1.14,0,0,1,.46.09.8.8,0,0,1,.32.23,1,1,0,0,1,.15.35,4.32,4.32,0,0,1,0,.46v1.71h-.47v-1.69a1.16,1.16,0,0,0-.06-.43.43.43,0,0,0-.19-.23.58.58,0,0,0-.33-.09.77.77,0,0,0-.52.2.91.91,0,0,0-.22.72v1.52Z"/><path class="cls-1" d="M153.43,162.2l.48,0a1.18,1.18,0,0,0,.16.47.94.94,0,0,0,.39.3,1.55,1.55,0,0,0,.59.11,1.6,1.6,0,0,0,.51-.08.71.71,0,0,0,.33-.24.56.56,0,0,0,0-.65.78.78,0,0,0-.35-.22,5.37,5.37,0,0,0-.68-.19,4.24,4.24,0,0,1-.74-.24,1,1,0,0,1-.41-.36.87.87,0,0,1-.14-.48,1,1,0,0,1,.17-.54,1,1,0,0,1,.48-.39,1.94,1.94,0,0,1,.7-.13,2,2,0,0,1,.76.14,1.12,1.12,0,0,1,.69,1l-.49,0a.77.77,0,0,0-.27-.55A1,1,0,0,0,155,160a1.1,1.1,0,0,0-.67.17.51.51,0,0,0-.21.41.43.43,0,0,0,.15.34,2,2,0,0,0,.77.27,6,6,0,0,1,.85.25,1.09,1.09,0,0,1,.49.39.94.94,0,0,1,.16.55,1.05,1.05,0,0,1-.17.58,1.18,1.18,0,0,1-.51.42,1.75,1.75,0,0,1-.74.15,2.19,2.19,0,0,1-.87-.15,1.19,1.19,0,0,1-.55-.46A1.26,1.26,0,0,1,153.43,162.2Z"/><path class="cls-1" d="M158.94,162.41l.47.06a1.24,1.24,0,0,1-.39.76,1.15,1.15,0,0,1-.77.27,1.2,1.2,0,0,1-.92-.38,1.51,1.51,0,0,1-.35-1.07,2,2,0,0,1,.15-.79,1,1,0,0,1,.46-.5,1.25,1.25,0,0,1,.66-.17,1.11,1.11,0,0,1,.74.23,1,1,0,0,1,.37.65l-.45.07a.78.78,0,0,0-.24-.42.57.57,0,0,0-.4-.15.74.74,0,0,0-.58.26,1.21,1.21,0,0,0-.22.81,1.27,1.27,0,0,0,.21.81.71.71,0,0,0,.56.26.7.7,0,0,0,.47-.17A.87.87,0,0,0,158.94,162.41Z"/><path class="cls-1" d="M159.82,160.13v-.54h.47v.54Zm0,3.3v-2.78h.47v2.78Z"/><path class="cls-1" d="M162.91,162.54l.49.06a1.22,1.22,0,0,1-.43.66,1.42,1.42,0,0,1-1.76-.14,1.45,1.45,0,0,1-.36-1.05,1.57,1.57,0,0,1,.36-1.1,1.24,1.24,0,0,1,.94-.38,1.17,1.17,0,0,1,.91.38,1.49,1.49,0,0,1,.35,1.07v.12h-2.07a1,1,0,0,0,.26.7.78.78,0,0,0,1,.11A.88.88,0,0,0,162.91,162.54Zm-1.55-.77h1.56a.89.89,0,0,0-.18-.52.74.74,0,0,0-.59-.28.76.76,0,0,0-.54.22A.89.89,0,0,0,161.36,161.77Z"/><path class="cls-1" d="M164,163.43v-2.78h.43V161a1,1,0,0,1,.88-.45,1.23,1.23,0,0,1,.47.09.76.76,0,0,1,.31.23,1,1,0,0,1,.15.35,2.64,2.64,0,0,1,0,.46v1.71h-.47v-1.69a1.48,1.48,0,0,0-.05-.43.45.45,0,0,0-.2-.23.58.58,0,0,0-.33-.09.77.77,0,0,0-.52.2,1,1,0,0,0-.22.72v1.52Z"/><path class="cls-1" d="M168.79,162.41l.47.06a1.24,1.24,0,0,1-.39.76,1.15,1.15,0,0,1-.77.27,1.2,1.2,0,0,1-.92-.38,1.51,1.51,0,0,1-.35-1.07,2,2,0,0,1,.15-.79,1,1,0,0,1,.46-.5,1.25,1.25,0,0,1,.66-.17,1.11,1.11,0,0,1,.74.23,1,1,0,0,1,.37.65l-.46.07a.71.71,0,0,0-.23-.42.57.57,0,0,0-.4-.15.74.74,0,0,0-.58.26,1.21,1.21,0,0,0-.22.81,1.27,1.27,0,0,0,.21.81.71.71,0,0,0,.56.26.7.7,0,0,0,.47-.17A.87.87,0,0,0,168.79,162.41Z"/><path class="cls-1" d="M171.57,162.54l.49.06a1.22,1.22,0,0,1-.43.66,1.44,1.44,0,0,1-1.77-.14,1.45,1.45,0,0,1-.35-1.05,1.57,1.57,0,0,1,.36-1.1,1.24,1.24,0,0,1,.94-.38,1.17,1.17,0,0,1,.91.38,1.53,1.53,0,0,1,.35,1.07v.12H170a1.09,1.09,0,0,0,.26.7.76.76,0,0,0,.58.25.73.73,0,0,0,.45-.14A.88.88,0,0,0,171.57,162.54Zm-1.55-.77h1.55a1,1,0,0,0-.17-.52.74.74,0,0,0-.59-.28.78.78,0,0,0-.55.22A.88.88,0,0,0,170,161.77Z"/><path class="cls-1" d="M175,164.56a4.74,4.74,0,0,1-.66-1.15,3.6,3.6,0,0,1-.27-1.37,3.67,3.67,0,0,1,.2-1.19,5,5,0,0,1,.73-1.33h.34q-.31.55-.42.78a4,4,0,0,0-.25.76,4,4,0,0,0-.11,1,4.75,4.75,0,0,0,.78,2.52Z"/><path class="cls-1" d="M175.89,160.51a1.23,1.23,0,0,1,.2-.7.7.7,0,0,1,.6-.29.78.78,0,0,1,.6.26,1.08,1.08,0,0,1,.24.76,1.06,1.06,0,0,1-.24.75.76.76,0,0,1-.59.27.75.75,0,0,1-.58-.26A1.15,1.15,0,0,1,175.89,160.51Zm.82-.66a.37.37,0,0,0-.3.15,1,1,0,0,0-.11.56.84.84,0,0,0,.12.52.34.34,0,0,0,.29.15.35.35,0,0,0,.29-.15,1,1,0,0,0,.12-.56A.87.87,0,0,0,177,160,.36.36,0,0,0,176.71,159.85Zm0,3.72,2.1-4h.38l-2.09,4Zm1.66-1a1.16,1.16,0,0,1,.21-.7.7.7,0,0,1,.6-.29.79.79,0,0,1,.6.26,1.08,1.08,0,0,1,.24.76,1.06,1.06,0,0,1-.24.75.76.76,0,0,1-.6.26.73.73,0,0,1-.58-.26A1.15,1.15,0,0,1,178.37,162.53Zm.82-.66a.36.36,0,0,0-.29.15,1,1,0,0,0-.12.56.87.87,0,0,0,.12.52.36.36,0,0,0,.29.15.37.37,0,0,0,.3-.15,1,1,0,0,0,.12-.56.84.84,0,0,0-.12-.52A.37.37,0,0,0,179.19,161.87Z"/><path class="cls-1" d="M181,164.56h-.34a4.68,4.68,0,0,0,.79-2.52,4,4,0,0,0-.12-1,3.74,3.74,0,0,0-.24-.76,8.22,8.22,0,0,0-.43-.79H181a5,5,0,0,1,.73,1.33,3.42,3.42,0,0,1,.2,1.19,3.6,3.6,0,0,1-.27,1.37A4.74,4.74,0,0,1,181,164.56Z"/><path class="cls-4" d="M140.65,29.81a3.57,3.57,0,1,0,3.57,3.57,3.57,3.57,0,0,0-3.57-3.57"/><path class="cls-1" d="M150.38,33.58l.5.13A1.53,1.53,0,0,1,149.29,35a1.82,1.82,0,0,1-1-.25,1.54,1.54,0,0,1-.59-.73,2.56,2.56,0,0,1-.2-1,2.32,2.32,0,0,1,.22-1,1.66,1.66,0,0,1,.66-.68,1.94,1.94,0,0,1,.93-.23,1.62,1.62,0,0,1,1,.29,1.59,1.59,0,0,1,.55.83l-.5.12a1.16,1.16,0,0,0-.39-.61,1,1,0,0,0-.64-.19,1.24,1.24,0,0,0-.74.21,1.1,1.1,0,0,0-.42.57A2.3,2.3,0,0,0,148,33a2.44,2.44,0,0,0,.14.85,1.08,1.08,0,0,0,.45.55,1.25,1.25,0,0,0,.65.18,1,1,0,0,0,.72-.25A1.3,1.3,0,0,0,150.38,33.58Z"/><path class="cls-1" d="M151.45,34.93V31.09h.47v1.37a1.07,1.07,0,0,1,.84-.38,1.12,1.12,0,0,1,.53.12.83.83,0,0,1,.33.34,1.63,1.63,0,0,1,.1.62v1.77h-.47V33.16a.74.74,0,0,0-.16-.51.54.54,0,0,0-.43-.16.73.73,0,0,0-.4.11.61.61,0,0,0-.26.29,1.45,1.45,0,0,0-.08.52v1.52Z"/><path class="cls-1" d="M154.26,33.54a1.43,1.43,0,0,1,.43-1.15,1.28,1.28,0,0,1,.88-.31,1.24,1.24,0,0,1,.93.38,1.39,1.39,0,0,1,.37,1,1.77,1.77,0,0,1-.16.84,1.15,1.15,0,0,1-.47.48,1.42,1.42,0,0,1-.67.17,1.26,1.26,0,0,1-.95-.37A1.5,1.5,0,0,1,154.26,33.54Zm.49,0a1.18,1.18,0,0,0,.23.8.79.79,0,0,0,1.17,0,1.2,1.2,0,0,0,.23-.82,1.14,1.14,0,0,0-.23-.78.74.74,0,0,0-.58-.27.74.74,0,0,0-.59.27A1.14,1.14,0,0,0,154.75,33.54Z"/><path class="cls-1" d="M157.25,33.54a1.43,1.43,0,0,1,.43-1.15,1.27,1.27,0,0,1,.87-.31,1.26,1.26,0,0,1,.94.38,1.43,1.43,0,0,1,.37,1,1.76,1.76,0,0,1-.17.84,1,1,0,0,1-.47.48,1.39,1.39,0,0,1-.67.17,1.24,1.24,0,0,1-.94-.37A1.5,1.5,0,0,1,157.25,33.54Zm.48,0a1.23,1.23,0,0,0,.23.8.79.79,0,0,0,.59.26.77.77,0,0,0,.59-.26,1.25,1.25,0,0,0,.23-.82,1.19,1.19,0,0,0-.23-.78.78.78,0,0,0-1.18,0A1.19,1.19,0,0,0,157.73,33.54Z"/><path class="cls-1" d="M160.22,34.1l.47-.08a.65.65,0,0,0,.21.43.78.78,0,0,0,.51.15.74.74,0,0,0,.48-.13.41.41,0,0,0,.16-.31.29.29,0,0,0-.14-.25,2.1,2.1,0,0,0-.48-.16,3.8,3.8,0,0,1-.72-.23.67.67,0,0,1-.31-.26.72.72,0,0,1-.1-.38.77.77,0,0,1,.08-.34.75.75,0,0,1,.24-.26.84.84,0,0,1,.3-.14,1.29,1.29,0,0,1,.4-.06,1.5,1.5,0,0,1,.58.1.71.71,0,0,1,.36.25,1,1,0,0,1,.17.43l-.46.07a.55.55,0,0,0-.19-.34.66.66,0,0,0-.42-.12.81.81,0,0,0-.47.11.31.31,0,0,0-.14.25.23.23,0,0,0,.06.16.35.35,0,0,0,.18.13l.42.12a5.49,5.49,0,0,1,.7.22.76.76,0,0,1,.31.25.72.72,0,0,1,.11.4.7.7,0,0,1-.14.44.91.91,0,0,1-.39.33,1.59,1.59,0,0,1-.59.11,1.32,1.32,0,0,1-.83-.22A1,1,0,0,1,160.22,34.1Z"/><path class="cls-1" d="M165,34l.49.06a1.21,1.21,0,0,1-.43.67,1.33,1.33,0,0,1-.8.23,1.27,1.27,0,0,1-1-.37,1.49,1.49,0,0,1-.35-1.06,1.54,1.54,0,0,1,.36-1.09,1.3,1.3,0,0,1,1.85,0,1.53,1.53,0,0,1,.35,1.07v.13h-2.08a1.11,1.11,0,0,0,.26.7.78.78,0,0,0,.58.24.73.73,0,0,0,.45-.13A.92.92,0,0,0,165,34Zm-1.55-.76H165a1,1,0,0,0-.17-.53.79.79,0,0,0-1.14-.05A.86.86,0,0,0,163.45,33.27Z"/><path class="cls-1" d="M167.64,34.93V31.09h1.7a2.19,2.19,0,0,1,.78.1.88.88,0,0,1,.43.36,1.08,1.08,0,0,1,.16.58,1,1,0,0,1-.26.69,1.33,1.33,0,0,1-.82.36,1.91,1.91,0,0,1,.31.19,3.81,3.81,0,0,1,.42.51l.67,1h-.64l-.51-.8a6.22,6.22,0,0,0-.37-.53,1.26,1.26,0,0,0-.26-.26.67.67,0,0,0-.23-.1l-.28,0h-.59v1.71Zm.51-2.15h1.09a1.67,1.67,0,0,0,.55-.07.58.58,0,0,0,.3-.23.71.71,0,0,0,.1-.35.56.56,0,0,0-.2-.44.91.91,0,0,0-.63-.18h-1.21Z"/><path class="cls-1" d="M173.35,34l.49.06a1.21,1.21,0,0,1-.43.67,1.3,1.3,0,0,1-.79.23,1.27,1.27,0,0,1-1-.37,1.5,1.5,0,0,1-.36-1.06,1.54,1.54,0,0,1,.36-1.09,1.23,1.23,0,0,1,.94-.39,1.19,1.19,0,0,1,.91.38,1.49,1.49,0,0,1,.36,1.07v.13h-2.08a1.06,1.06,0,0,0,.26.7.77.77,0,0,0,.58.24.72.72,0,0,0,.44-.13A.85.85,0,0,0,173.35,34Zm-1.55-.76h1.56a1,1,0,0,0-.18-.53.72.72,0,0,0-.58-.27.74.74,0,0,0-.55.22A.86.86,0,0,0,171.8,33.27Z"/><path class="cls-1" d="M174.42,34.93V31.09h.48v3.84Z"/><path class="cls-1" d="M175.63,31.63v-.54h.47v.54Zm0,3.3V32.14h.47v2.79Z"/><path class="cls-1" d="M176.73,35.16l.46.07a.45.45,0,0,0,.16.31.85.85,0,0,0,.48.13.91.91,0,0,0,.51-.13.64.64,0,0,0,.24-.37,3.84,3.84,0,0,0,0-.61.94.94,0,0,1-.77.37,1.05,1.05,0,0,1-.89-.42,1.56,1.56,0,0,1-.31-1,1.94,1.94,0,0,1,.14-.73,1.24,1.24,0,0,1,.42-.53,1.14,1.14,0,0,1,.64-.18,1,1,0,0,1,.82.4v-.34h.43v2.41a2.26,2.26,0,0,1-.13.92,1,1,0,0,1-.42.43,1.41,1.41,0,0,1-.71.16,1.38,1.38,0,0,1-.8-.22A.8.8,0,0,1,176.73,35.16Zm.39-1.67a1.25,1.25,0,0,0,.22.8.73.73,0,0,0,.55.25.68.68,0,0,0,.54-.25,1.17,1.17,0,0,0,.22-.79,1.14,1.14,0,0,0-.22-.77.74.74,0,0,0-.55-.26.7.7,0,0,0-.54.26A1.17,1.17,0,0,0,177.12,33.49Z"/><path class="cls-1" d="M179.81,31.63v-.54h.47v.54Zm0,3.3V32.14h.47v2.79Z"/><path class="cls-1" d="M180.82,33.54a1.46,1.46,0,0,1,.43-1.15,1.38,1.38,0,0,1,1.82.07,1.43,1.43,0,0,1,.36,1,1.77,1.77,0,0,1-.16.84,1.09,1.09,0,0,1-.47.48,1.39,1.39,0,0,1-.67.17,1.26,1.26,0,0,1-.95-.37A1.5,1.5,0,0,1,180.82,33.54Zm.49,0a1.23,1.23,0,0,0,.23.8.77.77,0,0,0,.59.26.75.75,0,0,0,.58-.26,1.2,1.2,0,0,0,.24-.82,1.14,1.14,0,0,0-.24-.78.73.73,0,0,0-.58-.27.75.75,0,0,0-.59.27A1.19,1.19,0,0,0,181.31,33.54Z"/><path class="cls-1" d="M184,34.93V32.14h.43v.4a1,1,0,0,1,.89-.46,1.18,1.18,0,0,1,.46.09.7.7,0,0,1,.31.24.93.93,0,0,1,.15.35,2.39,2.39,0,0,1,0,.46v1.71h-.47V33.24a1.22,1.22,0,0,0-.06-.44.43.43,0,0,0-.2-.22.57.57,0,0,0-.32-.09.74.74,0,0,0-.52.19.94.94,0,0,0-.22.73v1.52Z"/><path class="cls-1" d="M147.72,41.37V37.53h.51v3.84Z"/><path class="cls-1" d="M149.06,41.37V38.59h.43V39a1,1,0,0,1,.88-.46,1,1,0,0,1,.47.1.76.76,0,0,1,.31.23,1,1,0,0,1,.15.35,2.39,2.39,0,0,1,0,.46v1.71h-.48V39.68a1.2,1.2,0,0,0,0-.43.45.45,0,0,0-.2-.23.58.58,0,0,0-.33-.09.77.77,0,0,0-.52.2,1,1,0,0,0-.21.72v1.52Z"/><path class="cls-1" d="M156.34,40l.51.13a1.71,1.71,0,0,1-.57,1,1.6,1.6,0,0,1-1,.33,1.82,1.82,0,0,1-1-.26,1.49,1.49,0,0,1-.59-.73,2.52,2.52,0,0,1-.2-1,2.32,2.32,0,0,1,.22-1.05,1.64,1.64,0,0,1,.66-.67,1.84,1.84,0,0,1,.93-.24,1.5,1.5,0,0,1,1.52,1.12l-.5.12a1.2,1.2,0,0,0-.39-.61,1,1,0,0,0-.64-.19,1.24,1.24,0,0,0-.74.21,1.1,1.1,0,0,0-.42.57,2.34,2.34,0,0,0-.12.74,2.4,2.4,0,0,0,.14.85,1.08,1.08,0,0,0,.45.55,1.25,1.25,0,0,0,.65.18,1.1,1.1,0,0,0,.72-.24A1.27,1.27,0,0,0,156.34,40Z"/><path class="cls-1" d="M159.24,41a1.79,1.79,0,0,1-.51.31,1.46,1.46,0,0,1-.52.09,1,1,0,0,1-.7-.22.72.72,0,0,1-.25-.57.82.82,0,0,1,.09-.38.81.81,0,0,1,.25-.27,1,1,0,0,1,.34-.15,2.24,2.24,0,0,1,.42-.07,5,5,0,0,0,.84-.16v-.13a.53.53,0,0,0-.13-.4.77.77,0,0,0-.54-.16A.81.81,0,0,0,158,39a.71.71,0,0,0-.24.42l-.46-.07a1.11,1.11,0,0,1,.21-.48.91.91,0,0,1,.41-.28,2.1,2.1,0,0,1,.64-.1,1.61,1.61,0,0,1,.58.09.89.89,0,0,1,.32.21.73.73,0,0,1,.15.32,2.38,2.38,0,0,1,0,.44v.63a6.81,6.81,0,0,0,0,.83,1,1,0,0,0,.12.33h-.49A.9.9,0,0,1,159.24,41Zm0-1.06a3,3,0,0,1-.77.18,1.6,1.6,0,0,0-.42.1.34.34,0,0,0-.18.15.37.37,0,0,0-.07.23.39.39,0,0,0,.15.31.61.61,0,0,0,.41.13,1,1,0,0,0,.49-.12.76.76,0,0,0,.31-.33,1.14,1.14,0,0,0,.08-.47Z"/><path class="cls-1" d="M160.22,40.54l.46-.07a.69.69,0,0,0,.22.43.76.76,0,0,0,.5.15.82.82,0,0,0,.49-.13.42.42,0,0,0,.15-.32.28.28,0,0,0-.14-.25,2.25,2.25,0,0,0-.48-.16,6.1,6.1,0,0,1-.72-.22.79.79,0,0,1-.3-.27.69.69,0,0,1-.1-.37.69.69,0,0,1,.08-.35.82.82,0,0,1,.23-.26,1.28,1.28,0,0,1,.71-.2,1.72,1.72,0,0,1,.58.1.77.77,0,0,1,.36.26.94.94,0,0,1,.16.43l-.46.06a.52.52,0,0,0-.18-.34.67.67,0,0,0-.43-.12.78.78,0,0,0-.46.11.33.33,0,0,0-.14.25.27.27,0,0,0,.06.17.41.41,0,0,0,.18.12l.42.12c.33.09.56.17.7.22a.76.76,0,0,1,.31.25.72.72,0,0,1,.11.4.82.82,0,0,1-.14.45.81.81,0,0,1-.4.32,1.64,1.64,0,0,1-1.41-.11A1,1,0,0,1,160.22,40.54Z"/><path class="cls-1" d="M165,40.48l.48.06a1.2,1.2,0,0,1-.42.66,1.48,1.48,0,0,1-1.77-.14,1.46,1.46,0,0,1-.36-1.06,1.52,1.52,0,0,1,.37-1.09,1.21,1.21,0,0,1,.93-.39,1.19,1.19,0,0,1,.92.39A1.5,1.5,0,0,1,165.5,40v.13h-2.08a1,1,0,0,0,.26.7.8.8,0,0,0,1,.11A1,1,0,0,0,165,40.48Zm-1.55-.77H165a.89.89,0,0,0-.18-.52.7.7,0,0,0-.58-.28.78.78,0,0,0-.55.22A.83.83,0,0,0,163.45,39.71Z"/><path class="cls-1" d="M167.47,39.5A2.06,2.06,0,0,1,168,38a1.73,1.73,0,0,1,1.32-.54,1.91,1.91,0,0,1,1,.25,1.59,1.59,0,0,1,.65.71,2.34,2.34,0,0,1,.23,1,2.21,2.21,0,0,1-.24,1,1.57,1.57,0,0,1-.67.7,1.84,1.84,0,0,1-.93.24,1.88,1.88,0,0,1-1-.26,1.81,1.81,0,0,1-.65-.72A2.25,2.25,0,0,1,167.47,39.5Zm.53,0a1.52,1.52,0,0,0,.37,1.09,1.22,1.22,0,0,0,.94.4,1.2,1.2,0,0,0,.94-.4,1.62,1.62,0,0,0,.37-1.15,2.1,2.1,0,0,0-.15-.82,1.24,1.24,0,0,0-.47-.54,1.22,1.22,0,0,0-.68-.19,1.29,1.29,0,0,0-.93.37A1.66,1.66,0,0,0,168,39.51Z"/><path class="cls-1" d="M171.86,41.37V39h-.42v-.37h.42v-.3a1.08,1.08,0,0,1,0-.41.51.51,0,0,1,.24-.3.81.81,0,0,1,.48-.12,2.47,2.47,0,0,1,.44,0l-.07.41a1.37,1.37,0,0,0-.28,0,.4.4,0,0,0-.3.09.48.48,0,0,0-.09.34v.26h.54V39h-.54v2.41Z"/><path class="cls-1" d="M147.63,47.81V44H149a2.92,2.92,0,0,1,.68.06,1.28,1.28,0,0,1,.56.27,1.49,1.49,0,0,1,.46.66,2.55,2.55,0,0,1,.15.91,2.68,2.68,0,0,1-.1.78,2.24,2.24,0,0,1-.26.56,1.65,1.65,0,0,1-.35.35,1.48,1.48,0,0,1-.46.19,2.9,2.9,0,0,1-.62.06Zm.51-.45H149a1.93,1.93,0,0,0,.6-.07.81.81,0,0,0,.34-.2,1.11,1.11,0,0,0,.28-.49,2.26,2.26,0,0,0,.11-.74,1.77,1.77,0,0,0-.2-.92,1,1,0,0,0-.48-.44,2.09,2.09,0,0,0-.66-.08h-.81Z"/><path class="cls-1" d="M151.45,44.51V44h.47v.54Zm0,3.3V45h.47v2.78Z"/><path class="cls-1" d="M152.45,47l.47-.07a.66.66,0,0,0,.22.43.76.76,0,0,0,.5.15.71.71,0,0,0,.48-.13.38.38,0,0,0,.16-.31.29.29,0,0,0-.14-.25,1.67,1.67,0,0,0-.48-.17,4,4,0,0,1-.72-.22.72.72,0,0,1-.3-.27.67.67,0,0,1-.11-.37.73.73,0,0,1,.09-.35.71.71,0,0,1,.23-.26,1.05,1.05,0,0,1,.3-.14,1.77,1.77,0,0,1,.41-.05,1.62,1.62,0,0,1,.57.09.82.82,0,0,1,.37.26.94.94,0,0,1,.16.43l-.46.06a.49.49,0,0,0-.18-.33.69.69,0,0,0-.43-.12.78.78,0,0,0-.46.1.3.3,0,0,0-.14.25.25.25,0,0,0,.06.17.44.44,0,0,0,.18.13l.41.12a5.38,5.38,0,0,1,.7.21.7.7,0,0,1,.31.25.69.69,0,0,1,.12.41.82.82,0,0,1-.14.44.85.85,0,0,1-.4.32,1.38,1.38,0,0,1-.59.12,1.29,1.29,0,0,1-.82-.23A1.08,1.08,0,0,1,152.45,47Z"/><path class="cls-1" d="M157.14,47.47a1.9,1.9,0,0,1-.5.32,1.5,1.5,0,0,1-.52.09,1,1,0,0,1-.71-.23.8.8,0,0,1-.15-.94.64.64,0,0,1,.24-.27,1.33,1.33,0,0,1,.34-.16l.42-.07a5,5,0,0,0,.84-.16.85.85,0,0,0,0-.13.51.51,0,0,0-.14-.4.76.76,0,0,0-.53-.16.93.93,0,0,0-.5.11.76.76,0,0,0-.23.42l-.46-.07a1.07,1.07,0,0,1,.21-.47.78.78,0,0,1,.41-.28,1.74,1.74,0,0,1,.63-.1,1.8,1.8,0,0,1,.58.08.85.85,0,0,1,.33.21.79.79,0,0,1,.15.32,3.87,3.87,0,0,1,0,.44v.63a6.69,6.69,0,0,0,0,.83.93.93,0,0,0,.12.33h-.49A1,1,0,0,1,157.14,47.47Zm0-1a3.37,3.37,0,0,1-.77.18,1.71,1.71,0,0,0-.41.09.38.38,0,0,0-.18.15.39.39,0,0,0-.07.23.41.41,0,0,0,.14.31.6.6,0,0,0,.42.13,1,1,0,0,0,.49-.12.76.76,0,0,0,.31-.33,1.13,1.13,0,0,0,.07-.47Z"/><path class="cls-1" d="M158.23,48.05l.46.06a.41.41,0,0,0,.16.31.74.74,0,0,0,.48.13.82.82,0,0,0,.5-.13.61.61,0,0,0,.24-.36,2.68,2.68,0,0,0,0-.61,1,1,0,0,1-.77.36,1,1,0,0,1-.89-.41,1.61,1.61,0,0,1-.32-1,1.81,1.81,0,0,1,.15-.74,1.13,1.13,0,0,1,.41-.52,1.18,1.18,0,0,1,.65-.18,1,1,0,0,1,.81.4V45h.44v2.41a2.23,2.23,0,0,1-.14.92.92.92,0,0,1-.42.43,1.48,1.48,0,0,1-.7.15,1.36,1.36,0,0,1-.81-.22A.75.75,0,0,1,158.23,48.05Zm.39-1.68a1.18,1.18,0,0,0,.22.8.66.66,0,0,0,.54.25.7.7,0,0,0,.55-.25,1.17,1.17,0,0,0,.22-.78,1.14,1.14,0,0,0-.23-.77.68.68,0,0,0-.55-.26.66.66,0,0,0-.53.25A1.13,1.13,0,0,0,158.62,46.37Z"/><path class="cls-1" d="M161.29,47.81V45h.43v.42a1.38,1.38,0,0,1,.3-.39.53.53,0,0,1,.3-.09,1,1,0,0,1,.49.15l-.17.44a.63.63,0,0,0-.34-.1.45.45,0,0,0-.28.09.55.55,0,0,0-.18.26,1.88,1.88,0,0,0-.07.55v1.45Z"/><path class="cls-1" d="M165,46.92l.49.06a1.22,1.22,0,0,1-.43.66,1.24,1.24,0,0,1-.79.24,1.28,1.28,0,0,1-1-.38,1.45,1.45,0,0,1-.36-1,1.52,1.52,0,0,1,.36-1.09,1.23,1.23,0,0,1,.94-.39,1.16,1.16,0,0,1,.91.38,1.49,1.49,0,0,1,.36,1.07.57.57,0,0,1,0,.12h-2.07a1.09,1.09,0,0,0,.26.71.77.77,0,0,0,.58.24.72.72,0,0,0,.44-.14A.88.88,0,0,0,165,46.92Zm-1.55-.76H165a.92.92,0,0,0-.18-.53.72.72,0,0,0-.58-.27.77.77,0,0,0-.55.21A.89.89,0,0,0,163.44,46.16Z"/><path class="cls-1" d="M168,46.92l.49.06a1.22,1.22,0,0,1-.43.66,1.27,1.27,0,0,1-.8.24,1.3,1.3,0,0,1-1-.38,1.5,1.5,0,0,1-.35-1,1.52,1.52,0,0,1,.36-1.09,1.21,1.21,0,0,1,.94-.39,1.17,1.17,0,0,1,.91.38,1.49,1.49,0,0,1,.35,1.07v.12H166.4a1.14,1.14,0,0,0,.26.71.79.79,0,0,0,.59.24.72.72,0,0,0,.44-.14A.88.88,0,0,0,168,46.92Zm-1.55-.76H168a1,1,0,0,0-.17-.53.74.74,0,0,0-.59-.27.75.75,0,0,0-.54.21A.89.89,0,0,0,166.43,46.16Z"/><path class="cls-1" d="M169.06,47.81V45h.42v.39a1,1,0,0,1,.35-.33,1,1,0,0,1,.5-.12.87.87,0,0,1,.5.13.64.64,0,0,1,.28.36A1,1,0,0,1,172,45a.82.82,0,0,1,.64.23,1,1,0,0,1,.22.7v1.91h-.47V46.06a1.39,1.39,0,0,0,0-.41.41.41,0,0,0-.17-.2.51.51,0,0,0-.28-.07.66.66,0,0,0-.49.19.86.86,0,0,0-.19.63v1.61h-.48V46a.81.81,0,0,0-.11-.48.45.45,0,0,0-.38-.15.71.71,0,0,0-.37.1.58.58,0,0,0-.24.31,1.71,1.71,0,0,0-.08.58v1.44Z"/><path class="cls-1" d="M175.44,46.92l.49.06a1.22,1.22,0,0,1-.43.66,1.44,1.44,0,0,1-1.77-.14,1.45,1.45,0,0,1-.35-1,1.52,1.52,0,0,1,.36-1.09,1.21,1.21,0,0,1,.94-.39,1.17,1.17,0,0,1,.91.38,1.53,1.53,0,0,1,.35,1.07v.12h-2.08a1.14,1.14,0,0,0,.26.71.78.78,0,0,0,.58.24.75.75,0,0,0,.45-.14A.88.88,0,0,0,175.44,46.92Zm-1.55-.76h1.55a1,1,0,0,0-.17-.53.75.75,0,0,0-.59-.27.77.77,0,0,0-.55.21A.88.88,0,0,0,173.89,46.16Z"/><path class="cls-1" d="M176.52,47.81V45h.42v.4a1,1,0,0,1,.89-.46,1.14,1.14,0,0,1,.46.09.73.73,0,0,1,.32.24.74.74,0,0,1,.14.34,2.39,2.39,0,0,1,0,.46v1.71h-.47V46.12a1.19,1.19,0,0,0-.06-.43.43.43,0,0,0-.19-.23.58.58,0,0,0-.33-.08.76.76,0,0,0-.52.19.93.93,0,0,0-.22.72v1.52Z"/><path class="cls-1" d="M180.53,47.39l.07.42a1.56,1.56,0,0,1-.35,0,.86.86,0,0,1-.4-.08.45.45,0,0,1-.2-.21,1.67,1.67,0,0,1-.06-.56V45.4h-.35V45h.35v-.69l.47-.28v1h.47v.37h-.47V47a.72.72,0,0,0,0,.26.22.22,0,0,0,.08.09.32.32,0,0,0,.16,0Z"/><path class="cls-1" d="M183.39,48.94a4.56,4.56,0,0,1-.66-1.15,3.6,3.6,0,0,1-.27-1.37,3.67,3.67,0,0,1,.2-1.19,4.81,4.81,0,0,1,.73-1.32h.34c-.21.36-.35.62-.42.77a4.22,4.22,0,0,0-.25.76,4.11,4.11,0,0,0-.12,1,4.72,4.72,0,0,0,.79,2.52Z"/><path class="cls-1" d="M184.23,44.89a1.18,1.18,0,0,1,.21-.7.7.7,0,0,1,.6-.28.79.79,0,0,1,.6.25,1.1,1.1,0,0,1,.24.76,1.06,1.06,0,0,1-.24.75.76.76,0,0,1-.59.27.74.74,0,0,1-.58-.26A1.13,1.13,0,0,1,184.23,44.89Zm.82-.66a.36.36,0,0,0-.29.15,1,1,0,0,0-.11.56.85.85,0,0,0,.11.52.36.36,0,0,0,.29.15.37.37,0,0,0,.3-.15,1,1,0,0,0,.12-.56.87.87,0,0,0-.12-.52A.37.37,0,0,0,185.05,44.23Zm0,3.73,2.1-4.05h.38L185.45,48Zm1.66-1.05a1.16,1.16,0,0,1,.21-.7.69.69,0,0,1,.6-.29.79.79,0,0,1,.6.26,1.08,1.08,0,0,1,.24.76,1.06,1.06,0,0,1-.24.75.79.79,0,0,1-1.18,0A1.2,1.2,0,0,1,186.72,46.91Zm.82-.66a.35.35,0,0,0-.29.15,1,1,0,0,0-.12.56.87.87,0,0,0,.12.52.35.35,0,0,0,.29.15.37.37,0,0,0,.3-.15,1,1,0,0,0,.11-.56.93.93,0,0,0-.11-.52A.37.37,0,0,0,187.54,46.25Z"/><path class="cls-1" d="M189.36,48.94H189a4.72,4.72,0,0,0,.79-2.52,4,4,0,0,0-.12-1,3.76,3.76,0,0,0-.25-.76,7.68,7.68,0,0,0-.42-.78h.34a4.81,4.81,0,0,1,.73,1.32,3.67,3.67,0,0,1,.2,1.19,3.6,3.6,0,0,1-.27,1.37A4.56,4.56,0,0,1,189.36,48.94Z"/><path class="cls-9" d="M140.66,175.25a3.57,3.57,0,1,0,3.57,3.57,3.57,3.57,0,0,0-3.57-3.57"/><path class="cls-1" d="M147.63,180.36v-3.84h.52l2,3v-3h.49v3.84h-.52l-2-3v3Z"/><path class="cls-1" d="M151.28,179a1.41,1.41,0,0,1,.43-1.14,1.27,1.27,0,0,1,.87-.31,1.24,1.24,0,0,1,.94.37,1.42,1.42,0,0,1,.37,1,2,2,0,0,1-.16.85,1.27,1.27,0,0,1-.47.48,1.43,1.43,0,0,1-.68.17,1.24,1.24,0,0,1-.94-.38A1.5,1.5,0,0,1,151.28,179Zm.48,0a1.14,1.14,0,0,0,.24.8.73.73,0,0,0,.58.27.75.75,0,0,0,.59-.27,1.24,1.24,0,0,0,.23-.81,1.2,1.2,0,0,0-.23-.79.77.77,0,0,0-.59-.26.75.75,0,0,0-.58.26A1.18,1.18,0,0,0,151.76,179Z"/><path class="cls-1" d="M155.47,179.94l.07.42a1.59,1.59,0,0,1-.36,0,.89.89,0,0,1-.4-.08.42.42,0,0,1-.19-.21,1.67,1.67,0,0,1-.06-.56V178h-.35v-.37h.35v-.69l.47-.28v1h.47V178H155v1.63a.8.8,0,0,0,0,.26l.08.09a.35.35,0,0,0,.16,0Z"/><path class="cls-1" d="M157.49,180.36v-3.84h1.71a2.54,2.54,0,0,1,.78.1.91.91,0,0,1,.43.37,1.18,1.18,0,0,1,.16.58,1,1,0,0,1-.27.69,1.33,1.33,0,0,1-.82.36,1,1,0,0,1,.31.19,2.2,2.2,0,0,1,.42.51l.67,1h-.64l-.51-.79a4.93,4.93,0,0,0-.37-.53,1,1,0,0,0-.25-.26.82.82,0,0,0-.24-.1,1,1,0,0,0-.28,0H158v1.7Zm.51-2.14h1.09a1.89,1.89,0,0,0,.55-.07.6.6,0,0,0,.3-.24.61.61,0,0,0-.1-.79.9.9,0,0,0-.62-.17H158Z"/><path class="cls-1" d="M163.21,179.47l.49.06a1.22,1.22,0,0,1-.43.66,1.44,1.44,0,0,1-1.77-.14,1.45,1.45,0,0,1-.36-1.05,1.53,1.53,0,0,1,.37-1.09,1.21,1.21,0,0,1,.93-.39,1.18,1.18,0,0,1,.92.38,1.53,1.53,0,0,1,.35,1.07v.12h-2.08a1.14,1.14,0,0,0,.26.71.78.78,0,0,0,.58.24.75.75,0,0,0,.45-.14A.88.88,0,0,0,163.21,179.47Zm-1.55-.76h1.55a.92.92,0,0,0-.18-.53.72.72,0,0,0-.58-.27.77.77,0,0,0-.55.21A.88.88,0,0,0,161.66,178.71Z"/><path class="cls-1" d="M164.28,180.36v-3.84h.47v3.84Z"/><path class="cls-1" d="M165.48,177.06v-.54H166v.54Zm0,3.3v-2.78H166v2.78Z"/><path class="cls-1" d="M166.59,180.6l.46.06a.41.41,0,0,0,.16.31.74.74,0,0,0,.48.13.82.82,0,0,0,.5-.13.61.61,0,0,0,.24-.36,2.68,2.68,0,0,0,0-.61,1,1,0,0,1-.77.36,1,1,0,0,1-.89-.41,1.61,1.61,0,0,1-.32-1,1.81,1.81,0,0,1,.15-.74,1.09,1.09,0,0,1,.42-.52,1.12,1.12,0,0,1,.64-.18,1,1,0,0,1,.81.4v-.34H169V180a2.23,2.23,0,0,1-.14.92.94.94,0,0,1-.41.43,1.55,1.55,0,0,1-.71.15,1.36,1.36,0,0,1-.81-.22A.75.75,0,0,1,166.59,180.6Zm.39-1.68a1.18,1.18,0,0,0,.22.8.66.66,0,0,0,.54.25.7.7,0,0,0,.55-.25,1.17,1.17,0,0,0,.22-.78,1.14,1.14,0,0,0-.23-.77.68.68,0,0,0-.55-.26.66.66,0,0,0-.53.25A1.13,1.13,0,0,0,167,178.92Z"/><path class="cls-1" d="M169.66,177.06v-.54h.47v.54Zm0,3.3v-2.78h.47v2.78Z"/><path class="cls-1" d="M170.68,179a1.41,1.41,0,0,1,.43-1.14,1.27,1.27,0,0,1,.87-.31,1.24,1.24,0,0,1,.94.37,1.47,1.47,0,0,1,.37,1,1.83,1.83,0,0,1-.17.85,1.14,1.14,0,0,1-.47.48,1.36,1.36,0,0,1-.67.17,1.24,1.24,0,0,1-.94-.38A1.5,1.5,0,0,1,170.68,179Zm.48,0a1.14,1.14,0,0,0,.24.8.73.73,0,0,0,.58.27.75.75,0,0,0,.59-.27,1.24,1.24,0,0,0,.23-.81,1.2,1.2,0,0,0-.23-.79.79.79,0,0,0-.59-.26.75.75,0,0,0-.58.26A1.18,1.18,0,0,0,171.16,179Z"/><path class="cls-1" d="M175.66,180.36V180a1,1,0,0,1-.88.47,1,1,0,0,1-.46-.1.8.8,0,0,1-.32-.23,1,1,0,0,1-.14-.35,2.36,2.36,0,0,1,0-.44v-1.73h.47v1.54a2.6,2.6,0,0,0,0,.5.51.51,0,0,0,.19.3.56.56,0,0,0,.35.1.77.77,0,0,0,.4-.11.63.63,0,0,0,.27-.29,1.6,1.6,0,0,0,.07-.55v-1.49h.48v2.78Z"/><path class="cls-1" d="M176.64,179.53l.46-.07a.66.66,0,0,0,.22.43.76.76,0,0,0,.5.15.75.75,0,0,0,.49-.13.4.4,0,0,0,.15-.31.27.27,0,0,0-.14-.25,1.47,1.47,0,0,0-.48-.16,5.67,5.67,0,0,1-.72-.23.72.72,0,0,1-.3-.27.68.68,0,0,1,0-.71.75.75,0,0,1,.23-.27,1.4,1.4,0,0,1,.3-.14,1.77,1.77,0,0,1,.41,0,1.72,1.72,0,0,1,.58.09.84.84,0,0,1,.36.26,1,1,0,0,1,.16.43l-.46.06a.49.49,0,0,0-.18-.33.67.67,0,0,0-.43-.12.78.78,0,0,0-.46.1.33.33,0,0,0-.14.26.25.25,0,0,0,.06.16.52.52,0,0,0,.18.13l.42.12a5.21,5.21,0,0,1,.69.22.65.65,0,0,1,.32.24.76.76,0,0,1,.11.41.84.84,0,0,1-.54.76,1.37,1.37,0,0,1-.58.12,1.3,1.3,0,0,1-.83-.23A1,1,0,0,1,176.64,179.53Z"/><path class="cls-1" d="M179.63,180.36v-.53h.54v.53a1.07,1.07,0,0,1-.1.48.76.76,0,0,1-.34.29l-.13-.21a.41.41,0,0,0,.22-.19.85.85,0,0,0,.08-.37Z"/><path class="cls-1" d="M147.65,186.81V183h.51v1.58h2V183h.51v3.85h-.51V185h-2v1.81Z"/><path class="cls-1" d="M151.46,183.51V183h.47v.55Zm0,3.3V184h.47v2.79Z"/><path class="cls-1" d="M152.56,187l.46.07a.45.45,0,0,0,.16.31.85.85,0,0,0,.48.13.91.91,0,0,0,.51-.13.75.75,0,0,0,.24-.37,3.84,3.84,0,0,0,0-.61,1,1,0,0,1-.77.37,1.05,1.05,0,0,1-.89-.42,1.56,1.56,0,0,1-.31-1,1.81,1.81,0,0,1,.14-.74,1.28,1.28,0,0,1,.42-.52,1.14,1.14,0,0,1,.64-.18,1,1,0,0,1,.82.4V184h.43v2.41a2.26,2.26,0,0,1-.13.92,1,1,0,0,1-.42.43,1.41,1.41,0,0,1-.71.16,1.31,1.31,0,0,1-.8-.23A.72.72,0,0,1,152.56,187Zm.39-1.67a1.19,1.19,0,0,0,.22.8.71.71,0,0,0,.54.25.73.73,0,0,0,.55-.25,1.17,1.17,0,0,0,.22-.79,1.14,1.14,0,0,0-.23-.77.69.69,0,0,0-1.08,0A1.11,1.11,0,0,0,153,185.37Z"/><path class="cls-1" d="M155.63,186.81V183h.48v1.38a1.05,1.05,0,0,1,.83-.38,1.16,1.16,0,0,1,.54.12.7.7,0,0,1,.32.34,1.45,1.45,0,0,1,.1.62v1.77h-.47V185a.74.74,0,0,0-.15-.51.58.58,0,0,0-.44-.16.68.68,0,0,0-.39.11.63.63,0,0,0-.27.29,1.46,1.46,0,0,0-.07.51v1.53Z"/><path class="cls-1" d="M161.15,186.81v-3.39h-1.27V183h3.05v.46h-1.27v3.39Z"/><path class="cls-1" d="M163.39,186.81V184h.42v.43a1.13,1.13,0,0,1,.3-.39.47.47,0,0,1,.3-.1,1,1,0,0,1,.49.15l-.16.44a.67.67,0,0,0-.35-.1.47.47,0,0,0-.28.09.48.48,0,0,0-.17.26,1.63,1.63,0,0,0-.08.55v1.46Z"/><path class="cls-1" d="M167,186.81v-.41a1,1,0,0,1-.88.47,1.18,1.18,0,0,1-.46-.09.72.72,0,0,1-.46-.59,2.29,2.29,0,0,1,0-.44V184h.47v1.55a2.68,2.68,0,0,0,0,.5.48.48,0,0,0,.19.29.56.56,0,0,0,.35.1.77.77,0,0,0,.4-.1.6.6,0,0,0,.27-.3,1.53,1.53,0,0,0,.07-.54V184h.48v2.79Z"/><path class="cls-1" d="M168,186l.46-.08a.66.66,0,0,0,.22.43.76.76,0,0,0,.5.15.75.75,0,0,0,.49-.13.4.4,0,0,0,.15-.31.28.28,0,0,0-.13-.25,2.06,2.06,0,0,0-.49-.16,4.39,4.39,0,0,1-.72-.23.7.7,0,0,1-.3-.26.72.72,0,0,1-.1-.38.66.66,0,0,1,.08-.34.85.85,0,0,1,.23-.27,1.42,1.42,0,0,1,.3-.13,1.4,1.4,0,0,1,.41-.06,1.5,1.5,0,0,1,.58.1.75.75,0,0,1,.36.25,1,1,0,0,1,.16.43l-.46.07a.5.5,0,0,0-.18-.34.67.67,0,0,0-.43-.12.78.78,0,0,0-.46.11.31.31,0,0,0-.14.25.25.25,0,0,0,.06.16.42.42,0,0,0,.18.13l.42.12a6.1,6.1,0,0,1,.7.22.76.76,0,0,1,.31.25.7.7,0,0,1,.11.4.77.77,0,0,1-.14.44.88.88,0,0,1-.4.33,1.5,1.5,0,0,1-.58.11,1.32,1.32,0,0,1-.83-.22A1,1,0,0,1,168,186Z"/><path class="cls-1" d="M171.88,186.39l.07.41a1.63,1.63,0,0,1-.36,0,.76.76,0,0,1-.4-.09.45.45,0,0,1-.2-.21,2.07,2.07,0,0,1-.05-.56v-1.6h-.35V184h.35v-.69l.47-.28v1h.47v.37h-.47V186a.8.8,0,0,0,0,.26.18.18,0,0,0,.08.09.35.35,0,0,0,.16,0Z"/><path class="cls-1" d="M147.72,193.25v-3.84h.51v3.84Z"/><path class="cls-1" d="M149.07,193.25v-2.78h.42v.39a1,1,0,0,1,.89-.46,1.14,1.14,0,0,1,.46.09.73.73,0,0,1,.32.24.93.93,0,0,1,.15.35,4.32,4.32,0,0,1,0,.46v1.71h-.47v-1.69a1.12,1.12,0,0,0-.06-.43.39.39,0,0,0-.19-.23.58.58,0,0,0-.33-.09.81.81,0,0,0-.52.19.94.94,0,0,0-.22.73v1.52Z"/><path class="cls-1" d="M153.43,192l.48-.05a1.23,1.23,0,0,0,.16.48.94.94,0,0,0,.39.3,1.55,1.55,0,0,0,.59.11,1.36,1.36,0,0,0,.51-.09.64.64,0,0,0,.33-.23.56.56,0,0,0,0-.65.89.89,0,0,0-.35-.23,6.05,6.05,0,0,0-.68-.18,4.24,4.24,0,0,1-.74-.24,1,1,0,0,1-.41-.36.87.87,0,0,1-.14-.48,1,1,0,0,1,.17-.54,1,1,0,0,1,.48-.39,1.94,1.94,0,0,1,.7-.13,2,2,0,0,1,.76.14,1.17,1.17,0,0,1,.5.4,1.16,1.16,0,0,1,.19.61l-.49,0a.75.75,0,0,0-.27-.55,1,1,0,0,0-.67-.19,1.1,1.1,0,0,0-.67.17.51.51,0,0,0-.21.41.45.45,0,0,0,.15.34,2,2,0,0,0,.77.27,4.89,4.89,0,0,1,.85.25,1.09,1.09,0,0,1,.49.39.94.94,0,0,1,.16.55,1,1,0,0,1-.17.57,1.2,1.2,0,0,1-.51.43,1.75,1.75,0,0,1-.74.15,2,2,0,0,1-.87-.16,1.17,1.17,0,0,1-.55-.45A1.31,1.31,0,0,1,153.43,192Z"/><path class="cls-1" d="M158.94,192.23l.47.06a1.19,1.19,0,0,1-.39.75,1.15,1.15,0,0,1-.77.27,1.19,1.19,0,0,1-.92-.37,1.53,1.53,0,0,1-.35-1.07,2,2,0,0,1,.15-.79,1,1,0,0,1,.46-.51,1.35,1.35,0,0,1,.66-.17,1.17,1.17,0,0,1,.74.23,1,1,0,0,1,.37.65l-.45.08a.85.85,0,0,0-.24-.43.61.61,0,0,0-.4-.14.74.74,0,0,0-.58.26,1.21,1.21,0,0,0-.22.81,1.27,1.27,0,0,0,.21.81.71.71,0,0,0,.56.26.7.7,0,0,0,.47-.17A.87.87,0,0,0,158.94,192.23Z"/><path class="cls-1" d="M159.82,190v-.54h.47V190Zm0,3.3v-2.78h.47v2.78Z"/><path class="cls-1" d="M162.91,192.35l.49.06a1.21,1.21,0,0,1-.43.67,1.33,1.33,0,0,1-.8.23,1.25,1.25,0,0,1-1-.37,1.48,1.48,0,0,1-.36-1.06,1.54,1.54,0,0,1,.36-1.09,1.3,1.3,0,0,1,1.85,0,1.5,1.5,0,0,1,.35,1.07V192h-2.07a1,1,0,0,0,.26.7.76.76,0,0,0,.58.25.72.72,0,0,0,.44-.14A.92.92,0,0,0,162.91,192.35Zm-1.55-.76h1.56a1,1,0,0,0-.18-.53.74.74,0,0,0-.59-.27.72.72,0,0,0-.54.22A.86.86,0,0,0,161.36,191.59Z"/><path class="cls-1" d="M164,193.25v-2.78h.43v.39a1,1,0,0,1,.88-.46,1.23,1.23,0,0,1,.47.09.7.7,0,0,1,.31.24.93.93,0,0,1,.15.35,2.64,2.64,0,0,1,0,.46v1.71h-.47v-1.69a1.43,1.43,0,0,0-.05-.43.41.41,0,0,0-.2-.23.58.58,0,0,0-.33-.09.81.81,0,0,0-.52.19,1,1,0,0,0-.22.73v1.52Z"/><path class="cls-1" d="M168.79,192.23l.47.06a1.19,1.19,0,0,1-.39.75,1.15,1.15,0,0,1-.77.27,1.19,1.19,0,0,1-.92-.37,1.53,1.53,0,0,1-.35-1.07,2,2,0,0,1,.15-.79,1,1,0,0,1,.46-.51,1.35,1.35,0,0,1,.66-.17,1.17,1.17,0,0,1,.74.23,1,1,0,0,1,.37.65l-.46.08a.78.78,0,0,0-.23-.43.61.61,0,0,0-.4-.14.74.74,0,0,0-.58.26,1.21,1.21,0,0,0-.22.81,1.27,1.27,0,0,0,.21.81.71.71,0,0,0,.56.26.7.7,0,0,0,.47-.17A.87.87,0,0,0,168.79,192.23Z"/><path class="cls-1" d="M171.57,192.35l.49.06a1.21,1.21,0,0,1-.43.67,1.33,1.33,0,0,1-.8.23,1.27,1.27,0,0,1-1-.37,1.48,1.48,0,0,1-.35-1.06,1.54,1.54,0,0,1,.36-1.09,1.3,1.3,0,0,1,1.85,0,1.55,1.55,0,0,1,.35,1.07V192H170a1.11,1.11,0,0,0,.26.7.79.79,0,0,0,.58.25.73.73,0,0,0,.45-.14A.92.92,0,0,0,171.57,192.35Zm-1.55-.76h1.55a1,1,0,0,0-.17-.53.79.79,0,0,0-1.14-.05A.86.86,0,0,0,170,191.59Z"/><path class="cls-1" d="M175,194.38a4.74,4.74,0,0,1-.66-1.15,3.6,3.6,0,0,1-.27-1.37,3.68,3.68,0,0,1,.2-1.2,5.12,5.12,0,0,1,.73-1.32h.34a8.81,8.81,0,0,0-.42.78,3.76,3.76,0,0,0-.25.76,4,4,0,0,0-.11,1,4.75,4.75,0,0,0,.78,2.52Z"/><path class="cls-1" d="M175.89,190.33a1.23,1.23,0,0,1,.2-.7.7.7,0,0,1,.6-.29.78.78,0,0,1,.6.26,1.31,1.31,0,0,1,0,1.51.75.75,0,0,1-.59.26.72.72,0,0,1-.58-.26A1.1,1.1,0,0,1,175.89,190.33Zm.82-.66a.37.37,0,0,0-.3.15,1,1,0,0,0-.11.56.87.87,0,0,0,.12.52.34.34,0,0,0,.29.15.35.35,0,0,0,.29-.15,1,1,0,0,0,.12-.56.84.84,0,0,0-.12-.52A.36.36,0,0,0,176.71,189.67Zm0,3.72,2.1-4h.38l-2.09,4Zm1.66-1a1.14,1.14,0,0,1,.21-.7.7.7,0,0,1,.6-.29.79.79,0,0,1,.6.26,1.07,1.07,0,0,1,.24.76,1.09,1.09,0,0,1-.24.75.79.79,0,0,1-.6.26.73.73,0,0,1-.58-.26A1.15,1.15,0,0,1,178.37,192.35Zm.82-.66a.36.36,0,0,0-.29.15.93.93,0,0,0-.12.56.83.83,0,0,0,.12.51.35.35,0,0,0,.29.16.35.35,0,0,0,.3-.16.91.91,0,0,0,.12-.55.84.84,0,0,0-.12-.52A.37.37,0,0,0,179.19,191.69Z"/><path class="cls-1" d="M181,194.38h-.34a4.68,4.68,0,0,0,.79-2.52,4.11,4.11,0,0,0-.12-1,3.86,3.86,0,0,0-.24-.75,8.22,8.22,0,0,0-.43-.79H181a5.12,5.12,0,0,1,.73,1.32,3.44,3.44,0,0,1,.2,1.2,3.6,3.6,0,0,1-.27,1.37A4.74,4.74,0,0,1,181,194.38Z"/><polyline class="cls-10" points="141.2 104.57 149.97 118.87 160.01 103.98"/><circle class="cls-4" cx="149.87" cy="118.66" r="4.06"/><path class="cls-10" d="M159.82,95a8.95,8.95,0,1,1-8.93,9h0a9,9,0,0,1,8.93-9h0"/><path class="cls-10" d="M141.42,100.25a4.41,4.41,0,1,1-4.4,4.42h0a4.42,4.42,0,0,1,4.4-4.41"/><polyline class="cls-10" points="143.22 69.48 150.76 71.79 162.02 68.89"/><circle class="cls-4" cx="150.76" cy="71.79" r="1.08"/><path class="cls-10" d="M161.84,60a8.95,8.95,0,1,1-8.94,9v0A8.94,8.94,0,0,1,161.84,60h0"/><path class="cls-10" d="M143.43,65.17A4.4,4.4,0,1,1,139,69.58h0a4.39,4.39,0,0,1,4.39-4.4"/><path class="cls-8" d="M140.65,0a3.57,3.57,0,1,0,3.57,3.57A3.57,3.57,0,0,0,140.65,0"/></g></g></svg>