<svg xmlns="http://www.w3.org/2000/svg" viewBox="0 0 118.49 269.44"><defs><style>.cls-1{font-size:7.5px;fill:#3f1a13;}.cls-1,.cls-14{font-family:HelveticaNeue, Helvetica Neue;}.cls-2{fill:#c33;}.cls-3{fill:#d1ab39;}.cls-4{fill:#193c78;}.cls-5{fill:#29a78a;}.cls-6{fill:#f28000;}.cls-17,.cls-7{fill:none;stroke:#401a12;stroke-linecap:round;}.cls-7{stroke-width:1.06px;}.cls-8{fill:#009ee3;}.cls-9{fill:#d1aa37;}.cls-10{fill:#ef8009;}.cls-11{fill:#c93537;}.cls-12{fill:#1b3e74;}.cls-13{fill:#2ea58a;}.cls-14,.cls-18{font-size:6px;}.cls-14,.cls-16,.cls-18{fill:#3e1a13;}.cls-15{fill:#209dd9;}.cls-17{stroke-width:1.06px;}.cls-18{font-family:HelveticaNeue-Bold, Helvetica Neue;font-weight:700;}</style></defs><g id="Layer_2" data-name="Layer 2"><g id="Isolation_Mode" data-name="Isolation Mode"><text class="cls-1" transform="translate(0.94 85.93)">The bigger the blue circle and <tspan x="0" y="9.5">thicker the lines the greater the </tspan><tspan x="0" y="19">distrust in scientists. The longer </tspan><tspan x="0" y="28.5">the lines the greater the distrust </tspan><tspan x="0" y="38">in that societal group.</tspan></text><circle class="cls-2" cx="53.79" cy="58.14" r="5.29"/><circle class="cls-3" cx="43.83" cy="7.64" r="7.64"/><circle class="cls-4" cx="80.02" cy="31.38" r="8.46"/><circle class="cls-5" cx="29.28" cy="61.3" r="5.34"/><circle class="cls-6" cx="8.79" cy="32.73" r="7.68"/><path class="cls-7" d="M39.23,42.7,8.76,32.94M40.53,47.26,29.52,61M45.08,46.61l5.59,7.21M46.38,42.7,80.41,31M43.13,39.45l.52-32.19"/><path class="cls-8" d="M42.6,37.18a6.58,6.58,0,0,1,6.58,6.68,6.68,6.68,0,0,1-6.49,6.49,6.59,6.59,0,1,1-.09-13.17"/><path class="cls-9" d="M4.87,216.19a3.57,3.57,0,1,0,3.56,3.57,3.57,3.57,0,0,0-3.56-3.57"/><path class="cls-10" d="M4.87,227.51a3.57,3.57,0,1,0,3.56,3.57,3.56,3.56,0,0,0-3.56-3.57"/><path class="cls-11" d="M4.87,238.82a3.57,3.57,0,1,0,3.56,3.57,3.57,3.57,0,0,0-3.56-3.57"/><path class="cls-12" d="M4.87,250.13a3.57,3.57,0,1,0,3.56,3.57,3.57,3.57,0,0,0-3.56-3.57"/><path class="cls-13" d="M4.87,261.44A3.57,3.57,0,1,0,8.43,265a3.57,3.57,0,0,0-3.56-3.57"/><text class="cls-14" transform="translate(11.43 221.31)">Neighbours</text><text class="cls-14" transform="translate(11.43 232.62)">Ngos</text><text class="cls-14" transform="translate(11.43 243.93)">Journalists</text><text class="cls-14" transform="translate(11.43 255.25)">Government</text><text class="cls-14" transform="translate(11.43 266.56)">Doctors and nurses </text><path class="cls-15" d="M86.65,140.18a2,2,0,1,0,2,2,2,2,0,0,0-2-2"/><path class="cls-15" d="M86.89,148.7a5.42,5.42,0,1,0,5.41,5.42,5.42,5.42,0,0,0-5.41-5.42"/><path class="cls-16" d="M2,140.69v3.8H4.29V145H1.46v-4.28Z"/><path class="cls-16" d="M4.64,142.79a1.53,1.53,0,0,1,.28-.52,1.27,1.27,0,0,1,.48-.34,1.45,1.45,0,0,1,.65-.13,1.51,1.51,0,0,1,.65.13,1.32,1.32,0,0,1,.47.34,1.55,1.55,0,0,1,.29.52,2.15,2.15,0,0,1,.09.64,2.18,2.18,0,0,1-.09.63,1.42,1.42,0,0,1-.29.51,1.48,1.48,0,0,1-.47.35,1.67,1.67,0,0,1-.65.12,1.6,1.6,0,0,1-.65-.12,1.42,1.42,0,0,1-.48-.35,1.4,1.4,0,0,1-.28-.51,1.89,1.89,0,0,1-.1-.63A1.87,1.87,0,0,1,4.64,142.79Zm.51,1.14a1.07,1.07,0,0,0,.21.36.87.87,0,0,0,.31.23,1,1,0,0,0,.38.08,1,1,0,0,0,.37-.08.87.87,0,0,0,.31-.23,1.07,1.07,0,0,0,.21-.36,1.59,1.59,0,0,0,.07-.5,1.61,1.61,0,0,0-.07-.51,1,1,0,0,0-.21-.36.87.87,0,0,0-.31-.23.8.8,0,0,0-.37-.08.81.81,0,0,0-.38.08.87.87,0,0,0-.31.23,1,1,0,0,0-.21.36,1.61,1.61,0,0,0-.07.51A1.59,1.59,0,0,0,5.15,143.93Z"/><path class="cls-16" d="M10.68,145l-.63-2.46h0L9.42,145H8.87l-1-3.1h.56l.71,2.54h0l.62-2.54h.56l.65,2.54h0l.69-2.54h.53l-1,3.1Z"/><path class="cls-16" d="M16.63,145v-.42h0a.82.82,0,0,1-.4.38,1.63,1.63,0,0,1-.59.11,1.54,1.54,0,0,1-.63-.13,1.2,1.2,0,0,1-.44-.36,1.56,1.56,0,0,1-.27-.51,2.18,2.18,0,0,1-.09-.63,2.06,2.06,0,0,1,.09-.62,1.23,1.23,0,0,1,.26-.51,1.19,1.19,0,0,1,.45-.35,1.32,1.32,0,0,1,.62-.13l.25,0,.28.08a1.35,1.35,0,0,1,.26.15,1.15,1.15,0,0,1,.21.23h0v-1.59h.51V145Zm-1.83-1.1a1,1,0,0,0,.17.37.94.94,0,0,0,.3.26,1,1,0,0,0,.43.1.87.87,0,0,0,.44-.11.73.73,0,0,0,.29-.26,1.19,1.19,0,0,0,.17-.38,2,2,0,0,0,0-.42,1.68,1.68,0,0,0-.06-.45,1,1,0,0,0-.17-.37.83.83,0,0,0-.3-.26.91.91,0,0,0-.45-.1.87.87,0,0,0-.44.1.94.94,0,0,0-.29.27,1.13,1.13,0,0,0-.15.39,1.61,1.61,0,0,0,0,.44A1.52,1.52,0,0,0,14.8,143.87Z"/><path class="cls-16" d="M18,141.31v-.62h.5v.62Zm.5.56V145H18v-3.1Z"/><path class="cls-16" d="M19.65,144.28a.5.5,0,0,0,.19.19.67.67,0,0,0,.26.09,1,1,0,0,0,.3,0l.26,0,.24-.07a.49.49,0,0,0,.18-.14.36.36,0,0,0,.07-.24.34.34,0,0,0-.15-.3,1.15,1.15,0,0,0-.37-.16l-.49-.12a2.34,2.34,0,0,1-.49-.14,1.12,1.12,0,0,1-.38-.26.68.68,0,0,1-.15-.47.72.72,0,0,1,.11-.4.87.87,0,0,1,.27-.27,1.12,1.12,0,0,1,.37-.16,2,2,0,0,1,.41,0,2.49,2.49,0,0,1,.49,0,1.14,1.14,0,0,1,.39.16.66.66,0,0,1,.27.3,1.24,1.24,0,0,1,.13.47H21a.49.49,0,0,0-.07-.25.65.65,0,0,0-.17-.16.57.57,0,0,0-.23-.08,1,1,0,0,0-.24,0l-.24,0a.73.73,0,0,0-.21.06.36.36,0,0,0-.15.12.24.24,0,0,0-.06.19.28.28,0,0,0,.09.22A.7.7,0,0,0,20,143a1.35,1.35,0,0,0,.32.09l.36.08.37.11a1.13,1.13,0,0,1,.33.16.88.88,0,0,1,.23.24,1,1,0,0,1,0,.84.92.92,0,0,1-.31.31,1.46,1.46,0,0,1-.43.15,2.42,2.42,0,0,1-.47,0,2,2,0,0,1-.49-.06,1.15,1.15,0,0,1-.41-.17.85.85,0,0,1-.29-.33,1.13,1.13,0,0,1-.12-.48h.51A.51.51,0,0,0,19.65,144.28Z"/><path class="cls-16" d="M23.58,141.87v.45H23v1.93a.52.52,0,0,0,0,.14.1.1,0,0,0,.06.08.14.14,0,0,0,.11,0h.43V145h-.39l-.34,0a.56.56,0,0,1-.22-.1.38.38,0,0,1-.13-.21,1.05,1.05,0,0,1,0-.34v-2h-.53v-.45h.53v-.93H23v.93Z"/><path class="cls-16" d="M24.61,141.87v.65h0a1.42,1.42,0,0,1,.46-.55,1.13,1.13,0,0,1,.68-.17v.54a1.58,1.58,0,0,0-.52.08.83.83,0,0,0-.35.25,1,1,0,0,0-.19.39,2.15,2.15,0,0,0-.06.53V145h-.51v-3.1Z"/><path class="cls-16" d="M28.23,145v-.49h0a1.1,1.1,0,0,1-.41.42,1.27,1.27,0,0,1-.6.14,1.52,1.52,0,0,1-.51-.08,1,1,0,0,1-.33-.23.86.86,0,0,1-.17-.36,1.65,1.65,0,0,1-.06-.46v-2h.52V144a.65.65,0,0,0,.16.46.64.64,0,0,0,.46.17,1,1,0,0,0,.41-.08.72.72,0,0,0,.28-.2.87.87,0,0,0,.18-.31,1.6,1.6,0,0,0,.05-.39v-1.75h.51V145Z"/><path class="cls-16" d="M29.87,144.28a.58.58,0,0,0,.19.19.8.8,0,0,0,.26.09,1.06,1.06,0,0,0,.31,0l.25,0,.24-.07a.42.42,0,0,0,.26-.38.34.34,0,0,0-.15-.3,1.21,1.21,0,0,0-.38-.16l-.49-.12a2.53,2.53,0,0,1-.49-.14,1,1,0,0,1-.37-.26.68.68,0,0,1-.15-.47.72.72,0,0,1,.1-.4.87.87,0,0,1,.27-.27,1.18,1.18,0,0,1,.38-.16,1.84,1.84,0,0,1,.41,0,2.45,2.45,0,0,1,.48,0,1.29,1.29,0,0,1,.4.16.79.79,0,0,1,.27.3,1.08,1.08,0,0,1,.12.47h-.51a.49.49,0,0,0-.08-.25.52.52,0,0,0-.17-.16.58.58,0,0,0-.22-.08,1.07,1.07,0,0,0-.25,0l-.23,0a.79.79,0,0,0-.22.06.44.44,0,0,0-.15.12.29.29,0,0,0-.06.19.28.28,0,0,0,.09.22.7.7,0,0,0,.24.15,1.35,1.35,0,0,0,.32.09l.36.08.38.11a1.07,1.07,0,0,1,.32.16.75.75,0,0,1,.23.24.76.76,0,0,1,.09.38.81.81,0,0,1-.12.46.92.92,0,0,1-.31.31,1.3,1.3,0,0,1-.42.15,2.59,2.59,0,0,1-.47,0,2,2,0,0,1-.5-.06,1.15,1.15,0,0,1-.41-.17.85.85,0,0,1-.29-.33,1.13,1.13,0,0,1-.12-.48h.51A.61.61,0,0,0,29.87,144.28Z"/><path class="cls-16" d="M33.81,141.87v.45h-.62v1.93a.57.57,0,0,0,0,.14.1.1,0,0,0,.06.08.16.16,0,0,0,.12,0h.43V145h-.39l-.34,0a.61.61,0,0,1-.23-.1.44.44,0,0,1-.13-.21,1.05,1.05,0,0,1,0-.34v-2h-.53v-.45h.53v-.93h.51v.93Z"/><path class="cls-16" d="M36.72,140.69V145h-.57v-4.28Z"/><path class="cls-16" d="M38.07,141.87v.49h0a1.09,1.09,0,0,1,1-.56,1.43,1.43,0,0,1,.51.08.83.83,0,0,1,.33.24.78.78,0,0,1,.18.35,2.16,2.16,0,0,1,0,.46v2h-.51v-2.1a.61.61,0,0,0-.17-.45.62.62,0,0,0-.46-.17,1,1,0,0,0-.4.07.88.88,0,0,0-.29.2.94.94,0,0,0-.17.31,1.23,1.23,0,0,0-.06.39V145h-.51v-3.1Z"/><path class="cls-16" d="M43,144.28a.5.5,0,0,0,.19.19.67.67,0,0,0,.26.09,1,1,0,0,0,.3,0l.26,0,.24-.07a.49.49,0,0,0,.18-.14.36.36,0,0,0,.07-.24.34.34,0,0,0-.15-.3,1.15,1.15,0,0,0-.37-.16l-.49-.12a2.34,2.34,0,0,1-.49-.14,1,1,0,0,1-.38-.26.68.68,0,0,1-.15-.47.72.72,0,0,1,.11-.4.87.87,0,0,1,.27-.27,1.12,1.12,0,0,1,.37-.16,2,2,0,0,1,.41,0,2.49,2.49,0,0,1,.49,0,1.14,1.14,0,0,1,.39.16.66.66,0,0,1,.27.3,1.24,1.24,0,0,1,.13.47h-.52a.49.49,0,0,0-.07-.25.65.65,0,0,0-.17-.16.57.57,0,0,0-.23-.08,1,1,0,0,0-.24,0l-.24,0a.73.73,0,0,0-.21.06.36.36,0,0,0-.15.12.25.25,0,0,0-.07.19.29.29,0,0,0,.1.22.76.76,0,0,0,.23.15,1.59,1.59,0,0,0,.33.09l.36.08.37.11a1.13,1.13,0,0,1,.33.16.88.88,0,0,1,.23.24,1,1,0,0,1,0,.84.92.92,0,0,1-.31.31,1.46,1.46,0,0,1-.43.15,2.42,2.42,0,0,1-.47,0,2,2,0,0,1-.49-.06,1.15,1.15,0,0,1-.41-.17.85.85,0,0,1-.29-.33,1.13,1.13,0,0,1-.12-.48h.51A.51.51,0,0,0,43,144.28Z"/><path class="cls-16" d="M47.45,142.41a.77.77,0,0,0-.52-.16,1,1,0,0,0-.46.1.84.84,0,0,0-.29.27A1,1,0,0,0,46,143a2.22,2.22,0,0,0-.05.45,1.93,1.93,0,0,0,.05.42,1,1,0,0,0,.16.36.78.78,0,0,0,.28.26.9.9,0,0,0,.42.1.86.86,0,0,0,.59-.2,1,1,0,0,0,.26-.56h.52a1.47,1.47,0,0,1-.43.89,1.38,1.38,0,0,1-.94.31,1.81,1.81,0,0,1-.63-.11,1.25,1.25,0,0,1-.45-.33,1.44,1.44,0,0,1-.28-.5,2.15,2.15,0,0,1-.09-.64,2.27,2.27,0,0,1,.09-.65,1.56,1.56,0,0,1,.27-.53,1.23,1.23,0,0,1,.46-.35,1.44,1.44,0,0,1,.64-.13,2,2,0,0,1,.5.06,1.2,1.2,0,0,1,.41.2,1.17,1.17,0,0,1,.29.33,1.29,1.29,0,0,1,.14.48H47.7A.77.77,0,0,0,47.45,142.41Z"/><path class="cls-16" d="M48.85,141.31v-.62h.51v.62Zm.51.56V145h-.51v-3.1Z"/><path class="cls-16" d="M52.35,144.77a1.42,1.42,0,0,1-.88.27,1.56,1.56,0,0,1-.64-.12,1.13,1.13,0,0,1-.46-.34,1.27,1.27,0,0,1-.28-.51,2.68,2.68,0,0,1-.11-.66,2,2,0,0,1,.11-.65,1.48,1.48,0,0,1,.3-.5,1.32,1.32,0,0,1,.47-.34,1.37,1.37,0,0,1,.58-.12,1.31,1.31,0,0,1,.69.17,1.39,1.39,0,0,1,.44.43,1.7,1.7,0,0,1,.22.58,2.48,2.48,0,0,1,.05.59H50.52a1.23,1.23,0,0,0,0,.39,1.06,1.06,0,0,0,.18.33.84.84,0,0,0,.3.22,1,1,0,0,0,.44.09.84.84,0,0,0,.53-.16.67.67,0,0,0,.27-.45h.51A1.22,1.22,0,0,1,52.35,144.77Zm-.13-2a.84.84,0,0,0-.18-.28.9.9,0,0,0-.28-.18.78.78,0,0,0-.35-.07.86.86,0,0,0-.36.07.83.83,0,0,0-.27.19.75.75,0,0,0-.18.28,1.21,1.21,0,0,0-.08.34H52.3A.85.85,0,0,0,52.22,142.78Z"/><path class="cls-16" d="M53.85,141.87v.49h0a1.09,1.09,0,0,1,1-.56,1.43,1.43,0,0,1,.51.08.83.83,0,0,1,.33.24.78.78,0,0,1,.18.35,2.16,2.16,0,0,1,0,.46v2h-.51v-2.1a.61.61,0,0,0-.17-.45.62.62,0,0,0-.46-.17,1,1,0,0,0-.4.07.88.88,0,0,0-.29.2.94.94,0,0,0-.17.31,1.23,1.23,0,0,0-.06.39V145h-.51v-3.1Z"/><path class="cls-16" d="M58,141.87v.45h-.61v1.93a.57.57,0,0,0,0,.14.1.1,0,0,0,.06.08.16.16,0,0,0,.12,0H58V145h-.39l-.33,0a.61.61,0,0,1-.23-.1.44.44,0,0,1-.13-.21,1.05,1.05,0,0,1,0-.34v-2h-.53v-.45h.53v-.93h.51v.93Z"/><path class="cls-16" d="M58.63,141.31v-.62h.51v.62Zm.51.56V145h-.51v-3.1Z"/><path class="cls-16" d="M60.32,144.28a.58.58,0,0,0,.19.19.73.73,0,0,0,.26.09,1.06,1.06,0,0,0,.31,0l.25,0,.24-.07a.42.42,0,0,0,.26-.38.34.34,0,0,0-.15-.3,1.21,1.21,0,0,0-.38-.16l-.49-.12a2.53,2.53,0,0,1-.49-.14,1,1,0,0,1-.37-.26.68.68,0,0,1-.15-.47.72.72,0,0,1,.1-.4.87.87,0,0,1,.27-.27,1.18,1.18,0,0,1,.38-.16,1.84,1.84,0,0,1,.41,0,2.45,2.45,0,0,1,.48,0,1.14,1.14,0,0,1,.39.16.74.74,0,0,1,.28.3,1.08,1.08,0,0,1,.12.47h-.51a.61.61,0,0,0-.08-.25.52.52,0,0,0-.17-.16.58.58,0,0,0-.22-.08,1.07,1.07,0,0,0-.25,0l-.23,0a.79.79,0,0,0-.22.06.44.44,0,0,0-.15.12.29.29,0,0,0-.06.19.28.28,0,0,0,.09.22.7.7,0,0,0,.24.15,1.35,1.35,0,0,0,.32.09l.36.08.38.11a1.07,1.07,0,0,1,.32.16.75.75,0,0,1,.23.24.76.76,0,0,1,.09.38.81.81,0,0,1-.12.46.92.92,0,0,1-.31.31,1.4,1.4,0,0,1-.42.15,2.59,2.59,0,0,1-.47,0,2,2,0,0,1-.5-.06,1.15,1.15,0,0,1-.41-.17.85.85,0,0,1-.29-.33,1.13,1.13,0,0,1-.12-.48h.51A.61.61,0,0,0,60.32,144.28Z"/><path class="cls-16" d="M64.26,141.87v.45h-.62v1.93a.57.57,0,0,0,0,.14.1.1,0,0,0,.06.08.16.16,0,0,0,.12,0h.43V145h-.39l-.34,0a.61.61,0,0,1-.23-.1.44.44,0,0,1-.13-.21,1.05,1.05,0,0,1,0-.34v-2H62.6v-.45h.53v-.93h.51v.93Z"/><path class="cls-16" d="M65.21,144.28a.58.58,0,0,0,.19.19.8.8,0,0,0,.26.09,1.06,1.06,0,0,0,.31,0l.25,0,.24-.07a.42.42,0,0,0,.26-.38.34.34,0,0,0-.15-.3,1.21,1.21,0,0,0-.38-.16l-.49-.12a2.53,2.53,0,0,1-.49-.14,1,1,0,0,1-.37-.26.68.68,0,0,1-.15-.47.72.72,0,0,1,.1-.4.87.87,0,0,1,.27-.27,1.18,1.18,0,0,1,.38-.16,1.84,1.84,0,0,1,.41,0,2.45,2.45,0,0,1,.48,0,1.29,1.29,0,0,1,.4.16.79.79,0,0,1,.27.3,1.08,1.08,0,0,1,.12.47h-.51a.49.49,0,0,0-.08-.25.52.52,0,0,0-.17-.16.58.58,0,0,0-.22-.08,1.07,1.07,0,0,0-.25,0l-.23,0a.79.79,0,0,0-.22.06.44.44,0,0,0-.15.12.29.29,0,0,0-.06.19.28.28,0,0,0,.09.22.7.7,0,0,0,.24.15,1.35,1.35,0,0,0,.32.09l.36.08.38.11a1.07,1.07,0,0,1,.32.16.75.75,0,0,1,.23.24.76.76,0,0,1,.09.38.81.81,0,0,1-.12.46.92.92,0,0,1-.31.31,1.3,1.3,0,0,1-.42.15,2.59,2.59,0,0,1-.47,0,2,2,0,0,1-.5-.06,1.15,1.15,0,0,1-.41-.17.85.85,0,0,1-.29-.33,1.13,1.13,0,0,1-.12-.48h.51A.61.61,0,0,0,65.21,144.28Z"/><path class="cls-16" d="M69.94,145.49a5,5,0,0,1-.3-.68,5.56,5.56,0,0,1-.19-.7,4.59,4.59,0,0,1-.06-.76,4.69,4.69,0,0,1,.23-1.42,4.54,4.54,0,0,1,.71-1.34h.39a4.87,4.87,0,0,0-.61,1.35,5.45,5.45,0,0,0-.18,1.41,5.57,5.57,0,0,0,.18,1.44,4.92,4.92,0,0,0,.61,1.36h-.39A5.69,5.69,0,0,1,69.94,145.49Z"/><path class="cls-16" d="M71.26,141.47a1,1,0,0,1,.16-.38.77.77,0,0,1,.3-.27.92.92,0,0,1,.46-.1,1.09,1.09,0,0,1,.47.09.92.92,0,0,1,.29.26,1.18,1.18,0,0,1,.16.38,2.42,2.42,0,0,1,0,.47,2.22,2.22,0,0,1,0,.45,1,1,0,0,1-.17.39.8.8,0,0,1-.29.26.88.88,0,0,1-.45.11,1,1,0,0,1-.45-.1.68.68,0,0,1-.3-.25,1,1,0,0,1-.17-.38,2.24,2.24,0,0,1-.05-.46A2.34,2.34,0,0,1,71.26,141.47Zm.41.74a1.15,1.15,0,0,0,.07.28.6.6,0,0,0,.16.22.36.36,0,0,0,.26.09.41.41,0,0,0,.28-.09.65.65,0,0,0,.16-.21.88.88,0,0,0,.07-.29,1.46,1.46,0,0,0,0-.29c0-.09,0-.18,0-.29a1.28,1.28,0,0,0-.07-.28.66.66,0,0,0-.15-.21.41.41,0,0,0-.28-.09.4.4,0,0,0-.27.09.56.56,0,0,0-.16.21,1.28,1.28,0,0,0-.07.28c0,.11,0,.2,0,.3S71.67,142.11,71.67,142.21Zm3.85-1.57L72.3,145.1h-.51L75,140.64Zm-1.3,2.75a1.18,1.18,0,0,1,.16-.38.77.77,0,0,1,.3-.27,1,1,0,0,1,.47-.1,1,1,0,0,1,.46.09,1.08,1.08,0,0,1,.3.26,1.16,1.16,0,0,1,.15.38,2.42,2.42,0,0,1,0,.47,2.14,2.14,0,0,1,0,.45,1.15,1.15,0,0,1-.17.39.94.94,0,0,1-.3.26.87.87,0,0,1-.44.1,1,1,0,0,1-.46-.09.94.94,0,0,1-.3-.26.89.89,0,0,1-.16-.37,1.7,1.7,0,0,1-.06-.46A2.34,2.34,0,0,1,74.22,143.39Zm.42.74a.82.82,0,0,0,.07.28.57.57,0,0,0,.15.22.4.4,0,0,0,.27.09.38.38,0,0,0,.27-.09.65.65,0,0,0,.16-.21.89.89,0,0,0,.08-.29c0-.1,0-.2,0-.29s0-.18,0-.29a.89.89,0,0,0-.07-.28.45.45,0,0,0-.15-.21.4.4,0,0,0-.27-.09.37.37,0,0,0-.27.09.47.47,0,0,0-.16.21.9.9,0,0,0-.08.28c0,.11,0,.2,0,.3S74.63,144,74.64,144.13Z"/><path class="cls-16" d="M77.21,144.8a5.45,5.45,0,0,0,.18-1.41,5.55,5.55,0,0,0-.18-1.43,5.49,5.49,0,0,0-.61-1.37H77c.14.22.27.44.39.67a5.65,5.65,0,0,1,.29.67,3.55,3.55,0,0,1,.19.71,3.67,3.67,0,0,1,.07.75,4.47,4.47,0,0,1-.24,1.43,4.36,4.36,0,0,1-.7,1.33H76.6A4.75,4.75,0,0,0,77.21,144.8Z"/><text class="cls-14" transform="translate(1.01 156.13)">High distrust In scientists (%)</text><line class="cls-17" x1="68.38" y1="201.31" x2="117.96" y2="201.31"/><text class="cls-14" transform="translate(0 203.49)">High distrust group (%) </text><line class="cls-17" x1="97.57" y1="190.14" x2="68.71" y2="190.14"/><text class="cls-14" transform="translate(0 192.56)">Some distrust group (%) </text><line class="cls-17" x1="77.07" y1="180.72" x2="69.05" y2="180.72"/><text class="cls-14" transform="translate(0 182.8)"><tspan xml:space="preserve">Low distrust group (%)  </tspan></text><text class="cls-18" transform="translate(0 172.38)">Societal groups </text></g></g></svg>