<svg xmlns="http://www.w3.org/2000/svg" viewBox="0 0 102.8 109.21"><defs><style>.cls-1{fill:#1c3d75;}.cls-2,.cls-7{fill:none;stroke-miterlimit:10;}.cls-2{stroke:#3f1a13;stroke-width:1.06px;}.cls-3{fill:#f8b233;}.cls-4{font-size:6px;fill:#3f1a13;font-family:HelveticaNeue, Helvetica Neue;}.cls-5{fill:#26a3de;}.cls-6{fill:#c46157;}.cls-7{stroke:#f8b233;stroke-width:3px;}</style></defs><g id="Layer_2" data-name="Layer 2"><g id="Isolation_Mode" data-name="Isolation Mode"><path class="cls-1" d="M93.23,15.5a7,7,0,1,1-7,7,7,7,0,0,1,7-7"/><polyline class="cls-2" points="9.87 22.52 30.58 56.31 54.29 21.13"/><circle class="cls-3" cx="30.33" cy="55.81" r="9.6"/><text class="cls-4" transform="translate(30.12 77.74)">The greater the yellow <tspan x="0" y="7.2">circle, the deeper the </tspan><tspan x="0" y="14.4">plunge in cultural authority </tspan><tspan x="0" y="21.6">of science.</tspan></text><path class="cls-5" d="M53.85,0a21.13,21.13,0,1,1-21.1,21.12A21.11,21.11,0,0,1,53.85,0"/><path class="cls-6" d="M10.38,12.33A10.4,10.4,0,1,1,0,22.73a10.4,10.4,0,0,1,10.38-10.4"/><line class="cls-7" x1="30.58" y1="56.31" x2="54.29" y2="21.12"/></g></g></svg>