<svg xmlns="http://www.w3.org/2000/svg" viewBox="0 0 121.21 121.33"><defs><style>.cls-1{fill:#c33;}.cls-2{fill:#d1ab39;}.cls-3{fill:#193c78;}.cls-4{fill:#29a78a;}.cls-5{fill:#f28000;}.cls-6{fill:none;stroke:#401a12;stroke-linecap:round;stroke-width:1.06px;}.cls-7{font-size:6px;fill:#3f1a13;font-family:HelveticaNeue, Helvetica Neue;}.cls-8{fill:#009ee3;}</style></defs><g id="Layer_2" data-name="Layer 2"><g id="Isolation_Mode" data-name="Isolation Mode"><circle class="cls-1" cx="58.96" cy="63.33" r="5.29"/><circle class="cls-2" cx="48.2" cy="7.64" r="7.64"/><circle class="cls-3" cx="85.19" cy="36.57" r="8.46"/><circle class="cls-4" cx="26.33" cy="78.75" r="5.34"/><circle class="cls-5" cx="7.68" cy="35.84" r="7.68"/><path class="cls-6" d="M44.39,47.89,7.65,36.06m38,16.38-19,25.77M50.25,51.79,55.84,59M51.55,47.89l34-11.72M48.29,44.63,48,7.26"/><text class="cls-7" transform="translate(49.08 81.68)">The bigger the blue <tspan x="0" y="7.2">centre, the greater the </tspan><tspan x="0" y="14.4">distrust in scientists.</tspan><tspan x="0" y="21.6">The thinner and longer the </tspan><tspan x="0" y="28.8">lines, the weaker the trust </tspan><tspan x="0" y="36">in that group.</tspan></text><path class="cls-8" d="M47.76,42.36A6.59,6.59,0,1,1,41.18,49a6.58,6.58,0,0,1,6.58-6.59"/></g></g></svg>